0
SECTION
2
HEADER
9
$INSUNITS
70
4
9
$ACADVER
1
AC1014
9
$HANDSEED
5
FFFF
0
ENDSEC
0
SECTION
2
TABLES
0
TABLE
2
VPORT
5
8
100
AcDbSymbolTable
0
ENDTAB
0
TABLE
2
LTYPE
5
5
100
AcDbSymbolTable
0
LTYPE
5
14
100
AcDbSymbolTableRecord
100
AcDbLinetypeTableRecord
2
BYBLOCK
70
0
0
LTYPE
5
15
100
AcDbSymbolTableRecord
100
AcDbLinetypeTableRecord
2
BYLAYER
70
0
0
ENDTAB
0
TABLE
2
LAYER
5
2
100
AcDbSymbolTable
70
2
0
LAYER
5
50
100
AcDbSymbolTableRecord
100
AcDbLayerTableRecord
2
0
70
0
6
CONTINUOUS
0
ENDTAB
0
TABLE
2
STYLE
5
3
100
AcDbSymbolTable
70
1
0
STYLE
5
11
100
AcDbSymbolTableRecord
100
AcDbTextStyleTableRecord
2
STANDARD
70
0
0
ENDTAB
0
TABLE
2
VIEW
5
6
100
AcDbSymbolTable
70
0
0
ENDTAB
0
TABLE
2
UCS
5
7
100
AcDbSymbolTable
70
0
0
ENDTAB
0
TABLE
2
APPID
5
9
100
AcDbSymbolTable
70
2
0
APPID
5
12
100
AcDbSymbolTableRecord
100
AcDbRegAppTableRecord
2
ACAD
70
0
0
ENDTAB
0
TABLE
2
DIMSTYLE
5
A
100
AcDbSymbolTable
70
1
0
ENDTAB
0
TABLE
2
BLOCK_RECORD
5
1
100
AcDbSymbolTable
70
1
0
BLOCK_RECORD
5
1F
100
AcDbSymbolTableRecord
100
AcDbBlockTableRecord
2
*MODEL_SPACE
0
BLOCK_RECORD
5
1B
100
AcDbSymbolTableRecord
100
AcDbBlockTableRecord
2
*PAPER_SPACE
0
ENDTAB
0
ENDSEC
0
SECTION
2
BLOCKS
0
BLOCK
5
20
100
AcDbEntity
100
AcDbBlockBegin
2
*MODEL_SPACE
0
ENDBLK
5
21
100
AcDbEntity
100
AcDbBlockEnd
0
BLOCK
5
1C
100
AcDbEntity
100
AcDbBlockBegin
2
*PAPER_SPACE
0
ENDBLK
5
1D
100
AcDbEntity
100
AcDbBlockEnd
0
ENDSEC
0
SECTION
2
ENTITIES
0
LWPOLYLINE
5
100
100
AcDbEntity
8
OUTER_PROFILES
100
AcDbPolyline
90
44
70
1
43
0.0
10
0
20
262.5238934211693
10
15
20
262.5238934211693
10
15
20
262.0238934211693
10
15.999999999999943
20
262.0238934211693
10
16.000000000000014
20
274.78584013175396
10
56.585786437627021
20
274.78584013175396
10
56.58578643762695
20
262.0238934211693
10
57.585786437627036
20
262.0238934211693
10
57.585786437627036
20
262.5238934211693
10
398.99999999999989
20
262.5238934211693
10
398.99999999999989
20
262.0238934211693
10
399.99999999999989
20
262.0238934211693
10
399.99999999999989
20
274.78584013175401
10
440.58578643762689
20
274.78584013175401
10
440.58578643762689
20
262.0238934211693
10
441.58578643762678
20
262.0238934211693
10
441.58578643762678
20
262.5238934211693
10
456.58578643762695
20
262.5238934211693
10
456.58578643762689
20
246.5238934211693
10
456.29289321881345
20
246.5238934211693
10
456.29289321881345
20
244.26194671058465
10
458.5548399293981
20
244.26194671058465
10
458.5548399293981
20
244.55483992939818
10
474.5548399293981
20
244.55483992939804
10
474.5548399293981
20
17.96905349177127
10
458.5548399293981
20
17.96905349177127
10
458.5548399293981
20
18.261946710584667
10
456.29289321881345
20
18.261946710584667
10
456.29289321881345
20
16.000000000000014
10
456.58578643762689
20
16.000000000000014
10
456.58578643762695
20
0
10
0
20
0
10
0
20
16.000000000000014
10
0.29289321881343255
20
16.000000000000014
10
0.29289321881350361
20
18.261946710584667
10
-1.9690534917712199
20
18.261946710584667
10
-1.9690534917712199
20
17.969053491771128
10
-17.969053491771234
20
17.96905349177127
10
-17.969053491771234
20
244.55483992939804
10
-1.9690534917712199
20
244.55483992939804
10
-1.9690534917712199
20
244.26194671058465
10
0.29289321881343255
20
244.26194671058465
10
0.29289321881343255
20
246.5238934211693
10
0
20
246.5238934211693
0
LWPOLYLINE
5
101
100
AcDbEntity
8
INTERIOR_PROFILES
100
AcDbPolyline
90
4
70
1
43
0.0
10
294.2928932188135
20
99.904839929398022
10
297.29289321881345
20
99.904839929398022
42
0.99999999999999989
10
297.29289321881345
20
104.20483992939802
10
294.2928932188135
20
104.20483992939802
42
0.99999999999999989
0
LWPOLYLINE
5
102
100
AcDbEntity
8
INTERIOR_PROFILES
100
AcDbPolyline
90
4
70
1
43
0.0
10
174.2928932188135
20
99.904839929398022
10
177.29289321881345
20
99.904839929398022
42
0.99999999999999989
10
177.29289321881345
20
104.20483992939802
10
174.2928932188135
20
104.20483992939802
42
0.99999999999999989
0
LWPOLYLINE
5
103
100
AcDbEntity
8
INTERIOR_PROFILES
100
AcDbPolyline
90
4
70
1
43
0.0
10
162.29289321881345
20
209.20483992939808
10
159.29289321881348
20
209.20483992939808
42
0.99999999999999989
10
159.29289321881348
20
204.90483992939801
10
162.29289321881345
20
204.90483992939801
42
0.99999999999999989
0
LWPOLYLINE
5
104
100
AcDbEntity
8
INTERIOR_PROFILES
100
AcDbPolyline
90
4
70
1
43
0.0
10
159.29289321881348
20
99.904839929398022
10
162.29289321881345
20
99.904839929398022
42
0.99999999999999989
10
162.29289321881345
20
104.20483992939802
10
159.29289321881348
20
104.20483992939802
42
0.99999999999999989
0
LWPOLYLINE
5
105
100
AcDbEntity
8
INTERIOR_PROFILES
100
AcDbPolyline
90
4
70
1
43
0.0
10
294.2928932188135
20
209.20483992939802
42
0.99999999999999989
10
294.2928932188135
20
204.90483992939807
10
297.29289321881345
20
204.90483992939801
42
0.99999999999999989
10
297.29289321881345
20
209.20483992939808
0
LWPOLYLINE
5
106
100
AcDbEntity
8
INTERIOR_PROFILES
100
AcDbPolyline
90
8
70
1
43
0.0
10
260.7928932188135
20
212.05483992939804
10
195.79289321881348
20
212.05483992939804
10
170.7928932188135
20
187.05483992939804
10
170.7928932188135
20
122.05483992939806
10
195.79289321881356
20
97.054839929398057
10
260.79289321881356
20
97.054839929398057
10
285.7928932188135
20
122.05483992939806
10
285.7928932188135
20
187.05483992939804
0
LWPOLYLINE
5
107
100
AcDbEntity
8
INTERIOR_PROFILES
100
AcDbPolyline
90
8
70
1
43
0.0
10
379.58578643762672
20
54.154839929398058
10
381.58578643762672
20
54.154839929398058
10
381.58578643762672
20
67.054839929398057
10
333.78578643762671
20
67.054839929398057
10
333.78578643762671
20
54.154839929398079
10
335.78578643762677
20
54.154839929398079
10
335.78578643762677
20
65.054839929398057
10
379.58578643762672
20
65.054839929398057
0
LWPOLYLINE
5
108
100
AcDbEntity
8
INTERIOR_PROFILES
100
AcDbPolyline
90
4
70
1
43
0.0
10
279.29289321881345
20
104.20483992939802
42
0.99999999999999989
10
279.29289321881345
20
99.904839929398022
10
282.29289321881345
20
99.904839929398022
42
0.99999999999999989
10
282.29289321881345
20
104.20483992939802
0
LWPOLYLINE
5
109
100
AcDbEntity
8
INTERIOR_PROFILES
100
AcDbPolyline
90
4
70
1
43
0.0
10
57.292893218813475
20
104.20483992939802
10
54.292893218813475
20
104.20483992939802
42
0.99999999999999989
10
54.292893218813475
20
99.904839929398022
10
57.292893218813461
20
99.904839929398022
42
0.99999999999999989
0
LWPOLYLINE
5
110
100
AcDbEntity
8
INTERIOR_PROFILES
100
AcDbPolyline
90
4
70
1
43
0.0
10
54.292893218813475
20
204.90483992939801
10
57.292893218813468
20
204.90483992939801
42
0.99999999999999989
10
57.292893218813468
20
209.20483992939808
10
54.292893218813475
20
209.20483992939808
42
0.99999999999999989
0
LWPOLYLINE
5
111
100
AcDbEntity
8
INTERIOR_PROFILES
100
AcDbPolyline
90
4
70
1
43
0.0
10
282.29289321881345
20
204.90483992939801
42
0.99999999999999989
10
282.29289321881345
20
209.20483992939808
10
279.29289321881345
20
209.20483992939808
42
0.99999999999999989
10
279.29289321881345
20
204.90483992939801
0
LWPOLYLINE
5
112
100
AcDbEntity
8
INTERIOR_PROFILES
100
AcDbPolyline
90
4
70
1
43
0.0
10
399.29289321881345
20
204.90483992939801
10
402.29289321881345
20
204.90483992939801
42
0.99999999999999989
10
402.29289321881345
20
209.20483992939808
10
399.29289321881345
20
209.20483992939808
42
0.99999999999999989
0
LWPOLYLINE
5
113
100
AcDbEntity
8
INTERIOR_PROFILES
100
AcDbPolyline
90
4
70
1
43
0.0
10
399.29289321881345
20
99.904839929398022
10
402.29289321881345
20
99.904839929398022
42
0.99999999999999989
10
402.29289321881345
20
104.20483992939802
10
399.29289321881345
20
104.20483992939802
42
0.99999999999999989
0
LWPOLYLINE
5
114
100
AcDbEntity
8
INTERIOR_PROFILES
100
AcDbPolyline
90
8
70
1
43
0.0
10
405.79289321881345
20
187.05483992939804
10
380.79289321881345
20
212.05483992939804
10
315.79289321881345
20
212.05483992939804
10
290.7928932188135
20
187.05483992939804
10
290.7928932188135
20
122.05483992939806
10
315.79289321881356
20
97.054839929398057
10
380.79289321881356
20
97.054839929398057
10
405.79289321881345
20
122.05483992939806
0
LWPOLYLINE
5
115
100
AcDbEntity
8
INTERIOR_PROFILES
100
AcDbPolyline
90
8
70
1
43
0.0
10
333.78578643762671
20
51.154839929398072
10
333.78578643762671
20
38.254839929398067
10
381.58578643762672
20
38.254839929398067
10
381.58578643762672
20
51.154839929398072
10
379.58578643762672
20
51.154839929398072
10
379.58578643762672
20
40.254839929398059
10
335.78578643762677
20
40.254839929398059
10
335.78578643762677
20
51.154839929398072
0
LWPOLYLINE
5
116
100
AcDbEntity
8
INTERIOR_PROFILES
100
AcDbPolyline
90
4
70
1
43
0.0
10
177.29289321881345
20
209.20483992939808
10
174.2928932188135
20
209.20483992939802
42
0.99999999999999989
10
174.2928932188135
20
204.90483992939807
10
177.29289321881345
20
204.90483992939801
42
0.99999999999999989
0
LWPOLYLINE
5
117
100
AcDbEntity
8
INTERIOR_PROFILES
100
AcDbPolyline
90
4
70
1
43
0.0
10
64.000000000000014
20
258.5238934211693
10
58.000000000000014
20
258.5238934211693
42
0.99999999999999989
10
58.000000000000014
20
252.5238934211693
10
64.000000000000014
20
252.5238934211693
42
0.99999999999999989
0
LWPOLYLINE
5
118
100
AcDbEntity
8
INTERIOR_PROFILES
100
AcDbPolyline
90
8
70
1
43
0.0
10
75.792893218813489
20
212.05483992939804
10
50.792893218813511
20
187.05483992939804
10
50.792893218813511
20
122.05483992939806
10
75.792893218813532
20
97.054839929398057
10
140.79289321881353
20
97.054839929398057
10
165.7928932188135
20
122.05483992939806
10
165.7928932188135
20
187.05483992939804
10
140.7928932188135
20
212.05483992939804
0
LWPOLYLINE
5
119
100
AcDbEntity
8
INTERIOR_PROFILES
100
AcDbPolyline
90
4
70
1
43
0.0
10
398.58578643762633
20
3.0000000000007243
42
0.99999999999999989
10
398.58578643762633
20
9.0000000000007248
10
392.58578643762638
20
9.0000000000007248
42
0.99999999999999989
10
392.58578643762638
20
3.0000000000007243
0
LWPOLYLINE
5
120
100
AcDbEntity
8
INTERIOR_PROFILES
100
AcDbPolyline
90
4
70
1
43
0.0
10
58.000000000000007
20
2.9999999999992677
10
64
20
2.9999999999992677
42
0.99999999999999989
10
64
20
8.9999999999992681
10
58.000000000000007
20
8.9999999999992681
42
0.99999999999999989
0
LWPOLYLINE
5
121
100
AcDbEntity
8
INTERIOR_PROFILES
100
AcDbPolyline
90
4
70
1
43
0.0
10
398.58578643762633
20
258.5238934211693
10
392.58578643762638
20
258.5238934211693
42
0.99999999999999989
10
392.58578643762638
20
252.5238934211693
10
398.58578643762633
20
252.5238934211693
42
0.99999999999999989
0
LINE
5
122
100
AcDbEntity
8
BEND
100
AcDbLine
10
0.29289321881343255
20
245.39292006587698
30
3.9135361618036768e-14
11
456.29289321881345
21
245.39292006587698
31
3.9135361618036768e-14
0
LINE
5
123
100
AcDbEntity
8
BEND
100
AcDbLine
10
-0.83808013647882262
20
18.261946710584667
30
3.8857805861880479e-14
11
-0.83808013647882262
21
244.26194671058465
31
3.8857805861880479e-14
0
LINE
5
124
100
AcDbEntity
8
BEND
100
AcDbLine
10
456.29289321881345
20
17.13097335529234
30
3.9135361618036768e-14
11
0.29289321881343255
21
17.13097335529234
31
3.9135361618036768e-14
0
LINE
5
125
100
AcDbEntity
8
BEND
100
AcDbLine
10
440.58578643762689
20
263.65486677646163
30
-2.3349966153023948e-14
11
399.99999999999989
21
263.65486677646163
31
-2.3556956637388228e-14
0
LINE
5
126
100
AcDbEntity
8
BEND
100
AcDbLine
10
457.42386657410572
20
244.26194671058465
30
3.8857805861880479e-14
11
457.42386657410572
21
18.261946710584667
31
3.8857805861880479e-14
0
LINE
5
127
100
AcDbEntity
8
BEND
100
AcDbLine
10
56.585786437627092
20
263.65486677646163
30
-2.3349966153023863e-14
11
16.000000000000014
21
263.65486677646163
31
-2.3556956637388317e-14
0
LINE
5
128
100
AcDbEntity
8
BEND_EXTENT
100
AcDbLine
10
16.000000000000014
20
264.78584013175396
30
-3.5527136788005009e-14
11
56.585786437627092
21
264.78584013175396
31
-3.5527136788005009e-14
0
LINE
5
129
100
AcDbEntity
8
BEND_EXTENT
100
AcDbLine
10
56.58578643762695
20
262.5238934211693
30
0
11
15.999999999999943
21
262.5238934211693
31
0
0
LINE
5
130
100
AcDbEntity
8
BEND_EXTENT
100
AcDbLine
10
0.29289321881343255
20
246.5238934211693
30
3.5527136788005009e-14
11
456.29289321881345
21
246.5238934211693
31
3.5527136788005009e-14
0
LINE
5
131
100
AcDbEntity
8
BEND_EXTENT
100
AcDbLine
10
440.58578643762689
20
262.5238934211693
30
0
11
399.99999999999989
21
262.5238934211693
31
0
0
LINE
5
132
100
AcDbEntity
8
BEND_EXTENT
100
AcDbLine
10
399.99999999999989
20
264.78584013175401
30
-3.5527136788005009e-14
11
440.58578643762689
21
264.78584013175401
31
-3.5527136788005009e-14
0
LWPOLYLINE
5
133
100
AcDbEntity
8
BEND_EXTENT
100
AcDbPolyline
90
4
70
1
43
0.0
10
0.29289321881343255
20
244.26194671058465
10
456.29289321881345
20
244.26194671058465
10
456.29289321881345
20
18.261946710584667
10
0.29289321881350361
20
18.261946710584667
0
LINE
5
134
100
AcDbEntity
8
BEND_EXTENT
100
AcDbLine
10
458.5548399293981
20
244.26194671058465
30
3.5527136788005009e-14
11
458.5548399293981
21
18.261946710584667
31
3.5527136788005009e-14
0
LINE
5
135
100
AcDbEntity
8
BEND_EXTENT
100
AcDbLine
10
-1.9690534917712199
20
18.261946710584667
30
3.5527136788005009e-14
11
-1.9690534917712199
21
244.26194671058465
31
3.5527136788005009e-14
0
LINE
5
136
100
AcDbEntity
8
BEND_EXTENT
100
AcDbLine
10
456.29289321881345
20
16.000000000000014
30
3.5527136788005009e-14
11
0.29289321881343255
21
16.000000000000014
31
3.5527136788005009e-14
0
ENDSEC
0
SECTION
2
OBJECTS
0
DICTIONARY
5
C
100
AcDbDictionary
3
ACAD_GROUP
350
D
3
ACAD_MLINESTYLE
350
17
0
DICTIONARY
5
D
100
AcDbDictionary
0
DICTIONARY
5
1A
330
C
100
AcDbDictionary
0
DICTIONARY
5
17
100
AcDbDictionary
0
ENDSEC
0
EOF
