0
SECTION
2
HEADER
9
$INSUNITS
70
4
9
$ACADVER
1
AC1014
9
$HANDSEED
5
FFFF
0
ENDSEC
0
SECTION
2
TABLES
0
TABLE
2
VPORT
5
8
100
AcDbSymbolTable
0
ENDTAB
0
TABLE
2
LTYPE
5
5
100
AcDbSymbolTable
0
LTYPE
5
14
100
AcDbSymbolTableRecord
100
AcDbLinetypeTableRecord
2
BYBLOCK
70
0
0
LTYPE
5
15
100
AcDbSymbolTableRecord
100
AcDbLinetypeTableRecord
2
BYLAYER
70
0
0
ENDTAB
0
TABLE
2
LAYER
5
2
100
AcDbSymbolTable
70
2
0
LAYER
5
50
100
AcDbSymbolTableRecord
100
AcDbLayerTableRecord
2
0
70
0
6
CONTINUOUS
0
ENDTAB
0
TABLE
2
STYLE
5
3
100
AcDbSymbolTable
70
1
0
STYLE
5
11
100
AcDbSymbolTableRecord
100
AcDbTextStyleTableRecord
2
STANDARD
70
0
0
ENDTAB
0
TABLE
2
VIEW
5
6
100
AcDbSymbolTable
70
0
0
ENDTAB
0
TABLE
2
UCS
5
7
100
AcDbSymbolTable
70
0
0
ENDTAB
0
TABLE
2
APPID
5
9
100
AcDbSymbolTable
70
2
0
APPID
5
12
100
AcDbSymbolTableRecord
100
AcDbRegAppTableRecord
2
ACAD
70
0
0
ENDTAB
0
TABLE
2
DIMSTYLE
5
A
100
AcDbSymbolTable
70
1
0
ENDTAB
0
TABLE
2
BLOCK_RECORD
5
1
100
AcDbSymbolTable
70
1
0
BLOCK_RECORD
5
1F
100
AcDbSymbolTableRecord
100
AcDbBlockTableRecord
2
*MODEL_SPACE
0
BLOCK_RECORD
5
1B
100
AcDbSymbolTableRecord
100
AcDbBlockTableRecord
2
*PAPER_SPACE
0
ENDTAB
0
ENDSEC
0
SECTION
2
BLOCKS
0
BLOCK
5
20
100
AcDbEntity
100
AcDbBlockBegin
2
*MODEL_SPACE
0
ENDBLK
5
21
100
AcDbEntity
100
AcDbBlockEnd
0
BLOCK
5
1C
100
AcDbEntity
100
AcDbBlockBegin
2
*PAPER_SPACE
0
ENDBLK
5
1D
100
AcDbEntity
100
AcDbBlockEnd
0
ENDSEC
0
SECTION
2
ENTITIES
0
LWPOLYLINE
5
100
100
AcDbEntity
8
OUTER_PROFILES
100
AcDbPolyline
90
12
70
1
43
0.0
10
392
20
215.52389342106358
10
0
20
215.52389342106358
10
-1.6792123247455493e-14
20
197.76194671047901
10
-1.0000000000004401
20
197.76194671047901
10
-1.0000000000004401
20
17.761946710584624
10
-1.6792123247455493e-14
20
17.761946710584624
10
0
20
0
10
392
20
-3.5527136788005009e-14
10
392
20
17.761946710584624
10
392.99999999999955
20
17.761946710584624
10
393.00000000000045
20
197.76194671047901
10
392
20
197.76194671047901
0
CIRCLE
5
101
100
AcDbEntity
8
INTERIOR_PROFILES
100
AcDbCircle
10
-116.00000000000763
20
8.4999999999999787
30
0
40
1.6500000000000004
210
0
220
0
230
-1
0
CIRCLE
5
102
100
AcDbEntity
8
INTERIOR_PROFILES
100
AcDbCircle
10
-386.00000000000057
20
159.26194671058258
30
0
40
1.6499999999999915
210
0
220
0
230
-1
0
CIRCLE
5
103
100
AcDbEntity
8
INTERIOR_PROFILES
100
AcDbCircle
10
-375.99999999999966
20
8.4999999999999787
30
0
40
1.6500000000000004
210
0
220
0
230
-1
0
CIRCLE
5
104
100
AcDbEntity
8
INTERIOR_PROFILES
100
AcDbCircle
10
-386
20
109.26194671058256
30
0
40
1.6499999999999915
210
0
220
0
230
-1
0
CIRCLE
5
105
100
AcDbEntity
8
INTERIOR_PROFILES
100
AcDbCircle
10
-16.000000000007503
20
8.4999999999999787
30
0
40
1.6500000000000004
210
0
220
0
230
-1
0
CIRCLE
5
106
100
AcDbEntity
8
INTERIOR_PROFILES
100
AcDbCircle
10
-275.99999999999966
20
207.02389342106358
30
0
40
1.6499999999999915
210
0
220
0
230
-1
0
CIRCLE
5
107
100
AcDbEntity
8
INTERIOR_PROFILES
100
AcDbCircle
10
-116.00000000000762
20
207.02389342106358
30
0
40
1.6499999999999915
210
0
220
0
230
-1
0
CIRCLE
5
108
100
AcDbEntity
8
INTERIOR_PROFILES
100
AcDbCircle
10
-5.9999999999995683
20
59.26194671058461
30
0
40
1.6500000000000004
210
0
220
0
230
-1
0
CIRCLE
5
109
100
AcDbEntity
8
INTERIOR_PROFILES
100
AcDbCircle
10
-375.99999999999966
20
207.02389342106358
30
0
40
1.6499999999999915
210
0
220
0
230
-1
0
CIRCLE
5
110
100
AcDbEntity
8
INTERIOR_PROFILES
100
AcDbCircle
10
-5.9999999999995577
20
159.2619467105846
30
0
40
1.6500000000000004
210
0
220
0
230
-1
0
CIRCLE
5
111
100
AcDbEntity
8
INTERIOR_PROFILES
100
AcDbCircle
10
-275.99999999999966
20
8.4999999999999787
30
0
40
1.6500000000000004
210
0
220
0
230
-1
0
CIRCLE
5
112
100
AcDbEntity
8
INTERIOR_PROFILES
100
AcDbCircle
10
-16.000000000007486
20
207.02389342106358
30
0
40
1.6499999999999915
210
0
220
0
230
-1
0
CIRCLE
5
113
100
AcDbEntity
8
INTERIOR_PROFILES
100
AcDbCircle
10
-385.99999999999943
20
59.261946710582585
30
0
40
1.6499999999999915
210
0
220
0
230
-1
0
CIRCLE
5
114
100
AcDbEntity
8
INTERIOR_PROFILES
100
AcDbCircle
10
-5.9999999999995621
20
109.26194671058461
30
0
40
1.6500000000000004
210
0
220
0
230
-1
0
LINE
5
115
100
AcDbEntity
8
BEND
100
AcDbLine
10
392.00000000000011
20
16.130973355292326
30
4.4541404451373416e-14
11
-7.1054273576010019e-14
21
16.130973355292326
31
4.4541404451373416e-14
0
LINE
5
116
100
AcDbEntity
8
BEND
100
AcDbLine
10
-8.8079903872446083e-14
20
199.39292006577131
30
5.3110910892511297e-14
11
392.00000000000011
21
199.39292006577131
31
5.3110910892511284e-14
0
LINE
5
117
100
AcDbEntity
8
BEND_EXTENT
100
AcDbLine
10
-8.7941125994367938e-14
20
200.52389342106355
30
1.1851630787873546e-13
11
392.00000000000011
21
200.52389342106355
31
1.1851630787873546e-13
0
LINE
5
118
100
AcDbEntity
8
BEND_EXTENT
100
AcDbLine
10
392
20
198.26194671047901
30
4.7462034302725442e-14
11
0
21
198.26194671047901
31
4.7462034302725442e-14
0
LINE
5
119
100
AcDbEntity
8
BEND_EXTENT
100
AcDbLine
10
392.00000000000011
20
15
30
4.1078251911130792e-14
11
-7.1054273576010019e-14
21
15
31
4.1078251911130792e-14
0
LINE
5
120
100
AcDbEntity
8
BEND_EXTENT
100
AcDbLine
10
-1.686261747925788e-14
20
17.261946710584617
30
4.7462034302725442e-14
11
392
21
17.261946710584617
31
4.7462034302725442e-14
0
ENDSEC
0
SECTION
2
OBJECTS
0
DICTIONARY
5
C
100
AcDbDictionary
3
ACAD_GROUP
350
D
3
ACAD_MLINESTYLE
350
17
0
DICTIONARY
5
D
100
AcDbDictionary
0
DICTIONARY
5
1A
330
C
100
AcDbDictionary
0
DICTIONARY
5
17
100
AcDbDictionary
0
ENDSEC
0
EOF
