0
SECTION
2
HEADER
9
$INSUNITS
70
4
9
$ACADVER
1
AC1014
9
$HANDSEED
5
FFFF
0
ENDSEC
0
SECTION
2
TABLES
0
TABLE
2
VPORT
5
8
100
AcDbSymbolTable
0
ENDTAB
0
TABLE
2
LTYPE
5
5
100
AcDbSymbolTable
0
LTYPE
5
14
100
AcDbSymbolTableRecord
100
AcDbLinetypeTableRecord
2
BYBLOCK
70
0
0
LTYPE
5
15
100
AcDbSymbolTableRecord
100
AcDbLinetypeTableRecord
2
BYLAYER
70
0
0
ENDTAB
0
TABLE
2
LAYER
5
2
100
AcDbSymbolTable
70
2
0
LAYER
5
50
100
AcDbSymbolTableRecord
100
AcDbLayerTableRecord
2
0
70
0
6
CONTINUOUS
0
ENDTAB
0
TABLE
2
STYLE
5
3
100
AcDbSymbolTable
70
1
0
STYLE
5
11
100
AcDbSymbolTableRecord
100
AcDbTextStyleTableRecord
2
STANDARD
70
0
0
ENDTAB
0
TABLE
2
VIEW
5
6
100
AcDbSymbolTable
70
0
0
ENDTAB
0
TABLE
2
UCS
5
7
100
AcDbSymbolTable
70
0
0
ENDTAB
0
TABLE
2
APPID
5
9
100
AcDbSymbolTable
70
2
0
APPID
5
12
100
AcDbSymbolTableRecord
100
AcDbRegAppTableRecord
2
ACAD
70
0
0
ENDTAB
0
TABLE
2
DIMSTYLE
5
A
100
AcDbSymbolTable
70
1
0
ENDTAB
0
TABLE
2
BLOCK_RECORD
5
1
100
AcDbSymbolTable
70
1
0
BLOCK_RECORD
5
1F
100
AcDbSymbolTableRecord
100
AcDbBlockTableRecord
2
*MODEL_SPACE
0
BLOCK_RECORD
5
1B
100
AcDbSymbolTableRecord
100
AcDbBlockTableRecord
2
*PAPER_SPACE
0
ENDTAB
0
ENDSEC
0
SECTION
2
BLOCKS
0
BLOCK
5
20
100
AcDbEntity
100
AcDbBlockBegin
2
*MODEL_SPACE
0
ENDBLK
5
21
100
AcDbEntity
100
AcDbBlockEnd
0
BLOCK
5
1C
100
AcDbEntity
100
AcDbBlockBegin
2
*PAPER_SPACE
0
ENDBLK
5
1D
100
AcDbEntity
100
AcDbBlockEnd
0
ENDSEC
0
SECTION
2
ENTITIES
0
LWPOLYLINE
5
100
100
AcDbEntity
8
OUTER_PROFILES
100
AcDbPolyline
90
4
70
1
43
0.0
10
-3.5527136788005009e-14
20
391.99999999999994
10
0
20
0
10
490.52389342116925
20
0
10
490.52389342116925
20
392
0
LWPOLYLINE
5
101
100
AcDbEntity
8
INTERIOR_PROFILES
100
AcDbPolyline
90
8
70
1
43
0.0
10
270.52389342116436
20
343
10
280.52389342116442
20
353
10
420.52389342116436
20
353.00000000000006
10
430.52389342116436
20
343.00000000000006
10
430.52389342116436
20
113.00000000000006
10
420.52389342116436
20
103.00000000000004
10
280.52389342116442
20
103.00000000000004
10
270.52389342116436
20
113.00000000000004
0
LWPOLYLINE
5
102
100
AcDbEntity
8
INTERIOR_PROFILES
100
AcDbPolyline
90
4
70
1
43
0.0
10
484.52389342116533
20
114.35000000000001
10
481.52389342116527
20
114.34999999999999
42
-0.99999999999999989
10
481.52389342116533
20
117.64999999999998
10
484.52389342116533
20
117.64999999999992
42
-0.99999999999999989
0
CIRCLE
5
103
100
AcDbEntity
8
INTERIOR_PROFILES
100
AcDbCircle
10
-430.52389342116436
20
103.00000000000006
30
0
40
1.7499999999999716
210
0
220
0
230
-1
0
LWPOLYLINE
5
104
100
AcDbEntity
8
INTERIOR_PROFILES
100
AcDbPolyline
90
4
70
1
43
0.0
10
481.52389342116527
20
277.64999999999196
10
484.52389342116533
20
277.64999999999196
42
-0.99999999999999989
10
484.52389342116533
20
274.34999999999195
10
481.52389342116533
20
274.34999999999201
42
-0.99999999999999989
0
CIRCLE
5
105
100
AcDbEntity
8
INTERIOR_PROFILES
100
AcDbCircle
10
-35.261946710582606
20
6.0000000000002629
30
0
40
1.6500000000000004
210
0
220
0
230
-1
0
CIRCLE
5
106
100
AcDbEntity
8
INTERIOR_PROFILES
100
AcDbCircle
10
-270.52389342116442
20
353
30
0
40
1.7499999999999716
210
0
220
0
230
-1
0
CIRCLE
5
107
100
AcDbEntity
8
INTERIOR_PROFILES
100
AcDbCircle
10
-270.52389342116442
20
103.00000000000003
30
0
40
1.7500000000000071
210
0
220
0
230
-1
0
CIRCLE
5
108
100
AcDbEntity
8
INTERIOR_PROFILES
100
AcDbCircle
10
-135.26194671058261
20
5.999999999999206
30
0
40
1.6500000000000004
210
0
220
0
230
-1
0
CIRCLE
5
109
100
AcDbEntity
8
INTERIOR_PROFILES
100
AcDbCircle
10
-430.52389342116436
20
353
30
0
40
1.7499999999999716
210
0
220
0
230
-1
0
CIRCLE
5
110
100
AcDbEntity
8
INTERIOR_PROFILES
100
AcDbCircle
10
-85.261946710582606
20
5.9999999999998055
30
0
40
1.6500000000000004
210
0
220
0
230
-1
0
LWPOLYLINE
5
111
100
AcDbEntity
8
INTERIOR_PROFILES
100
AcDbPolyline
90
8
70
1
43
0.0
10
34.261946710582627
20
81.000000000000014
10
48.26194671058262
20
81.000000000000014
42
-0.41421356237309503
10
56.261946710582613
20
73
10
56.261946710582635
20
38.999999999999986
42
-0.41421356237309848
10
48.261946710582606
20
30.999999999999975
10
34.26194671058262
20
30.999999999999947
42
-0.41421356237309598
10
26.26194671058262
20
38.999999999999972
10
26.261946710582613
20
73
42
-0.41421356237309553
0
LWPOLYLINE
5
112
100
AcDbEntity
8
INTERIOR_PROFILES
100
AcDbPolyline
90
4
70
1
43
0.0
10
481.52389342116533
20
17.649999999999963
10
484.52389342116533
20
17.649999999999906
42
-0.99999999999999989
10
484.52389342116533
20
14.349999999999923
10
481.52389342116527
20
14.349999999999978
42
-0.99999999999999989
0
LWPOLYLINE
5
113
100
AcDbEntity
8
INTERIOR_PROFILES
100
AcDbPolyline
90
4
70
1
43
0.0
10
481.52389342116527
20
377.64999999999196
10
484.52389342116533
20
377.64999999999219
42
-0.99999999999999989
10
484.52389342116527
20
374.34999999999195
10
481.52389342116527
20
374.34999999999218
42
-0.99999999999999989
0
CIRCLE
5
114
100
AcDbEntity
8
INTERIOR_PROFILES
100
AcDbCircle
10
-223.02389342116533
20
186
30
0
40
1.6499999999999915
210
0
220
0
230
-1
0
CIRCLE
5
115
100
AcDbEntity
8
INTERIOR_PROFILES
100
AcDbCircle
10
7.5000000000000089
20
381.99999999999994
30
0
40
1.6499999999999915
210
0
220
0
230
1
0
CIRCLE
5
116
100
AcDbEntity
8
INTERIOR_PROFILES
100
AcDbCircle
10
7.5000000000000178
20
9.9999999999991118
30
0
40
1.6499999999999915
210
0
220
-0
230
1
0
CIRCLE
5
117
100
AcDbEntity
8
INTERIOR_PROFILES
100
AcDbCircle
10
-223.02389342116533
20
9.9999999999991438
30
0
40
1.6499999999999915
210
0
220
0
230
-1
0
CIRCLE
5
118
100
AcDbEntity
8
INTERIOR_PROFILES
100
AcDbCircle
10
-223.02389342116533
20
109.99999999999918
30
0
40
1.6499999999999915
210
0
220
0
230
-1
0
LWPOLYLINE
5
119
100
AcDbEntity
8
INTERIOR_PROFILES
100
AcDbPolyline
90
8
70
1
43
0.0
10
78.261946710587566
20
38.999999999999957
10
78.261946710587566
20
72.999999999999858
42
-0.41421356237309892
10
86.261946710587551
20
81
10
150.26194671058758
20
81
42
-0.41421356237309342
10
158.26194671058755
20
73
10
158.26194671058752
20
39.000000000000014
42
-0.41421356237309598
10
150.26194671058758
20
30.999999999999996
10
86.261946710587566
20
30.999999999999996
42
-0.41421356237309359
0
CIRCLE
5
120
100
AcDbEntity
8
INTERIOR_PROFILES
100
AcDbCircle
10
-35.261946710584652
20
386
30
0
40
1.6499999999999915
210
0
220
0
230
-1
0
CIRCLE
5
121
100
AcDbEntity
8
INTERIOR_PROFILES
100
AcDbCircle
10
-85.261946710584638
20
386
30
0
40
1.6499999999999915
210
0
220
0
230
-1
0
CIRCLE
5
122
100
AcDbEntity
8
INTERIOR_PROFILES
100
AcDbCircle
10
7.5
20
209.99999999999912
30
0
40
1.6499999999999915
210
0
220
0
230
1
0
CIRCLE
5
123
100
AcDbEntity
8
INTERIOR_PROFILES
100
AcDbCircle
10
7.5000000000000089
20
109.99999999999912
30
0
40
1.6499999999999915
210
0
220
0
230
1
0
CIRCLE
5
124
100
AcDbEntity
8
INTERIOR_PROFILES
100
AcDbCircle
10
7.4999999999999911
20
309.99999999999909
30
0
40
1.6499999999999915
210
0
220
0
230
1
0
CIRCLE
5
125
100
AcDbEntity
8
INTERIOR_PROFILES
100
AcDbCircle
10
-135.26194671058465
20
385.99999999999994
30
0
40
1.6499999999999915
210
0
220
0
230
-1
0
LINE
5
126
100
AcDbEntity
8
BEND
100
AcDbLine
10
191.39292006587706
20
7.9936057773011271e-14
30
-1.6730987803911362e-12
11
191.39292006587706
21
392
31
-1.5906598299060263e-12
0
LINE
5
127
100
AcDbEntity
8
BEND
100
AcDbLine
10
14.130973355292372
20
6.6613381477509392e-14
30
-3.6127944688488622e-13
11
14.130973355292372
21
392
31
-3.8299587207720126e-13
0
LINE
5
128
100
AcDbEntity
8
BEND_EXTENT
100
AcDbLine
10
192.52389342116936
20
391.99999999999994
30
-1.6499951066305033e-12
11
192.52389342116936
21
7.1054273576010019e-14
31
-1.6499951066305033e-12
0
LINE
5
129
100
AcDbEntity
8
BEND_EXTENT
100
AcDbLine
10
190.26194671058465
20
-3.1086244689504383e-14
30
-1.6333225899853098e-12
11
190.26194671058465
21
391.99999999999994
31
-1.6333225899853098e-12
0
LINE
5
130
100
AcDbEntity
8
BEND_EXTENT
100
AcDbLine
10
15.261946710584645
20
392
30
-3.4342022435677427e-13
11
15.261946710584645
21
7.1054273576010019e-14
31
-3.4342022435677427e-13
0
LINE
5
131
100
AcDbEntity
8
BEND_EXTENT
100
AcDbLine
10
12.999999999999968
20
-4.4408920985006262e-15
30
-3.4589905488636467e-13
11
12.999999999999968
21
391.99999999999989
31
-3.4589905488636467e-13
0
ENDSEC
0
SECTION
2
OBJECTS
0
DICTIONARY
5
C
100
AcDbDictionary
3
ACAD_GROUP
350
D
3
ACAD_MLINESTYLE
350
17
0
DICTIONARY
5
D
100
AcDbDictionary
0
DICTIONARY
5
1A
330
C
100
AcDbDictionary
0
DICTIONARY
5
17
100
AcDbDictionary
0
ENDSEC
0
EOF
