0
SECTION
2
HEADER
9
$INSUNITS
70
4
9
$ACADVER
1
AC1014
9
$HANDSEED
5
FFFF
0
ENDSEC
0
SECTION
2
TABLES
0
TABLE
2
VPORT
5
8
100
AcDbSymbolTable
0
ENDTAB
0
TABLE
2
LTYPE
5
5
100
AcDbSymbolTable
0
LTYPE
5
14
100
AcDbSymbolTableRecord
100
AcDbLinetypeTableRecord
2
BYBLOCK
70
0
0
LTYPE
5
15
100
AcDbSymbolTableRecord
100
AcDbLinetypeTableRecord
2
BYLAYER
70
0
0
ENDTAB
0
TABLE
2
LAYER
5
2
100
AcDbSymbolTable
70
2
0
LAYER
5
50
100
AcDbSymbolTableRecord
100
AcDbLayerTableRecord
2
0
70
0
6
CONTINUOUS
0
ENDTAB
0
TABLE
2
STYLE
5
3
100
AcDbSymbolTable
70
1
0
STYLE
5
11
100
AcDbSymbolTableRecord
100
AcDbTextStyleTableRecord
2
STANDARD
70
0
0
ENDTAB
0
TABLE
2
VIEW
5
6
100
AcDbSymbolTable
70
0
0
ENDTAB
0
TABLE
2
UCS
5
7
100
AcDbSymbolTable
70
0
0
ENDTAB
0
TABLE
2
APPID
5
9
100
AcDbSymbolTable
70
2
0
APPID
5
12
100
AcDbSymbolTableRecord
100
AcDbRegAppTableRecord
2
ACAD
70
0
0
ENDTAB
0
TABLE
2
DIMSTYLE
5
A
100
AcDbSymbolTable
70
1
0
ENDTAB
0
TABLE
2
BLOCK_RECORD
5
1
100
AcDbSymbolTable
70
1
0
BLOCK_RECORD
5
1F
100
AcDbSymbolTableRecord
100
AcDbBlockTableRecord
2
*MODEL_SPACE
0
BLOCK_RECORD
5
1B
100
AcDbSymbolTableRecord
100
AcDbBlockTableRecord
2
*PAPER_SPACE
0
ENDTAB
0
ENDSEC
0
SECTION
2
BLOCKS
0
BLOCK
5
20
100
AcDbEntity
100
AcDbBlockBegin
2
*MODEL_SPACE
0
ENDBLK
5
21
100
AcDbEntity
100
AcDbBlockEnd
0
BLOCK
5
1C
100
AcDbEntity
100
AcDbBlockBegin
2
*PAPER_SPACE
0
ENDBLK
5
1D
100
AcDbEntity
100
AcDbBlockEnd
0
ENDSEC
0
SECTION
2
ENTITIES
0
LWPOLYLINE
5
100
100
AcDbEntity
8
OUTER_PROFILES
100
AcDbPolyline
90
8
70
1
43
0.0
10
390.99999999999972
20
231.52389342112065
10
0.99999999999972999
20
231.52389342112031
10
0.99999999999974754
20
215.76194671053571
10
-2.6677679193722073e-13
20
215.76194671053571
10
0
20
0
10
391.99999999999994
20
7.1054273576010019e-14
10
391.99999999999977
20
215.76194671053605
10
390.99999999999972
20
215.76194671053605
0
LWPOLYLINE
5
101
100
AcDbEntity
8
INTERIOR_PROFILES
100
AcDbPolyline
90
4
70
1
43
0.0
10
277.64999999998997
20
8.9999999999761489
42
0.99999999999999989
10
274.34999999998996
20
8.9999999999761453
10
274.34999999998973
20
5.9999999999760316
42
0.99999999999999989
10
277.64999999998975
20
5.9999999999760352
0
CIRCLE
5
102
100
AcDbEntity
8
INTERIOR_PROFILES
100
AcDbCircle
10
-5.9999999999992166
20
95.761946710537586
30
0
40
1.6500000000000004
210
0
220
0
230
-1
0
LWPOLYLINE
5
103
100
AcDbEntity
8
INTERIOR_PROFILES
100
AcDbPolyline
90
4
70
1
43
0.0
10
117.64999999999776
20
8.9999999999873737
10
117.64999999999762
20
5.9999999999871179
42
-0.99999999999999989
10
114.34999999999764
20
5.9999999999873976
10
114.34999999999786
20
8.9999999999873719
42
-0.99999999999999989
0
CIRCLE
5
104
100
AcDbEntity
8
INTERIOR_PROFILES
100
AcDbCircle
10
-5.9999999999995977
20
145.76194671053759
30
0
40
1.6500000000000004
210
0
220
0
230
-1
0
CIRCLE
5
105
100
AcDbEntity
8
INTERIOR_PROFILES
100
AcDbCircle
10
-6.0000000000001208
20
195.76194671053764
30
0
40
1.6500000000000004
210
0
220
0
230
-1
0
CIRCLE
5
106
100
AcDbEntity
8
INTERIOR_PROFILES
100
AcDbCircle
10
-15.999999999999741
20
224.02389342112031
30
0
40
1.6500000000000625
210
0
220
0
230
-1
0
LWPOLYLINE
5
107
100
AcDbEntity
8
INTERIOR_PROFILES
100
AcDbPolyline
90
4
70
1
43
0.0
10
17.649999999997796
20
8.9999999999941043
42
0.99999999999999989
10
14.349999999997955
20
8.9999999999946674
10
14.349999999997674
20
5.9999999999944116
42
0.99999999999999989
10
17.649999999997657
20
5.9999999999941327
0
LWPOLYLINE
5
108
100
AcDbEntity
8
INTERIOR_PROFILES
100
AcDbPolyline
90
4
70
1
43
0.0
10
377.64999999998997
20
8.9999999999691376
42
0.99999999999999989
10
374.34999999998973
20
8.9999999999691322
10
374.34999999998985
20
5.9999999999690186
42
0.99999999999999989
10
377.64999999998957
20
5.9999999999690239
0
CIRCLE
5
109
100
AcDbEntity
8
INTERIOR_PROFILES
100
AcDbCircle
10
-375.99999999999181
20
224.02389342112065
30
0
40
1.6500000000000625
210
0
220
0
230
-1
0
CIRCLE
5
110
100
AcDbEntity
8
INTERIOR_PROFILES
100
AcDbCircle
10
-385.99999999999977
20
95.761946710536023
30
0
40
1.6499999999999915
210
0
220
0
230
-1
0
CIRCLE
5
111
100
AcDbEntity
8
INTERIOR_PROFILES
100
AcDbCircle
10
-275.99999999999181
20
224.02389342112056
30
0
40
1.5500000000000114
210
0
220
0
230
-1
0
CIRCLE
5
112
100
AcDbEntity
8
INTERIOR_PROFILES
100
AcDbCircle
10
-115.99999999999972
20
224.02389342112042
30
0
40
1.6500000000000625
210
0
220
0
230
-1
0
CIRCLE
5
113
100
AcDbEntity
8
INTERIOR_PROFILES
100
AcDbCircle
10
-385.99999999999977
20
145.76194671053605
30
0
40
1.6499999999999915
210
0
220
0
230
-1
0
CIRCLE
5
114
100
AcDbEntity
8
INTERIOR_PROFILES
100
AcDbCircle
10
-385.99999999999972
20
195.76194671053605
30
0
40
1.6499999999999915
210
0
220
0
230
-1
0
LINE
5
115
100
AcDbEntity
8
BEND
100
AcDbLine
10
391.99999999999989
20
39.130973355261382
30
4.5086169637016609e-10
11
7.1054273576010019e-14
21
39.130973355261027
31
4.5090161706709067e-10
0
LINE
5
116
100
AcDbEntity
8
BEND
100
AcDbLine
10
390.99999999999972
20
217.39292006582846
30
4.5145113737506024e-10
11
0.99999999999972999
21
217.39292006582798
31
4.5020773901637219e-10
0
LINE
5
117
100
AcDbEntity
8
BEND_EXTENT
100
AcDbLine
10
391.99999999999983
20
37.999999999959115
30
4.3776601632323789e-10
11
7.1054273576010019e-14
21
37.999999999958618
31
4.3769432522822171e-10
0
LINE
5
118
100
AcDbEntity
8
BEND_EXTENT
100
AcDbLine
10
-3.6522518102114333e-14
20
40.26194671056345
30
4.5016435024081147e-10
11
391.99999999999994
21
40.261946710563805
31
4.5094658407158775e-10
0
LINE
5
119
100
AcDbEntity
8
BEND_EXTENT
100
AcDbLine
10
390.99999999999972
20
216.26194671053617
30
4.5115702635424159e-10
11
0.99999999999972999
21
216.26194671053568
31
4.500960165053097e-10
0
LINE
5
120
100
AcDbEntity
8
BEND_EXTENT
100
AcDbLine
10
0.99999999999974498
20
218.52389342112005
30
4.5034179212738609e-10
11
390.99999999999972
21
218.5238934211207
31
4.5147357869413784e-10
0
ENDSEC
0
SECTION
2
OBJECTS
0
DICTIONARY
5
C
100
AcDbDictionary
3
ACAD_GROUP
350
D
3
ACAD_MLINESTYLE
350
17
0
DICTIONARY
5
D
100
AcDbDictionary
0
DICTIONARY
5
1A
330
C
100
AcDbDictionary
0
DICTIONARY
5
17
100
AcDbDictionary
0
ENDSEC
0
EOF
