0
SECTION
2
HEADER
9
$INSUNITS
70
4
9
$ACADVER
1
AC1014
9
$HANDSEED
5
FFFF
0
ENDSEC
0
SECTION
2
TABLES
0
TABLE
2
VPORT
5
8
100
AcDbSymbolTable
0
ENDTAB
0
TABLE
2
LTYPE
5
5
100
AcDbSymbolTable
0
LTYPE
5
14
100
AcDbSymbolTableRecord
100
AcDbLinetypeTableRecord
2
BYBLOCK
70
0
0
LTYPE
5
15
100
AcDbSymbolTableRecord
100
AcDbLinetypeTableRecord
2
BYLAYER
70
0
0
ENDTAB
0
TABLE
2
LAYER
5
2
100
AcDbSymbolTable
70
2
0
LAYER
5
50
100
AcDbSymbolTableRecord
100
AcDbLayerTableRecord
2
0
70
0
6
CONTINUOUS
0
ENDTAB
0
TABLE
2
STYLE
5
3
100
AcDbSymbolTable
70
1
0
STYLE
5
11
100
AcDbSymbolTableRecord
100
AcDbTextStyleTableRecord
2
STANDARD
70
0
0
ENDTAB
0
TABLE
2
VIEW
5
6
100
AcDbSymbolTable
70
0
0
ENDTAB
0
TABLE
2
UCS
5
7
100
AcDbSymbolTable
70
0
0
ENDTAB
0
TABLE
2
APPID
5
9
100
AcDbSymbolTable
70
2
0
APPID
5
12
100
AcDbSymbolTableRecord
100
AcDbRegAppTableRecord
2
ACAD
70
0
0
ENDTAB
0
TABLE
2
DIMSTYLE
5
A
100
AcDbSymbolTable
70
1
0
ENDTAB
0
TABLE
2
BLOCK_RECORD
5
1
100
AcDbSymbolTable
70
1
0
BLOCK_RECORD
5
1F
100
AcDbSymbolTableRecord
100
AcDbBlockTableRecord
2
*MODEL_SPACE
0
BLOCK_RECORD
5
1B
100
AcDbSymbolTableRecord
100
AcDbBlockTableRecord
2
*PAPER_SPACE
0
ENDTAB
0
ENDSEC
0
SECTION
2
BLOCKS
0
BLOCK
5
20
100
AcDbEntity
100
AcDbBlockBegin
2
*MODEL_SPACE
0
ENDBLK
5
21
100
AcDbEntity
100
AcDbBlockEnd
0
BLOCK
5
1C
100
AcDbEntity
100
AcDbBlockBegin
2
*PAPER_SPACE
0
ENDBLK
5
1D
100
AcDbEntity
100
AcDbBlockEnd
0
ENDSEC
0
SECTION
2
ENTITIES
0
LWPOLYLINE
5
100
100
AcDbEntity
8
OUTER_PROFILES
100
AcDbPolyline
90
20
70
1
43
0.0
10
756.52389342116919
20
277.92893218813458
42
-0.19891236737965487
10
757.98835951523643
20
281.46446609406729
10
765.05942732710196
20
288.53553390593277
42
0.19891236737965304
10
766.52389342116919
20
292.07106781186542
10
766.52389342116919
20
757.92893218813447
42
0.19891236737965801
10
765.05942732710196
20
761.46446609406723
10
757.98835951523643
20
768.53553390593277
42
-0.19891236737965801
10
756.52389342116919
20
772.07106781186553
10
756.52389342116919
20
790
10
0
20
790
10
5.134781488891349e-14
20
772.07106781186553
42
-0.19891236737965926
10
-1.4644660940672338
20
768.53553390593277
10
-8.5355339059327093
20
761.46446609406723
42
0.19891236737966009
10
-9.9999999999999982
20
757.92893218813447
10
-10.000000000000016
20
292.07106781186553
42
0.19891236737965939
10
-8.5355339059327306
20
288.53553390593277
10
-1.4644660940672476
20
281.46446609406718
42
-0.19891236737965765
10
0
20
277.92893218813447
10
0
20
0
10
756.52389342116919
20
0
0
CIRCLE
5
101
100
AcDbEntity
8
INTERIOR_PROFILES
100
AcDbCircle
10
-110.00000000000068
20
413.33333333333337
30
0
40
1.6499999999999915
210
0
220
0
230
-1
0
CIRCLE
5
102
100
AcDbEntity
8
INTERIOR_PROFILES
100
AcDbCircle
10
-523.26194671058465
20
130
30
0
40
2.2500000000000142
210
0
220
0
230
-1
0
CIRCLE
5
103
100
AcDbEntity
8
INTERIOR_PROFILES
100
AcDbCircle
10
-646.52389342116862
20
569.99999999999989
30
0
40
1.6499999999999915
210
0
220
0
230
-1
0
CIRCLE
5
104
100
AcDbEntity
8
INTERIOR_PROFILES
100
AcDbCircle
10
-468.2619467105846
20
486
30
0
40
2.7499999999999858
210
0
220
0
230
-1
0
CIRCLE
5
105
100
AcDbEntity
8
INTERIOR_PROFILES
100
AcDbCircle
10
-465.76194671058465
20
195
30
0
40
2.2500000000000142
210
0
220
0
230
-1
0
CIRCLE
5
106
100
AcDbEntity
8
INTERIOR_PROFILES
100
AcDbCircle
10
-110.0000000000007
20
491.66666666666674
30
0
40
1.6499999999999915
210
0
220
0
230
-1
0
CIRCLE
5
107
100
AcDbEntity
8
INTERIOR_PROFILES
100
AcDbCircle
10
-646.52389342116862
20
491.66666666666663
30
0
40
1.6499999999999915
210
0
220
0
230
-1
0
CIRCLE
5
108
100
AcDbEntity
8
INTERIOR_PROFILES
100
AcDbCircle
10
-110.00000000000071
20
570
30
0
40
1.6499999999999915
210
0
220
0
230
-1
0
CIRCLE
5
109
100
AcDbEntity
8
INTERIOR_PROFILES
100
AcDbCircle
10
-273.26194671058465
20
546
30
0
40
2.7499999999999858
210
0
220
0
230
-1
0
CIRCLE
5
110
100
AcDbEntity
8
INTERIOR_PROFILES
100
AcDbCircle
10
-523.26194671058465
20
380
30
0
40
2.2500000000000142
210
0
220
0
230
-1
0
CIRCLE
5
111
100
AcDbEntity
8
INTERIOR_PROFILES
100
AcDbCircle
10
-290.7619467105846
20
65
30
0
40
2.2500000000000053
210
0
220
0
230
-1
0
CIRCLE
5
112
100
AcDbEntity
8
INTERIOR_PROFILES
100
AcDbCircle
10
-233.26194671058462
20
130
30
0
40
2.2500000000000142
210
0
220
0
230
-1
0
CIRCLE
5
113
100
AcDbEntity
8
INTERIOR_PROFILES
100
AcDbCircle
10
-523.26194671058465
20
730
30
0
40
2.2500000000000853
210
0
220
0
230
-1
0
CIRCLE
5
114
100
AcDbEntity
8
INTERIOR_PROFILES
100
AcDbCircle
10
-646.52389342116862
20
334.99999999999994
30
0
40
1.6499999999999915
210
0
220
0
230
-1
0
CIRCLE
5
115
100
AcDbEntity
8
INTERIOR_PROFILES
100
AcDbCircle
10
-468.2619467105846
20
546
30
0
40
2.7499999999999858
210
0
220
0
230
-1
0
CIRCLE
5
116
100
AcDbEntity
8
INTERIOR_PROFILES
100
AcDbCircle
10
-110.00000000000068
20
335
30
0
40
1.6499999999999915
210
0
220
0
230
-1
0
CIRCLE
5
117
100
AcDbEntity
8
INTERIOR_PROFILES
100
AcDbCircle
10
-273.26194671058465
20
486
30
0
40
2.7499999999999858
210
0
220
0
230
-1
0
CIRCLE
5
118
100
AcDbEntity
8
INTERIOR_PROFILES
100
AcDbCircle
10
-646.52389342116862
20
413.33333333333326
30
0
40
1.6499999999999915
210
0
220
0
230
-1
0
CIRCLE
5
119
100
AcDbEntity
8
INTERIOR_PROFILES
100
AcDbCircle
10
-233.26194671058462
20
380
30
0
40
2.2500000000000142
210
0
220
0
230
-1
0
CIRCLE
5
120
100
AcDbEntity
8
INTERIOR_PROFILES
100
AcDbCircle
10
-465.76194671058465
20
65
30
0
40
2.2499999999999964
210
0
220
0
230
-1
0
LWPOLYLINE
5
121
100
AcDbEntity
8
INTERIOR_PROFILES
100
AcDbPolyline
90
4
70
1
43
0.0
10
456.61194671058473
20
5.9999999999999432
10
456.61194671058468
20
9.0000000000000568
42
-0.99999999999999989
10
459.9119467105848
20
9.0000000000000568
10
459.91194671058463
20
5.9999999999999432
42
-0.99999999999999989
0
CIRCLE
5
122
100
AcDbEntity
8
INTERIOR_PROFILES
100
AcDbCircle
10
-233.26194671058462
20
730
30
0
40
2.2499999999999432
210
0
220
0
230
-1
0
CIRCLE
5
123
100
AcDbEntity
8
INTERIOR_PROFILES
100
AcDbCircle
10
-290.7619467105846
20
195
30
0
40
2.2499999999999787
210
0
220
0
230
-1
0
CIRCLE
5
124
100
AcDbEntity
8
INTERIOR_PROFILES
100
AcDbCircle
10
-715.52389342116714
20
784
30
0
40
1.6500000000000625
210
0
220
0
230
-1
0
CIRCLE
5
125
100
AcDbEntity
8
INTERIOR_PROFILES
100
AcDbCircle
10
-665.52389342116714
20
5.9999999999999432
30
0
40
1.6500000000000004
210
0
220
0
230
-1
0
CIRCLE
5
126
100
AcDbEntity
8
INTERIOR_PROFILES
100
AcDbCircle
10
-715.52389342116714
20
5.9999999999999432
30
0
40
1.6500000000000004
210
0
220
0
230
-1
0
LWPOLYLINE
5
127
100
AcDbEntity
8
INTERIOR_PROFILES
100
AcDbPolyline
90
4
70
1
43
0.0
10
459.91194671058463
20
784
10
459.91194671058463
20
781.00000000000011
42
-0.99999999999999989
10
456.61194671058473
20
780.99999999999977
10
456.61194671058468
20
784
42
-0.99999999999999989
0
LWPOLYLINE
5
128
100
AcDbEntity
8
INTERIOR_PROFILES
100
AcDbPolyline
90
4
70
1
43
0.0
10
296.61194671059269
20
5.9999999999999432
42
0.99999999999999989
10
299.9119467105927
20
5.9999999999999432
10
299.9119467105927
20
9.0000000000000568
42
0.99999999999999989
10
296.61194671059269
20
9.0000000000000568
0
LWPOLYLINE
5
129
100
AcDbEntity
8
INTERIOR_PROFILES
100
AcDbPolyline
90
4
70
1
43
0.0
10
556.61194671058468
20
5.9999999999999432
10
556.61194671058468
20
9.0000000000000568
42
-0.99999999999999989
10
559.91194671058463
20
9.0000000000000568
10
559.91194671058474
20
5.9999999999999432
42
-0.99999999999999989
0
CIRCLE
5
130
100
AcDbEntity
8
INTERIOR_PROFILES
100
AcDbCircle
10
-697.52389342116726
20
305.99999999999727
30
0
40
1.6499999999999915
210
0
220
0
230
-1
0
CIRCLE
5
131
100
AcDbEntity
8
INTERIOR_PROFILES
100
AcDbCircle
10
-597.52389342116726
20
305.99999999999955
30
0
40
1.6499999999999915
210
0
220
0
230
-1
0
CIRCLE
5
132
100
AcDbEntity
8
INTERIOR_PROFILES
100
AcDbCircle
10
-647.52389342116726
20
305.99999999999841
30
0
40
1.6499999999999915
210
0
220
0
230
-1
0
CIRCLE
5
133
100
AcDbEntity
8
INTERIOR_PROFILES
100
AcDbCircle
10
-615.52389342116714
20
5.9999999999999432
30
0
40
1.6500000000000004
210
0
220
0
230
-1
0
CIRCLE
5
134
100
AcDbEntity
8
INTERIOR_PROFILES
100
AcDbCircle
10
-615.52389342116714
20
784
30
0
40
1.6500000000000625
210
0
220
0
230
-1
0
CIRCLE
5
135
100
AcDbEntity
8
INTERIOR_PROFILES
100
AcDbCircle
10
-647.02389342116703
20
743.99999999999841
30
0
40
1.6500000000000625
210
0
220
0
230
-1
0
CIRCLE
5
136
100
AcDbEntity
8
INTERIOR_PROFILES
100
AcDbCircle
10
-665.52389342116714
20
784
30
0
40
1.6500000000000625
210
0
220
0
230
-1
0
LWPOLYLINE
5
137
100
AcDbEntity
8
INTERIOR_PROFILES
100
AcDbPolyline
90
4
70
1
43
0.0
10
299.91194671059253
20
784
10
299.91194671059253
20
781.00000000000011
42
-0.99999999999999989
10
296.61194671059258
20
780.99999999999977
10
296.61194671059258
20
784
42
-0.99999999999999989
0
CIRCLE
5
138
100
AcDbEntity
8
INTERIOR_PROFILES
100
AcDbCircle
10
-597.02389342116703
20
743.99999999999955
30
0
40
1.6500000000000625
210
0
220
0
230
-1
0
CIRCLE
5
139
100
AcDbEntity
8
INTERIOR_PROFILES
100
AcDbCircle
10
-697.02389342116703
20
743.99999999999727
30
0
40
1.6500000000000625
210
0
220
0
230
-1
0
LWPOLYLINE
5
140
100
AcDbEntity
8
INTERIOR_PROFILES
100
AcDbPolyline
90
4
70
1
43
0.0
10
199.91194671059245
20
784
42
0.99999999999999989
10
196.61194671059266
20
784
10
196.61194671059241
20
780.99999999999977
42
0.99999999999999989
10
199.9119467105927
20
781.00000000000011
0
CIRCLE
5
141
100
AcDbEntity
8
INTERIOR_PROFILES
100
AcDbCircle
10
-464.26194671058545
20
267.5
30
0
40
1.6499999999999915
210
0
220
0
230
-1
0
LWPOLYLINE
5
142
100
AcDbEntity
8
INTERIOR_PROFILES
100
AcDbPolyline
90
4
70
1
43
0.0
10
556.61194671058468
20
781.00000000000011
10
556.61194671058468
20
784
42
-0.99999999999999989
10
559.91194671058463
20
784
10
559.91194671058452
20
780.99999999999977
42
-0.99999999999999989
0
LWPOLYLINE
5
143
100
AcDbEntity
8
INTERIOR_PROFILES
100
AcDbPolyline
90
4
70
1
43
0.0
10
199.91194671059245
20
9.0000000000000586
42
0.99999999999999989
10
196.61194671059266
20
9.0000000000000551
10
196.61194671059241
20
5.9999999999999423
42
0.99999999999999989
10
199.9119467105927
20
5.999999999999944
0
CIRCLE
5
144
100
AcDbEntity
8
INTERIOR_PROFILES
100
AcDbCircle
10
-458.26194671058477
20
757.5
30
0
40
1.6500000000000625
210
0
220
0
230
-1
0
CIRCLE
5
145
100
AcDbEntity
8
INTERIOR_PROFILES
100
AcDbCircle
10
-298.26194671059255
20
757.5
30
0
40
1.5500000000000114
210
0
220
0
230
-1
0
CIRCLE
5
146
100
AcDbEntity
8
INTERIOR_PROFILES
100
AcDbCircle
10
-558.26194671058465
20
757.5
30
0
40
1.6500000000000625
210
0
220
0
230
-1
0
CIRCLE
5
147
100
AcDbEntity
8
INTERIOR_PROFILES
100
AcDbCircle
10
-564.26194671058556
20
267.5
30
0
40
1.6499999999999915
210
0
220
0
230
-1
0
CIRCLE
5
148
100
AcDbEntity
8
INTERIOR_PROFILES
100
AcDbCircle
10
-364.26194671058556
20
292.5
30
0
40
1.6499999999999915
210
0
220
0
230
-1
0
CIRCLE
5
149
100
AcDbEntity
8
INTERIOR_PROFILES
100
AcDbCircle
10
-198.26194671059253
20
757.5
30
0
40
1.6500000000000625
210
0
220
0
230
-1
0
CIRCLE
5
150
100
AcDbEntity
8
INTERIOR_PROFILES
100
AcDbCircle
10
-192.26194671058462
20
292.5
30
0
40
1.6499999999999915
210
0
220
0
230
-1
0
CIRCLE
5
151
100
AcDbEntity
8
INTERIOR_PROFILES
100
AcDbCircle
10
-192.26194671058462
20
267.5
30
0
40
1.6499999999999915
210
0
220
0
230
-1
0
CIRCLE
5
152
100
AcDbEntity
8
INTERIOR_PROFILES
100
AcDbCircle
10
-388.2619467105846
20
267.5
30
0
40
1.6499999999999915
210
0
220
0
230
-1
0
CIRCLE
5
153
100
AcDbEntity
8
INTERIOR_PROFILES
100
AcDbCircle
10
-464.26194671058556
20
292.5
30
0
40
1.6499999999999915
210
0
220
0
230
-1
0
CIRCLE
5
154
100
AcDbEntity
8
INTERIOR_PROFILES
100
AcDbCircle
10
-264.26194671058551
20
292.5
30
0
40
1.6499999999999915
210
0
220
0
230
-1
0
CIRCLE
5
155
100
AcDbEntity
8
INTERIOR_PROFILES
100
AcDbCircle
10
-564.26194671058556
20
292.5
30
0
40
1.6499999999999915
210
0
220
0
230
-1
0
CIRCLE
5
156
100
AcDbEntity
8
INTERIOR_PROFILES
100
AcDbCircle
10
-41
20
784
30
0
40
1.6500000000000625
210
0
220
0
230
-1
0
LWPOLYLINE
5
157
100
AcDbEntity
8
INTERIOR_PROFILES
100
AcDbPolyline
90
8
70
1
43
0.0
10
718.64472625529083
20
17.693631506878802
10
598.64472625529083
20
17.693631506878802
10
588.64472625529083
20
27.693631506878802
10
588.64472625529083
20
127.6936315068788
10
598.64472625529083
20
137.6936315068788
10
718.64472625529083
20
137.6936315068788
10
728.64472625529083
20
127.6936315068788
10
728.64472625529083
20
27.693631506878802
0
CIRCLE
5
158
100
AcDbEntity
8
INTERIOR_PROFILES
100
AcDbCircle
10
-91
20
784
30
0
40
1.6500000000000625
210
0
220
0
230
-1
0
CIRCLE
5
159
100
AcDbEntity
8
INTERIOR_PROFILES
100
AcDbCircle
10
-141
20
5.9999999999999432
30
0
40
1.6500000000000004
210
0
220
0
230
-1
0
CIRCLE
5
160
100
AcDbEntity
8
INTERIOR_PROFILES
100
AcDbCircle
10
-58.999999999999808
20
305.99999999999727
30
0
40
1.6499999999999915
210
0
220
0
230
-1
0
CIRCLE
5
161
100
AcDbEntity
8
INTERIOR_PROFILES
100
AcDbCircle
10
-159.50000000000014
20
743.99999999999955
30
0
40
1.6500000000000625
210
0
220
0
230
-1
0
CIRCLE
5
162
100
AcDbEntity
8
INTERIOR_PROFILES
100
AcDbCircle
10
-721.88289342116934
20
384.99999999999596
30
0
40
1.6499999999999915
210
0
220
0
230
-1
0
CIRCLE
5
163
100
AcDbEntity
8
INTERIOR_PROFILES
100
AcDbCircle
10
-720.66116838828339
20
218.88101050547917
30
0
40
3.0000000000000071
210
0
220
0
230
-1
0
CIRCLE
5
164
100
AcDbEntity
8
INTERIOR_PROFILES
100
AcDbCircle
10
-730.66116838828316
20
178.88101050547931
30
0
40
3.0000000000000071
210
0
220
0
230
-1
0
CIRCLE
5
165
100
AcDbEntity
8
INTERIOR_PROFILES
100
AcDbCircle
10
-630.66116838828361
20
178.88101050547925
30
0
40
3.0000000000000071
210
0
220
0
230
-1
0
CIRCLE
5
166
100
AcDbEntity
8
INTERIOR_PROFILES
100
AcDbCircle
10
-630.66116838828361
20
168.88101050547931
30
0
40
3.0000000000000071
210
0
220
0
230
-1
0
CIRCLE
5
167
100
AcDbEntity
8
INTERIOR_PROFILES
100
AcDbCircle
10
-630.66116838828361
20
158.88101050547931
30
0
40
3.0000000000000071
210
0
220
0
230
-1
0
CIRCLE
5
168
100
AcDbEntity
8
INTERIOR_PROFILES
100
AcDbCircle
10
-680.6611683882835
20
198.88101050547917
30
0
40
3.0000000000000071
210
0
220
0
230
-1
0
CIRCLE
5
169
100
AcDbEntity
8
INTERIOR_PROFILES
100
AcDbCircle
10
-721.88289342116934
20
314.99999999999596
30
0
40
1.6499999999999915
210
0
220
0
230
-1
0
CIRCLE
5
170
100
AcDbEntity
8
INTERIOR_PROFILES
100
AcDbCircle
10
-720.66116838828339
20
158.88101050547931
30
0
40
3.0000000000000071
210
0
220
0
230
-1
0
CIRCLE
5
171
100
AcDbEntity
8
INTERIOR_PROFILES
100
AcDbCircle
10
-620.66116838828361
20
178.88101050547925
30
0
40
3.0000000000000071
210
0
220
0
230
-1
0
CIRCLE
5
172
100
AcDbEntity
8
INTERIOR_PROFILES
100
AcDbCircle
10
-720.66116838828339
20
238.88101050547903
30
0
40
3.0000000000000071
210
0
220
0
230
-1
0
CIRCLE
5
173
100
AcDbEntity
8
INTERIOR_PROFILES
100
AcDbCircle
10
-41.000000000000014
20
5.9999999999999432
30
0
40
1.6500000000000004
210
0
220
0
230
-1
0
CIRCLE
5
174
100
AcDbEntity
8
INTERIOR_PROFILES
100
AcDbCircle
10
-59.500000000000114
20
743.99999999999727
30
0
40
1.6500000000000625
210
0
220
0
230
-1
0
CIRCLE
5
175
100
AcDbEntity
8
INTERIOR_PROFILES
100
AcDbCircle
10
-109.50000000000014
20
743.99999999999841
30
0
40
1.6500000000000625
210
0
220
0
230
-1
0
CIRCLE
5
176
100
AcDbEntity
8
INTERIOR_PROFILES
100
AcDbCircle
10
-721.88289342116934
20
664.99999999999602
30
0
40
1.6499999999999204
210
0
220
0
230
-1
0
CIRCLE
5
177
100
AcDbEntity
8
INTERIOR_PROFILES
100
AcDbCircle
10
-720.66116838828339
20
198.88101050547917
30
0
40
3.0000000000000071
210
0
220
0
230
-1
0
CIRCLE
5
178
100
AcDbEntity
8
INTERIOR_PROFILES
100
AcDbCircle
10
-721.88289342116934
20
594.99999999999591
30
0
40
1.6499999999999915
210
0
220
0
230
-1
0
CIRCLE
5
179
100
AcDbEntity
8
INTERIOR_PROFILES
100
AcDbCircle
10
-108.9999999999998
20
305.99999999999841
30
0
40
1.6499999999999915
210
0
220
0
230
-1
0
CIRCLE
5
180
100
AcDbEntity
8
INTERIOR_PROFILES
100
AcDbCircle
10
-721.88289342116934
20
524.99999999999591
30
0
40
1.6499999999999915
210
0
220
0
230
-1
0
CIRCLE
5
181
100
AcDbEntity
8
INTERIOR_PROFILES
100
AcDbCircle
10
-721.88289342116934
20
454.99999999999596
30
0
40
1.6499999999999915
210
0
220
0
230
-1
0
CIRCLE
5
182
100
AcDbEntity
8
INTERIOR_PROFILES
100
AcDbCircle
10
-721.88289342116934
20
734.99999999999602
30
0
40
1.6499999999999204
210
0
220
0
230
-1
0
CIRCLE
5
183
100
AcDbEntity
8
INTERIOR_PROFILES
100
AcDbCircle
10
-158.9999999999998
20
305.99999999999955
30
0
40
1.6499999999999915
210
0
220
0
230
-1
0
CIRCLE
5
184
100
AcDbEntity
8
INTERIOR_PROFILES
100
AcDbCircle
10
-588.64472625529083
20
137.6936315068788
30
0
40
1.7499999999999893
210
0
220
0
230
-1
0
CIRCLE
5
185
100
AcDbEntity
8
INTERIOR_PROFILES
100
AcDbCircle
10
-141
20
784
30
0
40
1.6500000000000625
210
0
220
0
230
-1
0
CIRCLE
5
186
100
AcDbEntity
8
INTERIOR_PROFILES
100
AcDbCircle
10
-670.6611683882835
20
168.88101050547931
30
0
40
3.0000000000000071
210
0
220
0
230
-1
0
CIRCLE
5
187
100
AcDbEntity
8
INTERIOR_PROFILES
100
AcDbCircle
10
-91.000000000000014
20
5.9999999999999432
30
0
40
1.6500000000000004
210
0
220
0
230
-1
0
CIRCLE
5
188
100
AcDbEntity
8
INTERIOR_PROFILES
100
AcDbCircle
10
-660.6611683882835
20
178.88101050547925
30
0
40
3.0000000000000071
210
0
220
0
230
-1
0
CIRCLE
5
189
100
AcDbEntity
8
INTERIOR_PROFILES
100
AcDbCircle
10
-690.66116838828339
20
198.88101050547917
30
0
40
3.0000000000000071
210
0
220
0
230
-1
0
CIRCLE
5
190
100
AcDbEntity
8
INTERIOR_PROFILES
100
AcDbCircle
10
-640.66116838828361
20
168.88101050547931
30
0
40
3.0000000000000071
210
0
220
0
230
-1
0
CIRCLE
5
191
100
AcDbEntity
8
INTERIOR_PROFILES
100
AcDbCircle
10
-670.6611683882835
20
228.88101050547908
30
0
40
3.0000000000000071
210
0
220
0
230
-1
0
CIRCLE
5
192
100
AcDbEntity
8
INTERIOR_PROFILES
100
AcDbCircle
10
-700.66116838828339
20
168.88101050547931
30
0
40
3.0000000000000071
210
0
220
0
230
-1
0
CIRCLE
5
193
100
AcDbEntity
8
INTERIOR_PROFILES
100
AcDbCircle
10
-650.6611683882835
20
228.88101050547908
30
0
40
3.0000000000000071
210
0
220
0
230
-1
0
CIRCLE
5
194
100
AcDbEntity
8
INTERIOR_PROFILES
100
AcDbCircle
10
-640.6611683882835
20
238.88101050547903
30
0
40
3.0000000000000071
210
0
220
0
230
-1
0
CIRCLE
5
195
100
AcDbEntity
8
INTERIOR_PROFILES
100
AcDbCircle
10
-650.6611683882835
20
158.88101050547931
30
0
40
3.0000000000000071
210
0
220
0
230
-1
0
CIRCLE
5
196
100
AcDbEntity
8
INTERIOR_PROFILES
100
AcDbCircle
10
-650.6611683882835
20
178.88101050547925
30
0
40
3.0000000000000071
210
0
220
0
230
-1
0
CIRCLE
5
197
100
AcDbEntity
8
INTERIOR_PROFILES
100
AcDbCircle
10
-690.66116838828339
20
218.88101050547917
30
0
40
3.0000000000000071
210
0
220
0
230
-1
0
CIRCLE
5
198
100
AcDbEntity
8
INTERIOR_PROFILES
100
AcDbCircle
10
-680.6611683882835
20
158.88101050547931
30
0
40
3.0000000000000071
210
0
220
0
230
-1
0
CIRCLE
5
199
100
AcDbEntity
8
INTERIOR_PROFILES
100
AcDbCircle
10
-640.6611683882835
20
188.88101050547917
30
0
40
3.0000000000000071
210
0
220
0
230
-1
0
CIRCLE
5
200
100
AcDbEntity
8
INTERIOR_PROFILES
100
AcDbCircle
10
-710.66116838828339
20
248.88101050547903
30
0
40
3.0000000000000071
210
0
220
0
230
-1
0
CIRCLE
5
201
100
AcDbEntity
8
INTERIOR_PROFILES
100
AcDbCircle
10
-660.6611683882835
20
218.88101050547917
30
0
40
3.0000000000000071
210
0
220
0
230
-1
0
CIRCLE
5
202
100
AcDbEntity
8
INTERIOR_PROFILES
100
AcDbCircle
10
-690.66116838828339
20
228.88101050547908
30
0
40
3.0000000000000071
210
0
220
0
230
-1
0
CIRCLE
5
203
100
AcDbEntity
8
INTERIOR_PROFILES
100
AcDbCircle
10
-640.6611683882835
20
178.88101050547925
30
0
40
3.0000000000000071
210
0
220
0
230
-1
0
CIRCLE
5
204
100
AcDbEntity
8
INTERIOR_PROFILES
100
AcDbCircle
10
-710.66116838828339
20
208.88101050547917
30
0
40
3.0000000000000071
210
0
220
0
230
-1
0
CIRCLE
5
205
100
AcDbEntity
8
INTERIOR_PROFILES
100
AcDbCircle
10
-680.6611683882835
20
228.88101050547908
30
0
40
3.0000000000000071
210
0
220
0
230
-1
0
CIRCLE
5
206
100
AcDbEntity
8
INTERIOR_PROFILES
100
AcDbCircle
10
-700.66116838828339
20
218.88101050547917
30
0
40
3.0000000000000071
210
0
220
0
230
-1
0
CIRCLE
5
207
100
AcDbEntity
8
INTERIOR_PROFILES
100
AcDbCircle
10
-680.6611683882835
20
218.88101050547917
30
0
40
3.0000000000000071
210
0
220
0
230
-1
0
CIRCLE
5
208
100
AcDbEntity
8
INTERIOR_PROFILES
100
AcDbCircle
10
-710.66116838828339
20
198.88101050547917
30
0
40
3.0000000000000071
210
0
220
0
230
-1
0
CIRCLE
5
209
100
AcDbEntity
8
INTERIOR_PROFILES
100
AcDbCircle
10
-690.6611683882835
20
168.88101050547931
30
0
40
3.0000000000000071
210
0
220
0
230
-1
0
CIRCLE
5
210
100
AcDbEntity
8
INTERIOR_PROFILES
100
AcDbCircle
10
-700.66116838828339
20
178.88101050547925
30
0
40
3.0000000000000071
210
0
220
0
230
-1
0
CIRCLE
5
211
100
AcDbEntity
8
INTERIOR_PROFILES
100
AcDbCircle
10
-650.6611683882835
20
208.88101050547917
30
0
40
3.0000000000000071
210
0
220
0
230
-1
0
CIRCLE
5
212
100
AcDbEntity
8
INTERIOR_PROFILES
100
AcDbCircle
10
-690.6611683882835
20
178.88101050547925
30
0
40
3.0000000000000071
210
0
220
0
230
-1
0
CIRCLE
5
213
100
AcDbEntity
8
INTERIOR_PROFILES
100
AcDbCircle
10
-680.6611683882835
20
178.88101050547925
30
0
40
3.0000000000000071
210
0
220
0
230
-1
0
CIRCLE
5
214
100
AcDbEntity
8
INTERIOR_PROFILES
100
AcDbCircle
10
-650.6611683882835
20
188.88101050547917
30
0
40
3.0000000000000071
210
0
220
0
230
-1
0
CIRCLE
5
215
100
AcDbEntity
8
INTERIOR_PROFILES
100
AcDbCircle
10
-700.66116838828339
20
248.88101050547903
30
0
40
3.0000000000000071
210
0
220
0
230
-1
0
CIRCLE
5
216
100
AcDbEntity
8
INTERIOR_PROFILES
100
AcDbCircle
10
-660.6611683882835
20
198.88101050547917
30
0
40
3.0000000000000071
210
0
220
0
230
-1
0
CIRCLE
5
217
100
AcDbEntity
8
INTERIOR_PROFILES
100
AcDbCircle
10
-690.6611683882835
20
158.88101050547931
30
0
40
3.0000000000000071
210
0
220
0
230
-1
0
CIRCLE
5
218
100
AcDbEntity
8
INTERIOR_PROFILES
100
AcDbCircle
10
-730.66116838828316
20
228.88101050547917
30
0
40
3.0000000000000071
210
0
220
0
230
-1
0
CIRCLE
5
219
100
AcDbEntity
8
INTERIOR_PROFILES
100
AcDbCircle
10
-710.66116838828339
20
238.88101050547903
30
0
40
3.0000000000000071
210
0
220
0
230
-1
0
CIRCLE
5
220
100
AcDbEntity
8
INTERIOR_PROFILES
100
AcDbCircle
10
-730.66116838828316
20
238.88101050547908
30
0
40
3.0000000000000071
210
0
220
0
230
-1
0
CIRCLE
5
221
100
AcDbEntity
8
INTERIOR_PROFILES
100
AcDbCircle
10
-720.66116838828339
20
208.88101050547917
30
0
40
3.0000000000000071
210
0
220
0
230
-1
0
CIRCLE
5
222
100
AcDbEntity
8
INTERIOR_PROFILES
100
AcDbCircle
10
-730.66116838828316
20
198.88101050547925
30
0
40
3.0000000000000071
210
0
220
0
230
-1
0
CIRCLE
5
223
100
AcDbEntity
8
INTERIOR_PROFILES
100
AcDbCircle
10
-620.66116838828361
20
208.88101050547917
30
0
40
3.0000000000000071
210
0
220
0
230
-1
0
CIRCLE
5
224
100
AcDbEntity
8
INTERIOR_PROFILES
100
AcDbCircle
10
-720.66116838828339
20
168.88101050547931
30
0
40
3.0000000000000071
210
0
220
0
230
-1
0
CIRCLE
5
225
100
AcDbEntity
8
INTERIOR_PROFILES
100
AcDbCircle
10
-730.66116838828316
20
158.88101050547931
30
0
40
3.0000000000000071
210
0
220
0
230
-1
0
CIRCLE
5
226
100
AcDbEntity
8
INTERIOR_PROFILES
100
AcDbCircle
10
-720.66116838828339
20
248.88101050547903
30
0
40
3.0000000000000071
210
0
220
0
230
-1
0
CIRCLE
5
227
100
AcDbEntity
8
INTERIOR_PROFILES
100
AcDbCircle
10
-720.66116838828339
20
178.88101050547925
30
0
40
3.0000000000000071
210
0
220
0
230
-1
0
CIRCLE
5
228
100
AcDbEntity
8
INTERIOR_PROFILES
100
AcDbCircle
10
-630.66116838828361
20
188.88101050547917
30
0
40
3.0000000000000071
210
0
220
0
230
-1
0
CIRCLE
5
229
100
AcDbEntity
8
INTERIOR_PROFILES
100
AcDbCircle
10
-640.6611683882835
20
248.88101050547903
30
0
40
3.0000000000000071
210
0
220
0
230
-1
0
CIRCLE
5
230
100
AcDbEntity
8
INTERIOR_PROFILES
100
AcDbCircle
10
-620.66116838828361
20
198.88101050547917
30
0
40
3.0000000000000071
210
0
220
0
230
-1
0
CIRCLE
5
231
100
AcDbEntity
8
INTERIOR_PROFILES
100
AcDbCircle
10
-630.66116838828361
20
198.88101050547917
30
0
40
3.0000000000000071
210
0
220
0
230
-1
0
CIRCLE
5
232
100
AcDbEntity
8
INTERIOR_PROFILES
100
AcDbCircle
10
-670.6611683882835
20
158.88101050547931
30
0
40
3.0000000000000071
210
0
220
0
230
-1
0
CIRCLE
5
233
100
AcDbEntity
8
INTERIOR_PROFILES
100
AcDbCircle
10
-620.66116838828361
20
248.88101050547903
30
0
40
3.0000000000000071
210
0
220
0
230
-1
0
CIRCLE
5
234
100
AcDbEntity
8
INTERIOR_PROFILES
100
AcDbCircle
10
-620.66116838828361
20
228.88101050547908
30
0
40
3.0000000000000071
210
0
220
0
230
-1
0
CIRCLE
5
235
100
AcDbEntity
8
INTERIOR_PROFILES
100
AcDbCircle
10
-728.64472625529083
20
137.6936315068788
30
0
40
1.7500000000000071
210
0
220
0
230
-1
0
CIRCLE
5
236
100
AcDbEntity
8
INTERIOR_PROFILES
100
AcDbCircle
10
-630.66116838828361
20
208.88101050547917
30
0
40
3.0000000000000071
210
0
220
0
230
-1
0
CIRCLE
5
237
100
AcDbEntity
8
INTERIOR_PROFILES
100
AcDbCircle
10
-680.6611683882835
20
188.88101050547917
30
0
40
3.0000000000000071
210
0
220
0
230
-1
0
CIRCLE
5
238
100
AcDbEntity
8
INTERIOR_PROFILES
100
AcDbCircle
10
-730.66116838828316
20
168.88101050547931
30
0
40
3.0000000000000071
210
0
220
0
230
-1
0
CIRCLE
5
239
100
AcDbEntity
8
INTERIOR_PROFILES
100
AcDbCircle
10
-728.64472625529083
20
17.693631506878802
30
0
40
1.7499999999999982
210
0
220
0
230
-1
0
CIRCLE
5
240
100
AcDbEntity
8
INTERIOR_PROFILES
100
AcDbCircle
10
-660.6611683882835
20
238.88101050547903
30
0
40
3.0000000000000071
210
0
220
0
230
-1
0
CIRCLE
5
241
100
AcDbEntity
8
INTERIOR_PROFILES
100
AcDbCircle
10
-670.6611683882835
20
208.88101050547917
30
0
40
3.0000000000000071
210
0
220
0
230
-1
0
CIRCLE
5
242
100
AcDbEntity
8
INTERIOR_PROFILES
100
AcDbCircle
10
-660.6611683882835
20
208.88101050547917
30
0
40
3.0000000000000071
210
0
220
0
230
-1
0
CIRCLE
5
243
100
AcDbEntity
8
INTERIOR_PROFILES
100
AcDbCircle
10
-620.66116838828361
20
188.88101050547917
30
0
40
3.0000000000000071
210
0
220
0
230
-1
0
CIRCLE
5
244
100
AcDbEntity
8
INTERIOR_PROFILES
100
AcDbCircle
10
-620.66116838828361
20
158.88101050547931
30
0
40
3.0000000000000071
210
0
220
0
230
-1
0
CIRCLE
5
245
100
AcDbEntity
8
INTERIOR_PROFILES
100
AcDbCircle
10
-700.66116838828339
20
208.88101050547917
30
0
40
3.0000000000000071
210
0
220
0
230
-1
0
CIRCLE
5
246
100
AcDbEntity
8
INTERIOR_PROFILES
100
AcDbCircle
10
-630.66116838828361
20
228.88101050547908
30
0
40
3.0000000000000071
210
0
220
0
230
-1
0
CIRCLE
5
247
100
AcDbEntity
8
INTERIOR_PROFILES
100
AcDbCircle
10
-730.66116838828316
20
188.88101050547925
30
0
40
3.0000000000000071
210
0
220
0
230
-1
0
CIRCLE
5
248
100
AcDbEntity
8
INTERIOR_PROFILES
100
AcDbCircle
10
-690.66116838828339
20
208.88101050547917
30
0
40
3.0000000000000071
210
0
220
0
230
-1
0
CIRCLE
5
249
100
AcDbEntity
8
INTERIOR_PROFILES
100
AcDbCircle
10
-710.66116838828339
20
178.88101050547925
30
0
40
3.0000000000000071
210
0
220
0
230
-1
0
CIRCLE
5
250
100
AcDbEntity
8
INTERIOR_PROFILES
100
AcDbCircle
10
-710.66116838828339
20
188.88101050547917
30
0
40
3.0000000000000071
210
0
220
0
230
-1
0
CIRCLE
5
251
100
AcDbEntity
8
INTERIOR_PROFILES
100
AcDbCircle
10
-630.66116838828361
20
238.88101050547903
30
0
40
3.0000000000000071
210
0
220
0
230
-1
0
CIRCLE
5
252
100
AcDbEntity
8
INTERIOR_PROFILES
100
AcDbCircle
10
-690.66116838828339
20
248.88101050547903
30
0
40
3.0000000000000071
210
0
220
0
230
-1
0
CIRCLE
5
253
100
AcDbEntity
8
INTERIOR_PROFILES
100
AcDbCircle
10
-700.66116838828339
20
158.88101050547931
30
0
40
3.0000000000000071
210
0
220
0
230
-1
0
CIRCLE
5
254
100
AcDbEntity
8
INTERIOR_PROFILES
100
AcDbCircle
10
-660.6611683882835
20
188.88101050547917
30
0
40
3.0000000000000071
210
0
220
0
230
-1
0
CIRCLE
5
255
100
AcDbEntity
8
INTERIOR_PROFILES
100
AcDbCircle
10
-680.6611683882835
20
208.88101050547917
30
0
40
3.0000000000000071
210
0
220
0
230
-1
0
CIRCLE
5
256
100
AcDbEntity
8
INTERIOR_PROFILES
100
AcDbCircle
10
-690.6611683882835
20
188.88101050547917
30
0
40
3.0000000000000071
210
0
220
0
230
-1
0
CIRCLE
5
257
100
AcDbEntity
8
INTERIOR_PROFILES
100
AcDbCircle
10
-640.6611683882835
20
228.88101050547908
30
0
40
3.0000000000000071
210
0
220
0
230
-1
0
CIRCLE
5
258
100
AcDbEntity
8
INTERIOR_PROFILES
100
AcDbCircle
10
-640.6611683882835
20
208.88101050547917
30
0
40
3.0000000000000071
210
0
220
0
230
-1
0
CIRCLE
5
259
100
AcDbEntity
8
INTERIOR_PROFILES
100
AcDbCircle
10
-640.66116838828361
20
158.88101050547931
30
0
40
3.0000000000000071
210
0
220
0
230
-1
0
CIRCLE
5
260
100
AcDbEntity
8
INTERIOR_PROFILES
100
AcDbCircle
10
-650.6611683882835
20
218.88101050547917
30
0
40
3.0000000000000071
210
0
220
0
230
-1
0
CIRCLE
5
261
100
AcDbEntity
8
INTERIOR_PROFILES
100
AcDbCircle
10
-710.66116838828339
20
168.88101050547931
30
0
40
3.0000000000000071
210
0
220
0
230
-1
0
CIRCLE
5
262
100
AcDbEntity
8
INTERIOR_PROFILES
100
AcDbCircle
10
-670.6611683882835
20
238.88101050547903
30
0
40
3.0000000000000071
210
0
220
0
230
-1
0
CIRCLE
5
263
100
AcDbEntity
8
INTERIOR_PROFILES
100
AcDbCircle
10
-700.66116838828339
20
228.88101050547908
30
0
40
3.0000000000000071
210
0
220
0
230
-1
0
CIRCLE
5
264
100
AcDbEntity
8
INTERIOR_PROFILES
100
AcDbCircle
10
-690.66116838828339
20
238.88101050547903
30
0
40
3.0000000000000071
210
0
220
0
230
-1
0
CIRCLE
5
265
100
AcDbEntity
8
INTERIOR_PROFILES
100
AcDbCircle
10
-650.6611683882835
20
168.88101050547931
30
0
40
3.0000000000000071
210
0
220
0
230
-1
0
CIRCLE
5
266
100
AcDbEntity
8
INTERIOR_PROFILES
100
AcDbCircle
10
-650.6611683882835
20
238.88101050547903
30
0
40
3.0000000000000071
210
0
220
0
230
-1
0
CIRCLE
5
267
100
AcDbEntity
8
INTERIOR_PROFILES
100
AcDbCircle
10
-650.6611683882835
20
198.88101050547917
30
0
40
3.0000000000000071
210
0
220
0
230
-1
0
CIRCLE
5
268
100
AcDbEntity
8
INTERIOR_PROFILES
100
AcDbCircle
10
-670.6611683882835
20
178.88101050547925
30
0
40
3.0000000000000071
210
0
220
0
230
-1
0
CIRCLE
5
269
100
AcDbEntity
8
INTERIOR_PROFILES
100
AcDbCircle
10
-700.66116838828339
20
238.88101050547903
30
0
40
3.0000000000000071
210
0
220
0
230
-1
0
CIRCLE
5
270
100
AcDbEntity
8
INTERIOR_PROFILES
100
AcDbCircle
10
-700.66116838828339
20
198.88101050547917
30
0
40
3.0000000000000071
210
0
220
0
230
-1
0
CIRCLE
5
271
100
AcDbEntity
8
INTERIOR_PROFILES
100
AcDbCircle
10
-660.6611683882835
20
168.88101050547931
30
0
40
3.0000000000000071
210
0
220
0
230
-1
0
CIRCLE
5
272
100
AcDbEntity
8
INTERIOR_PROFILES
100
AcDbCircle
10
-660.6611683882835
20
248.88101050547903
30
0
40
3.0000000000000071
210
0
220
0
230
-1
0
CIRCLE
5
273
100
AcDbEntity
8
INTERIOR_PROFILES
100
AcDbCircle
10
-680.6611683882835
20
238.88101050547903
30
0
40
3.0000000000000071
210
0
220
0
230
-1
0
CIRCLE
5
274
100
AcDbEntity
8
INTERIOR_PROFILES
100
AcDbCircle
10
-630.66116838828361
20
218.88101050547917
30
0
40
3.0000000000000071
210
0
220
0
230
-1
0
CIRCLE
5
275
100
AcDbEntity
8
INTERIOR_PROFILES
100
AcDbCircle
10
-710.66116838828339
20
218.88101050547917
30
0
40
3.0000000000000071
210
0
220
0
230
-1
0
CIRCLE
5
276
100
AcDbEntity
8
INTERIOR_PROFILES
100
AcDbCircle
10
-640.6611683882835
20
218.88101050547917
30
0
40
3.0000000000000071
210
0
220
0
230
-1
0
CIRCLE
5
277
100
AcDbEntity
8
INTERIOR_PROFILES
100
AcDbCircle
10
-620.66116838828361
20
218.88101050547917
30
0
40
3.0000000000000071
210
0
220
0
230
-1
0
CIRCLE
5
278
100
AcDbEntity
8
INTERIOR_PROFILES
100
AcDbCircle
10
-700.66116838828339
20
188.88101050547917
30
0
40
3.0000000000000071
210
0
220
0
230
-1
0
CIRCLE
5
279
100
AcDbEntity
8
INTERIOR_PROFILES
100
AcDbCircle
10
-670.6611683882835
20
248.88101050547903
30
0
40
3.0000000000000071
210
0
220
0
230
-1
0
CIRCLE
5
280
100
AcDbEntity
8
INTERIOR_PROFILES
100
AcDbCircle
10
-730.66116838828316
20
218.88101050547917
30
0
40
3.0000000000000071
210
0
220
0
230
-1
0
CIRCLE
5
281
100
AcDbEntity
8
INTERIOR_PROFILES
100
AcDbCircle
10
-650.6611683882835
20
248.88101050547903
30
0
40
3.0000000000000071
210
0
220
0
230
-1
0
CIRCLE
5
282
100
AcDbEntity
8
INTERIOR_PROFILES
100
AcDbCircle
10
-670.6611683882835
20
218.88101050547917
30
0
40
3.0000000000000071
210
0
220
0
230
-1
0
CIRCLE
5
283
100
AcDbEntity
8
INTERIOR_PROFILES
100
AcDbCircle
10
-710.66116838828339
20
228.88101050547908
30
0
40
3.0000000000000071
210
0
220
0
230
-1
0
CIRCLE
5
284
100
AcDbEntity
8
INTERIOR_PROFILES
100
AcDbCircle
10
-720.66116838828339
20
228.88101050547908
30
0
40
3.0000000000000071
210
0
220
0
230
-1
0
CIRCLE
5
285
100
AcDbEntity
8
INTERIOR_PROFILES
100
AcDbCircle
10
-640.6611683882835
20
198.88101050547917
30
0
40
3.0000000000000071
210
0
220
0
230
-1
0
CIRCLE
5
286
100
AcDbEntity
8
INTERIOR_PROFILES
100
AcDbCircle
10
-620.66116838828361
20
238.88101050547903
30
0
40
3.0000000000000071
210
0
220
0
230
-1
0
CIRCLE
5
287
100
AcDbEntity
8
INTERIOR_PROFILES
100
AcDbCircle
10
-670.6611683882835
20
198.88101050547917
30
0
40
3.0000000000000071
210
0
220
0
230
-1
0
CIRCLE
5
288
100
AcDbEntity
8
INTERIOR_PROFILES
100
AcDbCircle
10
-660.6611683882835
20
228.88101050547908
30
0
40
3.0000000000000071
210
0
220
0
230
-1
0
CIRCLE
5
289
100
AcDbEntity
8
INTERIOR_PROFILES
100
AcDbCircle
10
-670.6611683882835
20
188.88101050547917
30
0
40
3.0000000000000071
210
0
220
0
230
-1
0
CIRCLE
5
290
100
AcDbEntity
8
INTERIOR_PROFILES
100
AcDbCircle
10
-680.6611683882835
20
248.88101050547903
30
0
40
3.0000000000000071
210
0
220
0
230
-1
0
CIRCLE
5
291
100
AcDbEntity
8
INTERIOR_PROFILES
100
AcDbCircle
10
-630.66116838828361
20
248.88101050547903
30
0
40
3.0000000000000071
210
0
220
0
230
-1
0
CIRCLE
5
292
100
AcDbEntity
8
INTERIOR_PROFILES
100
AcDbCircle
10
-620.66116838828361
20
168.88101050547931
30
0
40
3.0000000000000071
210
0
220
0
230
-1
0
CIRCLE
5
293
100
AcDbEntity
8
INTERIOR_PROFILES
100
AcDbCircle
10
-710.66116838828339
20
158.88101050547931
30
0
40
3.0000000000000071
210
0
220
0
230
-1
0
CIRCLE
5
294
100
AcDbEntity
8
INTERIOR_PROFILES
100
AcDbCircle
10
-680.6611683882835
20
168.88101050547931
30
0
40
3.0000000000000071
210
0
220
0
230
-1
0
CIRCLE
5
295
100
AcDbEntity
8
INTERIOR_PROFILES
100
AcDbCircle
10
-730.66116838828316
20
208.88101050547917
30
0
40
3.0000000000000071
210
0
220
0
230
-1
0
CIRCLE
5
296
100
AcDbEntity
8
INTERIOR_PROFILES
100
AcDbCircle
10
-730.66116838828316
20
248.88101050547903
30
0
40
3.0000000000000071
210
0
220
0
230
-1
0
CIRCLE
5
297
100
AcDbEntity
8
INTERIOR_PROFILES
100
AcDbCircle
10
-660.6611683882835
20
158.88101050547931
30
0
40
3.0000000000000071
210
0
220
0
230
-1
0
CIRCLE
5
298
100
AcDbEntity
8
INTERIOR_PROFILES
100
AcDbCircle
10
-588.64472625529083
20
17.693631506878802
30
0
40
1.7500000000000027
210
0
220
0
230
-1
0
CIRCLE
5
299
100
AcDbEntity
8
INTERIOR_PROFILES
100
AcDbCircle
10
-720.66116838828339
20
188.88101050547917
30
0
40
3.0000000000000071
210
0
220
0
230
-1
0
LINE
5
300
100
AcDbEntity
8
BEND
100
AcDbLine
10
574.39292006587709
20
0
30
2.1848334064503798e-13
11
574.39292006587709
21
790
31
1.7576707189049731e-13
0
LINE
5
301
100
AcDbEntity
8
BEND
100
AcDbLine
10
182.13097335529238
20
790
30
5.9787966032726814e-16
11
182.13097335529238
21
0
31
6.1249422630989737e-16
0
LINE
5
302
100
AcDbEntity
8
BEND_EXTENT
100
AcDbLine
10
575.52389342116919
20
790
30
2.4951371844820806e-13
11
575.52389342116919
21
0
31
2.4951371844820806e-13
0
LINE
5
303
100
AcDbEntity
8
BEND_EXTENT
100
AcDbLine
10
180.99999999999997
20
0
30
-1.9176713968020371e-17
11
180.99999999999997
21
790
31
-1.9176713968020371e-17
0
LINE
5
304
100
AcDbEntity
8
BEND_EXTENT
100
AcDbLine
10
573.26194671058465
20
0
30
2.5131810445135412e-13
11
573.26194671058465
21
790
31
2.5131810445135412e-13
0
LINE
5
305
100
AcDbEntity
8
BEND_EXTENT
100
AcDbLine
10
183.26194671058462
20
790
30
1.2295506006051049e-15
11
183.26194671058462
21
0
31
1.2295506006051049e-15
0
ENDSEC
0
SECTION
2
OBJECTS
0
DICTIONARY
5
C
100
AcDbDictionary
3
ACAD_GROUP
350
D
3
ACAD_MLINESTYLE
350
17
0
DICTIONARY
5
D
100
AcDbDictionary
0
DICTIONARY
5
1A
330
C
100
AcDbDictionary
0
DICTIONARY
5
17
100
AcDbDictionary
0
ENDSEC
0
EOF
