0
SECTION
2
HEADER
9
$INSUNITS
70
4
9
$ACADVER
1
AC1014
9
$HANDSEED
5
FFFF
0
ENDSEC
0
SECTION
2
TABLES
0
TABLE
2
VPORT
5
8
100
AcDbSymbolTable
0
ENDTAB
0
TABLE
2
LTYPE
5
5
100
AcDbSymbolTable
0
LTYPE
5
14
100
AcDbSymbolTableRecord
100
AcDbLinetypeTableRecord
2
BYBLOCK
70
0
0
LTYPE
5
15
100
AcDbSymbolTableRecord
100
AcDbLinetypeTableRecord
2
BYLAYER
70
0
0
ENDTAB
0
TABLE
2
LAYER
5
2
100
AcDbSymbolTable
70
2
0
LAYER
5
50
100
AcDbSymbolTableRecord
100
AcDbLayerTableRecord
2
0
70
0
6
CONTINUOUS
0
ENDTAB
0
TABLE
2
STYLE
5
3
100
AcDbSymbolTable
70
1
0
STYLE
5
11
100
AcDbSymbolTableRecord
100
AcDbTextStyleTableRecord
2
STANDARD
70
0
0
ENDTAB
0
TABLE
2
VIEW
5
6
100
AcDbSymbolTable
70
0
0
ENDTAB
0
TABLE
2
UCS
5
7
100
AcDbSymbolTable
70
0
0
ENDTAB
0
TABLE
2
APPID
5
9
100
AcDbSymbolTable
70
2
0
APPID
5
12
100
AcDbSymbolTableRecord
100
AcDbRegAppTableRecord
2
ACAD
70
0
0
ENDTAB
0
TABLE
2
DIMSTYLE
5
A
100
AcDbSymbolTable
70
1
0
ENDTAB
0
TABLE
2
BLOCK_RECORD
5
1
100
AcDbSymbolTable
70
1
0
BLOCK_RECORD
5
1F
100
AcDbSymbolTableRecord
100
AcDbBlockTableRecord
2
*MODEL_SPACE
0
BLOCK_RECORD
5
1B
100
AcDbSymbolTableRecord
100
AcDbBlockTableRecord
2
*PAPER_SPACE
0
ENDTAB
0
ENDSEC
0
SECTION
2
BLOCKS
0
BLOCK
5
20
100
AcDbEntity
100
AcDbBlockBegin
2
*MODEL_SPACE
0
ENDBLK
5
21
100
AcDbEntity
100
AcDbBlockEnd
0
BLOCK
5
1C
100
AcDbEntity
100
AcDbBlockBegin
2
*PAPER_SPACE
0
ENDBLK
5
1D
100
AcDbEntity
100
AcDbBlockEnd
0
ENDSEC
0
SECTION
2
ENTITIES
0
LWPOLYLINE
5
100
100
AcDbEntity
8
OUTER_PROFILES
100
AcDbPolyline
90
12
70
1
43
0.0
10
392.00000000000091
20
0
10
0
20
0
10
0
20
17.761946710584269
10
-1.0000000000000142
20
17.761946710584269
10
-1.0000000000000142
20
197.76194671047861
10
0
20
197.76194671047861
10
0
20
215.52389342106281
10
392.00000000000091
20
215.52389342106281
10
392.00000000000091
20
197.76194671047861
10
393.00000000000091
20
197.76194671047861
10
393.00000000000091
20
17.761946710584269
10
392.00000000000091
20
17.761946710584269
0
CIRCLE
5
101
100
AcDbEntity
8
INTERIOR_PROFILES
100
AcDbCircle
10
-275.99999999999295
20
8.5000000000000853
30
0
40
1.6500000000000625
210
0
220
0
230
-1
0
CIRCLE
5
102
100
AcDbEntity
8
INTERIOR_PROFILES
100
AcDbCircle
10
-275.99999999999295
20
207.02389342106272
30
0
40
1.6500000000000625
210
0
220
0
230
-1
0
CIRCLE
5
103
100
AcDbEntity
8
INTERIOR_PROFILES
100
AcDbCircle
10
-116.0000000000008
20
8.5000000000000853
30
0
40
1.6500000000000625
210
0
220
0
230
-1
0
CIRCLE
5
104
100
AcDbEntity
8
INTERIOR_PROFILES
100
AcDbCircle
10
-116.0000000000008
20
207.02389342106272
30
0
40
1.6500000000000625
210
0
220
0
230
-1
0
CIRCLE
5
105
100
AcDbEntity
8
INTERIOR_PROFILES
100
AcDbCircle
10
-375.99999999999295
20
8.5000000000000853
30
0
40
1.6500000000000625
210
0
220
0
230
-1
0
CIRCLE
5
106
100
AcDbEntity
8
INTERIOR_PROFILES
100
AcDbCircle
10
-375.99999999999295
20
207.02389342106272
30
0
40
1.6500000000000625
210
0
220
0
230
-1
0
CIRCLE
5
107
100
AcDbEntity
8
INTERIOR_PROFILES
100
AcDbCircle
10
-16.000000000000867
20
207.02389342106272
30
0
40
1.6500000000000625
210
0
220
0
230
-1
0
CIRCLE
5
108
100
AcDbEntity
8
INTERIOR_PROFILES
100
AcDbCircle
10
-16.000000000000867
20
8.5000000000000853
30
0
40
1.6500000000000625
210
0
220
0
230
-1
0
CIRCLE
5
109
100
AcDbEntity
8
INTERIOR_PROFILES
100
AcDbCircle
10
-5.9999999999998721
20
56.261946710480686
30
0
40
1.6500000000000004
210
0
220
0
230
-1
0
CIRCLE
5
110
100
AcDbEntity
8
INTERIOR_PROFILES
100
AcDbCircle
10
-386.00000000000085
20
156.26194671047864
30
0
40
1.6499999999999915
210
0
220
0
230
-1
0
CIRCLE
5
111
100
AcDbEntity
8
INTERIOR_PROFILES
100
AcDbCircle
10
-386.00000000000085
20
106.26194671047864
30
0
40
1.6499999999999915
210
0
220
0
230
-1
0
CIRCLE
5
112
100
AcDbEntity
8
INTERIOR_PROFILES
100
AcDbCircle
10
-6.0000000000003695
20
106.26194671048069
30
0
40
1.6500000000000004
210
0
220
0
230
-1
0
CIRCLE
5
113
100
AcDbEntity
8
INTERIOR_PROFILES
100
AcDbCircle
10
-6.0000000000009379
20
156.26194671048069
30
0
40
1.6500000000000004
210
0
220
0
230
-1
0
CIRCLE
5
114
100
AcDbEntity
8
INTERIOR_PROFILES
100
AcDbCircle
10
-386.00000000000085
20
56.261946710478639
30
0
40
1.6499999999999915
210
0
220
0
230
-1
0
LINE
5
115
100
AcDbEntity
8
BEND
100
AcDbLine
10
392.0000000000008
20
199.39292006577068
30
1.5154544286133387e-13
11
0
21
199.39292006577068
31
1.5154544286133387e-13
0
LINE
5
116
100
AcDbEntity
8
BEND
100
AcDbLine
10
7.1054273576010019e-14
20
16.130973355292149
30
1.5154544286133387e-13
11
392.00000000000091
21
16.130973355292149
31
1.5154544286133387e-13
0
LINE
5
117
100
AcDbEntity
8
BEND_EXTENT
100
AcDbLine
10
0
20
200.52389342106281
30
1.1546319456101628e-13
11
392.0000000000008
21
200.52389342106281
31
1.1546319456101628e-13
0
LINE
5
118
100
AcDbEntity
8
BEND_EXTENT
100
AcDbLine
10
392.00000000000091
20
198.26194671047861
30
1.4210854715202004e-13
11
0
21
198.26194671047861
31
1.4210854715202004e-13
0
LINE
5
119
100
AcDbEntity
8
BEND_EXTENT
100
AcDbLine
10
392.00000000000091
20
15
30
1.7763568394002505e-13
11
7.1054273576010019e-14
21
15
31
1.7763568394002505e-13
0
LINE
5
120
100
AcDbEntity
8
BEND_EXTENT
100
AcDbLine
10
0
20
17.261946710584262
30
1.4210854715202004e-13
11
392.00000000000091
21
17.261946710584262
31
1.4210854715202004e-13
0
ENDSEC
0
SECTION
2
OBJECTS
0
DICTIONARY
5
C
100
AcDbDictionary
3
ACAD_GROUP
350
D
3
ACAD_MLINESTYLE
350
17
0
DICTIONARY
5
D
100
AcDbDictionary
0
DICTIONARY
5
1A
330
C
100
AcDbDictionary
0
DICTIONARY
5
17
100
AcDbDictionary
0
ENDSEC
0
EOF
