  0
SECTION
  2
HEADER
  9
$ACADVER
  1
AC1014
  9
$HANDSEED
  5
FFFF
  9
$MEASUREMENT
 70
     1
  0
ENDSEC
  0
SECTION
  2
TABLES
  0
TABLE
  2
VPORT
  5
8
330
0
100
AcDbSymbolTable
 70
     4
  0
VPORT
  5
2E
330
8
100
AcDbSymbolTableRecord
100
AcDbViewportTableRecord
  2
*ACTIVE
 70
     0
 10
0.0
 20
0.0
 11
1.0
 21
1.0
 12
210.0
 22
148.5
 13
0.0
 23
0.0
 14
10.0
 24
10.0
 15
10.0
 25
10.0
 16
0.0
 26
0.0
 36
1.0
 17
0.0
 27
0.0
 37
0.0
 40
341.0
 41
1.24
 42
50.0
 43
0.0
 44
0.0
 50
0.0
 51
0.0
 71
     0
 72
   100
 73
     1
 74
     3
 75
     0
 76
     0
 77
     0
 78
     0
  0
ENDTAB
  0
TABLE
  2
LTYPE
  5
5
330
0
100
AcDbSymbolTable
 70
     1
  0
LTYPE
  5
14
330
5
100
AcDbSymbolTableRecord
100
AcDbLinetypeTableRecord
  2
BYBLOCK
 70
     0
  3

 72
    65
 73
     0
 40
0.0
  0
LTYPE
  5
15
330
5
100
AcDbSymbolTableRecord
100
AcDbLinetypeTableRecord
  2
BYLAYER
 70
     0
  3

 72
    65
 73
     0
 40
0.0
  0
LTYPE
  5
16
330
5
100
AcDbSymbolTableRecord
100
AcDbLinetypeTableRecord
  2
CONTINUOUS
 70
     0
  3
Solid line
 72
    65
 73
     0
 40
0.0
  0
ENDTAB
  0
TABLE
  2
LAYER
  5
2
100
AcDbSymbolTable
 70
2
  0
LAYER
  5
50
100
AcDbSymbolTableRecord
100
AcDbLayerTableRecord
  2
0
 70
0
  6
CONTINUOUS
  0
LAYER
  5
51
100
AcDbSymbolTableRecord
100
AcDbLayerTableRecord
  2
Layer_1
 70
0
  6
CONTINUOUS
  0
ENDTAB
  0
TABLE
  2
STYLE
  5
3
330
0
100
AcDbSymbolTable
 70
     1
  0
STYLE
  5
11
330
3
100
AcDbSymbolTableRecord
100
AcDbTextStyleTableRecord
  2
STANDARD
 70
     0
 40
0.0
 41
1.0
 50
0.0
 71
     0
 42
2.5
  3
txt
  4

  0
ENDTAB
  0
TABLE
  2
VIEW
  5
6
330
0
100
AcDbSymbolTable
 70
     0
  0
ENDTAB
  0
TABLE
  2
UCS
  5
7
330
0
100
AcDbSymbolTable
 70
     0
  0
ENDTAB
  0
TABLE
  2
APPID
  5
9
330
0
100
AcDbSymbolTable
 70
     2
  0
APPID
  5
12
330
9
100
AcDbSymbolTableRecord
100
AcDbRegAppTableRecord
  2
ACAD
 70
     0
  0
ENDTAB
  0
TABLE
  2
DIMSTYLE
  5
A
330
0
100
AcDbSymbolTable
 70
     1
  0
DIMSTYLE
105
27
330
A
100
AcDbSymbolTableRecord
100
AcDbDimStyleTableRecord
  2
ISO-25
 70
     0
  3

  4

  5

  6

  7

 40
1.0
 41
2.5
 42
0.625
 43
3.75
 44
1.25
 45
0.0
 46
0.0
 47
0.0
 48
0.0
140
2.5
141
2.5
142
0.0
143
0.03937007874016
144
1.0
145
0.0
146
1.0
147
0.625
 71
     0
 72
     0
 73
     0
 74
     0
 75
     0
 76
     0
 77
     1
 78
     8
170
     0
171
     3
172
     1
173
     0
174
     0
175
     0
176
     0
177
     0
178
     0
270
     2
271
     2
272
     2
273
     2
274
     3
340
11
275
     0
280
     0
281
     0
282
     0
283
     0
284
     8
285
     0
286
     0
287
     3
288
     0
  0
ENDTAB
  0
TABLE
  2
BLOCK_RECORD
  5
1
330
0
100
AcDbSymbolTable
 70
     1
  0
BLOCK_RECORD
  5
1F
330
1
100
AcDbSymbolTableRecord
100
AcDbBlockTableRecord
  2
*MODEL_SPACE
  0
BLOCK_RECORD
  5
1B
330
1
100
AcDbSymbolTableRecord
100
AcDbBlockTableRecord
  2
*PAPER_SPACE
  0
ENDTAB
  0
ENDSEC
  0
SECTION
  2
BLOCKS
  0
BLOCK
  5
20
330
1F
100
AcDbEntity
  8
0
100
AcDbBlockBegin
  2
*MODEL_SPACE
 70
     0
 10
0.0
 20
0.0
 30
0.0
  3
*MODEL_SPACE
  1

  0
ENDBLK
  5
21
330
1F
100
AcDbEntity
  8
0
100
AcDbBlockEnd
  0
BLOCK
  5
1C
330
1B
100
AcDbEntity
 67
     1
  8
0
100
AcDbBlockBegin
  2
*PAPER_SPACE
  1

  0
ENDBLK
  5
1D
330
1B
100
AcDbEntity
 67
     1
  8
0
100
AcDbBlockEnd
  0
ENDSEC
  0
SECTION
  2
ENTITIES
  0
LINE
  5
100
100
AcDbEntity
  8
Layer_1
 62
7
100
AcDbLine
 10
-55.436400
 20
175.570370
 30
0.0
 11
199.563279
 21
175.570370
 31
0.0
  0
LINE
  5
101
100
AcDbEntity
  8
Layer_1
 62
7
100
AcDbLine
 10
199.563279
 20
175.570370
 30
0.0
 11
199.563279
 21
214.832273
 31
0.0
  0
LINE
  5
102
100
AcDbEntity
  8
Layer_1
 62
7
100
AcDbLine
 10
199.563279
 20
214.832273
 30
0.0
 11
-55.436400
 21
214.832273
 31
0.0
  0
LINE
  5
103
100
AcDbEntity
  8
Layer_1
 62
7
100
AcDbLine
 10
-55.436400
 20
214.832273
 30
0.0
 11
-55.436400
 21
175.570370
 31
0.0
  0
SPLINE
  5
104
100
AcDbEntity
  8
Layer_1
 62
7
100
AcDbSpline
 70
8
 71
3
 72
8
 73
4
 74
0
 40
0
 40
0
 40
0
 40
0
 40
1
 40
1
 40
1
 40
1
 10
-33.186428
 20
204.832271
 30
0.0
 10
-33.186428
 20
205.636118
 30
0.0
 10
-33.615275
 20
206.378902
 30
0.0
 10
-34.311427
 20
206.780826
 30
0.0
  0
SPLINE
  5
105
100
AcDbEntity
  8
Layer_1
 62
7
100
AcDbSpline
 70
8
 71
3
 72
8
 73
4
 74
0
 40
0
 40
0
 40
0
 40
0
 40
1
 40
1
 40
1
 40
1
 10
-34.311427
 20
206.780826
 30
0.0
 10
-35.007578
 20
207.182749
 30
0.0
 10
-35.865272
 20
207.182749
 30
0.0
 10
-36.561424
 20
206.780826
 30
0.0
  0
SPLINE
  5
106
100
AcDbEntity
  8
Layer_1
 62
7
100
AcDbSpline
 70
8
 71
3
 72
8
 73
4
 74
0
 40
0
 40
0
 40
0
 40
0
 40
1
 40
1
 40
1
 40
1
 10
-36.561424
 20
206.780826
 30
0.0
 10
-37.257575
 20
206.378902
 30
0.0
 10
-37.686422
 20
205.636118
 30
0.0
 10
-37.686422
 20
204.832271
 30
0.0
  0
SPLINE
  5
107
100
AcDbEntity
  8
Layer_1
 62
7
100
AcDbSpline
 70
8
 71
3
 72
8
 73
4
 74
0
 40
0
 40
0
 40
0
 40
0
 40
1
 40
1
 40
1
 40
1
 10
-37.686422
 20
204.832271
 30
0.0
 10
-37.686422
 20
204.028424
 30
0.0
 10
-37.257575
 20
203.285640
 30
0.0
 10
-36.561424
 20
202.883716
 30
0.0
  0
SPLINE
  5
108
100
AcDbEntity
  8
Layer_1
 62
7
100
AcDbSpline
 70
8
 71
3
 72
8
 73
4
 74
0
 40
0
 40
0
 40
0
 40
0
 40
1
 40
1
 40
1
 40
1
 10
-36.561424
 20
202.883716
 30
0.0
 10
-35.865272
 20
202.481793
 30
0.0
 10
-35.007578
 20
202.481793
 30
0.0
 10
-34.311427
 20
202.883716
 30
0.0
  0
SPLINE
  5
109
100
AcDbEntity
  8
Layer_1
 62
7
100
AcDbSpline
 70
8
 71
3
 72
8
 73
4
 74
0
 40
0
 40
0
 40
0
 40
0
 40
1
 40
1
 40
1
 40
1
 10
-34.311427
 20
202.883716
 30
0.0
 10
-33.615275
 20
203.285640
 30
0.0
 10
-33.186428
 20
204.028424
 30
0.0
 10
-33.186428
 20
204.832271
 30
0.0
  0
LINE
  5
10a
100
AcDbEntity
  8
Layer_1
 62
7
100
AcDbLine
 10
-33.186428
 20
204.832271
 30
0.0
 11
-33.186428
 21
204.832271
 31
0.0
  0
SPLINE
  5
10b
100
AcDbEntity
  8
Layer_1
 62
7
100
AcDbSpline
 70
8
 71
3
 72
8
 73
4
 74
0
 40
0
 40
0
 40
0
 40
0
 40
1
 40
1
 40
1
 40
1
 10
181.813300
 20
204.832271
 30
0.0
 10
181.813852
 20
205.636485
 30
0.0
 10
181.385125
 20
206.379845
 30
0.0
 10
180.688748
 20
206.782112
 30
0.0
  0
SPLINE
  5
10c
100
AcDbEntity
  8
Layer_1
 62
7
100
AcDbSpline
 70
8
 71
3
 72
8
 73
4
 74
0
 40
0
 40
0
 40
0
 40
0
 40
1
 40
1
 40
1
 40
1
 10
180.688748
 20
206.782112
 30
0.0
 10
179.992370
 20
207.184378
 30
0.0
 10
179.134237
 20
207.184378
 30
0.0
 10
178.437860
 20
206.782112
 30
0.0
  0
SPLINE
  5
10d
100
AcDbEntity
  8
Layer_1
 62
7
100
AcDbSpline
 70
8
 71
3
 72
8
 73
4
 74
0
 40
0
 40
0
 40
0
 40
0
 40
1
 40
1
 40
1
 40
1
 10
178.437860
 20
206.782112
 30
0.0
 10
177.741482
 20
206.379845
 30
0.0
 10
177.312755
 20
205.636485
 30
0.0
 10
177.313307
 20
204.832271
 30
0.0
  0
SPLINE
  5
10e
100
AcDbEntity
  8
Layer_1
 62
7
100
AcDbSpline
 70
8
 71
3
 72
8
 73
4
 74
0
 40
0
 40
0
 40
0
 40
0
 40
1
 40
1
 40
1
 40
1
 10
177.313307
 20
204.832271
 30
0.0
 10
177.312755
 20
204.028057
 30
0.0
 10
177.741482
 20
203.284697
 30
0.0
 10
178.437860
 20
202.882430
 30
0.0
  0
SPLINE
  5
10f
100
AcDbEntity
  8
Layer_1
 62
7
100
AcDbSpline
 70
8
 71
3
 72
8
 73
4
 74
0
 40
0
 40
0
 40
0
 40
0
 40
1
 40
1
 40
1
 40
1
 10
178.437860
 20
202.882430
 30
0.0
 10
179.134237
 20
202.480164
 30
0.0
 10
179.992370
 20
202.480164
 30
0.0
 10
180.688748
 20
202.882430
 30
0.0
  0
SPLINE
  5
110
100
AcDbEntity
  8
Layer_1
 62
7
100
AcDbSpline
 70
8
 71
3
 72
8
 73
4
 74
0
 40
0
 40
0
 40
0
 40
0
 40
1
 40
1
 40
1
 40
1
 10
180.688748
 20
202.882430
 30
0.0
 10
181.385125
 20
203.284697
 30
0.0
 10
181.813852
 20
204.028057
 30
0.0
 10
181.813300
 20
204.832271
 30
0.0
  0
LINE
  5
111
100
AcDbEntity
  8
Layer_1
 62
7
100
AcDbLine
 10
181.813300
 20
204.832271
 30
0.0
 11
181.813300
 21
204.832271
 31
0.0
  0
SPLINE
  5
112
100
AcDbEntity
  8
Layer_1
 62
7
100
AcDbSpline
 70
8
 71
3
 72
8
 73
4
 74
0
 40
0
 40
0
 40
0
 40
0
 40
1
 40
1
 40
1
 40
1
 10
34.546820
 20
184.570373
 30
0.0
 10
34.547057
 20
185.160017
 30
0.0
 10
34.232620
 20
185.704973
 30
0.0
 10
33.722012
 20
185.999863
 30
0.0
  0
SPLINE
  5
113
100
AcDbEntity
  8
Layer_1
 62
7
100
AcDbSpline
 70
8
 71
3
 72
8
 73
4
 74
0
 40
0
 40
0
 40
0
 40
0
 40
1
 40
1
 40
1
 40
1
 10
33.722012
 20
185.999863
 30
0.0
 10
33.211404
 20
186.294754
 30
0.0
 10
32.582241
 20
186.294754
 30
0.0
 10
32.071633
 20
185.999863
 30
0.0
  0
SPLINE
  5
114
100
AcDbEntity
  8
Layer_1
 62
7
100
AcDbSpline
 70
8
 71
3
 72
8
 73
4
 74
0
 40
0
 40
0
 40
0
 40
0
 40
1
 40
1
 40
1
 40
1
 10
32.071633
 20
185.999863
 30
0.0
 10
31.561025
 20
185.704973
 30
0.0
 10
31.246589
 20
185.160017
 30
0.0
 10
31.246825
 20
184.570373
 30
0.0
  0
SPLINE
  5
115
100
AcDbEntity
  8
Layer_1
 62
7
100
AcDbSpline
 70
8
 71
3
 72
8
 73
4
 74
0
 40
0
 40
0
 40
0
 40
0
 40
1
 40
1
 40
1
 40
1
 10
31.246825
 20
184.570373
 30
0.0
 10
31.246589
 20
183.980728
 30
0.0
 10
31.561025
 20
183.435772
 30
0.0
 10
32.071633
 20
183.140882
 30
0.0
  0
SPLINE
  5
116
100
AcDbEntity
  8
Layer_1
 62
7
100
AcDbSpline
 70
8
 71
3
 72
8
 73
4
 74
0
 40
0
 40
0
 40
0
 40
0
 40
1
 40
1
 40
1
 40
1
 10
32.071633
 20
183.140882
 30
0.0
 10
32.582241
 20
182.845991
 30
0.0
 10
33.211404
 20
182.845991
 30
0.0
 10
33.722012
 20
183.140882
 30
0.0
  0
SPLINE
  5
117
100
AcDbEntity
  8
Layer_1
 62
7
100
AcDbSpline
 70
8
 71
3
 72
8
 73
4
 74
0
 40
0
 40
0
 40
0
 40
0
 40
1
 40
1
 40
1
 40
1
 10
33.722012
 20
183.140882
 30
0.0
 10
34.232620
 20
183.435772
 30
0.0
 10
34.547057
 20
183.980728
 30
0.0
 10
34.546820
 20
184.570373
 30
0.0
  0
LINE
  5
118
100
AcDbEntity
  8
Layer_1
 62
7
100
AcDbLine
 10
34.546820
 20
184.570373
 30
0.0
 11
34.546820
 21
184.570373
 31
0.0
  0
SPLINE
  5
119
100
AcDbEntity
  8
Layer_1
 62
7
100
AcDbSpline
 70
8
 71
3
 72
8
 73
4
 74
0
 40
0
 40
0
 40
0
 40
0
 40
1
 40
1
 40
1
 40
1
 10
191.213289
 20
184.570373
 30
0.0
 10
191.213525
 20
185.160017
 30
0.0
 10
190.899089
 20
185.704973
 30
0.0
 10
190.388481
 20
185.999863
 30
0.0
  0
SPLINE
  5
11a
100
AcDbEntity
  8
Layer_1
 62
7
100
AcDbSpline
 70
8
 71
3
 72
8
 73
4
 74
0
 40
0
 40
0
 40
0
 40
0
 40
1
 40
1
 40
1
 40
1
 10
190.388481
 20
185.999863
 30
0.0
 10
189.877872
 20
186.294754
 30
0.0
 10
189.248709
 20
186.294754
 30
0.0
 10
188.738101
 20
185.999863
 30
0.0
  0
SPLINE
  5
11b
100
AcDbEntity
  8
Layer_1
 62
7
100
AcDbSpline
 70
8
 71
3
 72
8
 73
4
 74
0
 40
0
 40
0
 40
0
 40
0
 40
1
 40
1
 40
1
 40
1
 10
188.738101
 20
185.999863
 30
0.0
 10
188.227493
 20
185.704973
 30
0.0
 10
187.913057
 20
185.160017
 30
0.0
 10
187.913293
 20
184.570373
 30
0.0
  0
SPLINE
  5
11c
100
AcDbEntity
  8
Layer_1
 62
7
100
AcDbSpline
 70
8
 71
3
 72
8
 73
4
 74
0
 40
0
 40
0
 40
0
 40
0
 40
1
 40
1
 40
1
 40
1
 10
187.913293
 20
184.570373
 30
0.0
 10
187.913057
 20
183.980728
 30
0.0
 10
188.227493
 20
183.435772
 30
0.0
 10
188.738101
 20
183.140882
 30
0.0
  0
SPLINE
  5
11d
100
AcDbEntity
  8
Layer_1
 62
7
100
AcDbSpline
 70
8
 71
3
 72
8
 73
4
 74
0
 40
0
 40
0
 40
0
 40
0
 40
1
 40
1
 40
1
 40
1
 10
188.738101
 20
183.140882
 30
0.0
 10
189.248709
 20
182.845991
 30
0.0
 10
189.877872
 20
182.845991
 30
0.0
 10
190.388481
 20
183.140882
 30
0.0
  0
SPLINE
  5
11e
100
AcDbEntity
  8
Layer_1
 62
7
100
AcDbSpline
 70
8
 71
3
 72
8
 73
4
 74
0
 40
0
 40
0
 40
0
 40
0
 40
1
 40
1
 40
1
 40
1
 10
190.388481
 20
183.140882
 30
0.0
 10
190.899089
 20
183.435772
 30
0.0
 10
191.213525
 20
183.980728
 30
0.0
 10
191.213289
 20
184.570373
 30
0.0
  0
LINE
  5
11f
100
AcDbEntity
  8
Layer_1
 62
7
100
AcDbLine
 10
191.213289
 20
184.570373
 30
0.0
 11
191.213289
 21
184.570373
 31
0.0
  0
SPLINE
  5
120
100
AcDbEntity
  8
Layer_1
 62
7
100
AcDbSpline
 70
8
 71
3
 72
8
 73
4
 74
0
 40
0
 40
0
 40
0
 40
0
 40
1
 40
1
 40
1
 40
1
 10
74.313436
 20
204.832271
 30
0.0
 10
74.313988
 20
205.636485
 30
0.0
 10
73.885262
 20
206.379845
 30
0.0
 10
73.188884
 20
206.782112
 30
0.0
  0
SPLINE
  5
121
100
AcDbEntity
  8
Layer_1
 62
7
100
AcDbSpline
 70
8
 71
3
 72
8
 73
4
 74
0
 40
0
 40
0
 40
0
 40
0
 40
1
 40
1
 40
1
 40
1
 10
73.188884
 20
206.782112
 30
0.0
 10
72.492506
 20
207.184378
 30
0.0
 10
71.634374
 20
207.184378
 30
0.0
 10
70.937996
 20
206.782112
 30
0.0
  0
SPLINE
  5
122
100
AcDbEntity
  8
Layer_1
 62
7
100
AcDbSpline
 70
8
 71
3
 72
8
 73
4
 74
0
 40
0
 40
0
 40
0
 40
0
 40
1
 40
1
 40
1
 40
1
 10
70.937996
 20
206.782112
 30
0.0
 10
70.241618
 20
206.379845
 30
0.0
 10
69.812892
 20
205.636485
 30
0.0
 10
69.813443
 20
204.832271
 30
0.0
  0
SPLINE
  5
123
100
AcDbEntity
  8
Layer_1
 62
7
100
AcDbSpline
 70
8
 71
3
 72
8
 73
4
 74
0
 40
0
 40
0
 40
0
 40
0
 40
1
 40
1
 40
1
 40
1
 10
69.813443
 20
204.832271
 30
0.0
 10
69.812892
 20
204.028057
 30
0.0
 10
70.241618
 20
203.284697
 30
0.0
 10
70.937996
 20
202.882430
 30
0.0
  0
SPLINE
  5
124
100
AcDbEntity
  8
Layer_1
 62
7
100
AcDbSpline
 70
8
 71
3
 72
8
 73
4
 74
0
 40
0
 40
0
 40
0
 40
0
 40
1
 40
1
 40
1
 40
1
 10
70.937996
 20
202.882430
 30
0.0
 10
71.634374
 20
202.480164
 30
0.0
 10
72.492506
 20
202.480164
 30
0.0
 10
73.188884
 20
202.882430
 30
0.0
  0
SPLINE
  5
125
100
AcDbEntity
  8
Layer_1
 62
7
100
AcDbSpline
 70
8
 71
3
 72
8
 73
4
 74
0
 40
0
 40
0
 40
0
 40
0
 40
1
 40
1
 40
1
 40
1
 10
73.188884
 20
202.882430
 30
0.0
 10
73.885262
 20
203.284697
 30
0.0
 10
74.313988
 20
204.028057
 30
0.0
 10
74.313436
 20
204.832271
 30
0.0
  0
LINE
  5
126
100
AcDbEntity
  8
Layer_1
 62
7
100
AcDbLine
 10
74.313436
 20
204.832271
 30
0.0
 11
74.313436
 21
204.832271
 31
0.0
  0
SPLINE
  5
127
100
AcDbEntity
  8
Layer_1
 62
7
100
AcDbSpline
 70
8
 71
3
 72
8
 73
4
 74
0
 40
0
 40
0
 40
0
 40
0
 40
1
 40
1
 40
1
 40
1
 10
112.880055
 20
184.570373
 30
0.0
 10
112.880291
 20
185.160017
 30
0.0
 10
112.565854
 20
185.704973
 30
0.0
 10
112.055246
 20
185.999863
 30
0.0
  0
SPLINE
  5
128
100
AcDbEntity
  8
Layer_1
 62
7
100
AcDbSpline
 70
8
 71
3
 72
8
 73
4
 74
0
 40
0
 40
0
 40
0
 40
0
 40
1
 40
1
 40
1
 40
1
 10
112.055246
 20
185.999863
 30
0.0
 10
111.544638
 20
186.294754
 30
0.0
 10
110.915475
 20
186.294754
 30
0.0
 10
110.404867
 20
185.999863
 30
0.0
  0
SPLINE
  5
129
100
AcDbEntity
  8
Layer_1
 62
7
100
AcDbSpline
 70
8
 71
3
 72
8
 73
4
 74
0
 40
0
 40
0
 40
0
 40
0
 40
1
 40
1
 40
1
 40
1
 10
110.404867
 20
185.999863
 30
0.0
 10
109.894259
 20
185.704973
 30
0.0
 10
109.579823
 20
185.160017
 30
0.0
 10
109.580059
 20
184.570373
 30
0.0
  0
SPLINE
  5
12a
100
AcDbEntity
  8
Layer_1
 62
7
100
AcDbSpline
 70
8
 71
3
 72
8
 73
4
 74
0
 40
0
 40
0
 40
0
 40
0
 40
1
 40
1
 40
1
 40
1
 10
109.580059
 20
184.570373
 30
0.0
 10
109.579823
 20
183.980728
 30
0.0
 10
109.894259
 20
183.435772
 30
0.0
 10
110.404867
 20
183.140882
 30
0.0
  0
SPLINE
  5
12b
100
AcDbEntity
  8
Layer_1
 62
7
100
AcDbSpline
 70
8
 71
3
 72
8
 73
4
 74
0
 40
0
 40
0
 40
0
 40
0
 40
1
 40
1
 40
1
 40
1
 10
110.404867
 20
183.140882
 30
0.0
 10
110.915475
 20
182.845991
 30
0.0
 10
111.544638
 20
182.845991
 30
0.0
 10
112.055246
 20
183.140882
 30
0.0
  0
SPLINE
  5
12c
100
AcDbEntity
  8
Layer_1
 62
7
100
AcDbSpline
 70
8
 71
3
 72
8
 73
4
 74
0
 40
0
 40
0
 40
0
 40
0
 40
1
 40
1
 40
1
 40
1
 10
112.055246
 20
183.140882
 30
0.0
 10
112.565854
 20
183.435772
 30
0.0
 10
112.880291
 20
183.980728
 30
0.0
 10
112.880055
 20
184.570373
 30
0.0
  0
LINE
  5
12d
100
AcDbEntity
  8
Layer_1
 62
7
100
AcDbLine
 10
112.880055
 20
184.570373
 30
0.0
 11
112.880055
 21
184.570373
 31
0.0
  0
SPLINE
  5
12e
100
AcDbEntity
  8
Layer_1
 62
7
100
AcDbSpline
 70
8
 71
3
 72
8
 73
4
 74
0
 40
0
 40
0
 40
0
 40
0
 40
1
 40
1
 40
1
 40
1
 10
-43.786415
 20
184.570373
 30
0.0
 10
-43.786415
 20
185.159860
 30
0.0
 10
-44.100903
 20
185.704569
 30
0.0
 10
-44.611414
 20
185.999313
 30
0.0
  0
SPLINE
  5
12f
100
AcDbEntity
  8
Layer_1
 62
7
100
AcDbSpline
 70
8
 71
3
 72
8
 73
4
 74
0
 40
0
 40
0
 40
0
 40
0
 40
1
 40
1
 40
1
 40
1
 10
-44.611414
 20
185.999313
 30
0.0
 10
-45.121925
 20
186.294056
 30
0.0
 10
-45.750900
 20
186.294056
 30
0.0
 10
-46.261412
 20
185.999313
 30
0.0
  0
SPLINE
  5
130
100
AcDbEntity
  8
Layer_1
 62
7
100
AcDbSpline
 70
8
 71
3
 72
8
 73
4
 74
0
 40
0
 40
0
 40
0
 40
0
 40
1
 40
1
 40
1
 40
1
 10
-46.261412
 20
185.999313
 30
0.0
 10
-46.771923
 20
185.704569
 30
0.0
 10
-47.086411
 20
185.159860
 30
0.0
 10
-47.086411
 20
184.570373
 30
0.0
  0
SPLINE
  5
131
100
AcDbEntity
  8
Layer_1
 62
7
100
AcDbSpline
 70
8
 71
3
 72
8
 73
4
 74
0
 40
0
 40
0
 40
0
 40
0
 40
1
 40
1
 40
1
 40
1
 10
-47.086411
 20
184.570373
 30
0.0
 10
-47.086411
 20
183.980885
 30
0.0
 10
-46.771923
 20
183.436176
 30
0.0
 10
-46.261412
 20
183.141433
 30
0.0
  0
SPLINE
  5
132
100
AcDbEntity
  8
Layer_1
 62
7
100
AcDbSpline
 70
8
 71
3
 72
8
 73
4
 74
0
 40
0
 40
0
 40
0
 40
0
 40
1
 40
1
 40
1
 40
1
 10
-46.261412
 20
183.141433
 30
0.0
 10
-45.750900
 20
182.846689
 30
0.0
 10
-45.121925
 20
182.846689
 30
0.0
 10
-44.611414
 20
183.141433
 30
0.0
  0
SPLINE
  5
133
100
AcDbEntity
  8
Layer_1
 62
7
100
AcDbSpline
 70
8
 71
3
 72
8
 73
4
 74
0
 40
0
 40
0
 40
0
 40
0
 40
1
 40
1
 40
1
 40
1
 10
-44.611414
 20
183.141433
 30
0.0
 10
-44.100903
 20
183.436176
 30
0.0
 10
-43.786415
 20
183.980885
 30
0.0
 10
-43.786415
 20
184.570373
 30
0.0
  0
LINE
  5
134
100
AcDbEntity
  8
Layer_1
 62
7
100
AcDbLine
 10
-43.786415
 20
184.570373
 30
0.0
 11
-43.786415
 21
184.570373
 31
0.0
  0
ENDSEC
  0
SECTION
  2
OBJECTS
  0
DICTIONARY
  5
C
330
0
100
AcDbDictionary
  3
ACAD_GROUP
350
D
  3
ACAD_MLINESTYLE
350
17
  0
DICTIONARY
  5
D
330
C
100
AcDbDictionary
  0
DICTIONARY
  5
1A
330
C
100
AcDbDictionary
  0
DICTIONARY
  5
17
330
C
100
AcDbDictionary
  3
STANDARD
350
18
  0
DICTIONARY
  5
19
330
C
100
AcDbDictionary
  0
ENDSEC
  0
EOF
