  0
SECTION
  2
HEADER
  9
$ACADVER
  1
AC1014
  9
$HANDSEED
  5
FFFF
  9
$MEASUREMENT
 70
     1
  0
ENDSEC
  0
SECTION
  2
TABLES
  0
TABLE
  2
VPORT
  5
8
330
0
100
AcDbSymbolTable
 70
     4
  0
VPORT
  5
2E
330
8
100
AcDbSymbolTableRecord
100
AcDbViewportTableRecord
  2
*ACTIVE
 70
     0
 10
0.0
 20
0.0
 11
1.0
 21
1.0
 12
210.0
 22
148.5
 13
0.0
 23
0.0
 14
10.0
 24
10.0
 15
10.0
 25
10.0
 16
0.0
 26
0.0
 36
1.0
 17
0.0
 27
0.0
 37
0.0
 40
341.0
 41
1.24
 42
50.0
 43
0.0
 44
0.0
 50
0.0
 51
0.0
 71
     0
 72
   100
 73
     1
 74
     3
 75
     0
 76
     0
 77
     0
 78
     0
  0
ENDTAB
  0
TABLE
  2
LTYPE
  5
5
330
0
100
AcDbSymbolTable
 70
     1
  0
LTYPE
  5
14
330
5
100
AcDbSymbolTableRecord
100
AcDbLinetypeTableRecord
  2
BYBLOCK
 70
     0
  3

 72
    65
 73
     0
 40
0.0
  0
LTYPE
  5
15
330
5
100
AcDbSymbolTableRecord
100
AcDbLinetypeTableRecord
  2
BYLAYER
 70
     0
  3

 72
    65
 73
     0
 40
0.0
  0
LTYPE
  5
16
330
5
100
AcDbSymbolTableRecord
100
AcDbLinetypeTableRecord
  2
CONTINUOUS
 70
     0
  3
Solid line
 72
    65
 73
     0
 40
0.0
  0
ENDTAB
  0
TABLE
  2
LAYER
  5
2
100
AcDbSymbolTable
 70
2
  0
LAYER
  5
50
100
AcDbSymbolTableRecord
100
AcDbLayerTableRecord
  2
0
 70
0
  6
CONTINUOUS
  0
LAYER
  5
51
100
AcDbSymbolTableRecord
100
AcDbLayerTableRecord
  2
Layer_1
 70
0
  6
CONTINUOUS
  0
ENDTAB
  0
TABLE
  2
STYLE
  5
3
330
0
100
AcDbSymbolTable
 70
     1
  0
STYLE
  5
11
330
3
100
AcDbSymbolTableRecord
100
AcDbTextStyleTableRecord
  2
STANDARD
 70
     0
 40
0.0
 41
1.0
 50
0.0
 71
     0
 42
2.5
  3
txt
  4

  0
ENDTAB
  0
TABLE
  2
VIEW
  5
6
330
0
100
AcDbSymbolTable
 70
     0
  0
ENDTAB
  0
TABLE
  2
UCS
  5
7
330
0
100
AcDbSymbolTable
 70
     0
  0
ENDTAB
  0
TABLE
  2
APPID
  5
9
330
0
100
AcDbSymbolTable
 70
     2
  0
APPID
  5
12
330
9
100
AcDbSymbolTableRecord
100
AcDbRegAppTableRecord
  2
ACAD
 70
     0
  0
ENDTAB
  0
TABLE
  2
DIMSTYLE
  5
A
330
0
100
AcDbSymbolTable
 70
     1
  0
DIMSTYLE
105
27
330
A
100
AcDbSymbolTableRecord
100
AcDbDimStyleTableRecord
  2
ISO-25
 70
     0
  3

  4

  5

  6

  7

 40
1.0
 41
2.5
 42
0.625
 43
3.75
 44
1.25
 45
0.0
 46
0.0
 47
0.0
 48
0.0
140
2.5
141
2.5
142
0.0
143
0.03937007874016
144
1.0
145
0.0
146
1.0
147
0.625
 71
     0
 72
     0
 73
     0
 74
     0
 75
     0
 76
     0
 77
     1
 78
     8
170
     0
171
     3
172
     1
173
     0
174
     0
175
     0
176
     0
177
     0
178
     0
270
     2
271
     2
272
     2
273
     2
274
     3
340
11
275
     0
280
     0
281
     0
282
     0
283
     0
284
     8
285
     0
286
     0
287
     3
288
     0
  0
ENDTAB
  0
TABLE
  2
BLOCK_RECORD
  5
1
330
0
100
AcDbSymbolTable
 70
     1
  0
BLOCK_RECORD
  5
1F
330
1
100
AcDbSymbolTableRecord
100
AcDbBlockTableRecord
  2
*MODEL_SPACE
  0
BLOCK_RECORD
  5
1B
330
1
100
AcDbSymbolTableRecord
100
AcDbBlockTableRecord
  2
*PAPER_SPACE
  0
ENDTAB
  0
ENDSEC
  0
SECTION
  2
BLOCKS
  0
BLOCK
  5
20
330
1F
100
AcDbEntity
  8
0
100
AcDbBlockBegin
  2
*MODEL_SPACE
 70
     0
 10
0.0
 20
0.0
 30
0.0
  3
*MODEL_SPACE
  1

  0
ENDBLK
  5
21
330
1F
100
AcDbEntity
  8
0
100
AcDbBlockEnd
  0
BLOCK
  5
1C
330
1B
100
AcDbEntity
 67
     1
  8
0
100
AcDbBlockBegin
  2
*PAPER_SPACE
  1

  0
ENDBLK
  5
1D
330
1B
100
AcDbEntity
 67
     1
  8
0
100
AcDbBlockEnd
  0
ENDSEC
  0
SECTION
  2
ENTITIES
  0
LINE
  5
100
100
AcDbEntity
  8
Layer_1
 62
7
100
AcDbLine
 10
44.742404
 20
277.974671
 30
0.0
 11
44.742404
 21
265.212660
 31
0.0
  0
LINE
  5
101
100
AcDbEntity
  8
Layer_1
 62
7
100
AcDbLine
 10
44.742404
 20
265.212660
 30
0.0
 11
43.742474
 21
265.212660
 31
0.0
  0
LINE
  5
102
100
AcDbEntity
  8
Layer_1
 62
7
100
AcDbLine
 10
43.742474
 20
265.212660
 30
0.0
 11
43.742474
 21
265.712888
 31
0.0
  0
LINE
  5
103
100
AcDbEntity
  8
Layer_1
 62
7
100
AcDbLine
 10
43.742474
 20
265.712888
 30
0.0
 11
28.743384
 21
265.712888
 31
0.0
  0
LINE
  5
104
100
AcDbEntity
  8
Layer_1
 62
7
100
AcDbLine
 10
28.743384
 20
265.712888
 30
0.0
 11
28.743384
 21
249.712830
 31
0.0
  0
LINE
  5
105
100
AcDbEntity
  8
Layer_1
 62
7
100
AcDbLine
 10
28.743384
 20
249.712830
 30
0.0
 11
29.034324
 21
249.712830
 31
0.0
  0
LINE
  5
106
100
AcDbEntity
  8
Layer_1
 62
7
100
AcDbLine
 10
29.034324
 20
249.712830
 30
0.0
 11
29.034324
 21
247.450953
 31
0.0
  0
LINE
  5
107
100
AcDbEntity
  8
Layer_1
 62
7
100
AcDbLine
 10
29.034324
 20
247.450953
 30
0.0
 11
26.772444
 21
247.450953
 31
0.0
  0
LINE
  5
108
100
AcDbEntity
  8
Layer_1
 62
7
100
AcDbLine
 10
26.772444
 20
247.450953
 30
0.0
 11
26.772444
 21
247.743958
 31
0.0
  0
LINE
  5
109
100
AcDbEntity
  8
Layer_1
 62
7
100
AcDbLine
 10
26.772444
 20
247.743958
 30
0.0
 11
10.772904
 21
247.743958
 31
0.0
  0
LINE
  5
10a
100
AcDbEntity
  8
Layer_1
 62
7
100
AcDbLine
 10
10.772904
 20
247.743958
 30
0.0
 11
10.772904
 21
39.908580
 31
0.0
  0
LINE
  5
10b
100
AcDbEntity
  8
Layer_1
 62
7
100
AcDbLine
 10
10.772904
 20
39.908580
 30
0.0
 11
26.772444
 21
39.908580
 31
0.0
  0
LINE
  5
10c
100
AcDbEntity
  8
Layer_1
 62
7
100
AcDbLine
 10
26.772444
 20
39.908580
 30
0.0
 11
26.772444
 21
40.201590
 31
0.0
  0
LINE
  5
10d
100
AcDbEntity
  8
Layer_1
 62
7
100
AcDbLine
 10
26.772444
 20
40.201590
 30
0.0
 11
29.034324
 21
40.201590
 31
0.0
  0
LINE
  5
10e
100
AcDbEntity
  8
Layer_1
 62
7
100
AcDbLine
 10
29.034324
 20
40.201590
 30
0.0
 11
29.034324
 21
37.939710
 31
0.0
  0
LINE
  5
10f
100
AcDbEntity
  8
Layer_1
 62
7
100
AcDbLine
 10
29.034324
 20
37.939710
 30
0.0
 11
28.743384
 21
37.939710
 31
0.0
  0
LINE
  5
110
100
AcDbEntity
  8
Layer_1
 62
7
100
AcDbLine
 10
28.743384
 20
37.939710
 30
0.0
 11
28.743384
 21
21.939650
 31
0.0
  0
LINE
  5
111
100
AcDbEntity
  8
Layer_1
 62
7
100
AcDbLine
 10
28.743384
 20
21.939650
 30
0.0
 11
485.327400
 21
21.939650
 31
0.0
  0
LINE
  5
112
100
AcDbEntity
  8
Layer_1
 62
7
100
AcDbLine
 10
485.327400
 20
21.939650
 30
0.0
 11
485.327400
 21
37.939710
 31
0.0
  0
LINE
  5
113
100
AcDbEntity
  8
Layer_1
 62
7
100
AcDbLine
 10
485.327400
 20
37.939710
 30
0.0
 11
485.034390
 21
37.939710
 31
0.0
  0
LINE
  5
114
100
AcDbEntity
  8
Layer_1
 62
7
100
AcDbLine
 10
485.034390
 20
37.939710
 30
0.0
 11
485.034390
 21
40.201590
 31
0.0
  0
LINE
  5
115
100
AcDbEntity
  8
Layer_1
 62
7
100
AcDbLine
 10
485.034390
 20
40.201590
 30
0.0
 11
487.296270
 21
40.201590
 31
0.0
  0
LINE
  5
116
100
AcDbEntity
  8
Layer_1
 62
7
100
AcDbLine
 10
487.296270
 20
40.201590
 30
0.0
 11
487.296270
 21
39.908580
 31
0.0
  0
LINE
  5
117
100
AcDbEntity
  8
Layer_1
 62
7
100
AcDbLine
 10
487.296270
 20
39.908580
 30
0.0
 11
503.296330
 21
39.791280
 31
0.0
  0
LINE
  5
118
100
AcDbEntity
  8
Layer_1
 62
7
100
AcDbLine
 10
503.296330
 20
39.791280
 30
0.0
 11
503.296330
 21
247.860747
 31
0.0
  0
LINE
  5
119
100
AcDbEntity
  8
Layer_1
 62
7
100
AcDbLine
 10
503.296330
 20
247.860747
 30
0.0
 11
487.296270
 21
247.743958
 31
0.0
  0
LINE
  5
11a
100
AcDbEntity
  8
Layer_1
 62
7
100
AcDbLine
 10
487.296270
 20
247.743958
 30
0.0
 11
487.296270
 21
247.450953
 31
0.0
  0
LINE
  5
11b
100
AcDbEntity
  8
Layer_1
 62
7
100
AcDbLine
 10
487.296270
 20
247.450953
 30
0.0
 11
485.034390
 21
247.450953
 31
0.0
  0
LINE
  5
11c
100
AcDbEntity
  8
Layer_1
 62
7
100
AcDbLine
 10
485.034390
 20
247.450953
 30
0.0
 11
485.034390
 21
249.712830
 31
0.0
  0
LINE
  5
11d
100
AcDbEntity
  8
Layer_1
 62
7
100
AcDbLine
 10
485.034390
 20
249.712830
 30
0.0
 11
485.327400
 21
249.712830
 31
0.0
  0
LINE
  5
11e
100
AcDbEntity
  8
Layer_1
 62
7
100
AcDbLine
 10
485.327400
 20
249.712830
 30
0.0
 11
485.327400
 21
265.712888
 31
0.0
  0
LINE
  5
11f
100
AcDbEntity
  8
Layer_1
 62
7
100
AcDbLine
 10
485.327400
 20
265.712888
 30
0.0
 11
470.327280
 21
265.712888
 31
0.0
  0
LINE
  5
120
100
AcDbEntity
  8
Layer_1
 62
7
100
AcDbLine
 10
470.327280
 20
265.712888
 30
0.0
 11
470.327280
 21
265.212660
 31
0.0
  0
LINE
  5
121
100
AcDbEntity
  8
Layer_1
 62
7
100
AcDbLine
 10
470.327280
 20
265.212660
 30
0.0
 11
469.327340
 21
265.212660
 31
0.0
  0
LINE
  5
122
100
AcDbEntity
  8
Layer_1
 62
7
100
AcDbLine
 10
469.327340
 20
265.212660
 30
0.0
 11
469.327340
 21
277.974671
 31
0.0
  0
LINE
  5
123
100
AcDbEntity
  8
Layer_1
 62
7
100
AcDbLine
 10
469.327340
 20
277.974671
 30
0.0
 11
428.741700
 21
277.974671
 31
0.0
  0
LINE
  5
124
100
AcDbEntity
  8
Layer_1
 62
7
100
AcDbLine
 10
428.741700
 20
277.974671
 30
0.0
 11
428.741700
 21
265.212660
 31
0.0
  0
LINE
  5
125
100
AcDbEntity
  8
Layer_1
 62
7
100
AcDbLine
 10
428.741700
 20
265.212660
 30
0.0
 11
427.741770
 21
265.212660
 31
0.0
  0
LINE
  5
126
100
AcDbEntity
  8
Layer_1
 62
7
100
AcDbLine
 10
427.741770
 20
265.212660
 30
0.0
 11
427.741770
 21
265.712888
 31
0.0
  0
LINE
  5
127
100
AcDbEntity
  8
Layer_1
 62
7
100
AcDbLine
 10
427.741770
 20
265.712888
 30
0.0
 11
86.327984
 21
265.712888
 31
0.0
  0
LINE
  5
128
100
AcDbEntity
  8
Layer_1
 62
7
100
AcDbLine
 10
86.327984
 20
265.712888
 30
0.0
 11
86.327984
 21
265.212660
 31
0.0
  0
LINE
  5
129
100
AcDbEntity
  8
Layer_1
 62
7
100
AcDbLine
 10
86.327984
 20
265.212660
 30
0.0
 11
85.328044
 21
265.212660
 31
0.0
  0
LINE
  5
12a
100
AcDbEntity
  8
Layer_1
 62
7
100
AcDbLine
 10
85.328044
 20
265.212660
 30
0.0
 11
85.328044
 21
277.974671
 31
0.0
  0
LINE
  5
12b
100
AcDbEntity
  8
Layer_1
 62
7
100
AcDbLine
 10
85.328044
 20
277.974671
 30
0.0
 11
44.742404
 21
277.974671
 31
0.0
  0
LINE
  5
12c
100
AcDbEntity
  8
Layer_1
 62
7
100
AcDbLine
 10
86.741914
 20
261.712615
 30
0.0
 11
92.742064
 21
261.712615
 31
0.0
  0
SPLINE
  5
12d
100
AcDbEntity
  8
Layer_1
 62
7
100
AcDbSpline
 70
8
 71
3
 72
8
 73
4
 74
0
 40
0
 40
0
 40
0
 40
0
 40
1
 40
1
 40
1
 40
1
 10
92.742064
 20
261.712615
 30
0.0
 10
94.398894
 20
261.712612
 30
0.0
 10
95.741884
 20
260.369647
 30
0.0
 10
95.741884
 20
258.712798
 30
0.0
  0
SPLINE
  5
12e
100
AcDbEntity
  8
Layer_1
 62
7
100
AcDbSpline
 70
8
 71
3
 72
8
 73
4
 74
0
 40
0
 40
0
 40
0
 40
0
 40
1
 40
1
 40
1
 40
1
 10
95.741884
 20
258.712798
 30
0.0
 10
95.741884
 20
257.055948
 30
0.0
 10
94.398894
 20
255.712981
 30
0.0
 10
92.742064
 20
255.712981
 30
0.0
  0
LINE
  5
12f
100
AcDbEntity
  8
Layer_1
 62
7
100
AcDbLine
 10
92.742064
 20
255.712981
 30
0.0
 11
86.741914
 21
255.712981
 31
0.0
  0
SPLINE
  5
130
100
AcDbEntity
  8
Layer_1
 62
7
100
AcDbSpline
 70
8
 71
3
 72
8
 73
4
 74
0
 40
0
 40
0
 40
0
 40
0
 40
1
 40
1
 40
1
 40
1
 10
86.741914
 20
255.712981
 30
0.0
 10
85.670074
 20
255.712981
 30
0.0
 10
84.680024
 20
256.284430
 30
0.0
 10
84.144134
 20
257.212631
 30
0.0
  0
SPLINE
  5
131
100
AcDbEntity
  8
Layer_1
 62
7
100
AcDbSpline
 70
8
 71
3
 72
8
 73
4
 74
0
 40
0
 40
0
 40
0
 40
0
 40
1
 40
1
 40
1
 40
1
 10
84.144134
 20
257.212631
 30
0.0
 10
83.608234
 20
258.140831
 30
0.0
 10
83.608234
 20
259.284763
 30
0.0
 10
84.144134
 20
260.212964
 30
0.0
  0
SPLINE
  5
132
100
AcDbEntity
  8
Layer_1
 62
7
100
AcDbSpline
 70
8
 71
3
 72
8
 73
4
 74
0
 40
0
 40
0
 40
0
 40
0
 40
1
 40
1
 40
1
 40
1
 10
84.144134
 20
260.212964
 30
0.0
 10
84.680024
 20
261.141165
 30
0.0
 10
85.670074
 20
261.712612
 30
0.0
 10
86.741914
 20
261.712615
 30
0.0
  0
LINE
  5
133
100
AcDbEntity
  8
Layer_1
 62
7
100
AcDbLine
 10
86.741914
 20
261.712615
 30
0.0
 11
86.741914
 21
261.712615
 31
0.0
  0
LINE
  5
134
100
AcDbEntity
  8
Layer_1
 62
7
100
AcDbLine
 10
421.327170
 20
261.712615
 30
0.0
 11
427.327320
 21
261.712615
 31
0.0
  0
SPLINE
  5
135
100
AcDbEntity
  8
Layer_1
 62
7
100
AcDbSpline
 70
8
 71
3
 72
8
 73
4
 74
0
 40
0
 40
0
 40
0
 40
0
 40
1
 40
1
 40
1
 40
1
 10
427.327320
 20
261.712615
 30
0.0
 10
428.399180
 20
261.712612
 30
0.0
 10
429.389710
 20
261.141165
 30
0.0
 10
429.925610
 20
260.212964
 30
0.0
  0
SPLINE
  5
136
100
AcDbEntity
  8
Layer_1
 62
7
100
AcDbSpline
 70
8
 71
3
 72
8
 73
4
 74
0
 40
0
 40
0
 40
0
 40
0
 40
1
 40
1
 40
1
 40
1
 10
429.925610
 20
260.212964
 30
0.0
 10
430.461500
 20
259.284763
 30
0.0
 10
430.461500
 20
258.140831
 30
0.0
 10
429.925610
 20
257.212631
 30
0.0
  0
SPLINE
  5
137
100
AcDbEntity
  8
Layer_1
 62
7
100
AcDbSpline
 70
8
 71
3
 72
8
 73
4
 74
0
 40
0
 40
0
 40
0
 40
0
 40
1
 40
1
 40
1
 40
1
 10
429.925610
 20
257.212631
 30
0.0
 10
429.389710
 20
256.284430
 30
0.0
 10
428.399180
 20
255.712981
 30
0.0
 10
427.327320
 20
255.712981
 30
0.0
  0
LINE
  5
138
100
AcDbEntity
  8
Layer_1
 62
7
100
AcDbLine
 10
427.327320
 20
255.712981
 30
0.0
 11
421.327170
 21
255.712981
 31
0.0
  0
SPLINE
  5
139
100
AcDbEntity
  8
Layer_1
 62
7
100
AcDbSpline
 70
8
 71
3
 72
8
 73
4
 74
0
 40
0
 40
0
 40
0
 40
0
 40
1
 40
1
 40
1
 40
1
 10
421.327170
 20
255.712981
 30
0.0
 10
419.670360
 20
255.712981
 30
0.0
 10
418.327350
 20
257.055948
 30
0.0
 10
418.327350
 20
258.712798
 30
0.0
  0
SPLINE
  5
13a
100
AcDbEntity
  8
Layer_1
 62
7
100
AcDbSpline
 70
8
 71
3
 72
8
 73
4
 74
0
 40
0
 40
0
 40
0
 40
0
 40
1
 40
1
 40
1
 40
1
 10
418.327350
 20
258.712798
 30
0.0
 10
418.327350
 20
260.369647
 30
0.0
 10
419.670360
 20
261.712612
 30
0.0
 10
421.327170
 20
261.712615
 30
0.0
  0
LINE
  5
13b
100
AcDbEntity
  8
Layer_1
 62
7
100
AcDbLine
 10
421.327170
 20
261.712615
 30
0.0
 11
421.327170
 21
261.712615
 31
0.0
  0
LINE
  5
13c
100
AcDbEntity
  8
Layer_1
 62
7
100
AcDbLine
 10
104.534620
 20
226.962798
 30
0.0
 11
169.534790
 21
226.962798
 31
0.0
  0
LINE
  5
13d
100
AcDbEntity
  8
Layer_1
 62
7
100
AcDbLine
 10
169.534790
 20
226.962798
 30
0.0
 11
194.534810
 21
201.962773
 31
0.0
  0
LINE
  5
13e
100
AcDbEntity
  8
Layer_1
 62
7
100
AcDbLine
 10
194.534810
 20
201.962773
 30
0.0
 11
194.534810
 21
136.963120
 31
0.0
  0
LINE
  5
13f
100
AcDbEntity
  8
Layer_1
 62
7
100
AcDbLine
 10
194.534810
 20
136.963120
 30
0.0
 11
169.534790
 21
111.963100
 31
0.0
  0
LINE
  5
140
100
AcDbEntity
  8
Layer_1
 62
7
100
AcDbLine
 10
169.534790
 20
111.963100
 30
0.0
 11
104.534620
 21
111.963100
 31
0.0
  0
LINE
  5
141
100
AcDbEntity
  8
Layer_1
 62
7
100
AcDbLine
 10
104.534620
 20
111.963100
 30
0.0
 11
79.535114
 21
136.963120
 31
0.0
  0
LINE
  5
142
100
AcDbEntity
  8
Layer_1
 62
7
100
AcDbLine
 10
79.535114
 20
136.963120
 30
0.0
 11
79.535114
 21
201.962773
 31
0.0
  0
LINE
  5
143
100
AcDbEntity
  8
Layer_1
 62
7
100
AcDbLine
 10
79.535114
 20
201.962773
 30
0.0
 11
104.534620
 21
226.962798
 31
0.0
  0
LINE
  5
144
100
AcDbEntity
  8
Layer_1
 62
7
100
AcDbLine
 10
224.534530
 20
226.962798
 30
0.0
 11
289.534700
 21
226.962798
 31
0.0
  0
LINE
  5
145
100
AcDbEntity
  8
Layer_1
 62
7
100
AcDbLine
 10
289.534700
 20
226.962798
 30
0.0
 11
314.534720
 21
201.962773
 31
0.0
  0
LINE
  5
146
100
AcDbEntity
  8
Layer_1
 62
7
100
AcDbLine
 10
314.534720
 20
201.962773
 30
0.0
 11
314.534720
 21
136.963120
 31
0.0
  0
LINE
  5
147
100
AcDbEntity
  8
Layer_1
 62
7
100
AcDbLine
 10
314.534720
 20
136.963120
 30
0.0
 11
289.534700
 21
111.963100
 31
0.0
  0
LINE
  5
148
100
AcDbEntity
  8
Layer_1
 62
7
100
AcDbLine
 10
289.534700
 20
111.963100
 30
0.0
 11
224.534530
 21
111.963100
 31
0.0
  0
LINE
  5
149
100
AcDbEntity
  8
Layer_1
 62
7
100
AcDbLine
 10
224.534530
 20
111.963100
 30
0.0
 11
199.535020
 21
136.963120
 31
0.0
  0
LINE
  5
14a
100
AcDbEntity
  8
Layer_1
 62
7
100
AcDbLine
 10
199.535020
 20
136.963120
 30
0.0
 11
199.535020
 21
201.962773
 31
0.0
  0
LINE
  5
14b
100
AcDbEntity
  8
Layer_1
 62
7
100
AcDbLine
 10
199.535020
 20
201.962773
 30
0.0
 11
224.534530
 21
226.962798
 31
0.0
  0
LINE
  5
14c
100
AcDbEntity
  8
Layer_1
 62
7
100
AcDbLine
 10
344.534440
 20
226.962798
 30
0.0
 11
409.534610
 21
226.962798
 31
0.0
  0
LINE
  5
14d
100
AcDbEntity
  8
Layer_1
 62
7
100
AcDbLine
 10
409.534610
 20
226.962798
 30
0.0
 11
434.534630
 21
201.962773
 31
0.0
  0
LINE
  5
14e
100
AcDbEntity
  8
Layer_1
 62
7
100
AcDbLine
 10
434.534630
 20
201.962773
 30
0.0
 11
434.534630
 21
136.963120
 31
0.0
  0
LINE
  5
14f
100
AcDbEntity
  8
Layer_1
 62
7
100
AcDbLine
 10
434.534630
 20
136.963120
 30
0.0
 11
409.534610
 21
111.963100
 31
0.0
  0
LINE
  5
150
100
AcDbEntity
  8
Layer_1
 62
7
100
AcDbLine
 10
409.534610
 20
111.963100
 30
0.0
 11
344.534440
 21
111.963100
 31
0.0
  0
LINE
  5
151
100
AcDbEntity
  8
Layer_1
 62
7
100
AcDbLine
 10
344.534440
 20
111.963100
 30
0.0
 11
319.534930
 21
136.963120
 31
0.0
  0
LINE
  5
152
100
AcDbEntity
  8
Layer_1
 62
7
100
AcDbLine
 10
319.534930
 20
136.963120
 30
0.0
 11
319.534930
 21
201.962773
 31
0.0
  0
LINE
  5
153
100
AcDbEntity
  8
Layer_1
 62
7
100
AcDbLine
 10
319.534930
 20
201.962773
 30
0.0
 11
344.534440
 21
226.962798
 31
0.0
  0
LINE
  5
154
100
AcDbEntity
  8
Layer_1
 62
7
100
AcDbLine
 10
83.035164
 20
224.112842
 30
0.0
 11
86.034974
 21
224.112842
 31
0.0
  0
SPLINE
  5
155
100
AcDbEntity
  8
Layer_1
 62
7
100
AcDbSpline
 70
8
 71
3
 72
8
 73
4
 74
0
 40
0
 40
0
 40
0
 40
0
 40
1
 40
1
 40
1
 40
1
 10
86.034974
 20
224.112842
 30
0.0
 10
86.803114
 20
224.112879
 30
0.0
 10
87.512824
 20
223.703182
 30
0.0
 10
87.896884
 20
223.037973
 30
0.0
  0
SPLINE
  5
156
100
AcDbEntity
  8
Layer_1
 62
7
100
AcDbSpline
 70
8
 71
3
 72
8
 73
4
 74
0
 40
0
 40
0
 40
0
 40
0
 40
1
 40
1
 40
1
 40
1
 10
87.896884
 20
223.037973
 30
0.0
 10
88.280944
 20
222.372760
 30
0.0
 10
88.280944
 20
221.552929
 30
0.0
 10
87.896884
 20
220.887716
 30
0.0
  0
SPLINE
  5
157
100
AcDbEntity
  8
Layer_1
 62
7
100
AcDbSpline
 70
8
 71
3
 72
8
 73
4
 74
0
 40
0
 40
0
 40
0
 40
0
 40
1
 40
1
 40
1
 40
1
 10
87.896884
 20
220.887716
 30
0.0
 10
87.512824
 20
220.222507
 30
0.0
 10
86.803114
 20
219.812889
 30
0.0
 10
86.034974
 20
219.812846
 30
0.0
  0
LINE
  5
158
100
AcDbEntity
  8
Layer_1
 62
7
100
AcDbLine
 10
86.034974
 20
219.812846
 30
0.0
 11
83.035164
 21
219.812846
 31
0.0
  0
SPLINE
  5
159
100
AcDbEntity
  8
Layer_1
 62
7
100
AcDbSpline
 70
8
 71
3
 72
8
 73
4
 74
0
 40
0
 40
0
 40
0
 40
0
 40
1
 40
1
 40
1
 40
1
 10
83.035164
 20
219.812846
 30
0.0
 10
81.847694
 20
219.812889
 30
0.0
 10
80.884904
 20
220.775177
 30
0.0
 10
80.884904
 20
221.962586
 30
0.0
  0
SPLINE
  5
15a
100
AcDbEntity
  8
Layer_1
 62
7
100
AcDbSpline
 70
8
 71
3
 72
8
 73
4
 74
0
 40
0
 40
0
 40
0
 40
0
 40
1
 40
1
 40
1
 40
1
 10
80.884904
 20
221.962586
 30
0.0
 10
80.884904
 20
223.149995
 30
0.0
 10
81.847694
 20
224.112879
 30
0.0
 10
83.035164
 20
224.112842
 30
0.0
  0
LINE
  5
15b
100
AcDbEntity
  8
Layer_1
 62
7
100
AcDbLine
 10
83.035164
 20
224.112842
 30
0.0
 11
83.035164
 21
224.112842
 31
0.0
  0
LINE
  5
15c
100
AcDbEntity
  8
Layer_1
 62
7
100
AcDbLine
 10
188.034950
 20
224.112842
 30
0.0
 11
191.034770
 21
224.112842
 31
0.0
  0
SPLINE
  5
15d
100
AcDbEntity
  8
Layer_1
 62
7
100
AcDbSpline
 70
8
 71
3
 72
8
 73
4
 74
0
 40
0
 40
0
 40
0
 40
0
 40
1
 40
1
 40
1
 40
1
 10
191.034770
 20
224.112842
 30
0.0
 10
191.802890
 20
224.112879
 30
0.0
 10
192.512610
 20
223.703182
 30
0.0
 10
192.896670
 20
223.037973
 30
0.0
  0
SPLINE
  5
15e
100
AcDbEntity
  8
Layer_1
 62
7
100
AcDbSpline
 70
8
 71
3
 72
8
 73
4
 74
0
 40
0
 40
0
 40
0
 40
0
 40
1
 40
1
 40
1
 40
1
 10
192.896670
 20
223.037973
 30
0.0
 10
193.280730
 20
222.372760
 30
0.0
 10
193.280730
 20
221.552929
 30
0.0
 10
192.896670
 20
220.887716
 30
0.0
  0
SPLINE
  5
15f
100
AcDbEntity
  8
Layer_1
 62
7
100
AcDbSpline
 70
8
 71
3
 72
8
 73
4
 74
0
 40
0
 40
0
 40
0
 40
0
 40
1
 40
1
 40
1
 40
1
 10
192.896670
 20
220.887716
 30
0.0
 10
192.512610
 20
220.222507
 30
0.0
 10
191.802890
 20
219.812890
 30
0.0
 10
191.034770
 20
219.812846
 30
0.0
  0
LINE
  5
160
100
AcDbEntity
  8
Layer_1
 62
7
100
AcDbLine
 10
191.034770
 20
219.812846
 30
0.0
 11
188.034950
 21
219.812846
 31
0.0
  0
SPLINE
  5
161
100
AcDbEntity
  8
Layer_1
 62
7
100
AcDbSpline
 70
8
 71
3
 72
8
 73
4
 74
0
 40
0
 40
0
 40
0
 40
0
 40
1
 40
1
 40
1
 40
1
 10
188.034950
 20
219.812846
 30
0.0
 10
187.266890
 20
219.812890
 30
0.0
 10
186.557110
 20
220.222507
 30
0.0
 10
186.173050
 20
220.887716
 30
0.0
  0
SPLINE
  5
162
100
AcDbEntity
  8
Layer_1
 62
7
100
AcDbSpline
 70
8
 71
3
 72
8
 73
4
 74
0
 40
0
 40
0
 40
0
 40
0
 40
1
 40
1
 40
1
 40
1
 10
186.173050
 20
220.887716
 30
0.0
 10
185.788990
 20
221.552929
 30
0.0
 10
185.788990
 20
222.372760
 30
0.0
 10
186.173050
 20
223.037973
 30
0.0
  0
SPLINE
  5
163
100
AcDbEntity
  8
Layer_1
 62
7
100
AcDbSpline
 70
8
 71
3
 72
8
 73
4
 74
0
 40
0
 40
0
 40
0
 40
0
 40
1
 40
1
 40
1
 40
1
 10
186.173050
 20
223.037973
 30
0.0
 10
186.557110
 20
223.703182
 30
0.0
 10
187.266890
 20
224.112879
 30
0.0
 10
188.034950
 20
224.112842
 30
0.0
  0
LINE
  5
164
100
AcDbEntity
  8
Layer_1
 62
7
100
AcDbLine
 10
188.034950
 20
224.112842
 30
0.0
 11
188.034950
 21
224.112842
 31
0.0
  0
LINE
  5
165
100
AcDbEntity
  8
Layer_1
 62
7
100
AcDbLine
 10
203.034550
 20
224.112842
 30
0.0
 11
206.034880
 21
224.112842
 31
0.0
  0
SPLINE
  5
166
100
AcDbEntity
  8
Layer_1
 62
7
100
AcDbSpline
 70
8
 71
3
 72
8
 73
4
 74
0
 40
0
 40
0
 40
0
 40
0
 40
1
 40
1
 40
1
 40
1
 10
206.034880
 20
224.112842
 30
0.0
 10
206.802980
 20
224.112879
 30
0.0
 10
207.512730
 20
223.703182
 30
0.0
 10
207.896790
 20
223.037973
 30
0.0
  0
SPLINE
  5
167
100
AcDbEntity
  8
Layer_1
 62
7
100
AcDbSpline
 70
8
 71
3
 72
8
 73
4
 74
0
 40
0
 40
0
 40
0
 40
0
 40
1
 40
1
 40
1
 40
1
 10
207.896790
 20
223.037973
 30
0.0
 10
208.280850
 20
222.372760
 30
0.0
 10
208.280850
 20
221.552929
 30
0.0
 10
207.896790
 20
220.887716
 30
0.0
  0
SPLINE
  5
168
100
AcDbEntity
  8
Layer_1
 62
7
100
AcDbSpline
 70
8
 71
3
 72
8
 73
4
 74
0
 40
0
 40
0
 40
0
 40
0
 40
1
 40
1
 40
1
 40
1
 10
207.896790
 20
220.887716
 30
0.0
 10
207.512730
 20
220.222507
 30
0.0
 10
206.802980
 20
219.812890
 30
0.0
 10
206.034880
 20
219.812846
 30
0.0
  0
LINE
  5
169
100
AcDbEntity
  8
Layer_1
 62
7
100
AcDbLine
 10
206.034880
 20
219.812846
 30
0.0
 11
203.034550
 21
219.812846
 31
0.0
  0
SPLINE
  5
16a
100
AcDbEntity
  8
Layer_1
 62
7
100
AcDbSpline
 70
8
 71
3
 72
8
 73
4
 74
0
 40
0
 40
0
 40
0
 40
0
 40
1
 40
1
 40
1
 40
1
 10
203.034550
 20
219.812846
 30
0.0
 10
202.266470
 20
219.812890
 30
0.0
 10
201.556710
 20
220.222507
 30
0.0
 10
201.172650
 20
220.887716
 30
0.0
  0
SPLINE
  5
16b
100
AcDbEntity
  8
Layer_1
 62
7
100
AcDbSpline
 70
8
 71
3
 72
8
 73
4
 74
0
 40
0
 40
0
 40
0
 40
0
 40
1
 40
1
 40
1
 40
1
 10
201.172650
 20
220.887716
 30
0.0
 10
200.788590
 20
221.552929
 30
0.0
 10
200.788590
 20
222.372760
 30
0.0
 10
201.172650
 20
223.037973
 30
0.0
  0
SPLINE
  5
16c
100
AcDbEntity
  8
Layer_1
 62
7
100
AcDbSpline
 70
8
 71
3
 72
8
 73
4
 74
0
 40
0
 40
0
 40
0
 40
0
 40
1
 40
1
 40
1
 40
1
 10
201.172650
 20
223.037973
 30
0.0
 10
201.556710
 20
223.703182
 30
0.0
 10
202.266470
 20
224.112879
 30
0.0
 10
203.034550
 20
224.112842
 30
0.0
  0
LINE
  5
16d
100
AcDbEntity
  8
Layer_1
 62
7
100
AcDbLine
 10
203.034550
 20
224.112842
 30
0.0
 11
203.034550
 21
224.112842
 31
0.0
  0
LINE
  5
16e
100
AcDbEntity
  8
Layer_1
 62
7
100
AcDbLine
 10
308.034860
 20
224.112842
 30
0.0
 11
311.034680
 21
224.112842
 31
0.0
  0
SPLINE
  5
16f
100
AcDbEntity
  8
Layer_1
 62
7
100
AcDbSpline
 70
8
 71
3
 72
8
 73
4
 74
0
 40
0
 40
0
 40
0
 40
0
 40
1
 40
1
 40
1
 40
1
 10
311.034680
 20
224.112842
 30
0.0
 10
311.802800
 20
224.112879
 30
0.0
 10
312.512520
 20
223.703182
 30
0.0
 10
312.896580
 20
223.037973
 30
0.0
  0
SPLINE
  5
170
100
AcDbEntity
  8
Layer_1
 62
7
100
AcDbSpline
 70
8
 71
3
 72
8
 73
4
 74
0
 40
0
 40
0
 40
0
 40
0
 40
1
 40
1
 40
1
 40
1
 10
312.896580
 20
223.037973
 30
0.0
 10
313.280640
 20
222.372760
 30
0.0
 10
313.280640
 20
221.552929
 30
0.0
 10
312.896580
 20
220.887716
 30
0.0
  0
SPLINE
  5
171
100
AcDbEntity
  8
Layer_1
 62
7
100
AcDbSpline
 70
8
 71
3
 72
8
 73
4
 74
0
 40
0
 40
0
 40
0
 40
0
 40
1
 40
1
 40
1
 40
1
 10
312.896580
 20
220.887716
 30
0.0
 10
312.512520
 20
220.222507
 30
0.0
 10
311.802800
 20
219.812889
 30
0.0
 10
311.034680
 20
219.812846
 30
0.0
  0
LINE
  5
172
100
AcDbEntity
  8
Layer_1
 62
7
100
AcDbLine
 10
311.034680
 20
219.812846
 30
0.0
 11
308.034860
 21
219.812846
 31
0.0
  0
SPLINE
  5
173
100
AcDbEntity
  8
Layer_1
 62
7
100
AcDbSpline
 70
8
 71
3
 72
8
 73
4
 74
0
 40
0
 40
0
 40
0
 40
0
 40
1
 40
1
 40
1
 40
1
 10
308.034860
 20
219.812846
 30
0.0
 10
306.847450
 20
219.812889
 30
0.0
 10
305.884600
 20
220.775177
 30
0.0
 10
305.884600
 20
221.962586
 30
0.0
  0
SPLINE
  5
174
100
AcDbEntity
  8
Layer_1
 62
7
100
AcDbSpline
 70
8
 71
3
 72
8
 73
4
 74
0
 40
0
 40
0
 40
0
 40
0
 40
1
 40
1
 40
1
 40
1
 10
305.884600
 20
221.962586
 30
0.0
 10
305.884600
 20
223.149995
 30
0.0
 10
306.847450
 20
224.112879
 30
0.0
 10
308.034860
 20
224.112842
 30
0.0
  0
LINE
  5
175
100
AcDbEntity
  8
Layer_1
 62
7
100
AcDbLine
 10
308.034860
 20
224.112842
 30
0.0
 11
308.034860
 21
224.112842
 31
0.0
  0
LINE
  5
176
100
AcDbEntity
  8
Layer_1
 62
7
100
AcDbLine
 10
323.034460
 20
224.112842
 30
0.0
 11
326.034800
 21
224.112842
 31
0.0
  0
SPLINE
  5
177
100
AcDbEntity
  8
Layer_1
 62
7
100
AcDbSpline
 70
8
 71
3
 72
8
 73
4
 74
0
 40
0
 40
0
 40
0
 40
0
 40
1
 40
1
 40
1
 40
1
 10
326.034800
 20
224.112842
 30
0.0
 10
327.222210
 20
224.112879
 30
0.0
 10
328.184540
 20
223.149995
 30
0.0
 10
328.184540
 20
221.962586
 30
0.0
  0
SPLINE
  5
178
100
AcDbEntity
  8
Layer_1
 62
7
100
AcDbSpline
 70
8
 71
3
 72
8
 73
4
 74
0
 40
0
 40
0
 40
0
 40
0
 40
1
 40
1
 40
1
 40
1
 10
328.184540
 20
221.962586
 30
0.0
 10
328.184540
 20
220.775177
 30
0.0
 10
327.222210
 20
219.812889
 30
0.0
 10
326.034800
 20
219.812846
 30
0.0
  0
LINE
  5
179
100
AcDbEntity
  8
Layer_1
 62
7
100
AcDbLine
 10
326.034800
 20
219.812846
 30
0.0
 11
323.034460
 21
219.812846
 31
0.0
  0
SPLINE
  5
17a
100
AcDbEntity
  8
Layer_1
 62
7
100
AcDbSpline
 70
8
 71
3
 72
8
 73
4
 74
0
 40
0
 40
0
 40
0
 40
0
 40
1
 40
1
 40
1
 40
1
 10
323.034460
 20
219.812846
 30
0.0
 10
322.266340
 20
219.812889
 30
0.0
 10
321.556620
 20
220.222507
 30
0.0
 10
321.172560
 20
220.887716
 30
0.0
  0
SPLINE
  5
17b
100
AcDbEntity
  8
Layer_1
 62
7
100
AcDbSpline
 70
8
 71
3
 72
8
 73
4
 74
0
 40
0
 40
0
 40
0
 40
0
 40
1
 40
1
 40
1
 40
1
 10
321.172560
 20
220.887716
 30
0.0
 10
320.788500
 20
221.552929
 30
0.0
 10
320.788500
 20
222.372760
 30
0.0
 10
321.172560
 20
223.037973
 30
0.0
  0
SPLINE
  5
17c
100
AcDbEntity
  8
Layer_1
 62
7
100
AcDbSpline
 70
8
 71
3
 72
8
 73
4
 74
0
 40
0
 40
0
 40
0
 40
0
 40
1
 40
1
 40
1
 40
1
 10
321.172560
 20
223.037973
 30
0.0
 10
321.556620
 20
223.703182
 30
0.0
 10
322.266340
 20
224.112879
 30
0.0
 10
323.034460
 20
224.112842
 30
0.0
  0
LINE
  5
17d
100
AcDbEntity
  8
Layer_1
 62
7
100
AcDbLine
 10
323.034460
 20
224.112842
 30
0.0
 11
323.034460
 21
224.112842
 31
0.0
  0
LINE
  5
17e
100
AcDbEntity
  8
Layer_1
 62
7
100
AcDbLine
 10
428.034770
 20
224.112842
 30
0.0
 11
431.034590
 21
224.112842
 31
0.0
  0
SPLINE
  5
17f
100
AcDbEntity
  8
Layer_1
 62
7
100
AcDbSpline
 70
8
 71
3
 72
8
 73
4
 74
0
 40
0
 40
0
 40
0
 40
0
 40
1
 40
1
 40
1
 40
1
 10
431.034590
 20
224.112842
 30
0.0
 10
431.802650
 20
224.112879
 30
0.0
 10
432.512430
 20
223.703182
 30
0.0
 10
432.896490
 20
223.037973
 30
0.0
  0
SPLINE
  5
180
100
AcDbEntity
  8
Layer_1
 62
7
100
AcDbSpline
 70
8
 71
3
 72
8
 73
4
 74
0
 40
0
 40
0
 40
0
 40
0
 40
1
 40
1
 40
1
 40
1
 10
432.896490
 20
223.037973
 30
0.0
 10
433.280550
 20
222.372760
 30
0.0
 10
433.280550
 20
221.552929
 30
0.0
 10
432.896490
 20
220.887716
 30
0.0
  0
SPLINE
  5
181
100
AcDbEntity
  8
Layer_1
 62
7
100
AcDbSpline
 70
8
 71
3
 72
8
 73
4
 74
0
 40
0
 40
0
 40
0
 40
0
 40
1
 40
1
 40
1
 40
1
 10
432.896490
 20
220.887716
 30
0.0
 10
432.512430
 20
220.222507
 30
0.0
 10
431.802650
 20
219.812889
 30
0.0
 10
431.034590
 20
219.812846
 30
0.0
  0
LINE
  5
182
100
AcDbEntity
  8
Layer_1
 62
7
100
AcDbLine
 10
431.034590
 20
219.812846
 30
0.0
 11
428.034770
 21
219.812846
 31
0.0
  0
SPLINE
  5
183
100
AcDbEntity
  8
Layer_1
 62
7
100
AcDbSpline
 70
8
 71
3
 72
8
 73
4
 74
0
 40
0
 40
0
 40
0
 40
0
 40
1
 40
1
 40
1
 40
1
 10
428.034770
 20
219.812846
 30
0.0
 10
426.847360
 20
219.812889
 30
0.0
 10
425.884510
 20
220.775177
 30
0.0
 10
425.884510
 20
221.962586
 30
0.0
  0
SPLINE
  5
184
100
AcDbEntity
  8
Layer_1
 62
7
100
AcDbSpline
 70
8
 71
3
 72
8
 73
4
 74
0
 40
0
 40
0
 40
0
 40
0
 40
1
 40
1
 40
1
 40
1
 10
425.884510
 20
221.962586
 30
0.0
 10
425.884510
 20
223.149995
 30
0.0
 10
426.847360
 20
224.112879
 30
0.0
 10
428.034770
 20
224.112842
 30
0.0
  0
LINE
  5
185
100
AcDbEntity
  8
Layer_1
 62
7
100
AcDbLine
 10
428.034770
 20
224.112842
 30
0.0
 11
428.034770
 21
224.112842
 31
0.0
  0
LINE
  5
186
100
AcDbEntity
  8
Layer_1
 62
7
100
AcDbLine
 10
83.035164
 20
119.113050
 30
0.0
 11
86.034974
 21
119.113050
 31
0.0
  0
SPLINE
  5
187
100
AcDbEntity
  8
Layer_1
 62
7
100
AcDbSpline
 70
8
 71
3
 72
8
 73
4
 74
0
 40
0
 40
0
 40
0
 40
0
 40
1
 40
1
 40
1
 40
1
 10
86.034974
 20
119.113050
 30
0.0
 10
86.803114
 20
119.113100
 30
0.0
 10
87.512824
 20
118.703400
 30
0.0
 10
87.896884
 20
118.038180
 30
0.0
  0
SPLINE
  5
188
100
AcDbEntity
  8
Layer_1
 62
7
100
AcDbSpline
 70
8
 71
3
 72
8
 73
4
 74
0
 40
0
 40
0
 40
0
 40
0
 40
1
 40
1
 40
1
 40
1
 10
87.896884
 20
118.038180
 30
0.0
 10
88.280944
 20
117.372970
 30
0.0
 10
88.280944
 20
116.553130
 30
0.0
 10
87.896884
 20
115.887920
 30
0.0
  0
SPLINE
  5
189
100
AcDbEntity
  8
Layer_1
 62
7
100
AcDbSpline
 70
8
 71
3
 72
8
 73
4
 74
0
 40
0
 40
0
 40
0
 40
0
 40
1
 40
1
 40
1
 40
1
 10
87.896884
 20
115.887920
 30
0.0
 10
87.512824
 20
115.222710
 30
0.0
 10
86.803114
 20
114.813110
 30
0.0
 10
86.034974
 20
114.813050
 30
0.0
  0
LINE
  5
18a
100
AcDbEntity
  8
Layer_1
 62
7
100
AcDbLine
 10
86.034974
 20
114.813050
 30
0.0
 11
83.035164
 21
114.813050
 31
0.0
  0
SPLINE
  5
18b
100
AcDbEntity
  8
Layer_1
 62
7
100
AcDbSpline
 70
8
 71
3
 72
8
 73
4
 74
0
 40
0
 40
0
 40
0
 40
0
 40
1
 40
1
 40
1
 40
1
 10
83.035164
 20
114.813050
 30
0.0
 10
82.266994
 20
114.813110
 30
0.0
 10
81.557334
 20
115.222710
 30
0.0
 10
81.173264
 20
115.887920
 30
0.0
  0
SPLINE
  5
18c
100
AcDbEntity
  8
Layer_1
 62
7
100
AcDbSpline
 70
8
 71
3
 72
8
 73
4
 74
0
 40
0
 40
0
 40
0
 40
0
 40
1
 40
1
 40
1
 40
1
 10
81.173264
 20
115.887920
 30
0.0
 10
80.789214
 20
116.553130
 30
0.0
 10
80.789214
 20
117.372970
 30
0.0
 10
81.173264
 20
118.038180
 30
0.0
  0
SPLINE
  5
18d
100
AcDbEntity
  8
Layer_1
 62
7
100
AcDbSpline
 70
8
 71
3
 72
8
 73
4
 74
0
 40
0
 40
0
 40
0
 40
0
 40
1
 40
1
 40
1
 40
1
 10
81.173264
 20
118.038180
 30
0.0
 10
81.557334
 20
118.703400
 30
0.0
 10
82.266994
 20
119.113100
 30
0.0
 10
83.035164
 20
119.113050
 30
0.0
  0
LINE
  5
18e
100
AcDbEntity
  8
Layer_1
 62
7
100
AcDbLine
 10
83.035164
 20
119.113050
 30
0.0
 11
83.035164
 21
119.113050
 31
0.0
  0
LINE
  5
18f
100
AcDbEntity
  8
Layer_1
 62
7
100
AcDbLine
 10
188.034950
 20
119.113050
 30
0.0
 11
191.034770
 21
119.113050
 31
0.0
  0
SPLINE
  5
190
100
AcDbEntity
  8
Layer_1
 62
7
100
AcDbSpline
 70
8
 71
3
 72
8
 73
4
 74
0
 40
0
 40
0
 40
0
 40
0
 40
1
 40
1
 40
1
 40
1
 10
191.034770
 20
119.113050
 30
0.0
 10
191.802890
 20
119.113100
 30
0.0
 10
192.512610
 20
118.703400
 30
0.0
 10
192.896670
 20
118.038180
 30
0.0
  0
SPLINE
  5
191
100
AcDbEntity
  8
Layer_1
 62
7
100
AcDbSpline
 70
8
 71
3
 72
8
 73
4
 74
0
 40
0
 40
0
 40
0
 40
0
 40
1
 40
1
 40
1
 40
1
 10
192.896670
 20
118.038180
 30
0.0
 10
193.280730
 20
117.372970
 30
0.0
 10
193.280730
 20
116.553130
 30
0.0
 10
192.896670
 20
115.887920
 30
0.0
  0
SPLINE
  5
192
100
AcDbEntity
  8
Layer_1
 62
7
100
AcDbSpline
 70
8
 71
3
 72
8
 73
4
 74
0
 40
0
 40
0
 40
0
 40
0
 40
1
 40
1
 40
1
 40
1
 10
192.896670
 20
115.887920
 30
0.0
 10
192.512610
 20
115.222710
 30
0.0
 10
191.802890
 20
114.813110
 30
0.0
 10
191.034770
 20
114.813050
 30
0.0
  0
LINE
  5
193
100
AcDbEntity
  8
Layer_1
 62
7
100
AcDbLine
 10
191.034770
 20
114.813050
 30
0.0
 11
188.034950
 21
114.813050
 31
0.0
  0
SPLINE
  5
194
100
AcDbEntity
  8
Layer_1
 62
7
100
AcDbSpline
 70
8
 71
3
 72
8
 73
4
 74
0
 40
0
 40
0
 40
0
 40
0
 40
1
 40
1
 40
1
 40
1
 10
188.034950
 20
114.813050
 30
0.0
 10
187.266890
 20
114.813110
 30
0.0
 10
186.557110
 20
115.222710
 30
0.0
 10
186.173050
 20
115.887920
 30
0.0
  0
SPLINE
  5
195
100
AcDbEntity
  8
Layer_1
 62
7
100
AcDbSpline
 70
8
 71
3
 72
8
 73
4
 74
0
 40
0
 40
0
 40
0
 40
0
 40
1
 40
1
 40
1
 40
1
 10
186.173050
 20
115.887920
 30
0.0
 10
185.788990
 20
116.553130
 30
0.0
 10
185.788990
 20
117.372970
 30
0.0
 10
186.173050
 20
118.038180
 30
0.0
  0
SPLINE
  5
196
100
AcDbEntity
  8
Layer_1
 62
7
100
AcDbSpline
 70
8
 71
3
 72
8
 73
4
 74
0
 40
0
 40
0
 40
0
 40
0
 40
1
 40
1
 40
1
 40
1
 10
186.173050
 20
118.038180
 30
0.0
 10
186.557110
 20
118.703400
 30
0.0
 10
187.266890
 20
119.113100
 30
0.0
 10
188.034950
 20
119.113050
 30
0.0
  0
LINE
  5
197
100
AcDbEntity
  8
Layer_1
 62
7
100
AcDbLine
 10
188.034950
 20
119.113050
 30
0.0
 11
188.034950
 21
119.113050
 31
0.0
  0
LINE
  5
198
100
AcDbEntity
  8
Layer_1
 62
7
100
AcDbLine
 10
203.034550
 20
119.113050
 30
0.0
 11
206.034880
 21
119.113050
 31
0.0
  0
SPLINE
  5
199
100
AcDbEntity
  8
Layer_1
 62
7
100
AcDbSpline
 70
8
 71
3
 72
8
 73
4
 74
0
 40
0
 40
0
 40
0
 40
0
 40
1
 40
1
 40
1
 40
1
 10
206.034880
 20
119.113050
 30
0.0
 10
206.802980
 20
119.113100
 30
0.0
 10
207.512730
 20
118.703400
 30
0.0
 10
207.896790
 20
118.038180
 30
0.0
  0
SPLINE
  5
19a
100
AcDbEntity
  8
Layer_1
 62
7
100
AcDbSpline
 70
8
 71
3
 72
8
 73
4
 74
0
 40
0
 40
0
 40
0
 40
0
 40
1
 40
1
 40
1
 40
1
 10
207.896790
 20
118.038180
 30
0.0
 10
208.280850
 20
117.372970
 30
0.0
 10
208.280850
 20
116.553130
 30
0.0
 10
207.896790
 20
115.887920
 30
0.0
  0
SPLINE
  5
19b
100
AcDbEntity
  8
Layer_1
 62
7
100
AcDbSpline
 70
8
 71
3
 72
8
 73
4
 74
0
 40
0
 40
0
 40
0
 40
0
 40
1
 40
1
 40
1
 40
1
 10
207.896790
 20
115.887920
 30
0.0
 10
207.512730
 20
115.222710
 30
0.0
 10
206.802980
 20
114.813110
 30
0.0
 10
206.034880
 20
114.813050
 30
0.0
  0
LINE
  5
19c
100
AcDbEntity
  8
Layer_1
 62
7
100
AcDbLine
 10
206.034880
 20
114.813050
 30
0.0
 11
203.034550
 21
114.813050
 31
0.0
  0
SPLINE
  5
19d
100
AcDbEntity
  8
Layer_1
 62
7
100
AcDbSpline
 70
8
 71
3
 72
8
 73
4
 74
0
 40
0
 40
0
 40
0
 40
0
 40
1
 40
1
 40
1
 40
1
 10
203.034550
 20
114.813050
 30
0.0
 10
202.266470
 20
114.813110
 30
0.0
 10
201.556710
 20
115.222710
 30
0.0
 10
201.172650
 20
115.887920
 30
0.0
  0
SPLINE
  5
19e
100
AcDbEntity
  8
Layer_1
 62
7
100
AcDbSpline
 70
8
 71
3
 72
8
 73
4
 74
0
 40
0
 40
0
 40
0
 40
0
 40
1
 40
1
 40
1
 40
1
 10
201.172650
 20
115.887920
 30
0.0
 10
200.788590
 20
116.553130
 30
0.0
 10
200.788590
 20
117.372970
 30
0.0
 10
201.172650
 20
118.038180
 30
0.0
  0
SPLINE
  5
19f
100
AcDbEntity
  8
Layer_1
 62
7
100
AcDbSpline
 70
8
 71
3
 72
8
 73
4
 74
0
 40
0
 40
0
 40
0
 40
0
 40
1
 40
1
 40
1
 40
1
 10
201.172650
 20
118.038180
 30
0.0
 10
201.556710
 20
118.703400
 30
0.0
 10
202.266470
 20
119.113100
 30
0.0
 10
203.034550
 20
119.113050
 30
0.0
  0
LINE
  5
1a0
100
AcDbEntity
  8
Layer_1
 62
7
100
AcDbLine
 10
203.034550
 20
119.113050
 30
0.0
 11
203.034550
 21
119.113050
 31
0.0
  0
LINE
  5
1a1
100
AcDbEntity
  8
Layer_1
 62
7
100
AcDbLine
 10
308.034860
 20
119.113050
 30
0.0
 11
311.034680
 21
119.113050
 31
0.0
  0
SPLINE
  5
1a2
100
AcDbEntity
  8
Layer_1
 62
7
100
AcDbSpline
 70
8
 71
3
 72
8
 73
4
 74
0
 40
0
 40
0
 40
0
 40
0
 40
1
 40
1
 40
1
 40
1
 10
311.034680
 20
119.113050
 30
0.0
 10
311.802800
 20
119.113100
 30
0.0
 10
312.512520
 20
118.703400
 30
0.0
 10
312.896580
 20
118.038180
 30
0.0
  0
SPLINE
  5
1a3
100
AcDbEntity
  8
Layer_1
 62
7
100
AcDbSpline
 70
8
 71
3
 72
8
 73
4
 74
0
 40
0
 40
0
 40
0
 40
0
 40
1
 40
1
 40
1
 40
1
 10
312.896580
 20
118.038180
 30
0.0
 10
313.280640
 20
117.372970
 30
0.0
 10
313.280640
 20
116.553130
 30
0.0
 10
312.896580
 20
115.887920
 30
0.0
  0
SPLINE
  5
1a4
100
AcDbEntity
  8
Layer_1
 62
7
100
AcDbSpline
 70
8
 71
3
 72
8
 73
4
 74
0
 40
0
 40
0
 40
0
 40
0
 40
1
 40
1
 40
1
 40
1
 10
312.896580
 20
115.887920
 30
0.0
 10
312.512520
 20
115.222710
 30
0.0
 10
311.802800
 20
114.813110
 30
0.0
 10
311.034680
 20
114.813050
 30
0.0
  0
LINE
  5
1a5
100
AcDbEntity
  8
Layer_1
 62
7
100
AcDbLine
 10
311.034680
 20
114.813050
 30
0.0
 11
308.034860
 21
114.813050
 31
0.0
  0
SPLINE
  5
1a6
100
AcDbEntity
  8
Layer_1
 62
7
100
AcDbSpline
 70
8
 71
3
 72
8
 73
4
 74
0
 40
0
 40
0
 40
0
 40
0
 40
1
 40
1
 40
1
 40
1
 10
308.034860
 20
114.813050
 30
0.0
 10
307.266740
 20
114.813110
 30
0.0
 10
306.557020
 20
115.222710
 30
0.0
 10
306.172960
 20
115.887920
 30
0.0
  0
SPLINE
  5
1a7
100
AcDbEntity
  8
Layer_1
 62
7
100
AcDbSpline
 70
8
 71
3
 72
8
 73
4
 74
0
 40
0
 40
0
 40
0
 40
0
 40
1
 40
1
 40
1
 40
1
 10
306.172960
 20
115.887920
 30
0.0
 10
305.788900
 20
116.553130
 30
0.0
 10
305.788900
 20
117.372970
 30
0.0
 10
306.172960
 20
118.038180
 30
0.0
  0
SPLINE
  5
1a8
100
AcDbEntity
  8
Layer_1
 62
7
100
AcDbSpline
 70
8
 71
3
 72
8
 73
4
 74
0
 40
0
 40
0
 40
0
 40
0
 40
1
 40
1
 40
1
 40
1
 10
306.172960
 20
118.038180
 30
0.0
 10
306.557020
 20
118.703400
 30
0.0
 10
307.266740
 20
119.113100
 30
0.0
 10
308.034860
 20
119.113050
 30
0.0
  0
LINE
  5
1a9
100
AcDbEntity
  8
Layer_1
 62
7
100
AcDbLine
 10
308.034860
 20
119.113050
 30
0.0
 11
308.034860
 21
119.113050
 31
0.0
  0
LINE
  5
1aa
100
AcDbEntity
  8
Layer_1
 62
7
100
AcDbLine
 10
323.034460
 20
119.113050
 30
0.0
 11
326.034800
 21
119.113050
 31
0.0
  0
SPLINE
  5
1ab
100
AcDbEntity
  8
Layer_1
 62
7
100
AcDbSpline
 70
8
 71
3
 72
8
 73
4
 74
0
 40
0
 40
0
 40
0
 40
0
 40
1
 40
1
 40
1
 40
1
 10
326.034800
 20
119.113050
 30
0.0
 10
326.802920
 20
119.113100
 30
0.0
 10
327.512640
 20
118.703400
 30
0.0
 10
327.896700
 20
118.038180
 30
0.0
  0
SPLINE
  5
1ac
100
AcDbEntity
  8
Layer_1
 62
7
100
AcDbSpline
 70
8
 71
3
 72
8
 73
4
 74
0
 40
0
 40
0
 40
0
 40
0
 40
1
 40
1
 40
1
 40
1
 10
327.896700
 20
118.038180
 30
0.0
 10
328.280760
 20
117.372970
 30
0.0
 10
328.280760
 20
116.553130
 30
0.0
 10
327.896700
 20
115.887920
 30
0.0
  0
SPLINE
  5
1ad
100
AcDbEntity
  8
Layer_1
 62
7
100
AcDbSpline
 70
8
 71
3
 72
8
 73
4
 74
0
 40
0
 40
0
 40
0
 40
0
 40
1
 40
1
 40
1
 40
1
 10
327.896700
 20
115.887920
 30
0.0
 10
327.512640
 20
115.222710
 30
0.0
 10
326.802920
 20
114.813110
 30
0.0
 10
326.034800
 20
114.813050
 30
0.0
  0
LINE
  5
1ae
100
AcDbEntity
  8
Layer_1
 62
7
100
AcDbLine
 10
326.034800
 20
114.813050
 30
0.0
 11
323.034460
 21
114.813050
 31
0.0
  0
SPLINE
  5
1af
100
AcDbEntity
  8
Layer_1
 62
7
100
AcDbSpline
 70
8
 71
3
 72
8
 73
4
 74
0
 40
0
 40
0
 40
0
 40
0
 40
1
 40
1
 40
1
 40
1
 10
323.034460
 20
114.813050
 30
0.0
 10
322.266340
 20
114.813110
 30
0.0
 10
321.556620
 20
115.222710
 30
0.0
 10
321.172560
 20
115.887920
 30
0.0
  0
SPLINE
  5
1b0
100
AcDbEntity
  8
Layer_1
 62
7
100
AcDbSpline
 70
8
 71
3
 72
8
 73
4
 74
0
 40
0
 40
0
 40
0
 40
0
 40
1
 40
1
 40
1
 40
1
 10
321.172560
 20
115.887920
 30
0.0
 10
320.788500
 20
116.553130
 30
0.0
 10
320.788500
 20
117.372970
 30
0.0
 10
321.172560
 20
118.038180
 30
0.0
  0
SPLINE
  5
1b1
100
AcDbEntity
  8
Layer_1
 62
7
100
AcDbSpline
 70
8
 71
3
 72
8
 73
4
 74
0
 40
0
 40
0
 40
0
 40
0
 40
1
 40
1
 40
1
 40
1
 10
321.172560
 20
118.038180
 30
0.0
 10
321.556620
 20
118.703400
 30
0.0
 10
322.266340
 20
119.113100
 30
0.0
 10
323.034460
 20
119.113050
 30
0.0
  0
LINE
  5
1b2
100
AcDbEntity
  8
Layer_1
 62
7
100
AcDbLine
 10
323.034460
 20
119.113050
 30
0.0
 11
323.034460
 21
119.113050
 31
0.0
  0
LINE
  5
1b3
100
AcDbEntity
  8
Layer_1
 62
7
100
AcDbLine
 10
428.034770
 20
119.113050
 30
0.0
 11
431.034590
 21
119.113050
 31
0.0
  0
SPLINE
  5
1b4
100
AcDbEntity
  8
Layer_1
 62
7
100
AcDbSpline
 70
8
 71
3
 72
8
 73
4
 74
0
 40
0
 40
0
 40
0
 40
0
 40
1
 40
1
 40
1
 40
1
 10
431.034590
 20
119.113050
 30
0.0
 10
431.802650
 20
119.113100
 30
0.0
 10
432.512430
 20
118.703400
 30
0.0
 10
432.896490
 20
118.038180
 30
0.0
  0
SPLINE
  5
1b5
100
AcDbEntity
  8
Layer_1
 62
7
100
AcDbSpline
 70
8
 71
3
 72
8
 73
4
 74
0
 40
0
 40
0
 40
0
 40
0
 40
1
 40
1
 40
1
 40
1
 10
432.896490
 20
118.038180
 30
0.0
 10
433.280550
 20
117.372970
 30
0.0
 10
433.280550
 20
116.553130
 30
0.0
 10
432.896490
 20
115.887920
 30
0.0
  0
SPLINE
  5
1b6
100
AcDbEntity
  8
Layer_1
 62
7
100
AcDbSpline
 70
8
 71
3
 72
8
 73
4
 74
0
 40
0
 40
0
 40
0
 40
0
 40
1
 40
1
 40
1
 40
1
 10
432.896490
 20
115.887920
 30
0.0
 10
432.512430
 20
115.222710
 30
0.0
 10
431.802650
 20
114.813110
 30
0.0
 10
431.034590
 20
114.813050
 30
0.0
  0
LINE
  5
1b7
100
AcDbEntity
  8
Layer_1
 62
7
100
AcDbLine
 10
431.034590
 20
114.813050
 30
0.0
 11
428.034770
 21
114.813050
 31
0.0
  0
SPLINE
  5
1b8
100
AcDbEntity
  8
Layer_1
 62
7
100
AcDbSpline
 70
8
 71
3
 72
8
 73
4
 74
0
 40
0
 40
0
 40
0
 40
0
 40
1
 40
1
 40
1
 40
1
 10
428.034770
 20
114.813050
 30
0.0
 10
427.266640
 20
114.813110
 30
0.0
 10
426.556410
 20
115.222710
 30
0.0
 10
426.172350
 20
115.887920
 30
0.0
  0
SPLINE
  5
1b9
100
AcDbEntity
  8
Layer_1
 62
7
100
AcDbSpline
 70
8
 71
3
 72
8
 73
4
 74
0
 40
0
 40
0
 40
0
 40
0
 40
1
 40
1
 40
1
 40
1
 10
426.172350
 20
115.887920
 30
0.0
 10
425.788290
 20
116.553130
 30
0.0
 10
425.788290
 20
117.372970
 30
0.0
 10
426.172350
 20
118.038180
 30
0.0
  0
SPLINE
  5
1ba
100
AcDbEntity
  8
Layer_1
 62
7
100
AcDbSpline
 70
8
 71
3
 72
8
 73
4
 74
0
 40
0
 40
0
 40
0
 40
0
 40
1
 40
1
 40
1
 40
1
 10
426.172350
 20
118.038180
 30
0.0
 10
426.556410
 20
118.703400
 30
0.0
 10
427.266640
 20
119.113100
 30
0.0
 10
428.034770
 20
119.113050
 30
0.0
  0
LINE
  5
1bb
100
AcDbEntity
  8
Layer_1
 62
7
100
AcDbLine
 10
428.034770
 20
119.113050
 30
0.0
 11
428.034770
 21
119.113050
 31
0.0
  0
LINE
  5
1bc
100
AcDbEntity
  8
Layer_1
 62
7
100
AcDbLine
 10
362.527660
 20
86.181730
 30
0.0
 11
410.327320
 21
86.181730
 31
0.0
  0
LINE
  5
1bd
100
AcDbEntity
  8
Layer_1
 62
7
100
AcDbLine
 10
410.327320
 20
86.181730
 30
0.0
 11
410.327320
 21
57.381940
 31
0.0
  0
LINE
  5
1be
100
AcDbEntity
  8
Layer_1
 62
7
100
AcDbLine
 10
410.327320
 20
57.381940
 30
0.0
 11
362.527660
 21
57.381940
 31
0.0
  0
LINE
  5
1bf
100
AcDbEntity
  8
Layer_1
 62
7
100
AcDbLine
 10
362.527660
 20
57.381940
 30
0.0
 11
362.527660
 21
86.181730
 31
0.0
  0
SPLINE
  5
1c0
100
AcDbEntity
  8
Layer_1
 62
7
100
AcDbSpline
 70
8
 71
3
 72
8
 73
4
 74
0
 40
0
 40
0
 40
0
 40
0
 40
1
 40
1
 40
1
 40
1
 10
332.527420
 20
73.938030
 30
0.0
 10
332.899290
 20
73.938030
 30
0.0
 10
333.271300
 20
73.841930
 30
0.0
 10
333.604360
 20
73.649160
 30
0.0
  0
SPLINE
  5
1c1
100
AcDbEntity
  8
Layer_1
 62
7
100
AcDbSpline
 70
8
 71
3
 72
8
 73
4
 74
0
 40
0
 40
0
 40
0
 40
0
 40
1
 40
1
 40
1
 40
1
 10
333.604360
 20
73.649160
 30
0.0
 10
334.270480
 20
73.263720
 30
0.0
 10
334.679880
 20
72.551690
 30
0.0
 10
334.677680
 20
71.782090
 30
0.0
  0
SPLINE
  5
1c2
100
AcDbEntity
  8
Layer_1
 62
7
100
AcDbSpline
 70
8
 71
3
 72
8
 73
4
 74
0
 40
0
 40
0
 40
0
 40
0
 40
1
 40
1
 40
1
 40
1
 10
334.677680
 20
71.782090
 30
0.0
 10
334.679680
 20
71.012490
 30
0.0
 10
334.270480
 20
70.299950
 30
0.0
 10
333.604360
 20
69.914500
 30
0.0
  0
SPLINE
  5
1c3
100
AcDbEntity
  8
Layer_1
 62
7
100
AcDbSpline
 70
8
 71
3
 72
8
 73
4
 74
0
 40
0
 40
0
 40
0
 40
0
 40
1
 40
1
 40
1
 40
1
 10
333.604360
 20
69.914500
 30
0.0
 10
332.938240
 20
69.529060
 30
0.0
 10
332.117120
 20
69.529060
 30
0.0
 10
331.451000
 20
69.914500
 30
0.0
  0
SPLINE
  5
1c4
100
AcDbEntity
  8
Layer_1
 62
7
100
AcDbSpline
 70
8
 71
3
 72
8
 73
4
 74
0
 40
0
 40
0
 40
0
 40
0
 40
1
 40
1
 40
1
 40
1
 10
331.451000
 20
69.914500
 30
0.0
 10
330.784880
 20
70.299950
 30
0.0
 10
330.375480
 20
71.012490
 30
0.0
 10
330.377680
 20
71.782090
 30
0.0
  0
SPLINE
  5
1c5
100
AcDbEntity
  8
Layer_1
 62
7
100
AcDbSpline
 70
8
 71
3
 72
8
 73
4
 74
0
 40
0
 40
0
 40
0
 40
0
 40
1
 40
1
 40
1
 40
1
 10
330.377680
 20
71.782090
 30
0.0
 10
330.375680
 20
72.551690
 30
0.0
 10
330.784880
 20
73.263720
 30
0.0
 10
331.451000
 20
73.649160
 30
0.0
  0
SPLINE
  5
1c6
100
AcDbEntity
  8
Layer_1
 62
7
100
AcDbSpline
 70
8
 71
3
 72
8
 73
4
 74
0
 40
0
 40
0
 40
0
 40
0
 40
1
 40
1
 40
1
 40
1
 10
331.451000
 20
73.649160
 30
0.0
 10
331.784060
 20
73.841880
 30
0.0
 10
332.155560
 20
73.938030
 30
0.0
 10
332.527420
 20
73.938030
 30
0.0
  0
LINE
  5
1c7
100
AcDbEntity
  8
Layer_1
 62
7
100
AcDbLine
 10
332.527420
 20
73.938030
 30
0.0
 11
332.527420
 21
73.938030
 31
0.0
  0
LINE
  5
1c8
100
AcDbEntity
  8
Layer_1
 62
7
100
AcDbLine
 10
86.741914
 20
30.939620
 30
0.0
 11
92.742064
 21
30.939620
 31
0.0
  0
SPLINE
  5
1c9
100
AcDbEntity
  8
Layer_1
 62
7
100
AcDbSpline
 70
8
 71
3
 72
8
 73
4
 74
0
 40
0
 40
0
 40
0
 40
0
 40
1
 40
1
 40
1
 40
1
 10
92.742064
 20
30.939620
 30
0.0
 10
93.813844
 20
30.939560
 30
0.0
 10
94.804454
 20
30.367660
 30
0.0
 10
95.340354
 20
29.439450
 30
0.0
  0
SPLINE
  5
1ca
100
AcDbEntity
  8
Layer_1
 62
7
100
AcDbSpline
 70
8
 71
3
 72
8
 73
4
 74
0
 40
0
 40
0
 40
0
 40
0
 40
1
 40
1
 40
1
 40
1
 10
95.340354
 20
29.439450
 30
0.0
 10
95.876254
 20
28.511260
 30
0.0
 10
95.876254
 20
27.367850
 30
0.0
 10
95.340354
 20
26.439640
 30
0.0
  0
SPLINE
  5
1cb
100
AcDbEntity
  8
Layer_1
 62
7
100
AcDbSpline
 70
8
 71
3
 72
8
 73
4
 74
0
 40
0
 40
0
 40
0
 40
0
 40
1
 40
1
 40
1
 40
1
 10
95.340354
 20
26.439640
 30
0.0
 10
94.804454
 20
25.511440
 30
0.0
 10
93.813844
 20
24.939520
 30
0.0
 10
92.742064
 20
24.939470
 30
0.0
  0
LINE
  5
1cc
100
AcDbEntity
  8
Layer_1
 62
7
100
AcDbLine
 10
92.742064
 20
24.939470
 30
0.0
 11
86.741914
 21
24.939470
 31
0.0
  0
SPLINE
  5
1cd
100
AcDbEntity
  8
Layer_1
 62
7
100
AcDbSpline
 70
8
 71
3
 72
8
 73
4
 74
0
 40
0
 40
0
 40
0
 40
0
 40
1
 40
1
 40
1
 40
1
 10
86.741914
 20
24.939470
 30
0.0
 10
85.670074
 20
24.939520
 30
0.0
 10
84.680034
 20
25.511440
 30
0.0
 10
84.144134
 20
26.439640
 30
0.0
  0
SPLINE
  5
1ce
100
AcDbEntity
  8
Layer_1
 62
7
100
AcDbSpline
 70
8
 71
3
 72
8
 73
4
 74
0
 40
0
 40
0
 40
0
 40
0
 40
1
 40
1
 40
1
 40
1
 10
84.144134
 20
26.439640
 30
0.0
 10
83.608234
 20
27.367850
 30
0.0
 10
83.608234
 20
28.511260
 30
0.0
 10
84.144134
 20
29.439450
 30
0.0
  0
SPLINE
  5
1cf
100
AcDbEntity
  8
Layer_1
 62
7
100
AcDbSpline
 70
8
 71
3
 72
8
 73
4
 74
0
 40
0
 40
0
 40
0
 40
0
 40
1
 40
1
 40
1
 40
1
 10
84.144134
 20
29.439450
 30
0.0
 10
84.680034
 20
30.367660
 30
0.0
 10
85.670074
 20
30.939560
 30
0.0
 10
86.741914
 20
30.939620
 30
0.0
  0
LINE
  5
1d0
100
AcDbEntity
  8
Layer_1
 62
7
100
AcDbLine
 10
86.741914
 20
30.939620
 30
0.0
 11
86.741914
 21
30.939620
 31
0.0
  0
LINE
  5
1d1
100
AcDbEntity
  8
Layer_1
 62
7
100
AcDbLine
 10
421.327170
 20
30.939620
 30
0.0
 11
427.327320
 21
30.939620
 31
0.0
  0
SPLINE
  5
1d2
100
AcDbEntity
  8
Layer_1
 62
7
100
AcDbSpline
 70
8
 71
3
 72
8
 73
4
 74
0
 40
0
 40
0
 40
0
 40
0
 40
1
 40
1
 40
1
 40
1
 10
427.327320
 20
30.939620
 30
0.0
 10
428.399180
 20
30.939570
 30
0.0
 10
429.389710
 20
30.367660
 30
0.0
 10
429.925610
 20
29.439450
 30
0.0
  0
SPLINE
  5
1d3
100
AcDbEntity
  8
Layer_1
 62
7
100
AcDbSpline
 70
8
 71
3
 72
8
 73
4
 74
0
 40
0
 40
0
 40
0
 40
0
 40
1
 40
1
 40
1
 40
1
 10
429.925610
 20
29.439450
 30
0.0
 10
430.461510
 20
28.511260
 30
0.0
 10
430.461510
 20
27.367850
 30
0.0
 10
429.925610
 20
26.439640
 30
0.0
  0
SPLINE
  5
1d4
100
AcDbEntity
  8
Layer_1
 62
7
100
AcDbSpline
 70
8
 71
3
 72
8
 73
4
 74
0
 40
0
 40
0
 40
0
 40
0
 40
1
 40
1
 40
1
 40
1
 10
429.925610
 20
26.439640
 30
0.0
 10
429.389710
 20
25.511440
 30
0.0
 10
428.399180
 20
24.939520
 30
0.0
 10
427.327320
 20
24.939470
 30
0.0
  0
LINE
  5
1d5
100
AcDbEntity
  8
Layer_1
 62
7
100
AcDbLine
 10
427.327320
 20
24.939470
 30
0.0
 11
421.327170
 21
24.939470
 31
0.0
  0
SPLINE
  5
1d6
100
AcDbEntity
  8
Layer_1
 62
7
100
AcDbSpline
 70
8
 71
3
 72
8
 73
4
 74
0
 40
0
 40
0
 40
0
 40
0
 40
1
 40
1
 40
1
 40
1
 10
421.327170
 20
24.939470
 30
0.0
 10
420.255410
 20
24.939520
 30
0.0
 10
419.265290
 20
25.511440
 30
0.0
 10
418.729400
 20
26.439640
 30
0.0
  0
SPLINE
  5
1d7
100
AcDbEntity
  8
Layer_1
 62
7
100
AcDbSpline
 70
8
 71
3
 72
8
 73
4
 74
0
 40
0
 40
0
 40
0
 40
0
 40
1
 40
1
 40
1
 40
1
 10
418.729400
 20
26.439640
 30
0.0
 10
418.193500
 20
27.367850
 30
0.0
 10
418.193500
 20
28.511260
 30
0.0
 10
418.729400
 20
29.439450
 30
0.0
  0
SPLINE
  5
1d8
100
AcDbEntity
  8
Layer_1
 62
7
100
AcDbSpline
 70
8
 71
3
 72
8
 73
4
 74
0
 40
0
 40
0
 40
0
 40
0
 40
1
 40
1
 40
1
 40
1
 10
418.729400
 20
29.439450
 30
0.0
 10
419.265290
 20
30.367660
 30
0.0
 10
420.255410
 20
30.939570
 30
0.0
 10
421.327170
 20
30.939620
 30
0.0
  0
LINE
  5
1d9
100
AcDbEntity
  8
Layer_1
 62
7
100
AcDbLine
 10
421.327170
 20
30.939620
 30
0.0
 11
421.327170
 21
30.939620
 31
0.0
  0
ENDSEC
  0
SECTION
  2
OBJECTS
  0
DICTIONARY
  5
C
330
0
100
AcDbDictionary
  3
ACAD_GROUP
350
D
  3
ACAD_MLINESTYLE
350
17
  0
DICTIONARY
  5
D
330
C
100
AcDbDictionary
  0
DICTIONARY
  5
1A
330
C
100
AcDbDictionary
  0
DICTIONARY
  5
17
330
C
100
AcDbDictionary
  3
STANDARD
350
18
  0
DICTIONARY
  5
19
330
C
100
AcDbDictionary
  0
ENDSEC
  0
EOF
