<?xml version="1.0" encoding="UTF-8" standalone="no"?>
<!-- Created with Inkscape (http://www.inkscape.org/) -->

<svg
   width="600mm"
   height="297mm"
   viewBox="0 0 600 297"
   version="1.1"
   id="svg5"
   xml:space="preserve"
   inkscape:version="1.2.1 (9c6d41e410, 2022-07-14)"
   sodipodi:docname="backplate_v2.svg"
   xmlns:inkscape="http://www.inkscape.org/namespaces/inkscape"
   xmlns:sodipodi="http://sodipodi.sourceforge.net/DTD/sodipodi-0.dtd"
   xmlns="http://www.w3.org/2000/svg"
   xmlns:svg="http://www.w3.org/2000/svg"><sodipodi:namedview
     id="namedview7"
     pagecolor="#ffffff"
     bordercolor="#666666"
     borderopacity="1.0"
     inkscape:showpageshadow="2"
     inkscape:pageopacity="0.0"
     inkscape:pagecheckerboard="0"
     inkscape:deskcolor="#d1d1d1"
     inkscape:document-units="mm"
     showgrid="false"
     inkscape:zoom="0.47039063"
     inkscape:cx="972.59591"
     inkscape:cy="554.85799"
     inkscape:window-width="1858"
     inkscape:window-height="1057"
     inkscape:window-x="54"
     inkscape:window-y="-8"
     inkscape:window-maximized="1"
     inkscape:current-layer="layer1" /><defs
     id="defs2"><marker
       id="DistanceX"
       orient="auto"
       refX="0"
       refY="0"
       style="overflow:visible"><path
         d="M 3,-3 -3,3 M 0,-5 V 5"
         style="stroke:#000000;stroke-width:0.5"
         id="path134" /></marker><pattern
       id="Hatch"
       patternUnits="userSpaceOnUse"
       width="8"
       height="8"
       x="0"
       y="0"><path
         d="M8 4 l-4,4"
         stroke="#000000"
         stroke-width="0.25"
         linecap="square"
         id="path137" /><path
         d="M6 2 l-4,4"
         stroke="#000000"
         stroke-width="0.25"
         linecap="square"
         id="path139" /><path
         d="M4 0 l-4,4"
         stroke="#000000"
         stroke-width="0.25"
         linecap="square"
         id="path141" /></pattern><symbol
       id="*MODEL_SPACE" /><symbol
       id="*PAPER_SPACE" /></defs><g
     inkscape:label="Layer 1"
     inkscape:groupmode="layer"
     id="layer1"><path
       id="path2480"
       style="fill:#ffff00;stroke:#000000;stroke-width:0.264583"
       d="M 44.742404,19.025329 V 31.78734 h -0.99993 V 31.287112 H 28.743384 V 47.28717 h 0.29094 v 2.261877 h -2.26188 V 49.256042 H 10.772904 V 257.09142 h 15.99954 v -0.29301 h 2.26188 v 2.26188 h -0.29094 v 16.00006 H 485.3274 v -16.00006 h -0.29301 v -2.26188 h 2.26188 v 0.29301 l 16.00006,0.1173 V 49.139253 l -16.00006,0.116789 v 0.293005 h -2.26188 V 47.28717 h 0.29301 V 31.287112 h -15.00012 v 0.500228 h -0.99994 V 19.025329 H 428.7417 V 31.78734 h -0.99993 V 31.287112 H 86.327984 v 0.500228 h -0.99994 V 19.025329 Z m 41.99951,16.262056 h 6.00015 c 1.65683,3e-6 2.99982,1.342968 2.99982,2.999817 0,1.65685 -1.34299,2.999817 -2.99982,2.999817 h -6.00015 c -1.07184,0 -2.06189,-0.571449 -2.59778,-1.49965 -0.5359,-0.9282 -0.5359,-2.072132 0,-3.000333 0.53589,-0.928201 1.52594,-1.499648 2.59778,-1.499651 z m 334.585256,0 h 6.00015 c 1.07186,3e-6 2.06239,0.57145 2.59829,1.499651 0.53589,0.928201 0.53589,2.072133 0,3.000333 -0.5359,0.928201 -1.52643,1.49965 -2.59829,1.49965 h -6.00015 c -1.65681,0 -2.99982,-1.342967 -2.99982,-2.999817 0,-1.656849 1.34301,-2.999814 2.99982,-2.999817 z M 104.53462,70.037202 h 65.00017 l 25.00002,25.000025 V 160.03688 L 169.53479,185.0369 H 104.53462 L 79.535114,160.03688 V 95.037227 Z m 119.99991,0 h 65.00017 l 25.00002,25.000025 V 160.03688 L 289.5347,185.0369 H 224.53453 L 199.53502,160.03688 V 95.037227 Z m 119.99991,0 h 65.00017 l 25.00002,25.000025 V 160.03688 L 409.53461,185.0369 H 344.53444 L 319.53493,160.03688 V 95.037227 Z M 83.035164,72.887158 h 2.99981 c 0.76814,-3.7e-5 1.47785,0.40966 1.86191,1.074869 0.38406,0.665213 0.38406,1.485044 0,2.150257 -0.38406,0.665209 -1.09377,1.074827 -1.86191,1.07487 h -2.99981 c -1.18747,-4.3e-5 -2.15026,-0.962331 -2.15026,-2.14974 0,-1.187409 0.96279,-2.150293 2.15026,-2.150256 z m 104.999786,0 h 2.99982 c 0.76812,-3.7e-5 1.47784,0.40966 1.8619,1.074869 0.38406,0.665213 0.38406,1.485044 0,2.150257 -0.38406,0.665209 -1.09378,1.074826 -1.8619,1.07487 h -2.99982 c -0.76806,-4.4e-5 -1.47784,-0.409661 -1.8619,-1.07487 -0.38406,-0.665213 -0.38406,-1.485044 0,-2.150257 0.38406,-0.665209 1.09384,-1.074906 1.8619,-1.074869 z m 14.9996,0 h 3.00033 c 0.7681,-3.7e-5 1.47785,0.40966 1.86191,1.074869 0.38406,0.665213 0.38406,1.485044 0,2.150257 -0.38406,0.665209 -1.09381,1.074826 -1.86191,1.07487 h -3.00033 c -0.76808,-4.4e-5 -1.47784,-0.409661 -1.8619,-1.07487 -0.38406,-0.665213 -0.38406,-1.485044 0,-2.150257 0.38406,-0.665209 1.09382,-1.074906 1.8619,-1.074869 z m 105.00031,0 h 2.99982 c 0.76812,-3.7e-5 1.47784,0.40966 1.8619,1.074869 0.38406,0.665213 0.38406,1.485044 0,2.150257 -0.38406,0.665209 -1.09378,1.074827 -1.8619,1.07487 h -2.99982 c -1.18741,-4.3e-5 -2.15026,-0.962331 -2.15026,-2.14974 0,-1.187409 0.96285,-2.150293 2.15026,-2.150256 z m 14.9996,0 h 3.00034 c 1.18741,-3.7e-5 2.14974,0.962847 2.14974,2.150256 0,1.187409 -0.96233,2.149697 -2.14974,2.14974 h -3.00034 c -0.76812,-4.3e-5 -1.47784,-0.409661 -1.8619,-1.07487 -0.38406,-0.665213 -0.38406,-1.485044 0,-2.150257 0.38406,-0.665209 1.09378,-1.074906 1.8619,-1.074869 z m 105.00031,0 h 2.99982 c 0.76806,-3.7e-5 1.47784,0.40966 1.8619,1.074869 0.38406,0.665213 0.38406,1.485044 0,2.150257 -0.38406,0.665209 -1.09384,1.074827 -1.8619,1.07487 h -2.99982 c -1.18741,-4.3e-5 -2.15026,-0.962331 -2.15026,-2.14974 0,-1.187409 0.96285,-2.150293 2.15026,-2.150256 z M 83.035164,177.88695 h 2.99981 c 0.76814,-5e-5 1.47785,0.40965 1.86191,1.07487 0.38406,0.66521 0.38406,1.48505 0,2.15026 -0.38406,0.66521 -1.09377,1.07481 -1.86191,1.07487 h -2.99981 c -0.76817,-6e-5 -1.47783,-0.40966 -1.8619,-1.07487 -0.38405,-0.66521 -0.38405,-1.48505 0,-2.15026 0.38407,-0.66522 1.09373,-1.07492 1.8619,-1.07487 z m 104.999786,0 h 2.99982 c 0.76812,-5e-5 1.47784,0.40965 1.8619,1.07487 0.38406,0.66521 0.38406,1.48505 0,2.15026 -0.38406,0.66521 -1.09378,1.07481 -1.8619,1.07487 h -2.99982 c -0.76806,-6e-5 -1.47784,-0.40966 -1.8619,-1.07487 -0.38406,-0.66521 -0.38406,-1.48505 0,-2.15026 0.38406,-0.66522 1.09384,-1.07492 1.8619,-1.07487 z m 14.9996,0 h 3.00033 c 0.7681,-5e-5 1.47785,0.40965 1.86191,1.07487 0.38406,0.66521 0.38406,1.48505 0,2.15026 -0.38406,0.66521 -1.09381,1.07481 -1.86191,1.07487 h -3.00033 c -0.76808,-6e-5 -1.47784,-0.40966 -1.8619,-1.07487 -0.38406,-0.66521 -0.38406,-1.48505 0,-2.15026 0.38406,-0.66522 1.09382,-1.07492 1.8619,-1.07487 z m 105.00031,0 h 2.99982 c 0.76812,-5e-5 1.47784,0.40965 1.8619,1.07487 0.38406,0.66521 0.38406,1.48505 0,2.15026 -0.38406,0.66521 -1.09378,1.07481 -1.8619,1.07487 h -2.99982 c -0.76812,-6e-5 -1.47784,-0.40966 -1.8619,-1.07487 -0.38406,-0.66521 -0.38406,-1.48505 0,-2.15026 0.38406,-0.66522 1.09378,-1.07492 1.8619,-1.07487 z m 14.9996,0 h 3.00034 c 0.76812,-5e-5 1.47784,0.40965 1.8619,1.07487 0.38406,0.66521 0.38406,1.48505 0,2.15026 -0.38406,0.66521 -1.09378,1.07481 -1.8619,1.07487 h -3.00034 c -0.76812,-6e-5 -1.47784,-0.40966 -1.8619,-1.07487 -0.38406,-0.66521 -0.38406,-1.48505 0,-2.15026 0.38406,-0.66522 1.09378,-1.07492 1.8619,-1.07487 z m 105.00031,0 h 2.99982 c 0.76806,-5e-5 1.47784,0.40965 1.8619,1.07487 0.38406,0.66521 0.38406,1.48505 0,2.15026 -0.38406,0.66521 -1.09384,1.07481 -1.8619,1.07487 h -2.99982 c -0.76813,-6e-5 -1.47836,-0.40966 -1.86242,-1.07487 -0.38406,-0.66521 -0.38406,-1.48505 0,-2.15026 0.38406,-0.66522 1.09429,-1.07492 1.86242,-1.07487 z m -65.50711,32.93132 h 47.79966 v 28.79979 h -47.79966 z m -30.00024,12.2437 c 0.37187,0 0.74388,0.0961 1.07694,0.28887 0.66612,0.38544 1.07552,1.09747 1.07332,1.86707 0.002,0.7696 -0.4072,1.48214 -1.07332,1.86759 -0.66612,0.38544 -1.48724,0.38544 -2.15336,0 -0.66612,-0.38545 -1.07552,-1.09799 -1.07332,-1.86759 -0.002,-0.7696 0.4072,-1.48163 1.07332,-1.86707 0.33306,-0.19272 0.70456,-0.28887 1.07642,-0.28887 z M 86.741914,266.06038 h 6.00015 c 1.07178,6e-5 2.06239,0.57196 2.59829,1.50017 0.5359,0.92819 0.5359,2.0716 0,2.99981 -0.5359,0.9282 -1.52651,1.50012 -2.59829,1.50017 h -6.00015 c -1.07184,-5e-5 -2.06188,-0.57197 -2.59778,-1.50017 -0.5359,-0.92821 -0.5359,-2.07162 0,-2.99981 0.5359,-0.92821 1.52594,-1.50011 2.59778,-1.50017 z m 334.585256,0 h 6.00015 c 1.07186,5e-5 2.06239,0.57196 2.59829,1.50017 0.5359,0.92819 0.5359,2.0716 0,2.99981 -0.5359,0.9282 -1.52643,1.50012 -2.59829,1.50017 h -6.00015 c -1.07176,-5e-5 -2.06188,-0.57197 -2.59777,-1.50017 -0.5359,-0.92821 -0.5359,-2.07162 0,-2.99981 0.53589,-0.92821 1.52601,-1.50012 2.59777,-1.50017 z" /></g></svg>
