  0
SECTION
  2
HEADER
  9
$ACADVER
  1
AC1014
  9
$HANDSEED
  5
FFFF
  9
$MEASUREMENT
 70
     1
  0
ENDSEC
  0
SECTION
  2
TABLES
  0
TABLE
  2
VPORT
  5
8
330
0
100
AcDbSymbolTable
 70
     4
  0
VPORT
  5
2E
330
8
100
AcDbSymbolTableRecord
100
AcDbViewportTableRecord
  2
*ACTIVE
 70
     0
 10
0.0
 20
0.0
 11
1.0
 21
1.0
 12
210.0
 22
148.5
 13
0.0
 23
0.0
 14
10.0
 24
10.0
 15
10.0
 25
10.0
 16
0.0
 26
0.0
 36
1.0
 17
0.0
 27
0.0
 37
0.0
 40
341.0
 41
1.24
 42
50.0
 43
0.0
 44
0.0
 50
0.0
 51
0.0
 71
     0
 72
   100
 73
     1
 74
     3
 75
     0
 76
     0
 77
     0
 78
     0
  0
ENDTAB
  0
TABLE
  2
LTYPE
  5
5
330
0
100
AcDbSymbolTable
 70
     1
  0
LTYPE
  5
14
330
5
100
AcDbSymbolTableRecord
100
AcDbLinetypeTableRecord
  2
BYBLOCK
 70
     0
  3

 72
    65
 73
     0
 40
0.0
  0
LTYPE
  5
15
330
5
100
AcDbSymbolTableRecord
100
AcDbLinetypeTableRecord
  2
BYLAYER
 70
     0
  3

 72
    65
 73
     0
 40
0.0
  0
LTYPE
  5
16
330
5
100
AcDbSymbolTableRecord
100
AcDbLinetypeTableRecord
  2
CONTINUOUS
 70
     0
  3
Solid line
 72
    65
 73
     0
 40
0.0
  0
ENDTAB
  0
TABLE
  2
LAYER
  5
2
100
AcDbSymbolTable
 70
2
  0
LAYER
  5
50
100
AcDbSymbolTableRecord
100
AcDbLayerTableRecord
  2
0
 70
0
  6
CONTINUOUS
  0
LAYER
  5
51
100
AcDbSymbolTableRecord
100
AcDbLayerTableRecord
  2
Layer_1
 70
0
  6
CONTINUOUS
  0
ENDTAB
  0
TABLE
  2
STYLE
  5
3
330
0
100
AcDbSymbolTable
 70
     1
  0
STYLE
  5
11
330
3
100
AcDbSymbolTableRecord
100
AcDbTextStyleTableRecord
  2
STANDARD
 70
     0
 40
0.0
 41
1.0
 50
0.0
 71
     0
 42
2.5
  3
txt
  4

  0
ENDTAB
  0
TABLE
  2
VIEW
  5
6
330
0
100
AcDbSymbolTable
 70
     0
  0
ENDTAB
  0
TABLE
  2
UCS
  5
7
330
0
100
AcDbSymbolTable
 70
     0
  0
ENDTAB
  0
TABLE
  2
APPID
  5
9
330
0
100
AcDbSymbolTable
 70
     2
  0
APPID
  5
12
330
9
100
AcDbSymbolTableRecord
100
AcDbRegAppTableRecord
  2
ACAD
 70
     0
  0
ENDTAB
  0
TABLE
  2
DIMSTYLE
  5
A
330
0
100
AcDbSymbolTable
 70
     1
  0
DIMSTYLE
105
27
330
A
100
AcDbSymbolTableRecord
100
AcDbDimStyleTableRecord
  2
ISO-25
 70
     0
  3

  4

  5

  6

  7

 40
1.0
 41
2.5
 42
0.625
 43
3.75
 44
1.25
 45
0.0
 46
0.0
 47
0.0
 48
0.0
140
2.5
141
2.5
142
0.0
143
0.03937007874016
144
1.0
145
0.0
146
1.0
147
0.625
 71
     0
 72
     0
 73
     0
 74
     0
 75
     0
 76
     0
 77
     1
 78
     8
170
     0
171
     3
172
     1
173
     0
174
     0
175
     0
176
     0
177
     0
178
     0
270
     2
271
     2
272
     2
273
     2
274
     3
340
11
275
     0
280
     0
281
     0
282
     0
283
     0
284
     8
285
     0
286
     0
287
     3
288
     0
  0
ENDTAB
  0
TABLE
  2
BLOCK_RECORD
  5
1
330
0
100
AcDbSymbolTable
 70
     1
  0
BLOCK_RECORD
  5
1F
330
1
100
AcDbSymbolTableRecord
100
AcDbBlockTableRecord
  2
*MODEL_SPACE
  0
BLOCK_RECORD
  5
1B
330
1
100
AcDbSymbolTableRecord
100
AcDbBlockTableRecord
  2
*PAPER_SPACE
  0
ENDTAB
  0
ENDSEC
  0
SECTION
  2
BLOCKS
  0
BLOCK
  5
20
330
1F
100
AcDbEntity
  8
0
100
AcDbBlockBegin
  2
*MODEL_SPACE
 70
     0
 10
0.0
 20
0.0
 30
0.0
  3
*MODEL_SPACE
  1

  0
ENDBLK
  5
21
330
1F
100
AcDbEntity
  8
0
100
AcDbBlockEnd
  0
BLOCK
  5
1C
330
1B
100
AcDbEntity
 67
     1
  8
0
100
AcDbBlockBegin
  2
*PAPER_SPACE
  1

  0
ENDBLK
  5
1D
330
1B
100
AcDbEntity
 67
     1
  8
0
100
AcDbBlockEnd
  0
ENDSEC
  0
SECTION
  2
ENTITIES
  0
LINE
  5
100
100
AcDbEntity
  8
Layer_1
 62
7
100
AcDbLine
 10
-256.903000
 20
308.712438
 30
0.0
 11
-241.903019
 21
308.712438
 31
0.0
  0
LINE
  5
101
100
AcDbEntity
  8
Layer_1
 62
7
100
AcDbLine
 10
-241.903019
 20
308.712438
 30
0.0
 11
-241.903019
 21
308.212437
 31
0.0
  0
LINE
  5
102
100
AcDbEntity
  8
Layer_1
 62
7
100
AcDbLine
 10
-241.903019
 20
308.212437
 30
0.0
 11
-240.903020
 21
308.212437
 31
0.0
  0
LINE
  5
103
100
AcDbEntity
  8
Layer_1
 62
7
100
AcDbLine
 10
-240.903020
 20
308.212437
 30
0.0
 11
-240.903020
 21
320.974368
 31
0.0
  0
LINE
  5
104
100
AcDbEntity
  8
Layer_1
 62
7
100
AcDbLine
 10
-240.903020
 20
320.974368
 30
0.0
 11
-200.317285
 21
320.974368
 31
0.0
  0
LINE
  5
105
100
AcDbEntity
  8
Layer_1
 62
7
100
AcDbLine
 10
-200.317285
 20
320.974368
 30
0.0
 11
-200.317285
 21
308.212437
 31
0.0
  0
LINE
  5
106
100
AcDbEntity
  8
Layer_1
 62
7
100
AcDbLine
 10
-200.317285
 20
308.212437
 30
0.0
 11
-199.317285
 21
308.212437
 31
0.0
  0
LINE
  5
107
100
AcDbEntity
  8
Layer_1
 62
7
100
AcDbLine
 10
-199.317285
 20
308.212437
 30
0.0
 11
-199.317285
 21
308.712438
 31
0.0
  0
LINE
  5
108
100
AcDbEntity
  8
Layer_1
 62
7
100
AcDbLine
 10
-199.317285
 20
308.712438
 30
0.0
 11
142.096498
 21
308.712438
 31
0.0
  0
LINE
  5
109
100
AcDbEntity
  8
Layer_1
 62
7
100
AcDbLine
 10
142.096498
 20
308.712438
 30
0.0
 11
142.096498
 21
308.212437
 31
0.0
  0
LINE
  5
10a
100
AcDbEntity
  8
Layer_1
 62
7
100
AcDbLine
 10
142.096498
 20
308.212437
 30
0.0
 11
143.096490
 21
308.212437
 31
0.0
  0
LINE
  5
10b
100
AcDbEntity
  8
Layer_1
 62
7
100
AcDbLine
 10
143.096490
 20
308.212437
 30
0.0
 11
143.096490
 21
320.974368
 31
0.0
  0
LINE
  5
10c
100
AcDbEntity
  8
Layer_1
 62
7
100
AcDbLine
 10
143.096490
 20
320.974368
 30
0.0
 11
183.682226
 21
320.974368
 31
0.0
  0
LINE
  5
10d
100
AcDbEntity
  8
Layer_1
 62
7
100
AcDbLine
 10
183.682226
 20
320.974368
 30
0.0
 11
183.682226
 21
308.212437
 31
0.0
  0
LINE
  5
10e
100
AcDbEntity
  8
Layer_1
 62
7
100
AcDbLine
 10
183.682226
 20
308.212437
 30
0.0
 11
184.682243
 21
308.212437
 31
0.0
  0
LINE
  5
10f
100
AcDbEntity
  8
Layer_1
 62
7
100
AcDbLine
 10
184.682243
 20
308.212437
 30
0.0
 11
184.682243
 21
308.712438
 31
0.0
  0
LINE
  5
110
100
AcDbEntity
  8
Layer_1
 62
7
100
AcDbLine
 10
184.682243
 20
308.712438
 30
0.0
 11
199.682221
 21
308.712438
 31
0.0
  0
LINE
  5
111
100
AcDbEntity
  8
Layer_1
 62
7
100
AcDbLine
 10
199.682221
 20
308.712438
 30
0.0
 11
199.682221
 21
292.712456
 31
0.0
  0
LINE
  5
112
100
AcDbEntity
  8
Layer_1
 62
7
100
AcDbLine
 10
199.682221
 20
292.712456
 30
0.0
 11
199.389328
 21
292.712456
 31
0.0
  0
LINE
  5
113
100
AcDbEntity
  8
Layer_1
 62
7
100
AcDbLine
 10
199.389328
 20
292.712456
 30
0.0
 11
199.389328
 21
290.450512
 31
0.0
  0
LINE
  5
114
100
AcDbEntity
  8
Layer_1
 62
7
100
AcDbLine
 10
199.389328
 20
290.450512
 30
0.0
 11
201.651274
 21
290.450512
 31
0.0
  0
LINE
  5
115
100
AcDbEntity
  8
Layer_1
 62
7
100
AcDbLine
 10
201.651274
 20
290.450512
 30
0.0
 11
201.651274
 21
290.743405
 31
0.0
  0
LINE
  5
116
100
AcDbEntity
  8
Layer_1
 62
7
100
AcDbLine
 10
201.651274
 20
290.743405
 30
0.0
 11
217.651243
 21
290.743405
 31
0.0
  0
LINE
  5
117
100
AcDbEntity
  8
Layer_1
 62
7
100
AcDbLine
 10
217.651243
 20
290.743405
 30
0.0
 11
217.651243
 21
64.157892
 31
0.0
  0
LINE
  5
118
100
AcDbEntity
  8
Layer_1
 62
7
100
AcDbLine
 10
217.651243
 20
64.157892
 30
0.0
 11
201.651274
 21
64.157892
 31
0.0
  0
LINE
  5
119
100
AcDbEntity
  8
Layer_1
 62
7
100
AcDbLine
 10
201.651274
 20
64.157892
 30
0.0
 11
201.651274
 21
64.450786
 31
0.0
  0
LINE
  5
11a
100
AcDbEntity
  8
Layer_1
 62
7
100
AcDbLine
 10
201.651274
 20
64.450786
 30
0.0
 11
199.389328
 21
64.450786
 31
0.0
  0
LINE
  5
11b
100
AcDbEntity
  8
Layer_1
 62
7
100
AcDbLine
 10
199.389328
 20
64.450786
 30
0.0
 11
199.389328
 21
62.188866
 31
0.0
  0
LINE
  5
11c
100
AcDbEntity
  8
Layer_1
 62
7
100
AcDbLine
 10
199.389328
 20
62.188866
 30
0.0
 11
199.682221
 21
62.188866
 31
0.0
  0
LINE
  5
11d
100
AcDbEntity
  8
Layer_1
 62
7
100
AcDbLine
 10
199.682221
 20
62.188866
 30
0.0
 11
199.682221
 21
46.188870
 31
0.0
  0
LINE
  5
11e
100
AcDbEntity
  8
Layer_1
 62
7
100
AcDbLine
 10
199.682221
 20
46.188870
 30
0.0
 11
-256.903000
 21
46.188870
 31
0.0
  0
LINE
  5
11f
100
AcDbEntity
  8
Layer_1
 62
7
100
AcDbLine
 10
-256.903000
 20
46.188870
 30
0.0
 11
-256.903000
 21
62.188866
 31
0.0
  0
LINE
  5
120
100
AcDbEntity
  8
Layer_1
 62
7
100
AcDbLine
 10
-256.903000
 20
62.188866
 30
0.0
 11
-256.610107
 21
62.188866
 31
0.0
  0
LINE
  5
121
100
AcDbEntity
  8
Layer_1
 62
7
100
AcDbLine
 10
-256.610107
 20
62.188866
 30
0.0
 11
-256.610107
 21
64.450786
 31
0.0
  0
LINE
  5
122
100
AcDbEntity
  8
Layer_1
 62
7
100
AcDbLine
 10
-256.610107
 20
64.450786
 30
0.0
 11
-258.872051
 21
64.450786
 31
0.0
  0
LINE
  5
123
100
AcDbEntity
  8
Layer_1
 62
7
100
AcDbLine
 10
-258.872051
 20
64.450786
 30
0.0
 11
-258.872051
 21
64.157892
 31
0.0
  0
LINE
  5
124
100
AcDbEntity
  8
Layer_1
 62
7
100
AcDbLine
 10
-258.872051
 20
64.157892
 30
0.0
 11
-274.872031
 21
64.157892
 31
0.0
  0
LINE
  5
125
100
AcDbEntity
  8
Layer_1
 62
7
100
AcDbLine
 10
-274.872031
 20
64.157892
 30
0.0
 11
-274.872031
 21
290.743405
 31
0.0
  0
LINE
  5
126
100
AcDbEntity
  8
Layer_1
 62
7
100
AcDbLine
 10
-274.872031
 20
290.743405
 30
0.0
 11
-258.872051
 21
290.743405
 31
0.0
  0
LINE
  5
127
100
AcDbEntity
  8
Layer_1
 62
7
100
AcDbLine
 10
-258.872051
 20
290.743405
 30
0.0
 11
-258.872051
 21
290.450512
 31
0.0
  0
LINE
  5
128
100
AcDbEntity
  8
Layer_1
 62
7
100
AcDbLine
 10
-258.872051
 20
290.450512
 30
0.0
 11
-256.610107
 21
290.450512
 31
0.0
  0
LINE
  5
129
100
AcDbEntity
  8
Layer_1
 62
7
100
AcDbLine
 10
-256.610107
 20
290.450512
 30
0.0
 11
-256.610107
 21
292.712456
 31
0.0
  0
LINE
  5
12a
100
AcDbEntity
  8
Layer_1
 62
7
100
AcDbLine
 10
-256.610107
 20
292.712456
 30
0.0
 11
-256.903000
 21
292.712456
 31
0.0
  0
LINE
  5
12b
100
AcDbEntity
  8
Layer_1
 62
7
100
AcDbLine
 10
-256.903000
 20
292.712456
 30
0.0
 11
-256.903000
 21
308.712438
 31
0.0
  0
LINE
  5
12c
100
AcDbEntity
  8
Layer_1
 62
7
100
AcDbLine
 10
37.389522
 20
146.093588
 30
0.0
 11
40.389523
 21
146.093588
 31
0.0
  0
SPLINE
  5
12d
100
AcDbEntity
  8
Layer_1
 62
7
100
AcDbSpline
 70
8
 71
3
 72
8
 73
4
 74
0
 40
0
 40
0
 40
0
 40
0
 40
1
 40
1
 40
1
 40
1
 10
40.389523
 20
146.093588
 30
0.0
 10
41.157643
 20
146.093588
 30
0.0
 10
41.867416
 20
146.503375
 30
0.0
 10
42.251476
 20
147.168587
 30
0.0
  0
SPLINE
  5
12e
100
AcDbEntity
  8
Layer_1
 62
7
100
AcDbSpline
 70
8
 71
3
 72
8
 73
4
 74
0
 40
0
 40
0
 40
0
 40
0
 40
1
 40
1
 40
1
 40
1
 10
42.251476
 20
147.168587
 30
0.0
 10
42.635536
 20
147.833798
 30
0.0
 10
42.635536
 20
148.653373
 30
0.0
 10
42.251476
 20
149.318584
 30
0.0
  0
SPLINE
  5
12f
100
AcDbEntity
  8
Layer_1
 62
7
100
AcDbSpline
 70
8
 71
3
 72
8
 73
4
 74
0
 40
0
 40
0
 40
0
 40
0
 40
1
 40
1
 40
1
 40
1
 10
42.251476
 20
149.318584
 30
0.0
 10
41.867416
 20
149.983796
 30
0.0
 10
41.157643
 20
150.393583
 30
0.0
 10
40.389523
 20
150.393583
 30
0.0
  0
LINE
  5
130
100
AcDbEntity
  8
Layer_1
 62
7
100
AcDbLine
 10
40.389523
 20
150.393583
 30
0.0
 11
37.389522
 21
150.393583
 31
0.0
  0
SPLINE
  5
131
100
AcDbEntity
  8
Layer_1
 62
7
100
AcDbSpline
 70
8
 71
3
 72
8
 73
4
 74
0
 40
0
 40
0
 40
0
 40
0
 40
1
 40
1
 40
1
 40
1
 10
37.389522
 20
150.393583
 30
0.0
 10
36.621402
 20
150.393583
 30
0.0
 10
35.911630
 20
149.983796
 30
0.0
 10
35.527570
 20
149.318584
 30
0.0
  0
SPLINE
  5
132
100
AcDbEntity
  8
Layer_1
 62
7
100
AcDbSpline
 70
8
 71
3
 72
8
 73
4
 74
0
 40
0
 40
0
 40
0
 40
0
 40
1
 40
1
 40
1
 40
1
 10
35.527570
 20
149.318584
 30
0.0
 10
35.143510
 20
148.653373
 30
0.0
 10
35.143510
 20
147.833798
 30
0.0
 10
35.527570
 20
147.168587
 30
0.0
  0
SPLINE
  5
133
100
AcDbEntity
  8
Layer_1
 62
7
100
AcDbSpline
 70
8
 71
3
 72
8
 73
4
 74
0
 40
0
 40
0
 40
0
 40
0
 40
1
 40
1
 40
1
 40
1
 10
35.527570
 20
147.168587
 30
0.0
 10
35.911630
 20
146.503375
 30
0.0
 10
36.621402
 20
146.093588
 30
0.0
 10
37.389522
 20
146.093588
 30
0.0
  0
LINE
  5
134
100
AcDbEntity
  8
Layer_1
 62
7
100
AcDbLine
 10
37.389522
 20
146.093588
 30
0.0
 11
37.389522
 21
146.093588
 31
0.0
  0
LINE
  5
135
100
AcDbEntity
  8
Layer_1
 62
7
100
AcDbLine
 10
-82.610327
 20
146.093588
 30
0.0
 11
-79.610329
 21
146.093588
 31
0.0
  0
SPLINE
  5
136
100
AcDbEntity
  8
Layer_1
 62
7
100
AcDbSpline
 70
8
 71
3
 72
8
 73
4
 74
0
 40
0
 40
0
 40
0
 40
0
 40
1
 40
1
 40
1
 40
1
 10
-79.610329
 20
146.093588
 30
0.0
 10
-78.842209
 20
146.093588
 30
0.0
 10
-78.132437
 20
146.503375
 30
0.0
 10
-77.748377
 20
147.168587
 30
0.0
  0
SPLINE
  5
137
100
AcDbEntity
  8
Layer_1
 62
7
100
AcDbSpline
 70
8
 71
3
 72
8
 73
4
 74
0
 40
0
 40
0
 40
0
 40
0
 40
1
 40
1
 40
1
 40
1
 10
-77.748377
 20
147.168587
 30
0.0
 10
-77.364317
 20
147.833798
 30
0.0
 10
-77.364317
 20
148.653373
 30
0.0
 10
-77.748377
 20
149.318584
 30
0.0
  0
SPLINE
  5
138
100
AcDbEntity
  8
Layer_1
 62
7
100
AcDbSpline
 70
8
 71
3
 72
8
 73
4
 74
0
 40
0
 40
0
 40
0
 40
0
 40
1
 40
1
 40
1
 40
1
 10
-77.748377
 20
149.318584
 30
0.0
 10
-78.132437
 20
149.983796
 30
0.0
 10
-78.842209
 20
150.393583
 30
0.0
 10
-79.610329
 20
150.393583
 30
0.0
  0
LINE
  5
139
100
AcDbEntity
  8
Layer_1
 62
7
100
AcDbLine
 10
-79.610329
 20
150.393583
 30
0.0
 11
-82.610327
 21
150.393583
 31
0.0
  0
SPLINE
  5
13a
100
AcDbEntity
  8
Layer_1
 62
7
100
AcDbSpline
 70
8
 71
3
 72
8
 73
4
 74
0
 40
0
 40
0
 40
0
 40
0
 40
1
 40
1
 40
1
 40
1
 10
-82.610327
 20
150.393583
 30
0.0
 10
-83.378447
 20
150.393583
 30
0.0
 10
-84.088220
 20
149.983796
 30
0.0
 10
-84.472280
 20
149.318584
 30
0.0
  0
SPLINE
  5
13b
100
AcDbEntity
  8
Layer_1
 62
7
100
AcDbSpline
 70
8
 71
3
 72
8
 73
4
 74
0
 40
0
 40
0
 40
0
 40
0
 40
1
 40
1
 40
1
 40
1
 10
-84.472280
 20
149.318584
 30
0.0
 10
-84.856340
 20
148.653373
 30
0.0
 10
-84.856340
 20
147.833798
 30
0.0
 10
-84.472280
 20
147.168587
 30
0.0
  0
SPLINE
  5
13c
100
AcDbEntity
  8
Layer_1
 62
7
100
AcDbSpline
 70
8
 71
3
 72
8
 73
4
 74
0
 40
0
 40
0
 40
0
 40
0
 40
1
 40
1
 40
1
 40
1
 10
-84.472280
 20
147.168587
 30
0.0
 10
-84.088220
 20
146.503375
 30
0.0
 10
-83.378447
 20
146.093588
 30
0.0
 10
-82.610327
 20
146.093588
 30
0.0
  0
LINE
  5
13d
100
AcDbEntity
  8
Layer_1
 62
7
100
AcDbLine
 10
-82.610327
 20
146.093588
 30
0.0
 11
-82.610327
 21
146.093588
 31
0.0
  0
LINE
  5
13e
100
AcDbEntity
  8
Layer_1
 62
7
100
AcDbLine
 10
-94.610312
 20
255.393450
 30
0.0
 11
-97.610307
 21
255.393450
 31
0.0
  0
SPLINE
  5
13f
100
AcDbEntity
  8
Layer_1
 62
7
100
AcDbSpline
 70
8
 71
3
 72
8
 73
4
 74
0
 40
0
 40
0
 40
0
 40
0
 40
1
 40
1
 40
1
 40
1
 10
-97.610307
 20
255.393450
 30
0.0
 10
-98.797718
 20
255.393450
 30
0.0
 10
-99.760305
 20
254.430863
 30
0.0
 10
-99.760305
 20
253.243452
 30
0.0
  0
SPLINE
  5
140
100
AcDbEntity
  8
Layer_1
 62
7
100
AcDbSpline
 70
8
 71
3
 72
8
 73
4
 74
0
 40
0
 40
0
 40
0
 40
0
 40
1
 40
1
 40
1
 40
1
 10
-99.760305
 20
253.243452
 30
0.0
 10
-99.760305
 20
252.056042
 30
0.0
 10
-98.797718
 20
251.093455
 30
0.0
 10
-97.610307
 20
251.093455
 30
0.0
  0
LINE
  5
141
100
AcDbEntity
  8
Layer_1
 62
7
100
AcDbLine
 10
-97.610307
 20
251.093455
 30
0.0
 11
-94.610312
 21
251.093455
 31
0.0
  0
SPLINE
  5
142
100
AcDbEntity
  8
Layer_1
 62
7
100
AcDbSpline
 70
8
 71
3
 72
8
 73
4
 74
0
 40
0
 40
0
 40
0
 40
0
 40
1
 40
1
 40
1
 40
1
 10
-94.610312
 20
251.093455
 30
0.0
 10
-93.842192
 20
251.093455
 30
0.0
 10
-93.132420
 20
251.503242
 30
0.0
 10
-92.748359
 20
252.168454
 30
0.0
  0
SPLINE
  5
143
100
AcDbEntity
  8
Layer_1
 62
7
100
AcDbSpline
 70
8
 71
3
 72
8
 73
4
 74
0
 40
0
 40
0
 40
0
 40
0
 40
1
 40
1
 40
1
 40
1
 10
-92.748359
 20
252.168454
 30
0.0
 10
-92.364299
 20
252.833665
 30
0.0
 10
-92.364299
 20
253.653239
 30
0.0
 10
-92.748359
 20
254.318451
 30
0.0
  0
SPLINE
  5
144
100
AcDbEntity
  8
Layer_1
 62
7
100
AcDbSpline
 70
8
 71
3
 72
8
 73
4
 74
0
 40
0
 40
0
 40
0
 40
0
 40
1
 40
1
 40
1
 40
1
 10
-92.748359
 20
254.318451
 30
0.0
 10
-93.132420
 20
254.983663
 30
0.0
 10
-93.842192
 20
255.393450
 30
0.0
 10
-94.610312
 20
255.393450
 30
0.0
  0
LINE
  5
145
100
AcDbEntity
  8
Layer_1
 62
7
100
AcDbLine
 10
-94.610312
 20
255.393450
 30
0.0
 11
-94.610312
 21
255.393450
 31
0.0
  0
LINE
  5
146
100
AcDbEntity
  8
Layer_1
 62
7
100
AcDbLine
 10
-97.610307
 20
146.093588
 30
0.0
 11
-94.610312
 21
146.093588
 31
0.0
  0
SPLINE
  5
147
100
AcDbEntity
  8
Layer_1
 62
7
100
AcDbSpline
 70
8
 71
3
 72
8
 73
4
 74
0
 40
0
 40
0
 40
0
 40
0
 40
1
 40
1
 40
1
 40
1
 10
-94.610312
 20
146.093588
 30
0.0
 10
-93.842192
 20
146.093588
 30
0.0
 10
-93.132420
 20
146.503375
 30
0.0
 10
-92.748359
 20
147.168587
 30
0.0
  0
SPLINE
  5
148
100
AcDbEntity
  8
Layer_1
 62
7
100
AcDbSpline
 70
8
 71
3
 72
8
 73
4
 74
0
 40
0
 40
0
 40
0
 40
0
 40
1
 40
1
 40
1
 40
1
 10
-92.748359
 20
147.168587
 30
0.0
 10
-92.364299
 20
147.833798
 30
0.0
 10
-92.364299
 20
148.653373
 30
0.0
 10
-92.748359
 20
149.318584
 30
0.0
  0
SPLINE
  5
149
100
AcDbEntity
  8
Layer_1
 62
7
100
AcDbSpline
 70
8
 71
3
 72
8
 73
4
 74
0
 40
0
 40
0
 40
0
 40
0
 40
1
 40
1
 40
1
 40
1
 10
-92.748359
 20
149.318584
 30
0.0
 10
-93.132420
 20
149.983796
 30
0.0
 10
-93.842192
 20
150.393583
 30
0.0
 10
-94.610312
 20
150.393583
 30
0.0
  0
LINE
  5
14a
100
AcDbEntity
  8
Layer_1
 62
7
100
AcDbLine
 10
-94.610312
 20
150.393583
 30
0.0
 11
-97.610307
 21
150.393583
 31
0.0
  0
SPLINE
  5
14b
100
AcDbEntity
  8
Layer_1
 62
7
100
AcDbSpline
 70
8
 71
3
 72
8
 73
4
 74
0
 40
0
 40
0
 40
0
 40
0
 40
1
 40
1
 40
1
 40
1
 10
-97.610307
 20
150.393583
 30
0.0
 10
-98.378428
 20
150.393583
 30
0.0
 10
-99.088200
 20
149.983796
 30
0.0
 10
-99.472260
 20
149.318584
 30
0.0
  0
SPLINE
  5
14c
100
AcDbEntity
  8
Layer_1
 62
7
100
AcDbSpline
 70
8
 71
3
 72
8
 73
4
 74
0
 40
0
 40
0
 40
0
 40
0
 40
1
 40
1
 40
1
 40
1
 10
-99.472260
 20
149.318584
 30
0.0
 10
-99.856320
 20
148.653373
 30
0.0
 10
-99.856320
 20
147.833798
 30
0.0
 10
-99.472260
 20
147.168587
 30
0.0
  0
SPLINE
  5
14d
100
AcDbEntity
  8
Layer_1
 62
7
100
AcDbSpline
 70
8
 71
3
 72
8
 73
4
 74
0
 40
0
 40
0
 40
0
 40
0
 40
1
 40
1
 40
1
 40
1
 10
-99.472260
 20
147.168587
 30
0.0
 10
-99.088200
 20
146.503375
 30
0.0
 10
-98.378428
 20
146.093588
 30
0.0
 10
-97.610307
 20
146.093588
 30
0.0
  0
LINE
  5
14e
100
AcDbEntity
  8
Layer_1
 62
7
100
AcDbLine
 10
-97.610307
 20
146.093588
 30
0.0
 11
-97.610307
 21
146.093588
 31
0.0
  0
SPLINE
  5
14f
100
AcDbEntity
  8
Layer_1
 62
7
100
AcDbSpline
 70
8
 71
3
 72
8
 73
4
 74
0
 40
0
 40
0
 40
0
 40
0
 40
1
 40
1
 40
1
 40
1
 10
37.389522
 20
255.393450
 30
0.0
 10
36.202112
 20
255.393450
 30
0.0
 10
35.239525
 20
254.430863
 30
0.0
 10
35.239525
 20
253.243452
 30
0.0
  0
SPLINE
  5
150
100
AcDbEntity
  8
Layer_1
 62
7
100
AcDbSpline
 70
8
 71
3
 72
8
 73
4
 74
0
 40
0
 40
0
 40
0
 40
0
 40
1
 40
1
 40
1
 40
1
 10
35.239525
 20
253.243452
 30
0.0
 10
35.239525
 20
252.056042
 30
0.0
 10
36.202112
 20
251.093455
 30
0.0
 10
37.389522
 20
251.093455
 30
0.0
  0
LINE
  5
151
100
AcDbEntity
  8
Layer_1
 62
7
100
AcDbLine
 10
37.389522
 20
251.093455
 30
0.0
 11
40.389523
 21
251.093455
 31
0.0
  0
SPLINE
  5
152
100
AcDbEntity
  8
Layer_1
 62
7
100
AcDbSpline
 70
8
 71
3
 72
8
 73
4
 74
0
 40
0
 40
0
 40
0
 40
0
 40
1
 40
1
 40
1
 40
1
 10
40.389523
 20
251.093455
 30
0.0
 10
41.157643
 20
251.093455
 30
0.0
 10
41.867416
 20
251.503242
 30
0.0
 10
42.251476
 20
252.168454
 30
0.0
  0
SPLINE
  5
153
100
AcDbEntity
  8
Layer_1
 62
7
100
AcDbSpline
 70
8
 71
3
 72
8
 73
4
 74
0
 40
0
 40
0
 40
0
 40
0
 40
1
 40
1
 40
1
 40
1
 10
42.251476
 20
252.168454
 30
0.0
 10
42.635536
 20
252.833665
 30
0.0
 10
42.635536
 20
253.653239
 30
0.0
 10
42.251476
 20
254.318451
 30
0.0
  0
SPLINE
  5
154
100
AcDbEntity
  8
Layer_1
 62
7
100
AcDbSpline
 70
8
 71
3
 72
8
 73
4
 74
0
 40
0
 40
0
 40
0
 40
0
 40
1
 40
1
 40
1
 40
1
 10
42.251476
 20
254.318451
 30
0.0
 10
41.867416
 20
254.983663
 30
0.0
 10
41.157643
 20
255.393450
 30
0.0
 10
40.389523
 20
255.393450
 30
0.0
  0
LINE
  5
155
100
AcDbEntity
  8
Layer_1
 62
7
100
AcDbLine
 10
40.389523
 20
255.393450
 30
0.0
 11
37.389522
 21
255.393450
 31
0.0
  0
LINE
  5
156
100
AcDbEntity
  8
Layer_1
 62
7
100
AcDbLine
 10
3.889565
 20
258.243448
 30
0.0
 11
-61.110352
 21
258.243448
 31
0.0
  0
LINE
  5
157
100
AcDbEntity
  8
Layer_1
 62
7
100
AcDbLine
 10
-61.110352
 20
258.243448
 30
0.0
 11
-86.110321
 21
233.243479
 31
0.0
  0
LINE
  5
158
100
AcDbEntity
  8
Layer_1
 62
7
100
AcDbLine
 10
-86.110321
 20
233.243479
 30
0.0
 11
-86.110321
 21
168.243561
 31
0.0
  0
LINE
  5
159
100
AcDbEntity
  8
Layer_1
 62
7
100
AcDbLine
 10
-86.110321
 20
168.243561
 30
0.0
 11
-61.110352
 21
143.243593
 31
0.0
  0
LINE
  5
15a
100
AcDbEntity
  8
Layer_1
 62
7
100
AcDbLine
 10
-61.110352
 20
143.243593
 30
0.0
 11
3.889565
 21
143.243593
 31
0.0
  0
LINE
  5
15b
100
AcDbEntity
  8
Layer_1
 62
7
100
AcDbLine
 10
3.889565
 20
143.243593
 30
0.0
 11
28.889529
 21
168.243561
 31
0.0
  0
LINE
  5
15c
100
AcDbEntity
  8
Layer_1
 62
7
100
AcDbLine
 10
28.889529
 20
168.243561
 30
0.0
 11
28.889529
 21
233.243479
 31
0.0
  0
LINE
  5
15d
100
AcDbEntity
  8
Layer_1
 62
7
100
AcDbLine
 10
28.889529
 20
233.243479
 30
0.0
 11
3.889565
 21
258.243448
 31
0.0
  0
LINE
  5
15e
100
AcDbEntity
  8
Layer_1
 62
7
100
AcDbLine
 10
122.682297
 20
100.343647
 30
0.0
 11
124.682307
 21
100.343647
 31
0.0
  0
LINE
  5
15f
100
AcDbEntity
  8
Layer_1
 62
7
100
AcDbLine
 10
124.682307
 20
100.343647
 30
0.0
 11
124.682307
 21
113.243630
 31
0.0
  0
LINE
  5
160
100
AcDbEntity
  8
Layer_1
 62
7
100
AcDbLine
 10
124.682307
 20
113.243630
 30
0.0
 11
76.882372
 21
113.243630
 31
0.0
  0
LINE
  5
161
100
AcDbEntity
  8
Layer_1
 62
7
100
AcDbLine
 10
76.882372
 20
113.243630
 30
0.0
 11
76.882372
 21
100.343647
 31
0.0
  0
LINE
  5
162
100
AcDbEntity
  8
Layer_1
 62
7
100
AcDbLine
 10
76.882372
 20
100.343647
 30
0.0
 11
78.882354
 21
100.343647
 31
0.0
  0
LINE
  5
163
100
AcDbEntity
  8
Layer_1
 62
7
100
AcDbLine
 10
78.882354
 20
100.343647
 30
0.0
 11
78.882354
 21
111.243631
 31
0.0
  0
LINE
  5
164
100
AcDbEntity
  8
Layer_1
 62
7
100
AcDbLine
 10
78.882354
 20
111.243631
 30
0.0
 11
122.682297
 21
111.243631
 31
0.0
  0
LINE
  5
165
100
AcDbEntity
  8
Layer_1
 62
7
100
AcDbLine
 10
122.682297
 20
111.243631
 30
0.0
 11
122.682297
 21
100.343647
 31
0.0
  0
SPLINE
  5
166
100
AcDbEntity
  8
Layer_1
 62
7
100
AcDbSpline
 70
8
 71
3
 72
8
 73
4
 74
0
 40
0
 40
0
 40
0
 40
0
 40
1
 40
1
 40
1
 40
1
 10
22.389545
 20
150.393583
 30
0.0
 10
21.621425
 20
150.393583
 30
0.0
 10
20.911652
 20
149.983796
 30
0.0
 10
20.527592
 20
149.318584
 30
0.0
  0
SPLINE
  5
167
100
AcDbEntity
  8
Layer_1
 62
7
100
AcDbSpline
 70
8
 71
3
 72
8
 73
4
 74
0
 40
0
 40
0
 40
0
 40
0
 40
1
 40
1
 40
1
 40
1
 10
20.527592
 20
149.318584
 30
0.0
 10
20.143532
 20
148.653373
 30
0.0
 10
20.143532
 20
147.833798
 30
0.0
 10
20.527592
 20
147.168587
 30
0.0
  0
SPLINE
  5
168
100
AcDbEntity
  8
Layer_1
 62
7
100
AcDbSpline
 70
8
 71
3
 72
8
 73
4
 74
0
 40
0
 40
0
 40
0
 40
0
 40
1
 40
1
 40
1
 40
1
 10
20.527592
 20
147.168587
 30
0.0
 10
20.911652
 20
146.503375
 30
0.0
 10
21.621425
 20
146.093588
 30
0.0
 10
22.389545
 20
146.093588
 30
0.0
  0
LINE
  5
169
100
AcDbEntity
  8
Layer_1
 62
7
100
AcDbLine
 10
22.389545
 20
146.093588
 30
0.0
 11
25.389546
 21
146.093588
 31
0.0
  0
SPLINE
  5
16a
100
AcDbEntity
  8
Layer_1
 62
7
100
AcDbSpline
 70
8
 71
3
 72
8
 73
4
 74
0
 40
0
 40
0
 40
0
 40
0
 40
1
 40
1
 40
1
 40
1
 10
25.389546
 20
146.093588
 30
0.0
 10
26.157666
 20
146.093588
 30
0.0
 10
26.867438
 20
146.503375
 30
0.0
 10
27.251498
 20
147.168587
 30
0.0
  0
SPLINE
  5
16b
100
AcDbEntity
  8
Layer_1
 62
7
100
AcDbSpline
 70
8
 71
3
 72
8
 73
4
 74
0
 40
0
 40
0
 40
0
 40
0
 40
1
 40
1
 40
1
 40
1
 10
27.251498
 20
147.168587
 30
0.0
 10
27.635558
 20
147.833798
 30
0.0
 10
27.635558
 20
148.653373
 30
0.0
 10
27.251498
 20
149.318584
 30
0.0
  0
SPLINE
  5
16c
100
AcDbEntity
  8
Layer_1
 62
7
100
AcDbSpline
 70
8
 71
3
 72
8
 73
4
 74
0
 40
0
 40
0
 40
0
 40
0
 40
1
 40
1
 40
1
 40
1
 10
27.251498
 20
149.318584
 30
0.0
 10
26.867438
 20
149.983796
 30
0.0
 10
26.157666
 20
150.393583
 30
0.0
 10
25.389546
 20
150.393583
 30
0.0
  0
LINE
  5
16d
100
AcDbEntity
  8
Layer_1
 62
7
100
AcDbLine
 10
25.389546
 20
150.393583
 30
0.0
 11
22.389545
 21
150.393583
 31
0.0
  0
LINE
  5
16e
100
AcDbEntity
  8
Layer_1
 62
7
100
AcDbLine
 10
-199.610179
 20
150.393583
 30
0.0
 11
-202.610174
 21
150.393583
 31
0.0
  0
SPLINE
  5
16f
100
AcDbEntity
  8
Layer_1
 62
7
100
AcDbSpline
 70
8
 71
3
 72
8
 73
4
 74
0
 40
0
 40
0
 40
0
 40
0
 40
1
 40
1
 40
1
 40
1
 10
-202.610174
 20
150.393583
 30
0.0
 10
-203.378294
 20
150.393583
 30
0.0
 10
-204.088067
 20
149.983796
 30
0.0
 10
-204.472127
 20
149.318584
 30
0.0
  0
SPLINE
  5
170
100
AcDbEntity
  8
Layer_1
 62
7
100
AcDbSpline
 70
8
 71
3
 72
8
 73
4
 74
0
 40
0
 40
0
 40
0
 40
0
 40
1
 40
1
 40
1
 40
1
 10
-204.472127
 20
149.318584
 30
0.0
 10
-204.856187
 20
148.653373
 30
0.0
 10
-204.856187
 20
147.833798
 30
0.0
 10
-204.472127
 20
147.168587
 30
0.0
  0
SPLINE
  5
171
100
AcDbEntity
  8
Layer_1
 62
7
100
AcDbSpline
 70
8
 71
3
 72
8
 73
4
 74
0
 40
0
 40
0
 40
0
 40
0
 40
1
 40
1
 40
1
 40
1
 10
-204.472127
 20
147.168587
 30
0.0
 10
-204.088067
 20
146.503375
 30
0.0
 10
-203.378294
 20
146.093588
 30
0.0
 10
-202.610174
 20
146.093588
 30
0.0
  0
LINE
  5
172
100
AcDbEntity
  8
Layer_1
 62
7
100
AcDbLine
 10
-202.610174
 20
146.093588
 30
0.0
 11
-199.610179
 21
146.093588
 31
0.0
  0
SPLINE
  5
173
100
AcDbEntity
  8
Layer_1
 62
7
100
AcDbSpline
 70
8
 71
3
 72
8
 73
4
 74
0
 40
0
 40
0
 40
0
 40
0
 40
1
 40
1
 40
1
 40
1
 10
-199.610179
 20
146.093588
 30
0.0
 10
-198.842059
 20
146.093588
 30
0.0
 10
-198.132286
 20
146.503375
 30
0.0
 10
-197.748226
 20
147.168587
 30
0.0
  0
SPLINE
  5
174
100
AcDbEntity
  8
Layer_1
 62
7
100
AcDbSpline
 70
8
 71
3
 72
8
 73
4
 74
0
 40
0
 40
0
 40
0
 40
0
 40
1
 40
1
 40
1
 40
1
 10
-197.748226
 20
147.168587
 30
0.0
 10
-197.364166
 20
147.833798
 30
0.0
 10
-197.364166
 20
148.653373
 30
0.0
 10
-197.748226
 20
149.318584
 30
0.0
  0
SPLINE
  5
175
100
AcDbEntity
  8
Layer_1
 62
7
100
AcDbSpline
 70
8
 71
3
 72
8
 73
4
 74
0
 40
0
 40
0
 40
0
 40
0
 40
1
 40
1
 40
1
 40
1
 10
-197.748226
 20
149.318584
 30
0.0
 10
-198.132286
 20
149.983796
 30
0.0
 10
-198.842059
 20
150.393583
 30
0.0
 10
-199.610179
 20
150.393583
 30
0.0
  0
LINE
  5
176
100
AcDbEntity
  8
Layer_1
 62
7
100
AcDbLine
 10
-199.610179
 20
150.393583
 30
0.0
 11
-199.610179
 21
150.393583
 31
0.0
  0
LINE
  5
177
100
AcDbEntity
  8
Layer_1
 62
7
100
AcDbLine
 10
-202.610174
 20
251.093455
 30
0.0
 11
-199.610179
 21
251.093455
 31
0.0
  0
SPLINE
  5
178
100
AcDbEntity
  8
Layer_1
 62
7
100
AcDbSpline
 70
8
 71
3
 72
8
 73
4
 74
0
 40
0
 40
0
 40
0
 40
0
 40
1
 40
1
 40
1
 40
1
 10
-199.610179
 20
251.093455
 30
0.0
 10
-198.842059
 20
251.093455
 30
0.0
 10
-198.132286
 20
251.503242
 30
0.0
 10
-197.748226
 20
252.168454
 30
0.0
  0
SPLINE
  5
179
100
AcDbEntity
  8
Layer_1
 62
7
100
AcDbSpline
 70
8
 71
3
 72
8
 73
4
 74
0
 40
0
 40
0
 40
0
 40
0
 40
1
 40
1
 40
1
 40
1
 10
-197.748226
 20
252.168454
 30
0.0
 10
-197.364166
 20
252.833665
 30
0.0
 10
-197.364166
 20
253.653239
 30
0.0
 10
-197.748226
 20
254.318451
 30
0.0
  0
SPLINE
  5
17a
100
AcDbEntity
  8
Layer_1
 62
7
100
AcDbSpline
 70
8
 71
3
 72
8
 73
4
 74
0
 40
0
 40
0
 40
0
 40
0
 40
1
 40
1
 40
1
 40
1
 10
-197.748226
 20
254.318451
 30
0.0
 10
-198.132286
 20
254.983663
 30
0.0
 10
-198.842059
 20
255.393450
 30
0.0
 10
-199.610179
 20
255.393450
 30
0.0
  0
LINE
  5
17b
100
AcDbEntity
  8
Layer_1
 62
7
100
AcDbLine
 10
-199.610179
 20
255.393450
 30
0.0
 11
-202.610174
 21
255.393450
 31
0.0
  0
SPLINE
  5
17c
100
AcDbEntity
  8
Layer_1
 62
7
100
AcDbSpline
 70
8
 71
3
 72
8
 73
4
 74
0
 40
0
 40
0
 40
0
 40
0
 40
1
 40
1
 40
1
 40
1
 10
-202.610174
 20
255.393450
 30
0.0
 10
-203.378294
 20
255.393450
 30
0.0
 10
-204.088067
 20
254.983663
 30
0.0
 10
-204.472127
 20
254.318451
 30
0.0
  0
SPLINE
  5
17d
100
AcDbEntity
  8
Layer_1
 62
7
100
AcDbSpline
 70
8
 71
3
 72
8
 73
4
 74
0
 40
0
 40
0
 40
0
 40
0
 40
1
 40
1
 40
1
 40
1
 10
-204.472127
 20
254.318451
 30
0.0
 10
-204.856187
 20
253.653239
 30
0.0
 10
-204.856187
 20
252.833665
 30
0.0
 10
-204.472127
 20
252.168454
 30
0.0
  0
SPLINE
  5
17e
100
AcDbEntity
  8
Layer_1
 62
7
100
AcDbSpline
 70
8
 71
3
 72
8
 73
4
 74
0
 40
0
 40
0
 40
0
 40
0
 40
1
 40
1
 40
1
 40
1
 10
-204.472127
 20
252.168454
 30
0.0
 10
-204.088067
 20
251.503242
 30
0.0
 10
-203.378294
 20
251.093455
 30
0.0
 10
-202.610174
 20
251.093455
 30
0.0
  0
LINE
  5
17f
100
AcDbEntity
  8
Layer_1
 62
7
100
AcDbLine
 10
-202.610174
 20
251.093455
 30
0.0
 11
-202.610174
 21
251.093455
 31
0.0
  0
SPLINE
  5
180
100
AcDbEntity
  8
Layer_1
 62
7
100
AcDbSpline
 70
8
 71
3
 72
8
 73
4
 74
0
 40
0
 40
0
 40
0
 40
0
 40
1
 40
1
 40
1
 40
1
 10
25.389546
 20
251.093455
 30
0.0
 10
26.157666
 20
251.093455
 30
0.0
 10
26.867438
 20
251.503242
 30
0.0
 10
27.251498
 20
252.168454
 30
0.0
  0
SPLINE
  5
181
100
AcDbEntity
  8
Layer_1
 62
7
100
AcDbSpline
 70
8
 71
3
 72
8
 73
4
 74
0
 40
0
 40
0
 40
0
 40
0
 40
1
 40
1
 40
1
 40
1
 10
27.251498
 20
252.168454
 30
0.0
 10
27.635558
 20
252.833665
 30
0.0
 10
27.635558
 20
253.653239
 30
0.0
 10
27.251498
 20
254.318451
 30
0.0
  0
SPLINE
  5
182
100
AcDbEntity
  8
Layer_1
 62
7
100
AcDbSpline
 70
8
 71
3
 72
8
 73
4
 74
0
 40
0
 40
0
 40
0
 40
0
 40
1
 40
1
 40
1
 40
1
 10
27.251498
 20
254.318451
 30
0.0
 10
26.867438
 20
254.983663
 30
0.0
 10
26.157666
 20
255.393450
 30
0.0
 10
25.389546
 20
255.393450
 30
0.0
  0
LINE
  5
183
100
AcDbEntity
  8
Layer_1
 62
7
100
AcDbLine
 10
25.389546
 20
255.393450
 30
0.0
 11
22.389545
 21
255.393450
 31
0.0
  0
SPLINE
  5
184
100
AcDbEntity
  8
Layer_1
 62
7
100
AcDbSpline
 70
8
 71
3
 72
8
 73
4
 74
0
 40
0
 40
0
 40
0
 40
0
 40
1
 40
1
 40
1
 40
1
 10
22.389545
 20
255.393450
 30
0.0
 10
21.621425
 20
255.393450
 30
0.0
 10
20.911652
 20
254.983663
 30
0.0
 10
20.527592
 20
254.318451
 30
0.0
  0
SPLINE
  5
185
100
AcDbEntity
  8
Layer_1
 62
7
100
AcDbSpline
 70
8
 71
3
 72
8
 73
4
 74
0
 40
0
 40
0
 40
0
 40
0
 40
1
 40
1
 40
1
 40
1
 10
20.527592
 20
254.318451
 30
0.0
 10
20.143532
 20
253.653239
 30
0.0
 10
20.143532
 20
252.833665
 30
0.0
 10
20.527592
 20
252.168454
 30
0.0
  0
SPLINE
  5
186
100
AcDbEntity
  8
Layer_1
 62
7
100
AcDbSpline
 70
8
 71
3
 72
8
 73
4
 74
0
 40
0
 40
0
 40
0
 40
0
 40
1
 40
1
 40
1
 40
1
 10
20.527592
 20
252.168454
 30
0.0
 10
20.911652
 20
251.503242
 30
0.0
 10
21.621425
 20
251.093455
 30
0.0
 10
22.389545
 20
251.093455
 30
0.0
  0
LINE
  5
187
100
AcDbEntity
  8
Layer_1
 62
7
100
AcDbLine
 10
22.389545
 20
251.093455
 30
0.0
 11
25.389546
 21
251.093455
 31
0.0
  0
LINE
  5
188
100
AcDbEntity
  8
Layer_1
 62
7
100
AcDbLine
 10
142.389392
 20
251.093455
 30
0.0
 11
145.389393
 21
251.093455
 31
0.0
  0
SPLINE
  5
189
100
AcDbEntity
  8
Layer_1
 62
7
100
AcDbSpline
 70
8
 71
3
 72
8
 73
4
 74
0
 40
0
 40
0
 40
0
 40
0
 40
1
 40
1
 40
1
 40
1
 10
145.389393
 20
251.093455
 30
0.0
 10
146.157513
 20
251.093455
 30
0.0
 10
146.867285
 20
251.503242
 30
0.0
 10
147.251345
 20
252.168454
 30
0.0
  0
SPLINE
  5
18a
100
AcDbEntity
  8
Layer_1
 62
7
100
AcDbSpline
 70
8
 71
3
 72
8
 73
4
 74
0
 40
0
 40
0
 40
0
 40
0
 40
1
 40
1
 40
1
 40
1
 10
147.251345
 20
252.168454
 30
0.0
 10
147.635405
 20
252.833665
 30
0.0
 10
147.635405
 20
253.653239
 30
0.0
 10
147.251345
 20
254.318451
 30
0.0
  0
SPLINE
  5
18b
100
AcDbEntity
  8
Layer_1
 62
7
100
AcDbSpline
 70
8
 71
3
 72
8
 73
4
 74
0
 40
0
 40
0
 40
0
 40
0
 40
1
 40
1
 40
1
 40
1
 10
147.251345
 20
254.318451
 30
0.0
 10
146.867285
 20
254.983663
 30
0.0
 10
146.157513
 20
255.393450
 30
0.0
 10
145.389393
 20
255.393450
 30
0.0
  0
LINE
  5
18c
100
AcDbEntity
  8
Layer_1
 62
7
100
AcDbLine
 10
145.389393
 20
255.393450
 30
0.0
 11
142.389392
 21
255.393450
 31
0.0
  0
SPLINE
  5
18d
100
AcDbEntity
  8
Layer_1
 62
7
100
AcDbSpline
 70
8
 71
3
 72
8
 73
4
 74
0
 40
0
 40
0
 40
0
 40
0
 40
1
 40
1
 40
1
 40
1
 10
142.389392
 20
255.393450
 30
0.0
 10
141.621272
 20
255.393450
 30
0.0
 10
140.911499
 20
254.983663
 30
0.0
 10
140.527439
 20
254.318451
 30
0.0
  0
SPLINE
  5
18e
100
AcDbEntity
  8
Layer_1
 62
7
100
AcDbSpline
 70
8
 71
3
 72
8
 73
4
 74
0
 40
0
 40
0
 40
0
 40
0
 40
1
 40
1
 40
1
 40
1
 10
140.527439
 20
254.318451
 30
0.0
 10
140.143379
 20
253.653239
 30
0.0
 10
140.143379
 20
252.833665
 30
0.0
 10
140.527439
 20
252.168454
 30
0.0
  0
SPLINE
  5
18f
100
AcDbEntity
  8
Layer_1
 62
7
100
AcDbSpline
 70
8
 71
3
 72
8
 73
4
 74
0
 40
0
 40
0
 40
0
 40
0
 40
1
 40
1
 40
1
 40
1
 10
140.527439
 20
252.168454
 30
0.0
 10
140.911499
 20
251.503242
 30
0.0
 10
141.621272
 20
251.093455
 30
0.0
 10
142.389392
 20
251.093455
 30
0.0
  0
LINE
  5
190
100
AcDbEntity
  8
Layer_1
 62
7
100
AcDbLine
 10
142.389392
 20
251.093455
 30
0.0
 11
142.389392
 21
251.093455
 31
0.0
  0
LINE
  5
191
100
AcDbEntity
  8
Layer_1
 62
7
100
AcDbLine
 10
142.389392
 20
146.093588
 30
0.0
 11
145.389393
 21
146.093588
 31
0.0
  0
SPLINE
  5
192
100
AcDbEntity
  8
Layer_1
 62
7
100
AcDbSpline
 70
8
 71
3
 72
8
 73
4
 74
0
 40
0
 40
0
 40
0
 40
0
 40
1
 40
1
 40
1
 40
1
 10
145.389393
 20
146.093588
 30
0.0
 10
146.157513
 20
146.093588
 30
0.0
 10
146.867285
 20
146.503375
 30
0.0
 10
147.251345
 20
147.168587
 30
0.0
  0
SPLINE
  5
193
100
AcDbEntity
  8
Layer_1
 62
7
100
AcDbSpline
 70
8
 71
3
 72
8
 73
4
 74
0
 40
0
 40
0
 40
0
 40
0
 40
1
 40
1
 40
1
 40
1
 10
147.251345
 20
147.168587
 30
0.0
 10
147.635405
 20
147.833798
 30
0.0
 10
147.635405
 20
148.653373
 30
0.0
 10
147.251345
 20
149.318584
 30
0.0
  0
SPLINE
  5
194
100
AcDbEntity
  8
Layer_1
 62
7
100
AcDbSpline
 70
8
 71
3
 72
8
 73
4
 74
0
 40
0
 40
0
 40
0
 40
0
 40
1
 40
1
 40
1
 40
1
 10
147.251345
 20
149.318584
 30
0.0
 10
146.867285
 20
149.983796
 30
0.0
 10
146.157513
 20
150.393583
 30
0.0
 10
145.389393
 20
150.393583
 30
0.0
  0
LINE
  5
195
100
AcDbEntity
  8
Layer_1
 62
7
100
AcDbLine
 10
145.389393
 20
150.393583
 30
0.0
 11
142.389392
 21
150.393583
 31
0.0
  0
SPLINE
  5
196
100
AcDbEntity
  8
Layer_1
 62
7
100
AcDbSpline
 70
8
 71
3
 72
8
 73
4
 74
0
 40
0
 40
0
 40
0
 40
0
 40
1
 40
1
 40
1
 40
1
 10
142.389392
 20
150.393583
 30
0.0
 10
141.621272
 20
150.393583
 30
0.0
 10
140.911499
 20
149.983796
 30
0.0
 10
140.527439
 20
149.318584
 30
0.0
  0
SPLINE
  5
197
100
AcDbEntity
  8
Layer_1
 62
7
100
AcDbSpline
 70
8
 71
3
 72
8
 73
4
 74
0
 40
0
 40
0
 40
0
 40
0
 40
1
 40
1
 40
1
 40
1
 10
140.527439
 20
149.318584
 30
0.0
 10
140.143379
 20
148.653373
 30
0.0
 10
140.143379
 20
147.833798
 30
0.0
 10
140.527439
 20
147.168587
 30
0.0
  0
SPLINE
  5
198
100
AcDbEntity
  8
Layer_1
 62
7
100
AcDbSpline
 70
8
 71
3
 72
8
 73
4
 74
0
 40
0
 40
0
 40
0
 40
0
 40
1
 40
1
 40
1
 40
1
 10
140.527439
 20
147.168587
 30
0.0
 10
140.911499
 20
146.503375
 30
0.0
 10
141.621272
 20
146.093588
 30
0.0
 10
142.389392
 20
146.093588
 30
0.0
  0
LINE
  5
199
100
AcDbEntity
  8
Layer_1
 62
7
100
AcDbLine
 10
142.389392
 20
146.093588
 30
0.0
 11
142.389392
 21
146.093588
 31
0.0
  0
LINE
  5
19a
100
AcDbEntity
  8
Layer_1
 62
7
100
AcDbLine
 10
148.889376
 20
233.243479
 30
0.0
 11
123.889404
 21
258.243448
 31
0.0
  0
LINE
  5
19b
100
AcDbEntity
  8
Layer_1
 62
7
100
AcDbLine
 10
123.889404
 20
258.243448
 30
0.0
 11
58.889484
 21
258.243448
 31
0.0
  0
LINE
  5
19c
100
AcDbEntity
  8
Layer_1
 62
7
100
AcDbLine
 10
58.889484
 20
258.243448
 30
0.0
 11
33.889539
 21
233.243479
 31
0.0
  0
LINE
  5
19d
100
AcDbEntity
  8
Layer_1
 62
7
100
AcDbLine
 10
33.889539
 20
233.243479
 30
0.0
 11
33.889539
 21
168.243561
 31
0.0
  0
LINE
  5
19e
100
AcDbEntity
  8
Layer_1
 62
7
100
AcDbLine
 10
33.889539
 20
168.243561
 30
0.0
 11
58.889484
 21
143.243593
 31
0.0
  0
LINE
  5
19f
100
AcDbEntity
  8
Layer_1
 62
7
100
AcDbLine
 10
58.889484
 20
143.243593
 30
0.0
 11
123.889404
 21
143.243593
 31
0.0
  0
LINE
  5
1a0
100
AcDbEntity
  8
Layer_1
 62
7
100
AcDbLine
 10
123.889404
 20
143.243593
 30
0.0
 11
148.889376
 21
168.243561
 31
0.0
  0
LINE
  5
1a1
100
AcDbEntity
  8
Layer_1
 62
7
100
AcDbLine
 10
148.889376
 20
168.243561
 30
0.0
 11
148.889376
 21
233.243479
 31
0.0
  0
LINE
  5
1a2
100
AcDbEntity
  8
Layer_1
 62
7
100
AcDbLine
 10
76.882372
 20
97.343649
 30
0.0
 11
76.882372
 21
84.443667
 31
0.0
  0
LINE
  5
1a3
100
AcDbEntity
  8
Layer_1
 62
7
100
AcDbLine
 10
76.882372
 20
84.443667
 30
0.0
 11
124.682307
 21
84.443667
 31
0.0
  0
LINE
  5
1a4
100
AcDbEntity
  8
Layer_1
 62
7
100
AcDbLine
 10
124.682307
 20
84.443667
 30
0.0
 11
124.682307
 21
97.343649
 31
0.0
  0
LINE
  5
1a5
100
AcDbEntity
  8
Layer_1
 62
7
100
AcDbLine
 10
124.682307
 20
97.343649
 30
0.0
 11
122.682297
 21
97.343649
 31
0.0
  0
LINE
  5
1a6
100
AcDbEntity
  8
Layer_1
 62
7
100
AcDbLine
 10
122.682297
 20
97.343649
 30
0.0
 11
122.682297
 21
86.443663
 31
0.0
  0
LINE
  5
1a7
100
AcDbEntity
  8
Layer_1
 62
7
100
AcDbLine
 10
122.682297
 20
86.443663
 30
0.0
 11
78.882354
 21
86.443663
 31
0.0
  0
LINE
  5
1a8
100
AcDbEntity
  8
Layer_1
 62
7
100
AcDbLine
 10
78.882354
 20
86.443663
 30
0.0
 11
78.882354
 21
97.343649
 31
0.0
  0
LINE
  5
1a9
100
AcDbEntity
  8
Layer_1
 62
7
100
AcDbLine
 10
78.882354
 20
97.343649
 30
0.0
 11
76.882372
 21
97.343649
 31
0.0
  0
LINE
  5
1aa
100
AcDbEntity
  8
Layer_1
 62
7
100
AcDbLine
 10
-79.610329
 20
255.393450
 30
0.0
 11
-82.610327
 21
255.393450
 31
0.0
  0
SPLINE
  5
1ab
100
AcDbEntity
  8
Layer_1
 62
7
100
AcDbSpline
 70
8
 71
3
 72
8
 73
4
 74
0
 40
0
 40
0
 40
0
 40
0
 40
1
 40
1
 40
1
 40
1
 10
-82.610327
 20
255.393450
 30
0.0
 10
-83.797738
 20
255.393450
 30
0.0
 10
-84.760325
 20
254.430863
 30
0.0
 10
-84.760325
 20
253.243452
 30
0.0
  0
SPLINE
  5
1ac
100
AcDbEntity
  8
Layer_1
 62
7
100
AcDbSpline
 70
8
 71
3
 72
8
 73
4
 74
0
 40
0
 40
0
 40
0
 40
0
 40
1
 40
1
 40
1
 40
1
 10
-84.760325
 20
253.243452
 30
0.0
 10
-84.760325
 20
252.056042
 30
0.0
 10
-83.797738
 20
251.093455
 30
0.0
 10
-82.610327
 20
251.093455
 30
0.0
  0
LINE
  5
1ad
100
AcDbEntity
  8
Layer_1
 62
7
100
AcDbLine
 10
-82.610327
 20
251.093455
 30
0.0
 11
-79.610329
 21
251.093455
 31
0.0
  0
SPLINE
  5
1ae
100
AcDbEntity
  8
Layer_1
 62
7
100
AcDbSpline
 70
8
 71
3
 72
8
 73
4
 74
0
 40
0
 40
0
 40
0
 40
0
 40
1
 40
1
 40
1
 40
1
 10
-79.610329
 20
251.093455
 30
0.0
 10
-78.842209
 20
251.093455
 30
0.0
 10
-78.132437
 20
251.503242
 30
0.0
 10
-77.748377
 20
252.168454
 30
0.0
  0
SPLINE
  5
1af
100
AcDbEntity
  8
Layer_1
 62
7
100
AcDbSpline
 70
8
 71
3
 72
8
 73
4
 74
0
 40
0
 40
0
 40
0
 40
0
 40
1
 40
1
 40
1
 40
1
 10
-77.748377
 20
252.168454
 30
0.0
 10
-77.364317
 20
252.833665
 30
0.0
 10
-77.364317
 20
253.653239
 30
0.0
 10
-77.748377
 20
254.318451
 30
0.0
  0
SPLINE
  5
1b0
100
AcDbEntity
  8
Layer_1
 62
7
100
AcDbSpline
 70
8
 71
3
 72
8
 73
4
 74
0
 40
0
 40
0
 40
0
 40
0
 40
1
 40
1
 40
1
 40
1
 10
-77.748377
 20
254.318451
 30
0.0
 10
-78.132437
 20
254.983663
 30
0.0
 10
-78.842209
 20
255.393450
 30
0.0
 10
-79.610329
 20
255.393450
 30
0.0
  0
LINE
  5
1b1
100
AcDbEntity
  8
Layer_1
 62
7
100
AcDbLine
 10
-79.610329
 20
255.393450
 30
0.0
 11
-79.610329
 21
255.393450
 31
0.0
  0
LINE
  5
1b2
100
AcDbEntity
  8
Layer_1
 62
7
100
AcDbLine
 10
-192.903082
 20
304.712443
 30
0.0
 11
-198.903073
 21
304.712443
 31
0.0
  0
SPLINE
  5
1b3
100
AcDbEntity
  8
Layer_1
 62
7
100
AcDbSpline
 70
8
 71
3
 72
8
 73
4
 74
0
 40
0
 40
0
 40
0
 40
0
 40
1
 40
1
 40
1
 40
1
 10
-198.903073
 20
304.712443
 30
0.0
 10
-200.559925
 20
304.712443
 30
0.0
 10
-201.903069
 20
303.369299
 30
0.0
 10
-201.903069
 20
301.712446
 30
0.0
  0
SPLINE
  5
1b4
100
AcDbEntity
  8
Layer_1
 62
7
100
AcDbSpline
 70
8
 71
3
 72
8
 73
4
 74
0
 40
0
 40
0
 40
0
 40
0
 40
1
 40
1
 40
1
 40
1
 10
-201.903069
 20
301.712446
 30
0.0
 10
-201.903069
 20
300.055594
 30
0.0
 10
-200.559925
 20
298.712450
 30
0.0
 10
-198.903073
 20
298.712450
 30
0.0
  0
LINE
  5
1b5
100
AcDbEntity
  8
Layer_1
 62
7
100
AcDbLine
 10
-198.903073
 20
298.712450
 30
0.0
 11
-192.903082
 21
298.712450
 31
0.0
  0
SPLINE
  5
1b6
100
AcDbEntity
  8
Layer_1
 62
7
100
AcDbSpline
 70
8
 71
3
 72
8
 73
4
 74
0
 40
0
 40
0
 40
0
 40
0
 40
1
 40
1
 40
1
 40
1
 10
-192.903082
 20
298.712450
 30
0.0
 10
-191.831286
 20
298.712450
 30
0.0
 10
-190.840906
 20
299.284246
 30
0.0
 10
-190.305008
 20
300.212448
 30
0.0
  0
SPLINE
  5
1b7
100
AcDbEntity
  8
Layer_1
 62
7
100
AcDbSpline
 70
8
 71
3
 72
8
 73
4
 74
0
 40
0
 40
0
 40
0
 40
0
 40
1
 40
1
 40
1
 40
1
 10
-190.305008
 20
300.212448
 30
0.0
 10
-189.769110
 20
301.140650
 30
0.0
 10
-189.769110
 20
302.284243
 30
0.0
 10
-190.305008
 20
303.212445
 30
0.0
  0
SPLINE
  5
1b8
100
AcDbEntity
  8
Layer_1
 62
7
100
AcDbSpline
 70
8
 71
3
 72
8
 73
4
 74
0
 40
0
 40
0
 40
0
 40
0
 40
1
 40
1
 40
1
 40
1
 10
-190.305008
 20
303.212445
 30
0.0
 10
-190.840906
 20
304.140647
 30
0.0
 10
-191.831286
 20
304.712443
 30
0.0
 10
-192.903082
 20
304.712443
 30
0.0
  0
LINE
  5
1b9
100
AcDbEntity
  8
Layer_1
 62
7
100
AcDbLine
 10
-192.903082
 20
304.712443
 30
0.0
 11
-192.903082
 21
304.712443
 31
0.0
  0
LINE
  5
1ba
100
AcDbEntity
  8
Layer_1
 62
7
100
AcDbLine
 10
-181.110202
 20
258.243448
 30
0.0
 11
-206.110171
 21
233.243479
 31
0.0
  0
LINE
  5
1bb
100
AcDbEntity
  8
Layer_1
 62
7
100
AcDbLine
 10
-206.110171
 20
233.243479
 30
0.0
 11
-206.110171
 21
168.243561
 31
0.0
  0
LINE
  5
1bc
100
AcDbEntity
  8
Layer_1
 62
7
100
AcDbLine
 10
-206.110171
 20
168.243561
 30
0.0
 11
-181.110202
 21
143.243593
 31
0.0
  0
LINE
  5
1bd
100
AcDbEntity
  8
Layer_1
 62
7
100
AcDbLine
 10
-181.110202
 20
143.243593
 30
0.0
 11
-116.110284
 21
143.243593
 31
0.0
  0
LINE
  5
1be
100
AcDbEntity
  8
Layer_1
 62
7
100
AcDbLine
 10
-116.110284
 20
143.243593
 30
0.0
 11
-91.110315
 21
168.243561
 31
0.0
  0
LINE
  5
1bf
100
AcDbEntity
  8
Layer_1
 62
7
100
AcDbLine
 10
-91.110315
 20
168.243561
 30
0.0
 11
-91.110315
 21
233.243479
 31
0.0
  0
LINE
  5
1c0
100
AcDbEntity
  8
Layer_1
 62
7
100
AcDbLine
 10
-91.110315
 20
233.243479
 30
0.0
 11
-116.110284
 21
258.243448
 31
0.0
  0
LINE
  5
1c1
100
AcDbEntity
  8
Layer_1
 62
7
100
AcDbLine
 10
-116.110284
 20
258.243448
 30
0.0
 11
-181.110202
 21
258.243448
 31
0.0
  0
SPLINE
  5
1c2
100
AcDbEntity
  8
Layer_1
 62
7
100
AcDbSpline
 70
8
 71
3
 72
8
 73
4
 74
0
 40
0
 40
0
 40
0
 40
0
 40
1
 40
1
 40
1
 40
1
 10
141.682294
 20
49.188871
 30
0.0
 10
142.754091
 20
49.188871
 30
0.0
 10
143.744472
 20
49.760668
 30
0.0
 10
144.280371
 20
50.688871
 30
0.0
  0
SPLINE
  5
1c3
100
AcDbEntity
  8
Layer_1
 62
7
100
AcDbSpline
 70
8
 71
3
 72
8
 73
4
 74
0
 40
0
 40
0
 40
0
 40
0
 40
1
 40
1
 40
1
 40
1
 10
144.280371
 20
50.688871
 30
0.0
 10
144.816269
 20
51.617075
 30
0.0
 10
144.816269
 20
52.760669
 30
0.0
 10
144.280371
 20
53.688872
 30
0.0
  0
SPLINE
  5
1c4
100
AcDbEntity
  8
Layer_1
 62
7
100
AcDbSpline
 70
8
 71
3
 72
8
 73
4
 74
0
 40
0
 40
0
 40
0
 40
0
 40
1
 40
1
 40
1
 40
1
 10
144.280371
 20
53.688872
 30
0.0
 10
143.744472
 20
54.617076
 30
0.0
 10
142.754091
 20
55.188873
 30
0.0
 10
141.682294
 20
55.188873
 30
0.0
  0
LINE
  5
1c5
100
AcDbEntity
  8
Layer_1
 62
7
100
AcDbLine
 10
141.682294
 20
55.188873
 30
0.0
 11
135.682292
 21
55.188873
 31
0.0
  0
SPLINE
  5
1c6
100
AcDbEntity
  8
Layer_1
 62
7
100
AcDbSpline
 70
8
 71
3
 72
8
 73
4
 74
0
 40
0
 40
0
 40
0
 40
0
 40
1
 40
1
 40
1
 40
1
 10
135.682292
 20
55.188873
 30
0.0
 10
134.025438
 20
55.188872
 30
0.0
 10
132.682292
 20
53.845726
 30
0.0
 10
132.682292
 20
52.188872
 30
0.0
  0
SPLINE
  5
1c7
100
AcDbEntity
  8
Layer_1
 62
7
100
AcDbSpline
 70
8
 71
3
 72
8
 73
4
 74
0
 40
0
 40
0
 40
0
 40
0
 40
1
 40
1
 40
1
 40
1
 10
132.682292
 20
52.188872
 30
0.0
 10
132.682292
 20
50.532017
 30
0.0
 10
134.025438
 20
49.188871
 30
0.0
 10
135.682292
 20
49.188871
 30
0.0
  0
LINE
  5
1c8
100
AcDbEntity
  8
Layer_1
 62
7
100
AcDbLine
 10
135.682292
 20
49.188871
 30
0.0
 11
141.682294
 21
49.188871
 31
0.0
  0
LINE
  5
1c9
100
AcDbEntity
  8
Layer_1
 62
7
100
AcDbLine
 10
-198.903073
 20
49.188871
 30
0.0
 11
-192.903082
 21
49.188871
 31
0.0
  0
SPLINE
  5
1ca
100
AcDbEntity
  8
Layer_1
 62
7
100
AcDbSpline
 70
8
 71
3
 72
8
 73
4
 74
0
 40
0
 40
0
 40
0
 40
0
 40
1
 40
1
 40
1
 40
1
 10
-192.903082
 20
49.188871
 30
0.0
 10
-191.831285
 20
49.188871
 30
0.0
 10
-190.840903
 20
49.760668
 30
0.0
 10
-190.305005
 20
50.688871
 30
0.0
  0
SPLINE
  5
1cb
100
AcDbEntity
  8
Layer_1
 62
7
100
AcDbSpline
 70
8
 71
3
 72
8
 73
4
 74
0
 40
0
 40
0
 40
0
 40
0
 40
1
 40
1
 40
1
 40
1
 10
-190.305005
 20
50.688871
 30
0.0
 10
-189.769106
 20
51.617075
 30
0.0
 10
-189.769106
 20
52.760669
 30
0.0
 10
-190.305005
 20
53.688872
 30
0.0
  0
SPLINE
  5
1cc
100
AcDbEntity
  8
Layer_1
 62
7
100
AcDbSpline
 70
8
 71
3
 72
8
 73
4
 74
0
 40
0
 40
0
 40
0
 40
0
 40
1
 40
1
 40
1
 40
1
 10
-190.305005
 20
53.688872
 30
0.0
 10
-190.840903
 20
54.617076
 30
0.0
 10
-191.831285
 20
55.188873
 30
0.0
 10
-192.903082
 20
55.188873
 30
0.0
  0
LINE
  5
1cd
100
AcDbEntity
  8
Layer_1
 62
7
100
AcDbLine
 10
-192.903082
 20
55.188873
 30
0.0
 11
-198.903073
 21
55.188873
 31
0.0
  0
SPLINE
  5
1ce
100
AcDbEntity
  8
Layer_1
 62
7
100
AcDbSpline
 70
8
 71
3
 72
8
 73
4
 74
0
 40
0
 40
0
 40
0
 40
0
 40
1
 40
1
 40
1
 40
1
 10
-198.903073
 20
55.188873
 30
0.0
 10
-200.559927
 20
55.188872
 30
0.0
 10
-201.903073
 20
53.845726
 30
0.0
 10
-201.903073
 20
52.188872
 30
0.0
  0
SPLINE
  5
1cf
100
AcDbEntity
  8
Layer_1
 62
7
100
AcDbSpline
 70
8
 71
3
 72
8
 73
4
 74
0
 40
0
 40
0
 40
0
 40
0
 40
1
 40
1
 40
1
 40
1
 10
-201.903073
 20
52.188872
 30
0.0
 10
-201.903073
 20
50.532017
 30
0.0
 10
-200.559927
 20
49.188871
 30
0.0
 10
-198.903073
 20
49.188871
 30
0.0
  0
LINE
  5
1d0
100
AcDbEntity
  8
Layer_1
 62
7
100
AcDbLine
 10
-198.903073
 20
49.188871
 30
0.0
 11
-198.903073
 21
49.188871
 31
0.0
  0
LINE
  5
1d1
100
AcDbEntity
  8
Layer_1
 62
7
100
AcDbLine
 10
141.682294
 20
304.712443
 30
0.0
 11
135.682292
 21
304.712443
 31
0.0
  0
SPLINE
  5
1d2
100
AcDbEntity
  8
Layer_1
 62
7
100
AcDbSpline
 70
8
 71
3
 72
8
 73
4
 74
0
 40
0
 40
0
 40
0
 40
0
 40
1
 40
1
 40
1
 40
1
 10
135.682292
 20
304.712443
 30
0.0
 10
134.025440
 20
304.712443
 30
0.0
 10
132.682295
 20
303.369299
 30
0.0
 10
132.682295
 20
301.712446
 30
0.0
  0
SPLINE
  5
1d3
100
AcDbEntity
  8
Layer_1
 62
7
100
AcDbSpline
 70
8
 71
3
 72
8
 73
4
 74
0
 40
0
 40
0
 40
0
 40
0
 40
1
 40
1
 40
1
 40
1
 10
132.682295
 20
301.712446
 30
0.0
 10
132.682295
 20
300.055594
 30
0.0
 10
134.025440
 20
298.712450
 30
0.0
 10
135.682292
 20
298.712450
 30
0.0
  0
LINE
  5
1d4
100
AcDbEntity
  8
Layer_1
 62
7
100
AcDbLine
 10
135.682292
 20
298.712450
 30
0.0
 11
141.682294
 21
298.712450
 31
0.0
  0
SPLINE
  5
1d5
100
AcDbEntity
  8
Layer_1
 62
7
100
AcDbSpline
 70
8
 71
3
 72
8
 73
4
 74
0
 40
0
 40
0
 40
0
 40
0
 40
1
 40
1
 40
1
 40
1
 10
141.682294
 20
298.712450
 30
0.0
 10
142.754089
 20
298.712450
 30
0.0
 10
143.744469
 20
299.284246
 30
0.0
 10
144.280367
 20
300.212448
 30
0.0
  0
SPLINE
  5
1d6
100
AcDbEntity
  8
Layer_1
 62
7
100
AcDbSpline
 70
8
 71
3
 72
8
 73
4
 74
0
 40
0
 40
0
 40
0
 40
0
 40
1
 40
1
 40
1
 40
1
 10
144.280367
 20
300.212448
 30
0.0
 10
144.816265
 20
301.140650
 30
0.0
 10
144.816265
 20
302.284243
 30
0.0
 10
144.280367
 20
303.212445
 30
0.0
  0
SPLINE
  5
1d7
100
AcDbEntity
  8
Layer_1
 62
7
100
AcDbSpline
 70
8
 71
3
 72
8
 73
4
 74
0
 40
0
 40
0
 40
0
 40
0
 40
1
 40
1
 40
1
 40
1
 10
144.280367
 20
303.212445
 30
0.0
 10
143.744469
 20
304.140647
 30
0.0
 10
142.754089
 20
304.712443
 30
0.0
 10
141.682294
 20
304.712443
 30
0.0
  0
LINE
  5
1d8
100
AcDbEntity
  8
Layer_1
 62
7
100
AcDbLine
 10
141.682294
 20
304.712443
 30
0.0
 11
141.682294
 21
304.712443
 31
0.0
  0
ENDSEC
  0
SECTION
  2
OBJECTS
  0
DICTIONARY
  5
C
330
0
100
AcDbDictionary
  3
ACAD_GROUP
350
D
  3
ACAD_MLINESTYLE
350
17
  0
DICTIONARY
  5
D
330
C
100
AcDbDictionary
  0
DICTIONARY
  5
1A
330
C
100
AcDbDictionary
  0
DICTIONARY
  5
17
330
C
100
AcDbDictionary
  3
STANDARD
350
18
  0
DICTIONARY
  5
19
330
C
100
AcDbDictionary
  0
ENDSEC
  0
EOF
