  0
SECTION
  2
HEADER
  9
$ACADVER
  1
AC1014
  9
$HANDSEED
  5
FFFF
  9
$MEASUREMENT
 70
     1
  0
ENDSEC
  0
SECTION
  2
TABLES
  0
TABLE
  2
VPORT
  5
8
330
0
100
AcDbSymbolTable
 70
     4
  0
VPORT
  5
2E
330
8
100
AcDbSymbolTableRecord
100
AcDbViewportTableRecord
  2
*ACTIVE
 70
     0
 10
0.0
 20
0.0
 11
1.0
 21
1.0
 12
210.0
 22
148.5
 13
0.0
 23
0.0
 14
10.0
 24
10.0
 15
10.0
 25
10.0
 16
0.0
 26
0.0
 36
1.0
 17
0.0
 27
0.0
 37
0.0
 40
341.0
 41
1.24
 42
50.0
 43
0.0
 44
0.0
 50
0.0
 51
0.0
 71
     0
 72
   100
 73
     1
 74
     3
 75
     0
 76
     0
 77
     0
 78
     0
  0
ENDTAB
  0
TABLE
  2
LTYPE
  5
5
330
0
100
AcDbSymbolTable
 70
     1
  0
LTYPE
  5
14
330
5
100
AcDbSymbolTableRecord
100
AcDbLinetypeTableRecord
  2
BYBLOCK
 70
     0
  3

 72
    65
 73
     0
 40
0.0
  0
LTYPE
  5
15
330
5
100
AcDbSymbolTableRecord
100
AcDbLinetypeTableRecord
  2
BYLAYER
 70
     0
  3

 72
    65
 73
     0
 40
0.0
  0
LTYPE
  5
16
330
5
100
AcDbSymbolTableRecord
100
AcDbLinetypeTableRecord
  2
CONTINUOUS
 70
     0
  3
Solid line
 72
    65
 73
     0
 40
0.0
  0
ENDTAB
  0
TABLE
  2
LAYER
  5
2
100
AcDbSymbolTable
 70
2
  0
LAYER
  5
50
100
AcDbSymbolTableRecord
100
AcDbLayerTableRecord
  2
0
 70
0
  6
CONTINUOUS
  0
LAYER
  5
51
100
AcDbSymbolTableRecord
100
AcDbLayerTableRecord
  2
Layer_1
 70
0
  6
CONTINUOUS
  0
ENDTAB
  0
TABLE
  2
STYLE
  5
3
330
0
100
AcDbSymbolTable
 70
     1
  0
STYLE
  5
11
330
3
100
AcDbSymbolTableRecord
100
AcDbTextStyleTableRecord
  2
STANDARD
 70
     0
 40
0.0
 41
1.0
 50
0.0
 71
     0
 42
2.5
  3
txt
  4

  0
ENDTAB
  0
TABLE
  2
VIEW
  5
6
330
0
100
AcDbSymbolTable
 70
     0
  0
ENDTAB
  0
TABLE
  2
UCS
  5
7
330
0
100
AcDbSymbolTable
 70
     0
  0
ENDTAB
  0
TABLE
  2
APPID
  5
9
330
0
100
AcDbSymbolTable
 70
     2
  0
APPID
  5
12
330
9
100
AcDbSymbolTableRecord
100
AcDbRegAppTableRecord
  2
ACAD
 70
     0
  0
ENDTAB
  0
TABLE
  2
DIMSTYLE
  5
A
330
0
100
AcDbSymbolTable
 70
     1
  0
DIMSTYLE
105
27
330
A
100
AcDbSymbolTableRecord
100
AcDbDimStyleTableRecord
  2
ISO-25
 70
     0
  3

  4

  5

  6

  7

 40
1.0
 41
2.5
 42
0.625
 43
3.75
 44
1.25
 45
0.0
 46
0.0
 47
0.0
 48
0.0
140
2.5
141
2.5
142
0.0
143
0.03937007874016
144
1.0
145
0.0
146
1.0
147
0.625
 71
     0
 72
     0
 73
     0
 74
     0
 75
     0
 76
     0
 77
     1
 78
     8
170
     0
171
     3
172
     1
173
     0
174
     0
175
     0
176
     0
177
     0
178
     0
270
     2
271
     2
272
     2
273
     2
274
     3
340
11
275
     0
280
     0
281
     0
282
     0
283
     0
284
     8
285
     0
286
     0
287
     3
288
     0
  0
ENDTAB
  0
TABLE
  2
BLOCK_RECORD
  5
1
330
0
100
AcDbSymbolTable
 70
     1
  0
BLOCK_RECORD
  5
1F
330
1
100
AcDbSymbolTableRecord
100
AcDbBlockTableRecord
  2
*MODEL_SPACE
  0
BLOCK_RECORD
  5
1B
330
1
100
AcDbSymbolTableRecord
100
AcDbBlockTableRecord
  2
*PAPER_SPACE
  0
ENDTAB
  0
ENDSEC
  0
SECTION
  2
BLOCKS
  0
BLOCK
  5
20
330
1F
100
AcDbEntity
  8
0
100
AcDbBlockBegin
  2
*MODEL_SPACE
 70
     0
 10
0.0
 20
0.0
 30
0.0
  3
*MODEL_SPACE
  1

  0
ENDBLK
  5
21
330
1F
100
AcDbEntity
  8
0
100
AcDbBlockEnd
  0
BLOCK
  5
1C
330
1B
100
AcDbEntity
 67
     1
  8
0
100
AcDbBlockBegin
  2
*PAPER_SPACE
  1

  0
ENDBLK
  5
1D
330
1B
100
AcDbEntity
 67
     1
  8
0
100
AcDbBlockEnd
  0
ENDSEC
  0
SECTION
  2
ENTITIES
  0
LINE
  5
100
100
AcDbEntity
  8
Layer_1
 62
7
100
AcDbLine
 10
-222.818285
 20
307.531237
 30
0.0
 11
-223.818285
 21
307.531237
 31
0.0
  0
LINE
  5
101
100
AcDbEntity
  8
Layer_1
 62
7
100
AcDbLine
 10
-223.818285
 20
307.531237
 30
0.0
 11
-223.818285
 21
320.293168
 31
0.0
  0
LINE
  5
102
100
AcDbEntity
  8
Layer_1
 62
7
100
AcDbLine
 10
-223.818285
 20
320.293168
 30
0.0
 11
-264.404020
 21
320.293168
 31
0.0
  0
LINE
  5
103
100
AcDbEntity
  8
Layer_1
 62
7
100
AcDbLine
 10
-264.404020
 20
320.293168
 30
0.0
 11
-264.404020
 21
307.531237
 31
0.0
  0
LINE
  5
104
100
AcDbEntity
  8
Layer_1
 62
7
100
AcDbLine
 10
-264.404020
 20
307.531237
 30
0.0
 11
-265.404019
 21
307.531237
 31
0.0
  0
LINE
  5
105
100
AcDbEntity
  8
Layer_1
 62
7
100
AcDbLine
 10
-265.404019
 20
307.531237
 30
0.0
 11
-265.404019
 21
308.031238
 31
0.0
  0
LINE
  5
106
100
AcDbEntity
  8
Layer_1
 62
7
100
AcDbLine
 10
-265.404019
 20
308.031238
 30
0.0
 11
-280.404000
 21
308.031238
 31
0.0
  0
LINE
  5
107
100
AcDbEntity
  8
Layer_1
 62
7
100
AcDbLine
 10
-280.404000
 20
308.031238
 30
0.0
 11
-280.404000
 21
292.031256
 31
0.0
  0
LINE
  5
108
100
AcDbEntity
  8
Layer_1
 62
7
100
AcDbLine
 10
-280.404000
 20
292.031256
 30
0.0
 11
-280.111107
 21
292.031256
 31
0.0
  0
LINE
  5
109
100
AcDbEntity
  8
Layer_1
 62
7
100
AcDbLine
 10
-280.111107
 20
292.031256
 30
0.0
 11
-280.111107
 21
289.769312
 31
0.0
  0
LINE
  5
10a
100
AcDbEntity
  8
Layer_1
 62
7
100
AcDbLine
 10
-280.111107
 20
289.769312
 30
0.0
 11
-282.373051
 21
289.769312
 31
0.0
  0
LINE
  5
10b
100
AcDbEntity
  8
Layer_1
 62
7
100
AcDbLine
 10
-282.373051
 20
289.769312
 30
0.0
 11
-282.373051
 21
290.062205
 31
0.0
  0
LINE
  5
10c
100
AcDbEntity
  8
Layer_1
 62
7
100
AcDbLine
 10
-282.373051
 20
290.062205
 30
0.0
 11
-298.373031
 21
290.062205
 31
0.0
  0
LINE
  5
10d
100
AcDbEntity
  8
Layer_1
 62
7
100
AcDbLine
 10
-298.373031
 20
290.062205
 30
0.0
 11
-298.373031
 21
63.476692
 31
0.0
  0
LINE
  5
10e
100
AcDbEntity
  8
Layer_1
 62
7
100
AcDbLine
 10
-298.373031
 20
63.476692
 30
0.0
 11
-282.373051
 21
63.476692
 31
0.0
  0
LINE
  5
10f
100
AcDbEntity
  8
Layer_1
 62
7
100
AcDbLine
 10
-282.373051
 20
63.476692
 30
0.0
 11
-282.373051
 21
63.769586
 31
0.0
  0
LINE
  5
110
100
AcDbEntity
  8
Layer_1
 62
7
100
AcDbLine
 10
-282.373051
 20
63.769586
 30
0.0
 11
-280.111107
 21
63.769586
 31
0.0
  0
LINE
  5
111
100
AcDbEntity
  8
Layer_1
 62
7
100
AcDbLine
 10
-280.111107
 20
63.769586
 30
0.0
 11
-280.111107
 21
61.507666
 31
0.0
  0
LINE
  5
112
100
AcDbEntity
  8
Layer_1
 62
7
100
AcDbLine
 10
-280.111107
 20
61.507666
 30
0.0
 11
-280.404000
 21
61.507666
 31
0.0
  0
LINE
  5
113
100
AcDbEntity
  8
Layer_1
 62
7
100
AcDbLine
 10
-280.404000
 20
61.507666
 30
0.0
 11
-280.404000
 21
45.507670
 31
0.0
  0
LINE
  5
114
100
AcDbEntity
  8
Layer_1
 62
7
100
AcDbLine
 10
-280.404000
 20
45.507670
 30
0.0
 11
176.181221
 21
45.507670
 31
0.0
  0
LINE
  5
115
100
AcDbEntity
  8
Layer_1
 62
7
100
AcDbLine
 10
176.181221
 20
45.507670
 30
0.0
 11
176.181221
 21
61.507666
 31
0.0
  0
LINE
  5
116
100
AcDbEntity
  8
Layer_1
 62
7
100
AcDbLine
 10
176.181221
 20
61.507666
 30
0.0
 11
175.888328
 21
61.507666
 31
0.0
  0
LINE
  5
117
100
AcDbEntity
  8
Layer_1
 62
7
100
AcDbLine
 10
175.888328
 20
61.507666
 30
0.0
 11
175.888328
 21
63.769586
 31
0.0
  0
LINE
  5
118
100
AcDbEntity
  8
Layer_1
 62
7
100
AcDbLine
 10
175.888328
 20
63.769586
 30
0.0
 11
178.150274
 21
63.769586
 31
0.0
  0
LINE
  5
119
100
AcDbEntity
  8
Layer_1
 62
7
100
AcDbLine
 10
178.150274
 20
63.769586
 30
0.0
 11
178.150274
 21
63.476692
 31
0.0
  0
LINE
  5
11a
100
AcDbEntity
  8
Layer_1
 62
7
100
AcDbLine
 10
178.150274
 20
63.476692
 30
0.0
 11
194.150243
 21
63.476692
 31
0.0
  0
LINE
  5
11b
100
AcDbEntity
  8
Layer_1
 62
7
100
AcDbLine
 10
194.150243
 20
63.476692
 30
0.0
 11
194.150243
 21
290.062205
 31
0.0
  0
LINE
  5
11c
100
AcDbEntity
  8
Layer_1
 62
7
100
AcDbLine
 10
194.150243
 20
290.062205
 30
0.0
 11
178.150274
 21
290.062205
 31
0.0
  0
LINE
  5
11d
100
AcDbEntity
  8
Layer_1
 62
7
100
AcDbLine
 10
178.150274
 20
290.062205
 30
0.0
 11
178.150274
 21
289.769312
 31
0.0
  0
LINE
  5
11e
100
AcDbEntity
  8
Layer_1
 62
7
100
AcDbLine
 10
178.150274
 20
289.769312
 30
0.0
 11
175.888328
 21
289.769312
 31
0.0
  0
LINE
  5
11f
100
AcDbEntity
  8
Layer_1
 62
7
100
AcDbLine
 10
175.888328
 20
289.769312
 30
0.0
 11
175.888328
 21
292.031256
 31
0.0
  0
LINE
  5
120
100
AcDbEntity
  8
Layer_1
 62
7
100
AcDbLine
 10
175.888328
 20
292.031256
 30
0.0
 11
176.181221
 21
292.031256
 31
0.0
  0
LINE
  5
121
100
AcDbEntity
  8
Layer_1
 62
7
100
AcDbLine
 10
176.181221
 20
292.031256
 30
0.0
 11
176.181221
 21
308.031238
 31
0.0
  0
LINE
  5
122
100
AcDbEntity
  8
Layer_1
 62
7
100
AcDbLine
 10
176.181221
 20
308.031238
 30
0.0
 11
161.181243
 21
308.031238
 31
0.0
  0
LINE
  5
123
100
AcDbEntity
  8
Layer_1
 62
7
100
AcDbLine
 10
161.181243
 20
308.031238
 30
0.0
 11
161.181243
 21
307.531237
 31
0.0
  0
LINE
  5
124
100
AcDbEntity
  8
Layer_1
 62
7
100
AcDbLine
 10
161.181243
 20
307.531237
 30
0.0
 11
160.181226
 21
307.531237
 31
0.0
  0
LINE
  5
125
100
AcDbEntity
  8
Layer_1
 62
7
100
AcDbLine
 10
160.181226
 20
307.531237
 30
0.0
 11
160.181226
 21
320.293168
 31
0.0
  0
LINE
  5
126
100
AcDbEntity
  8
Layer_1
 62
7
100
AcDbLine
 10
160.181226
 20
320.293168
 30
0.0
 11
119.595490
 21
320.293168
 31
0.0
  0
LINE
  5
127
100
AcDbEntity
  8
Layer_1
 62
7
100
AcDbLine
 10
119.595490
 20
320.293168
 30
0.0
 11
119.595490
 21
307.531237
 31
0.0
  0
LINE
  5
128
100
AcDbEntity
  8
Layer_1
 62
7
100
AcDbLine
 10
119.595490
 20
307.531237
 30
0.0
 11
118.595498
 21
307.531237
 31
0.0
  0
LINE
  5
129
100
AcDbEntity
  8
Layer_1
 62
7
100
AcDbLine
 10
118.595498
 20
307.531237
 30
0.0
 11
118.595498
 21
308.031238
 31
0.0
  0
LINE
  5
12a
100
AcDbEntity
  8
Layer_1
 62
7
100
AcDbLine
 10
118.595498
 20
308.031238
 30
0.0
 11
-222.818285
 21
308.031238
 31
0.0
  0
LINE
  5
12b
100
AcDbEntity
  8
Layer_1
 62
7
100
AcDbLine
 10
-222.818285
 20
308.031238
 30
0.0
 11
-222.818285
 21
307.531237
 31
0.0
  0
LINE
  5
12c
100
AcDbEntity
  8
Layer_1
 62
7
100
AcDbLine
 10
-19.611435
 20
142.562393
 30
0.0
 11
-84.611352
 21
142.562393
 31
0.0
  0
LINE
  5
12d
100
AcDbEntity
  8
Layer_1
 62
7
100
AcDbLine
 10
-84.611352
 20
142.562393
 30
0.0
 11
-109.611321
 21
167.562361
 31
0.0
  0
LINE
  5
12e
100
AcDbEntity
  8
Layer_1
 62
7
100
AcDbLine
 10
-109.611321
 20
167.562361
 30
0.0
 11
-109.611321
 21
232.562279
 31
0.0
  0
LINE
  5
12f
100
AcDbEntity
  8
Layer_1
 62
7
100
AcDbLine
 10
-109.611321
 20
232.562279
 30
0.0
 11
-84.611352
 21
257.562248
 31
0.0
  0
LINE
  5
130
100
AcDbEntity
  8
Layer_1
 62
7
100
AcDbLine
 10
-84.611352
 20
257.562248
 30
0.0
 11
-19.611435
 21
257.562248
 31
0.0
  0
LINE
  5
131
100
AcDbEntity
  8
Layer_1
 62
7
100
AcDbLine
 10
-19.611435
 20
257.562248
 30
0.0
 11
5.388529
 21
232.562279
 31
0.0
  0
LINE
  5
132
100
AcDbEntity
  8
Layer_1
 62
7
100
AcDbLine
 10
5.388529
 20
232.562279
 30
0.0
 11
5.388529
 21
167.562361
 31
0.0
  0
LINE
  5
133
100
AcDbEntity
  8
Layer_1
 62
7
100
AcDbLine
 10
5.388529
 20
167.562361
 30
0.0
 11
-19.611435
 21
142.562393
 31
0.0
  0
LINE
  5
134
100
AcDbEntity
  8
Layer_1
 62
7
100
AcDbLine
 10
-223.111179
 20
145.412388
 30
0.0
 11
-226.111174
 21
145.412388
 31
0.0
  0
SPLINE
  5
135
100
AcDbEntity
  8
Layer_1
 62
7
100
AcDbSpline
 70
8
 71
3
 72
8
 73
4
 74
0
 40
0
 40
0
 40
0
 40
0
 40
1
 40
1
 40
1
 40
1
 10
-226.111174
 20
145.412388
 30
0.0
 10
-226.879294
 20
145.412388
 30
0.0
 10
-227.589067
 20
145.822175
 30
0.0
 10
-227.973127
 20
146.487387
 30
0.0
  0
SPLINE
  5
136
100
AcDbEntity
  8
Layer_1
 62
7
100
AcDbSpline
 70
8
 71
3
 72
8
 73
4
 74
0
 40
0
 40
0
 40
0
 40
0
 40
1
 40
1
 40
1
 40
1
 10
-227.973127
 20
146.487387
 30
0.0
 10
-228.357187
 20
147.152598
 30
0.0
 10
-228.357187
 20
147.972173
 30
0.0
 10
-227.973127
 20
148.637384
 30
0.0
  0
SPLINE
  5
137
100
AcDbEntity
  8
Layer_1
 62
7
100
AcDbSpline
 70
8
 71
3
 72
8
 73
4
 74
0
 40
0
 40
0
 40
0
 40
0
 40
1
 40
1
 40
1
 40
1
 10
-227.973127
 20
148.637384
 30
0.0
 10
-227.589067
 20
149.302596
 30
0.0
 10
-226.879294
 20
149.712383
 30
0.0
 10
-226.111174
 20
149.712383
 30
0.0
  0
LINE
  5
138
100
AcDbEntity
  8
Layer_1
 62
7
100
AcDbLine
 10
-226.111174
 20
149.712383
 30
0.0
 11
-223.111179
 21
149.712383
 31
0.0
  0
SPLINE
  5
139
100
AcDbEntity
  8
Layer_1
 62
7
100
AcDbSpline
 70
8
 71
3
 72
8
 73
4
 74
0
 40
0
 40
0
 40
0
 40
0
 40
1
 40
1
 40
1
 40
1
 10
-223.111179
 20
149.712383
 30
0.0
 10
-222.343059
 20
149.712383
 30
0.0
 10
-221.633286
 20
149.302596
 30
0.0
 10
-221.249226
 20
148.637384
 30
0.0
  0
SPLINE
  5
13a
100
AcDbEntity
  8
Layer_1
 62
7
100
AcDbSpline
 70
8
 71
3
 72
8
 73
4
 74
0
 40
0
 40
0
 40
0
 40
0
 40
1
 40
1
 40
1
 40
1
 10
-221.249226
 20
148.637384
 30
0.0
 10
-220.865166
 20
147.972173
 30
0.0
 10
-220.865166
 20
147.152598
 30
0.0
 10
-221.249226
 20
146.487387
 30
0.0
  0
SPLINE
  5
13b
100
AcDbEntity
  8
Layer_1
 62
7
100
AcDbSpline
 70
8
 71
3
 72
8
 73
4
 74
0
 40
0
 40
0
 40
0
 40
0
 40
1
 40
1
 40
1
 40
1
 10
-221.249226
 20
146.487387
 30
0.0
 10
-221.633286
 20
145.822175
 30
0.0
 10
-222.343059
 20
145.412388
 30
0.0
 10
-223.111179
 20
145.412388
 30
0.0
  0
LINE
  5
13c
100
AcDbEntity
  8
Layer_1
 62
7
100
AcDbLine
 10
-223.111179
 20
145.412388
 30
0.0
 11
-223.111179
 21
145.412388
 31
0.0
  0
LINE
  5
13d
100
AcDbEntity
  8
Layer_1
 62
7
100
AcDbLine
 10
-222.404073
 20
304.031243
 30
0.0
 11
-216.404082
 21
304.031243
 31
0.0
  0
SPLINE
  5
13e
100
AcDbEntity
  8
Layer_1
 62
7
100
AcDbSpline
 70
8
 71
3
 72
8
 73
4
 74
0
 40
0
 40
0
 40
0
 40
0
 40
1
 40
1
 40
1
 40
1
 10
-216.404082
 20
304.031243
 30
0.0
 10
-214.747229
 20
304.031243
 30
0.0
 10
-213.404085
 20
302.688099
 30
0.0
 10
-213.404085
 20
301.031246
 30
0.0
  0
SPLINE
  5
13f
100
AcDbEntity
  8
Layer_1
 62
7
100
AcDbSpline
 70
8
 71
3
 72
8
 73
4
 74
0
 40
0
 40
0
 40
0
 40
0
 40
1
 40
1
 40
1
 40
1
 10
-213.404085
 20
301.031246
 30
0.0
 10
-213.404085
 20
299.374394
 30
0.0
 10
-214.747229
 20
298.031250
 30
0.0
 10
-216.404082
 20
298.031250
 30
0.0
  0
LINE
  5
140
100
AcDbEntity
  8
Layer_1
 62
7
100
AcDbLine
 10
-216.404082
 20
298.031250
 30
0.0
 11
-222.404073
 21
298.031250
 31
0.0
  0
SPLINE
  5
141
100
AcDbEntity
  8
Layer_1
 62
7
100
AcDbSpline
 70
8
 71
3
 72
8
 73
4
 74
0
 40
0
 40
0
 40
0
 40
0
 40
1
 40
1
 40
1
 40
1
 10
-222.404073
 20
298.031250
 30
0.0
 10
-223.475868
 20
298.031250
 30
0.0
 10
-224.466248
 20
298.603046
 30
0.0
 10
-225.002146
 20
299.531248
 30
0.0
  0
SPLINE
  5
142
100
AcDbEntity
  8
Layer_1
 62
7
100
AcDbSpline
 70
8
 71
3
 72
8
 73
4
 74
0
 40
0
 40
0
 40
0
 40
0
 40
1
 40
1
 40
1
 40
1
 10
-225.002146
 20
299.531248
 30
0.0
 10
-225.538044
 20
300.459450
 30
0.0
 10
-225.538044
 20
301.603043
 30
0.0
 10
-225.002146
 20
302.531245
 30
0.0
  0
SPLINE
  5
143
100
AcDbEntity
  8
Layer_1
 62
7
100
AcDbSpline
 70
8
 71
3
 72
8
 73
4
 74
0
 40
0
 40
0
 40
0
 40
0
 40
1
 40
1
 40
1
 40
1
 10
-225.002146
 20
302.531245
 30
0.0
 10
-224.466248
 20
303.459447
 30
0.0
 10
-223.475868
 20
304.031243
 30
0.0
 10
-222.404073
 20
304.031243
 30
0.0
  0
LINE
  5
144
100
AcDbEntity
  8
Layer_1
 62
7
100
AcDbLine
 10
-222.404073
 20
304.031243
 30
0.0
 11
-222.404073
 21
304.031243
 31
0.0
  0
LINE
  5
145
100
AcDbEntity
  8
Layer_1
 62
7
100
AcDbLine
 10
1.888546
 20
145.412388
 30
0.0
 11
-1.111455
 21
145.412388
 31
0.0
  0
SPLINE
  5
146
100
AcDbEntity
  8
Layer_1
 62
7
100
AcDbSpline
 70
8
 71
3
 72
8
 73
4
 74
0
 40
0
 40
0
 40
0
 40
0
 40
1
 40
1
 40
1
 40
1
 10
-1.111455
 20
145.412388
 30
0.0
 10
-1.879575
 20
145.412388
 30
0.0
 10
-2.589348
 20
145.822175
 30
0.0
 10
-2.973408
 20
146.487387
 30
0.0
  0
SPLINE
  5
147
100
AcDbEntity
  8
Layer_1
 62
7
100
AcDbSpline
 70
8
 71
3
 72
8
 73
4
 74
0
 40
0
 40
0
 40
0
 40
0
 40
1
 40
1
 40
1
 40
1
 10
-2.973408
 20
146.487387
 30
0.0
 10
-3.357468
 20
147.152598
 30
0.0
 10
-3.357468
 20
147.972173
 30
0.0
 10
-2.973408
 20
148.637384
 30
0.0
  0
SPLINE
  5
148
100
AcDbEntity
  8
Layer_1
 62
7
100
AcDbSpline
 70
8
 71
3
 72
8
 73
4
 74
0
 40
0
 40
0
 40
0
 40
0
 40
1
 40
1
 40
1
 40
1
 10
-2.973408
 20
148.637384
 30
0.0
 10
-2.589348
 20
149.302596
 30
0.0
 10
-1.879575
 20
149.712383
 30
0.0
 10
-1.111455
 20
149.712383
 30
0.0
  0
LINE
  5
149
100
AcDbEntity
  8
Layer_1
 62
7
100
AcDbLine
 10
-1.111455
 20
149.712383
 30
0.0
 11
1.888546
 21
149.712383
 31
0.0
  0
SPLINE
  5
14a
100
AcDbEntity
  8
Layer_1
 62
7
100
AcDbSpline
 70
8
 71
3
 72
8
 73
4
 74
0
 40
0
 40
0
 40
0
 40
0
 40
1
 40
1
 40
1
 40
1
 10
1.888546
 20
149.712383
 30
0.0
 10
2.656666
 20
149.712383
 30
0.0
 10
3.366438
 20
149.302596
 30
0.0
 10
3.750498
 20
148.637384
 30
0.0
  0
SPLINE
  5
14b
100
AcDbEntity
  8
Layer_1
 62
7
100
AcDbSpline
 70
8
 71
3
 72
8
 73
4
 74
0
 40
0
 40
0
 40
0
 40
0
 40
1
 40
1
 40
1
 40
1
 10
3.750498
 20
148.637384
 30
0.0
 10
4.134558
 20
147.972173
 30
0.0
 10
4.134558
 20
147.152598
 30
0.0
 10
3.750498
 20
146.487387
 30
0.0
  0
SPLINE
  5
14c
100
AcDbEntity
  8
Layer_1
 62
7
100
AcDbSpline
 70
8
 71
3
 72
8
 73
4
 74
0
 40
0
 40
0
 40
0
 40
0
 40
1
 40
1
 40
1
 40
1
 10
3.750498
 20
146.487387
 30
0.0
 10
3.366438
 20
145.822175
 30
0.0
 10
2.656666
 20
145.412388
 30
0.0
 10
1.888546
 20
145.412388
 30
0.0
  0
LINE
  5
14d
100
AcDbEntity
  8
Layer_1
 62
7
100
AcDbLine
 10
1.888546
 20
145.412388
 30
0.0
 11
1.888546
 21
145.412388
 31
0.0
  0
SPLINE
  5
14e
100
AcDbEntity
  8
Layer_1
 62
7
100
AcDbSpline
 70
8
 71
3
 72
8
 73
4
 74
0
 40
0
 40
0
 40
0
 40
0
 40
1
 40
1
 40
1
 40
1
 10
-222.404073
 20
54.507673
 30
0.0
 10
-223.475870
 20
54.507673
 30
0.0
 10
-224.466251
 20
53.935876
 30
0.0
 10
-225.002150
 20
53.007672
 30
0.0
  0
SPLINE
  5
14f
100
AcDbEntity
  8
Layer_1
 62
7
100
AcDbSpline
 70
8
 71
3
 72
8
 73
4
 74
0
 40
0
 40
0
 40
0
 40
0
 40
1
 40
1
 40
1
 40
1
 10
-225.002150
 20
53.007672
 30
0.0
 10
-225.538048
 20
52.079469
 30
0.0
 10
-225.538048
 20
50.935875
 30
0.0
 10
-225.002150
 20
50.007671
 30
0.0
  0
SPLINE
  5
150
100
AcDbEntity
  8
Layer_1
 62
7
100
AcDbSpline
 70
8
 71
3
 72
8
 73
4
 74
0
 40
0
 40
0
 40
0
 40
0
 40
1
 40
1
 40
1
 40
1
 10
-225.002150
 20
50.007671
 30
0.0
 10
-224.466251
 20
49.079468
 30
0.0
 10
-223.475870
 20
48.507671
 30
0.0
 10
-222.404073
 20
48.507671
 30
0.0
  0
LINE
  5
151
100
AcDbEntity
  8
Layer_1
 62
7
100
AcDbLine
 10
-222.404073
 20
48.507671
 30
0.0
 11
-216.404082
 21
48.507671
 31
0.0
  0
SPLINE
  5
152
100
AcDbEntity
  8
Layer_1
 62
7
100
AcDbSpline
 70
8
 71
3
 72
8
 73
4
 74
0
 40
0
 40
0
 40
0
 40
0
 40
1
 40
1
 40
1
 40
1
 10
-216.404082
 20
48.507671
 30
0.0
 10
-215.332285
 20
48.507671
 30
0.0
 10
-214.341903
 20
49.079468
 30
0.0
 10
-213.806005
 20
50.007671
 30
0.0
  0
SPLINE
  5
153
100
AcDbEntity
  8
Layer_1
 62
7
100
AcDbSpline
 70
8
 71
3
 72
8
 73
4
 74
0
 40
0
 40
0
 40
0
 40
0
 40
1
 40
1
 40
1
 40
1
 10
-213.806005
 20
50.007671
 30
0.0
 10
-213.270106
 20
50.935875
 30
0.0
 10
-213.270106
 20
52.079469
 30
0.0
 10
-213.806005
 20
53.007672
 30
0.0
  0
SPLINE
  5
154
100
AcDbEntity
  8
Layer_1
 62
7
100
AcDbSpline
 70
8
 71
3
 72
8
 73
4
 74
0
 40
0
 40
0
 40
0
 40
0
 40
1
 40
1
 40
1
 40
1
 10
-213.806005
 20
53.007672
 30
0.0
 10
-214.341903
 20
53.935876
 30
0.0
 10
-215.332285
 20
54.507673
 30
0.0
 10
-216.404082
 20
54.507673
 30
0.0
  0
LINE
  5
155
100
AcDbEntity
  8
Layer_1
 62
7
100
AcDbLine
 10
-216.404082
 20
54.507673
 30
0.0
 11
-222.404073
 21
54.507673
 31
0.0
  0
SPLINE
  5
156
100
AcDbEntity
  8
Layer_1
 62
7
100
AcDbSpline
 70
8
 71
3
 72
8
 73
4
 74
0
 40
0
 40
0
 40
0
 40
0
 40
1
 40
1
 40
1
 40
1
 10
112.181292
 20
304.031243
 30
0.0
 10
110.524440
 20
304.031243
 30
0.0
 10
109.181295
 20
302.688099
 30
0.0
 10
109.181295
 20
301.031246
 30
0.0
  0
SPLINE
  5
157
100
AcDbEntity
  8
Layer_1
 62
7
100
AcDbSpline
 70
8
 71
3
 72
8
 73
4
 74
0
 40
0
 40
0
 40
0
 40
0
 40
1
 40
1
 40
1
 40
1
 10
109.181295
 20
301.031246
 30
0.0
 10
109.181295
 20
299.374394
 30
0.0
 10
110.524440
 20
298.031250
 30
0.0
 10
112.181292
 20
298.031250
 30
0.0
  0
LINE
  5
158
100
AcDbEntity
  8
Layer_1
 62
7
100
AcDbLine
 10
112.181292
 20
298.031250
 30
0.0
 11
118.181294
 21
298.031250
 31
0.0
  0
SPLINE
  5
159
100
AcDbEntity
  8
Layer_1
 62
7
100
AcDbSpline
 70
8
 71
3
 72
8
 73
4
 74
0
 40
0
 40
0
 40
0
 40
0
 40
1
 40
1
 40
1
 40
1
 10
118.181294
 20
298.031250
 30
0.0
 10
119.253089
 20
298.031250
 30
0.0
 10
120.243469
 20
298.603046
 30
0.0
 10
120.779367
 20
299.531248
 30
0.0
  0
SPLINE
  5
15a
100
AcDbEntity
  8
Layer_1
 62
7
100
AcDbSpline
 70
8
 71
3
 72
8
 73
4
 74
0
 40
0
 40
0
 40
0
 40
0
 40
1
 40
1
 40
1
 40
1
 10
120.779367
 20
299.531248
 30
0.0
 10
121.315265
 20
300.459450
 30
0.0
 10
121.315265
 20
301.603043
 30
0.0
 10
120.779367
 20
302.531245
 30
0.0
  0
SPLINE
  5
15b
100
AcDbEntity
  8
Layer_1
 62
7
100
AcDbSpline
 70
8
 71
3
 72
8
 73
4
 74
0
 40
0
 40
0
 40
0
 40
0
 40
1
 40
1
 40
1
 40
1
 10
120.779367
 20
302.531245
 30
0.0
 10
120.243469
 20
303.459447
 30
0.0
 10
119.253089
 20
304.031243
 30
0.0
 10
118.181294
 20
304.031243
 30
0.0
  0
LINE
  5
15c
100
AcDbEntity
  8
Layer_1
 62
7
100
AcDbLine
 10
118.181294
 20
304.031243
 30
0.0
 11
112.181292
 21
304.031243
 31
0.0
  0
LINE
  5
15d
100
AcDbEntity
  8
Layer_1
 62
7
100
AcDbLine
 10
112.181292
 20
54.507673
 30
0.0
 11
118.181294
 21
54.507673
 31
0.0
  0
SPLINE
  5
15e
100
AcDbEntity
  8
Layer_1
 62
7
100
AcDbSpline
 70
8
 71
3
 72
8
 73
4
 74
0
 40
0
 40
0
 40
0
 40
0
 40
1
 40
1
 40
1
 40
1
 10
118.181294
 20
54.507673
 30
0.0
 10
119.253091
 20
54.507673
 30
0.0
 10
120.243472
 20
53.935876
 30
0.0
 10
120.779371
 20
53.007672
 30
0.0
  0
SPLINE
  5
15f
100
AcDbEntity
  8
Layer_1
 62
7
100
AcDbSpline
 70
8
 71
3
 72
8
 73
4
 74
0
 40
0
 40
0
 40
0
 40
0
 40
1
 40
1
 40
1
 40
1
 10
120.779371
 20
53.007672
 30
0.0
 10
121.315269
 20
52.079469
 30
0.0
 10
121.315269
 20
50.935875
 30
0.0
 10
120.779371
 20
50.007671
 30
0.0
  0
SPLINE
  5
160
100
AcDbEntity
  8
Layer_1
 62
7
100
AcDbSpline
 70
8
 71
3
 72
8
 73
4
 74
0
 40
0
 40
0
 40
0
 40
0
 40
1
 40
1
 40
1
 40
1
 10
120.779371
 20
50.007671
 30
0.0
 10
120.243472
 20
49.079468
 30
0.0
 10
119.253091
 20
48.507671
 30
0.0
 10
118.181294
 20
48.507671
 30
0.0
  0
LINE
  5
161
100
AcDbEntity
  8
Layer_1
 62
7
100
AcDbLine
 10
118.181294
 20
48.507671
 30
0.0
 11
112.181292
 21
48.507671
 31
0.0
  0
SPLINE
  5
162
100
AcDbEntity
  8
Layer_1
 62
7
100
AcDbSpline
 70
8
 71
3
 72
8
 73
4
 74
0
 40
0
 40
0
 40
0
 40
0
 40
1
 40
1
 40
1
 40
1
 10
112.181292
 20
48.507671
 30
0.0
 10
111.109495
 20
48.507671
 30
0.0
 10
110.119114
 20
49.079468
 30
0.0
 10
109.583215
 20
50.007671
 30
0.0
  0
SPLINE
  5
163
100
AcDbEntity
  8
Layer_1
 62
7
100
AcDbSpline
 70
8
 71
3
 72
8
 73
4
 74
0
 40
0
 40
0
 40
0
 40
0
 40
1
 40
1
 40
1
 40
1
 10
109.583215
 20
50.007671
 30
0.0
 10
109.047317
 20
50.935875
 30
0.0
 10
109.047317
 20
52.079469
 30
0.0
 10
109.583215
 20
53.007672
 30
0.0
  0
SPLINE
  5
164
100
AcDbEntity
  8
Layer_1
 62
7
100
AcDbSpline
 70
8
 71
3
 72
8
 73
4
 74
0
 40
0
 40
0
 40
0
 40
0
 40
1
 40
1
 40
1
 40
1
 10
109.583215
 20
53.007672
 30
0.0
 10
110.119114
 20
53.935876
 30
0.0
 10
111.109495
 20
54.507673
 30
0.0
 10
112.181292
 20
54.507673
 30
0.0
  0
LINE
  5
165
100
AcDbEntity
  8
Layer_1
 62
7
100
AcDbLine
 10
112.181292
 20
54.507673
 30
0.0
 11
112.181292
 21
54.507673
 31
0.0
  0
SPLINE
  5
166
100
AcDbEntity
  8
Layer_1
 62
7
100
AcDbSpline
 70
8
 71
3
 72
8
 73
4
 74
0
 40
0
 40
0
 40
0
 40
0
 40
1
 40
1
 40
1
 40
1
 10
25.531391
 20
98.162447
 30
0.0
 10
25.533618
 20
98.932045
 30
0.0
 10
25.124320
 20
99.644138
 30
0.0
 10
24.458197
 20
100.029581
 30
0.0
  0
SPLINE
  5
167
100
AcDbEntity
  8
Layer_1
 62
7
100
AcDbSpline
 70
8
 71
3
 72
8
 73
4
 74
0
 40
0
 40
0
 40
0
 40
0
 40
1
 40
1
 40
1
 40
1
 10
24.458197
 20
100.029581
 30
0.0
 10
23.792074
 20
100.415024
 30
0.0
 10
22.970733
 20
100.415024
 30
0.0
 10
22.304610
 20
100.029581
 30
0.0
  0
SPLINE
  5
168
100
AcDbEntity
  8
Layer_1
 62
7
100
AcDbSpline
 70
8
 71
3
 72
8
 73
4
 74
0
 40
0
 40
0
 40
0
 40
0
 40
1
 40
1
 40
1
 40
1
 10
22.304610
 20
100.029581
 30
0.0
 10
21.638487
 20
99.644138
 30
0.0
 10
21.229189
 20
98.932045
 30
0.0
 10
21.231415
 20
98.162447
 30
0.0
  0
SPLINE
  5
169
100
AcDbEntity
  8
Layer_1
 62
7
100
AcDbSpline
 70
8
 71
3
 72
8
 73
4
 74
0
 40
0
 40
0
 40
0
 40
0
 40
1
 40
1
 40
1
 40
1
 10
21.231415
 20
98.162447
 30
0.0
 10
21.229189
 20
97.392848
 30
0.0
 10
21.638487
 20
96.680756
 30
0.0
 10
22.304610
 20
96.295313
 30
0.0
  0
SPLINE
  5
16a
100
AcDbEntity
  8
Layer_1
 62
7
100
AcDbSpline
 70
8
 71
3
 72
8
 73
4
 74
0
 40
0
 40
0
 40
0
 40
0
 40
1
 40
1
 40
1
 40
1
 10
22.304610
 20
96.295313
 30
0.0
 10
22.970733
 20
95.909869
 30
0.0
 10
23.792074
 20
95.909869
 30
0.0
 10
24.458197
 20
96.295313
 30
0.0
  0
SPLINE
  5
16b
100
AcDbEntity
  8
Layer_1
 62
7
100
AcDbSpline
 70
8
 71
3
 72
8
 73
4
 74
0
 40
0
 40
0
 40
0
 40
0
 40
1
 40
1
 40
1
 40
1
 10
24.458197
 20
96.295313
 30
0.0
 10
25.124320
 20
96.680756
 30
0.0
 10
25.533618
 20
97.392848
 30
0.0
 10
25.531391
 20
98.162447
 30
0.0
  0
LINE
  5
16c
100
AcDbEntity
  8
Layer_1
 62
7
100
AcDbLine
 10
25.531391
 20
98.162447
 30
0.0
 11
25.531391
 21
98.162447
 31
0.0
  0
SPLINE
  5
16d
100
AcDbEntity
  8
Layer_1
 62
7
100
AcDbSpline
 70
8
 71
3
 72
8
 73
4
 74
0
 40
0
 40
0
 40
0
 40
0
 40
1
 40
1
 40
1
 40
1
 10
121.888393
 20
145.412388
 30
0.0
 10
122.656513
 20
145.412388
 30
0.0
 10
123.366285
 20
145.822175
 30
0.0
 10
123.750345
 20
146.487387
 30
0.0
  0
SPLINE
  5
16e
100
AcDbEntity
  8
Layer_1
 62
7
100
AcDbSpline
 70
8
 71
3
 72
8
 73
4
 74
0
 40
0
 40
0
 40
0
 40
0
 40
1
 40
1
 40
1
 40
1
 10
123.750345
 20
146.487387
 30
0.0
 10
124.134405
 20
147.152598
 30
0.0
 10
124.134405
 20
147.972173
 30
0.0
 10
123.750345
 20
148.637384
 30
0.0
  0
SPLINE
  5
16f
100
AcDbEntity
  8
Layer_1
 62
7
100
AcDbSpline
 70
8
 71
3
 72
8
 73
4
 74
0
 40
0
 40
0
 40
0
 40
0
 40
1
 40
1
 40
1
 40
1
 10
123.750345
 20
148.637384
 30
0.0
 10
123.366285
 20
149.302596
 30
0.0
 10
122.656513
 20
149.712383
 30
0.0
 10
121.888393
 20
149.712383
 30
0.0
  0
LINE
  5
170
100
AcDbEntity
  8
Layer_1
 62
7
100
AcDbLine
 10
121.888393
 20
149.712383
 30
0.0
 11
118.888392
 21
149.712383
 31
0.0
  0
SPLINE
  5
171
100
AcDbEntity
  8
Layer_1
 62
7
100
AcDbSpline
 70
8
 71
3
 72
8
 73
4
 74
0
 40
0
 40
0
 40
0
 40
0
 40
1
 40
1
 40
1
 40
1
 10
118.888392
 20
149.712383
 30
0.0
 10
118.120272
 20
149.712383
 30
0.0
 10
117.410499
 20
149.302596
 30
0.0
 10
117.026439
 20
148.637384
 30
0.0
  0
SPLINE
  5
172
100
AcDbEntity
  8
Layer_1
 62
7
100
AcDbSpline
 70
8
 71
3
 72
8
 73
4
 74
0
 40
0
 40
0
 40
0
 40
0
 40
1
 40
1
 40
1
 40
1
 10
117.026439
 20
148.637384
 30
0.0
 10
116.642379
 20
147.972173
 30
0.0
 10
116.642379
 20
147.152598
 30
0.0
 10
117.026439
 20
146.487387
 30
0.0
  0
SPLINE
  5
173
100
AcDbEntity
  8
Layer_1
 62
7
100
AcDbSpline
 70
8
 71
3
 72
8
 73
4
 74
0
 40
0
 40
0
 40
0
 40
0
 40
1
 40
1
 40
1
 40
1
 10
117.026439
 20
146.487387
 30
0.0
 10
117.410499
 20
145.822175
 30
0.0
 10
118.120272
 20
145.412388
 30
0.0
 10
118.888392
 20
145.412388
 30
0.0
  0
LINE
  5
174
100
AcDbEntity
  8
Layer_1
 62
7
100
AcDbLine
 10
118.888392
 20
145.412388
 30
0.0
 11
121.888393
 21
145.412388
 31
0.0
  0
LINE
  5
175
100
AcDbEntity
  8
Layer_1
 62
7
100
AcDbLine
 10
101.181307
 20
112.562430
 30
0.0
 11
101.181307
 21
99.662447
 31
0.0
  0
LINE
  5
176
100
AcDbEntity
  8
Layer_1
 62
7
100
AcDbLine
 10
101.181307
 20
99.662447
 30
0.0
 11
99.181297
 21
99.662447
 31
0.0
  0
LINE
  5
177
100
AcDbEntity
  8
Layer_1
 62
7
100
AcDbLine
 10
99.181297
 20
99.662447
 30
0.0
 11
99.181297
 21
110.562431
 31
0.0
  0
LINE
  5
178
100
AcDbEntity
  8
Layer_1
 62
7
100
AcDbLine
 10
99.181297
 20
110.562431
 30
0.0
 11
55.381354
 21
110.562431
 31
0.0
  0
LINE
  5
179
100
AcDbEntity
  8
Layer_1
 62
7
100
AcDbLine
 10
55.381354
 20
110.562431
 30
0.0
 11
55.381354
 21
99.662447
 31
0.0
  0
LINE
  5
17a
100
AcDbEntity
  8
Layer_1
 62
7
100
AcDbLine
 10
55.381354
 20
99.662447
 30
0.0
 11
53.381372
 21
99.662447
 31
0.0
  0
LINE
  5
17b
100
AcDbEntity
  8
Layer_1
 62
7
100
AcDbLine
 10
53.381372
 20
99.662447
 30
0.0
 11
53.381372
 21
112.562430
 31
0.0
  0
LINE
  5
17c
100
AcDbEntity
  8
Layer_1
 62
7
100
AcDbLine
 10
53.381372
 20
112.562430
 30
0.0
 11
101.181307
 21
112.562430
 31
0.0
  0
LINE
  5
17d
100
AcDbEntity
  8
Layer_1
 62
7
100
AcDbLine
 10
100.388404
 20
142.562393
 30
0.0
 11
35.388484
 21
142.562393
 31
0.0
  0
LINE
  5
17e
100
AcDbEntity
  8
Layer_1
 62
7
100
AcDbLine
 10
35.388484
 20
142.562393
 30
0.0
 11
10.388539
 21
167.562361
 31
0.0
  0
LINE
  5
17f
100
AcDbEntity
  8
Layer_1
 62
7
100
AcDbLine
 10
10.388539
 20
167.562361
 30
0.0
 11
10.388539
 21
232.562279
 31
0.0
  0
LINE
  5
180
100
AcDbEntity
  8
Layer_1
 62
7
100
AcDbLine
 10
10.388539
 20
232.562279
 30
0.0
 11
35.388484
 21
257.562248
 31
0.0
  0
LINE
  5
181
100
AcDbEntity
  8
Layer_1
 62
7
100
AcDbLine
 10
35.388484
 20
257.562248
 30
0.0
 11
100.388404
 21
257.562248
 31
0.0
  0
LINE
  5
182
100
AcDbEntity
  8
Layer_1
 62
7
100
AcDbLine
 10
100.388404
 20
257.562248
 30
0.0
 11
125.388376
 21
232.562279
 31
0.0
  0
LINE
  5
183
100
AcDbEntity
  8
Layer_1
 62
7
100
AcDbLine
 10
125.388376
 20
232.562279
 30
0.0
 11
125.388376
 21
167.562361
 31
0.0
  0
LINE
  5
184
100
AcDbEntity
  8
Layer_1
 62
7
100
AcDbLine
 10
125.388376
 20
167.562361
 30
0.0
 11
100.388404
 21
142.562393
 31
0.0
  0
SPLINE
  5
185
100
AcDbEntity
  8
Layer_1
 62
7
100
AcDbSpline
 70
8
 71
3
 72
8
 73
4
 74
0
 40
0
 40
0
 40
0
 40
0
 40
1
 40
1
 40
1
 40
1
 10
-1.111455
 20
254.712250
 30
0.0
 10
-2.298866
 20
254.712250
 30
0.0
 10
-3.261453
 20
253.749663
 30
0.0
 10
-3.261453
 20
252.562252
 30
0.0
  0
SPLINE
  5
186
100
AcDbEntity
  8
Layer_1
 62
7
100
AcDbSpline
 70
8
 71
3
 72
8
 73
4
 74
0
 40
0
 40
0
 40
0
 40
0
 40
1
 40
1
 40
1
 40
1
 10
-3.261453
 20
252.562252
 30
0.0
 10
-3.261453
 20
251.374842
 30
0.0
 10
-2.298866
 20
250.412255
 30
0.0
 10
-1.111455
 20
250.412255
 30
0.0
  0
LINE
  5
187
100
AcDbEntity
  8
Layer_1
 62
7
100
AcDbLine
 10
-1.111455
 20
250.412255
 30
0.0
 11
1.888546
 21
250.412255
 31
0.0
  0
SPLINE
  5
188
100
AcDbEntity
  8
Layer_1
 62
7
100
AcDbSpline
 70
8
 71
3
 72
8
 73
4
 74
0
 40
0
 40
0
 40
0
 40
0
 40
1
 40
1
 40
1
 40
1
 10
1.888546
 20
250.412255
 30
0.0
 10
2.656666
 20
250.412255
 30
0.0
 10
3.366438
 20
250.822042
 30
0.0
 10
3.750498
 20
251.487254
 30
0.0
  0
SPLINE
  5
189
100
AcDbEntity
  8
Layer_1
 62
7
100
AcDbSpline
 70
8
 71
3
 72
8
 73
4
 74
0
 40
0
 40
0
 40
0
 40
0
 40
1
 40
1
 40
1
 40
1
 10
3.750498
 20
251.487254
 30
0.0
 10
4.134558
 20
252.152465
 30
0.0
 10
4.134558
 20
252.972039
 30
0.0
 10
3.750498
 20
253.637251
 30
0.0
  0
SPLINE
  5
18a
100
AcDbEntity
  8
Layer_1
 62
7
100
AcDbSpline
 70
8
 71
3
 72
8
 73
4
 74
0
 40
0
 40
0
 40
0
 40
0
 40
1
 40
1
 40
1
 40
1
 10
3.750498
 20
253.637251
 30
0.0
 10
3.366438
 20
254.302463
 30
0.0
 10
2.656666
 20
254.712250
 30
0.0
 10
1.888546
 20
254.712250
 30
0.0
  0
LINE
  5
18b
100
AcDbEntity
  8
Layer_1
 62
7
100
AcDbLine
 10
1.888546
 20
254.712250
 30
0.0
 11
-1.111455
 21
254.712250
 31
0.0
  0
SPLINE
  5
18c
100
AcDbEntity
  8
Layer_1
 62
7
100
AcDbSpline
 70
8
 71
3
 72
8
 73
4
 74
0
 40
0
 40
0
 40
0
 40
0
 40
1
 40
1
 40
1
 40
1
 10
-226.111174
 20
254.712250
 30
0.0
 10
-227.298585
 20
254.712250
 30
0.0
 10
-228.261171
 20
253.749663
 30
0.0
 10
-228.261171
 20
252.562252
 30
0.0
  0
SPLINE
  5
18d
100
AcDbEntity
  8
Layer_1
 62
7
100
AcDbSpline
 70
8
 71
3
 72
8
 73
4
 74
0
 40
0
 40
0
 40
0
 40
0
 40
1
 40
1
 40
1
 40
1
 10
-228.261171
 20
252.562252
 30
0.0
 10
-228.261171
 20
251.374842
 30
0.0
 10
-227.298585
 20
250.412255
 30
0.0
 10
-226.111174
 20
250.412255
 30
0.0
  0
LINE
  5
18e
100
AcDbEntity
  8
Layer_1
 62
7
100
AcDbLine
 10
-226.111174
 20
250.412255
 30
0.0
 11
-223.111179
 21
250.412255
 31
0.0
  0
SPLINE
  5
18f
100
AcDbEntity
  8
Layer_1
 62
7
100
AcDbSpline
 70
8
 71
3
 72
8
 73
4
 74
0
 40
0
 40
0
 40
0
 40
0
 40
1
 40
1
 40
1
 40
1
 10
-223.111179
 20
250.412255
 30
0.0
 10
-222.343059
 20
250.412255
 30
0.0
 10
-221.633286
 20
250.822042
 30
0.0
 10
-221.249226
 20
251.487254
 30
0.0
  0
SPLINE
  5
190
100
AcDbEntity
  8
Layer_1
 62
7
100
AcDbSpline
 70
8
 71
3
 72
8
 73
4
 74
0
 40
0
 40
0
 40
0
 40
0
 40
1
 40
1
 40
1
 40
1
 10
-221.249226
 20
251.487254
 30
0.0
 10
-220.865166
 20
252.152465
 30
0.0
 10
-220.865166
 20
252.972039
 30
0.0
 10
-221.249226
 20
253.637251
 30
0.0
  0
SPLINE
  5
191
100
AcDbEntity
  8
Layer_1
 62
7
100
AcDbSpline
 70
8
 71
3
 72
8
 73
4
 74
0
 40
0
 40
0
 40
0
 40
0
 40
1
 40
1
 40
1
 40
1
 10
-221.249226
 20
253.637251
 30
0.0
 10
-221.633286
 20
254.302463
 30
0.0
 10
-222.343059
 20
254.712250
 30
0.0
 10
-223.111179
 20
254.712250
 30
0.0
  0
LINE
  5
192
100
AcDbEntity
  8
Layer_1
 62
7
100
AcDbLine
 10
-223.111179
 20
254.712250
 30
0.0
 11
-226.111174
 21
254.712250
 31
0.0
  0
SPLINE
  5
193
100
AcDbEntity
  8
Layer_1
 62
7
100
AcDbSpline
 70
8
 71
3
 72
8
 73
4
 74
0
 40
0
 40
0
 40
0
 40
0
 40
1
 40
1
 40
1
 40
1
 10
118.888392
 20
254.712250
 30
0.0
 10
117.700981
 20
254.712250
 30
0.0
 10
116.738394
 20
253.749663
 30
0.0
 10
116.738394
 20
252.562252
 30
0.0
  0
SPLINE
  5
194
100
AcDbEntity
  8
Layer_1
 62
7
100
AcDbSpline
 70
8
 71
3
 72
8
 73
4
 74
0
 40
0
 40
0
 40
0
 40
0
 40
1
 40
1
 40
1
 40
1
 10
116.738394
 20
252.562252
 30
0.0
 10
116.738394
 20
251.374842
 30
0.0
 10
117.700981
 20
250.412255
 30
0.0
 10
118.888392
 20
250.412255
 30
0.0
  0
LINE
  5
195
100
AcDbEntity
  8
Layer_1
 62
7
100
AcDbLine
 10
118.888392
 20
250.412255
 30
0.0
 11
121.888393
 21
250.412255
 31
0.0
  0
SPLINE
  5
196
100
AcDbEntity
  8
Layer_1
 62
7
100
AcDbSpline
 70
8
 71
3
 72
8
 73
4
 74
0
 40
0
 40
0
 40
0
 40
0
 40
1
 40
1
 40
1
 40
1
 10
121.888393
 20
250.412255
 30
0.0
 10
122.656513
 20
250.412255
 30
0.0
 10
123.366285
 20
250.822042
 30
0.0
 10
123.750345
 20
251.487254
 30
0.0
  0
SPLINE
  5
197
100
AcDbEntity
  8
Layer_1
 62
7
100
AcDbSpline
 70
8
 71
3
 72
8
 73
4
 74
0
 40
0
 40
0
 40
0
 40
0
 40
1
 40
1
 40
1
 40
1
 10
123.750345
 20
251.487254
 30
0.0
 10
124.134405
 20
252.152465
 30
0.0
 10
124.134405
 20
252.972039
 30
0.0
 10
123.750345
 20
253.637251
 30
0.0
  0
SPLINE
  5
198
100
AcDbEntity
  8
Layer_1
 62
7
100
AcDbSpline
 70
8
 71
3
 72
8
 73
4
 74
0
 40
0
 40
0
 40
0
 40
0
 40
1
 40
1
 40
1
 40
1
 10
123.750345
 20
253.637251
 30
0.0
 10
123.366285
 20
254.302463
 30
0.0
 10
122.656513
 20
254.712250
 30
0.0
 10
121.888393
 20
254.712250
 30
0.0
  0
LINE
  5
199
100
AcDbEntity
  8
Layer_1
 62
7
100
AcDbLine
 10
121.888393
 20
254.712250
 30
0.0
 11
118.888392
 21
254.712250
 31
0.0
  0
SPLINE
  5
19a
100
AcDbEntity
  8
Layer_1
 62
7
100
AcDbSpline
 70
8
 71
3
 72
8
 73
4
 74
0
 40
0
 40
0
 40
0
 40
0
 40
1
 40
1
 40
1
 40
1
 10
-103.111329
 20
250.412255
 30
0.0
 10
-102.343209
 20
250.412255
 30
0.0
 10
-101.633437
 20
250.822042
 30
0.0
 10
-101.249377
 20
251.487254
 30
0.0
  0
SPLINE
  5
19b
100
AcDbEntity
  8
Layer_1
 62
7
100
AcDbSpline
 70
8
 71
3
 72
8
 73
4
 74
0
 40
0
 40
0
 40
0
 40
0
 40
1
 40
1
 40
1
 40
1
 10
-101.249377
 20
251.487254
 30
0.0
 10
-100.865317
 20
252.152465
 30
0.0
 10
-100.865317
 20
252.972039
 30
0.0
 10
-101.249377
 20
253.637251
 30
0.0
  0
SPLINE
  5
19c
100
AcDbEntity
  8
Layer_1
 62
7
100
AcDbSpline
 70
8
 71
3
 72
8
 73
4
 74
0
 40
0
 40
0
 40
0
 40
0
 40
1
 40
1
 40
1
 40
1
 10
-101.249377
 20
253.637251
 30
0.0
 10
-101.633437
 20
254.302463
 30
0.0
 10
-102.343209
 20
254.712250
 30
0.0
 10
-103.111329
 20
254.712250
 30
0.0
  0
LINE
  5
19d
100
AcDbEntity
  8
Layer_1
 62
7
100
AcDbLine
 10
-103.111329
 20
254.712250
 30
0.0
 11
-106.111327
 21
254.712250
 31
0.0
  0
SPLINE
  5
19e
100
AcDbEntity
  8
Layer_1
 62
7
100
AcDbSpline
 70
8
 71
3
 72
8
 73
4
 74
0
 40
0
 40
0
 40
0
 40
0
 40
1
 40
1
 40
1
 40
1
 10
-106.111327
 20
254.712250
 30
0.0
 10
-106.879447
 20
254.712250
 30
0.0
 10
-107.589220
 20
254.302463
 30
0.0
 10
-107.973280
 20
253.637251
 30
0.0
  0
SPLINE
  5
19f
100
AcDbEntity
  8
Layer_1
 62
7
100
AcDbSpline
 70
8
 71
3
 72
8
 73
4
 74
0
 40
0
 40
0
 40
0
 40
0
 40
1
 40
1
 40
1
 40
1
 10
-107.973280
 20
253.637251
 30
0.0
 10
-108.357340
 20
252.972039
 30
0.0
 10
-108.357340
 20
252.152465
 30
0.0
 10
-107.973280
 20
251.487254
 30
0.0
  0
SPLINE
  5
1a0
100
AcDbEntity
  8
Layer_1
 62
7
100
AcDbSpline
 70
8
 71
3
 72
8
 73
4
 74
0
 40
0
 40
0
 40
0
 40
0
 40
1
 40
1
 40
1
 40
1
 10
-107.973280
 20
251.487254
 30
0.0
 10
-107.589220
 20
250.822042
 30
0.0
 10
-106.879447
 20
250.412255
 30
0.0
 10
-106.111327
 20
250.412255
 30
0.0
  0
LINE
  5
1a1
100
AcDbEntity
  8
Layer_1
 62
7
100
AcDbLine
 10
-106.111327
 20
250.412255
 30
0.0
 11
-103.111329
 21
250.412255
 31
0.0
  0
LINE
  5
1a2
100
AcDbEntity
  8
Layer_1
 62
7
100
AcDbLine
 10
-114.611315
 20
167.562361
 30
0.0
 11
-139.611284
 21
142.562393
 31
0.0
  0
LINE
  5
1a3
100
AcDbEntity
  8
Layer_1
 62
7
100
AcDbLine
 10
-139.611284
 20
142.562393
 30
0.0
 11
-204.611202
 21
142.562393
 31
0.0
  0
LINE
  5
1a4
100
AcDbEntity
  8
Layer_1
 62
7
100
AcDbLine
 10
-204.611202
 20
142.562393
 30
0.0
 11
-229.611171
 21
167.562361
 31
0.0
  0
LINE
  5
1a5
100
AcDbEntity
  8
Layer_1
 62
7
100
AcDbLine
 10
-229.611171
 20
167.562361
 30
0.0
 11
-229.611171
 21
232.562279
 31
0.0
  0
LINE
  5
1a6
100
AcDbEntity
  8
Layer_1
 62
7
100
AcDbLine
 10
-229.611171
 20
232.562279
 30
0.0
 11
-204.611202
 21
257.562248
 31
0.0
  0
LINE
  5
1a7
100
AcDbEntity
  8
Layer_1
 62
7
100
AcDbLine
 10
-204.611202
 20
257.562248
 30
0.0
 11
-139.611284
 21
257.562248
 31
0.0
  0
LINE
  5
1a8
100
AcDbEntity
  8
Layer_1
 62
7
100
AcDbLine
 10
-139.611284
 20
257.562248
 30
0.0
 11
-114.611315
 21
232.562279
 31
0.0
  0
LINE
  5
1a9
100
AcDbEntity
  8
Layer_1
 62
7
100
AcDbLine
 10
-114.611315
 20
232.562279
 30
0.0
 11
-114.611315
 21
167.562361
 31
0.0
  0
LINE
  5
1aa
100
AcDbEntity
  8
Layer_1
 62
7
100
AcDbLine
 10
99.181297
 20
96.662449
 30
0.0
 11
101.181307
 21
96.662449
 31
0.0
  0
LINE
  5
1ab
100
AcDbEntity
  8
Layer_1
 62
7
100
AcDbLine
 10
101.181307
 20
96.662449
 30
0.0
 11
101.181307
 21
83.762467
 31
0.0
  0
LINE
  5
1ac
100
AcDbEntity
  8
Layer_1
 62
7
100
AcDbLine
 10
101.181307
 20
83.762467
 30
0.0
 11
53.381372
 21
83.762467
 31
0.0
  0
LINE
  5
1ad
100
AcDbEntity
  8
Layer_1
 62
7
100
AcDbLine
 10
53.381372
 20
83.762467
 30
0.0
 11
53.381372
 21
96.662449
 31
0.0
  0
LINE
  5
1ae
100
AcDbEntity
  8
Layer_1
 62
7
100
AcDbLine
 10
53.381372
 20
96.662449
 30
0.0
 11
55.381354
 21
96.662449
 31
0.0
  0
LINE
  5
1af
100
AcDbEntity
  8
Layer_1
 62
7
100
AcDbLine
 10
55.381354
 20
96.662449
 30
0.0
 11
55.381354
 21
85.762463
 31
0.0
  0
LINE
  5
1b0
100
AcDbEntity
  8
Layer_1
 62
7
100
AcDbLine
 10
55.381354
 20
85.762463
 30
0.0
 11
99.181297
 21
85.762463
 31
0.0
  0
LINE
  5
1b1
100
AcDbEntity
  8
Layer_1
 62
7
100
AcDbLine
 10
99.181297
 20
85.762463
 30
0.0
 11
99.181297
 21
96.662449
 31
0.0
  0
SPLINE
  5
1b2
100
AcDbEntity
  8
Layer_1
 62
7
100
AcDbSpline
 70
8
 71
3
 72
8
 73
4
 74
0
 40
0
 40
0
 40
0
 40
0
 40
1
 40
1
 40
1
 40
1
 10
-121.111307
 20
149.712383
 30
0.0
 10
-121.879428
 20
149.712383
 30
0.0
 10
-122.589200
 20
149.302596
 30
0.0
 10
-122.973260
 20
148.637384
 30
0.0
  0
SPLINE
  5
1b3
100
AcDbEntity
  8
Layer_1
 62
7
100
AcDbSpline
 70
8
 71
3
 72
8
 73
4
 74
0
 40
0
 40
0
 40
0
 40
0
 40
1
 40
1
 40
1
 40
1
 10
-122.973260
 20
148.637384
 30
0.0
 10
-123.357320
 20
147.972173
 30
0.0
 10
-123.357320
 20
147.152598
 30
0.0
 10
-122.973260
 20
146.487387
 30
0.0
  0
SPLINE
  5
1b4
100
AcDbEntity
  8
Layer_1
 62
7
100
AcDbSpline
 70
8
 71
3
 72
8
 73
4
 74
0
 40
0
 40
0
 40
0
 40
0
 40
1
 40
1
 40
1
 40
1
 10
-122.973260
 20
146.487387
 30
0.0
 10
-122.589200
 20
145.822175
 30
0.0
 10
-121.879428
 20
145.412388
 30
0.0
 10
-121.111307
 20
145.412388
 30
0.0
  0
LINE
  5
1b5
100
AcDbEntity
  8
Layer_1
 62
7
100
AcDbLine
 10
-121.111307
 20
145.412388
 30
0.0
 11
-118.111312
 21
145.412388
 31
0.0
  0
SPLINE
  5
1b6
100
AcDbEntity
  8
Layer_1
 62
7
100
AcDbSpline
 70
8
 71
3
 72
8
 73
4
 74
0
 40
0
 40
0
 40
0
 40
0
 40
1
 40
1
 40
1
 40
1
 10
-118.111312
 20
145.412388
 30
0.0
 10
-117.343192
 20
145.412388
 30
0.0
 10
-116.633420
 20
145.822175
 30
0.0
 10
-116.249359
 20
146.487387
 30
0.0
  0
SPLINE
  5
1b7
100
AcDbEntity
  8
Layer_1
 62
7
100
AcDbSpline
 70
8
 71
3
 72
8
 73
4
 74
0
 40
0
 40
0
 40
0
 40
0
 40
1
 40
1
 40
1
 40
1
 10
-116.249359
 20
146.487387
 30
0.0
 10
-115.865299
 20
147.152598
 30
0.0
 10
-115.865299
 20
147.972173
 30
0.0
 10
-116.249359
 20
148.637384
 30
0.0
  0
SPLINE
  5
1b8
100
AcDbEntity
  8
Layer_1
 62
7
100
AcDbSpline
 70
8
 71
3
 72
8
 73
4
 74
0
 40
0
 40
0
 40
0
 40
0
 40
1
 40
1
 40
1
 40
1
 10
-116.249359
 20
148.637384
 30
0.0
 10
-116.633420
 20
149.302596
 30
0.0
 10
-117.343192
 20
149.712383
 30
0.0
 10
-118.111312
 20
149.712383
 30
0.0
  0
LINE
  5
1b9
100
AcDbEntity
  8
Layer_1
 62
7
100
AcDbLine
 10
-118.111312
 20
149.712383
 30
0.0
 11
-121.111307
 21
149.712383
 31
0.0
  0
SPLINE
  5
1ba
100
AcDbEntity
  8
Layer_1
 62
7
100
AcDbSpline
 70
8
 71
3
 72
8
 73
4
 74
0
 40
0
 40
0
 40
0
 40
0
 40
1
 40
1
 40
1
 40
1
 10
-118.111312
 20
250.412255
 30
0.0
 10
-117.343192
 20
250.412255
 30
0.0
 10
-116.633420
 20
250.822042
 30
0.0
 10
-116.249359
 20
251.487254
 30
0.0
  0
SPLINE
  5
1bb
100
AcDbEntity
  8
Layer_1
 62
7
100
AcDbSpline
 70
8
 71
3
 72
8
 73
4
 74
0
 40
0
 40
0
 40
0
 40
0
 40
1
 40
1
 40
1
 40
1
 10
-116.249359
 20
251.487254
 30
0.0
 10
-115.865299
 20
252.152465
 30
0.0
 10
-115.865299
 20
252.972039
 30
0.0
 10
-116.249359
 20
253.637251
 30
0.0
  0
SPLINE
  5
1bc
100
AcDbEntity
  8
Layer_1
 62
7
100
AcDbSpline
 70
8
 71
3
 72
8
 73
4
 74
0
 40
0
 40
0
 40
0
 40
0
 40
1
 40
1
 40
1
 40
1
 10
-116.249359
 20
253.637251
 30
0.0
 10
-116.633420
 20
254.302463
 30
0.0
 10
-117.343192
 20
254.712250
 30
0.0
 10
-118.111312
 20
254.712250
 30
0.0
  0
LINE
  5
1bd
100
AcDbEntity
  8
Layer_1
 62
7
100
AcDbLine
 10
-118.111312
 20
254.712250
 30
0.0
 11
-121.111307
 21
254.712250
 31
0.0
  0
SPLINE
  5
1be
100
AcDbEntity
  8
Layer_1
 62
7
100
AcDbSpline
 70
8
 71
3
 72
8
 73
4
 74
0
 40
0
 40
0
 40
0
 40
0
 40
1
 40
1
 40
1
 40
1
 10
-121.111307
 20
254.712250
 30
0.0
 10
-121.879428
 20
254.712250
 30
0.0
 10
-122.589200
 20
254.302463
 30
0.0
 10
-122.973260
 20
253.637251
 30
0.0
  0
SPLINE
  5
1bf
100
AcDbEntity
  8
Layer_1
 62
7
100
AcDbSpline
 70
8
 71
3
 72
8
 73
4
 74
0
 40
0
 40
0
 40
0
 40
0
 40
1
 40
1
 40
1
 40
1
 10
-122.973260
 20
253.637251
 30
0.0
 10
-123.357320
 20
252.972039
 30
0.0
 10
-123.357320
 20
252.152465
 30
0.0
 10
-122.973260
 20
251.487254
 30
0.0
  0
SPLINE
  5
1c0
100
AcDbEntity
  8
Layer_1
 62
7
100
AcDbSpline
 70
8
 71
3
 72
8
 73
4
 74
0
 40
0
 40
0
 40
0
 40
0
 40
1
 40
1
 40
1
 40
1
 10
-122.973260
 20
251.487254
 30
0.0
 10
-122.589200
 20
250.822042
 30
0.0
 10
-121.879428
 20
250.412255
 30
0.0
 10
-121.111307
 20
250.412255
 30
0.0
  0
LINE
  5
1c1
100
AcDbEntity
  8
Layer_1
 62
7
100
AcDbLine
 10
-121.111307
 20
250.412255
 30
0.0
 11
-118.111312
 21
250.412255
 31
0.0
  0
LINE
  5
1c2
100
AcDbEntity
  8
Layer_1
 62
7
100
AcDbLine
 10
13.888522
 20
149.712383
 30
0.0
 11
16.888523
 21
149.712383
 31
0.0
  0
SPLINE
  5
1c3
100
AcDbEntity
  8
Layer_1
 62
7
100
AcDbSpline
 70
8
 71
3
 72
8
 73
4
 74
0
 40
0
 40
0
 40
0
 40
0
 40
1
 40
1
 40
1
 40
1
 10
16.888523
 20
149.712383
 30
0.0
 10
17.656643
 20
149.712383
 30
0.0
 10
18.366416
 20
149.302596
 30
0.0
 10
18.750476
 20
148.637384
 30
0.0
  0
SPLINE
  5
1c4
100
AcDbEntity
  8
Layer_1
 62
7
100
AcDbSpline
 70
8
 71
3
 72
8
 73
4
 74
0
 40
0
 40
0
 40
0
 40
0
 40
1
 40
1
 40
1
 40
1
 10
18.750476
 20
148.637384
 30
0.0
 10
19.134536
 20
147.972173
 30
0.0
 10
19.134536
 20
147.152598
 30
0.0
 10
18.750476
 20
146.487387
 30
0.0
  0
SPLINE
  5
1c5
100
AcDbEntity
  8
Layer_1
 62
7
100
AcDbSpline
 70
8
 71
3
 72
8
 73
4
 74
0
 40
0
 40
0
 40
0
 40
0
 40
1
 40
1
 40
1
 40
1
 10
18.750476
 20
146.487387
 30
0.0
 10
18.366416
 20
145.822175
 30
0.0
 10
17.656643
 20
145.412388
 30
0.0
 10
16.888523
 20
145.412388
 30
0.0
  0
LINE
  5
1c6
100
AcDbEntity
  8
Layer_1
 62
7
100
AcDbLine
 10
16.888523
 20
145.412388
 30
0.0
 11
13.888522
 21
145.412388
 31
0.0
  0
SPLINE
  5
1c7
100
AcDbEntity
  8
Layer_1
 62
7
100
AcDbSpline
 70
8
 71
3
 72
8
 73
4
 74
0
 40
0
 40
0
 40
0
 40
0
 40
1
 40
1
 40
1
 40
1
 10
13.888522
 20
145.412388
 30
0.0
 10
13.120402
 20
145.412388
 30
0.0
 10
12.410630
 20
145.822175
 30
0.0
 10
12.026570
 20
146.487387
 30
0.0
  0
SPLINE
  5
1c8
100
AcDbEntity
  8
Layer_1
 62
7
100
AcDbSpline
 70
8
 71
3
 72
8
 73
4
 74
0
 40
0
 40
0
 40
0
 40
0
 40
1
 40
1
 40
1
 40
1
 10
12.026570
 20
146.487387
 30
0.0
 10
11.642510
 20
147.152598
 30
0.0
 10
11.642510
 20
147.972173
 30
0.0
 10
12.026570
 20
148.637384
 30
0.0
  0
SPLINE
  5
1c9
100
AcDbEntity
  8
Layer_1
 62
7
100
AcDbSpline
 70
8
 71
3
 72
8
 73
4
 74
0
 40
0
 40
0
 40
0
 40
0
 40
1
 40
1
 40
1
 40
1
 10
12.026570
 20
148.637384
 30
0.0
 10
12.410630
 20
149.302596
 30
0.0
 10
13.120402
 20
149.712383
 30
0.0
 10
13.888522
 20
149.712383
 30
0.0
  0
LINE
  5
1ca
100
AcDbEntity
  8
Layer_1
 62
7
100
AcDbLine
 10
13.888522
 20
149.712383
 30
0.0
 11
13.888522
 21
149.712383
 31
0.0
  0
LINE
  5
1cb
100
AcDbEntity
  8
Layer_1
 62
7
100
AcDbLine
 10
13.888522
 20
254.712250
 30
0.0
 11
16.888523
 21
254.712250
 31
0.0
  0
SPLINE
  5
1cc
100
AcDbEntity
  8
Layer_1
 62
7
100
AcDbSpline
 70
8
 71
3
 72
8
 73
4
 74
0
 40
0
 40
0
 40
0
 40
0
 40
1
 40
1
 40
1
 40
1
 10
16.888523
 20
254.712250
 30
0.0
 10
18.075934
 20
254.712250
 30
0.0
 10
19.038520
 20
253.749663
 30
0.0
 10
19.038520
 20
252.562252
 30
0.0
  0
SPLINE
  5
1cd
100
AcDbEntity
  8
Layer_1
 62
7
100
AcDbSpline
 70
8
 71
3
 72
8
 73
4
 74
0
 40
0
 40
0
 40
0
 40
0
 40
1
 40
1
 40
1
 40
1
 10
19.038520
 20
252.562252
 30
0.0
 10
19.038520
 20
251.374842
 30
0.0
 10
18.075934
 20
250.412255
 30
0.0
 10
16.888523
 20
250.412255
 30
0.0
  0
LINE
  5
1ce
100
AcDbEntity
  8
Layer_1
 62
7
100
AcDbLine
 10
16.888523
 20
250.412255
 30
0.0
 11
13.888522
 21
250.412255
 31
0.0
  0
SPLINE
  5
1cf
100
AcDbEntity
  8
Layer_1
 62
7
100
AcDbSpline
 70
8
 71
3
 72
8
 73
4
 74
0
 40
0
 40
0
 40
0
 40
0
 40
1
 40
1
 40
1
 40
1
 10
13.888522
 20
250.412255
 30
0.0
 10
13.120402
 20
250.412255
 30
0.0
 10
12.410630
 20
250.822042
 30
0.0
 10
12.026570
 20
251.487254
 30
0.0
  0
SPLINE
  5
1d0
100
AcDbEntity
  8
Layer_1
 62
7
100
AcDbSpline
 70
8
 71
3
 72
8
 73
4
 74
0
 40
0
 40
0
 40
0
 40
0
 40
1
 40
1
 40
1
 40
1
 10
12.026570
 20
251.487254
 30
0.0
 10
11.642510
 20
252.152465
 30
0.0
 10
11.642510
 20
252.972039
 30
0.0
 10
12.026570
 20
253.637251
 30
0.0
  0
SPLINE
  5
1d1
100
AcDbEntity
  8
Layer_1
 62
7
100
AcDbSpline
 70
8
 71
3
 72
8
 73
4
 74
0
 40
0
 40
0
 40
0
 40
0
 40
1
 40
1
 40
1
 40
1
 10
12.026570
 20
253.637251
 30
0.0
 10
12.410630
 20
254.302463
 30
0.0
 10
13.120402
 20
254.712250
 30
0.0
 10
13.888522
 20
254.712250
 30
0.0
  0
LINE
  5
1d2
100
AcDbEntity
  8
Layer_1
 62
7
100
AcDbLine
 10
13.888522
 20
254.712250
 30
0.0
 11
13.888522
 21
254.712250
 31
0.0
  0
LINE
  5
1d3
100
AcDbEntity
  8
Layer_1
 62
7
100
AcDbLine
 10
-106.111327
 20
149.712383
 30
0.0
 11
-103.111329
 21
149.712383
 31
0.0
  0
SPLINE
  5
1d4
100
AcDbEntity
  8
Layer_1
 62
7
100
AcDbSpline
 70
8
 71
3
 72
8
 73
4
 74
0
 40
0
 40
0
 40
0
 40
0
 40
1
 40
1
 40
1
 40
1
 10
-103.111329
 20
149.712383
 30
0.0
 10
-102.343209
 20
149.712383
 30
0.0
 10
-101.633437
 20
149.302596
 30
0.0
 10
-101.249377
 20
148.637384
 30
0.0
  0
SPLINE
  5
1d5
100
AcDbEntity
  8
Layer_1
 62
7
100
AcDbSpline
 70
8
 71
3
 72
8
 73
4
 74
0
 40
0
 40
0
 40
0
 40
0
 40
1
 40
1
 40
1
 40
1
 10
-101.249377
 20
148.637384
 30
0.0
 10
-100.865317
 20
147.972173
 30
0.0
 10
-100.865317
 20
147.152598
 30
0.0
 10
-101.249377
 20
146.487387
 30
0.0
  0
SPLINE
  5
1d6
100
AcDbEntity
  8
Layer_1
 62
7
100
AcDbSpline
 70
8
 71
3
 72
8
 73
4
 74
0
 40
0
 40
0
 40
0
 40
0
 40
1
 40
1
 40
1
 40
1
 10
-101.249377
 20
146.487387
 30
0.0
 10
-101.633437
 20
145.822175
 30
0.0
 10
-102.343209
 20
145.412388
 30
0.0
 10
-103.111329
 20
145.412388
 30
0.0
  0
LINE
  5
1d7
100
AcDbEntity
  8
Layer_1
 62
7
100
AcDbLine
 10
-103.111329
 20
145.412388
 30
0.0
 11
-106.111327
 21
145.412388
 31
0.0
  0
SPLINE
  5
1d8
100
AcDbEntity
  8
Layer_1
 62
7
100
AcDbSpline
 70
8
 71
3
 72
8
 73
4
 74
0
 40
0
 40
0
 40
0
 40
0
 40
1
 40
1
 40
1
 40
1
 10
-106.111327
 20
145.412388
 30
0.0
 10
-106.879447
 20
145.412388
 30
0.0
 10
-107.589220
 20
145.822175
 30
0.0
 10
-107.973280
 20
146.487387
 30
0.0
  0
SPLINE
  5
1d9
100
AcDbEntity
  8
Layer_1
 62
7
100
AcDbSpline
 70
8
 71
3
 72
8
 73
4
 74
0
 40
0
 40
0
 40
0
 40
0
 40
1
 40
1
 40
1
 40
1
 10
-107.973280
 20
146.487387
 30
0.0
 10
-108.357340
 20
147.152598
 30
0.0
 10
-108.357340
 20
147.972173
 30
0.0
 10
-107.973280
 20
148.637384
 30
0.0
  0
SPLINE
  5
1da
100
AcDbEntity
  8
Layer_1
 62
7
100
AcDbSpline
 70
8
 71
3
 72
8
 73
4
 74
0
 40
0
 40
0
 40
0
 40
0
 40
1
 40
1
 40
1
 40
1
 10
-107.973280
 20
148.637384
 30
0.0
 10
-107.589220
 20
149.302596
 30
0.0
 10
-106.879447
 20
149.712383
 30
0.0
 10
-106.111327
 20
149.712383
 30
0.0
  0
LINE
  5
1db
100
AcDbEntity
  8
Layer_1
 62
7
100
AcDbLine
 10
-106.111327
 20
149.712383
 30
0.0
 11
-106.111327
 21
149.712383
 31
0.0
  0
ENDSEC
  0
SECTION
  2
OBJECTS
  0
DICTIONARY
  5
C
330
0
100
AcDbDictionary
  3
ACAD_GROUP
350
D
  3
ACAD_MLINESTYLE
350
17
  0
DICTIONARY
  5
D
330
C
100
AcDbDictionary
  0
DICTIONARY
  5
1A
330
C
100
AcDbDictionary
  0
DICTIONARY
  5
17
330
C
100
AcDbDictionary
  3
STANDARD
350
18
  0
DICTIONARY
  5
19
330
C
100
AcDbDictionary
  0
ENDSEC
  0
EOF
