  0
SECTION
  2
HEADER
  9
$ACADVER
  1
AC1014
  9
$HANDSEED
  5
FFFF
  9
$MEASUREMENT
 70
     1
  0
ENDSEC
  0
SECTION
  2
TABLES
  0
TABLE
  2
VPORT
  5
8
330
0
100
AcDbSymbolTable
 70
     4
  0
VPORT
  5
2E
330
8
100
AcDbSymbolTableRecord
100
AcDbViewportTableRecord
  2
*ACTIVE
 70
     0
 10
0.0
 20
0.0
 11
1.0
 21
1.0
 12
210.0
 22
148.5
 13
0.0
 23
0.0
 14
10.0
 24
10.0
 15
10.0
 25
10.0
 16
0.0
 26
0.0
 36
1.0
 17
0.0
 27
0.0
 37
0.0
 40
341.0
 41
1.24
 42
50.0
 43
0.0
 44
0.0
 50
0.0
 51
0.0
 71
     0
 72
   100
 73
     1
 74
     3
 75
     0
 76
     0
 77
     0
 78
     0
  0
ENDTAB
  0
TABLE
  2
LTYPE
  5
5
330
0
100
AcDbSymbolTable
 70
     1
  0
LTYPE
  5
14
330
5
100
AcDbSymbolTableRecord
100
AcDbLinetypeTableRecord
  2
BYBLOCK
 70
     0
  3

 72
    65
 73
     0
 40
0.0
  0
LTYPE
  5
15
330
5
100
AcDbSymbolTableRecord
100
AcDbLinetypeTableRecord
  2
BYLAYER
 70
     0
  3

 72
    65
 73
     0
 40
0.0
  0
LTYPE
  5
16
330
5
100
AcDbSymbolTableRecord
100
AcDbLinetypeTableRecord
  2
CONTINUOUS
 70
     0
  3
Solid line
 72
    65
 73
     0
 40
0.0
  0
ENDTAB
  0
TABLE
  2
LAYER
  5
2
100
AcDbSymbolTable
 70
2
  0
LAYER
  5
50
100
AcDbSymbolTableRecord
100
AcDbLayerTableRecord
  2
0
 70
0
  6
CONTINUOUS
  0
LAYER
  5
51
100
AcDbSymbolTableRecord
100
AcDbLayerTableRecord
  2
Layer_1
 70
0
  6
CONTINUOUS
  0
ENDTAB
  0
TABLE
  2
STYLE
  5
3
330
0
100
AcDbSymbolTable
 70
     1
  0
STYLE
  5
11
330
3
100
AcDbSymbolTableRecord
100
AcDbTextStyleTableRecord
  2
STANDARD
 70
     0
 40
0.0
 41
1.0
 50
0.0
 71
     0
 42
2.5
  3
txt
  4

  0
ENDTAB
  0
TABLE
  2
VIEW
  5
6
330
0
100
AcDbSymbolTable
 70
     0
  0
ENDTAB
  0
TABLE
  2
UCS
  5
7
330
0
100
AcDbSymbolTable
 70
     0
  0
ENDTAB
  0
TABLE
  2
APPID
  5
9
330
0
100
AcDbSymbolTable
 70
     2
  0
APPID
  5
12
330
9
100
AcDbSymbolTableRecord
100
AcDbRegAppTableRecord
  2
ACAD
 70
     0
  0
ENDTAB
  0
TABLE
  2
DIMSTYLE
  5
A
330
0
100
AcDbSymbolTable
 70
     1
  0
DIMSTYLE
105
27
330
A
100
AcDbSymbolTableRecord
100
AcDbDimStyleTableRecord
  2
ISO-25
 70
     0
  3

  4

  5

  6

  7

 40
1.0
 41
2.5
 42
0.625
 43
3.75
 44
1.25
 45
0.0
 46
0.0
 47
0.0
 48
0.0
140
2.5
141
2.5
142
0.0
143
0.03937007874016
144
1.0
145
0.0
146
1.0
147
0.625
 71
     0
 72
     0
 73
     0
 74
     0
 75
     0
 76
     0
 77
     1
 78
     8
170
     0
171
     3
172
     1
173
     0
174
     0
175
     0
176
     0
177
     0
178
     0
270
     2
271
     2
272
     2
273
     2
274
     3
340
11
275
     0
280
     0
281
     0
282
     0
283
     0
284
     8
285
     0
286
     0
287
     3
288
     0
  0
ENDTAB
  0
TABLE
  2
BLOCK_RECORD
  5
1
330
0
100
AcDbSymbolTable
 70
     1
  0
BLOCK_RECORD
  5
1F
330
1
100
AcDbSymbolTableRecord
100
AcDbBlockTableRecord
  2
*MODEL_SPACE
  0
BLOCK_RECORD
  5
1B
330
1
100
AcDbSymbolTableRecord
100
AcDbBlockTableRecord
  2
*PAPER_SPACE
  0
ENDTAB
  0
ENDSEC
  0
SECTION
  2
BLOCKS
  0
BLOCK
  5
20
330
1F
100
AcDbEntity
  8
0
100
AcDbBlockBegin
  2
*MODEL_SPACE
 70
     0
 10
0.0
 20
0.0
 30
0.0
  3
*MODEL_SPACE
  1

  0
ENDBLK
  5
21
330
1F
100
AcDbEntity
  8
0
100
AcDbBlockEnd
  0
BLOCK
  5
1C
330
1B
100
AcDbEntity
 67
     1
  8
0
100
AcDbBlockBegin
  2
*PAPER_SPACE
  1

  0
ENDBLK
  5
1D
330
1B
100
AcDbEntity
 67
     1
  8
0
100
AcDbBlockEnd
  0
ENDSEC
  0
SECTION
  2
ENTITIES
  0
LINE
  5
100
100
AcDbEntity
  8
Layer_1
 62
7
100
AcDbLine
 10
94.488189
 20
-94.181102
 30
0.0
 11
699.212598
 21
-94.181102
 31
0.0
  0
LINE
  5
101
100
AcDbEntity
  8
Layer_1
 62
7
100
AcDbLine
 10
699.212598
 20
-94.181102
 30
0.0
 11
699.212598
 21
-434.338583
 31
0.0
  0
LINE
  5
102
100
AcDbEntity
  8
Layer_1
 62
7
100
AcDbLine
 10
699.212598
 20
-434.338583
 30
0.0
 11
94.488189
 21
-434.338583
 31
0.0
  0
LINE
  5
103
100
AcDbEntity
  8
Layer_1
 62
7
100
AcDbLine
 10
94.488189
 20
-434.338583
 30
0.0
 11
94.488189
 21
-94.181102
 31
0.0
  0
LINE
  5
104
100
AcDbEntity
  8
Layer_1
 62
7
100
AcDbLine
 10
37.864872
 20
176.000151
 30
0.0
 11
34.999930
 21
168.243520
 31
0.0
  0
LINE
  5
105
100
AcDbEntity
  8
Layer_1
 62
7
100
AcDbLine
 10
34.999930
 20
168.243520
 30
0.0
 11
34.999930
 21
150.000190
 31
0.0
  0
LINE
  5
106
100
AcDbEntity
  8
Layer_1
 62
7
100
AcDbLine
 10
34.999930
 20
150.000190
 30
0.0
 11
42.824775
 21
150.000190
 31
0.0
  0
LINE
  5
107
100
AcDbEntity
  8
Layer_1
 62
7
100
AcDbLine
 10
42.824775
 20
150.000190
 30
0.0
 11
52.427806
 21
176.000151
 31
0.0
  0
LINE
  5
108
100
AcDbEntity
  8
Layer_1
 62
7
100
AcDbLine
 10
52.427806
 20
176.000151
 30
0.0
 11
37.864872
 21
176.000151
 31
0.0
  0
LINE
  5
109
100
AcDbEntity
  8
Layer_1
 62
7
100
AcDbLine
 10
37.864872
 20
176.000151
 30
0.0
 11
37.864872
 21
176.000151
 31
0.0
  0
LINE
  5
10a
100
AcDbEntity
  8
Layer_1
 62
7
100
AcDbLine
 10
55.367679
 20
176.000151
 30
0.0
 11
45.764648
 21
150.000190
 31
0.0
  0
LINE
  5
10b
100
AcDbEntity
  8
Layer_1
 62
7
100
AcDbLine
 10
45.764648
 20
150.000190
 30
0.0
 11
60.327584
 21
150.000190
 31
0.0
  0
LINE
  5
10c
100
AcDbEntity
  8
Layer_1
 62
7
100
AcDbLine
 10
60.327584
 20
150.000190
 30
0.0
 11
69.930615
 21
176.000151
 31
0.0
  0
LINE
  5
10d
100
AcDbEntity
  8
Layer_1
 62
7
100
AcDbLine
 10
69.930615
 20
176.000151
 30
0.0
 11
55.367679
 21
176.000151
 31
0.0
  0
LINE
  5
10e
100
AcDbEntity
  8
Layer_1
 62
7
100
AcDbLine
 10
55.367679
 20
176.000151
 30
0.0
 11
55.367679
 21
176.000151
 31
0.0
  0
LINE
  5
10f
100
AcDbEntity
  8
Layer_1
 62
7
100
AcDbLine
 10
72.869969
 20
176.000151
 30
0.0
 11
63.266938
 21
150.000190
 31
0.0
  0
LINE
  5
110
100
AcDbEntity
  8
Layer_1
 62
7
100
AcDbLine
 10
63.266938
 20
150.000190
 30
0.0
 11
77.829875
 21
150.000190
 31
0.0
  0
LINE
  5
111
100
AcDbEntity
  8
Layer_1
 62
7
100
AcDbLine
 10
77.829875
 20
150.000190
 30
0.0
 11
87.432905
 21
176.000151
 31
0.0
  0
LINE
  5
112
100
AcDbEntity
  8
Layer_1
 62
7
100
AcDbLine
 10
87.432905
 20
176.000151
 30
0.0
 11
72.869969
 21
176.000151
 31
0.0
  0
LINE
  5
113
100
AcDbEntity
  8
Layer_1
 62
7
100
AcDbLine
 10
72.869969
 20
176.000151
 30
0.0
 11
72.869969
 21
176.000151
 31
0.0
  0
LINE
  5
114
100
AcDbEntity
  8
Layer_1
 62
7
100
AcDbLine
 10
90.373294
 20
176.000151
 30
0.0
 11
80.770263
 21
150.000190
 31
0.0
  0
LINE
  5
115
100
AcDbEntity
  8
Layer_1
 62
7
100
AcDbLine
 10
80.770263
 20
150.000190
 30
0.0
 11
95.333197
 21
150.000190
 31
0.0
  0
LINE
  5
116
100
AcDbEntity
  8
Layer_1
 62
7
100
AcDbLine
 10
95.333197
 20
150.000190
 30
0.0
 11
104.936230
 21
176.000151
 31
0.0
  0
LINE
  5
117
100
AcDbEntity
  8
Layer_1
 62
7
100
AcDbLine
 10
104.936230
 20
176.000151
 30
0.0
 11
90.373294
 21
176.000151
 31
0.0
  0
LINE
  5
118
100
AcDbEntity
  8
Layer_1
 62
7
100
AcDbLine
 10
90.373294
 20
176.000151
 30
0.0
 11
90.373294
 21
176.000151
 31
0.0
  0
LINE
  5
119
100
AcDbEntity
  8
Layer_1
 62
7
100
AcDbLine
 10
107.875585
 20
176.000151
 30
0.0
 11
98.272554
 21
150.000190
 31
0.0
  0
LINE
  5
11a
100
AcDbEntity
  8
Layer_1
 62
7
100
AcDbLine
 10
98.272554
 20
150.000190
 30
0.0
 11
112.835487
 21
150.000190
 31
0.0
  0
LINE
  5
11b
100
AcDbEntity
  8
Layer_1
 62
7
100
AcDbLine
 10
112.835487
 20
150.000190
 30
0.0
 11
122.438521
 21
176.000151
 31
0.0
  0
LINE
  5
11c
100
AcDbEntity
  8
Layer_1
 62
7
100
AcDbLine
 10
122.438521
 20
176.000151
 30
0.0
 11
107.875585
 21
176.000151
 31
0.0
  0
LINE
  5
11d
100
AcDbEntity
  8
Layer_1
 62
7
100
AcDbLine
 10
107.875585
 20
176.000151
 30
0.0
 11
107.875585
 21
176.000151
 31
0.0
  0
LINE
  5
11e
100
AcDbEntity
  8
Layer_1
 62
7
100
AcDbLine
 10
125.378391
 20
176.000151
 30
0.0
 11
115.775360
 21
150.000190
 31
0.0
  0
LINE
  5
11f
100
AcDbEntity
  8
Layer_1
 62
7
100
AcDbLine
 10
115.775360
 20
150.000190
 30
0.0
 11
130.338297
 21
150.000190
 31
0.0
  0
LINE
  5
120
100
AcDbEntity
  8
Layer_1
 62
7
100
AcDbLine
 10
130.338297
 20
150.000190
 30
0.0
 11
139.941327
 21
176.000151
 31
0.0
  0
LINE
  5
121
100
AcDbEntity
  8
Layer_1
 62
7
100
AcDbLine
 10
139.941327
 20
176.000151
 30
0.0
 11
125.378391
 21
176.000151
 31
0.0
  0
LINE
  5
122
100
AcDbEntity
  8
Layer_1
 62
7
100
AcDbLine
 10
125.378391
 20
176.000151
 30
0.0
 11
125.378391
 21
176.000151
 31
0.0
  0
LINE
  5
123
100
AcDbEntity
  8
Layer_1
 62
7
100
AcDbLine
 10
142.880681
 20
176.000151
 30
0.0
 11
133.277651
 21
150.000190
 31
0.0
  0
LINE
  5
124
100
AcDbEntity
  8
Layer_1
 62
7
100
AcDbLine
 10
133.277651
 20
150.000190
 30
0.0
 11
147.840587
 21
150.000190
 31
0.0
  0
LINE
  5
125
100
AcDbEntity
  8
Layer_1
 62
7
100
AcDbLine
 10
147.840587
 20
150.000190
 30
0.0
 11
157.443618
 21
176.000151
 31
0.0
  0
LINE
  5
126
100
AcDbEntity
  8
Layer_1
 62
7
100
AcDbLine
 10
157.443618
 20
176.000151
 30
0.0
 11
142.880681
 21
176.000151
 31
0.0
  0
LINE
  5
127
100
AcDbEntity
  8
Layer_1
 62
7
100
AcDbLine
 10
142.880681
 20
176.000151
 30
0.0
 11
142.880681
 21
176.000151
 31
0.0
  0
LINE
  5
128
100
AcDbEntity
  8
Layer_1
 62
7
100
AcDbLine
 10
160.383491
 20
176.000151
 30
0.0
 11
150.780460
 21
150.000190
 31
0.0
  0
LINE
  5
129
100
AcDbEntity
  8
Layer_1
 62
7
100
AcDbLine
 10
150.780460
 20
150.000190
 30
0.0
 11
165.343912
 21
150.000190
 31
0.0
  0
LINE
  5
12a
100
AcDbEntity
  8
Layer_1
 62
7
100
AcDbLine
 10
165.343912
 20
150.000190
 30
0.0
 11
174.946943
 21
176.000151
 31
0.0
  0
LINE
  5
12b
100
AcDbEntity
  8
Layer_1
 62
7
100
AcDbLine
 10
174.946943
 20
176.000151
 30
0.0
 11
160.383491
 21
176.000151
 31
0.0
  0
LINE
  5
12c
100
AcDbEntity
  8
Layer_1
 62
7
100
AcDbLine
 10
160.383491
 20
176.000151
 30
0.0
 11
160.383491
 21
176.000151
 31
0.0
  0
LINE
  5
12d
100
AcDbEntity
  8
Layer_1
 62
7
100
AcDbLine
 10
175.000169
 20
168.185643
 30
0.0
 11
168.283266
 21
150.000190
 31
0.0
  0
LINE
  5
12e
100
AcDbEntity
  8
Layer_1
 62
7
100
AcDbLine
 10
168.283266
 20
150.000190
 30
0.0
 11
175.000169
 21
150.000190
 31
0.0
  0
LINE
  5
12f
100
AcDbEntity
  8
Layer_1
 62
7
100
AcDbLine
 10
175.000169
 20
150.000190
 30
0.0
 11
175.000169
 21
168.185643
 31
0.0
  0
LINE
  5
130
100
AcDbEntity
  8
Layer_1
 62
7
100
AcDbLine
 10
175.000169
 20
168.185643
 30
0.0
 11
175.000169
 21
168.185643
 31
0.0
  0
LINE
  5
131
100
AcDbEntity
  8
Layer_1
 62
7
100
AcDbLine
 10
34.999930
 20
146.999855
 30
0.0
 11
34.999930
 21
128.814402
 31
0.0
  0
LINE
  5
132
100
AcDbEntity
  8
Layer_1
 62
7
100
AcDbLine
 10
34.999930
 20
128.814402
 30
0.0
 11
41.716832
 21
146.999855
 31
0.0
  0
LINE
  5
133
100
AcDbEntity
  8
Layer_1
 62
7
100
AcDbLine
 10
41.716832
 20
146.999855
 30
0.0
 11
34.999930
 21
146.999855
 31
0.0
  0
LINE
  5
134
100
AcDbEntity
  8
Layer_1
 62
7
100
AcDbLine
 10
34.999930
 20
146.999855
 30
0.0
 11
34.999930
 21
146.999855
 31
0.0
  0
LINE
  5
135
100
AcDbEntity
  8
Layer_1
 62
7
100
AcDbLine
 10
44.656189
 20
146.999855
 30
0.0
 11
35.053158
 21
120.999891
 31
0.0
  0
LINE
  5
136
100
AcDbEntity
  8
Layer_1
 62
7
100
AcDbLine
 10
35.053158
 20
120.999891
 30
0.0
 11
49.616092
 21
120.999891
 31
0.0
  0
LINE
  5
137
100
AcDbEntity
  8
Layer_1
 62
7
100
AcDbLine
 10
49.616092
 20
120.999891
 30
0.0
 11
59.219123
 21
146.999855
 31
0.0
  0
LINE
  5
138
100
AcDbEntity
  8
Layer_1
 62
7
100
AcDbLine
 10
59.219123
 20
146.999855
 30
0.0
 11
44.656189
 21
146.999855
 31
0.0
  0
LINE
  5
139
100
AcDbEntity
  8
Layer_1
 62
7
100
AcDbLine
 10
44.656189
 20
146.999855
 30
0.0
 11
44.656189
 21
146.999855
 31
0.0
  0
LINE
  5
13a
100
AcDbEntity
  8
Layer_1
 62
7
100
AcDbLine
 10
62.158996
 20
146.999855
 30
0.0
 11
52.555965
 21
120.999891
 31
0.0
  0
LINE
  5
13b
100
AcDbEntity
  8
Layer_1
 62
7
100
AcDbLine
 10
52.555965
 20
120.999891
 30
0.0
 11
67.118899
 21
120.999891
 31
0.0
  0
LINE
  5
13c
100
AcDbEntity
  8
Layer_1
 62
7
100
AcDbLine
 10
67.118899
 20
120.999891
 30
0.0
 11
76.721932
 21
146.999855
 31
0.0
  0
LINE
  5
13d
100
AcDbEntity
  8
Layer_1
 62
7
100
AcDbLine
 10
76.721932
 20
146.999855
 30
0.0
 11
62.158996
 21
146.999855
 31
0.0
  0
LINE
  5
13e
100
AcDbEntity
  8
Layer_1
 62
7
100
AcDbLine
 10
62.158996
 20
146.999855
 30
0.0
 11
62.158996
 21
146.999855
 31
0.0
  0
LINE
  5
13f
100
AcDbEntity
  8
Layer_1
 62
7
100
AcDbLine
 10
79.661802
 20
146.999855
 30
0.0
 11
70.058771
 21
120.999891
 31
0.0
  0
LINE
  5
140
100
AcDbEntity
  8
Layer_1
 62
7
100
AcDbLine
 10
70.058771
 20
120.999891
 30
0.0
 11
84.621708
 21
120.999891
 31
0.0
  0
LINE
  5
141
100
AcDbEntity
  8
Layer_1
 62
7
100
AcDbLine
 10
84.621708
 20
120.999891
 30
0.0
 11
94.224738
 21
146.999855
 31
0.0
  0
LINE
  5
142
100
AcDbEntity
  8
Layer_1
 62
7
100
AcDbLine
 10
94.224738
 20
146.999855
 30
0.0
 11
79.661802
 21
146.999855
 31
0.0
  0
LINE
  5
143
100
AcDbEntity
  8
Layer_1
 62
7
100
AcDbLine
 10
79.661802
 20
146.999855
 30
0.0
 11
79.661802
 21
146.999855
 31
0.0
  0
LINE
  5
144
100
AcDbEntity
  8
Layer_1
 62
7
100
AcDbLine
 10
97.164611
 20
146.999855
 30
0.0
 11
87.561580
 21
120.999891
 31
0.0
  0
LINE
  5
145
100
AcDbEntity
  8
Layer_1
 62
7
100
AcDbLine
 10
87.561580
 20
120.999891
 30
0.0
 11
102.124514
 21
120.999891
 31
0.0
  0
LINE
  5
146
100
AcDbEntity
  8
Layer_1
 62
7
100
AcDbLine
 10
102.124514
 20
120.999891
 30
0.0
 11
111.727545
 21
146.999855
 31
0.0
  0
LINE
  5
147
100
AcDbEntity
  8
Layer_1
 62
7
100
AcDbLine
 10
111.727545
 20
146.999855
 30
0.0
 11
97.164611
 21
146.999855
 31
0.0
  0
LINE
  5
148
100
AcDbEntity
  8
Layer_1
 62
7
100
AcDbLine
 10
97.164611
 20
146.999855
 30
0.0
 11
97.164611
 21
146.999855
 31
0.0
  0
LINE
  5
149
100
AcDbEntity
  8
Layer_1
 62
7
100
AcDbLine
 10
114.666902
 20
146.999855
 30
0.0
 11
105.063871
 21
120.999891
 31
0.0
  0
LINE
  5
14a
100
AcDbEntity
  8
Layer_1
 62
7
100
AcDbLine
 10
105.063871
 20
120.999891
 30
0.0
 11
119.626804
 21
120.999891
 31
0.0
  0
LINE
  5
14b
100
AcDbEntity
  8
Layer_1
 62
7
100
AcDbLine
 10
119.626804
 20
120.999891
 30
0.0
 11
129.229835
 21
146.999855
 31
0.0
  0
LINE
  5
14c
100
AcDbEntity
  8
Layer_1
 62
7
100
AcDbLine
 10
129.229835
 20
146.999855
 30
0.0
 11
114.666902
 21
146.999855
 31
0.0
  0
LINE
  5
14d
100
AcDbEntity
  8
Layer_1
 62
7
100
AcDbLine
 10
114.666902
 20
146.999855
 30
0.0
 11
114.666902
 21
146.999855
 31
0.0
  0
LINE
  5
14e
100
AcDbEntity
  8
Layer_1
 62
7
100
AcDbLine
 10
132.169708
 20
146.999855
 30
0.0
 11
122.566677
 21
120.999891
 31
0.0
  0
LINE
  5
14f
100
AcDbEntity
  8
Layer_1
 62
7
100
AcDbLine
 10
122.566677
 20
120.999891
 30
0.0
 11
137.129614
 21
120.999891
 31
0.0
  0
LINE
  5
150
100
AcDbEntity
  8
Layer_1
 62
7
100
AcDbLine
 10
137.129614
 20
120.999891
 30
0.0
 11
146.732644
 21
146.999855
 31
0.0
  0
LINE
  5
151
100
AcDbEntity
  8
Layer_1
 62
7
100
AcDbLine
 10
146.732644
 20
146.999855
 30
0.0
 11
132.169708
 21
146.999855
 31
0.0
  0
LINE
  5
152
100
AcDbEntity
  8
Layer_1
 62
7
100
AcDbLine
 10
132.169708
 20
146.999855
 30
0.0
 11
132.169708
 21
146.999855
 31
0.0
  0
LINE
  5
153
100
AcDbEntity
  8
Layer_1
 62
7
100
AcDbLine
 10
149.672517
 20
146.999855
 30
0.0
 11
140.069484
 21
120.999891
 31
0.0
  0
LINE
  5
154
100
AcDbEntity
  8
Layer_1
 62
7
100
AcDbLine
 10
140.069484
 20
120.999891
 30
0.0
 11
154.632420
 21
120.999891
 31
0.0
  0
LINE
  5
155
100
AcDbEntity
  8
Layer_1
 62
7
100
AcDbLine
 10
154.632420
 20
120.999891
 30
0.0
 11
164.235451
 21
146.999855
 31
0.0
  0
LINE
  5
156
100
AcDbEntity
  8
Layer_1
 62
7
100
AcDbLine
 10
164.235451
 20
146.999855
 30
0.0
 11
149.672517
 21
146.999855
 31
0.0
  0
LINE
  5
157
100
AcDbEntity
  8
Layer_1
 62
7
100
AcDbLine
 10
149.672517
 20
146.999855
 30
0.0
 11
149.672517
 21
146.999855
 31
0.0
  0
LINE
  5
158
100
AcDbEntity
  8
Layer_1
 62
7
100
AcDbLine
 10
167.175323
 20
146.999855
 30
0.0
 11
157.572293
 21
120.999891
 31
0.0
  0
LINE
  5
159
100
AcDbEntity
  8
Layer_1
 62
7
100
AcDbLine
 10
157.572293
 20
120.999891
 30
0.0
 11
172.135226
 21
120.999891
 31
0.0
  0
LINE
  5
15a
100
AcDbEntity
  8
Layer_1
 62
7
100
AcDbLine
 10
172.135226
 20
120.999891
 30
0.0
 11
175.000169
 21
128.756525
 31
0.0
  0
LINE
  5
15b
100
AcDbEntity
  8
Layer_1
 62
7
100
AcDbLine
 10
175.000169
 20
128.756525
 30
0.0
 11
175.000169
 21
146.999855
 31
0.0
  0
LINE
  5
15c
100
AcDbEntity
  8
Layer_1
 62
7
100
AcDbLine
 10
175.000169
 20
146.999855
 30
0.0
 11
167.175323
 21
146.999855
 31
0.0
  0
LINE
  5
15d
100
AcDbEntity
  8
Layer_1
 62
7
100
AcDbLine
 10
167.175323
 20
146.999855
 30
0.0
 11
167.175323
 21
146.999855
 31
0.0
  0
SPLINE
  5
15e
100
AcDbEntity
  8
Layer_1
 62
7
100
AcDbSpline
 70
8
 71
3
 72
8
 73
4
 74
0
 40
0
 40
0
 40
0
 40
0
 40
1
 40
1
 40
1
 40
1
 10
207.874001
 20
-115.270866
 30
0.0
 10
203.866240
 20
-115.270866
 30
0.0
 10
200.617307
 20
-118.519798
 30
0.0
 10
200.617307
 20
-122.527559
 30
0.0
  0
SPLINE
  5
15f
100
AcDbEntity
  8
Layer_1
 62
7
100
AcDbSpline
 70
8
 71
3
 72
8
 73
4
 74
0
 40
0
 40
0
 40
0
 40
0
 40
1
 40
1
 40
1
 40
1
 10
200.617307
 20
-122.527559
 30
0.0
 10
200.617307
 20
-126.535320
 30
0.0
 10
203.866240
 20
-129.784252
 30
0.0
 10
207.874001
 20
-129.784252
 30
0.0
  0
SPLINE
  5
160
100
AcDbEntity
  8
Layer_1
 62
7
100
AcDbSpline
 70
8
 71
3
 72
8
 73
4
 74
0
 40
0
 40
0
 40
0
 40
0
 40
1
 40
1
 40
1
 40
1
 10
207.874001
 20
-129.784252
 30
0.0
 10
211.881762
 20
-129.784252
 30
0.0
 10
215.130694
 20
-126.535320
 30
0.0
 10
215.130694
 20
-122.527559
 30
0.0
  0
SPLINE
  5
161
100
AcDbEntity
  8
Layer_1
 62
7
100
AcDbSpline
 70
8
 71
3
 72
8
 73
4
 74
0
 40
0
 40
0
 40
0
 40
0
 40
1
 40
1
 40
1
 40
1
 10
215.130694
 20
-122.527559
 30
0.0
 10
215.130694
 20
-120.602964
 30
0.0
 10
214.366152
 20
-118.757196
 30
0.0
 10
213.005258
 20
-117.396302
 30
0.0
  0
SPLINE
  5
162
100
AcDbEntity
  8
Layer_1
 62
7
100
AcDbSpline
 70
8
 71
3
 72
8
 73
4
 74
0
 40
0
 40
0
 40
0
 40
0
 40
1
 40
1
 40
1
 40
1
 10
213.005258
 20
-117.396302
 30
0.0
 10
211.644364
 20
-116.035408
 30
0.0
 10
209.798595
 20
-115.270866
 30
0.0
 10
207.874001
 20
-115.270866
 30
0.0
  0
LINE
  5
163
100
AcDbEntity
  8
Layer_1
 62
7
100
AcDbLine
 10
207.874001
 20
-115.270866
 30
0.0
 11
207.874001
 21
-115.270866
 31
0.0
  0
SPLINE
  5
164
100
AcDbEntity
  8
Layer_1
 62
7
100
AcDbSpline
 70
8
 71
3
 72
8
 73
4
 74
0
 40
0
 40
0
 40
0
 40
0
 40
1
 40
1
 40
1
 40
1
 10
585.826772
 20
-115.270866
 30
0.0
 10
582.891713
 20
-115.270866
 30
0.0
 10
580.245659
 20
-117.038902
 30
0.0
 10
579.122461
 20
-119.750543
 30
0.0
  0
SPLINE
  5
165
100
AcDbEntity
  8
Layer_1
 62
7
100
AcDbSpline
 70
8
 71
3
 72
8
 73
4
 74
0
 40
0
 40
0
 40
0
 40
0
 40
1
 40
1
 40
1
 40
1
 10
579.122461
 20
-119.750543
 30
0.0
 10
577.999263
 20
-122.462183
 30
0.0
 10
578.620115
 20
-125.583416
 30
0.0
 10
580.695515
 20
-127.658816
 30
0.0
  0
SPLINE
  5
166
100
AcDbEntity
  8
Layer_1
 62
7
100
AcDbSpline
 70
8
 71
3
 72
8
 73
4
 74
0
 40
0
 40
0
 40
0
 40
0
 40
1
 40
1
 40
1
 40
1
 10
580.695515
 20
-127.658816
 30
0.0
 10
582.770914
 20
-129.734216
 30
0.0
 10
585.892148
 20
-130.355068
 30
0.0
 10
588.603788
 20
-129.231869
 30
0.0
  0
SPLINE
  5
167
100
AcDbEntity
  8
Layer_1
 62
7
100
AcDbSpline
 70
8
 71
3
 72
8
 73
4
 74
0
 40
0
 40
0
 40
0
 40
0
 40
1
 40
1
 40
1
 40
1
 10
588.603788
 20
-129.231869
 30
0.0
 10
591.315428
 20
-128.108671
 30
0.0
 10
593.083465
 20
-125.462618
 30
0.0
 10
593.083465
 20
-122.527559
 30
0.0
  0
SPLINE
  5
168
100
AcDbEntity
  8
Layer_1
 62
7
100
AcDbSpline
 70
8
 71
3
 72
8
 73
4
 74
0
 40
0
 40
0
 40
0
 40
0
 40
1
 40
1
 40
1
 40
1
 10
593.083465
 20
-122.527559
 30
0.0
 10
593.083465
 20
-118.519798
 30
0.0
 10
589.834533
 20
-115.270866
 30
0.0
 10
585.826772
 20
-115.270866
 30
0.0
  0
LINE
  5
169
100
AcDbEntity
  8
Layer_1
 62
7
100
AcDbLine
 10
585.826772
 20
-115.270866
 30
0.0
 11
585.826772
 21
-115.270866
 31
0.0
  0
SPLINE
  5
16a
100
AcDbEntity
  8
Layer_1
 62
7
100
AcDbSpline
 70
8
 71
3
 72
8
 73
4
 74
0
 40
0
 40
0
 40
0
 40
0
 40
1
 40
1
 40
1
 40
1
 10
207.874001
 20
-398.735433
 30
0.0
 10
203.866240
 20
-398.735433
 30
0.0
 10
200.617307
 20
-401.984365
 30
0.0
 10
200.617307
 20
-405.992126
 30
0.0
  0
SPLINE
  5
16b
100
AcDbEntity
  8
Layer_1
 62
7
100
AcDbSpline
 70
8
 71
3
 72
8
 73
4
 74
0
 40
0
 40
0
 40
0
 40
0
 40
1
 40
1
 40
1
 40
1
 10
200.617307
 20
-405.992126
 30
0.0
 10
200.617307
 20
-409.999887
 30
0.0
 10
203.866240
 20
-413.248819
 30
0.0
 10
207.874001
 20
-413.248819
 30
0.0
  0
SPLINE
  5
16c
100
AcDbEntity
  8
Layer_1
 62
7
100
AcDbSpline
 70
8
 71
3
 72
8
 73
4
 74
0
 40
0
 40
0
 40
0
 40
0
 40
1
 40
1
 40
1
 40
1
 10
207.874001
 20
-413.248819
 30
0.0
 10
211.881762
 20
-413.248819
 30
0.0
 10
215.130694
 20
-409.999887
 30
0.0
 10
215.130694
 20
-405.992126
 30
0.0
  0
SPLINE
  5
16d
100
AcDbEntity
  8
Layer_1
 62
7
100
AcDbSpline
 70
8
 71
3
 72
8
 73
4
 74
0
 40
0
 40
0
 40
0
 40
0
 40
1
 40
1
 40
1
 40
1
 10
215.130694
 20
-405.992126
 30
0.0
 10
215.130694
 20
-404.067531
 30
0.0
 10
214.366152
 20
-402.221763
 30
0.0
 10
213.005258
 20
-400.860869
 30
0.0
  0
SPLINE
  5
16e
100
AcDbEntity
  8
Layer_1
 62
7
100
AcDbSpline
 70
8
 71
3
 72
8
 73
4
 74
0
 40
0
 40
0
 40
0
 40
0
 40
1
 40
1
 40
1
 40
1
 10
213.005258
 20
-400.860869
 30
0.0
 10
211.644364
 20
-399.499975
 30
0.0
 10
209.798595
 20
-398.735433
 30
0.0
 10
207.874001
 20
-398.735433
 30
0.0
  0
LINE
  5
16f
100
AcDbEntity
  8
Layer_1
 62
7
100
AcDbLine
 10
207.874001
 20
-398.735433
 30
0.0
 11
207.874001
 21
-398.735433
 31
0.0
  0
SPLINE
  5
170
100
AcDbEntity
  8
Layer_1
 62
7
100
AcDbSpline
 70
8
 71
3
 72
8
 73
4
 74
0
 40
0
 40
0
 40
0
 40
0
 40
1
 40
1
 40
1
 40
1
 10
585.826772
 20
-398.735433
 30
0.0
 10
582.891713
 20
-398.735433
 30
0.0
 10
580.245659
 20
-400.503469
 30
0.0
 10
579.122461
 20
-403.215110
 30
0.0
  0
SPLINE
  5
171
100
AcDbEntity
  8
Layer_1
 62
7
100
AcDbSpline
 70
8
 71
3
 72
8
 73
4
 74
0
 40
0
 40
0
 40
0
 40
0
 40
1
 40
1
 40
1
 40
1
 10
579.122461
 20
-403.215110
 30
0.0
 10
577.999263
 20
-405.926750
 30
0.0
 10
578.620115
 20
-409.047983
 30
0.0
 10
580.695515
 20
-411.123383
 30
0.0
  0
SPLINE
  5
172
100
AcDbEntity
  8
Layer_1
 62
7
100
AcDbSpline
 70
8
 71
3
 72
8
 73
4
 74
0
 40
0
 40
0
 40
0
 40
0
 40
1
 40
1
 40
1
 40
1
 10
580.695515
 20
-411.123383
 30
0.0
 10
582.770914
 20
-413.198783
 30
0.0
 10
585.892148
 20
-413.819635
 30
0.0
 10
588.603788
 20
-412.696436
 30
0.0
  0
SPLINE
  5
173
100
AcDbEntity
  8
Layer_1
 62
7
100
AcDbSpline
 70
8
 71
3
 72
8
 73
4
 74
0
 40
0
 40
0
 40
0
 40
0
 40
1
 40
1
 40
1
 40
1
 10
588.603788
 20
-412.696436
 30
0.0
 10
591.315428
 20
-411.573238
 30
0.0
 10
593.083465
 20
-408.927184
 30
0.0
 10
593.083465
 20
-405.992126
 30
0.0
  0
SPLINE
  5
174
100
AcDbEntity
  8
Layer_1
 62
7
100
AcDbSpline
 70
8
 71
3
 72
8
 73
4
 74
0
 40
0
 40
0
 40
0
 40
0
 40
1
 40
1
 40
1
 40
1
 10
593.083465
 20
-405.992126
 30
0.0
 10
593.083465
 20
-401.984365
 30
0.0
 10
589.834533
 20
-398.735433
 30
0.0
 10
585.826772
 20
-398.735433
 30
0.0
  0
LINE
  5
175
100
AcDbEntity
  8
Layer_1
 62
7
100
AcDbLine
 10
585.826772
 20
-398.735433
 30
0.0
 11
585.826772
 21
-398.735433
 31
0.0
  0
ENDSEC
  0
SECTION
  2
OBJECTS
  0
DICTIONARY
  5
C
330
0
100
AcDbDictionary
  3
ACAD_GROUP
350
D
  3
ACAD_MLINESTYLE
350
17
  0
DICTIONARY
  5
D
330
C
100
AcDbDictionary
  0
DICTIONARY
  5
1A
330
C
100
AcDbDictionary
  0
DICTIONARY
  5
17
330
C
100
AcDbDictionary
  3
STANDARD
350
18
  0
DICTIONARY
  5
19
330
C
100
AcDbDictionary
  0
ENDSEC
  0
EOF
