  0
SECTION
  2
HEADER
  9
$ACADVER
  1
AC1014
  9
$HANDSEED
  5
FFFF
  9
$MEASUREMENT
 70
     1
  0
ENDSEC
  0
SECTION
  2
TABLES
  0
TABLE
  2
VPORT
  5
8
330
0
100
AcDbSymbolTable
 70
     4
  0
VPORT
  5
2E
330
8
100
AcDbSymbolTableRecord
100
AcDbViewportTableRecord
  2
*ACTIVE
 70
     0
 10
0.0
 20
0.0
 11
1.0
 21
1.0
 12
210.0
 22
148.5
 13
0.0
 23
0.0
 14
10.0
 24
10.0
 15
10.0
 25
10.0
 16
0.0
 26
0.0
 36
1.0
 17
0.0
 27
0.0
 37
0.0
 40
341.0
 41
1.24
 42
50.0
 43
0.0
 44
0.0
 50
0.0
 51
0.0
 71
     0
 72
   100
 73
     1
 74
     3
 75
     0
 76
     0
 77
     0
 78
     0
  0
ENDTAB
  0
TABLE
  2
LTYPE
  5
5
330
0
100
AcDbSymbolTable
 70
     1
  0
LTYPE
  5
14
330
5
100
AcDbSymbolTableRecord
100
AcDbLinetypeTableRecord
  2
BYBLOCK
 70
     0
  3

 72
    65
 73
     0
 40
0.0
  0
LTYPE
  5
15
330
5
100
AcDbSymbolTableRecord
100
AcDbLinetypeTableRecord
  2
BYLAYER
 70
     0
  3

 72
    65
 73
     0
 40
0.0
  0
LTYPE
  5
16
330
5
100
AcDbSymbolTableRecord
100
AcDbLinetypeTableRecord
  2
CONTINUOUS
 70
     0
  3
Solid line
 72
    65
 73
     0
 40
0.0
  0
ENDTAB
  0
TABLE
  2
LAYER
  5
2
100
AcDbSymbolTable
 70
2
  0
LAYER
  5
50
100
AcDbSymbolTableRecord
100
AcDbLayerTableRecord
  2
0
 70
0
  6
CONTINUOUS
  0
LAYER
  5
51
100
AcDbSymbolTableRecord
100
AcDbLayerTableRecord
  2
Layer_1
 70
0
  6
CONTINUOUS
  0
ENDTAB
  0
TABLE
  2
STYLE
  5
3
330
0
100
AcDbSymbolTable
 70
     1
  0
STYLE
  5
11
330
3
100
AcDbSymbolTableRecord
100
AcDbTextStyleTableRecord
  2
STANDARD
 70
     0
 40
0.0
 41
1.0
 50
0.0
 71
     0
 42
2.5
  3
txt
  4

  0
ENDTAB
  0
TABLE
  2
VIEW
  5
6
330
0
100
AcDbSymbolTable
 70
     0
  0
ENDTAB
  0
TABLE
  2
UCS
  5
7
330
0
100
AcDbSymbolTable
 70
     0
  0
ENDTAB
  0
TABLE
  2
APPID
  5
9
330
0
100
AcDbSymbolTable
 70
     2
  0
APPID
  5
12
330
9
100
AcDbSymbolTableRecord
100
AcDbRegAppTableRecord
  2
ACAD
 70
     0
  0
ENDTAB
  0
TABLE
  2
DIMSTYLE
  5
A
330
0
100
AcDbSymbolTable
 70
     1
  0
DIMSTYLE
105
27
330
A
100
AcDbSymbolTableRecord
100
AcDbDimStyleTableRecord
  2
ISO-25
 70
     0
  3

  4

  5

  6

  7

 40
1.0
 41
2.5
 42
0.625
 43
3.75
 44
1.25
 45
0.0
 46
0.0
 47
0.0
 48
0.0
140
2.5
141
2.5
142
0.0
143
0.03937007874016
144
1.0
145
0.0
146
1.0
147
0.625
 71
     0
 72
     0
 73
     0
 74
     0
 75
     0
 76
     0
 77
     1
 78
     8
170
     0
171
     3
172
     1
173
     0
174
     0
175
     0
176
     0
177
     0
178
     0
270
     2
271
     2
272
     2
273
     2
274
     3
340
11
275
     0
280
     0
281
     0
282
     0
283
     0
284
     8
285
     0
286
     0
287
     3
288
     0
  0
ENDTAB
  0
TABLE
  2
BLOCK_RECORD
  5
1
330
0
100
AcDbSymbolTable
 70
     1
  0
BLOCK_RECORD
  5
1F
330
1
100
AcDbSymbolTableRecord
100
AcDbBlockTableRecord
  2
*MODEL_SPACE
  0
BLOCK_RECORD
  5
1B
330
1
100
AcDbSymbolTableRecord
100
AcDbBlockTableRecord
  2
*PAPER_SPACE
  0
ENDTAB
  0
ENDSEC
  0
SECTION
  2
BLOCKS
  0
BLOCK
  5
20
330
1F
100
AcDbEntity
  8
0
100
AcDbBlockBegin
  2
*MODEL_SPACE
 70
     0
 10
0.0
 20
0.0
 30
0.0
  3
*MODEL_SPACE
  1

  0
ENDBLK
  5
21
330
1F
100
AcDbEntity
  8
0
100
AcDbBlockEnd
  0
BLOCK
  5
1C
330
1B
100
AcDbEntity
 67
     1
  8
0
100
AcDbBlockBegin
  2
*PAPER_SPACE
  1

  0
ENDBLK
  5
1D
330
1B
100
AcDbEntity
 67
     1
  8
0
100
AcDbBlockEnd
  0
ENDSEC
  0
SECTION
  2
ENTITIES
  0
LINE
  5
100
100
AcDbEntity
  8
Layer_1
 62
7
100
AcDbLine
 10
25.000000
 20
193.500000
 30
0.0
 11
185.000000
 21
193.500000
 31
0.0
  0
LINE
  5
101
100
AcDbEntity
  8
Layer_1
 62
7
100
AcDbLine
 10
185.000000
 20
193.500000
 30
0.0
 11
185.000000
 21
103.500000
 31
0.0
  0
LINE
  5
102
100
AcDbEntity
  8
Layer_1
 62
7
100
AcDbLine
 10
185.000000
 20
103.500000
 30
0.0
 11
25.000000
 21
103.500000
 31
0.0
  0
LINE
  5
103
100
AcDbEntity
  8
Layer_1
 62
7
100
AcDbLine
 10
25.000000
 20
103.500000
 30
0.0
 11
25.000000
 21
193.500000
 31
0.0
  0
SPLINE
  5
104
100
AcDbEntity
  8
Layer_1
 62
7
100
AcDbSpline
 70
8
 71
3
 72
8
 73
4
 74
0
 40
0
 40
0
 40
0
 40
0
 40
1
 40
1
 40
1
 40
1
 10
56.919996
 20
186.000000
 30
0.0
 10
56.919996
 20
184.939613
 30
0.0
 10
56.060383
 20
184.080000
 30
0.0
 10
54.999996
 20
184.080000
 30
0.0
  0
SPLINE
  5
105
100
AcDbEntity
  8
Layer_1
 62
7
100
AcDbSpline
 70
8
 71
3
 72
8
 73
4
 74
0
 40
0
 40
0
 40
0
 40
0
 40
1
 40
1
 40
1
 40
1
 10
54.999996
 20
184.080000
 30
0.0
 10
53.939609
 20
184.080000
 30
0.0
 10
53.079996
 20
184.939613
 30
0.0
 10
53.079996
 20
186.000000
 30
0.0
  0
SPLINE
  5
106
100
AcDbEntity
  8
Layer_1
 62
7
100
AcDbSpline
 70
8
 71
3
 72
8
 73
4
 74
0
 40
0
 40
0
 40
0
 40
0
 40
1
 40
1
 40
1
 40
1
 10
53.079996
 20
186.000000
 30
0.0
 10
53.079996
 20
187.060387
 30
0.0
 10
53.939609
 20
187.920000
 30
0.0
 10
54.999996
 20
187.920000
 30
0.0
  0
SPLINE
  5
107
100
AcDbEntity
  8
Layer_1
 62
7
100
AcDbSpline
 70
8
 71
3
 72
8
 73
4
 74
0
 40
0
 40
0
 40
0
 40
0
 40
1
 40
1
 40
1
 40
1
 10
54.999996
 20
187.920000
 30
0.0
 10
56.060383
 20
187.920000
 30
0.0
 10
56.919996
 20
187.060387
 30
0.0
 10
56.919996
 20
186.000000
 30
0.0
  0
LINE
  5
108
100
AcDbEntity
  8
Layer_1
 62
7
100
AcDbLine
 10
56.919996
 20
186.000000
 30
0.0
 11
56.919996
 21
186.000000
 31
0.0
  0
SPLINE
  5
109
100
AcDbEntity
  8
Layer_1
 62
7
100
AcDbSpline
 70
8
 71
3
 72
8
 73
4
 74
0
 40
0
 40
0
 40
0
 40
0
 40
1
 40
1
 40
1
 40
1
 10
156.920000
 20
186.000000
 30
0.0
 10
156.920000
 20
184.939613
 30
0.0
 10
156.060387
 20
184.080000
 30
0.0
 10
155.000000
 20
184.080000
 30
0.0
  0
SPLINE
  5
10a
100
AcDbEntity
  8
Layer_1
 62
7
100
AcDbSpline
 70
8
 71
3
 72
8
 73
4
 74
0
 40
0
 40
0
 40
0
 40
0
 40
1
 40
1
 40
1
 40
1
 10
155.000000
 20
184.080000
 30
0.0
 10
153.939613
 20
184.080000
 30
0.0
 10
153.080000
 20
184.939613
 30
0.0
 10
153.080000
 20
186.000000
 30
0.0
  0
SPLINE
  5
10b
100
AcDbEntity
  8
Layer_1
 62
7
100
AcDbSpline
 70
8
 71
3
 72
8
 73
4
 74
0
 40
0
 40
0
 40
0
 40
0
 40
1
 40
1
 40
1
 40
1
 10
153.080000
 20
186.000000
 30
0.0
 10
153.080000
 20
187.060387
 30
0.0
 10
153.939613
 20
187.920000
 30
0.0
 10
155.000000
 20
187.920000
 30
0.0
  0
SPLINE
  5
10c
100
AcDbEntity
  8
Layer_1
 62
7
100
AcDbSpline
 70
8
 71
3
 72
8
 73
4
 74
0
 40
0
 40
0
 40
0
 40
0
 40
1
 40
1
 40
1
 40
1
 10
155.000000
 20
187.920000
 30
0.0
 10
156.060387
 20
187.920000
 30
0.0
 10
156.920000
 20
187.060387
 30
0.0
 10
156.920000
 20
186.000000
 30
0.0
  0
LINE
  5
10d
100
AcDbEntity
  8
Layer_1
 62
7
100
AcDbLine
 10
156.920000
 20
186.000000
 30
0.0
 11
156.920000
 21
186.000000
 31
0.0
  0
SPLINE
  5
10e
100
AcDbEntity
  8
Layer_1
 62
7
100
AcDbSpline
 70
8
 71
3
 72
8
 73
4
 74
0
 40
0
 40
0
 40
0
 40
0
 40
1
 40
1
 40
1
 40
1
 10
56.919996
 20
111.000000
 30
0.0
 10
56.919996
 20
109.939613
 30
0.0
 10
56.060383
 20
109.080000
 30
0.0
 10
54.999996
 20
109.080000
 30
0.0
  0
SPLINE
  5
10f
100
AcDbEntity
  8
Layer_1
 62
7
100
AcDbSpline
 70
8
 71
3
 72
8
 73
4
 74
0
 40
0
 40
0
 40
0
 40
0
 40
1
 40
1
 40
1
 40
1
 10
54.999996
 20
109.080000
 30
0.0
 10
53.939609
 20
109.080000
 30
0.0
 10
53.079996
 20
109.939613
 30
0.0
 10
53.079996
 20
111.000000
 30
0.0
  0
SPLINE
  5
110
100
AcDbEntity
  8
Layer_1
 62
7
100
AcDbSpline
 70
8
 71
3
 72
8
 73
4
 74
0
 40
0
 40
0
 40
0
 40
0
 40
1
 40
1
 40
1
 40
1
 10
53.079996
 20
111.000000
 30
0.0
 10
53.079996
 20
112.060387
 30
0.0
 10
53.939609
 20
112.920000
 30
0.0
 10
54.999996
 20
112.920000
 30
0.0
  0
SPLINE
  5
111
100
AcDbEntity
  8
Layer_1
 62
7
100
AcDbSpline
 70
8
 71
3
 72
8
 73
4
 74
0
 40
0
 40
0
 40
0
 40
0
 40
1
 40
1
 40
1
 40
1
 10
54.999996
 20
112.920000
 30
0.0
 10
56.060383
 20
112.920000
 30
0.0
 10
56.919996
 20
112.060387
 30
0.0
 10
56.919996
 20
111.000000
 30
0.0
  0
LINE
  5
112
100
AcDbEntity
  8
Layer_1
 62
7
100
AcDbLine
 10
56.919996
 20
111.000000
 30
0.0
 11
56.919996
 21
111.000000
 31
0.0
  0
SPLINE
  5
113
100
AcDbEntity
  8
Layer_1
 62
7
100
AcDbSpline
 70
8
 71
3
 72
8
 73
4
 74
0
 40
0
 40
0
 40
0
 40
0
 40
1
 40
1
 40
1
 40
1
 10
156.920000
 20
111.000000
 30
0.0
 10
156.920000
 20
109.939613
 30
0.0
 10
156.060387
 20
109.080000
 30
0.0
 10
155.000000
 20
109.080000
 30
0.0
  0
SPLINE
  5
114
100
AcDbEntity
  8
Layer_1
 62
7
100
AcDbSpline
 70
8
 71
3
 72
8
 73
4
 74
0
 40
0
 40
0
 40
0
 40
0
 40
1
 40
1
 40
1
 40
1
 10
155.000000
 20
109.080000
 30
0.0
 10
153.939613
 20
109.080000
 30
0.0
 10
153.080000
 20
109.939613
 30
0.0
 10
153.080000
 20
111.000000
 30
0.0
  0
SPLINE
  5
115
100
AcDbEntity
  8
Layer_1
 62
7
100
AcDbSpline
 70
8
 71
3
 72
8
 73
4
 74
0
 40
0
 40
0
 40
0
 40
0
 40
1
 40
1
 40
1
 40
1
 10
153.080000
 20
111.000000
 30
0.0
 10
153.080000
 20
112.060387
 30
0.0
 10
153.939613
 20
112.920000
 30
0.0
 10
155.000000
 20
112.920000
 30
0.0
  0
SPLINE
  5
116
100
AcDbEntity
  8
Layer_1
 62
7
100
AcDbSpline
 70
8
 71
3
 72
8
 73
4
 74
0
 40
0
 40
0
 40
0
 40
0
 40
1
 40
1
 40
1
 40
1
 10
155.000000
 20
112.920000
 30
0.0
 10
156.060387
 20
112.920000
 30
0.0
 10
156.920000
 20
112.060387
 30
0.0
 10
156.920000
 20
111.000000
 30
0.0
  0
LINE
  5
117
100
AcDbEntity
  8
Layer_1
 62
7
100
AcDbLine
 10
156.920000
 20
111.000000
 30
0.0
 11
156.920000
 21
111.000000
 31
0.0
  0
SPLINE
  5
118
100
AcDbEntity
  8
Layer_1
 62
7
100
AcDbSpline
 70
8
 71
3
 72
8
 73
4
 74
0
 40
0
 40
0
 40
0
 40
0
 40
1
 40
1
 40
1
 40
1
 10
40.000000
 20
173.250000
 30
0.0
 10
40.000000
 20
172.586959
 30
0.0
 10
39.736608
 20
171.951074
 30
0.0
 10
39.267767
 20
171.482233
 30
0.0
  0
SPLINE
  5
119
100
AcDbEntity
  8
Layer_1
 62
7
100
AcDbSpline
 70
8
 71
3
 72
8
 73
4
 74
0
 40
0
 40
0
 40
0
 40
0
 40
1
 40
1
 40
1
 40
1
 10
39.267767
 20
171.482233
 30
0.0
 10
38.798926
 20
171.013392
 30
0.0
 10
38.163041
 20
170.750000
 30
0.0
 10
37.500000
 20
170.750000
 30
0.0
  0
SPLINE
  5
11a
100
AcDbEntity
  8
Layer_1
 62
7
100
AcDbSpline
 70
8
 71
3
 72
8
 73
4
 74
0
 40
0
 40
0
 40
0
 40
0
 40
1
 40
1
 40
1
 40
1
 10
37.500000
 20
170.750000
 30
0.0
 10
36.836959
 20
170.750000
 30
0.0
 10
36.201074
 20
171.013392
 30
0.0
 10
35.732233
 20
171.482233
 30
0.0
  0
SPLINE
  5
11b
100
AcDbEntity
  8
Layer_1
 62
7
100
AcDbSpline
 70
8
 71
3
 72
8
 73
4
 74
0
 40
0
 40
0
 40
0
 40
0
 40
1
 40
1
 40
1
 40
1
 10
35.732233
 20
171.482233
 30
0.0
 10
35.263392
 20
171.951074
 30
0.0
 10
35.000000
 20
172.586959
 30
0.0
 10
35.000000
 20
173.250000
 30
0.0
  0
SPLINE
  5
11c
100
AcDbEntity
  8
Layer_1
 62
7
100
AcDbSpline
 70
8
 71
3
 72
8
 73
4
 74
0
 40
0
 40
0
 40
0
 40
0
 40
1
 40
1
 40
1
 40
1
 10
35.000000
 20
173.250000
 30
0.0
 10
35.000000
 20
173.913041
 30
0.0
 10
35.263392
 20
174.548926
 30
0.0
 10
35.732233
 20
175.017767
 30
0.0
  0
SPLINE
  5
11d
100
AcDbEntity
  8
Layer_1
 62
7
100
AcDbSpline
 70
8
 71
3
 72
8
 73
4
 74
0
 40
0
 40
0
 40
0
 40
0
 40
1
 40
1
 40
1
 40
1
 10
35.732233
 20
175.017767
 30
0.0
 10
36.201074
 20
175.486608
 30
0.0
 10
36.836959
 20
175.750000
 30
0.0
 10
37.500000
 20
175.750000
 30
0.0
  0
SPLINE
  5
11e
100
AcDbEntity
  8
Layer_1
 62
7
100
AcDbSpline
 70
8
 71
3
 72
8
 73
4
 74
0
 40
0
 40
0
 40
0
 40
0
 40
1
 40
1
 40
1
 40
1
 10
37.500000
 20
175.750000
 30
0.0
 10
38.163041
 20
175.750000
 30
0.0
 10
38.798926
 20
175.486608
 30
0.0
 10
39.267767
 20
175.017767
 30
0.0
  0
SPLINE
  5
11f
100
AcDbEntity
  8
Layer_1
 62
7
100
AcDbSpline
 70
8
 71
3
 72
8
 73
4
 74
0
 40
0
 40
0
 40
0
 40
0
 40
1
 40
1
 40
1
 40
1
 10
39.267767
 20
175.017767
 30
0.0
 10
39.736608
 20
174.548926
 30
0.0
 10
40.000000
 20
173.913041
 30
0.0
 10
40.000000
 20
173.250000
 30
0.0
  0
LINE
  5
120
100
AcDbEntity
  8
Layer_1
 62
7
100
AcDbLine
 10
40.000000
 20
173.250000
 30
0.0
 11
40.000000
 21
173.250000
 31
0.0
  0
SPLINE
  5
121
100
AcDbEntity
  8
Layer_1
 62
7
100
AcDbSpline
 70
8
 71
3
 72
8
 73
4
 74
0
 40
0
 40
0
 40
0
 40
0
 40
1
 40
1
 40
1
 40
1
 10
40.000000
 20
173.250000
 30
0.0
 10
40.000000
 20
172.586959
 30
0.0
 10
39.736608
 20
171.951074
 30
0.0
 10
39.267767
 20
171.482233
 30
0.0
  0
SPLINE
  5
122
100
AcDbEntity
  8
Layer_1
 62
7
100
AcDbSpline
 70
8
 71
3
 72
8
 73
4
 74
0
 40
0
 40
0
 40
0
 40
0
 40
1
 40
1
 40
1
 40
1
 10
39.267767
 20
171.482233
 30
0.0
 10
38.798926
 20
171.013392
 30
0.0
 10
38.163041
 20
170.750000
 30
0.0
 10
37.500000
 20
170.750000
 30
0.0
  0
SPLINE
  5
123
100
AcDbEntity
  8
Layer_1
 62
7
100
AcDbSpline
 70
8
 71
3
 72
8
 73
4
 74
0
 40
0
 40
0
 40
0
 40
0
 40
1
 40
1
 40
1
 40
1
 10
37.500000
 20
170.750000
 30
0.0
 10
36.836959
 20
170.750000
 30
0.0
 10
36.201074
 20
171.013392
 30
0.0
 10
35.732233
 20
171.482233
 30
0.0
  0
SPLINE
  5
124
100
AcDbEntity
  8
Layer_1
 62
7
100
AcDbSpline
 70
8
 71
3
 72
8
 73
4
 74
0
 40
0
 40
0
 40
0
 40
0
 40
1
 40
1
 40
1
 40
1
 10
35.732233
 20
171.482233
 30
0.0
 10
35.263392
 20
171.951074
 30
0.0
 10
35.000000
 20
172.586959
 30
0.0
 10
35.000000
 20
173.250000
 30
0.0
  0
SPLINE
  5
125
100
AcDbEntity
  8
Layer_1
 62
7
100
AcDbSpline
 70
8
 71
3
 72
8
 73
4
 74
0
 40
0
 40
0
 40
0
 40
0
 40
1
 40
1
 40
1
 40
1
 10
35.000000
 20
173.250000
 30
0.0
 10
35.000000
 20
173.913041
 30
0.0
 10
35.263392
 20
174.548926
 30
0.0
 10
35.732233
 20
175.017767
 30
0.0
  0
SPLINE
  5
126
100
AcDbEntity
  8
Layer_1
 62
7
100
AcDbSpline
 70
8
 71
3
 72
8
 73
4
 74
0
 40
0
 40
0
 40
0
 40
0
 40
1
 40
1
 40
1
 40
1
 10
35.732233
 20
175.017767
 30
0.0
 10
36.201074
 20
175.486608
 30
0.0
 10
36.836959
 20
175.750000
 30
0.0
 10
37.500000
 20
175.750000
 30
0.0
  0
SPLINE
  5
127
100
AcDbEntity
  8
Layer_1
 62
7
100
AcDbSpline
 70
8
 71
3
 72
8
 73
4
 74
0
 40
0
 40
0
 40
0
 40
0
 40
1
 40
1
 40
1
 40
1
 10
37.500000
 20
175.750000
 30
0.0
 10
38.163041
 20
175.750000
 30
0.0
 10
38.798926
 20
175.486608
 30
0.0
 10
39.267767
 20
175.017767
 30
0.0
  0
SPLINE
  5
128
100
AcDbEntity
  8
Layer_1
 62
7
100
AcDbSpline
 70
8
 71
3
 72
8
 73
4
 74
0
 40
0
 40
0
 40
0
 40
0
 40
1
 40
1
 40
1
 40
1
 10
39.267767
 20
175.017767
 30
0.0
 10
39.736608
 20
174.548926
 30
0.0
 10
40.000000
 20
173.913041
 30
0.0
 10
40.000000
 20
173.250000
 30
0.0
  0
LINE
  5
129
100
AcDbEntity
  8
Layer_1
 62
7
100
AcDbLine
 10
40.000000
 20
173.250000
 30
0.0
 11
40.000000
 21
173.250000
 31
0.0
  0
SPLINE
  5
12a
100
AcDbEntity
  8
Layer_1
 62
7
100
AcDbSpline
 70
8
 71
3
 72
8
 73
4
 74
0
 40
0
 40
0
 40
0
 40
0
 40
1
 40
1
 40
1
 40
1
 10
40.000000
 20
156.750000
 30
0.0
 10
40.000000
 20
156.086959
 30
0.0
 10
39.736608
 20
155.451074
 30
0.0
 10
39.267767
 20
154.982233
 30
0.0
  0
SPLINE
  5
12b
100
AcDbEntity
  8
Layer_1
 62
7
100
AcDbSpline
 70
8
 71
3
 72
8
 73
4
 74
0
 40
0
 40
0
 40
0
 40
0
 40
1
 40
1
 40
1
 40
1
 10
39.267767
 20
154.982233
 30
0.0
 10
38.798926
 20
154.513392
 30
0.0
 10
38.163041
 20
154.250000
 30
0.0
 10
37.500000
 20
154.250000
 30
0.0
  0
SPLINE
  5
12c
100
AcDbEntity
  8
Layer_1
 62
7
100
AcDbSpline
 70
8
 71
3
 72
8
 73
4
 74
0
 40
0
 40
0
 40
0
 40
0
 40
1
 40
1
 40
1
 40
1
 10
37.500000
 20
154.250000
 30
0.0
 10
36.836959
 20
154.250000
 30
0.0
 10
36.201074
 20
154.513392
 30
0.0
 10
35.732233
 20
154.982233
 30
0.0
  0
SPLINE
  5
12d
100
AcDbEntity
  8
Layer_1
 62
7
100
AcDbSpline
 70
8
 71
3
 72
8
 73
4
 74
0
 40
0
 40
0
 40
0
 40
0
 40
1
 40
1
 40
1
 40
1
 10
35.732233
 20
154.982233
 30
0.0
 10
35.263392
 20
155.451074
 30
0.0
 10
35.000000
 20
156.086959
 30
0.0
 10
35.000000
 20
156.750000
 30
0.0
  0
SPLINE
  5
12e
100
AcDbEntity
  8
Layer_1
 62
7
100
AcDbSpline
 70
8
 71
3
 72
8
 73
4
 74
0
 40
0
 40
0
 40
0
 40
0
 40
1
 40
1
 40
1
 40
1
 10
35.000000
 20
156.750000
 30
0.0
 10
35.000000
 20
157.413041
 30
0.0
 10
35.263392
 20
158.048926
 30
0.0
 10
35.732233
 20
158.517767
 30
0.0
  0
SPLINE
  5
12f
100
AcDbEntity
  8
Layer_1
 62
7
100
AcDbSpline
 70
8
 71
3
 72
8
 73
4
 74
0
 40
0
 40
0
 40
0
 40
0
 40
1
 40
1
 40
1
 40
1
 10
35.732233
 20
158.517767
 30
0.0
 10
36.201074
 20
158.986608
 30
0.0
 10
36.836959
 20
159.250000
 30
0.0
 10
37.500000
 20
159.250000
 30
0.0
  0
SPLINE
  5
130
100
AcDbEntity
  8
Layer_1
 62
7
100
AcDbSpline
 70
8
 71
3
 72
8
 73
4
 74
0
 40
0
 40
0
 40
0
 40
0
 40
1
 40
1
 40
1
 40
1
 10
37.500000
 20
159.250000
 30
0.0
 10
38.163041
 20
159.250000
 30
0.0
 10
38.798926
 20
158.986608
 30
0.0
 10
39.267767
 20
158.517767
 30
0.0
  0
SPLINE
  5
131
100
AcDbEntity
  8
Layer_1
 62
7
100
AcDbSpline
 70
8
 71
3
 72
8
 73
4
 74
0
 40
0
 40
0
 40
0
 40
0
 40
1
 40
1
 40
1
 40
1
 10
39.267767
 20
158.517767
 30
0.0
 10
39.736608
 20
158.048926
 30
0.0
 10
40.000000
 20
157.413041
 30
0.0
 10
40.000000
 20
156.750000
 30
0.0
  0
LINE
  5
132
100
AcDbEntity
  8
Layer_1
 62
7
100
AcDbLine
 10
40.000000
 20
156.750000
 30
0.0
 11
40.000000
 21
156.750000
 31
0.0
  0
SPLINE
  5
133
100
AcDbEntity
  8
Layer_1
 62
7
100
AcDbSpline
 70
8
 71
3
 72
8
 73
4
 74
0
 40
0
 40
0
 40
0
 40
0
 40
1
 40
1
 40
1
 40
1
 10
40.000000
 20
140.250000
 30
0.0
 10
40.000000
 20
139.586959
 30
0.0
 10
39.736608
 20
138.951074
 30
0.0
 10
39.267767
 20
138.482233
 30
0.0
  0
SPLINE
  5
134
100
AcDbEntity
  8
Layer_1
 62
7
100
AcDbSpline
 70
8
 71
3
 72
8
 73
4
 74
0
 40
0
 40
0
 40
0
 40
0
 40
1
 40
1
 40
1
 40
1
 10
39.267767
 20
138.482233
 30
0.0
 10
38.798926
 20
138.013392
 30
0.0
 10
38.163041
 20
137.750000
 30
0.0
 10
37.500000
 20
137.750000
 30
0.0
  0
SPLINE
  5
135
100
AcDbEntity
  8
Layer_1
 62
7
100
AcDbSpline
 70
8
 71
3
 72
8
 73
4
 74
0
 40
0
 40
0
 40
0
 40
0
 40
1
 40
1
 40
1
 40
1
 10
37.500000
 20
137.750000
 30
0.0
 10
36.836959
 20
137.750000
 30
0.0
 10
36.201074
 20
138.013392
 30
0.0
 10
35.732233
 20
138.482233
 30
0.0
  0
SPLINE
  5
136
100
AcDbEntity
  8
Layer_1
 62
7
100
AcDbSpline
 70
8
 71
3
 72
8
 73
4
 74
0
 40
0
 40
0
 40
0
 40
0
 40
1
 40
1
 40
1
 40
1
 10
35.732233
 20
138.482233
 30
0.0
 10
35.263392
 20
138.951074
 30
0.0
 10
35.000000
 20
139.586959
 30
0.0
 10
35.000000
 20
140.250000
 30
0.0
  0
SPLINE
  5
137
100
AcDbEntity
  8
Layer_1
 62
7
100
AcDbSpline
 70
8
 71
3
 72
8
 73
4
 74
0
 40
0
 40
0
 40
0
 40
0
 40
1
 40
1
 40
1
 40
1
 10
35.000000
 20
140.250000
 30
0.0
 10
35.000000
 20
140.913041
 30
0.0
 10
35.263392
 20
141.548926
 30
0.0
 10
35.732233
 20
142.017767
 30
0.0
  0
SPLINE
  5
138
100
AcDbEntity
  8
Layer_1
 62
7
100
AcDbSpline
 70
8
 71
3
 72
8
 73
4
 74
0
 40
0
 40
0
 40
0
 40
0
 40
1
 40
1
 40
1
 40
1
 10
35.732233
 20
142.017767
 30
0.0
 10
36.201074
 20
142.486608
 30
0.0
 10
36.836959
 20
142.750000
 30
0.0
 10
37.500000
 20
142.750000
 30
0.0
  0
SPLINE
  5
139
100
AcDbEntity
  8
Layer_1
 62
7
100
AcDbSpline
 70
8
 71
3
 72
8
 73
4
 74
0
 40
0
 40
0
 40
0
 40
0
 40
1
 40
1
 40
1
 40
1
 10
37.500000
 20
142.750000
 30
0.0
 10
38.163041
 20
142.750000
 30
0.0
 10
38.798926
 20
142.486608
 30
0.0
 10
39.267767
 20
142.017767
 30
0.0
  0
SPLINE
  5
13a
100
AcDbEntity
  8
Layer_1
 62
7
100
AcDbSpline
 70
8
 71
3
 72
8
 73
4
 74
0
 40
0
 40
0
 40
0
 40
0
 40
1
 40
1
 40
1
 40
1
 10
39.267767
 20
142.017767
 30
0.0
 10
39.736608
 20
141.548926
 30
0.0
 10
40.000000
 20
140.913041
 30
0.0
 10
40.000000
 20
140.250000
 30
0.0
  0
LINE
  5
13b
100
AcDbEntity
  8
Layer_1
 62
7
100
AcDbLine
 10
40.000000
 20
140.250000
 30
0.0
 11
40.000000
 21
140.250000
 31
0.0
  0
SPLINE
  5
13c
100
AcDbEntity
  8
Layer_1
 62
7
100
AcDbSpline
 70
8
 71
3
 72
8
 73
4
 74
0
 40
0
 40
0
 40
0
 40
0
 40
1
 40
1
 40
1
 40
1
 10
40.000000
 20
123.750000
 30
0.0
 10
40.000000
 20
123.086959
 30
0.0
 10
39.736608
 20
122.451074
 30
0.0
 10
39.267767
 20
121.982233
 30
0.0
  0
SPLINE
  5
13d
100
AcDbEntity
  8
Layer_1
 62
7
100
AcDbSpline
 70
8
 71
3
 72
8
 73
4
 74
0
 40
0
 40
0
 40
0
 40
0
 40
1
 40
1
 40
1
 40
1
 10
39.267767
 20
121.982233
 30
0.0
 10
38.798926
 20
121.513392
 30
0.0
 10
38.163041
 20
121.250000
 30
0.0
 10
37.500000
 20
121.250000
 30
0.0
  0
SPLINE
  5
13e
100
AcDbEntity
  8
Layer_1
 62
7
100
AcDbSpline
 70
8
 71
3
 72
8
 73
4
 74
0
 40
0
 40
0
 40
0
 40
0
 40
1
 40
1
 40
1
 40
1
 10
37.500000
 20
121.250000
 30
0.0
 10
36.836959
 20
121.250000
 30
0.0
 10
36.201074
 20
121.513392
 30
0.0
 10
35.732233
 20
121.982233
 30
0.0
  0
SPLINE
  5
13f
100
AcDbEntity
  8
Layer_1
 62
7
100
AcDbSpline
 70
8
 71
3
 72
8
 73
4
 74
0
 40
0
 40
0
 40
0
 40
0
 40
1
 40
1
 40
1
 40
1
 10
35.732233
 20
121.982233
 30
0.0
 10
35.263392
 20
122.451074
 30
0.0
 10
35.000000
 20
123.086959
 30
0.0
 10
35.000000
 20
123.750000
 30
0.0
  0
SPLINE
  5
140
100
AcDbEntity
  8
Layer_1
 62
7
100
AcDbSpline
 70
8
 71
3
 72
8
 73
4
 74
0
 40
0
 40
0
 40
0
 40
0
 40
1
 40
1
 40
1
 40
1
 10
35.000000
 20
123.750000
 30
0.0
 10
35.000000
 20
124.413041
 30
0.0
 10
35.263392
 20
125.048926
 30
0.0
 10
35.732233
 20
125.517767
 30
0.0
  0
SPLINE
  5
141
100
AcDbEntity
  8
Layer_1
 62
7
100
AcDbSpline
 70
8
 71
3
 72
8
 73
4
 74
0
 40
0
 40
0
 40
0
 40
0
 40
1
 40
1
 40
1
 40
1
 10
35.732233
 20
125.517767
 30
0.0
 10
36.201074
 20
125.986608
 30
0.0
 10
36.836959
 20
126.250000
 30
0.0
 10
37.500000
 20
126.250000
 30
0.0
  0
SPLINE
  5
142
100
AcDbEntity
  8
Layer_1
 62
7
100
AcDbSpline
 70
8
 71
3
 72
8
 73
4
 74
0
 40
0
 40
0
 40
0
 40
0
 40
1
 40
1
 40
1
 40
1
 10
37.500000
 20
126.250000
 30
0.0
 10
38.163041
 20
126.250000
 30
0.0
 10
38.798926
 20
125.986608
 30
0.0
 10
39.267767
 20
125.517767
 30
0.0
  0
SPLINE
  5
143
100
AcDbEntity
  8
Layer_1
 62
7
100
AcDbSpline
 70
8
 71
3
 72
8
 73
4
 74
0
 40
0
 40
0
 40
0
 40
0
 40
1
 40
1
 40
1
 40
1
 10
39.267767
 20
125.517767
 30
0.0
 10
39.736608
 20
125.048926
 30
0.0
 10
40.000000
 20
124.413041
 30
0.0
 10
40.000000
 20
123.750000
 30
0.0
  0
LINE
  5
144
100
AcDbEntity
  8
Layer_1
 62
7
100
AcDbLine
 10
40.000000
 20
123.750000
 30
0.0
 11
40.000000
 21
123.750000
 31
0.0
  0
SPLINE
  5
145
100
AcDbEntity
  8
Layer_1
 62
7
100
AcDbSpline
 70
8
 71
3
 72
8
 73
4
 74
0
 40
0
 40
0
 40
0
 40
0
 40
1
 40
1
 40
1
 40
1
 10
55.000000
 20
173.250000
 30
0.0
 10
55.000000
 20
172.586959
 30
0.0
 10
54.736608
 20
171.951074
 30
0.0
 10
54.267767
 20
171.482233
 30
0.0
  0
SPLINE
  5
146
100
AcDbEntity
  8
Layer_1
 62
7
100
AcDbSpline
 70
8
 71
3
 72
8
 73
4
 74
0
 40
0
 40
0
 40
0
 40
0
 40
1
 40
1
 40
1
 40
1
 10
54.267767
 20
171.482233
 30
0.0
 10
53.798926
 20
171.013392
 30
0.0
 10
53.163041
 20
170.750000
 30
0.0
 10
52.500000
 20
170.750000
 30
0.0
  0
SPLINE
  5
147
100
AcDbEntity
  8
Layer_1
 62
7
100
AcDbSpline
 70
8
 71
3
 72
8
 73
4
 74
0
 40
0
 40
0
 40
0
 40
0
 40
1
 40
1
 40
1
 40
1
 10
52.500000
 20
170.750000
 30
0.0
 10
51.836959
 20
170.750000
 30
0.0
 10
51.201074
 20
171.013392
 30
0.0
 10
50.732233
 20
171.482233
 30
0.0
  0
SPLINE
  5
148
100
AcDbEntity
  8
Layer_1
 62
7
100
AcDbSpline
 70
8
 71
3
 72
8
 73
4
 74
0
 40
0
 40
0
 40
0
 40
0
 40
1
 40
1
 40
1
 40
1
 10
50.732233
 20
171.482233
 30
0.0
 10
50.263392
 20
171.951074
 30
0.0
 10
50.000000
 20
172.586959
 30
0.0
 10
50.000000
 20
173.250000
 30
0.0
  0
SPLINE
  5
149
100
AcDbEntity
  8
Layer_1
 62
7
100
AcDbSpline
 70
8
 71
3
 72
8
 73
4
 74
0
 40
0
 40
0
 40
0
 40
0
 40
1
 40
1
 40
1
 40
1
 10
50.000000
 20
173.250000
 30
0.0
 10
50.000000
 20
173.913041
 30
0.0
 10
50.263392
 20
174.548926
 30
0.0
 10
50.732233
 20
175.017767
 30
0.0
  0
SPLINE
  5
14a
100
AcDbEntity
  8
Layer_1
 62
7
100
AcDbSpline
 70
8
 71
3
 72
8
 73
4
 74
0
 40
0
 40
0
 40
0
 40
0
 40
1
 40
1
 40
1
 40
1
 10
50.732233
 20
175.017767
 30
0.0
 10
51.201074
 20
175.486608
 30
0.0
 10
51.836959
 20
175.750000
 30
0.0
 10
52.500000
 20
175.750000
 30
0.0
  0
SPLINE
  5
14b
100
AcDbEntity
  8
Layer_1
 62
7
100
AcDbSpline
 70
8
 71
3
 72
8
 73
4
 74
0
 40
0
 40
0
 40
0
 40
0
 40
1
 40
1
 40
1
 40
1
 10
52.500000
 20
175.750000
 30
0.0
 10
53.163041
 20
175.750000
 30
0.0
 10
53.798926
 20
175.486608
 30
0.0
 10
54.267767
 20
175.017767
 30
0.0
  0
SPLINE
  5
14c
100
AcDbEntity
  8
Layer_1
 62
7
100
AcDbSpline
 70
8
 71
3
 72
8
 73
4
 74
0
 40
0
 40
0
 40
0
 40
0
 40
1
 40
1
 40
1
 40
1
 10
54.267767
 20
175.017767
 30
0.0
 10
54.736608
 20
174.548926
 30
0.0
 10
55.000000
 20
173.913041
 30
0.0
 10
55.000000
 20
173.250000
 30
0.0
  0
LINE
  5
14d
100
AcDbEntity
  8
Layer_1
 62
7
100
AcDbLine
 10
55.000000
 20
173.250000
 30
0.0
 11
55.000000
 21
173.250000
 31
0.0
  0
SPLINE
  5
14e
100
AcDbEntity
  8
Layer_1
 62
7
100
AcDbSpline
 70
8
 71
3
 72
8
 73
4
 74
0
 40
0
 40
0
 40
0
 40
0
 40
1
 40
1
 40
1
 40
1
 10
55.000000
 20
156.750000
 30
0.0
 10
55.000000
 20
156.086959
 30
0.0
 10
54.736608
 20
155.451074
 30
0.0
 10
54.267767
 20
154.982233
 30
0.0
  0
SPLINE
  5
14f
100
AcDbEntity
  8
Layer_1
 62
7
100
AcDbSpline
 70
8
 71
3
 72
8
 73
4
 74
0
 40
0
 40
0
 40
0
 40
0
 40
1
 40
1
 40
1
 40
1
 10
54.267767
 20
154.982233
 30
0.0
 10
53.798926
 20
154.513392
 30
0.0
 10
53.163041
 20
154.250000
 30
0.0
 10
52.500000
 20
154.250000
 30
0.0
  0
SPLINE
  5
150
100
AcDbEntity
  8
Layer_1
 62
7
100
AcDbSpline
 70
8
 71
3
 72
8
 73
4
 74
0
 40
0
 40
0
 40
0
 40
0
 40
1
 40
1
 40
1
 40
1
 10
52.500000
 20
154.250000
 30
0.0
 10
51.836959
 20
154.250000
 30
0.0
 10
51.201074
 20
154.513392
 30
0.0
 10
50.732233
 20
154.982233
 30
0.0
  0
SPLINE
  5
151
100
AcDbEntity
  8
Layer_1
 62
7
100
AcDbSpline
 70
8
 71
3
 72
8
 73
4
 74
0
 40
0
 40
0
 40
0
 40
0
 40
1
 40
1
 40
1
 40
1
 10
50.732233
 20
154.982233
 30
0.0
 10
50.263392
 20
155.451074
 30
0.0
 10
50.000000
 20
156.086959
 30
0.0
 10
50.000000
 20
156.750000
 30
0.0
  0
SPLINE
  5
152
100
AcDbEntity
  8
Layer_1
 62
7
100
AcDbSpline
 70
8
 71
3
 72
8
 73
4
 74
0
 40
0
 40
0
 40
0
 40
0
 40
1
 40
1
 40
1
 40
1
 10
50.000000
 20
156.750000
 30
0.0
 10
50.000000
 20
157.413041
 30
0.0
 10
50.263392
 20
158.048926
 30
0.0
 10
50.732233
 20
158.517767
 30
0.0
  0
SPLINE
  5
153
100
AcDbEntity
  8
Layer_1
 62
7
100
AcDbSpline
 70
8
 71
3
 72
8
 73
4
 74
0
 40
0
 40
0
 40
0
 40
0
 40
1
 40
1
 40
1
 40
1
 10
50.732233
 20
158.517767
 30
0.0
 10
51.201074
 20
158.986608
 30
0.0
 10
51.836959
 20
159.250000
 30
0.0
 10
52.500000
 20
159.250000
 30
0.0
  0
SPLINE
  5
154
100
AcDbEntity
  8
Layer_1
 62
7
100
AcDbSpline
 70
8
 71
3
 72
8
 73
4
 74
0
 40
0
 40
0
 40
0
 40
0
 40
1
 40
1
 40
1
 40
1
 10
52.500000
 20
159.250000
 30
0.0
 10
53.163041
 20
159.250000
 30
0.0
 10
53.798926
 20
158.986608
 30
0.0
 10
54.267767
 20
158.517767
 30
0.0
  0
SPLINE
  5
155
100
AcDbEntity
  8
Layer_1
 62
7
100
AcDbSpline
 70
8
 71
3
 72
8
 73
4
 74
0
 40
0
 40
0
 40
0
 40
0
 40
1
 40
1
 40
1
 40
1
 10
54.267767
 20
158.517767
 30
0.0
 10
54.736608
 20
158.048926
 30
0.0
 10
55.000000
 20
157.413041
 30
0.0
 10
55.000000
 20
156.750000
 30
0.0
  0
LINE
  5
156
100
AcDbEntity
  8
Layer_1
 62
7
100
AcDbLine
 10
55.000000
 20
156.750000
 30
0.0
 11
55.000000
 21
156.750000
 31
0.0
  0
SPLINE
  5
157
100
AcDbEntity
  8
Layer_1
 62
7
100
AcDbSpline
 70
8
 71
3
 72
8
 73
4
 74
0
 40
0
 40
0
 40
0
 40
0
 40
1
 40
1
 40
1
 40
1
 10
55.000000
 20
140.250000
 30
0.0
 10
55.000000
 20
139.586959
 30
0.0
 10
54.736608
 20
138.951074
 30
0.0
 10
54.267767
 20
138.482233
 30
0.0
  0
SPLINE
  5
158
100
AcDbEntity
  8
Layer_1
 62
7
100
AcDbSpline
 70
8
 71
3
 72
8
 73
4
 74
0
 40
0
 40
0
 40
0
 40
0
 40
1
 40
1
 40
1
 40
1
 10
54.267767
 20
138.482233
 30
0.0
 10
53.798926
 20
138.013392
 30
0.0
 10
53.163041
 20
137.750000
 30
0.0
 10
52.500000
 20
137.750000
 30
0.0
  0
SPLINE
  5
159
100
AcDbEntity
  8
Layer_1
 62
7
100
AcDbSpline
 70
8
 71
3
 72
8
 73
4
 74
0
 40
0
 40
0
 40
0
 40
0
 40
1
 40
1
 40
1
 40
1
 10
52.500000
 20
137.750000
 30
0.0
 10
51.836959
 20
137.750000
 30
0.0
 10
51.201074
 20
138.013392
 30
0.0
 10
50.732233
 20
138.482233
 30
0.0
  0
SPLINE
  5
15a
100
AcDbEntity
  8
Layer_1
 62
7
100
AcDbSpline
 70
8
 71
3
 72
8
 73
4
 74
0
 40
0
 40
0
 40
0
 40
0
 40
1
 40
1
 40
1
 40
1
 10
50.732233
 20
138.482233
 30
0.0
 10
50.263392
 20
138.951074
 30
0.0
 10
50.000000
 20
139.586959
 30
0.0
 10
50.000000
 20
140.250000
 30
0.0
  0
SPLINE
  5
15b
100
AcDbEntity
  8
Layer_1
 62
7
100
AcDbSpline
 70
8
 71
3
 72
8
 73
4
 74
0
 40
0
 40
0
 40
0
 40
0
 40
1
 40
1
 40
1
 40
1
 10
50.000000
 20
140.250000
 30
0.0
 10
50.000000
 20
140.913041
 30
0.0
 10
50.263392
 20
141.548926
 30
0.0
 10
50.732233
 20
142.017767
 30
0.0
  0
SPLINE
  5
15c
100
AcDbEntity
  8
Layer_1
 62
7
100
AcDbSpline
 70
8
 71
3
 72
8
 73
4
 74
0
 40
0
 40
0
 40
0
 40
0
 40
1
 40
1
 40
1
 40
1
 10
50.732233
 20
142.017767
 30
0.0
 10
51.201074
 20
142.486608
 30
0.0
 10
51.836959
 20
142.750000
 30
0.0
 10
52.500000
 20
142.750000
 30
0.0
  0
SPLINE
  5
15d
100
AcDbEntity
  8
Layer_1
 62
7
100
AcDbSpline
 70
8
 71
3
 72
8
 73
4
 74
0
 40
0
 40
0
 40
0
 40
0
 40
1
 40
1
 40
1
 40
1
 10
52.500000
 20
142.750000
 30
0.0
 10
53.163041
 20
142.750000
 30
0.0
 10
53.798926
 20
142.486608
 30
0.0
 10
54.267767
 20
142.017767
 30
0.0
  0
SPLINE
  5
15e
100
AcDbEntity
  8
Layer_1
 62
7
100
AcDbSpline
 70
8
 71
3
 72
8
 73
4
 74
0
 40
0
 40
0
 40
0
 40
0
 40
1
 40
1
 40
1
 40
1
 10
54.267767
 20
142.017767
 30
0.0
 10
54.736608
 20
141.548926
 30
0.0
 10
55.000000
 20
140.913041
 30
0.0
 10
55.000000
 20
140.250000
 30
0.0
  0
LINE
  5
15f
100
AcDbEntity
  8
Layer_1
 62
7
100
AcDbLine
 10
55.000000
 20
140.250000
 30
0.0
 11
55.000000
 21
140.250000
 31
0.0
  0
SPLINE
  5
160
100
AcDbEntity
  8
Layer_1
 62
7
100
AcDbSpline
 70
8
 71
3
 72
8
 73
4
 74
0
 40
0
 40
0
 40
0
 40
0
 40
1
 40
1
 40
1
 40
1
 10
55.000000
 20
123.750000
 30
0.0
 10
55.000000
 20
123.086959
 30
0.0
 10
54.736608
 20
122.451074
 30
0.0
 10
54.267767
 20
121.982233
 30
0.0
  0
SPLINE
  5
161
100
AcDbEntity
  8
Layer_1
 62
7
100
AcDbSpline
 70
8
 71
3
 72
8
 73
4
 74
0
 40
0
 40
0
 40
0
 40
0
 40
1
 40
1
 40
1
 40
1
 10
54.267767
 20
121.982233
 30
0.0
 10
53.798926
 20
121.513392
 30
0.0
 10
53.163041
 20
121.250000
 30
0.0
 10
52.500000
 20
121.250000
 30
0.0
  0
SPLINE
  5
162
100
AcDbEntity
  8
Layer_1
 62
7
100
AcDbSpline
 70
8
 71
3
 72
8
 73
4
 74
0
 40
0
 40
0
 40
0
 40
0
 40
1
 40
1
 40
1
 40
1
 10
52.500000
 20
121.250000
 30
0.0
 10
51.836959
 20
121.250000
 30
0.0
 10
51.201074
 20
121.513392
 30
0.0
 10
50.732233
 20
121.982233
 30
0.0
  0
SPLINE
  5
163
100
AcDbEntity
  8
Layer_1
 62
7
100
AcDbSpline
 70
8
 71
3
 72
8
 73
4
 74
0
 40
0
 40
0
 40
0
 40
0
 40
1
 40
1
 40
1
 40
1
 10
50.732233
 20
121.982233
 30
0.0
 10
50.263392
 20
122.451074
 30
0.0
 10
50.000000
 20
123.086959
 30
0.0
 10
50.000000
 20
123.750000
 30
0.0
  0
SPLINE
  5
164
100
AcDbEntity
  8
Layer_1
 62
7
100
AcDbSpline
 70
8
 71
3
 72
8
 73
4
 74
0
 40
0
 40
0
 40
0
 40
0
 40
1
 40
1
 40
1
 40
1
 10
50.000000
 20
123.750000
 30
0.0
 10
50.000000
 20
124.413041
 30
0.0
 10
50.263392
 20
125.048926
 30
0.0
 10
50.732233
 20
125.517767
 30
0.0
  0
SPLINE
  5
165
100
AcDbEntity
  8
Layer_1
 62
7
100
AcDbSpline
 70
8
 71
3
 72
8
 73
4
 74
0
 40
0
 40
0
 40
0
 40
0
 40
1
 40
1
 40
1
 40
1
 10
50.732233
 20
125.517767
 30
0.0
 10
51.201074
 20
125.986608
 30
0.0
 10
51.836959
 20
126.250000
 30
0.0
 10
52.500000
 20
126.250000
 30
0.0
  0
SPLINE
  5
166
100
AcDbEntity
  8
Layer_1
 62
7
100
AcDbSpline
 70
8
 71
3
 72
8
 73
4
 74
0
 40
0
 40
0
 40
0
 40
0
 40
1
 40
1
 40
1
 40
1
 10
52.500000
 20
126.250000
 30
0.0
 10
53.163041
 20
126.250000
 30
0.0
 10
53.798926
 20
125.986608
 30
0.0
 10
54.267767
 20
125.517767
 30
0.0
  0
SPLINE
  5
167
100
AcDbEntity
  8
Layer_1
 62
7
100
AcDbSpline
 70
8
 71
3
 72
8
 73
4
 74
0
 40
0
 40
0
 40
0
 40
0
 40
1
 40
1
 40
1
 40
1
 10
54.267767
 20
125.517767
 30
0.0
 10
54.736608
 20
125.048926
 30
0.0
 10
55.000000
 20
124.413041
 30
0.0
 10
55.000000
 20
123.750000
 30
0.0
  0
LINE
  5
168
100
AcDbEntity
  8
Layer_1
 62
7
100
AcDbLine
 10
55.000000
 20
123.750000
 30
0.0
 11
55.000000
 21
123.750000
 31
0.0
  0
SPLINE
  5
169
100
AcDbEntity
  8
Layer_1
 62
7
100
AcDbSpline
 70
8
 71
3
 72
8
 73
4
 74
0
 40
0
 40
0
 40
0
 40
0
 40
1
 40
1
 40
1
 40
1
 10
70.000000
 20
173.250000
 30
0.0
 10
70.000000
 20
172.586959
 30
0.0
 10
69.736608
 20
171.951074
 30
0.0
 10
69.267767
 20
171.482233
 30
0.0
  0
SPLINE
  5
16a
100
AcDbEntity
  8
Layer_1
 62
7
100
AcDbSpline
 70
8
 71
3
 72
8
 73
4
 74
0
 40
0
 40
0
 40
0
 40
0
 40
1
 40
1
 40
1
 40
1
 10
69.267767
 20
171.482233
 30
0.0
 10
68.798926
 20
171.013392
 30
0.0
 10
68.163041
 20
170.750000
 30
0.0
 10
67.500000
 20
170.750000
 30
0.0
  0
SPLINE
  5
16b
100
AcDbEntity
  8
Layer_1
 62
7
100
AcDbSpline
 70
8
 71
3
 72
8
 73
4
 74
0
 40
0
 40
0
 40
0
 40
0
 40
1
 40
1
 40
1
 40
1
 10
67.500000
 20
170.750000
 30
0.0
 10
66.836959
 20
170.750000
 30
0.0
 10
66.201074
 20
171.013392
 30
0.0
 10
65.732233
 20
171.482233
 30
0.0
  0
SPLINE
  5
16c
100
AcDbEntity
  8
Layer_1
 62
7
100
AcDbSpline
 70
8
 71
3
 72
8
 73
4
 74
0
 40
0
 40
0
 40
0
 40
0
 40
1
 40
1
 40
1
 40
1
 10
65.732233
 20
171.482233
 30
0.0
 10
65.263392
 20
171.951074
 30
0.0
 10
65.000000
 20
172.586959
 30
0.0
 10
65.000000
 20
173.250000
 30
0.0
  0
SPLINE
  5
16d
100
AcDbEntity
  8
Layer_1
 62
7
100
AcDbSpline
 70
8
 71
3
 72
8
 73
4
 74
0
 40
0
 40
0
 40
0
 40
0
 40
1
 40
1
 40
1
 40
1
 10
65.000000
 20
173.250000
 30
0.0
 10
65.000000
 20
173.913041
 30
0.0
 10
65.263392
 20
174.548926
 30
0.0
 10
65.732233
 20
175.017767
 30
0.0
  0
SPLINE
  5
16e
100
AcDbEntity
  8
Layer_1
 62
7
100
AcDbSpline
 70
8
 71
3
 72
8
 73
4
 74
0
 40
0
 40
0
 40
0
 40
0
 40
1
 40
1
 40
1
 40
1
 10
65.732233
 20
175.017767
 30
0.0
 10
66.201074
 20
175.486608
 30
0.0
 10
66.836959
 20
175.750000
 30
0.0
 10
67.500000
 20
175.750000
 30
0.0
  0
SPLINE
  5
16f
100
AcDbEntity
  8
Layer_1
 62
7
100
AcDbSpline
 70
8
 71
3
 72
8
 73
4
 74
0
 40
0
 40
0
 40
0
 40
0
 40
1
 40
1
 40
1
 40
1
 10
67.500000
 20
175.750000
 30
0.0
 10
68.163041
 20
175.750000
 30
0.0
 10
68.798926
 20
175.486608
 30
0.0
 10
69.267767
 20
175.017767
 30
0.0
  0
SPLINE
  5
170
100
AcDbEntity
  8
Layer_1
 62
7
100
AcDbSpline
 70
8
 71
3
 72
8
 73
4
 74
0
 40
0
 40
0
 40
0
 40
0
 40
1
 40
1
 40
1
 40
1
 10
69.267767
 20
175.017767
 30
0.0
 10
69.736608
 20
174.548926
 30
0.0
 10
70.000000
 20
173.913041
 30
0.0
 10
70.000000
 20
173.250000
 30
0.0
  0
LINE
  5
171
100
AcDbEntity
  8
Layer_1
 62
7
100
AcDbLine
 10
70.000000
 20
173.250000
 30
0.0
 11
70.000000
 21
173.250000
 31
0.0
  0
SPLINE
  5
172
100
AcDbEntity
  8
Layer_1
 62
7
100
AcDbSpline
 70
8
 71
3
 72
8
 73
4
 74
0
 40
0
 40
0
 40
0
 40
0
 40
1
 40
1
 40
1
 40
1
 10
70.000000
 20
156.750000
 30
0.0
 10
70.000000
 20
156.086959
 30
0.0
 10
69.736608
 20
155.451074
 30
0.0
 10
69.267767
 20
154.982233
 30
0.0
  0
SPLINE
  5
173
100
AcDbEntity
  8
Layer_1
 62
7
100
AcDbSpline
 70
8
 71
3
 72
8
 73
4
 74
0
 40
0
 40
0
 40
0
 40
0
 40
1
 40
1
 40
1
 40
1
 10
69.267767
 20
154.982233
 30
0.0
 10
68.798926
 20
154.513392
 30
0.0
 10
68.163041
 20
154.250000
 30
0.0
 10
67.500000
 20
154.250000
 30
0.0
  0
SPLINE
  5
174
100
AcDbEntity
  8
Layer_1
 62
7
100
AcDbSpline
 70
8
 71
3
 72
8
 73
4
 74
0
 40
0
 40
0
 40
0
 40
0
 40
1
 40
1
 40
1
 40
1
 10
67.500000
 20
154.250000
 30
0.0
 10
66.836959
 20
154.250000
 30
0.0
 10
66.201074
 20
154.513392
 30
0.0
 10
65.732233
 20
154.982233
 30
0.0
  0
SPLINE
  5
175
100
AcDbEntity
  8
Layer_1
 62
7
100
AcDbSpline
 70
8
 71
3
 72
8
 73
4
 74
0
 40
0
 40
0
 40
0
 40
0
 40
1
 40
1
 40
1
 40
1
 10
65.732233
 20
154.982233
 30
0.0
 10
65.263392
 20
155.451074
 30
0.0
 10
65.000000
 20
156.086959
 30
0.0
 10
65.000000
 20
156.750000
 30
0.0
  0
SPLINE
  5
176
100
AcDbEntity
  8
Layer_1
 62
7
100
AcDbSpline
 70
8
 71
3
 72
8
 73
4
 74
0
 40
0
 40
0
 40
0
 40
0
 40
1
 40
1
 40
1
 40
1
 10
65.000000
 20
156.750000
 30
0.0
 10
65.000000
 20
157.413041
 30
0.0
 10
65.263392
 20
158.048926
 30
0.0
 10
65.732233
 20
158.517767
 30
0.0
  0
SPLINE
  5
177
100
AcDbEntity
  8
Layer_1
 62
7
100
AcDbSpline
 70
8
 71
3
 72
8
 73
4
 74
0
 40
0
 40
0
 40
0
 40
0
 40
1
 40
1
 40
1
 40
1
 10
65.732233
 20
158.517767
 30
0.0
 10
66.201074
 20
158.986608
 30
0.0
 10
66.836959
 20
159.250000
 30
0.0
 10
67.500000
 20
159.250000
 30
0.0
  0
SPLINE
  5
178
100
AcDbEntity
  8
Layer_1
 62
7
100
AcDbSpline
 70
8
 71
3
 72
8
 73
4
 74
0
 40
0
 40
0
 40
0
 40
0
 40
1
 40
1
 40
1
 40
1
 10
67.500000
 20
159.250000
 30
0.0
 10
68.163041
 20
159.250000
 30
0.0
 10
68.798926
 20
158.986608
 30
0.0
 10
69.267767
 20
158.517767
 30
0.0
  0
SPLINE
  5
179
100
AcDbEntity
  8
Layer_1
 62
7
100
AcDbSpline
 70
8
 71
3
 72
8
 73
4
 74
0
 40
0
 40
0
 40
0
 40
0
 40
1
 40
1
 40
1
 40
1
 10
69.267767
 20
158.517767
 30
0.0
 10
69.736608
 20
158.048926
 30
0.0
 10
70.000000
 20
157.413041
 30
0.0
 10
70.000000
 20
156.750000
 30
0.0
  0
LINE
  5
17a
100
AcDbEntity
  8
Layer_1
 62
7
100
AcDbLine
 10
70.000000
 20
156.750000
 30
0.0
 11
70.000000
 21
156.750000
 31
0.0
  0
SPLINE
  5
17b
100
AcDbEntity
  8
Layer_1
 62
7
100
AcDbSpline
 70
8
 71
3
 72
8
 73
4
 74
0
 40
0
 40
0
 40
0
 40
0
 40
1
 40
1
 40
1
 40
1
 10
70.000000
 20
140.250000
 30
0.0
 10
70.000000
 20
139.586959
 30
0.0
 10
69.736608
 20
138.951074
 30
0.0
 10
69.267767
 20
138.482233
 30
0.0
  0
SPLINE
  5
17c
100
AcDbEntity
  8
Layer_1
 62
7
100
AcDbSpline
 70
8
 71
3
 72
8
 73
4
 74
0
 40
0
 40
0
 40
0
 40
0
 40
1
 40
1
 40
1
 40
1
 10
69.267767
 20
138.482233
 30
0.0
 10
68.798926
 20
138.013392
 30
0.0
 10
68.163041
 20
137.750000
 30
0.0
 10
67.500000
 20
137.750000
 30
0.0
  0
SPLINE
  5
17d
100
AcDbEntity
  8
Layer_1
 62
7
100
AcDbSpline
 70
8
 71
3
 72
8
 73
4
 74
0
 40
0
 40
0
 40
0
 40
0
 40
1
 40
1
 40
1
 40
1
 10
67.500000
 20
137.750000
 30
0.0
 10
66.836959
 20
137.750000
 30
0.0
 10
66.201074
 20
138.013392
 30
0.0
 10
65.732233
 20
138.482233
 30
0.0
  0
SPLINE
  5
17e
100
AcDbEntity
  8
Layer_1
 62
7
100
AcDbSpline
 70
8
 71
3
 72
8
 73
4
 74
0
 40
0
 40
0
 40
0
 40
0
 40
1
 40
1
 40
1
 40
1
 10
65.732233
 20
138.482233
 30
0.0
 10
65.263392
 20
138.951074
 30
0.0
 10
65.000000
 20
139.586959
 30
0.0
 10
65.000000
 20
140.250000
 30
0.0
  0
SPLINE
  5
17f
100
AcDbEntity
  8
Layer_1
 62
7
100
AcDbSpline
 70
8
 71
3
 72
8
 73
4
 74
0
 40
0
 40
0
 40
0
 40
0
 40
1
 40
1
 40
1
 40
1
 10
65.000000
 20
140.250000
 30
0.0
 10
65.000000
 20
140.913041
 30
0.0
 10
65.263392
 20
141.548926
 30
0.0
 10
65.732233
 20
142.017767
 30
0.0
  0
SPLINE
  5
180
100
AcDbEntity
  8
Layer_1
 62
7
100
AcDbSpline
 70
8
 71
3
 72
8
 73
4
 74
0
 40
0
 40
0
 40
0
 40
0
 40
1
 40
1
 40
1
 40
1
 10
65.732233
 20
142.017767
 30
0.0
 10
66.201074
 20
142.486608
 30
0.0
 10
66.836959
 20
142.750000
 30
0.0
 10
67.500000
 20
142.750000
 30
0.0
  0
SPLINE
  5
181
100
AcDbEntity
  8
Layer_1
 62
7
100
AcDbSpline
 70
8
 71
3
 72
8
 73
4
 74
0
 40
0
 40
0
 40
0
 40
0
 40
1
 40
1
 40
1
 40
1
 10
67.500000
 20
142.750000
 30
0.0
 10
68.163041
 20
142.750000
 30
0.0
 10
68.798926
 20
142.486608
 30
0.0
 10
69.267767
 20
142.017767
 30
0.0
  0
SPLINE
  5
182
100
AcDbEntity
  8
Layer_1
 62
7
100
AcDbSpline
 70
8
 71
3
 72
8
 73
4
 74
0
 40
0
 40
0
 40
0
 40
0
 40
1
 40
1
 40
1
 40
1
 10
69.267767
 20
142.017767
 30
0.0
 10
69.736608
 20
141.548926
 30
0.0
 10
70.000000
 20
140.913041
 30
0.0
 10
70.000000
 20
140.250000
 30
0.0
  0
LINE
  5
183
100
AcDbEntity
  8
Layer_1
 62
7
100
AcDbLine
 10
70.000000
 20
140.250000
 30
0.0
 11
70.000000
 21
140.250000
 31
0.0
  0
SPLINE
  5
184
100
AcDbEntity
  8
Layer_1
 62
7
100
AcDbSpline
 70
8
 71
3
 72
8
 73
4
 74
0
 40
0
 40
0
 40
0
 40
0
 40
1
 40
1
 40
1
 40
1
 10
70.000000
 20
123.750000
 30
0.0
 10
70.000000
 20
123.086959
 30
0.0
 10
69.736608
 20
122.451074
 30
0.0
 10
69.267767
 20
121.982233
 30
0.0
  0
SPLINE
  5
185
100
AcDbEntity
  8
Layer_1
 62
7
100
AcDbSpline
 70
8
 71
3
 72
8
 73
4
 74
0
 40
0
 40
0
 40
0
 40
0
 40
1
 40
1
 40
1
 40
1
 10
69.267767
 20
121.982233
 30
0.0
 10
68.798926
 20
121.513392
 30
0.0
 10
68.163041
 20
121.250000
 30
0.0
 10
67.500000
 20
121.250000
 30
0.0
  0
SPLINE
  5
186
100
AcDbEntity
  8
Layer_1
 62
7
100
AcDbSpline
 70
8
 71
3
 72
8
 73
4
 74
0
 40
0
 40
0
 40
0
 40
0
 40
1
 40
1
 40
1
 40
1
 10
67.500000
 20
121.250000
 30
0.0
 10
66.836959
 20
121.250000
 30
0.0
 10
66.201074
 20
121.513392
 30
0.0
 10
65.732233
 20
121.982233
 30
0.0
  0
SPLINE
  5
187
100
AcDbEntity
  8
Layer_1
 62
7
100
AcDbSpline
 70
8
 71
3
 72
8
 73
4
 74
0
 40
0
 40
0
 40
0
 40
0
 40
1
 40
1
 40
1
 40
1
 10
65.732233
 20
121.982233
 30
0.0
 10
65.263392
 20
122.451074
 30
0.0
 10
65.000000
 20
123.086959
 30
0.0
 10
65.000000
 20
123.750000
 30
0.0
  0
SPLINE
  5
188
100
AcDbEntity
  8
Layer_1
 62
7
100
AcDbSpline
 70
8
 71
3
 72
8
 73
4
 74
0
 40
0
 40
0
 40
0
 40
0
 40
1
 40
1
 40
1
 40
1
 10
65.000000
 20
123.750000
 30
0.0
 10
65.000000
 20
124.413041
 30
0.0
 10
65.263392
 20
125.048926
 30
0.0
 10
65.732233
 20
125.517767
 30
0.0
  0
SPLINE
  5
189
100
AcDbEntity
  8
Layer_1
 62
7
100
AcDbSpline
 70
8
 71
3
 72
8
 73
4
 74
0
 40
0
 40
0
 40
0
 40
0
 40
1
 40
1
 40
1
 40
1
 10
65.732233
 20
125.517767
 30
0.0
 10
66.201074
 20
125.986608
 30
0.0
 10
66.836959
 20
126.250000
 30
0.0
 10
67.500000
 20
126.250000
 30
0.0
  0
SPLINE
  5
18a
100
AcDbEntity
  8
Layer_1
 62
7
100
AcDbSpline
 70
8
 71
3
 72
8
 73
4
 74
0
 40
0
 40
0
 40
0
 40
0
 40
1
 40
1
 40
1
 40
1
 10
67.500000
 20
126.250000
 30
0.0
 10
68.163041
 20
126.250000
 30
0.0
 10
68.798926
 20
125.986608
 30
0.0
 10
69.267767
 20
125.517767
 30
0.0
  0
SPLINE
  5
18b
100
AcDbEntity
  8
Layer_1
 62
7
100
AcDbSpline
 70
8
 71
3
 72
8
 73
4
 74
0
 40
0
 40
0
 40
0
 40
0
 40
1
 40
1
 40
1
 40
1
 10
69.267767
 20
125.517767
 30
0.0
 10
69.736608
 20
125.048926
 30
0.0
 10
70.000000
 20
124.413041
 30
0.0
 10
70.000000
 20
123.750000
 30
0.0
  0
LINE
  5
18c
100
AcDbEntity
  8
Layer_1
 62
7
100
AcDbLine
 10
70.000000
 20
123.750000
 30
0.0
 11
70.000000
 21
123.750000
 31
0.0
  0
SPLINE
  5
18d
100
AcDbEntity
  8
Layer_1
 62
7
100
AcDbSpline
 70
8
 71
3
 72
8
 73
4
 74
0
 40
0
 40
0
 40
0
 40
0
 40
1
 40
1
 40
1
 40
1
 10
85.000000
 20
173.250000
 30
0.0
 10
85.000000
 20
172.586959
 30
0.0
 10
84.736608
 20
171.951074
 30
0.0
 10
84.267767
 20
171.482233
 30
0.0
  0
SPLINE
  5
18e
100
AcDbEntity
  8
Layer_1
 62
7
100
AcDbSpline
 70
8
 71
3
 72
8
 73
4
 74
0
 40
0
 40
0
 40
0
 40
0
 40
1
 40
1
 40
1
 40
1
 10
84.267767
 20
171.482233
 30
0.0
 10
83.798926
 20
171.013392
 30
0.0
 10
83.163041
 20
170.750000
 30
0.0
 10
82.500000
 20
170.750000
 30
0.0
  0
SPLINE
  5
18f
100
AcDbEntity
  8
Layer_1
 62
7
100
AcDbSpline
 70
8
 71
3
 72
8
 73
4
 74
0
 40
0
 40
0
 40
0
 40
0
 40
1
 40
1
 40
1
 40
1
 10
82.500000
 20
170.750000
 30
0.0
 10
81.836959
 20
170.750000
 30
0.0
 10
81.201074
 20
171.013392
 30
0.0
 10
80.732233
 20
171.482233
 30
0.0
  0
SPLINE
  5
190
100
AcDbEntity
  8
Layer_1
 62
7
100
AcDbSpline
 70
8
 71
3
 72
8
 73
4
 74
0
 40
0
 40
0
 40
0
 40
0
 40
1
 40
1
 40
1
 40
1
 10
80.732233
 20
171.482233
 30
0.0
 10
80.263392
 20
171.951074
 30
0.0
 10
80.000000
 20
172.586959
 30
0.0
 10
80.000000
 20
173.250000
 30
0.0
  0
SPLINE
  5
191
100
AcDbEntity
  8
Layer_1
 62
7
100
AcDbSpline
 70
8
 71
3
 72
8
 73
4
 74
0
 40
0
 40
0
 40
0
 40
0
 40
1
 40
1
 40
1
 40
1
 10
80.000000
 20
173.250000
 30
0.0
 10
80.000000
 20
173.913041
 30
0.0
 10
80.263392
 20
174.548926
 30
0.0
 10
80.732233
 20
175.017767
 30
0.0
  0
SPLINE
  5
192
100
AcDbEntity
  8
Layer_1
 62
7
100
AcDbSpline
 70
8
 71
3
 72
8
 73
4
 74
0
 40
0
 40
0
 40
0
 40
0
 40
1
 40
1
 40
1
 40
1
 10
80.732233
 20
175.017767
 30
0.0
 10
81.201074
 20
175.486608
 30
0.0
 10
81.836959
 20
175.750000
 30
0.0
 10
82.500000
 20
175.750000
 30
0.0
  0
SPLINE
  5
193
100
AcDbEntity
  8
Layer_1
 62
7
100
AcDbSpline
 70
8
 71
3
 72
8
 73
4
 74
0
 40
0
 40
0
 40
0
 40
0
 40
1
 40
1
 40
1
 40
1
 10
82.500000
 20
175.750000
 30
0.0
 10
83.163041
 20
175.750000
 30
0.0
 10
83.798926
 20
175.486608
 30
0.0
 10
84.267767
 20
175.017767
 30
0.0
  0
SPLINE
  5
194
100
AcDbEntity
  8
Layer_1
 62
7
100
AcDbSpline
 70
8
 71
3
 72
8
 73
4
 74
0
 40
0
 40
0
 40
0
 40
0
 40
1
 40
1
 40
1
 40
1
 10
84.267767
 20
175.017767
 30
0.0
 10
84.736608
 20
174.548926
 30
0.0
 10
85.000000
 20
173.913041
 30
0.0
 10
85.000000
 20
173.250000
 30
0.0
  0
LINE
  5
195
100
AcDbEntity
  8
Layer_1
 62
7
100
AcDbLine
 10
85.000000
 20
173.250000
 30
0.0
 11
85.000000
 21
173.250000
 31
0.0
  0
SPLINE
  5
196
100
AcDbEntity
  8
Layer_1
 62
7
100
AcDbSpline
 70
8
 71
3
 72
8
 73
4
 74
0
 40
0
 40
0
 40
0
 40
0
 40
1
 40
1
 40
1
 40
1
 10
85.000000
 20
156.750000
 30
0.0
 10
85.000000
 20
156.086959
 30
0.0
 10
84.736608
 20
155.451074
 30
0.0
 10
84.267767
 20
154.982233
 30
0.0
  0
SPLINE
  5
197
100
AcDbEntity
  8
Layer_1
 62
7
100
AcDbSpline
 70
8
 71
3
 72
8
 73
4
 74
0
 40
0
 40
0
 40
0
 40
0
 40
1
 40
1
 40
1
 40
1
 10
84.267767
 20
154.982233
 30
0.0
 10
83.798926
 20
154.513392
 30
0.0
 10
83.163041
 20
154.250000
 30
0.0
 10
82.500000
 20
154.250000
 30
0.0
  0
SPLINE
  5
198
100
AcDbEntity
  8
Layer_1
 62
7
100
AcDbSpline
 70
8
 71
3
 72
8
 73
4
 74
0
 40
0
 40
0
 40
0
 40
0
 40
1
 40
1
 40
1
 40
1
 10
82.500000
 20
154.250000
 30
0.0
 10
81.836959
 20
154.250000
 30
0.0
 10
81.201074
 20
154.513392
 30
0.0
 10
80.732233
 20
154.982233
 30
0.0
  0
SPLINE
  5
199
100
AcDbEntity
  8
Layer_1
 62
7
100
AcDbSpline
 70
8
 71
3
 72
8
 73
4
 74
0
 40
0
 40
0
 40
0
 40
0
 40
1
 40
1
 40
1
 40
1
 10
80.732233
 20
154.982233
 30
0.0
 10
80.263392
 20
155.451074
 30
0.0
 10
80.000000
 20
156.086959
 30
0.0
 10
80.000000
 20
156.750000
 30
0.0
  0
SPLINE
  5
19a
100
AcDbEntity
  8
Layer_1
 62
7
100
AcDbSpline
 70
8
 71
3
 72
8
 73
4
 74
0
 40
0
 40
0
 40
0
 40
0
 40
1
 40
1
 40
1
 40
1
 10
80.000000
 20
156.750000
 30
0.0
 10
80.000000
 20
157.413041
 30
0.0
 10
80.263392
 20
158.048926
 30
0.0
 10
80.732233
 20
158.517767
 30
0.0
  0
SPLINE
  5
19b
100
AcDbEntity
  8
Layer_1
 62
7
100
AcDbSpline
 70
8
 71
3
 72
8
 73
4
 74
0
 40
0
 40
0
 40
0
 40
0
 40
1
 40
1
 40
1
 40
1
 10
80.732233
 20
158.517767
 30
0.0
 10
81.201074
 20
158.986608
 30
0.0
 10
81.836959
 20
159.250000
 30
0.0
 10
82.500000
 20
159.250000
 30
0.0
  0
SPLINE
  5
19c
100
AcDbEntity
  8
Layer_1
 62
7
100
AcDbSpline
 70
8
 71
3
 72
8
 73
4
 74
0
 40
0
 40
0
 40
0
 40
0
 40
1
 40
1
 40
1
 40
1
 10
82.500000
 20
159.250000
 30
0.0
 10
83.163041
 20
159.250000
 30
0.0
 10
83.798926
 20
158.986608
 30
0.0
 10
84.267767
 20
158.517767
 30
0.0
  0
SPLINE
  5
19d
100
AcDbEntity
  8
Layer_1
 62
7
100
AcDbSpline
 70
8
 71
3
 72
8
 73
4
 74
0
 40
0
 40
0
 40
0
 40
0
 40
1
 40
1
 40
1
 40
1
 10
84.267767
 20
158.517767
 30
0.0
 10
84.736608
 20
158.048926
 30
0.0
 10
85.000000
 20
157.413041
 30
0.0
 10
85.000000
 20
156.750000
 30
0.0
  0
LINE
  5
19e
100
AcDbEntity
  8
Layer_1
 62
7
100
AcDbLine
 10
85.000000
 20
156.750000
 30
0.0
 11
85.000000
 21
156.750000
 31
0.0
  0
SPLINE
  5
19f
100
AcDbEntity
  8
Layer_1
 62
7
100
AcDbSpline
 70
8
 71
3
 72
8
 73
4
 74
0
 40
0
 40
0
 40
0
 40
0
 40
1
 40
1
 40
1
 40
1
 10
85.000000
 20
140.250000
 30
0.0
 10
85.000000
 20
139.586959
 30
0.0
 10
84.736608
 20
138.951074
 30
0.0
 10
84.267767
 20
138.482233
 30
0.0
  0
SPLINE
  5
1a0
100
AcDbEntity
  8
Layer_1
 62
7
100
AcDbSpline
 70
8
 71
3
 72
8
 73
4
 74
0
 40
0
 40
0
 40
0
 40
0
 40
1
 40
1
 40
1
 40
1
 10
84.267767
 20
138.482233
 30
0.0
 10
83.798926
 20
138.013392
 30
0.0
 10
83.163041
 20
137.750000
 30
0.0
 10
82.500000
 20
137.750000
 30
0.0
  0
SPLINE
  5
1a1
100
AcDbEntity
  8
Layer_1
 62
7
100
AcDbSpline
 70
8
 71
3
 72
8
 73
4
 74
0
 40
0
 40
0
 40
0
 40
0
 40
1
 40
1
 40
1
 40
1
 10
82.500000
 20
137.750000
 30
0.0
 10
81.836959
 20
137.750000
 30
0.0
 10
81.201074
 20
138.013392
 30
0.0
 10
80.732233
 20
138.482233
 30
0.0
  0
SPLINE
  5
1a2
100
AcDbEntity
  8
Layer_1
 62
7
100
AcDbSpline
 70
8
 71
3
 72
8
 73
4
 74
0
 40
0
 40
0
 40
0
 40
0
 40
1
 40
1
 40
1
 40
1
 10
80.732233
 20
138.482233
 30
0.0
 10
80.263392
 20
138.951074
 30
0.0
 10
80.000000
 20
139.586959
 30
0.0
 10
80.000000
 20
140.250000
 30
0.0
  0
SPLINE
  5
1a3
100
AcDbEntity
  8
Layer_1
 62
7
100
AcDbSpline
 70
8
 71
3
 72
8
 73
4
 74
0
 40
0
 40
0
 40
0
 40
0
 40
1
 40
1
 40
1
 40
1
 10
80.000000
 20
140.250000
 30
0.0
 10
80.000000
 20
140.913041
 30
0.0
 10
80.263392
 20
141.548926
 30
0.0
 10
80.732233
 20
142.017767
 30
0.0
  0
SPLINE
  5
1a4
100
AcDbEntity
  8
Layer_1
 62
7
100
AcDbSpline
 70
8
 71
3
 72
8
 73
4
 74
0
 40
0
 40
0
 40
0
 40
0
 40
1
 40
1
 40
1
 40
1
 10
80.732233
 20
142.017767
 30
0.0
 10
81.201074
 20
142.486608
 30
0.0
 10
81.836959
 20
142.750000
 30
0.0
 10
82.500000
 20
142.750000
 30
0.0
  0
SPLINE
  5
1a5
100
AcDbEntity
  8
Layer_1
 62
7
100
AcDbSpline
 70
8
 71
3
 72
8
 73
4
 74
0
 40
0
 40
0
 40
0
 40
0
 40
1
 40
1
 40
1
 40
1
 10
82.500000
 20
142.750000
 30
0.0
 10
83.163041
 20
142.750000
 30
0.0
 10
83.798926
 20
142.486608
 30
0.0
 10
84.267767
 20
142.017767
 30
0.0
  0
SPLINE
  5
1a6
100
AcDbEntity
  8
Layer_1
 62
7
100
AcDbSpline
 70
8
 71
3
 72
8
 73
4
 74
0
 40
0
 40
0
 40
0
 40
0
 40
1
 40
1
 40
1
 40
1
 10
84.267767
 20
142.017767
 30
0.0
 10
84.736608
 20
141.548926
 30
0.0
 10
85.000000
 20
140.913041
 30
0.0
 10
85.000000
 20
140.250000
 30
0.0
  0
LINE
  5
1a7
100
AcDbEntity
  8
Layer_1
 62
7
100
AcDbLine
 10
85.000000
 20
140.250000
 30
0.0
 11
85.000000
 21
140.250000
 31
0.0
  0
SPLINE
  5
1a8
100
AcDbEntity
  8
Layer_1
 62
7
100
AcDbSpline
 70
8
 71
3
 72
8
 73
4
 74
0
 40
0
 40
0
 40
0
 40
0
 40
1
 40
1
 40
1
 40
1
 10
85.000000
 20
123.750000
 30
0.0
 10
85.000000
 20
123.086959
 30
0.0
 10
84.736608
 20
122.451074
 30
0.0
 10
84.267767
 20
121.982233
 30
0.0
  0
SPLINE
  5
1a9
100
AcDbEntity
  8
Layer_1
 62
7
100
AcDbSpline
 70
8
 71
3
 72
8
 73
4
 74
0
 40
0
 40
0
 40
0
 40
0
 40
1
 40
1
 40
1
 40
1
 10
84.267767
 20
121.982233
 30
0.0
 10
83.798926
 20
121.513392
 30
0.0
 10
83.163041
 20
121.250000
 30
0.0
 10
82.500000
 20
121.250000
 30
0.0
  0
SPLINE
  5
1aa
100
AcDbEntity
  8
Layer_1
 62
7
100
AcDbSpline
 70
8
 71
3
 72
8
 73
4
 74
0
 40
0
 40
0
 40
0
 40
0
 40
1
 40
1
 40
1
 40
1
 10
82.500000
 20
121.250000
 30
0.0
 10
81.836959
 20
121.250000
 30
0.0
 10
81.201074
 20
121.513392
 30
0.0
 10
80.732233
 20
121.982233
 30
0.0
  0
SPLINE
  5
1ab
100
AcDbEntity
  8
Layer_1
 62
7
100
AcDbSpline
 70
8
 71
3
 72
8
 73
4
 74
0
 40
0
 40
0
 40
0
 40
0
 40
1
 40
1
 40
1
 40
1
 10
80.732233
 20
121.982233
 30
0.0
 10
80.263392
 20
122.451074
 30
0.0
 10
80.000000
 20
123.086959
 30
0.0
 10
80.000000
 20
123.750000
 30
0.0
  0
SPLINE
  5
1ac
100
AcDbEntity
  8
Layer_1
 62
7
100
AcDbSpline
 70
8
 71
3
 72
8
 73
4
 74
0
 40
0
 40
0
 40
0
 40
0
 40
1
 40
1
 40
1
 40
1
 10
80.000000
 20
123.750000
 30
0.0
 10
80.000000
 20
124.413041
 30
0.0
 10
80.263392
 20
125.048926
 30
0.0
 10
80.732233
 20
125.517767
 30
0.0
  0
SPLINE
  5
1ad
100
AcDbEntity
  8
Layer_1
 62
7
100
AcDbSpline
 70
8
 71
3
 72
8
 73
4
 74
0
 40
0
 40
0
 40
0
 40
0
 40
1
 40
1
 40
1
 40
1
 10
80.732233
 20
125.517767
 30
0.0
 10
81.201074
 20
125.986608
 30
0.0
 10
81.836959
 20
126.250000
 30
0.0
 10
82.500000
 20
126.250000
 30
0.0
  0
SPLINE
  5
1ae
100
AcDbEntity
  8
Layer_1
 62
7
100
AcDbSpline
 70
8
 71
3
 72
8
 73
4
 74
0
 40
0
 40
0
 40
0
 40
0
 40
1
 40
1
 40
1
 40
1
 10
82.500000
 20
126.250000
 30
0.0
 10
83.163041
 20
126.250000
 30
0.0
 10
83.798926
 20
125.986608
 30
0.0
 10
84.267767
 20
125.517767
 30
0.0
  0
SPLINE
  5
1af
100
AcDbEntity
  8
Layer_1
 62
7
100
AcDbSpline
 70
8
 71
3
 72
8
 73
4
 74
0
 40
0
 40
0
 40
0
 40
0
 40
1
 40
1
 40
1
 40
1
 10
84.267767
 20
125.517767
 30
0.0
 10
84.736608
 20
125.048926
 30
0.0
 10
85.000000
 20
124.413041
 30
0.0
 10
85.000000
 20
123.750000
 30
0.0
  0
LINE
  5
1b0
100
AcDbEntity
  8
Layer_1
 62
7
100
AcDbLine
 10
85.000000
 20
123.750000
 30
0.0
 11
85.000000
 21
123.750000
 31
0.0
  0
SPLINE
  5
1b1
100
AcDbEntity
  8
Layer_1
 62
7
100
AcDbSpline
 70
8
 71
3
 72
8
 73
4
 74
0
 40
0
 40
0
 40
0
 40
0
 40
1
 40
1
 40
1
 40
1
 10
100.000000
 20
173.250000
 30
0.0
 10
100.000000
 20
172.586959
 30
0.0
 10
99.736608
 20
171.951074
 30
0.0
 10
99.267767
 20
171.482233
 30
0.0
  0
SPLINE
  5
1b2
100
AcDbEntity
  8
Layer_1
 62
7
100
AcDbSpline
 70
8
 71
3
 72
8
 73
4
 74
0
 40
0
 40
0
 40
0
 40
0
 40
1
 40
1
 40
1
 40
1
 10
99.267767
 20
171.482233
 30
0.0
 10
98.798926
 20
171.013392
 30
0.0
 10
98.163041
 20
170.750000
 30
0.0
 10
97.500000
 20
170.750000
 30
0.0
  0
SPLINE
  5
1b3
100
AcDbEntity
  8
Layer_1
 62
7
100
AcDbSpline
 70
8
 71
3
 72
8
 73
4
 74
0
 40
0
 40
0
 40
0
 40
0
 40
1
 40
1
 40
1
 40
1
 10
97.500000
 20
170.750000
 30
0.0
 10
96.836959
 20
170.750000
 30
0.0
 10
96.201074
 20
171.013392
 30
0.0
 10
95.732233
 20
171.482233
 30
0.0
  0
SPLINE
  5
1b4
100
AcDbEntity
  8
Layer_1
 62
7
100
AcDbSpline
 70
8
 71
3
 72
8
 73
4
 74
0
 40
0
 40
0
 40
0
 40
0
 40
1
 40
1
 40
1
 40
1
 10
95.732233
 20
171.482233
 30
0.0
 10
95.263392
 20
171.951074
 30
0.0
 10
95.000000
 20
172.586959
 30
0.0
 10
95.000000
 20
173.250000
 30
0.0
  0
SPLINE
  5
1b5
100
AcDbEntity
  8
Layer_1
 62
7
100
AcDbSpline
 70
8
 71
3
 72
8
 73
4
 74
0
 40
0
 40
0
 40
0
 40
0
 40
1
 40
1
 40
1
 40
1
 10
95.000000
 20
173.250000
 30
0.0
 10
95.000000
 20
173.913041
 30
0.0
 10
95.263392
 20
174.548926
 30
0.0
 10
95.732233
 20
175.017767
 30
0.0
  0
SPLINE
  5
1b6
100
AcDbEntity
  8
Layer_1
 62
7
100
AcDbSpline
 70
8
 71
3
 72
8
 73
4
 74
0
 40
0
 40
0
 40
0
 40
0
 40
1
 40
1
 40
1
 40
1
 10
95.732233
 20
175.017767
 30
0.0
 10
96.201074
 20
175.486608
 30
0.0
 10
96.836959
 20
175.750000
 30
0.0
 10
97.500000
 20
175.750000
 30
0.0
  0
SPLINE
  5
1b7
100
AcDbEntity
  8
Layer_1
 62
7
100
AcDbSpline
 70
8
 71
3
 72
8
 73
4
 74
0
 40
0
 40
0
 40
0
 40
0
 40
1
 40
1
 40
1
 40
1
 10
97.500000
 20
175.750000
 30
0.0
 10
98.163041
 20
175.750000
 30
0.0
 10
98.798926
 20
175.486608
 30
0.0
 10
99.267767
 20
175.017767
 30
0.0
  0
SPLINE
  5
1b8
100
AcDbEntity
  8
Layer_1
 62
7
100
AcDbSpline
 70
8
 71
3
 72
8
 73
4
 74
0
 40
0
 40
0
 40
0
 40
0
 40
1
 40
1
 40
1
 40
1
 10
99.267767
 20
175.017767
 30
0.0
 10
99.736608
 20
174.548926
 30
0.0
 10
100.000000
 20
173.913041
 30
0.0
 10
100.000000
 20
173.250000
 30
0.0
  0
LINE
  5
1b9
100
AcDbEntity
  8
Layer_1
 62
7
100
AcDbLine
 10
100.000000
 20
173.250000
 30
0.0
 11
100.000000
 21
173.250000
 31
0.0
  0
SPLINE
  5
1ba
100
AcDbEntity
  8
Layer_1
 62
7
100
AcDbSpline
 70
8
 71
3
 72
8
 73
4
 74
0
 40
0
 40
0
 40
0
 40
0
 40
1
 40
1
 40
1
 40
1
 10
100.000000
 20
156.750000
 30
0.0
 10
100.000000
 20
156.086959
 30
0.0
 10
99.736608
 20
155.451074
 30
0.0
 10
99.267767
 20
154.982233
 30
0.0
  0
SPLINE
  5
1bb
100
AcDbEntity
  8
Layer_1
 62
7
100
AcDbSpline
 70
8
 71
3
 72
8
 73
4
 74
0
 40
0
 40
0
 40
0
 40
0
 40
1
 40
1
 40
1
 40
1
 10
99.267767
 20
154.982233
 30
0.0
 10
98.798926
 20
154.513392
 30
0.0
 10
98.163041
 20
154.250000
 30
0.0
 10
97.500000
 20
154.250000
 30
0.0
  0
SPLINE
  5
1bc
100
AcDbEntity
  8
Layer_1
 62
7
100
AcDbSpline
 70
8
 71
3
 72
8
 73
4
 74
0
 40
0
 40
0
 40
0
 40
0
 40
1
 40
1
 40
1
 40
1
 10
97.500000
 20
154.250000
 30
0.0
 10
96.836959
 20
154.250000
 30
0.0
 10
96.201074
 20
154.513392
 30
0.0
 10
95.732233
 20
154.982233
 30
0.0
  0
SPLINE
  5
1bd
100
AcDbEntity
  8
Layer_1
 62
7
100
AcDbSpline
 70
8
 71
3
 72
8
 73
4
 74
0
 40
0
 40
0
 40
0
 40
0
 40
1
 40
1
 40
1
 40
1
 10
95.732233
 20
154.982233
 30
0.0
 10
95.263392
 20
155.451074
 30
0.0
 10
95.000000
 20
156.086959
 30
0.0
 10
95.000000
 20
156.750000
 30
0.0
  0
SPLINE
  5
1be
100
AcDbEntity
  8
Layer_1
 62
7
100
AcDbSpline
 70
8
 71
3
 72
8
 73
4
 74
0
 40
0
 40
0
 40
0
 40
0
 40
1
 40
1
 40
1
 40
1
 10
95.000000
 20
156.750000
 30
0.0
 10
95.000000
 20
157.413041
 30
0.0
 10
95.263392
 20
158.048926
 30
0.0
 10
95.732233
 20
158.517767
 30
0.0
  0
SPLINE
  5
1bf
100
AcDbEntity
  8
Layer_1
 62
7
100
AcDbSpline
 70
8
 71
3
 72
8
 73
4
 74
0
 40
0
 40
0
 40
0
 40
0
 40
1
 40
1
 40
1
 40
1
 10
95.732233
 20
158.517767
 30
0.0
 10
96.201074
 20
158.986608
 30
0.0
 10
96.836959
 20
159.250000
 30
0.0
 10
97.500000
 20
159.250000
 30
0.0
  0
SPLINE
  5
1c0
100
AcDbEntity
  8
Layer_1
 62
7
100
AcDbSpline
 70
8
 71
3
 72
8
 73
4
 74
0
 40
0
 40
0
 40
0
 40
0
 40
1
 40
1
 40
1
 40
1
 10
97.500000
 20
159.250000
 30
0.0
 10
98.163041
 20
159.250000
 30
0.0
 10
98.798926
 20
158.986608
 30
0.0
 10
99.267767
 20
158.517767
 30
0.0
  0
SPLINE
  5
1c1
100
AcDbEntity
  8
Layer_1
 62
7
100
AcDbSpline
 70
8
 71
3
 72
8
 73
4
 74
0
 40
0
 40
0
 40
0
 40
0
 40
1
 40
1
 40
1
 40
1
 10
99.267767
 20
158.517767
 30
0.0
 10
99.736608
 20
158.048926
 30
0.0
 10
100.000000
 20
157.413041
 30
0.0
 10
100.000000
 20
156.750000
 30
0.0
  0
LINE
  5
1c2
100
AcDbEntity
  8
Layer_1
 62
7
100
AcDbLine
 10
100.000000
 20
156.750000
 30
0.0
 11
100.000000
 21
156.750000
 31
0.0
  0
SPLINE
  5
1c3
100
AcDbEntity
  8
Layer_1
 62
7
100
AcDbSpline
 70
8
 71
3
 72
8
 73
4
 74
0
 40
0
 40
0
 40
0
 40
0
 40
1
 40
1
 40
1
 40
1
 10
100.000000
 20
140.250000
 30
0.0
 10
100.000000
 20
139.586959
 30
0.0
 10
99.736608
 20
138.951074
 30
0.0
 10
99.267767
 20
138.482233
 30
0.0
  0
SPLINE
  5
1c4
100
AcDbEntity
  8
Layer_1
 62
7
100
AcDbSpline
 70
8
 71
3
 72
8
 73
4
 74
0
 40
0
 40
0
 40
0
 40
0
 40
1
 40
1
 40
1
 40
1
 10
99.267767
 20
138.482233
 30
0.0
 10
98.798926
 20
138.013392
 30
0.0
 10
98.163041
 20
137.750000
 30
0.0
 10
97.500000
 20
137.750000
 30
0.0
  0
SPLINE
  5
1c5
100
AcDbEntity
  8
Layer_1
 62
7
100
AcDbSpline
 70
8
 71
3
 72
8
 73
4
 74
0
 40
0
 40
0
 40
0
 40
0
 40
1
 40
1
 40
1
 40
1
 10
97.500000
 20
137.750000
 30
0.0
 10
96.836959
 20
137.750000
 30
0.0
 10
96.201074
 20
138.013392
 30
0.0
 10
95.732233
 20
138.482233
 30
0.0
  0
SPLINE
  5
1c6
100
AcDbEntity
  8
Layer_1
 62
7
100
AcDbSpline
 70
8
 71
3
 72
8
 73
4
 74
0
 40
0
 40
0
 40
0
 40
0
 40
1
 40
1
 40
1
 40
1
 10
95.732233
 20
138.482233
 30
0.0
 10
95.263392
 20
138.951074
 30
0.0
 10
95.000000
 20
139.586959
 30
0.0
 10
95.000000
 20
140.250000
 30
0.0
  0
SPLINE
  5
1c7
100
AcDbEntity
  8
Layer_1
 62
7
100
AcDbSpline
 70
8
 71
3
 72
8
 73
4
 74
0
 40
0
 40
0
 40
0
 40
0
 40
1
 40
1
 40
1
 40
1
 10
95.000000
 20
140.250000
 30
0.0
 10
95.000000
 20
140.913041
 30
0.0
 10
95.263392
 20
141.548926
 30
0.0
 10
95.732233
 20
142.017767
 30
0.0
  0
SPLINE
  5
1c8
100
AcDbEntity
  8
Layer_1
 62
7
100
AcDbSpline
 70
8
 71
3
 72
8
 73
4
 74
0
 40
0
 40
0
 40
0
 40
0
 40
1
 40
1
 40
1
 40
1
 10
95.732233
 20
142.017767
 30
0.0
 10
96.201074
 20
142.486608
 30
0.0
 10
96.836959
 20
142.750000
 30
0.0
 10
97.500000
 20
142.750000
 30
0.0
  0
SPLINE
  5
1c9
100
AcDbEntity
  8
Layer_1
 62
7
100
AcDbSpline
 70
8
 71
3
 72
8
 73
4
 74
0
 40
0
 40
0
 40
0
 40
0
 40
1
 40
1
 40
1
 40
1
 10
97.500000
 20
142.750000
 30
0.0
 10
98.163041
 20
142.750000
 30
0.0
 10
98.798926
 20
142.486608
 30
0.0
 10
99.267767
 20
142.017767
 30
0.0
  0
SPLINE
  5
1ca
100
AcDbEntity
  8
Layer_1
 62
7
100
AcDbSpline
 70
8
 71
3
 72
8
 73
4
 74
0
 40
0
 40
0
 40
0
 40
0
 40
1
 40
1
 40
1
 40
1
 10
99.267767
 20
142.017767
 30
0.0
 10
99.736608
 20
141.548926
 30
0.0
 10
100.000000
 20
140.913041
 30
0.0
 10
100.000000
 20
140.250000
 30
0.0
  0
LINE
  5
1cb
100
AcDbEntity
  8
Layer_1
 62
7
100
AcDbLine
 10
100.000000
 20
140.250000
 30
0.0
 11
100.000000
 21
140.250000
 31
0.0
  0
SPLINE
  5
1cc
100
AcDbEntity
  8
Layer_1
 62
7
100
AcDbSpline
 70
8
 71
3
 72
8
 73
4
 74
0
 40
0
 40
0
 40
0
 40
0
 40
1
 40
1
 40
1
 40
1
 10
100.000000
 20
123.750000
 30
0.0
 10
100.000000
 20
123.086959
 30
0.0
 10
99.736608
 20
122.451074
 30
0.0
 10
99.267767
 20
121.982233
 30
0.0
  0
SPLINE
  5
1cd
100
AcDbEntity
  8
Layer_1
 62
7
100
AcDbSpline
 70
8
 71
3
 72
8
 73
4
 74
0
 40
0
 40
0
 40
0
 40
0
 40
1
 40
1
 40
1
 40
1
 10
99.267767
 20
121.982233
 30
0.0
 10
98.798926
 20
121.513392
 30
0.0
 10
98.163041
 20
121.250000
 30
0.0
 10
97.500000
 20
121.250000
 30
0.0
  0
SPLINE
  5
1ce
100
AcDbEntity
  8
Layer_1
 62
7
100
AcDbSpline
 70
8
 71
3
 72
8
 73
4
 74
0
 40
0
 40
0
 40
0
 40
0
 40
1
 40
1
 40
1
 40
1
 10
97.500000
 20
121.250000
 30
0.0
 10
96.836959
 20
121.250000
 30
0.0
 10
96.201074
 20
121.513392
 30
0.0
 10
95.732233
 20
121.982233
 30
0.0
  0
SPLINE
  5
1cf
100
AcDbEntity
  8
Layer_1
 62
7
100
AcDbSpline
 70
8
 71
3
 72
8
 73
4
 74
0
 40
0
 40
0
 40
0
 40
0
 40
1
 40
1
 40
1
 40
1
 10
95.732233
 20
121.982233
 30
0.0
 10
95.263392
 20
122.451074
 30
0.0
 10
95.000000
 20
123.086959
 30
0.0
 10
95.000000
 20
123.750000
 30
0.0
  0
SPLINE
  5
1d0
100
AcDbEntity
  8
Layer_1
 62
7
100
AcDbSpline
 70
8
 71
3
 72
8
 73
4
 74
0
 40
0
 40
0
 40
0
 40
0
 40
1
 40
1
 40
1
 40
1
 10
95.000000
 20
123.750000
 30
0.0
 10
95.000000
 20
124.413041
 30
0.0
 10
95.263392
 20
125.048926
 30
0.0
 10
95.732233
 20
125.517767
 30
0.0
  0
SPLINE
  5
1d1
100
AcDbEntity
  8
Layer_1
 62
7
100
AcDbSpline
 70
8
 71
3
 72
8
 73
4
 74
0
 40
0
 40
0
 40
0
 40
0
 40
1
 40
1
 40
1
 40
1
 10
95.732233
 20
125.517767
 30
0.0
 10
96.201074
 20
125.986608
 30
0.0
 10
96.836959
 20
126.250000
 30
0.0
 10
97.500000
 20
126.250000
 30
0.0
  0
SPLINE
  5
1d2
100
AcDbEntity
  8
Layer_1
 62
7
100
AcDbSpline
 70
8
 71
3
 72
8
 73
4
 74
0
 40
0
 40
0
 40
0
 40
0
 40
1
 40
1
 40
1
 40
1
 10
97.500000
 20
126.250000
 30
0.0
 10
98.163041
 20
126.250000
 30
0.0
 10
98.798926
 20
125.986608
 30
0.0
 10
99.267767
 20
125.517767
 30
0.0
  0
SPLINE
  5
1d3
100
AcDbEntity
  8
Layer_1
 62
7
100
AcDbSpline
 70
8
 71
3
 72
8
 73
4
 74
0
 40
0
 40
0
 40
0
 40
0
 40
1
 40
1
 40
1
 40
1
 10
99.267767
 20
125.517767
 30
0.0
 10
99.736608
 20
125.048926
 30
0.0
 10
100.000000
 20
124.413041
 30
0.0
 10
100.000000
 20
123.750000
 30
0.0
  0
LINE
  5
1d4
100
AcDbEntity
  8
Layer_1
 62
7
100
AcDbLine
 10
100.000000
 20
123.750000
 30
0.0
 11
100.000000
 21
123.750000
 31
0.0
  0
SPLINE
  5
1d5
100
AcDbEntity
  8
Layer_1
 62
7
100
AcDbSpline
 70
8
 71
3
 72
8
 73
4
 74
0
 40
0
 40
0
 40
0
 40
0
 40
1
 40
1
 40
1
 40
1
 10
115.000000
 20
173.250000
 30
0.0
 10
115.000000
 20
172.586959
 30
0.0
 10
114.736608
 20
171.951074
 30
0.0
 10
114.267767
 20
171.482233
 30
0.0
  0
SPLINE
  5
1d6
100
AcDbEntity
  8
Layer_1
 62
7
100
AcDbSpline
 70
8
 71
3
 72
8
 73
4
 74
0
 40
0
 40
0
 40
0
 40
0
 40
1
 40
1
 40
1
 40
1
 10
114.267767
 20
171.482233
 30
0.0
 10
113.798926
 20
171.013392
 30
0.0
 10
113.163041
 20
170.750000
 30
0.0
 10
112.500000
 20
170.750000
 30
0.0
  0
SPLINE
  5
1d7
100
AcDbEntity
  8
Layer_1
 62
7
100
AcDbSpline
 70
8
 71
3
 72
8
 73
4
 74
0
 40
0
 40
0
 40
0
 40
0
 40
1
 40
1
 40
1
 40
1
 10
112.500000
 20
170.750000
 30
0.0
 10
111.836959
 20
170.750000
 30
0.0
 10
111.201074
 20
171.013392
 30
0.0
 10
110.732233
 20
171.482233
 30
0.0
  0
SPLINE
  5
1d8
100
AcDbEntity
  8
Layer_1
 62
7
100
AcDbSpline
 70
8
 71
3
 72
8
 73
4
 74
0
 40
0
 40
0
 40
0
 40
0
 40
1
 40
1
 40
1
 40
1
 10
110.732233
 20
171.482233
 30
0.0
 10
110.263392
 20
171.951074
 30
0.0
 10
110.000000
 20
172.586959
 30
0.0
 10
110.000000
 20
173.250000
 30
0.0
  0
SPLINE
  5
1d9
100
AcDbEntity
  8
Layer_1
 62
7
100
AcDbSpline
 70
8
 71
3
 72
8
 73
4
 74
0
 40
0
 40
0
 40
0
 40
0
 40
1
 40
1
 40
1
 40
1
 10
110.000000
 20
173.250000
 30
0.0
 10
110.000000
 20
173.913041
 30
0.0
 10
110.263392
 20
174.548926
 30
0.0
 10
110.732233
 20
175.017767
 30
0.0
  0
SPLINE
  5
1da
100
AcDbEntity
  8
Layer_1
 62
7
100
AcDbSpline
 70
8
 71
3
 72
8
 73
4
 74
0
 40
0
 40
0
 40
0
 40
0
 40
1
 40
1
 40
1
 40
1
 10
110.732233
 20
175.017767
 30
0.0
 10
111.201074
 20
175.486608
 30
0.0
 10
111.836959
 20
175.750000
 30
0.0
 10
112.500000
 20
175.750000
 30
0.0
  0
SPLINE
  5
1db
100
AcDbEntity
  8
Layer_1
 62
7
100
AcDbSpline
 70
8
 71
3
 72
8
 73
4
 74
0
 40
0
 40
0
 40
0
 40
0
 40
1
 40
1
 40
1
 40
1
 10
112.500000
 20
175.750000
 30
0.0
 10
113.163041
 20
175.750000
 30
0.0
 10
113.798926
 20
175.486608
 30
0.0
 10
114.267767
 20
175.017767
 30
0.0
  0
SPLINE
  5
1dc
100
AcDbEntity
  8
Layer_1
 62
7
100
AcDbSpline
 70
8
 71
3
 72
8
 73
4
 74
0
 40
0
 40
0
 40
0
 40
0
 40
1
 40
1
 40
1
 40
1
 10
114.267767
 20
175.017767
 30
0.0
 10
114.736608
 20
174.548926
 30
0.0
 10
115.000000
 20
173.913041
 30
0.0
 10
115.000000
 20
173.250000
 30
0.0
  0
LINE
  5
1dd
100
AcDbEntity
  8
Layer_1
 62
7
100
AcDbLine
 10
115.000000
 20
173.250000
 30
0.0
 11
115.000000
 21
173.250000
 31
0.0
  0
SPLINE
  5
1de
100
AcDbEntity
  8
Layer_1
 62
7
100
AcDbSpline
 70
8
 71
3
 72
8
 73
4
 74
0
 40
0
 40
0
 40
0
 40
0
 40
1
 40
1
 40
1
 40
1
 10
115.000000
 20
156.750000
 30
0.0
 10
115.000000
 20
156.086959
 30
0.0
 10
114.736608
 20
155.451074
 30
0.0
 10
114.267767
 20
154.982233
 30
0.0
  0
SPLINE
  5
1df
100
AcDbEntity
  8
Layer_1
 62
7
100
AcDbSpline
 70
8
 71
3
 72
8
 73
4
 74
0
 40
0
 40
0
 40
0
 40
0
 40
1
 40
1
 40
1
 40
1
 10
114.267767
 20
154.982233
 30
0.0
 10
113.798926
 20
154.513392
 30
0.0
 10
113.163041
 20
154.250000
 30
0.0
 10
112.500000
 20
154.250000
 30
0.0
  0
SPLINE
  5
1e0
100
AcDbEntity
  8
Layer_1
 62
7
100
AcDbSpline
 70
8
 71
3
 72
8
 73
4
 74
0
 40
0
 40
0
 40
0
 40
0
 40
1
 40
1
 40
1
 40
1
 10
112.500000
 20
154.250000
 30
0.0
 10
111.836959
 20
154.250000
 30
0.0
 10
111.201074
 20
154.513392
 30
0.0
 10
110.732233
 20
154.982233
 30
0.0
  0
SPLINE
  5
1e1
100
AcDbEntity
  8
Layer_1
 62
7
100
AcDbSpline
 70
8
 71
3
 72
8
 73
4
 74
0
 40
0
 40
0
 40
0
 40
0
 40
1
 40
1
 40
1
 40
1
 10
110.732233
 20
154.982233
 30
0.0
 10
110.263392
 20
155.451074
 30
0.0
 10
110.000000
 20
156.086959
 30
0.0
 10
110.000000
 20
156.750000
 30
0.0
  0
SPLINE
  5
1e2
100
AcDbEntity
  8
Layer_1
 62
7
100
AcDbSpline
 70
8
 71
3
 72
8
 73
4
 74
0
 40
0
 40
0
 40
0
 40
0
 40
1
 40
1
 40
1
 40
1
 10
110.000000
 20
156.750000
 30
0.0
 10
110.000000
 20
157.413041
 30
0.0
 10
110.263392
 20
158.048926
 30
0.0
 10
110.732233
 20
158.517767
 30
0.0
  0
SPLINE
  5
1e3
100
AcDbEntity
  8
Layer_1
 62
7
100
AcDbSpline
 70
8
 71
3
 72
8
 73
4
 74
0
 40
0
 40
0
 40
0
 40
0
 40
1
 40
1
 40
1
 40
1
 10
110.732233
 20
158.517767
 30
0.0
 10
111.201074
 20
158.986608
 30
0.0
 10
111.836959
 20
159.250000
 30
0.0
 10
112.500000
 20
159.250000
 30
0.0
  0
SPLINE
  5
1e4
100
AcDbEntity
  8
Layer_1
 62
7
100
AcDbSpline
 70
8
 71
3
 72
8
 73
4
 74
0
 40
0
 40
0
 40
0
 40
0
 40
1
 40
1
 40
1
 40
1
 10
112.500000
 20
159.250000
 30
0.0
 10
113.163041
 20
159.250000
 30
0.0
 10
113.798926
 20
158.986608
 30
0.0
 10
114.267767
 20
158.517767
 30
0.0
  0
SPLINE
  5
1e5
100
AcDbEntity
  8
Layer_1
 62
7
100
AcDbSpline
 70
8
 71
3
 72
8
 73
4
 74
0
 40
0
 40
0
 40
0
 40
0
 40
1
 40
1
 40
1
 40
1
 10
114.267767
 20
158.517767
 30
0.0
 10
114.736608
 20
158.048926
 30
0.0
 10
115.000000
 20
157.413041
 30
0.0
 10
115.000000
 20
156.750000
 30
0.0
  0
LINE
  5
1e6
100
AcDbEntity
  8
Layer_1
 62
7
100
AcDbLine
 10
115.000000
 20
156.750000
 30
0.0
 11
115.000000
 21
156.750000
 31
0.0
  0
SPLINE
  5
1e7
100
AcDbEntity
  8
Layer_1
 62
7
100
AcDbSpline
 70
8
 71
3
 72
8
 73
4
 74
0
 40
0
 40
0
 40
0
 40
0
 40
1
 40
1
 40
1
 40
1
 10
115.000000
 20
140.250000
 30
0.0
 10
115.000000
 20
139.586959
 30
0.0
 10
114.736608
 20
138.951074
 30
0.0
 10
114.267767
 20
138.482233
 30
0.0
  0
SPLINE
  5
1e8
100
AcDbEntity
  8
Layer_1
 62
7
100
AcDbSpline
 70
8
 71
3
 72
8
 73
4
 74
0
 40
0
 40
0
 40
0
 40
0
 40
1
 40
1
 40
1
 40
1
 10
114.267767
 20
138.482233
 30
0.0
 10
113.798926
 20
138.013392
 30
0.0
 10
113.163041
 20
137.750000
 30
0.0
 10
112.500000
 20
137.750000
 30
0.0
  0
SPLINE
  5
1e9
100
AcDbEntity
  8
Layer_1
 62
7
100
AcDbSpline
 70
8
 71
3
 72
8
 73
4
 74
0
 40
0
 40
0
 40
0
 40
0
 40
1
 40
1
 40
1
 40
1
 10
112.500000
 20
137.750000
 30
0.0
 10
111.836959
 20
137.750000
 30
0.0
 10
111.201074
 20
138.013392
 30
0.0
 10
110.732233
 20
138.482233
 30
0.0
  0
SPLINE
  5
1ea
100
AcDbEntity
  8
Layer_1
 62
7
100
AcDbSpline
 70
8
 71
3
 72
8
 73
4
 74
0
 40
0
 40
0
 40
0
 40
0
 40
1
 40
1
 40
1
 40
1
 10
110.732233
 20
138.482233
 30
0.0
 10
110.263392
 20
138.951074
 30
0.0
 10
110.000000
 20
139.586959
 30
0.0
 10
110.000000
 20
140.250000
 30
0.0
  0
SPLINE
  5
1eb
100
AcDbEntity
  8
Layer_1
 62
7
100
AcDbSpline
 70
8
 71
3
 72
8
 73
4
 74
0
 40
0
 40
0
 40
0
 40
0
 40
1
 40
1
 40
1
 40
1
 10
110.000000
 20
140.250000
 30
0.0
 10
110.000000
 20
140.913041
 30
0.0
 10
110.263392
 20
141.548926
 30
0.0
 10
110.732233
 20
142.017767
 30
0.0
  0
SPLINE
  5
1ec
100
AcDbEntity
  8
Layer_1
 62
7
100
AcDbSpline
 70
8
 71
3
 72
8
 73
4
 74
0
 40
0
 40
0
 40
0
 40
0
 40
1
 40
1
 40
1
 40
1
 10
110.732233
 20
142.017767
 30
0.0
 10
111.201074
 20
142.486608
 30
0.0
 10
111.836959
 20
142.750000
 30
0.0
 10
112.500000
 20
142.750000
 30
0.0
  0
SPLINE
  5
1ed
100
AcDbEntity
  8
Layer_1
 62
7
100
AcDbSpline
 70
8
 71
3
 72
8
 73
4
 74
0
 40
0
 40
0
 40
0
 40
0
 40
1
 40
1
 40
1
 40
1
 10
112.500000
 20
142.750000
 30
0.0
 10
113.163041
 20
142.750000
 30
0.0
 10
113.798926
 20
142.486608
 30
0.0
 10
114.267767
 20
142.017767
 30
0.0
  0
SPLINE
  5
1ee
100
AcDbEntity
  8
Layer_1
 62
7
100
AcDbSpline
 70
8
 71
3
 72
8
 73
4
 74
0
 40
0
 40
0
 40
0
 40
0
 40
1
 40
1
 40
1
 40
1
 10
114.267767
 20
142.017767
 30
0.0
 10
114.736608
 20
141.548926
 30
0.0
 10
115.000000
 20
140.913041
 30
0.0
 10
115.000000
 20
140.250000
 30
0.0
  0
LINE
  5
1ef
100
AcDbEntity
  8
Layer_1
 62
7
100
AcDbLine
 10
115.000000
 20
140.250000
 30
0.0
 11
115.000000
 21
140.250000
 31
0.0
  0
SPLINE
  5
1f0
100
AcDbEntity
  8
Layer_1
 62
7
100
AcDbSpline
 70
8
 71
3
 72
8
 73
4
 74
0
 40
0
 40
0
 40
0
 40
0
 40
1
 40
1
 40
1
 40
1
 10
115.000000
 20
123.750000
 30
0.0
 10
115.000000
 20
123.086959
 30
0.0
 10
114.736608
 20
122.451074
 30
0.0
 10
114.267767
 20
121.982233
 30
0.0
  0
SPLINE
  5
1f1
100
AcDbEntity
  8
Layer_1
 62
7
100
AcDbSpline
 70
8
 71
3
 72
8
 73
4
 74
0
 40
0
 40
0
 40
0
 40
0
 40
1
 40
1
 40
1
 40
1
 10
114.267767
 20
121.982233
 30
0.0
 10
113.798926
 20
121.513392
 30
0.0
 10
113.163041
 20
121.250000
 30
0.0
 10
112.500000
 20
121.250000
 30
0.0
  0
SPLINE
  5
1f2
100
AcDbEntity
  8
Layer_1
 62
7
100
AcDbSpline
 70
8
 71
3
 72
8
 73
4
 74
0
 40
0
 40
0
 40
0
 40
0
 40
1
 40
1
 40
1
 40
1
 10
112.500000
 20
121.250000
 30
0.0
 10
111.836959
 20
121.250000
 30
0.0
 10
111.201074
 20
121.513392
 30
0.0
 10
110.732233
 20
121.982233
 30
0.0
  0
SPLINE
  5
1f3
100
AcDbEntity
  8
Layer_1
 62
7
100
AcDbSpline
 70
8
 71
3
 72
8
 73
4
 74
0
 40
0
 40
0
 40
0
 40
0
 40
1
 40
1
 40
1
 40
1
 10
110.732233
 20
121.982233
 30
0.0
 10
110.263392
 20
122.451074
 30
0.0
 10
110.000000
 20
123.086959
 30
0.0
 10
110.000000
 20
123.750000
 30
0.0
  0
SPLINE
  5
1f4
100
AcDbEntity
  8
Layer_1
 62
7
100
AcDbSpline
 70
8
 71
3
 72
8
 73
4
 74
0
 40
0
 40
0
 40
0
 40
0
 40
1
 40
1
 40
1
 40
1
 10
110.000000
 20
123.750000
 30
0.0
 10
110.000000
 20
124.413041
 30
0.0
 10
110.263392
 20
125.048926
 30
0.0
 10
110.732233
 20
125.517767
 30
0.0
  0
SPLINE
  5
1f5
100
AcDbEntity
  8
Layer_1
 62
7
100
AcDbSpline
 70
8
 71
3
 72
8
 73
4
 74
0
 40
0
 40
0
 40
0
 40
0
 40
1
 40
1
 40
1
 40
1
 10
110.732233
 20
125.517767
 30
0.0
 10
111.201074
 20
125.986608
 30
0.0
 10
111.836959
 20
126.250000
 30
0.0
 10
112.500000
 20
126.250000
 30
0.0
  0
SPLINE
  5
1f6
100
AcDbEntity
  8
Layer_1
 62
7
100
AcDbSpline
 70
8
 71
3
 72
8
 73
4
 74
0
 40
0
 40
0
 40
0
 40
0
 40
1
 40
1
 40
1
 40
1
 10
112.500000
 20
126.250000
 30
0.0
 10
113.163041
 20
126.250000
 30
0.0
 10
113.798926
 20
125.986608
 30
0.0
 10
114.267767
 20
125.517767
 30
0.0
  0
SPLINE
  5
1f7
100
AcDbEntity
  8
Layer_1
 62
7
100
AcDbSpline
 70
8
 71
3
 72
8
 73
4
 74
0
 40
0
 40
0
 40
0
 40
0
 40
1
 40
1
 40
1
 40
1
 10
114.267767
 20
125.517767
 30
0.0
 10
114.736608
 20
125.048926
 30
0.0
 10
115.000000
 20
124.413041
 30
0.0
 10
115.000000
 20
123.750000
 30
0.0
  0
LINE
  5
1f8
100
AcDbEntity
  8
Layer_1
 62
7
100
AcDbLine
 10
115.000000
 20
123.750000
 30
0.0
 11
115.000000
 21
123.750000
 31
0.0
  0
SPLINE
  5
1f9
100
AcDbEntity
  8
Layer_1
 62
7
100
AcDbSpline
 70
8
 71
3
 72
8
 73
4
 74
0
 40
0
 40
0
 40
0
 40
0
 40
1
 40
1
 40
1
 40
1
 10
130.000000
 20
173.250000
 30
0.0
 10
130.000000
 20
172.586959
 30
0.0
 10
129.736608
 20
171.951074
 30
0.0
 10
129.267767
 20
171.482233
 30
0.0
  0
SPLINE
  5
1fa
100
AcDbEntity
  8
Layer_1
 62
7
100
AcDbSpline
 70
8
 71
3
 72
8
 73
4
 74
0
 40
0
 40
0
 40
0
 40
0
 40
1
 40
1
 40
1
 40
1
 10
129.267767
 20
171.482233
 30
0.0
 10
128.798926
 20
171.013392
 30
0.0
 10
128.163041
 20
170.750000
 30
0.0
 10
127.500000
 20
170.750000
 30
0.0
  0
SPLINE
  5
1fb
100
AcDbEntity
  8
Layer_1
 62
7
100
AcDbSpline
 70
8
 71
3
 72
8
 73
4
 74
0
 40
0
 40
0
 40
0
 40
0
 40
1
 40
1
 40
1
 40
1
 10
127.500000
 20
170.750000
 30
0.0
 10
126.836959
 20
170.750000
 30
0.0
 10
126.201074
 20
171.013392
 30
0.0
 10
125.732233
 20
171.482233
 30
0.0
  0
SPLINE
  5
1fc
100
AcDbEntity
  8
Layer_1
 62
7
100
AcDbSpline
 70
8
 71
3
 72
8
 73
4
 74
0
 40
0
 40
0
 40
0
 40
0
 40
1
 40
1
 40
1
 40
1
 10
125.732233
 20
171.482233
 30
0.0
 10
125.263392
 20
171.951074
 30
0.0
 10
125.000000
 20
172.586959
 30
0.0
 10
125.000000
 20
173.250000
 30
0.0
  0
SPLINE
  5
1fd
100
AcDbEntity
  8
Layer_1
 62
7
100
AcDbSpline
 70
8
 71
3
 72
8
 73
4
 74
0
 40
0
 40
0
 40
0
 40
0
 40
1
 40
1
 40
1
 40
1
 10
125.000000
 20
173.250000
 30
0.0
 10
125.000000
 20
173.913041
 30
0.0
 10
125.263392
 20
174.548926
 30
0.0
 10
125.732233
 20
175.017767
 30
0.0
  0
SPLINE
  5
1fe
100
AcDbEntity
  8
Layer_1
 62
7
100
AcDbSpline
 70
8
 71
3
 72
8
 73
4
 74
0
 40
0
 40
0
 40
0
 40
0
 40
1
 40
1
 40
1
 40
1
 10
125.732233
 20
175.017767
 30
0.0
 10
126.201074
 20
175.486608
 30
0.0
 10
126.836959
 20
175.750000
 30
0.0
 10
127.500000
 20
175.750000
 30
0.0
  0
SPLINE
  5
1ff
100
AcDbEntity
  8
Layer_1
 62
7
100
AcDbSpline
 70
8
 71
3
 72
8
 73
4
 74
0
 40
0
 40
0
 40
0
 40
0
 40
1
 40
1
 40
1
 40
1
 10
127.500000
 20
175.750000
 30
0.0
 10
128.163041
 20
175.750000
 30
0.0
 10
128.798926
 20
175.486608
 30
0.0
 10
129.267767
 20
175.017767
 30
0.0
  0
SPLINE
  5
200
100
AcDbEntity
  8
Layer_1
 62
7
100
AcDbSpline
 70
8
 71
3
 72
8
 73
4
 74
0
 40
0
 40
0
 40
0
 40
0
 40
1
 40
1
 40
1
 40
1
 10
129.267767
 20
175.017767
 30
0.0
 10
129.736608
 20
174.548926
 30
0.0
 10
130.000000
 20
173.913041
 30
0.0
 10
130.000000
 20
173.250000
 30
0.0
  0
LINE
  5
201
100
AcDbEntity
  8
Layer_1
 62
7
100
AcDbLine
 10
130.000000
 20
173.250000
 30
0.0
 11
130.000000
 21
173.250000
 31
0.0
  0
SPLINE
  5
202
100
AcDbEntity
  8
Layer_1
 62
7
100
AcDbSpline
 70
8
 71
3
 72
8
 73
4
 74
0
 40
0
 40
0
 40
0
 40
0
 40
1
 40
1
 40
1
 40
1
 10
130.000000
 20
156.750000
 30
0.0
 10
130.000000
 20
156.086959
 30
0.0
 10
129.736608
 20
155.451074
 30
0.0
 10
129.267767
 20
154.982233
 30
0.0
  0
SPLINE
  5
203
100
AcDbEntity
  8
Layer_1
 62
7
100
AcDbSpline
 70
8
 71
3
 72
8
 73
4
 74
0
 40
0
 40
0
 40
0
 40
0
 40
1
 40
1
 40
1
 40
1
 10
129.267767
 20
154.982233
 30
0.0
 10
128.798926
 20
154.513392
 30
0.0
 10
128.163041
 20
154.250000
 30
0.0
 10
127.500000
 20
154.250000
 30
0.0
  0
SPLINE
  5
204
100
AcDbEntity
  8
Layer_1
 62
7
100
AcDbSpline
 70
8
 71
3
 72
8
 73
4
 74
0
 40
0
 40
0
 40
0
 40
0
 40
1
 40
1
 40
1
 40
1
 10
127.500000
 20
154.250000
 30
0.0
 10
126.836959
 20
154.250000
 30
0.0
 10
126.201074
 20
154.513392
 30
0.0
 10
125.732233
 20
154.982233
 30
0.0
  0
SPLINE
  5
205
100
AcDbEntity
  8
Layer_1
 62
7
100
AcDbSpline
 70
8
 71
3
 72
8
 73
4
 74
0
 40
0
 40
0
 40
0
 40
0
 40
1
 40
1
 40
1
 40
1
 10
125.732233
 20
154.982233
 30
0.0
 10
125.263392
 20
155.451074
 30
0.0
 10
125.000000
 20
156.086959
 30
0.0
 10
125.000000
 20
156.750000
 30
0.0
  0
SPLINE
  5
206
100
AcDbEntity
  8
Layer_1
 62
7
100
AcDbSpline
 70
8
 71
3
 72
8
 73
4
 74
0
 40
0
 40
0
 40
0
 40
0
 40
1
 40
1
 40
1
 40
1
 10
125.000000
 20
156.750000
 30
0.0
 10
125.000000
 20
157.413041
 30
0.0
 10
125.263392
 20
158.048926
 30
0.0
 10
125.732233
 20
158.517767
 30
0.0
  0
SPLINE
  5
207
100
AcDbEntity
  8
Layer_1
 62
7
100
AcDbSpline
 70
8
 71
3
 72
8
 73
4
 74
0
 40
0
 40
0
 40
0
 40
0
 40
1
 40
1
 40
1
 40
1
 10
125.732233
 20
158.517767
 30
0.0
 10
126.201074
 20
158.986608
 30
0.0
 10
126.836959
 20
159.250000
 30
0.0
 10
127.500000
 20
159.250000
 30
0.0
  0
SPLINE
  5
208
100
AcDbEntity
  8
Layer_1
 62
7
100
AcDbSpline
 70
8
 71
3
 72
8
 73
4
 74
0
 40
0
 40
0
 40
0
 40
0
 40
1
 40
1
 40
1
 40
1
 10
127.500000
 20
159.250000
 30
0.0
 10
128.163041
 20
159.250000
 30
0.0
 10
128.798926
 20
158.986608
 30
0.0
 10
129.267767
 20
158.517767
 30
0.0
  0
SPLINE
  5
209
100
AcDbEntity
  8
Layer_1
 62
7
100
AcDbSpline
 70
8
 71
3
 72
8
 73
4
 74
0
 40
0
 40
0
 40
0
 40
0
 40
1
 40
1
 40
1
 40
1
 10
129.267767
 20
158.517767
 30
0.0
 10
129.736608
 20
158.048926
 30
0.0
 10
130.000000
 20
157.413041
 30
0.0
 10
130.000000
 20
156.750000
 30
0.0
  0
LINE
  5
20a
100
AcDbEntity
  8
Layer_1
 62
7
100
AcDbLine
 10
130.000000
 20
156.750000
 30
0.0
 11
130.000000
 21
156.750000
 31
0.0
  0
SPLINE
  5
20b
100
AcDbEntity
  8
Layer_1
 62
7
100
AcDbSpline
 70
8
 71
3
 72
8
 73
4
 74
0
 40
0
 40
0
 40
0
 40
0
 40
1
 40
1
 40
1
 40
1
 10
130.000000
 20
140.250000
 30
0.0
 10
130.000000
 20
139.586959
 30
0.0
 10
129.736608
 20
138.951074
 30
0.0
 10
129.267767
 20
138.482233
 30
0.0
  0
SPLINE
  5
20c
100
AcDbEntity
  8
Layer_1
 62
7
100
AcDbSpline
 70
8
 71
3
 72
8
 73
4
 74
0
 40
0
 40
0
 40
0
 40
0
 40
1
 40
1
 40
1
 40
1
 10
129.267767
 20
138.482233
 30
0.0
 10
128.798926
 20
138.013392
 30
0.0
 10
128.163041
 20
137.750000
 30
0.0
 10
127.500000
 20
137.750000
 30
0.0
  0
SPLINE
  5
20d
100
AcDbEntity
  8
Layer_1
 62
7
100
AcDbSpline
 70
8
 71
3
 72
8
 73
4
 74
0
 40
0
 40
0
 40
0
 40
0
 40
1
 40
1
 40
1
 40
1
 10
127.500000
 20
137.750000
 30
0.0
 10
126.836959
 20
137.750000
 30
0.0
 10
126.201074
 20
138.013392
 30
0.0
 10
125.732233
 20
138.482233
 30
0.0
  0
SPLINE
  5
20e
100
AcDbEntity
  8
Layer_1
 62
7
100
AcDbSpline
 70
8
 71
3
 72
8
 73
4
 74
0
 40
0
 40
0
 40
0
 40
0
 40
1
 40
1
 40
1
 40
1
 10
125.732233
 20
138.482233
 30
0.0
 10
125.263392
 20
138.951074
 30
0.0
 10
125.000000
 20
139.586959
 30
0.0
 10
125.000000
 20
140.250000
 30
0.0
  0
SPLINE
  5
20f
100
AcDbEntity
  8
Layer_1
 62
7
100
AcDbSpline
 70
8
 71
3
 72
8
 73
4
 74
0
 40
0
 40
0
 40
0
 40
0
 40
1
 40
1
 40
1
 40
1
 10
125.000000
 20
140.250000
 30
0.0
 10
125.000000
 20
140.913041
 30
0.0
 10
125.263392
 20
141.548926
 30
0.0
 10
125.732233
 20
142.017767
 30
0.0
  0
SPLINE
  5
210
100
AcDbEntity
  8
Layer_1
 62
7
100
AcDbSpline
 70
8
 71
3
 72
8
 73
4
 74
0
 40
0
 40
0
 40
0
 40
0
 40
1
 40
1
 40
1
 40
1
 10
125.732233
 20
142.017767
 30
0.0
 10
126.201074
 20
142.486608
 30
0.0
 10
126.836959
 20
142.750000
 30
0.0
 10
127.500000
 20
142.750000
 30
0.0
  0
SPLINE
  5
211
100
AcDbEntity
  8
Layer_1
 62
7
100
AcDbSpline
 70
8
 71
3
 72
8
 73
4
 74
0
 40
0
 40
0
 40
0
 40
0
 40
1
 40
1
 40
1
 40
1
 10
127.500000
 20
142.750000
 30
0.0
 10
128.163041
 20
142.750000
 30
0.0
 10
128.798926
 20
142.486608
 30
0.0
 10
129.267767
 20
142.017767
 30
0.0
  0
SPLINE
  5
212
100
AcDbEntity
  8
Layer_1
 62
7
100
AcDbSpline
 70
8
 71
3
 72
8
 73
4
 74
0
 40
0
 40
0
 40
0
 40
0
 40
1
 40
1
 40
1
 40
1
 10
129.267767
 20
142.017767
 30
0.0
 10
129.736608
 20
141.548926
 30
0.0
 10
130.000000
 20
140.913041
 30
0.0
 10
130.000000
 20
140.250000
 30
0.0
  0
LINE
  5
213
100
AcDbEntity
  8
Layer_1
 62
7
100
AcDbLine
 10
130.000000
 20
140.250000
 30
0.0
 11
130.000000
 21
140.250000
 31
0.0
  0
SPLINE
  5
214
100
AcDbEntity
  8
Layer_1
 62
7
100
AcDbSpline
 70
8
 71
3
 72
8
 73
4
 74
0
 40
0
 40
0
 40
0
 40
0
 40
1
 40
1
 40
1
 40
1
 10
130.000000
 20
123.750000
 30
0.0
 10
130.000000
 20
123.086959
 30
0.0
 10
129.736608
 20
122.451074
 30
0.0
 10
129.267767
 20
121.982233
 30
0.0
  0
SPLINE
  5
215
100
AcDbEntity
  8
Layer_1
 62
7
100
AcDbSpline
 70
8
 71
3
 72
8
 73
4
 74
0
 40
0
 40
0
 40
0
 40
0
 40
1
 40
1
 40
1
 40
1
 10
129.267767
 20
121.982233
 30
0.0
 10
128.798926
 20
121.513392
 30
0.0
 10
128.163041
 20
121.250000
 30
0.0
 10
127.500000
 20
121.250000
 30
0.0
  0
SPLINE
  5
216
100
AcDbEntity
  8
Layer_1
 62
7
100
AcDbSpline
 70
8
 71
3
 72
8
 73
4
 74
0
 40
0
 40
0
 40
0
 40
0
 40
1
 40
1
 40
1
 40
1
 10
127.500000
 20
121.250000
 30
0.0
 10
126.836959
 20
121.250000
 30
0.0
 10
126.201074
 20
121.513392
 30
0.0
 10
125.732233
 20
121.982233
 30
0.0
  0
SPLINE
  5
217
100
AcDbEntity
  8
Layer_1
 62
7
100
AcDbSpline
 70
8
 71
3
 72
8
 73
4
 74
0
 40
0
 40
0
 40
0
 40
0
 40
1
 40
1
 40
1
 40
1
 10
125.732233
 20
121.982233
 30
0.0
 10
125.263392
 20
122.451074
 30
0.0
 10
125.000000
 20
123.086959
 30
0.0
 10
125.000000
 20
123.750000
 30
0.0
  0
SPLINE
  5
218
100
AcDbEntity
  8
Layer_1
 62
7
100
AcDbSpline
 70
8
 71
3
 72
8
 73
4
 74
0
 40
0
 40
0
 40
0
 40
0
 40
1
 40
1
 40
1
 40
1
 10
125.000000
 20
123.750000
 30
0.0
 10
125.000000
 20
124.413041
 30
0.0
 10
125.263392
 20
125.048926
 30
0.0
 10
125.732233
 20
125.517767
 30
0.0
  0
SPLINE
  5
219
100
AcDbEntity
  8
Layer_1
 62
7
100
AcDbSpline
 70
8
 71
3
 72
8
 73
4
 74
0
 40
0
 40
0
 40
0
 40
0
 40
1
 40
1
 40
1
 40
1
 10
125.732233
 20
125.517767
 30
0.0
 10
126.201074
 20
125.986608
 30
0.0
 10
126.836959
 20
126.250000
 30
0.0
 10
127.500000
 20
126.250000
 30
0.0
  0
SPLINE
  5
21a
100
AcDbEntity
  8
Layer_1
 62
7
100
AcDbSpline
 70
8
 71
3
 72
8
 73
4
 74
0
 40
0
 40
0
 40
0
 40
0
 40
1
 40
1
 40
1
 40
1
 10
127.500000
 20
126.250000
 30
0.0
 10
128.163041
 20
126.250000
 30
0.0
 10
128.798926
 20
125.986608
 30
0.0
 10
129.267767
 20
125.517767
 30
0.0
  0
SPLINE
  5
21b
100
AcDbEntity
  8
Layer_1
 62
7
100
AcDbSpline
 70
8
 71
3
 72
8
 73
4
 74
0
 40
0
 40
0
 40
0
 40
0
 40
1
 40
1
 40
1
 40
1
 10
129.267767
 20
125.517767
 30
0.0
 10
129.736608
 20
125.048926
 30
0.0
 10
130.000000
 20
124.413041
 30
0.0
 10
130.000000
 20
123.750000
 30
0.0
  0
LINE
  5
21c
100
AcDbEntity
  8
Layer_1
 62
7
100
AcDbLine
 10
130.000000
 20
123.750000
 30
0.0
 11
130.000000
 21
123.750000
 31
0.0
  0
SPLINE
  5
21d
100
AcDbEntity
  8
Layer_1
 62
7
100
AcDbSpline
 70
8
 71
3
 72
8
 73
4
 74
0
 40
0
 40
0
 40
0
 40
0
 40
1
 40
1
 40
1
 40
1
 10
145.000000
 20
173.250000
 30
0.0
 10
145.000000
 20
172.586959
 30
0.0
 10
144.736608
 20
171.951074
 30
0.0
 10
144.267767
 20
171.482233
 30
0.0
  0
SPLINE
  5
21e
100
AcDbEntity
  8
Layer_1
 62
7
100
AcDbSpline
 70
8
 71
3
 72
8
 73
4
 74
0
 40
0
 40
0
 40
0
 40
0
 40
1
 40
1
 40
1
 40
1
 10
144.267767
 20
171.482233
 30
0.0
 10
143.798926
 20
171.013392
 30
0.0
 10
143.163041
 20
170.750000
 30
0.0
 10
142.500000
 20
170.750000
 30
0.0
  0
SPLINE
  5
21f
100
AcDbEntity
  8
Layer_1
 62
7
100
AcDbSpline
 70
8
 71
3
 72
8
 73
4
 74
0
 40
0
 40
0
 40
0
 40
0
 40
1
 40
1
 40
1
 40
1
 10
142.500000
 20
170.750000
 30
0.0
 10
141.836959
 20
170.750000
 30
0.0
 10
141.201074
 20
171.013392
 30
0.0
 10
140.732233
 20
171.482233
 30
0.0
  0
SPLINE
  5
220
100
AcDbEntity
  8
Layer_1
 62
7
100
AcDbSpline
 70
8
 71
3
 72
8
 73
4
 74
0
 40
0
 40
0
 40
0
 40
0
 40
1
 40
1
 40
1
 40
1
 10
140.732233
 20
171.482233
 30
0.0
 10
140.263392
 20
171.951074
 30
0.0
 10
140.000000
 20
172.586959
 30
0.0
 10
140.000000
 20
173.250000
 30
0.0
  0
SPLINE
  5
221
100
AcDbEntity
  8
Layer_1
 62
7
100
AcDbSpline
 70
8
 71
3
 72
8
 73
4
 74
0
 40
0
 40
0
 40
0
 40
0
 40
1
 40
1
 40
1
 40
1
 10
140.000000
 20
173.250000
 30
0.0
 10
140.000000
 20
173.913041
 30
0.0
 10
140.263392
 20
174.548926
 30
0.0
 10
140.732233
 20
175.017767
 30
0.0
  0
SPLINE
  5
222
100
AcDbEntity
  8
Layer_1
 62
7
100
AcDbSpline
 70
8
 71
3
 72
8
 73
4
 74
0
 40
0
 40
0
 40
0
 40
0
 40
1
 40
1
 40
1
 40
1
 10
140.732233
 20
175.017767
 30
0.0
 10
141.201074
 20
175.486608
 30
0.0
 10
141.836959
 20
175.750000
 30
0.0
 10
142.500000
 20
175.750000
 30
0.0
  0
SPLINE
  5
223
100
AcDbEntity
  8
Layer_1
 62
7
100
AcDbSpline
 70
8
 71
3
 72
8
 73
4
 74
0
 40
0
 40
0
 40
0
 40
0
 40
1
 40
1
 40
1
 40
1
 10
142.500000
 20
175.750000
 30
0.0
 10
143.163041
 20
175.750000
 30
0.0
 10
143.798926
 20
175.486608
 30
0.0
 10
144.267767
 20
175.017767
 30
0.0
  0
SPLINE
  5
224
100
AcDbEntity
  8
Layer_1
 62
7
100
AcDbSpline
 70
8
 71
3
 72
8
 73
4
 74
0
 40
0
 40
0
 40
0
 40
0
 40
1
 40
1
 40
1
 40
1
 10
144.267767
 20
175.017767
 30
0.0
 10
144.736608
 20
174.548926
 30
0.0
 10
145.000000
 20
173.913041
 30
0.0
 10
145.000000
 20
173.250000
 30
0.0
  0
LINE
  5
225
100
AcDbEntity
  8
Layer_1
 62
7
100
AcDbLine
 10
145.000000
 20
173.250000
 30
0.0
 11
145.000000
 21
173.250000
 31
0.0
  0
SPLINE
  5
226
100
AcDbEntity
  8
Layer_1
 62
7
100
AcDbSpline
 70
8
 71
3
 72
8
 73
4
 74
0
 40
0
 40
0
 40
0
 40
0
 40
1
 40
1
 40
1
 40
1
 10
145.000000
 20
156.750000
 30
0.0
 10
145.000000
 20
156.086959
 30
0.0
 10
144.736608
 20
155.451074
 30
0.0
 10
144.267767
 20
154.982233
 30
0.0
  0
SPLINE
  5
227
100
AcDbEntity
  8
Layer_1
 62
7
100
AcDbSpline
 70
8
 71
3
 72
8
 73
4
 74
0
 40
0
 40
0
 40
0
 40
0
 40
1
 40
1
 40
1
 40
1
 10
144.267767
 20
154.982233
 30
0.0
 10
143.798926
 20
154.513392
 30
0.0
 10
143.163041
 20
154.250000
 30
0.0
 10
142.500000
 20
154.250000
 30
0.0
  0
SPLINE
  5
228
100
AcDbEntity
  8
Layer_1
 62
7
100
AcDbSpline
 70
8
 71
3
 72
8
 73
4
 74
0
 40
0
 40
0
 40
0
 40
0
 40
1
 40
1
 40
1
 40
1
 10
142.500000
 20
154.250000
 30
0.0
 10
141.836959
 20
154.250000
 30
0.0
 10
141.201074
 20
154.513392
 30
0.0
 10
140.732233
 20
154.982233
 30
0.0
  0
SPLINE
  5
229
100
AcDbEntity
  8
Layer_1
 62
7
100
AcDbSpline
 70
8
 71
3
 72
8
 73
4
 74
0
 40
0
 40
0
 40
0
 40
0
 40
1
 40
1
 40
1
 40
1
 10
140.732233
 20
154.982233
 30
0.0
 10
140.263392
 20
155.451074
 30
0.0
 10
140.000000
 20
156.086959
 30
0.0
 10
140.000000
 20
156.750000
 30
0.0
  0
SPLINE
  5
22a
100
AcDbEntity
  8
Layer_1
 62
7
100
AcDbSpline
 70
8
 71
3
 72
8
 73
4
 74
0
 40
0
 40
0
 40
0
 40
0
 40
1
 40
1
 40
1
 40
1
 10
140.000000
 20
156.750000
 30
0.0
 10
140.000000
 20
157.413041
 30
0.0
 10
140.263392
 20
158.048926
 30
0.0
 10
140.732233
 20
158.517767
 30
0.0
  0
SPLINE
  5
22b
100
AcDbEntity
  8
Layer_1
 62
7
100
AcDbSpline
 70
8
 71
3
 72
8
 73
4
 74
0
 40
0
 40
0
 40
0
 40
0
 40
1
 40
1
 40
1
 40
1
 10
140.732233
 20
158.517767
 30
0.0
 10
141.201074
 20
158.986608
 30
0.0
 10
141.836959
 20
159.250000
 30
0.0
 10
142.500000
 20
159.250000
 30
0.0
  0
SPLINE
  5
22c
100
AcDbEntity
  8
Layer_1
 62
7
100
AcDbSpline
 70
8
 71
3
 72
8
 73
4
 74
0
 40
0
 40
0
 40
0
 40
0
 40
1
 40
1
 40
1
 40
1
 10
142.500000
 20
159.250000
 30
0.0
 10
143.163041
 20
159.250000
 30
0.0
 10
143.798926
 20
158.986608
 30
0.0
 10
144.267767
 20
158.517767
 30
0.0
  0
SPLINE
  5
22d
100
AcDbEntity
  8
Layer_1
 62
7
100
AcDbSpline
 70
8
 71
3
 72
8
 73
4
 74
0
 40
0
 40
0
 40
0
 40
0
 40
1
 40
1
 40
1
 40
1
 10
144.267767
 20
158.517767
 30
0.0
 10
144.736608
 20
158.048926
 30
0.0
 10
145.000000
 20
157.413041
 30
0.0
 10
145.000000
 20
156.750000
 30
0.0
  0
LINE
  5
22e
100
AcDbEntity
  8
Layer_1
 62
7
100
AcDbLine
 10
145.000000
 20
156.750000
 30
0.0
 11
145.000000
 21
156.750000
 31
0.0
  0
SPLINE
  5
22f
100
AcDbEntity
  8
Layer_1
 62
7
100
AcDbSpline
 70
8
 71
3
 72
8
 73
4
 74
0
 40
0
 40
0
 40
0
 40
0
 40
1
 40
1
 40
1
 40
1
 10
145.000000
 20
140.250000
 30
0.0
 10
145.000000
 20
139.586959
 30
0.0
 10
144.736608
 20
138.951074
 30
0.0
 10
144.267767
 20
138.482233
 30
0.0
  0
SPLINE
  5
230
100
AcDbEntity
  8
Layer_1
 62
7
100
AcDbSpline
 70
8
 71
3
 72
8
 73
4
 74
0
 40
0
 40
0
 40
0
 40
0
 40
1
 40
1
 40
1
 40
1
 10
144.267767
 20
138.482233
 30
0.0
 10
143.798926
 20
138.013392
 30
0.0
 10
143.163041
 20
137.750000
 30
0.0
 10
142.500000
 20
137.750000
 30
0.0
  0
SPLINE
  5
231
100
AcDbEntity
  8
Layer_1
 62
7
100
AcDbSpline
 70
8
 71
3
 72
8
 73
4
 74
0
 40
0
 40
0
 40
0
 40
0
 40
1
 40
1
 40
1
 40
1
 10
142.500000
 20
137.750000
 30
0.0
 10
141.836959
 20
137.750000
 30
0.0
 10
141.201074
 20
138.013392
 30
0.0
 10
140.732233
 20
138.482233
 30
0.0
  0
SPLINE
  5
232
100
AcDbEntity
  8
Layer_1
 62
7
100
AcDbSpline
 70
8
 71
3
 72
8
 73
4
 74
0
 40
0
 40
0
 40
0
 40
0
 40
1
 40
1
 40
1
 40
1
 10
140.732233
 20
138.482233
 30
0.0
 10
140.263392
 20
138.951074
 30
0.0
 10
140.000000
 20
139.586959
 30
0.0
 10
140.000000
 20
140.250000
 30
0.0
  0
SPLINE
  5
233
100
AcDbEntity
  8
Layer_1
 62
7
100
AcDbSpline
 70
8
 71
3
 72
8
 73
4
 74
0
 40
0
 40
0
 40
0
 40
0
 40
1
 40
1
 40
1
 40
1
 10
140.000000
 20
140.250000
 30
0.0
 10
140.000000
 20
140.913041
 30
0.0
 10
140.263392
 20
141.548926
 30
0.0
 10
140.732233
 20
142.017767
 30
0.0
  0
SPLINE
  5
234
100
AcDbEntity
  8
Layer_1
 62
7
100
AcDbSpline
 70
8
 71
3
 72
8
 73
4
 74
0
 40
0
 40
0
 40
0
 40
0
 40
1
 40
1
 40
1
 40
1
 10
140.732233
 20
142.017767
 30
0.0
 10
141.201074
 20
142.486608
 30
0.0
 10
141.836959
 20
142.750000
 30
0.0
 10
142.500000
 20
142.750000
 30
0.0
  0
SPLINE
  5
235
100
AcDbEntity
  8
Layer_1
 62
7
100
AcDbSpline
 70
8
 71
3
 72
8
 73
4
 74
0
 40
0
 40
0
 40
0
 40
0
 40
1
 40
1
 40
1
 40
1
 10
142.500000
 20
142.750000
 30
0.0
 10
143.163041
 20
142.750000
 30
0.0
 10
143.798926
 20
142.486608
 30
0.0
 10
144.267767
 20
142.017767
 30
0.0
  0
SPLINE
  5
236
100
AcDbEntity
  8
Layer_1
 62
7
100
AcDbSpline
 70
8
 71
3
 72
8
 73
4
 74
0
 40
0
 40
0
 40
0
 40
0
 40
1
 40
1
 40
1
 40
1
 10
144.267767
 20
142.017767
 30
0.0
 10
144.736608
 20
141.548926
 30
0.0
 10
145.000000
 20
140.913041
 30
0.0
 10
145.000000
 20
140.250000
 30
0.0
  0
LINE
  5
237
100
AcDbEntity
  8
Layer_1
 62
7
100
AcDbLine
 10
145.000000
 20
140.250000
 30
0.0
 11
145.000000
 21
140.250000
 31
0.0
  0
SPLINE
  5
238
100
AcDbEntity
  8
Layer_1
 62
7
100
AcDbSpline
 70
8
 71
3
 72
8
 73
4
 74
0
 40
0
 40
0
 40
0
 40
0
 40
1
 40
1
 40
1
 40
1
 10
145.000000
 20
123.750000
 30
0.0
 10
145.000000
 20
123.086959
 30
0.0
 10
144.736608
 20
122.451074
 30
0.0
 10
144.267767
 20
121.982233
 30
0.0
  0
SPLINE
  5
239
100
AcDbEntity
  8
Layer_1
 62
7
100
AcDbSpline
 70
8
 71
3
 72
8
 73
4
 74
0
 40
0
 40
0
 40
0
 40
0
 40
1
 40
1
 40
1
 40
1
 10
144.267767
 20
121.982233
 30
0.0
 10
143.798926
 20
121.513392
 30
0.0
 10
143.163041
 20
121.250000
 30
0.0
 10
142.500000
 20
121.250000
 30
0.0
  0
SPLINE
  5
23a
100
AcDbEntity
  8
Layer_1
 62
7
100
AcDbSpline
 70
8
 71
3
 72
8
 73
4
 74
0
 40
0
 40
0
 40
0
 40
0
 40
1
 40
1
 40
1
 40
1
 10
142.500000
 20
121.250000
 30
0.0
 10
141.836959
 20
121.250000
 30
0.0
 10
141.201074
 20
121.513392
 30
0.0
 10
140.732233
 20
121.982233
 30
0.0
  0
SPLINE
  5
23b
100
AcDbEntity
  8
Layer_1
 62
7
100
AcDbSpline
 70
8
 71
3
 72
8
 73
4
 74
0
 40
0
 40
0
 40
0
 40
0
 40
1
 40
1
 40
1
 40
1
 10
140.732233
 20
121.982233
 30
0.0
 10
140.263392
 20
122.451074
 30
0.0
 10
140.000000
 20
123.086959
 30
0.0
 10
140.000000
 20
123.750000
 30
0.0
  0
SPLINE
  5
23c
100
AcDbEntity
  8
Layer_1
 62
7
100
AcDbSpline
 70
8
 71
3
 72
8
 73
4
 74
0
 40
0
 40
0
 40
0
 40
0
 40
1
 40
1
 40
1
 40
1
 10
140.000000
 20
123.750000
 30
0.0
 10
140.000000
 20
124.413041
 30
0.0
 10
140.263392
 20
125.048926
 30
0.0
 10
140.732233
 20
125.517767
 30
0.0
  0
SPLINE
  5
23d
100
AcDbEntity
  8
Layer_1
 62
7
100
AcDbSpline
 70
8
 71
3
 72
8
 73
4
 74
0
 40
0
 40
0
 40
0
 40
0
 40
1
 40
1
 40
1
 40
1
 10
140.732233
 20
125.517767
 30
0.0
 10
141.201074
 20
125.986608
 30
0.0
 10
141.836959
 20
126.250000
 30
0.0
 10
142.500000
 20
126.250000
 30
0.0
  0
SPLINE
  5
23e
100
AcDbEntity
  8
Layer_1
 62
7
100
AcDbSpline
 70
8
 71
3
 72
8
 73
4
 74
0
 40
0
 40
0
 40
0
 40
0
 40
1
 40
1
 40
1
 40
1
 10
142.500000
 20
126.250000
 30
0.0
 10
143.163041
 20
126.250000
 30
0.0
 10
143.798926
 20
125.986608
 30
0.0
 10
144.267767
 20
125.517767
 30
0.0
  0
SPLINE
  5
23f
100
AcDbEntity
  8
Layer_1
 62
7
100
AcDbSpline
 70
8
 71
3
 72
8
 73
4
 74
0
 40
0
 40
0
 40
0
 40
0
 40
1
 40
1
 40
1
 40
1
 10
144.267767
 20
125.517767
 30
0.0
 10
144.736608
 20
125.048926
 30
0.0
 10
145.000000
 20
124.413041
 30
0.0
 10
145.000000
 20
123.750000
 30
0.0
  0
LINE
  5
240
100
AcDbEntity
  8
Layer_1
 62
7
100
AcDbLine
 10
145.000000
 20
123.750000
 30
0.0
 11
145.000000
 21
123.750000
 31
0.0
  0
SPLINE
  5
241
100
AcDbEntity
  8
Layer_1
 62
7
100
AcDbSpline
 70
8
 71
3
 72
8
 73
4
 74
0
 40
0
 40
0
 40
0
 40
0
 40
1
 40
1
 40
1
 40
1
 10
160.000000
 20
173.250000
 30
0.0
 10
160.000000
 20
172.586959
 30
0.0
 10
159.736608
 20
171.951074
 30
0.0
 10
159.267767
 20
171.482233
 30
0.0
  0
SPLINE
  5
242
100
AcDbEntity
  8
Layer_1
 62
7
100
AcDbSpline
 70
8
 71
3
 72
8
 73
4
 74
0
 40
0
 40
0
 40
0
 40
0
 40
1
 40
1
 40
1
 40
1
 10
159.267767
 20
171.482233
 30
0.0
 10
158.798926
 20
171.013392
 30
0.0
 10
158.163041
 20
170.750000
 30
0.0
 10
157.500000
 20
170.750000
 30
0.0
  0
SPLINE
  5
243
100
AcDbEntity
  8
Layer_1
 62
7
100
AcDbSpline
 70
8
 71
3
 72
8
 73
4
 74
0
 40
0
 40
0
 40
0
 40
0
 40
1
 40
1
 40
1
 40
1
 10
157.500000
 20
170.750000
 30
0.0
 10
156.836959
 20
170.750000
 30
0.0
 10
156.201074
 20
171.013392
 30
0.0
 10
155.732233
 20
171.482233
 30
0.0
  0
SPLINE
  5
244
100
AcDbEntity
  8
Layer_1
 62
7
100
AcDbSpline
 70
8
 71
3
 72
8
 73
4
 74
0
 40
0
 40
0
 40
0
 40
0
 40
1
 40
1
 40
1
 40
1
 10
155.732233
 20
171.482233
 30
0.0
 10
155.263392
 20
171.951074
 30
0.0
 10
155.000000
 20
172.586959
 30
0.0
 10
155.000000
 20
173.250000
 30
0.0
  0
SPLINE
  5
245
100
AcDbEntity
  8
Layer_1
 62
7
100
AcDbSpline
 70
8
 71
3
 72
8
 73
4
 74
0
 40
0
 40
0
 40
0
 40
0
 40
1
 40
1
 40
1
 40
1
 10
155.000000
 20
173.250000
 30
0.0
 10
155.000000
 20
173.913041
 30
0.0
 10
155.263392
 20
174.548926
 30
0.0
 10
155.732233
 20
175.017767
 30
0.0
  0
SPLINE
  5
246
100
AcDbEntity
  8
Layer_1
 62
7
100
AcDbSpline
 70
8
 71
3
 72
8
 73
4
 74
0
 40
0
 40
0
 40
0
 40
0
 40
1
 40
1
 40
1
 40
1
 10
155.732233
 20
175.017767
 30
0.0
 10
156.201074
 20
175.486608
 30
0.0
 10
156.836959
 20
175.750000
 30
0.0
 10
157.500000
 20
175.750000
 30
0.0
  0
SPLINE
  5
247
100
AcDbEntity
  8
Layer_1
 62
7
100
AcDbSpline
 70
8
 71
3
 72
8
 73
4
 74
0
 40
0
 40
0
 40
0
 40
0
 40
1
 40
1
 40
1
 40
1
 10
157.500000
 20
175.750000
 30
0.0
 10
158.163041
 20
175.750000
 30
0.0
 10
158.798926
 20
175.486608
 30
0.0
 10
159.267767
 20
175.017767
 30
0.0
  0
SPLINE
  5
248
100
AcDbEntity
  8
Layer_1
 62
7
100
AcDbSpline
 70
8
 71
3
 72
8
 73
4
 74
0
 40
0
 40
0
 40
0
 40
0
 40
1
 40
1
 40
1
 40
1
 10
159.267767
 20
175.017767
 30
0.0
 10
159.736608
 20
174.548926
 30
0.0
 10
160.000000
 20
173.913041
 30
0.0
 10
160.000000
 20
173.250000
 30
0.0
  0
LINE
  5
249
100
AcDbEntity
  8
Layer_1
 62
7
100
AcDbLine
 10
160.000000
 20
173.250000
 30
0.0
 11
160.000000
 21
173.250000
 31
0.0
  0
SPLINE
  5
24a
100
AcDbEntity
  8
Layer_1
 62
7
100
AcDbSpline
 70
8
 71
3
 72
8
 73
4
 74
0
 40
0
 40
0
 40
0
 40
0
 40
1
 40
1
 40
1
 40
1
 10
160.000000
 20
156.750000
 30
0.0
 10
160.000000
 20
156.086959
 30
0.0
 10
159.736608
 20
155.451074
 30
0.0
 10
159.267767
 20
154.982233
 30
0.0
  0
SPLINE
  5
24b
100
AcDbEntity
  8
Layer_1
 62
7
100
AcDbSpline
 70
8
 71
3
 72
8
 73
4
 74
0
 40
0
 40
0
 40
0
 40
0
 40
1
 40
1
 40
1
 40
1
 10
159.267767
 20
154.982233
 30
0.0
 10
158.798926
 20
154.513392
 30
0.0
 10
158.163041
 20
154.250000
 30
0.0
 10
157.500000
 20
154.250000
 30
0.0
  0
SPLINE
  5
24c
100
AcDbEntity
  8
Layer_1
 62
7
100
AcDbSpline
 70
8
 71
3
 72
8
 73
4
 74
0
 40
0
 40
0
 40
0
 40
0
 40
1
 40
1
 40
1
 40
1
 10
157.500000
 20
154.250000
 30
0.0
 10
156.836959
 20
154.250000
 30
0.0
 10
156.201074
 20
154.513392
 30
0.0
 10
155.732233
 20
154.982233
 30
0.0
  0
SPLINE
  5
24d
100
AcDbEntity
  8
Layer_1
 62
7
100
AcDbSpline
 70
8
 71
3
 72
8
 73
4
 74
0
 40
0
 40
0
 40
0
 40
0
 40
1
 40
1
 40
1
 40
1
 10
155.732233
 20
154.982233
 30
0.0
 10
155.263392
 20
155.451074
 30
0.0
 10
155.000000
 20
156.086959
 30
0.0
 10
155.000000
 20
156.750000
 30
0.0
  0
SPLINE
  5
24e
100
AcDbEntity
  8
Layer_1
 62
7
100
AcDbSpline
 70
8
 71
3
 72
8
 73
4
 74
0
 40
0
 40
0
 40
0
 40
0
 40
1
 40
1
 40
1
 40
1
 10
155.000000
 20
156.750000
 30
0.0
 10
155.000000
 20
157.413041
 30
0.0
 10
155.263392
 20
158.048926
 30
0.0
 10
155.732233
 20
158.517767
 30
0.0
  0
SPLINE
  5
24f
100
AcDbEntity
  8
Layer_1
 62
7
100
AcDbSpline
 70
8
 71
3
 72
8
 73
4
 74
0
 40
0
 40
0
 40
0
 40
0
 40
1
 40
1
 40
1
 40
1
 10
155.732233
 20
158.517767
 30
0.0
 10
156.201074
 20
158.986608
 30
0.0
 10
156.836959
 20
159.250000
 30
0.0
 10
157.500000
 20
159.250000
 30
0.0
  0
SPLINE
  5
250
100
AcDbEntity
  8
Layer_1
 62
7
100
AcDbSpline
 70
8
 71
3
 72
8
 73
4
 74
0
 40
0
 40
0
 40
0
 40
0
 40
1
 40
1
 40
1
 40
1
 10
157.500000
 20
159.250000
 30
0.0
 10
158.163041
 20
159.250000
 30
0.0
 10
158.798926
 20
158.986608
 30
0.0
 10
159.267767
 20
158.517767
 30
0.0
  0
SPLINE
  5
251
100
AcDbEntity
  8
Layer_1
 62
7
100
AcDbSpline
 70
8
 71
3
 72
8
 73
4
 74
0
 40
0
 40
0
 40
0
 40
0
 40
1
 40
1
 40
1
 40
1
 10
159.267767
 20
158.517767
 30
0.0
 10
159.736608
 20
158.048926
 30
0.0
 10
160.000000
 20
157.413041
 30
0.0
 10
160.000000
 20
156.750000
 30
0.0
  0
LINE
  5
252
100
AcDbEntity
  8
Layer_1
 62
7
100
AcDbLine
 10
160.000000
 20
156.750000
 30
0.0
 11
160.000000
 21
156.750000
 31
0.0
  0
SPLINE
  5
253
100
AcDbEntity
  8
Layer_1
 62
7
100
AcDbSpline
 70
8
 71
3
 72
8
 73
4
 74
0
 40
0
 40
0
 40
0
 40
0
 40
1
 40
1
 40
1
 40
1
 10
160.000000
 20
140.250000
 30
0.0
 10
160.000000
 20
139.586959
 30
0.0
 10
159.736608
 20
138.951074
 30
0.0
 10
159.267767
 20
138.482233
 30
0.0
  0
SPLINE
  5
254
100
AcDbEntity
  8
Layer_1
 62
7
100
AcDbSpline
 70
8
 71
3
 72
8
 73
4
 74
0
 40
0
 40
0
 40
0
 40
0
 40
1
 40
1
 40
1
 40
1
 10
159.267767
 20
138.482233
 30
0.0
 10
158.798926
 20
138.013392
 30
0.0
 10
158.163041
 20
137.750000
 30
0.0
 10
157.500000
 20
137.750000
 30
0.0
  0
SPLINE
  5
255
100
AcDbEntity
  8
Layer_1
 62
7
100
AcDbSpline
 70
8
 71
3
 72
8
 73
4
 74
0
 40
0
 40
0
 40
0
 40
0
 40
1
 40
1
 40
1
 40
1
 10
157.500000
 20
137.750000
 30
0.0
 10
156.836959
 20
137.750000
 30
0.0
 10
156.201074
 20
138.013392
 30
0.0
 10
155.732233
 20
138.482233
 30
0.0
  0
SPLINE
  5
256
100
AcDbEntity
  8
Layer_1
 62
7
100
AcDbSpline
 70
8
 71
3
 72
8
 73
4
 74
0
 40
0
 40
0
 40
0
 40
0
 40
1
 40
1
 40
1
 40
1
 10
155.732233
 20
138.482233
 30
0.0
 10
155.263392
 20
138.951074
 30
0.0
 10
155.000000
 20
139.586959
 30
0.0
 10
155.000000
 20
140.250000
 30
0.0
  0
SPLINE
  5
257
100
AcDbEntity
  8
Layer_1
 62
7
100
AcDbSpline
 70
8
 71
3
 72
8
 73
4
 74
0
 40
0
 40
0
 40
0
 40
0
 40
1
 40
1
 40
1
 40
1
 10
155.000000
 20
140.250000
 30
0.0
 10
155.000000
 20
140.913041
 30
0.0
 10
155.263392
 20
141.548926
 30
0.0
 10
155.732233
 20
142.017767
 30
0.0
  0
SPLINE
  5
258
100
AcDbEntity
  8
Layer_1
 62
7
100
AcDbSpline
 70
8
 71
3
 72
8
 73
4
 74
0
 40
0
 40
0
 40
0
 40
0
 40
1
 40
1
 40
1
 40
1
 10
155.732233
 20
142.017767
 30
0.0
 10
156.201074
 20
142.486608
 30
0.0
 10
156.836959
 20
142.750000
 30
0.0
 10
157.500000
 20
142.750000
 30
0.0
  0
SPLINE
  5
259
100
AcDbEntity
  8
Layer_1
 62
7
100
AcDbSpline
 70
8
 71
3
 72
8
 73
4
 74
0
 40
0
 40
0
 40
0
 40
0
 40
1
 40
1
 40
1
 40
1
 10
157.500000
 20
142.750000
 30
0.0
 10
158.163041
 20
142.750000
 30
0.0
 10
158.798926
 20
142.486608
 30
0.0
 10
159.267767
 20
142.017767
 30
0.0
  0
SPLINE
  5
25a
100
AcDbEntity
  8
Layer_1
 62
7
100
AcDbSpline
 70
8
 71
3
 72
8
 73
4
 74
0
 40
0
 40
0
 40
0
 40
0
 40
1
 40
1
 40
1
 40
1
 10
159.267767
 20
142.017767
 30
0.0
 10
159.736608
 20
141.548926
 30
0.0
 10
160.000000
 20
140.913041
 30
0.0
 10
160.000000
 20
140.250000
 30
0.0
  0
LINE
  5
25b
100
AcDbEntity
  8
Layer_1
 62
7
100
AcDbLine
 10
160.000000
 20
140.250000
 30
0.0
 11
160.000000
 21
140.250000
 31
0.0
  0
SPLINE
  5
25c
100
AcDbEntity
  8
Layer_1
 62
7
100
AcDbSpline
 70
8
 71
3
 72
8
 73
4
 74
0
 40
0
 40
0
 40
0
 40
0
 40
1
 40
1
 40
1
 40
1
 10
160.000000
 20
123.750000
 30
0.0
 10
160.000000
 20
123.086959
 30
0.0
 10
159.736608
 20
122.451074
 30
0.0
 10
159.267767
 20
121.982233
 30
0.0
  0
SPLINE
  5
25d
100
AcDbEntity
  8
Layer_1
 62
7
100
AcDbSpline
 70
8
 71
3
 72
8
 73
4
 74
0
 40
0
 40
0
 40
0
 40
0
 40
1
 40
1
 40
1
 40
1
 10
159.267767
 20
121.982233
 30
0.0
 10
158.798926
 20
121.513392
 30
0.0
 10
158.163041
 20
121.250000
 30
0.0
 10
157.500000
 20
121.250000
 30
0.0
  0
SPLINE
  5
25e
100
AcDbEntity
  8
Layer_1
 62
7
100
AcDbSpline
 70
8
 71
3
 72
8
 73
4
 74
0
 40
0
 40
0
 40
0
 40
0
 40
1
 40
1
 40
1
 40
1
 10
157.500000
 20
121.250000
 30
0.0
 10
156.836959
 20
121.250000
 30
0.0
 10
156.201074
 20
121.513392
 30
0.0
 10
155.732233
 20
121.982233
 30
0.0
  0
SPLINE
  5
25f
100
AcDbEntity
  8
Layer_1
 62
7
100
AcDbSpline
 70
8
 71
3
 72
8
 73
4
 74
0
 40
0
 40
0
 40
0
 40
0
 40
1
 40
1
 40
1
 40
1
 10
155.732233
 20
121.982233
 30
0.0
 10
155.263392
 20
122.451074
 30
0.0
 10
155.000000
 20
123.086959
 30
0.0
 10
155.000000
 20
123.750000
 30
0.0
  0
SPLINE
  5
260
100
AcDbEntity
  8
Layer_1
 62
7
100
AcDbSpline
 70
8
 71
3
 72
8
 73
4
 74
0
 40
0
 40
0
 40
0
 40
0
 40
1
 40
1
 40
1
 40
1
 10
155.000000
 20
123.750000
 30
0.0
 10
155.000000
 20
124.413041
 30
0.0
 10
155.263392
 20
125.048926
 30
0.0
 10
155.732233
 20
125.517767
 30
0.0
  0
SPLINE
  5
261
100
AcDbEntity
  8
Layer_1
 62
7
100
AcDbSpline
 70
8
 71
3
 72
8
 73
4
 74
0
 40
0
 40
0
 40
0
 40
0
 40
1
 40
1
 40
1
 40
1
 10
155.732233
 20
125.517767
 30
0.0
 10
156.201074
 20
125.986608
 30
0.0
 10
156.836959
 20
126.250000
 30
0.0
 10
157.500000
 20
126.250000
 30
0.0
  0
SPLINE
  5
262
100
AcDbEntity
  8
Layer_1
 62
7
100
AcDbSpline
 70
8
 71
3
 72
8
 73
4
 74
0
 40
0
 40
0
 40
0
 40
0
 40
1
 40
1
 40
1
 40
1
 10
157.500000
 20
126.250000
 30
0.0
 10
158.163041
 20
126.250000
 30
0.0
 10
158.798926
 20
125.986608
 30
0.0
 10
159.267767
 20
125.517767
 30
0.0
  0
SPLINE
  5
263
100
AcDbEntity
  8
Layer_1
 62
7
100
AcDbSpline
 70
8
 71
3
 72
8
 73
4
 74
0
 40
0
 40
0
 40
0
 40
0
 40
1
 40
1
 40
1
 40
1
 10
159.267767
 20
125.517767
 30
0.0
 10
159.736608
 20
125.048926
 30
0.0
 10
160.000000
 20
124.413041
 30
0.0
 10
160.000000
 20
123.750000
 30
0.0
  0
LINE
  5
264
100
AcDbEntity
  8
Layer_1
 62
7
100
AcDbLine
 10
160.000000
 20
123.750000
 30
0.0
 11
160.000000
 21
123.750000
 31
0.0
  0
SPLINE
  5
265
100
AcDbEntity
  8
Layer_1
 62
7
100
AcDbSpline
 70
8
 71
3
 72
8
 73
4
 74
0
 40
0
 40
0
 40
0
 40
0
 40
1
 40
1
 40
1
 40
1
 10
175.000000
 20
173.250000
 30
0.0
 10
175.000000
 20
172.586959
 30
0.0
 10
174.736608
 20
171.951074
 30
0.0
 10
174.267767
 20
171.482233
 30
0.0
  0
SPLINE
  5
266
100
AcDbEntity
  8
Layer_1
 62
7
100
AcDbSpline
 70
8
 71
3
 72
8
 73
4
 74
0
 40
0
 40
0
 40
0
 40
0
 40
1
 40
1
 40
1
 40
1
 10
174.267767
 20
171.482233
 30
0.0
 10
173.798926
 20
171.013392
 30
0.0
 10
173.163041
 20
170.750000
 30
0.0
 10
172.500000
 20
170.750000
 30
0.0
  0
SPLINE
  5
267
100
AcDbEntity
  8
Layer_1
 62
7
100
AcDbSpline
 70
8
 71
3
 72
8
 73
4
 74
0
 40
0
 40
0
 40
0
 40
0
 40
1
 40
1
 40
1
 40
1
 10
172.500000
 20
170.750000
 30
0.0
 10
171.836959
 20
170.750000
 30
0.0
 10
171.201074
 20
171.013392
 30
0.0
 10
170.732233
 20
171.482233
 30
0.0
  0
SPLINE
  5
268
100
AcDbEntity
  8
Layer_1
 62
7
100
AcDbSpline
 70
8
 71
3
 72
8
 73
4
 74
0
 40
0
 40
0
 40
0
 40
0
 40
1
 40
1
 40
1
 40
1
 10
170.732233
 20
171.482233
 30
0.0
 10
170.263392
 20
171.951074
 30
0.0
 10
170.000000
 20
172.586959
 30
0.0
 10
170.000000
 20
173.250000
 30
0.0
  0
SPLINE
  5
269
100
AcDbEntity
  8
Layer_1
 62
7
100
AcDbSpline
 70
8
 71
3
 72
8
 73
4
 74
0
 40
0
 40
0
 40
0
 40
0
 40
1
 40
1
 40
1
 40
1
 10
170.000000
 20
173.250000
 30
0.0
 10
170.000000
 20
173.913041
 30
0.0
 10
170.263392
 20
174.548926
 30
0.0
 10
170.732233
 20
175.017767
 30
0.0
  0
SPLINE
  5
26a
100
AcDbEntity
  8
Layer_1
 62
7
100
AcDbSpline
 70
8
 71
3
 72
8
 73
4
 74
0
 40
0
 40
0
 40
0
 40
0
 40
1
 40
1
 40
1
 40
1
 10
170.732233
 20
175.017767
 30
0.0
 10
171.201074
 20
175.486608
 30
0.0
 10
171.836959
 20
175.750000
 30
0.0
 10
172.500000
 20
175.750000
 30
0.0
  0
SPLINE
  5
26b
100
AcDbEntity
  8
Layer_1
 62
7
100
AcDbSpline
 70
8
 71
3
 72
8
 73
4
 74
0
 40
0
 40
0
 40
0
 40
0
 40
1
 40
1
 40
1
 40
1
 10
172.500000
 20
175.750000
 30
0.0
 10
173.163041
 20
175.750000
 30
0.0
 10
173.798926
 20
175.486608
 30
0.0
 10
174.267767
 20
175.017767
 30
0.0
  0
SPLINE
  5
26c
100
AcDbEntity
  8
Layer_1
 62
7
100
AcDbSpline
 70
8
 71
3
 72
8
 73
4
 74
0
 40
0
 40
0
 40
0
 40
0
 40
1
 40
1
 40
1
 40
1
 10
174.267767
 20
175.017767
 30
0.0
 10
174.736608
 20
174.548926
 30
0.0
 10
175.000000
 20
173.913041
 30
0.0
 10
175.000000
 20
173.250000
 30
0.0
  0
LINE
  5
26d
100
AcDbEntity
  8
Layer_1
 62
7
100
AcDbLine
 10
175.000000
 20
173.250000
 30
0.0
 11
175.000000
 21
173.250000
 31
0.0
  0
SPLINE
  5
26e
100
AcDbEntity
  8
Layer_1
 62
7
100
AcDbSpline
 70
8
 71
3
 72
8
 73
4
 74
0
 40
0
 40
0
 40
0
 40
0
 40
1
 40
1
 40
1
 40
1
 10
175.000000
 20
156.750000
 30
0.0
 10
175.000000
 20
156.086959
 30
0.0
 10
174.736608
 20
155.451074
 30
0.0
 10
174.267767
 20
154.982233
 30
0.0
  0
SPLINE
  5
26f
100
AcDbEntity
  8
Layer_1
 62
7
100
AcDbSpline
 70
8
 71
3
 72
8
 73
4
 74
0
 40
0
 40
0
 40
0
 40
0
 40
1
 40
1
 40
1
 40
1
 10
174.267767
 20
154.982233
 30
0.0
 10
173.798926
 20
154.513392
 30
0.0
 10
173.163041
 20
154.250000
 30
0.0
 10
172.500000
 20
154.250000
 30
0.0
  0
SPLINE
  5
270
100
AcDbEntity
  8
Layer_1
 62
7
100
AcDbSpline
 70
8
 71
3
 72
8
 73
4
 74
0
 40
0
 40
0
 40
0
 40
0
 40
1
 40
1
 40
1
 40
1
 10
172.500000
 20
154.250000
 30
0.0
 10
171.836959
 20
154.250000
 30
0.0
 10
171.201074
 20
154.513392
 30
0.0
 10
170.732233
 20
154.982233
 30
0.0
  0
SPLINE
  5
271
100
AcDbEntity
  8
Layer_1
 62
7
100
AcDbSpline
 70
8
 71
3
 72
8
 73
4
 74
0
 40
0
 40
0
 40
0
 40
0
 40
1
 40
1
 40
1
 40
1
 10
170.732233
 20
154.982233
 30
0.0
 10
170.263392
 20
155.451074
 30
0.0
 10
170.000000
 20
156.086959
 30
0.0
 10
170.000000
 20
156.750000
 30
0.0
  0
SPLINE
  5
272
100
AcDbEntity
  8
Layer_1
 62
7
100
AcDbSpline
 70
8
 71
3
 72
8
 73
4
 74
0
 40
0
 40
0
 40
0
 40
0
 40
1
 40
1
 40
1
 40
1
 10
170.000000
 20
156.750000
 30
0.0
 10
170.000000
 20
157.413041
 30
0.0
 10
170.263392
 20
158.048926
 30
0.0
 10
170.732233
 20
158.517767
 30
0.0
  0
SPLINE
  5
273
100
AcDbEntity
  8
Layer_1
 62
7
100
AcDbSpline
 70
8
 71
3
 72
8
 73
4
 74
0
 40
0
 40
0
 40
0
 40
0
 40
1
 40
1
 40
1
 40
1
 10
170.732233
 20
158.517767
 30
0.0
 10
171.201074
 20
158.986608
 30
0.0
 10
171.836959
 20
159.250000
 30
0.0
 10
172.500000
 20
159.250000
 30
0.0
  0
SPLINE
  5
274
100
AcDbEntity
  8
Layer_1
 62
7
100
AcDbSpline
 70
8
 71
3
 72
8
 73
4
 74
0
 40
0
 40
0
 40
0
 40
0
 40
1
 40
1
 40
1
 40
1
 10
172.500000
 20
159.250000
 30
0.0
 10
173.163041
 20
159.250000
 30
0.0
 10
173.798926
 20
158.986608
 30
0.0
 10
174.267767
 20
158.517767
 30
0.0
  0
SPLINE
  5
275
100
AcDbEntity
  8
Layer_1
 62
7
100
AcDbSpline
 70
8
 71
3
 72
8
 73
4
 74
0
 40
0
 40
0
 40
0
 40
0
 40
1
 40
1
 40
1
 40
1
 10
174.267767
 20
158.517767
 30
0.0
 10
174.736608
 20
158.048926
 30
0.0
 10
175.000000
 20
157.413041
 30
0.0
 10
175.000000
 20
156.750000
 30
0.0
  0
LINE
  5
276
100
AcDbEntity
  8
Layer_1
 62
7
100
AcDbLine
 10
175.000000
 20
156.750000
 30
0.0
 11
175.000000
 21
156.750000
 31
0.0
  0
SPLINE
  5
277
100
AcDbEntity
  8
Layer_1
 62
7
100
AcDbSpline
 70
8
 71
3
 72
8
 73
4
 74
0
 40
0
 40
0
 40
0
 40
0
 40
1
 40
1
 40
1
 40
1
 10
175.000000
 20
140.250000
 30
0.0
 10
175.000000
 20
139.586959
 30
0.0
 10
174.736608
 20
138.951074
 30
0.0
 10
174.267767
 20
138.482233
 30
0.0
  0
SPLINE
  5
278
100
AcDbEntity
  8
Layer_1
 62
7
100
AcDbSpline
 70
8
 71
3
 72
8
 73
4
 74
0
 40
0
 40
0
 40
0
 40
0
 40
1
 40
1
 40
1
 40
1
 10
174.267767
 20
138.482233
 30
0.0
 10
173.798926
 20
138.013392
 30
0.0
 10
173.163041
 20
137.750000
 30
0.0
 10
172.500000
 20
137.750000
 30
0.0
  0
SPLINE
  5
279
100
AcDbEntity
  8
Layer_1
 62
7
100
AcDbSpline
 70
8
 71
3
 72
8
 73
4
 74
0
 40
0
 40
0
 40
0
 40
0
 40
1
 40
1
 40
1
 40
1
 10
172.500000
 20
137.750000
 30
0.0
 10
171.836959
 20
137.750000
 30
0.0
 10
171.201074
 20
138.013392
 30
0.0
 10
170.732233
 20
138.482233
 30
0.0
  0
SPLINE
  5
27a
100
AcDbEntity
  8
Layer_1
 62
7
100
AcDbSpline
 70
8
 71
3
 72
8
 73
4
 74
0
 40
0
 40
0
 40
0
 40
0
 40
1
 40
1
 40
1
 40
1
 10
170.732233
 20
138.482233
 30
0.0
 10
170.263392
 20
138.951074
 30
0.0
 10
170.000000
 20
139.586959
 30
0.0
 10
170.000000
 20
140.250000
 30
0.0
  0
SPLINE
  5
27b
100
AcDbEntity
  8
Layer_1
 62
7
100
AcDbSpline
 70
8
 71
3
 72
8
 73
4
 74
0
 40
0
 40
0
 40
0
 40
0
 40
1
 40
1
 40
1
 40
1
 10
170.000000
 20
140.250000
 30
0.0
 10
170.000000
 20
140.913041
 30
0.0
 10
170.263392
 20
141.548926
 30
0.0
 10
170.732233
 20
142.017767
 30
0.0
  0
SPLINE
  5
27c
100
AcDbEntity
  8
Layer_1
 62
7
100
AcDbSpline
 70
8
 71
3
 72
8
 73
4
 74
0
 40
0
 40
0
 40
0
 40
0
 40
1
 40
1
 40
1
 40
1
 10
170.732233
 20
142.017767
 30
0.0
 10
171.201074
 20
142.486608
 30
0.0
 10
171.836959
 20
142.750000
 30
0.0
 10
172.500000
 20
142.750000
 30
0.0
  0
SPLINE
  5
27d
100
AcDbEntity
  8
Layer_1
 62
7
100
AcDbSpline
 70
8
 71
3
 72
8
 73
4
 74
0
 40
0
 40
0
 40
0
 40
0
 40
1
 40
1
 40
1
 40
1
 10
172.500000
 20
142.750000
 30
0.0
 10
173.163041
 20
142.750000
 30
0.0
 10
173.798926
 20
142.486608
 30
0.0
 10
174.267767
 20
142.017767
 30
0.0
  0
SPLINE
  5
27e
100
AcDbEntity
  8
Layer_1
 62
7
100
AcDbSpline
 70
8
 71
3
 72
8
 73
4
 74
0
 40
0
 40
0
 40
0
 40
0
 40
1
 40
1
 40
1
 40
1
 10
174.267767
 20
142.017767
 30
0.0
 10
174.736608
 20
141.548926
 30
0.0
 10
175.000000
 20
140.913041
 30
0.0
 10
175.000000
 20
140.250000
 30
0.0
  0
LINE
  5
27f
100
AcDbEntity
  8
Layer_1
 62
7
100
AcDbLine
 10
175.000000
 20
140.250000
 30
0.0
 11
175.000000
 21
140.250000
 31
0.0
  0
SPLINE
  5
280
100
AcDbEntity
  8
Layer_1
 62
7
100
AcDbSpline
 70
8
 71
3
 72
8
 73
4
 74
0
 40
0
 40
0
 40
0
 40
0
 40
1
 40
1
 40
1
 40
1
 10
175.000000
 20
123.750000
 30
0.0
 10
175.000000
 20
123.086959
 30
0.0
 10
174.736608
 20
122.451074
 30
0.0
 10
174.267767
 20
121.982233
 30
0.0
  0
SPLINE
  5
281
100
AcDbEntity
  8
Layer_1
 62
7
100
AcDbSpline
 70
8
 71
3
 72
8
 73
4
 74
0
 40
0
 40
0
 40
0
 40
0
 40
1
 40
1
 40
1
 40
1
 10
174.267767
 20
121.982233
 30
0.0
 10
173.798926
 20
121.513392
 30
0.0
 10
173.163041
 20
121.250000
 30
0.0
 10
172.500000
 20
121.250000
 30
0.0
  0
SPLINE
  5
282
100
AcDbEntity
  8
Layer_1
 62
7
100
AcDbSpline
 70
8
 71
3
 72
8
 73
4
 74
0
 40
0
 40
0
 40
0
 40
0
 40
1
 40
1
 40
1
 40
1
 10
172.500000
 20
121.250000
 30
0.0
 10
171.836959
 20
121.250000
 30
0.0
 10
171.201074
 20
121.513392
 30
0.0
 10
170.732233
 20
121.982233
 30
0.0
  0
SPLINE
  5
283
100
AcDbEntity
  8
Layer_1
 62
7
100
AcDbSpline
 70
8
 71
3
 72
8
 73
4
 74
0
 40
0
 40
0
 40
0
 40
0
 40
1
 40
1
 40
1
 40
1
 10
170.732233
 20
121.982233
 30
0.0
 10
170.263392
 20
122.451074
 30
0.0
 10
170.000000
 20
123.086959
 30
0.0
 10
170.000000
 20
123.750000
 30
0.0
  0
SPLINE
  5
284
100
AcDbEntity
  8
Layer_1
 62
7
100
AcDbSpline
 70
8
 71
3
 72
8
 73
4
 74
0
 40
0
 40
0
 40
0
 40
0
 40
1
 40
1
 40
1
 40
1
 10
170.000000
 20
123.750000
 30
0.0
 10
170.000000
 20
124.413041
 30
0.0
 10
170.263392
 20
125.048926
 30
0.0
 10
170.732233
 20
125.517767
 30
0.0
  0
SPLINE
  5
285
100
AcDbEntity
  8
Layer_1
 62
7
100
AcDbSpline
 70
8
 71
3
 72
8
 73
4
 74
0
 40
0
 40
0
 40
0
 40
0
 40
1
 40
1
 40
1
 40
1
 10
170.732233
 20
125.517767
 30
0.0
 10
171.201074
 20
125.986608
 30
0.0
 10
171.836959
 20
126.250000
 30
0.0
 10
172.500000
 20
126.250000
 30
0.0
  0
SPLINE
  5
286
100
AcDbEntity
  8
Layer_1
 62
7
100
AcDbSpline
 70
8
 71
3
 72
8
 73
4
 74
0
 40
0
 40
0
 40
0
 40
0
 40
1
 40
1
 40
1
 40
1
 10
172.500000
 20
126.250000
 30
0.0
 10
173.163041
 20
126.250000
 30
0.0
 10
173.798926
 20
125.986608
 30
0.0
 10
174.267767
 20
125.517767
 30
0.0
  0
SPLINE
  5
287
100
AcDbEntity
  8
Layer_1
 62
7
100
AcDbSpline
 70
8
 71
3
 72
8
 73
4
 74
0
 40
0
 40
0
 40
0
 40
0
 40
1
 40
1
 40
1
 40
1
 10
174.267767
 20
125.517767
 30
0.0
 10
174.736608
 20
125.048926
 30
0.0
 10
175.000000
 20
124.413041
 30
0.0
 10
175.000000
 20
123.750000
 30
0.0
  0
LINE
  5
288
100
AcDbEntity
  8
Layer_1
 62
7
100
AcDbLine
 10
175.000000
 20
123.750000
 30
0.0
 11
175.000000
 21
123.750000
 31
0.0
  0
SPLINE
  5
289
100
AcDbEntity
  8
Layer_1
 62
7
100
AcDbSpline
 70
8
 71
3
 72
8
 73
4
 74
0
 40
0
 40
0
 40
0
 40
0
 40
1
 40
1
 40
1
 40
1
 10
47.500011
 20
164.999980
 30
0.0
 10
47.500011
 20
164.336939
 30
0.0
 10
47.236619
 20
163.701054
 30
0.0
 10
46.767778
 20
163.232213
 30
0.0
  0
SPLINE
  5
28a
100
AcDbEntity
  8
Layer_1
 62
7
100
AcDbSpline
 70
8
 71
3
 72
8
 73
4
 74
0
 40
0
 40
0
 40
0
 40
0
 40
1
 40
1
 40
1
 40
1
 10
46.767778
 20
163.232213
 30
0.0
 10
46.298937
 20
162.763372
 30
0.0
 10
45.663052
 20
162.499980
 30
0.0
 10
45.000011
 20
162.499980
 30
0.0
  0
SPLINE
  5
28b
100
AcDbEntity
  8
Layer_1
 62
7
100
AcDbSpline
 70
8
 71
3
 72
8
 73
4
 74
0
 40
0
 40
0
 40
0
 40
0
 40
1
 40
1
 40
1
 40
1
 10
45.000011
 20
162.499980
 30
0.0
 10
44.336970
 20
162.499980
 30
0.0
 10
43.701085
 20
162.763372
 30
0.0
 10
43.232244
 20
163.232213
 30
0.0
  0
SPLINE
  5
28c
100
AcDbEntity
  8
Layer_1
 62
7
100
AcDbSpline
 70
8
 71
3
 72
8
 73
4
 74
0
 40
0
 40
0
 40
0
 40
0
 40
1
 40
1
 40
1
 40
1
 10
43.232244
 20
163.232213
 30
0.0
 10
42.763403
 20
163.701054
 30
0.0
 10
42.500011
 20
164.336939
 30
0.0
 10
42.500011
 20
164.999980
 30
0.0
  0
SPLINE
  5
28d
100
AcDbEntity
  8
Layer_1
 62
7
100
AcDbSpline
 70
8
 71
3
 72
8
 73
4
 74
0
 40
0
 40
0
 40
0
 40
0
 40
1
 40
1
 40
1
 40
1
 10
42.500011
 20
164.999980
 30
0.0
 10
42.500011
 20
165.663021
 30
0.0
 10
42.763403
 20
166.298906
 30
0.0
 10
43.232244
 20
166.767747
 30
0.0
  0
SPLINE
  5
28e
100
AcDbEntity
  8
Layer_1
 62
7
100
AcDbSpline
 70
8
 71
3
 72
8
 73
4
 74
0
 40
0
 40
0
 40
0
 40
0
 40
1
 40
1
 40
1
 40
1
 10
43.232244
 20
166.767747
 30
0.0
 10
43.701085
 20
167.236588
 30
0.0
 10
44.336970
 20
167.499980
 30
0.0
 10
45.000011
 20
167.499980
 30
0.0
  0
SPLINE
  5
28f
100
AcDbEntity
  8
Layer_1
 62
7
100
AcDbSpline
 70
8
 71
3
 72
8
 73
4
 74
0
 40
0
 40
0
 40
0
 40
0
 40
1
 40
1
 40
1
 40
1
 10
45.000011
 20
167.499980
 30
0.0
 10
45.663052
 20
167.499980
 30
0.0
 10
46.298937
 20
167.236588
 30
0.0
 10
46.767778
 20
166.767747
 30
0.0
  0
SPLINE
  5
290
100
AcDbEntity
  8
Layer_1
 62
7
100
AcDbSpline
 70
8
 71
3
 72
8
 73
4
 74
0
 40
0
 40
0
 40
0
 40
0
 40
1
 40
1
 40
1
 40
1
 10
46.767778
 20
166.767747
 30
0.0
 10
47.236619
 20
166.298906
 30
0.0
 10
47.500011
 20
165.663021
 30
0.0
 10
47.500011
 20
164.999980
 30
0.0
  0
LINE
  5
291
100
AcDbEntity
  8
Layer_1
 62
7
100
AcDbLine
 10
47.500011
 20
164.999980
 30
0.0
 11
47.500011
 21
164.999980
 31
0.0
  0
SPLINE
  5
292
100
AcDbEntity
  8
Layer_1
 62
7
100
AcDbSpline
 70
8
 71
3
 72
8
 73
4
 74
0
 40
0
 40
0
 40
0
 40
0
 40
1
 40
1
 40
1
 40
1
 10
47.500023
 20
165.000000
 30
0.0
 10
47.500023
 20
164.336959
 30
0.0
 10
47.236631
 20
163.701074
 30
0.0
 10
46.767790
 20
163.232233
 30
0.0
  0
SPLINE
  5
293
100
AcDbEntity
  8
Layer_1
 62
7
100
AcDbSpline
 70
8
 71
3
 72
8
 73
4
 74
0
 40
0
 40
0
 40
0
 40
0
 40
1
 40
1
 40
1
 40
1
 10
46.767790
 20
163.232233
 30
0.0
 10
46.298949
 20
162.763392
 30
0.0
 10
45.663064
 20
162.500000
 30
0.0
 10
45.000023
 20
162.500000
 30
0.0
  0
SPLINE
  5
294
100
AcDbEntity
  8
Layer_1
 62
7
100
AcDbSpline
 70
8
 71
3
 72
8
 73
4
 74
0
 40
0
 40
0
 40
0
 40
0
 40
1
 40
1
 40
1
 40
1
 10
45.000023
 20
162.500000
 30
0.0
 10
44.336982
 20
162.500000
 30
0.0
 10
43.701097
 20
162.763392
 30
0.0
 10
43.232256
 20
163.232233
 30
0.0
  0
SPLINE
  5
295
100
AcDbEntity
  8
Layer_1
 62
7
100
AcDbSpline
 70
8
 71
3
 72
8
 73
4
 74
0
 40
0
 40
0
 40
0
 40
0
 40
1
 40
1
 40
1
 40
1
 10
43.232256
 20
163.232233
 30
0.0
 10
42.763415
 20
163.701074
 30
0.0
 10
42.500023
 20
164.336959
 30
0.0
 10
42.500023
 20
165.000000
 30
0.0
  0
SPLINE
  5
296
100
AcDbEntity
  8
Layer_1
 62
7
100
AcDbSpline
 70
8
 71
3
 72
8
 73
4
 74
0
 40
0
 40
0
 40
0
 40
0
 40
1
 40
1
 40
1
 40
1
 10
42.500023
 20
165.000000
 30
0.0
 10
42.500023
 20
165.663041
 30
0.0
 10
42.763415
 20
166.298926
 30
0.0
 10
43.232256
 20
166.767767
 30
0.0
  0
SPLINE
  5
297
100
AcDbEntity
  8
Layer_1
 62
7
100
AcDbSpline
 70
8
 71
3
 72
8
 73
4
 74
0
 40
0
 40
0
 40
0
 40
0
 40
1
 40
1
 40
1
 40
1
 10
43.232256
 20
166.767767
 30
0.0
 10
43.701097
 20
167.236608
 30
0.0
 10
44.336982
 20
167.500000
 30
0.0
 10
45.000023
 20
167.500000
 30
0.0
  0
SPLINE
  5
298
100
AcDbEntity
  8
Layer_1
 62
7
100
AcDbSpline
 70
8
 71
3
 72
8
 73
4
 74
0
 40
0
 40
0
 40
0
 40
0
 40
1
 40
1
 40
1
 40
1
 10
45.000023
 20
167.500000
 30
0.0
 10
45.663064
 20
167.500000
 30
0.0
 10
46.298949
 20
167.236608
 30
0.0
 10
46.767790
 20
166.767767
 30
0.0
  0
SPLINE
  5
299
100
AcDbEntity
  8
Layer_1
 62
7
100
AcDbSpline
 70
8
 71
3
 72
8
 73
4
 74
0
 40
0
 40
0
 40
0
 40
0
 40
1
 40
1
 40
1
 40
1
 10
46.767790
 20
166.767767
 30
0.0
 10
47.236631
 20
166.298926
 30
0.0
 10
47.500023
 20
165.663041
 30
0.0
 10
47.500023
 20
165.000000
 30
0.0
  0
LINE
  5
29a
100
AcDbEntity
  8
Layer_1
 62
7
100
AcDbLine
 10
47.500023
 20
165.000000
 30
0.0
 11
47.500023
 21
165.000000
 31
0.0
  0
SPLINE
  5
29b
100
AcDbEntity
  8
Layer_1
 62
7
100
AcDbSpline
 70
8
 71
3
 72
8
 73
4
 74
0
 40
0
 40
0
 40
0
 40
0
 40
1
 40
1
 40
1
 40
1
 10
47.500023
 20
148.500000
 30
0.0
 10
47.500023
 20
147.836959
 30
0.0
 10
47.236631
 20
147.201074
 30
0.0
 10
46.767790
 20
146.732233
 30
0.0
  0
SPLINE
  5
29c
100
AcDbEntity
  8
Layer_1
 62
7
100
AcDbSpline
 70
8
 71
3
 72
8
 73
4
 74
0
 40
0
 40
0
 40
0
 40
0
 40
1
 40
1
 40
1
 40
1
 10
46.767790
 20
146.732233
 30
0.0
 10
46.298949
 20
146.263392
 30
0.0
 10
45.663064
 20
146.000000
 30
0.0
 10
45.000023
 20
146.000000
 30
0.0
  0
SPLINE
  5
29d
100
AcDbEntity
  8
Layer_1
 62
7
100
AcDbSpline
 70
8
 71
3
 72
8
 73
4
 74
0
 40
0
 40
0
 40
0
 40
0
 40
1
 40
1
 40
1
 40
1
 10
45.000023
 20
146.000000
 30
0.0
 10
44.336982
 20
146.000000
 30
0.0
 10
43.701097
 20
146.263392
 30
0.0
 10
43.232256
 20
146.732233
 30
0.0
  0
SPLINE
  5
29e
100
AcDbEntity
  8
Layer_1
 62
7
100
AcDbSpline
 70
8
 71
3
 72
8
 73
4
 74
0
 40
0
 40
0
 40
0
 40
0
 40
1
 40
1
 40
1
 40
1
 10
43.232256
 20
146.732233
 30
0.0
 10
42.763415
 20
147.201074
 30
0.0
 10
42.500023
 20
147.836959
 30
0.0
 10
42.500023
 20
148.500000
 30
0.0
  0
SPLINE
  5
29f
100
AcDbEntity
  8
Layer_1
 62
7
100
AcDbSpline
 70
8
 71
3
 72
8
 73
4
 74
0
 40
0
 40
0
 40
0
 40
0
 40
1
 40
1
 40
1
 40
1
 10
42.500023
 20
148.500000
 30
0.0
 10
42.500023
 20
149.163041
 30
0.0
 10
42.763415
 20
149.798926
 30
0.0
 10
43.232256
 20
150.267767
 30
0.0
  0
SPLINE
  5
2a0
100
AcDbEntity
  8
Layer_1
 62
7
100
AcDbSpline
 70
8
 71
3
 72
8
 73
4
 74
0
 40
0
 40
0
 40
0
 40
0
 40
1
 40
1
 40
1
 40
1
 10
43.232256
 20
150.267767
 30
0.0
 10
43.701097
 20
150.736608
 30
0.0
 10
44.336982
 20
151.000000
 30
0.0
 10
45.000023
 20
151.000000
 30
0.0
  0
SPLINE
  5
2a1
100
AcDbEntity
  8
Layer_1
 62
7
100
AcDbSpline
 70
8
 71
3
 72
8
 73
4
 74
0
 40
0
 40
0
 40
0
 40
0
 40
1
 40
1
 40
1
 40
1
 10
45.000023
 20
151.000000
 30
0.0
 10
45.663064
 20
151.000000
 30
0.0
 10
46.298949
 20
150.736608
 30
0.0
 10
46.767790
 20
150.267767
 30
0.0
  0
SPLINE
  5
2a2
100
AcDbEntity
  8
Layer_1
 62
7
100
AcDbSpline
 70
8
 71
3
 72
8
 73
4
 74
0
 40
0
 40
0
 40
0
 40
0
 40
1
 40
1
 40
1
 40
1
 10
46.767790
 20
150.267767
 30
0.0
 10
47.236631
 20
149.798926
 30
0.0
 10
47.500023
 20
149.163041
 30
0.0
 10
47.500023
 20
148.500000
 30
0.0
  0
LINE
  5
2a3
100
AcDbEntity
  8
Layer_1
 62
7
100
AcDbLine
 10
47.500023
 20
148.500000
 30
0.0
 11
47.500023
 21
148.500000
 31
0.0
  0
SPLINE
  5
2a4
100
AcDbEntity
  8
Layer_1
 62
7
100
AcDbSpline
 70
8
 71
3
 72
8
 73
4
 74
0
 40
0
 40
0
 40
0
 40
0
 40
1
 40
1
 40
1
 40
1
 10
47.500023
 20
132.000000
 30
0.0
 10
47.500023
 20
131.336959
 30
0.0
 10
47.236631
 20
130.701074
 30
0.0
 10
46.767790
 20
130.232233
 30
0.0
  0
SPLINE
  5
2a5
100
AcDbEntity
  8
Layer_1
 62
7
100
AcDbSpline
 70
8
 71
3
 72
8
 73
4
 74
0
 40
0
 40
0
 40
0
 40
0
 40
1
 40
1
 40
1
 40
1
 10
46.767790
 20
130.232233
 30
0.0
 10
46.298949
 20
129.763392
 30
0.0
 10
45.663064
 20
129.500000
 30
0.0
 10
45.000023
 20
129.500000
 30
0.0
  0
SPLINE
  5
2a6
100
AcDbEntity
  8
Layer_1
 62
7
100
AcDbSpline
 70
8
 71
3
 72
8
 73
4
 74
0
 40
0
 40
0
 40
0
 40
0
 40
1
 40
1
 40
1
 40
1
 10
45.000023
 20
129.500000
 30
0.0
 10
44.336982
 20
129.500000
 30
0.0
 10
43.701097
 20
129.763392
 30
0.0
 10
43.232256
 20
130.232233
 30
0.0
  0
SPLINE
  5
2a7
100
AcDbEntity
  8
Layer_1
 62
7
100
AcDbSpline
 70
8
 71
3
 72
8
 73
4
 74
0
 40
0
 40
0
 40
0
 40
0
 40
1
 40
1
 40
1
 40
1
 10
43.232256
 20
130.232233
 30
0.0
 10
42.763415
 20
130.701074
 30
0.0
 10
42.500023
 20
131.336959
 30
0.0
 10
42.500023
 20
132.000000
 30
0.0
  0
SPLINE
  5
2a8
100
AcDbEntity
  8
Layer_1
 62
7
100
AcDbSpline
 70
8
 71
3
 72
8
 73
4
 74
0
 40
0
 40
0
 40
0
 40
0
 40
1
 40
1
 40
1
 40
1
 10
42.500023
 20
132.000000
 30
0.0
 10
42.500023
 20
132.663041
 30
0.0
 10
42.763415
 20
133.298926
 30
0.0
 10
43.232256
 20
133.767767
 30
0.0
  0
SPLINE
  5
2a9
100
AcDbEntity
  8
Layer_1
 62
7
100
AcDbSpline
 70
8
 71
3
 72
8
 73
4
 74
0
 40
0
 40
0
 40
0
 40
0
 40
1
 40
1
 40
1
 40
1
 10
43.232256
 20
133.767767
 30
0.0
 10
43.701097
 20
134.236608
 30
0.0
 10
44.336982
 20
134.500000
 30
0.0
 10
45.000023
 20
134.500000
 30
0.0
  0
SPLINE
  5
2aa
100
AcDbEntity
  8
Layer_1
 62
7
100
AcDbSpline
 70
8
 71
3
 72
8
 73
4
 74
0
 40
0
 40
0
 40
0
 40
0
 40
1
 40
1
 40
1
 40
1
 10
45.000023
 20
134.500000
 30
0.0
 10
45.663064
 20
134.500000
 30
0.0
 10
46.298949
 20
134.236608
 30
0.0
 10
46.767790
 20
133.767767
 30
0.0
  0
SPLINE
  5
2ab
100
AcDbEntity
  8
Layer_1
 62
7
100
AcDbSpline
 70
8
 71
3
 72
8
 73
4
 74
0
 40
0
 40
0
 40
0
 40
0
 40
1
 40
1
 40
1
 40
1
 10
46.767790
 20
133.767767
 30
0.0
 10
47.236631
 20
133.298926
 30
0.0
 10
47.500023
 20
132.663041
 30
0.0
 10
47.500023
 20
132.000000
 30
0.0
  0
LINE
  5
2ac
100
AcDbEntity
  8
Layer_1
 62
7
100
AcDbLine
 10
47.500023
 20
132.000000
 30
0.0
 11
47.500023
 21
132.000000
 31
0.0
  0
SPLINE
  5
2ad
100
AcDbEntity
  8
Layer_1
 62
7
100
AcDbSpline
 70
8
 71
3
 72
8
 73
4
 74
0
 40
0
 40
0
 40
0
 40
0
 40
1
 40
1
 40
1
 40
1
 10
62.500019
 20
165.000000
 30
0.0
 10
62.500019
 20
164.336959
 30
0.0
 10
62.236627
 20
163.701074
 30
0.0
 10
61.767786
 20
163.232233
 30
0.0
  0
SPLINE
  5
2ae
100
AcDbEntity
  8
Layer_1
 62
7
100
AcDbSpline
 70
8
 71
3
 72
8
 73
4
 74
0
 40
0
 40
0
 40
0
 40
0
 40
1
 40
1
 40
1
 40
1
 10
61.767786
 20
163.232233
 30
0.0
 10
61.298945
 20
162.763392
 30
0.0
 10
60.663060
 20
162.500000
 30
0.0
 10
60.000019
 20
162.500000
 30
0.0
  0
SPLINE
  5
2af
100
AcDbEntity
  8
Layer_1
 62
7
100
AcDbSpline
 70
8
 71
3
 72
8
 73
4
 74
0
 40
0
 40
0
 40
0
 40
0
 40
1
 40
1
 40
1
 40
1
 10
60.000019
 20
162.500000
 30
0.0
 10
59.336978
 20
162.500000
 30
0.0
 10
58.701093
 20
162.763392
 30
0.0
 10
58.232252
 20
163.232233
 30
0.0
  0
SPLINE
  5
2b0
100
AcDbEntity
  8
Layer_1
 62
7
100
AcDbSpline
 70
8
 71
3
 72
8
 73
4
 74
0
 40
0
 40
0
 40
0
 40
0
 40
1
 40
1
 40
1
 40
1
 10
58.232252
 20
163.232233
 30
0.0
 10
57.763411
 20
163.701074
 30
0.0
 10
57.500019
 20
164.336959
 30
0.0
 10
57.500019
 20
165.000000
 30
0.0
  0
SPLINE
  5
2b1
100
AcDbEntity
  8
Layer_1
 62
7
100
AcDbSpline
 70
8
 71
3
 72
8
 73
4
 74
0
 40
0
 40
0
 40
0
 40
0
 40
1
 40
1
 40
1
 40
1
 10
57.500019
 20
165.000000
 30
0.0
 10
57.500019
 20
165.663041
 30
0.0
 10
57.763411
 20
166.298926
 30
0.0
 10
58.232252
 20
166.767767
 30
0.0
  0
SPLINE
  5
2b2
100
AcDbEntity
  8
Layer_1
 62
7
100
AcDbSpline
 70
8
 71
3
 72
8
 73
4
 74
0
 40
0
 40
0
 40
0
 40
0
 40
1
 40
1
 40
1
 40
1
 10
58.232252
 20
166.767767
 30
0.0
 10
58.701093
 20
167.236608
 30
0.0
 10
59.336978
 20
167.500000
 30
0.0
 10
60.000019
 20
167.500000
 30
0.0
  0
SPLINE
  5
2b3
100
AcDbEntity
  8
Layer_1
 62
7
100
AcDbSpline
 70
8
 71
3
 72
8
 73
4
 74
0
 40
0
 40
0
 40
0
 40
0
 40
1
 40
1
 40
1
 40
1
 10
60.000019
 20
167.500000
 30
0.0
 10
60.663060
 20
167.500000
 30
0.0
 10
61.298945
 20
167.236608
 30
0.0
 10
61.767786
 20
166.767767
 30
0.0
  0
SPLINE
  5
2b4
100
AcDbEntity
  8
Layer_1
 62
7
100
AcDbSpline
 70
8
 71
3
 72
8
 73
4
 74
0
 40
0
 40
0
 40
0
 40
0
 40
1
 40
1
 40
1
 40
1
 10
61.767786
 20
166.767767
 30
0.0
 10
62.236627
 20
166.298926
 30
0.0
 10
62.500019
 20
165.663041
 30
0.0
 10
62.500019
 20
165.000000
 30
0.0
  0
LINE
  5
2b5
100
AcDbEntity
  8
Layer_1
 62
7
100
AcDbLine
 10
62.500019
 20
165.000000
 30
0.0
 11
62.500019
 21
165.000000
 31
0.0
  0
SPLINE
  5
2b6
100
AcDbEntity
  8
Layer_1
 62
7
100
AcDbSpline
 70
8
 71
3
 72
8
 73
4
 74
0
 40
0
 40
0
 40
0
 40
0
 40
1
 40
1
 40
1
 40
1
 10
62.500019
 20
148.500000
 30
0.0
 10
62.500019
 20
147.836959
 30
0.0
 10
62.236627
 20
147.201074
 30
0.0
 10
61.767786
 20
146.732233
 30
0.0
  0
SPLINE
  5
2b7
100
AcDbEntity
  8
Layer_1
 62
7
100
AcDbSpline
 70
8
 71
3
 72
8
 73
4
 74
0
 40
0
 40
0
 40
0
 40
0
 40
1
 40
1
 40
1
 40
1
 10
61.767786
 20
146.732233
 30
0.0
 10
61.298945
 20
146.263392
 30
0.0
 10
60.663060
 20
146.000000
 30
0.0
 10
60.000019
 20
146.000000
 30
0.0
  0
SPLINE
  5
2b8
100
AcDbEntity
  8
Layer_1
 62
7
100
AcDbSpline
 70
8
 71
3
 72
8
 73
4
 74
0
 40
0
 40
0
 40
0
 40
0
 40
1
 40
1
 40
1
 40
1
 10
60.000019
 20
146.000000
 30
0.0
 10
59.336978
 20
146.000000
 30
0.0
 10
58.701093
 20
146.263392
 30
0.0
 10
58.232252
 20
146.732233
 30
0.0
  0
SPLINE
  5
2b9
100
AcDbEntity
  8
Layer_1
 62
7
100
AcDbSpline
 70
8
 71
3
 72
8
 73
4
 74
0
 40
0
 40
0
 40
0
 40
0
 40
1
 40
1
 40
1
 40
1
 10
58.232252
 20
146.732233
 30
0.0
 10
57.763411
 20
147.201074
 30
0.0
 10
57.500019
 20
147.836959
 30
0.0
 10
57.500019
 20
148.500000
 30
0.0
  0
SPLINE
  5
2ba
100
AcDbEntity
  8
Layer_1
 62
7
100
AcDbSpline
 70
8
 71
3
 72
8
 73
4
 74
0
 40
0
 40
0
 40
0
 40
0
 40
1
 40
1
 40
1
 40
1
 10
57.500019
 20
148.500000
 30
0.0
 10
57.500019
 20
149.163041
 30
0.0
 10
57.763411
 20
149.798926
 30
0.0
 10
58.232252
 20
150.267767
 30
0.0
  0
SPLINE
  5
2bb
100
AcDbEntity
  8
Layer_1
 62
7
100
AcDbSpline
 70
8
 71
3
 72
8
 73
4
 74
0
 40
0
 40
0
 40
0
 40
0
 40
1
 40
1
 40
1
 40
1
 10
58.232252
 20
150.267767
 30
0.0
 10
58.701093
 20
150.736608
 30
0.0
 10
59.336978
 20
151.000000
 30
0.0
 10
60.000019
 20
151.000000
 30
0.0
  0
SPLINE
  5
2bc
100
AcDbEntity
  8
Layer_1
 62
7
100
AcDbSpline
 70
8
 71
3
 72
8
 73
4
 74
0
 40
0
 40
0
 40
0
 40
0
 40
1
 40
1
 40
1
 40
1
 10
60.000019
 20
151.000000
 30
0.0
 10
60.663060
 20
151.000000
 30
0.0
 10
61.298945
 20
150.736608
 30
0.0
 10
61.767786
 20
150.267767
 30
0.0
  0
SPLINE
  5
2bd
100
AcDbEntity
  8
Layer_1
 62
7
100
AcDbSpline
 70
8
 71
3
 72
8
 73
4
 74
0
 40
0
 40
0
 40
0
 40
0
 40
1
 40
1
 40
1
 40
1
 10
61.767786
 20
150.267767
 30
0.0
 10
62.236627
 20
149.798926
 30
0.0
 10
62.500019
 20
149.163041
 30
0.0
 10
62.500019
 20
148.500000
 30
0.0
  0
LINE
  5
2be
100
AcDbEntity
  8
Layer_1
 62
7
100
AcDbLine
 10
62.500019
 20
148.500000
 30
0.0
 11
62.500019
 21
148.500000
 31
0.0
  0
SPLINE
  5
2bf
100
AcDbEntity
  8
Layer_1
 62
7
100
AcDbSpline
 70
8
 71
3
 72
8
 73
4
 74
0
 40
0
 40
0
 40
0
 40
0
 40
1
 40
1
 40
1
 40
1
 10
62.500019
 20
132.000000
 30
0.0
 10
62.500019
 20
131.336959
 30
0.0
 10
62.236627
 20
130.701074
 30
0.0
 10
61.767786
 20
130.232233
 30
0.0
  0
SPLINE
  5
2c0
100
AcDbEntity
  8
Layer_1
 62
7
100
AcDbSpline
 70
8
 71
3
 72
8
 73
4
 74
0
 40
0
 40
0
 40
0
 40
0
 40
1
 40
1
 40
1
 40
1
 10
61.767786
 20
130.232233
 30
0.0
 10
61.298945
 20
129.763392
 30
0.0
 10
60.663060
 20
129.500000
 30
0.0
 10
60.000019
 20
129.500000
 30
0.0
  0
SPLINE
  5
2c1
100
AcDbEntity
  8
Layer_1
 62
7
100
AcDbSpline
 70
8
 71
3
 72
8
 73
4
 74
0
 40
0
 40
0
 40
0
 40
0
 40
1
 40
1
 40
1
 40
1
 10
60.000019
 20
129.500000
 30
0.0
 10
59.336978
 20
129.500000
 30
0.0
 10
58.701093
 20
129.763392
 30
0.0
 10
58.232252
 20
130.232233
 30
0.0
  0
SPLINE
  5
2c2
100
AcDbEntity
  8
Layer_1
 62
7
100
AcDbSpline
 70
8
 71
3
 72
8
 73
4
 74
0
 40
0
 40
0
 40
0
 40
0
 40
1
 40
1
 40
1
 40
1
 10
58.232252
 20
130.232233
 30
0.0
 10
57.763411
 20
130.701074
 30
0.0
 10
57.500019
 20
131.336959
 30
0.0
 10
57.500019
 20
132.000000
 30
0.0
  0
SPLINE
  5
2c3
100
AcDbEntity
  8
Layer_1
 62
7
100
AcDbSpline
 70
8
 71
3
 72
8
 73
4
 74
0
 40
0
 40
0
 40
0
 40
0
 40
1
 40
1
 40
1
 40
1
 10
57.500019
 20
132.000000
 30
0.0
 10
57.500019
 20
132.663041
 30
0.0
 10
57.763411
 20
133.298926
 30
0.0
 10
58.232252
 20
133.767767
 30
0.0
  0
SPLINE
  5
2c4
100
AcDbEntity
  8
Layer_1
 62
7
100
AcDbSpline
 70
8
 71
3
 72
8
 73
4
 74
0
 40
0
 40
0
 40
0
 40
0
 40
1
 40
1
 40
1
 40
1
 10
58.232252
 20
133.767767
 30
0.0
 10
58.701093
 20
134.236608
 30
0.0
 10
59.336978
 20
134.500000
 30
0.0
 10
60.000019
 20
134.500000
 30
0.0
  0
SPLINE
  5
2c5
100
AcDbEntity
  8
Layer_1
 62
7
100
AcDbSpline
 70
8
 71
3
 72
8
 73
4
 74
0
 40
0
 40
0
 40
0
 40
0
 40
1
 40
1
 40
1
 40
1
 10
60.000019
 20
134.500000
 30
0.0
 10
60.663060
 20
134.500000
 30
0.0
 10
61.298945
 20
134.236608
 30
0.0
 10
61.767786
 20
133.767767
 30
0.0
  0
SPLINE
  5
2c6
100
AcDbEntity
  8
Layer_1
 62
7
100
AcDbSpline
 70
8
 71
3
 72
8
 73
4
 74
0
 40
0
 40
0
 40
0
 40
0
 40
1
 40
1
 40
1
 40
1
 10
61.767786
 20
133.767767
 30
0.0
 10
62.236627
 20
133.298926
 30
0.0
 10
62.500019
 20
132.663041
 30
0.0
 10
62.500019
 20
132.000000
 30
0.0
  0
LINE
  5
2c7
100
AcDbEntity
  8
Layer_1
 62
7
100
AcDbLine
 10
62.500019
 20
132.000000
 30
0.0
 11
62.500019
 21
132.000000
 31
0.0
  0
SPLINE
  5
2c8
100
AcDbEntity
  8
Layer_1
 62
7
100
AcDbSpline
 70
8
 71
3
 72
8
 73
4
 74
0
 40
0
 40
0
 40
0
 40
0
 40
1
 40
1
 40
1
 40
1
 10
77.500015
 20
165.000000
 30
0.0
 10
77.500015
 20
164.336959
 30
0.0
 10
77.236623
 20
163.701074
 30
0.0
 10
76.767782
 20
163.232233
 30
0.0
  0
SPLINE
  5
2c9
100
AcDbEntity
  8
Layer_1
 62
7
100
AcDbSpline
 70
8
 71
3
 72
8
 73
4
 74
0
 40
0
 40
0
 40
0
 40
0
 40
1
 40
1
 40
1
 40
1
 10
76.767782
 20
163.232233
 30
0.0
 10
76.298941
 20
162.763392
 30
0.0
 10
75.663056
 20
162.500000
 30
0.0
 10
75.000015
 20
162.500000
 30
0.0
  0
SPLINE
  5
2ca
100
AcDbEntity
  8
Layer_1
 62
7
100
AcDbSpline
 70
8
 71
3
 72
8
 73
4
 74
0
 40
0
 40
0
 40
0
 40
0
 40
1
 40
1
 40
1
 40
1
 10
75.000015
 20
162.500000
 30
0.0
 10
74.336974
 20
162.500000
 30
0.0
 10
73.701089
 20
162.763392
 30
0.0
 10
73.232248
 20
163.232233
 30
0.0
  0
SPLINE
  5
2cb
100
AcDbEntity
  8
Layer_1
 62
7
100
AcDbSpline
 70
8
 71
3
 72
8
 73
4
 74
0
 40
0
 40
0
 40
0
 40
0
 40
1
 40
1
 40
1
 40
1
 10
73.232248
 20
163.232233
 30
0.0
 10
72.763407
 20
163.701074
 30
0.0
 10
72.500015
 20
164.336959
 30
0.0
 10
72.500015
 20
165.000000
 30
0.0
  0
SPLINE
  5
2cc
100
AcDbEntity
  8
Layer_1
 62
7
100
AcDbSpline
 70
8
 71
3
 72
8
 73
4
 74
0
 40
0
 40
0
 40
0
 40
0
 40
1
 40
1
 40
1
 40
1
 10
72.500015
 20
165.000000
 30
0.0
 10
72.500015
 20
165.663041
 30
0.0
 10
72.763407
 20
166.298926
 30
0.0
 10
73.232248
 20
166.767767
 30
0.0
  0
SPLINE
  5
2cd
100
AcDbEntity
  8
Layer_1
 62
7
100
AcDbSpline
 70
8
 71
3
 72
8
 73
4
 74
0
 40
0
 40
0
 40
0
 40
0
 40
1
 40
1
 40
1
 40
1
 10
73.232248
 20
166.767767
 30
0.0
 10
73.701089
 20
167.236608
 30
0.0
 10
74.336974
 20
167.500000
 30
0.0
 10
75.000015
 20
167.500000
 30
0.0
  0
SPLINE
  5
2ce
100
AcDbEntity
  8
Layer_1
 62
7
100
AcDbSpline
 70
8
 71
3
 72
8
 73
4
 74
0
 40
0
 40
0
 40
0
 40
0
 40
1
 40
1
 40
1
 40
1
 10
75.000015
 20
167.500000
 30
0.0
 10
75.663056
 20
167.500000
 30
0.0
 10
76.298941
 20
167.236608
 30
0.0
 10
76.767782
 20
166.767767
 30
0.0
  0
SPLINE
  5
2cf
100
AcDbEntity
  8
Layer_1
 62
7
100
AcDbSpline
 70
8
 71
3
 72
8
 73
4
 74
0
 40
0
 40
0
 40
0
 40
0
 40
1
 40
1
 40
1
 40
1
 10
76.767782
 20
166.767767
 30
0.0
 10
77.236623
 20
166.298926
 30
0.0
 10
77.500015
 20
165.663041
 30
0.0
 10
77.500015
 20
165.000000
 30
0.0
  0
LINE
  5
2d0
100
AcDbEntity
  8
Layer_1
 62
7
100
AcDbLine
 10
77.500015
 20
165.000000
 30
0.0
 11
77.500015
 21
165.000000
 31
0.0
  0
SPLINE
  5
2d1
100
AcDbEntity
  8
Layer_1
 62
7
100
AcDbSpline
 70
8
 71
3
 72
8
 73
4
 74
0
 40
0
 40
0
 40
0
 40
0
 40
1
 40
1
 40
1
 40
1
 10
77.500015
 20
148.500000
 30
0.0
 10
77.500015
 20
147.836959
 30
0.0
 10
77.236623
 20
147.201074
 30
0.0
 10
76.767782
 20
146.732233
 30
0.0
  0
SPLINE
  5
2d2
100
AcDbEntity
  8
Layer_1
 62
7
100
AcDbSpline
 70
8
 71
3
 72
8
 73
4
 74
0
 40
0
 40
0
 40
0
 40
0
 40
1
 40
1
 40
1
 40
1
 10
76.767782
 20
146.732233
 30
0.0
 10
76.298941
 20
146.263392
 30
0.0
 10
75.663056
 20
146.000000
 30
0.0
 10
75.000015
 20
146.000000
 30
0.0
  0
SPLINE
  5
2d3
100
AcDbEntity
  8
Layer_1
 62
7
100
AcDbSpline
 70
8
 71
3
 72
8
 73
4
 74
0
 40
0
 40
0
 40
0
 40
0
 40
1
 40
1
 40
1
 40
1
 10
75.000015
 20
146.000000
 30
0.0
 10
74.336974
 20
146.000000
 30
0.0
 10
73.701089
 20
146.263392
 30
0.0
 10
73.232248
 20
146.732233
 30
0.0
  0
SPLINE
  5
2d4
100
AcDbEntity
  8
Layer_1
 62
7
100
AcDbSpline
 70
8
 71
3
 72
8
 73
4
 74
0
 40
0
 40
0
 40
0
 40
0
 40
1
 40
1
 40
1
 40
1
 10
73.232248
 20
146.732233
 30
0.0
 10
72.763407
 20
147.201074
 30
0.0
 10
72.500015
 20
147.836959
 30
0.0
 10
72.500015
 20
148.500000
 30
0.0
  0
SPLINE
  5
2d5
100
AcDbEntity
  8
Layer_1
 62
7
100
AcDbSpline
 70
8
 71
3
 72
8
 73
4
 74
0
 40
0
 40
0
 40
0
 40
0
 40
1
 40
1
 40
1
 40
1
 10
72.500015
 20
148.500000
 30
0.0
 10
72.500015
 20
149.163041
 30
0.0
 10
72.763407
 20
149.798926
 30
0.0
 10
73.232248
 20
150.267767
 30
0.0
  0
SPLINE
  5
2d6
100
AcDbEntity
  8
Layer_1
 62
7
100
AcDbSpline
 70
8
 71
3
 72
8
 73
4
 74
0
 40
0
 40
0
 40
0
 40
0
 40
1
 40
1
 40
1
 40
1
 10
73.232248
 20
150.267767
 30
0.0
 10
73.701089
 20
150.736608
 30
0.0
 10
74.336974
 20
151.000000
 30
0.0
 10
75.000015
 20
151.000000
 30
0.0
  0
SPLINE
  5
2d7
100
AcDbEntity
  8
Layer_1
 62
7
100
AcDbSpline
 70
8
 71
3
 72
8
 73
4
 74
0
 40
0
 40
0
 40
0
 40
0
 40
1
 40
1
 40
1
 40
1
 10
75.000015
 20
151.000000
 30
0.0
 10
75.663056
 20
151.000000
 30
0.0
 10
76.298941
 20
150.736608
 30
0.0
 10
76.767782
 20
150.267767
 30
0.0
  0
SPLINE
  5
2d8
100
AcDbEntity
  8
Layer_1
 62
7
100
AcDbSpline
 70
8
 71
3
 72
8
 73
4
 74
0
 40
0
 40
0
 40
0
 40
0
 40
1
 40
1
 40
1
 40
1
 10
76.767782
 20
150.267767
 30
0.0
 10
77.236623
 20
149.798926
 30
0.0
 10
77.500015
 20
149.163041
 30
0.0
 10
77.500015
 20
148.500000
 30
0.0
  0
LINE
  5
2d9
100
AcDbEntity
  8
Layer_1
 62
7
100
AcDbLine
 10
77.500015
 20
148.500000
 30
0.0
 11
77.500015
 21
148.500000
 31
0.0
  0
SPLINE
  5
2da
100
AcDbEntity
  8
Layer_1
 62
7
100
AcDbSpline
 70
8
 71
3
 72
8
 73
4
 74
0
 40
0
 40
0
 40
0
 40
0
 40
1
 40
1
 40
1
 40
1
 10
77.500015
 20
132.000000
 30
0.0
 10
77.500015
 20
131.336959
 30
0.0
 10
77.236623
 20
130.701074
 30
0.0
 10
76.767782
 20
130.232233
 30
0.0
  0
SPLINE
  5
2db
100
AcDbEntity
  8
Layer_1
 62
7
100
AcDbSpline
 70
8
 71
3
 72
8
 73
4
 74
0
 40
0
 40
0
 40
0
 40
0
 40
1
 40
1
 40
1
 40
1
 10
76.767782
 20
130.232233
 30
0.0
 10
76.298941
 20
129.763392
 30
0.0
 10
75.663056
 20
129.500000
 30
0.0
 10
75.000015
 20
129.500000
 30
0.0
  0
SPLINE
  5
2dc
100
AcDbEntity
  8
Layer_1
 62
7
100
AcDbSpline
 70
8
 71
3
 72
8
 73
4
 74
0
 40
0
 40
0
 40
0
 40
0
 40
1
 40
1
 40
1
 40
1
 10
75.000015
 20
129.500000
 30
0.0
 10
74.336974
 20
129.500000
 30
0.0
 10
73.701089
 20
129.763392
 30
0.0
 10
73.232248
 20
130.232233
 30
0.0
  0
SPLINE
  5
2dd
100
AcDbEntity
  8
Layer_1
 62
7
100
AcDbSpline
 70
8
 71
3
 72
8
 73
4
 74
0
 40
0
 40
0
 40
0
 40
0
 40
1
 40
1
 40
1
 40
1
 10
73.232248
 20
130.232233
 30
0.0
 10
72.763407
 20
130.701074
 30
0.0
 10
72.500015
 20
131.336959
 30
0.0
 10
72.500015
 20
132.000000
 30
0.0
  0
SPLINE
  5
2de
100
AcDbEntity
  8
Layer_1
 62
7
100
AcDbSpline
 70
8
 71
3
 72
8
 73
4
 74
0
 40
0
 40
0
 40
0
 40
0
 40
1
 40
1
 40
1
 40
1
 10
72.500015
 20
132.000000
 30
0.0
 10
72.500015
 20
132.663041
 30
0.0
 10
72.763407
 20
133.298926
 30
0.0
 10
73.232248
 20
133.767767
 30
0.0
  0
SPLINE
  5
2df
100
AcDbEntity
  8
Layer_1
 62
7
100
AcDbSpline
 70
8
 71
3
 72
8
 73
4
 74
0
 40
0
 40
0
 40
0
 40
0
 40
1
 40
1
 40
1
 40
1
 10
73.232248
 20
133.767767
 30
0.0
 10
73.701089
 20
134.236608
 30
0.0
 10
74.336974
 20
134.500000
 30
0.0
 10
75.000015
 20
134.500000
 30
0.0
  0
SPLINE
  5
2e0
100
AcDbEntity
  8
Layer_1
 62
7
100
AcDbSpline
 70
8
 71
3
 72
8
 73
4
 74
0
 40
0
 40
0
 40
0
 40
0
 40
1
 40
1
 40
1
 40
1
 10
75.000015
 20
134.500000
 30
0.0
 10
75.663056
 20
134.500000
 30
0.0
 10
76.298941
 20
134.236608
 30
0.0
 10
76.767782
 20
133.767767
 30
0.0
  0
SPLINE
  5
2e1
100
AcDbEntity
  8
Layer_1
 62
7
100
AcDbSpline
 70
8
 71
3
 72
8
 73
4
 74
0
 40
0
 40
0
 40
0
 40
0
 40
1
 40
1
 40
1
 40
1
 10
76.767782
 20
133.767767
 30
0.0
 10
77.236623
 20
133.298926
 30
0.0
 10
77.500015
 20
132.663041
 30
0.0
 10
77.500015
 20
132.000000
 30
0.0
  0
LINE
  5
2e2
100
AcDbEntity
  8
Layer_1
 62
7
100
AcDbLine
 10
77.500015
 20
132.000000
 30
0.0
 11
77.500015
 21
132.000000
 31
0.0
  0
SPLINE
  5
2e3
100
AcDbEntity
  8
Layer_1
 62
7
100
AcDbSpline
 70
8
 71
3
 72
8
 73
4
 74
0
 40
0
 40
0
 40
0
 40
0
 40
1
 40
1
 40
1
 40
1
 10
92.500015
 20
165.000000
 30
0.0
 10
92.500015
 20
164.336959
 30
0.0
 10
92.236623
 20
163.701074
 30
0.0
 10
91.767782
 20
163.232233
 30
0.0
  0
SPLINE
  5
2e4
100
AcDbEntity
  8
Layer_1
 62
7
100
AcDbSpline
 70
8
 71
3
 72
8
 73
4
 74
0
 40
0
 40
0
 40
0
 40
0
 40
1
 40
1
 40
1
 40
1
 10
91.767782
 20
163.232233
 30
0.0
 10
91.298941
 20
162.763392
 30
0.0
 10
90.663056
 20
162.500000
 30
0.0
 10
90.000015
 20
162.500000
 30
0.0
  0
SPLINE
  5
2e5
100
AcDbEntity
  8
Layer_1
 62
7
100
AcDbSpline
 70
8
 71
3
 72
8
 73
4
 74
0
 40
0
 40
0
 40
0
 40
0
 40
1
 40
1
 40
1
 40
1
 10
90.000015
 20
162.500000
 30
0.0
 10
89.336974
 20
162.500000
 30
0.0
 10
88.701089
 20
162.763392
 30
0.0
 10
88.232248
 20
163.232233
 30
0.0
  0
SPLINE
  5
2e6
100
AcDbEntity
  8
Layer_1
 62
7
100
AcDbSpline
 70
8
 71
3
 72
8
 73
4
 74
0
 40
0
 40
0
 40
0
 40
0
 40
1
 40
1
 40
1
 40
1
 10
88.232248
 20
163.232233
 30
0.0
 10
87.763407
 20
163.701074
 30
0.0
 10
87.500015
 20
164.336959
 30
0.0
 10
87.500015
 20
165.000000
 30
0.0
  0
SPLINE
  5
2e7
100
AcDbEntity
  8
Layer_1
 62
7
100
AcDbSpline
 70
8
 71
3
 72
8
 73
4
 74
0
 40
0
 40
0
 40
0
 40
0
 40
1
 40
1
 40
1
 40
1
 10
87.500015
 20
165.000000
 30
0.0
 10
87.500015
 20
165.663041
 30
0.0
 10
87.763407
 20
166.298926
 30
0.0
 10
88.232248
 20
166.767767
 30
0.0
  0
SPLINE
  5
2e8
100
AcDbEntity
  8
Layer_1
 62
7
100
AcDbSpline
 70
8
 71
3
 72
8
 73
4
 74
0
 40
0
 40
0
 40
0
 40
0
 40
1
 40
1
 40
1
 40
1
 10
88.232248
 20
166.767767
 30
0.0
 10
88.701089
 20
167.236608
 30
0.0
 10
89.336974
 20
167.500000
 30
0.0
 10
90.000015
 20
167.500000
 30
0.0
  0
SPLINE
  5
2e9
100
AcDbEntity
  8
Layer_1
 62
7
100
AcDbSpline
 70
8
 71
3
 72
8
 73
4
 74
0
 40
0
 40
0
 40
0
 40
0
 40
1
 40
1
 40
1
 40
1
 10
90.000015
 20
167.500000
 30
0.0
 10
90.663056
 20
167.500000
 30
0.0
 10
91.298941
 20
167.236608
 30
0.0
 10
91.767782
 20
166.767767
 30
0.0
  0
SPLINE
  5
2ea
100
AcDbEntity
  8
Layer_1
 62
7
100
AcDbSpline
 70
8
 71
3
 72
8
 73
4
 74
0
 40
0
 40
0
 40
0
 40
0
 40
1
 40
1
 40
1
 40
1
 10
91.767782
 20
166.767767
 30
0.0
 10
92.236623
 20
166.298926
 30
0.0
 10
92.500015
 20
165.663041
 30
0.0
 10
92.500015
 20
165.000000
 30
0.0
  0
LINE
  5
2eb
100
AcDbEntity
  8
Layer_1
 62
7
100
AcDbLine
 10
92.500015
 20
165.000000
 30
0.0
 11
92.500015
 21
165.000000
 31
0.0
  0
SPLINE
  5
2ec
100
AcDbEntity
  8
Layer_1
 62
7
100
AcDbSpline
 70
8
 71
3
 72
8
 73
4
 74
0
 40
0
 40
0
 40
0
 40
0
 40
1
 40
1
 40
1
 40
1
 10
92.500015
 20
148.500000
 30
0.0
 10
92.500015
 20
147.836959
 30
0.0
 10
92.236623
 20
147.201074
 30
0.0
 10
91.767782
 20
146.732233
 30
0.0
  0
SPLINE
  5
2ed
100
AcDbEntity
  8
Layer_1
 62
7
100
AcDbSpline
 70
8
 71
3
 72
8
 73
4
 74
0
 40
0
 40
0
 40
0
 40
0
 40
1
 40
1
 40
1
 40
1
 10
91.767782
 20
146.732233
 30
0.0
 10
91.298941
 20
146.263392
 30
0.0
 10
90.663056
 20
146.000000
 30
0.0
 10
90.000015
 20
146.000000
 30
0.0
  0
SPLINE
  5
2ee
100
AcDbEntity
  8
Layer_1
 62
7
100
AcDbSpline
 70
8
 71
3
 72
8
 73
4
 74
0
 40
0
 40
0
 40
0
 40
0
 40
1
 40
1
 40
1
 40
1
 10
90.000015
 20
146.000000
 30
0.0
 10
89.336974
 20
146.000000
 30
0.0
 10
88.701089
 20
146.263392
 30
0.0
 10
88.232248
 20
146.732233
 30
0.0
  0
SPLINE
  5
2ef
100
AcDbEntity
  8
Layer_1
 62
7
100
AcDbSpline
 70
8
 71
3
 72
8
 73
4
 74
0
 40
0
 40
0
 40
0
 40
0
 40
1
 40
1
 40
1
 40
1
 10
88.232248
 20
146.732233
 30
0.0
 10
87.763407
 20
147.201074
 30
0.0
 10
87.500015
 20
147.836959
 30
0.0
 10
87.500015
 20
148.500000
 30
0.0
  0
SPLINE
  5
2f0
100
AcDbEntity
  8
Layer_1
 62
7
100
AcDbSpline
 70
8
 71
3
 72
8
 73
4
 74
0
 40
0
 40
0
 40
0
 40
0
 40
1
 40
1
 40
1
 40
1
 10
87.500015
 20
148.500000
 30
0.0
 10
87.500015
 20
149.163041
 30
0.0
 10
87.763407
 20
149.798926
 30
0.0
 10
88.232248
 20
150.267767
 30
0.0
  0
SPLINE
  5
2f1
100
AcDbEntity
  8
Layer_1
 62
7
100
AcDbSpline
 70
8
 71
3
 72
8
 73
4
 74
0
 40
0
 40
0
 40
0
 40
0
 40
1
 40
1
 40
1
 40
1
 10
88.232248
 20
150.267767
 30
0.0
 10
88.701089
 20
150.736608
 30
0.0
 10
89.336974
 20
151.000000
 30
0.0
 10
90.000015
 20
151.000000
 30
0.0
  0
SPLINE
  5
2f2
100
AcDbEntity
  8
Layer_1
 62
7
100
AcDbSpline
 70
8
 71
3
 72
8
 73
4
 74
0
 40
0
 40
0
 40
0
 40
0
 40
1
 40
1
 40
1
 40
1
 10
90.000015
 20
151.000000
 30
0.0
 10
90.663056
 20
151.000000
 30
0.0
 10
91.298941
 20
150.736608
 30
0.0
 10
91.767782
 20
150.267767
 30
0.0
  0
SPLINE
  5
2f3
100
AcDbEntity
  8
Layer_1
 62
7
100
AcDbSpline
 70
8
 71
3
 72
8
 73
4
 74
0
 40
0
 40
0
 40
0
 40
0
 40
1
 40
1
 40
1
 40
1
 10
91.767782
 20
150.267767
 30
0.0
 10
92.236623
 20
149.798926
 30
0.0
 10
92.500015
 20
149.163041
 30
0.0
 10
92.500015
 20
148.500000
 30
0.0
  0
LINE
  5
2f4
100
AcDbEntity
  8
Layer_1
 62
7
100
AcDbLine
 10
92.500015
 20
148.500000
 30
0.0
 11
92.500015
 21
148.500000
 31
0.0
  0
SPLINE
  5
2f5
100
AcDbEntity
  8
Layer_1
 62
7
100
AcDbSpline
 70
8
 71
3
 72
8
 73
4
 74
0
 40
0
 40
0
 40
0
 40
0
 40
1
 40
1
 40
1
 40
1
 10
92.500015
 20
132.000000
 30
0.0
 10
92.500015
 20
131.336959
 30
0.0
 10
92.236623
 20
130.701074
 30
0.0
 10
91.767782
 20
130.232233
 30
0.0
  0
SPLINE
  5
2f6
100
AcDbEntity
  8
Layer_1
 62
7
100
AcDbSpline
 70
8
 71
3
 72
8
 73
4
 74
0
 40
0
 40
0
 40
0
 40
0
 40
1
 40
1
 40
1
 40
1
 10
91.767782
 20
130.232233
 30
0.0
 10
91.298941
 20
129.763392
 30
0.0
 10
90.663056
 20
129.500000
 30
0.0
 10
90.000015
 20
129.500000
 30
0.0
  0
SPLINE
  5
2f7
100
AcDbEntity
  8
Layer_1
 62
7
100
AcDbSpline
 70
8
 71
3
 72
8
 73
4
 74
0
 40
0
 40
0
 40
0
 40
0
 40
1
 40
1
 40
1
 40
1
 10
90.000015
 20
129.500000
 30
0.0
 10
89.336974
 20
129.500000
 30
0.0
 10
88.701089
 20
129.763392
 30
0.0
 10
88.232248
 20
130.232233
 30
0.0
  0
SPLINE
  5
2f8
100
AcDbEntity
  8
Layer_1
 62
7
100
AcDbSpline
 70
8
 71
3
 72
8
 73
4
 74
0
 40
0
 40
0
 40
0
 40
0
 40
1
 40
1
 40
1
 40
1
 10
88.232248
 20
130.232233
 30
0.0
 10
87.763407
 20
130.701074
 30
0.0
 10
87.500015
 20
131.336959
 30
0.0
 10
87.500015
 20
132.000000
 30
0.0
  0
SPLINE
  5
2f9
100
AcDbEntity
  8
Layer_1
 62
7
100
AcDbSpline
 70
8
 71
3
 72
8
 73
4
 74
0
 40
0
 40
0
 40
0
 40
0
 40
1
 40
1
 40
1
 40
1
 10
87.500015
 20
132.000000
 30
0.0
 10
87.500015
 20
132.663041
 30
0.0
 10
87.763407
 20
133.298926
 30
0.0
 10
88.232248
 20
133.767767
 30
0.0
  0
SPLINE
  5
2fa
100
AcDbEntity
  8
Layer_1
 62
7
100
AcDbSpline
 70
8
 71
3
 72
8
 73
4
 74
0
 40
0
 40
0
 40
0
 40
0
 40
1
 40
1
 40
1
 40
1
 10
88.232248
 20
133.767767
 30
0.0
 10
88.701089
 20
134.236608
 30
0.0
 10
89.336974
 20
134.500000
 30
0.0
 10
90.000015
 20
134.500000
 30
0.0
  0
SPLINE
  5
2fb
100
AcDbEntity
  8
Layer_1
 62
7
100
AcDbSpline
 70
8
 71
3
 72
8
 73
4
 74
0
 40
0
 40
0
 40
0
 40
0
 40
1
 40
1
 40
1
 40
1
 10
90.000015
 20
134.500000
 30
0.0
 10
90.663056
 20
134.500000
 30
0.0
 10
91.298941
 20
134.236608
 30
0.0
 10
91.767782
 20
133.767767
 30
0.0
  0
SPLINE
  5
2fc
100
AcDbEntity
  8
Layer_1
 62
7
100
AcDbSpline
 70
8
 71
3
 72
8
 73
4
 74
0
 40
0
 40
0
 40
0
 40
0
 40
1
 40
1
 40
1
 40
1
 10
91.767782
 20
133.767767
 30
0.0
 10
92.236623
 20
133.298926
 30
0.0
 10
92.500015
 20
132.663041
 30
0.0
 10
92.500015
 20
132.000000
 30
0.0
  0
LINE
  5
2fd
100
AcDbEntity
  8
Layer_1
 62
7
100
AcDbLine
 10
92.500015
 20
132.000000
 30
0.0
 11
92.500015
 21
132.000000
 31
0.0
  0
SPLINE
  5
2fe
100
AcDbEntity
  8
Layer_1
 62
7
100
AcDbSpline
 70
8
 71
3
 72
8
 73
4
 74
0
 40
0
 40
0
 40
0
 40
0
 40
1
 40
1
 40
1
 40
1
 10
107.500020
 20
165.000000
 30
0.0
 10
107.500020
 20
164.336959
 30
0.0
 10
107.236628
 20
163.701074
 30
0.0
 10
106.767787
 20
163.232233
 30
0.0
  0
SPLINE
  5
2ff
100
AcDbEntity
  8
Layer_1
 62
7
100
AcDbSpline
 70
8
 71
3
 72
8
 73
4
 74
0
 40
0
 40
0
 40
0
 40
0
 40
1
 40
1
 40
1
 40
1
 10
106.767787
 20
163.232233
 30
0.0
 10
106.298946
 20
162.763392
 30
0.0
 10
105.663061
 20
162.500000
 30
0.0
 10
105.000020
 20
162.500000
 30
0.0
  0
SPLINE
  5
300
100
AcDbEntity
  8
Layer_1
 62
7
100
AcDbSpline
 70
8
 71
3
 72
8
 73
4
 74
0
 40
0
 40
0
 40
0
 40
0
 40
1
 40
1
 40
1
 40
1
 10
105.000020
 20
162.500000
 30
0.0
 10
104.336979
 20
162.500000
 30
0.0
 10
103.701094
 20
162.763392
 30
0.0
 10
103.232253
 20
163.232233
 30
0.0
  0
SPLINE
  5
301
100
AcDbEntity
  8
Layer_1
 62
7
100
AcDbSpline
 70
8
 71
3
 72
8
 73
4
 74
0
 40
0
 40
0
 40
0
 40
0
 40
1
 40
1
 40
1
 40
1
 10
103.232253
 20
163.232233
 30
0.0
 10
102.763412
 20
163.701074
 30
0.0
 10
102.500020
 20
164.336959
 30
0.0
 10
102.500020
 20
165.000000
 30
0.0
  0
SPLINE
  5
302
100
AcDbEntity
  8
Layer_1
 62
7
100
AcDbSpline
 70
8
 71
3
 72
8
 73
4
 74
0
 40
0
 40
0
 40
0
 40
0
 40
1
 40
1
 40
1
 40
1
 10
102.500020
 20
165.000000
 30
0.0
 10
102.500020
 20
165.663041
 30
0.0
 10
102.763412
 20
166.298926
 30
0.0
 10
103.232253
 20
166.767767
 30
0.0
  0
SPLINE
  5
303
100
AcDbEntity
  8
Layer_1
 62
7
100
AcDbSpline
 70
8
 71
3
 72
8
 73
4
 74
0
 40
0
 40
0
 40
0
 40
0
 40
1
 40
1
 40
1
 40
1
 10
103.232253
 20
166.767767
 30
0.0
 10
103.701094
 20
167.236608
 30
0.0
 10
104.336979
 20
167.500000
 30
0.0
 10
105.000020
 20
167.500000
 30
0.0
  0
SPLINE
  5
304
100
AcDbEntity
  8
Layer_1
 62
7
100
AcDbSpline
 70
8
 71
3
 72
8
 73
4
 74
0
 40
0
 40
0
 40
0
 40
0
 40
1
 40
1
 40
1
 40
1
 10
105.000020
 20
167.500000
 30
0.0
 10
105.663061
 20
167.500000
 30
0.0
 10
106.298946
 20
167.236608
 30
0.0
 10
106.767787
 20
166.767767
 30
0.0
  0
SPLINE
  5
305
100
AcDbEntity
  8
Layer_1
 62
7
100
AcDbSpline
 70
8
 71
3
 72
8
 73
4
 74
0
 40
0
 40
0
 40
0
 40
0
 40
1
 40
1
 40
1
 40
1
 10
106.767787
 20
166.767767
 30
0.0
 10
107.236628
 20
166.298926
 30
0.0
 10
107.500020
 20
165.663041
 30
0.0
 10
107.500020
 20
165.000000
 30
0.0
  0
LINE
  5
306
100
AcDbEntity
  8
Layer_1
 62
7
100
AcDbLine
 10
107.500020
 20
165.000000
 30
0.0
 11
107.500020
 21
165.000000
 31
0.0
  0
SPLINE
  5
307
100
AcDbEntity
  8
Layer_1
 62
7
100
AcDbSpline
 70
8
 71
3
 72
8
 73
4
 74
0
 40
0
 40
0
 40
0
 40
0
 40
1
 40
1
 40
1
 40
1
 10
107.500020
 20
148.500000
 30
0.0
 10
107.500020
 20
147.836959
 30
0.0
 10
107.236628
 20
147.201074
 30
0.0
 10
106.767787
 20
146.732233
 30
0.0
  0
SPLINE
  5
308
100
AcDbEntity
  8
Layer_1
 62
7
100
AcDbSpline
 70
8
 71
3
 72
8
 73
4
 74
0
 40
0
 40
0
 40
0
 40
0
 40
1
 40
1
 40
1
 40
1
 10
106.767787
 20
146.732233
 30
0.0
 10
106.298946
 20
146.263392
 30
0.0
 10
105.663061
 20
146.000000
 30
0.0
 10
105.000020
 20
146.000000
 30
0.0
  0
SPLINE
  5
309
100
AcDbEntity
  8
Layer_1
 62
7
100
AcDbSpline
 70
8
 71
3
 72
8
 73
4
 74
0
 40
0
 40
0
 40
0
 40
0
 40
1
 40
1
 40
1
 40
1
 10
105.000020
 20
146.000000
 30
0.0
 10
104.336979
 20
146.000000
 30
0.0
 10
103.701094
 20
146.263392
 30
0.0
 10
103.232253
 20
146.732233
 30
0.0
  0
SPLINE
  5
30a
100
AcDbEntity
  8
Layer_1
 62
7
100
AcDbSpline
 70
8
 71
3
 72
8
 73
4
 74
0
 40
0
 40
0
 40
0
 40
0
 40
1
 40
1
 40
1
 40
1
 10
103.232253
 20
146.732233
 30
0.0
 10
102.763412
 20
147.201074
 30
0.0
 10
102.500020
 20
147.836959
 30
0.0
 10
102.500020
 20
148.500000
 30
0.0
  0
SPLINE
  5
30b
100
AcDbEntity
  8
Layer_1
 62
7
100
AcDbSpline
 70
8
 71
3
 72
8
 73
4
 74
0
 40
0
 40
0
 40
0
 40
0
 40
1
 40
1
 40
1
 40
1
 10
102.500020
 20
148.500000
 30
0.0
 10
102.500020
 20
149.163041
 30
0.0
 10
102.763412
 20
149.798926
 30
0.0
 10
103.232253
 20
150.267767
 30
0.0
  0
SPLINE
  5
30c
100
AcDbEntity
  8
Layer_1
 62
7
100
AcDbSpline
 70
8
 71
3
 72
8
 73
4
 74
0
 40
0
 40
0
 40
0
 40
0
 40
1
 40
1
 40
1
 40
1
 10
103.232253
 20
150.267767
 30
0.0
 10
103.701094
 20
150.736608
 30
0.0
 10
104.336979
 20
151.000000
 30
0.0
 10
105.000020
 20
151.000000
 30
0.0
  0
SPLINE
  5
30d
100
AcDbEntity
  8
Layer_1
 62
7
100
AcDbSpline
 70
8
 71
3
 72
8
 73
4
 74
0
 40
0
 40
0
 40
0
 40
0
 40
1
 40
1
 40
1
 40
1
 10
105.000020
 20
151.000000
 30
0.0
 10
105.663061
 20
151.000000
 30
0.0
 10
106.298946
 20
150.736608
 30
0.0
 10
106.767787
 20
150.267767
 30
0.0
  0
SPLINE
  5
30e
100
AcDbEntity
  8
Layer_1
 62
7
100
AcDbSpline
 70
8
 71
3
 72
8
 73
4
 74
0
 40
0
 40
0
 40
0
 40
0
 40
1
 40
1
 40
1
 40
1
 10
106.767787
 20
150.267767
 30
0.0
 10
107.236628
 20
149.798926
 30
0.0
 10
107.500020
 20
149.163041
 30
0.0
 10
107.500020
 20
148.500000
 30
0.0
  0
LINE
  5
30f
100
AcDbEntity
  8
Layer_1
 62
7
100
AcDbLine
 10
107.500020
 20
148.500000
 30
0.0
 11
107.500020
 21
148.500000
 31
0.0
  0
SPLINE
  5
310
100
AcDbEntity
  8
Layer_1
 62
7
100
AcDbSpline
 70
8
 71
3
 72
8
 73
4
 74
0
 40
0
 40
0
 40
0
 40
0
 40
1
 40
1
 40
1
 40
1
 10
107.500020
 20
132.000000
 30
0.0
 10
107.500020
 20
131.336959
 30
0.0
 10
107.236628
 20
130.701074
 30
0.0
 10
106.767787
 20
130.232233
 30
0.0
  0
SPLINE
  5
311
100
AcDbEntity
  8
Layer_1
 62
7
100
AcDbSpline
 70
8
 71
3
 72
8
 73
4
 74
0
 40
0
 40
0
 40
0
 40
0
 40
1
 40
1
 40
1
 40
1
 10
106.767787
 20
130.232233
 30
0.0
 10
106.298946
 20
129.763392
 30
0.0
 10
105.663061
 20
129.500000
 30
0.0
 10
105.000020
 20
129.500000
 30
0.0
  0
SPLINE
  5
312
100
AcDbEntity
  8
Layer_1
 62
7
100
AcDbSpline
 70
8
 71
3
 72
8
 73
4
 74
0
 40
0
 40
0
 40
0
 40
0
 40
1
 40
1
 40
1
 40
1
 10
105.000020
 20
129.500000
 30
0.0
 10
104.336979
 20
129.500000
 30
0.0
 10
103.701094
 20
129.763392
 30
0.0
 10
103.232253
 20
130.232233
 30
0.0
  0
SPLINE
  5
313
100
AcDbEntity
  8
Layer_1
 62
7
100
AcDbSpline
 70
8
 71
3
 72
8
 73
4
 74
0
 40
0
 40
0
 40
0
 40
0
 40
1
 40
1
 40
1
 40
1
 10
103.232253
 20
130.232233
 30
0.0
 10
102.763412
 20
130.701074
 30
0.0
 10
102.500020
 20
131.336959
 30
0.0
 10
102.500020
 20
132.000000
 30
0.0
  0
SPLINE
  5
314
100
AcDbEntity
  8
Layer_1
 62
7
100
AcDbSpline
 70
8
 71
3
 72
8
 73
4
 74
0
 40
0
 40
0
 40
0
 40
0
 40
1
 40
1
 40
1
 40
1
 10
102.500020
 20
132.000000
 30
0.0
 10
102.500020
 20
132.663041
 30
0.0
 10
102.763412
 20
133.298926
 30
0.0
 10
103.232253
 20
133.767767
 30
0.0
  0
SPLINE
  5
315
100
AcDbEntity
  8
Layer_1
 62
7
100
AcDbSpline
 70
8
 71
3
 72
8
 73
4
 74
0
 40
0
 40
0
 40
0
 40
0
 40
1
 40
1
 40
1
 40
1
 10
103.232253
 20
133.767767
 30
0.0
 10
103.701094
 20
134.236608
 30
0.0
 10
104.336979
 20
134.500000
 30
0.0
 10
105.000020
 20
134.500000
 30
0.0
  0
SPLINE
  5
316
100
AcDbEntity
  8
Layer_1
 62
7
100
AcDbSpline
 70
8
 71
3
 72
8
 73
4
 74
0
 40
0
 40
0
 40
0
 40
0
 40
1
 40
1
 40
1
 40
1
 10
105.000020
 20
134.500000
 30
0.0
 10
105.663061
 20
134.500000
 30
0.0
 10
106.298946
 20
134.236608
 30
0.0
 10
106.767787
 20
133.767767
 30
0.0
  0
SPLINE
  5
317
100
AcDbEntity
  8
Layer_1
 62
7
100
AcDbSpline
 70
8
 71
3
 72
8
 73
4
 74
0
 40
0
 40
0
 40
0
 40
0
 40
1
 40
1
 40
1
 40
1
 10
106.767787
 20
133.767767
 30
0.0
 10
107.236628
 20
133.298926
 30
0.0
 10
107.500020
 20
132.663041
 30
0.0
 10
107.500020
 20
132.000000
 30
0.0
  0
LINE
  5
318
100
AcDbEntity
  8
Layer_1
 62
7
100
AcDbLine
 10
107.500020
 20
132.000000
 30
0.0
 11
107.500020
 21
132.000000
 31
0.0
  0
SPLINE
  5
319
100
AcDbEntity
  8
Layer_1
 62
7
100
AcDbSpline
 70
8
 71
3
 72
8
 73
4
 74
0
 40
0
 40
0
 40
0
 40
0
 40
1
 40
1
 40
1
 40
1
 10
122.500020
 20
165.000000
 30
0.0
 10
122.500020
 20
164.336959
 30
0.0
 10
122.236628
 20
163.701074
 30
0.0
 10
121.767787
 20
163.232233
 30
0.0
  0
SPLINE
  5
31a
100
AcDbEntity
  8
Layer_1
 62
7
100
AcDbSpline
 70
8
 71
3
 72
8
 73
4
 74
0
 40
0
 40
0
 40
0
 40
0
 40
1
 40
1
 40
1
 40
1
 10
121.767787
 20
163.232233
 30
0.0
 10
121.298946
 20
162.763392
 30
0.0
 10
120.663061
 20
162.500000
 30
0.0
 10
120.000020
 20
162.500000
 30
0.0
  0
SPLINE
  5
31b
100
AcDbEntity
  8
Layer_1
 62
7
100
AcDbSpline
 70
8
 71
3
 72
8
 73
4
 74
0
 40
0
 40
0
 40
0
 40
0
 40
1
 40
1
 40
1
 40
1
 10
120.000020
 20
162.500000
 30
0.0
 10
119.336979
 20
162.500000
 30
0.0
 10
118.701094
 20
162.763392
 30
0.0
 10
118.232253
 20
163.232233
 30
0.0
  0
SPLINE
  5
31c
100
AcDbEntity
  8
Layer_1
 62
7
100
AcDbSpline
 70
8
 71
3
 72
8
 73
4
 74
0
 40
0
 40
0
 40
0
 40
0
 40
1
 40
1
 40
1
 40
1
 10
118.232253
 20
163.232233
 30
0.0
 10
117.763412
 20
163.701074
 30
0.0
 10
117.500020
 20
164.336959
 30
0.0
 10
117.500020
 20
165.000000
 30
0.0
  0
SPLINE
  5
31d
100
AcDbEntity
  8
Layer_1
 62
7
100
AcDbSpline
 70
8
 71
3
 72
8
 73
4
 74
0
 40
0
 40
0
 40
0
 40
0
 40
1
 40
1
 40
1
 40
1
 10
117.500020
 20
165.000000
 30
0.0
 10
117.500020
 20
165.663041
 30
0.0
 10
117.763412
 20
166.298926
 30
0.0
 10
118.232253
 20
166.767767
 30
0.0
  0
SPLINE
  5
31e
100
AcDbEntity
  8
Layer_1
 62
7
100
AcDbSpline
 70
8
 71
3
 72
8
 73
4
 74
0
 40
0
 40
0
 40
0
 40
0
 40
1
 40
1
 40
1
 40
1
 10
118.232253
 20
166.767767
 30
0.0
 10
118.701094
 20
167.236608
 30
0.0
 10
119.336979
 20
167.500000
 30
0.0
 10
120.000020
 20
167.500000
 30
0.0
  0
SPLINE
  5
31f
100
AcDbEntity
  8
Layer_1
 62
7
100
AcDbSpline
 70
8
 71
3
 72
8
 73
4
 74
0
 40
0
 40
0
 40
0
 40
0
 40
1
 40
1
 40
1
 40
1
 10
120.000020
 20
167.500000
 30
0.0
 10
120.663061
 20
167.500000
 30
0.0
 10
121.298946
 20
167.236608
 30
0.0
 10
121.767787
 20
166.767767
 30
0.0
  0
SPLINE
  5
320
100
AcDbEntity
  8
Layer_1
 62
7
100
AcDbSpline
 70
8
 71
3
 72
8
 73
4
 74
0
 40
0
 40
0
 40
0
 40
0
 40
1
 40
1
 40
1
 40
1
 10
121.767787
 20
166.767767
 30
0.0
 10
122.236628
 20
166.298926
 30
0.0
 10
122.500020
 20
165.663041
 30
0.0
 10
122.500020
 20
165.000000
 30
0.0
  0
LINE
  5
321
100
AcDbEntity
  8
Layer_1
 62
7
100
AcDbLine
 10
122.500020
 20
165.000000
 30
0.0
 11
122.500020
 21
165.000000
 31
0.0
  0
SPLINE
  5
322
100
AcDbEntity
  8
Layer_1
 62
7
100
AcDbSpline
 70
8
 71
3
 72
8
 73
4
 74
0
 40
0
 40
0
 40
0
 40
0
 40
1
 40
1
 40
1
 40
1
 10
122.500020
 20
148.500000
 30
0.0
 10
122.500020
 20
147.836959
 30
0.0
 10
122.236628
 20
147.201074
 30
0.0
 10
121.767787
 20
146.732233
 30
0.0
  0
SPLINE
  5
323
100
AcDbEntity
  8
Layer_1
 62
7
100
AcDbSpline
 70
8
 71
3
 72
8
 73
4
 74
0
 40
0
 40
0
 40
0
 40
0
 40
1
 40
1
 40
1
 40
1
 10
121.767787
 20
146.732233
 30
0.0
 10
121.298946
 20
146.263392
 30
0.0
 10
120.663061
 20
146.000000
 30
0.0
 10
120.000020
 20
146.000000
 30
0.0
  0
SPLINE
  5
324
100
AcDbEntity
  8
Layer_1
 62
7
100
AcDbSpline
 70
8
 71
3
 72
8
 73
4
 74
0
 40
0
 40
0
 40
0
 40
0
 40
1
 40
1
 40
1
 40
1
 10
120.000020
 20
146.000000
 30
0.0
 10
119.336979
 20
146.000000
 30
0.0
 10
118.701094
 20
146.263392
 30
0.0
 10
118.232253
 20
146.732233
 30
0.0
  0
SPLINE
  5
325
100
AcDbEntity
  8
Layer_1
 62
7
100
AcDbSpline
 70
8
 71
3
 72
8
 73
4
 74
0
 40
0
 40
0
 40
0
 40
0
 40
1
 40
1
 40
1
 40
1
 10
118.232253
 20
146.732233
 30
0.0
 10
117.763412
 20
147.201074
 30
0.0
 10
117.500020
 20
147.836959
 30
0.0
 10
117.500020
 20
148.500000
 30
0.0
  0
SPLINE
  5
326
100
AcDbEntity
  8
Layer_1
 62
7
100
AcDbSpline
 70
8
 71
3
 72
8
 73
4
 74
0
 40
0
 40
0
 40
0
 40
0
 40
1
 40
1
 40
1
 40
1
 10
117.500020
 20
148.500000
 30
0.0
 10
117.500020
 20
149.163041
 30
0.0
 10
117.763412
 20
149.798926
 30
0.0
 10
118.232253
 20
150.267767
 30
0.0
  0
SPLINE
  5
327
100
AcDbEntity
  8
Layer_1
 62
7
100
AcDbSpline
 70
8
 71
3
 72
8
 73
4
 74
0
 40
0
 40
0
 40
0
 40
0
 40
1
 40
1
 40
1
 40
1
 10
118.232253
 20
150.267767
 30
0.0
 10
118.701094
 20
150.736608
 30
0.0
 10
119.336979
 20
151.000000
 30
0.0
 10
120.000020
 20
151.000000
 30
0.0
  0
SPLINE
  5
328
100
AcDbEntity
  8
Layer_1
 62
7
100
AcDbSpline
 70
8
 71
3
 72
8
 73
4
 74
0
 40
0
 40
0
 40
0
 40
0
 40
1
 40
1
 40
1
 40
1
 10
120.000020
 20
151.000000
 30
0.0
 10
120.663061
 20
151.000000
 30
0.0
 10
121.298946
 20
150.736608
 30
0.0
 10
121.767787
 20
150.267767
 30
0.0
  0
SPLINE
  5
329
100
AcDbEntity
  8
Layer_1
 62
7
100
AcDbSpline
 70
8
 71
3
 72
8
 73
4
 74
0
 40
0
 40
0
 40
0
 40
0
 40
1
 40
1
 40
1
 40
1
 10
121.767787
 20
150.267767
 30
0.0
 10
122.236628
 20
149.798926
 30
0.0
 10
122.500020
 20
149.163041
 30
0.0
 10
122.500020
 20
148.500000
 30
0.0
  0
LINE
  5
32a
100
AcDbEntity
  8
Layer_1
 62
7
100
AcDbLine
 10
122.500020
 20
148.500000
 30
0.0
 11
122.500020
 21
148.500000
 31
0.0
  0
SPLINE
  5
32b
100
AcDbEntity
  8
Layer_1
 62
7
100
AcDbSpline
 70
8
 71
3
 72
8
 73
4
 74
0
 40
0
 40
0
 40
0
 40
0
 40
1
 40
1
 40
1
 40
1
 10
122.500020
 20
132.000000
 30
0.0
 10
122.500020
 20
131.336959
 30
0.0
 10
122.236628
 20
130.701074
 30
0.0
 10
121.767787
 20
130.232233
 30
0.0
  0
SPLINE
  5
32c
100
AcDbEntity
  8
Layer_1
 62
7
100
AcDbSpline
 70
8
 71
3
 72
8
 73
4
 74
0
 40
0
 40
0
 40
0
 40
0
 40
1
 40
1
 40
1
 40
1
 10
121.767787
 20
130.232233
 30
0.0
 10
121.298946
 20
129.763392
 30
0.0
 10
120.663061
 20
129.500000
 30
0.0
 10
120.000020
 20
129.500000
 30
0.0
  0
SPLINE
  5
32d
100
AcDbEntity
  8
Layer_1
 62
7
100
AcDbSpline
 70
8
 71
3
 72
8
 73
4
 74
0
 40
0
 40
0
 40
0
 40
0
 40
1
 40
1
 40
1
 40
1
 10
120.000020
 20
129.500000
 30
0.0
 10
119.336979
 20
129.500000
 30
0.0
 10
118.701094
 20
129.763392
 30
0.0
 10
118.232253
 20
130.232233
 30
0.0
  0
SPLINE
  5
32e
100
AcDbEntity
  8
Layer_1
 62
7
100
AcDbSpline
 70
8
 71
3
 72
8
 73
4
 74
0
 40
0
 40
0
 40
0
 40
0
 40
1
 40
1
 40
1
 40
1
 10
118.232253
 20
130.232233
 30
0.0
 10
117.763412
 20
130.701074
 30
0.0
 10
117.500020
 20
131.336959
 30
0.0
 10
117.500020
 20
132.000000
 30
0.0
  0
SPLINE
  5
32f
100
AcDbEntity
  8
Layer_1
 62
7
100
AcDbSpline
 70
8
 71
3
 72
8
 73
4
 74
0
 40
0
 40
0
 40
0
 40
0
 40
1
 40
1
 40
1
 40
1
 10
117.500020
 20
132.000000
 30
0.0
 10
117.500020
 20
132.663041
 30
0.0
 10
117.763412
 20
133.298926
 30
0.0
 10
118.232253
 20
133.767767
 30
0.0
  0
SPLINE
  5
330
100
AcDbEntity
  8
Layer_1
 62
7
100
AcDbSpline
 70
8
 71
3
 72
8
 73
4
 74
0
 40
0
 40
0
 40
0
 40
0
 40
1
 40
1
 40
1
 40
1
 10
118.232253
 20
133.767767
 30
0.0
 10
118.701094
 20
134.236608
 30
0.0
 10
119.336979
 20
134.500000
 30
0.0
 10
120.000020
 20
134.500000
 30
0.0
  0
SPLINE
  5
331
100
AcDbEntity
  8
Layer_1
 62
7
100
AcDbSpline
 70
8
 71
3
 72
8
 73
4
 74
0
 40
0
 40
0
 40
0
 40
0
 40
1
 40
1
 40
1
 40
1
 10
120.000020
 20
134.500000
 30
0.0
 10
120.663061
 20
134.500000
 30
0.0
 10
121.298946
 20
134.236608
 30
0.0
 10
121.767787
 20
133.767767
 30
0.0
  0
SPLINE
  5
332
100
AcDbEntity
  8
Layer_1
 62
7
100
AcDbSpline
 70
8
 71
3
 72
8
 73
4
 74
0
 40
0
 40
0
 40
0
 40
0
 40
1
 40
1
 40
1
 40
1
 10
121.767787
 20
133.767767
 30
0.0
 10
122.236628
 20
133.298926
 30
0.0
 10
122.500020
 20
132.663041
 30
0.0
 10
122.500020
 20
132.000000
 30
0.0
  0
LINE
  5
333
100
AcDbEntity
  8
Layer_1
 62
7
100
AcDbLine
 10
122.500020
 20
132.000000
 30
0.0
 11
122.500020
 21
132.000000
 31
0.0
  0
SPLINE
  5
334
100
AcDbEntity
  8
Layer_1
 62
7
100
AcDbSpline
 70
8
 71
3
 72
8
 73
4
 74
0
 40
0
 40
0
 40
0
 40
0
 40
1
 40
1
 40
1
 40
1
 10
137.500020
 20
165.000000
 30
0.0
 10
137.500020
 20
164.336959
 30
0.0
 10
137.236628
 20
163.701074
 30
0.0
 10
136.767787
 20
163.232233
 30
0.0
  0
SPLINE
  5
335
100
AcDbEntity
  8
Layer_1
 62
7
100
AcDbSpline
 70
8
 71
3
 72
8
 73
4
 74
0
 40
0
 40
0
 40
0
 40
0
 40
1
 40
1
 40
1
 40
1
 10
136.767787
 20
163.232233
 30
0.0
 10
136.298946
 20
162.763392
 30
0.0
 10
135.663061
 20
162.500000
 30
0.0
 10
135.000020
 20
162.500000
 30
0.0
  0
SPLINE
  5
336
100
AcDbEntity
  8
Layer_1
 62
7
100
AcDbSpline
 70
8
 71
3
 72
8
 73
4
 74
0
 40
0
 40
0
 40
0
 40
0
 40
1
 40
1
 40
1
 40
1
 10
135.000020
 20
162.500000
 30
0.0
 10
134.336979
 20
162.500000
 30
0.0
 10
133.701094
 20
162.763392
 30
0.0
 10
133.232253
 20
163.232233
 30
0.0
  0
SPLINE
  5
337
100
AcDbEntity
  8
Layer_1
 62
7
100
AcDbSpline
 70
8
 71
3
 72
8
 73
4
 74
0
 40
0
 40
0
 40
0
 40
0
 40
1
 40
1
 40
1
 40
1
 10
133.232253
 20
163.232233
 30
0.0
 10
132.763412
 20
163.701074
 30
0.0
 10
132.500020
 20
164.336959
 30
0.0
 10
132.500020
 20
165.000000
 30
0.0
  0
SPLINE
  5
338
100
AcDbEntity
  8
Layer_1
 62
7
100
AcDbSpline
 70
8
 71
3
 72
8
 73
4
 74
0
 40
0
 40
0
 40
0
 40
0
 40
1
 40
1
 40
1
 40
1
 10
132.500020
 20
165.000000
 30
0.0
 10
132.500020
 20
165.663041
 30
0.0
 10
132.763412
 20
166.298926
 30
0.0
 10
133.232253
 20
166.767767
 30
0.0
  0
SPLINE
  5
339
100
AcDbEntity
  8
Layer_1
 62
7
100
AcDbSpline
 70
8
 71
3
 72
8
 73
4
 74
0
 40
0
 40
0
 40
0
 40
0
 40
1
 40
1
 40
1
 40
1
 10
133.232253
 20
166.767767
 30
0.0
 10
133.701094
 20
167.236608
 30
0.0
 10
134.336979
 20
167.500000
 30
0.0
 10
135.000020
 20
167.500000
 30
0.0
  0
SPLINE
  5
33a
100
AcDbEntity
  8
Layer_1
 62
7
100
AcDbSpline
 70
8
 71
3
 72
8
 73
4
 74
0
 40
0
 40
0
 40
0
 40
0
 40
1
 40
1
 40
1
 40
1
 10
135.000020
 20
167.500000
 30
0.0
 10
135.663061
 20
167.500000
 30
0.0
 10
136.298946
 20
167.236608
 30
0.0
 10
136.767787
 20
166.767767
 30
0.0
  0
SPLINE
  5
33b
100
AcDbEntity
  8
Layer_1
 62
7
100
AcDbSpline
 70
8
 71
3
 72
8
 73
4
 74
0
 40
0
 40
0
 40
0
 40
0
 40
1
 40
1
 40
1
 40
1
 10
136.767787
 20
166.767767
 30
0.0
 10
137.236628
 20
166.298926
 30
0.0
 10
137.500020
 20
165.663041
 30
0.0
 10
137.500020
 20
165.000000
 30
0.0
  0
LINE
  5
33c
100
AcDbEntity
  8
Layer_1
 62
7
100
AcDbLine
 10
137.500020
 20
165.000000
 30
0.0
 11
137.500020
 21
165.000000
 31
0.0
  0
SPLINE
  5
33d
100
AcDbEntity
  8
Layer_1
 62
7
100
AcDbSpline
 70
8
 71
3
 72
8
 73
4
 74
0
 40
0
 40
0
 40
0
 40
0
 40
1
 40
1
 40
1
 40
1
 10
137.500020
 20
148.500000
 30
0.0
 10
137.500020
 20
147.836959
 30
0.0
 10
137.236628
 20
147.201074
 30
0.0
 10
136.767787
 20
146.732233
 30
0.0
  0
SPLINE
  5
33e
100
AcDbEntity
  8
Layer_1
 62
7
100
AcDbSpline
 70
8
 71
3
 72
8
 73
4
 74
0
 40
0
 40
0
 40
0
 40
0
 40
1
 40
1
 40
1
 40
1
 10
136.767787
 20
146.732233
 30
0.0
 10
136.298946
 20
146.263392
 30
0.0
 10
135.663061
 20
146.000000
 30
0.0
 10
135.000020
 20
146.000000
 30
0.0
  0
SPLINE
  5
33f
100
AcDbEntity
  8
Layer_1
 62
7
100
AcDbSpline
 70
8
 71
3
 72
8
 73
4
 74
0
 40
0
 40
0
 40
0
 40
0
 40
1
 40
1
 40
1
 40
1
 10
135.000020
 20
146.000000
 30
0.0
 10
134.336979
 20
146.000000
 30
0.0
 10
133.701094
 20
146.263392
 30
0.0
 10
133.232253
 20
146.732233
 30
0.0
  0
SPLINE
  5
340
100
AcDbEntity
  8
Layer_1
 62
7
100
AcDbSpline
 70
8
 71
3
 72
8
 73
4
 74
0
 40
0
 40
0
 40
0
 40
0
 40
1
 40
1
 40
1
 40
1
 10
133.232253
 20
146.732233
 30
0.0
 10
132.763412
 20
147.201074
 30
0.0
 10
132.500020
 20
147.836959
 30
0.0
 10
132.500020
 20
148.500000
 30
0.0
  0
SPLINE
  5
341
100
AcDbEntity
  8
Layer_1
 62
7
100
AcDbSpline
 70
8
 71
3
 72
8
 73
4
 74
0
 40
0
 40
0
 40
0
 40
0
 40
1
 40
1
 40
1
 40
1
 10
132.500020
 20
148.500000
 30
0.0
 10
132.500020
 20
149.163041
 30
0.0
 10
132.763412
 20
149.798926
 30
0.0
 10
133.232253
 20
150.267767
 30
0.0
  0
SPLINE
  5
342
100
AcDbEntity
  8
Layer_1
 62
7
100
AcDbSpline
 70
8
 71
3
 72
8
 73
4
 74
0
 40
0
 40
0
 40
0
 40
0
 40
1
 40
1
 40
1
 40
1
 10
133.232253
 20
150.267767
 30
0.0
 10
133.701094
 20
150.736608
 30
0.0
 10
134.336979
 20
151.000000
 30
0.0
 10
135.000020
 20
151.000000
 30
0.0
  0
SPLINE
  5
343
100
AcDbEntity
  8
Layer_1
 62
7
100
AcDbSpline
 70
8
 71
3
 72
8
 73
4
 74
0
 40
0
 40
0
 40
0
 40
0
 40
1
 40
1
 40
1
 40
1
 10
135.000020
 20
151.000000
 30
0.0
 10
135.663061
 20
151.000000
 30
0.0
 10
136.298946
 20
150.736608
 30
0.0
 10
136.767787
 20
150.267767
 30
0.0
  0
SPLINE
  5
344
100
AcDbEntity
  8
Layer_1
 62
7
100
AcDbSpline
 70
8
 71
3
 72
8
 73
4
 74
0
 40
0
 40
0
 40
0
 40
0
 40
1
 40
1
 40
1
 40
1
 10
136.767787
 20
150.267767
 30
0.0
 10
137.236628
 20
149.798926
 30
0.0
 10
137.500020
 20
149.163041
 30
0.0
 10
137.500020
 20
148.500000
 30
0.0
  0
LINE
  5
345
100
AcDbEntity
  8
Layer_1
 62
7
100
AcDbLine
 10
137.500020
 20
148.500000
 30
0.0
 11
137.500020
 21
148.500000
 31
0.0
  0
SPLINE
  5
346
100
AcDbEntity
  8
Layer_1
 62
7
100
AcDbSpline
 70
8
 71
3
 72
8
 73
4
 74
0
 40
0
 40
0
 40
0
 40
0
 40
1
 40
1
 40
1
 40
1
 10
137.500020
 20
132.000000
 30
0.0
 10
137.500020
 20
131.336959
 30
0.0
 10
137.236628
 20
130.701074
 30
0.0
 10
136.767787
 20
130.232233
 30
0.0
  0
SPLINE
  5
347
100
AcDbEntity
  8
Layer_1
 62
7
100
AcDbSpline
 70
8
 71
3
 72
8
 73
4
 74
0
 40
0
 40
0
 40
0
 40
0
 40
1
 40
1
 40
1
 40
1
 10
136.767787
 20
130.232233
 30
0.0
 10
136.298946
 20
129.763392
 30
0.0
 10
135.663061
 20
129.500000
 30
0.0
 10
135.000020
 20
129.500000
 30
0.0
  0
SPLINE
  5
348
100
AcDbEntity
  8
Layer_1
 62
7
100
AcDbSpline
 70
8
 71
3
 72
8
 73
4
 74
0
 40
0
 40
0
 40
0
 40
0
 40
1
 40
1
 40
1
 40
1
 10
135.000020
 20
129.500000
 30
0.0
 10
134.336979
 20
129.500000
 30
0.0
 10
133.701094
 20
129.763392
 30
0.0
 10
133.232253
 20
130.232233
 30
0.0
  0
SPLINE
  5
349
100
AcDbEntity
  8
Layer_1
 62
7
100
AcDbSpline
 70
8
 71
3
 72
8
 73
4
 74
0
 40
0
 40
0
 40
0
 40
0
 40
1
 40
1
 40
1
 40
1
 10
133.232253
 20
130.232233
 30
0.0
 10
132.763412
 20
130.701074
 30
0.0
 10
132.500020
 20
131.336959
 30
0.0
 10
132.500020
 20
132.000000
 30
0.0
  0
SPLINE
  5
34a
100
AcDbEntity
  8
Layer_1
 62
7
100
AcDbSpline
 70
8
 71
3
 72
8
 73
4
 74
0
 40
0
 40
0
 40
0
 40
0
 40
1
 40
1
 40
1
 40
1
 10
132.500020
 20
132.000000
 30
0.0
 10
132.500020
 20
132.663041
 30
0.0
 10
132.763412
 20
133.298926
 30
0.0
 10
133.232253
 20
133.767767
 30
0.0
  0
SPLINE
  5
34b
100
AcDbEntity
  8
Layer_1
 62
7
100
AcDbSpline
 70
8
 71
3
 72
8
 73
4
 74
0
 40
0
 40
0
 40
0
 40
0
 40
1
 40
1
 40
1
 40
1
 10
133.232253
 20
133.767767
 30
0.0
 10
133.701094
 20
134.236608
 30
0.0
 10
134.336979
 20
134.500000
 30
0.0
 10
135.000020
 20
134.500000
 30
0.0
  0
SPLINE
  5
34c
100
AcDbEntity
  8
Layer_1
 62
7
100
AcDbSpline
 70
8
 71
3
 72
8
 73
4
 74
0
 40
0
 40
0
 40
0
 40
0
 40
1
 40
1
 40
1
 40
1
 10
135.000020
 20
134.500000
 30
0.0
 10
135.663061
 20
134.500000
 30
0.0
 10
136.298946
 20
134.236608
 30
0.0
 10
136.767787
 20
133.767767
 30
0.0
  0
SPLINE
  5
34d
100
AcDbEntity
  8
Layer_1
 62
7
100
AcDbSpline
 70
8
 71
3
 72
8
 73
4
 74
0
 40
0
 40
0
 40
0
 40
0
 40
1
 40
1
 40
1
 40
1
 10
136.767787
 20
133.767767
 30
0.0
 10
137.236628
 20
133.298926
 30
0.0
 10
137.500020
 20
132.663041
 30
0.0
 10
137.500020
 20
132.000000
 30
0.0
  0
LINE
  5
34e
100
AcDbEntity
  8
Layer_1
 62
7
100
AcDbLine
 10
137.500020
 20
132.000000
 30
0.0
 11
137.500020
 21
132.000000
 31
0.0
  0
SPLINE
  5
34f
100
AcDbEntity
  8
Layer_1
 62
7
100
AcDbSpline
 70
8
 71
3
 72
8
 73
4
 74
0
 40
0
 40
0
 40
0
 40
0
 40
1
 40
1
 40
1
 40
1
 10
152.499980
 20
165.000000
 30
0.0
 10
152.499980
 20
164.336959
 30
0.0
 10
152.236588
 20
163.701074
 30
0.0
 10
151.767747
 20
163.232233
 30
0.0
  0
SPLINE
  5
350
100
AcDbEntity
  8
Layer_1
 62
7
100
AcDbSpline
 70
8
 71
3
 72
8
 73
4
 74
0
 40
0
 40
0
 40
0
 40
0
 40
1
 40
1
 40
1
 40
1
 10
151.767747
 20
163.232233
 30
0.0
 10
151.298906
 20
162.763392
 30
0.0
 10
150.663021
 20
162.500000
 30
0.0
 10
149.999980
 20
162.500000
 30
0.0
  0
SPLINE
  5
351
100
AcDbEntity
  8
Layer_1
 62
7
100
AcDbSpline
 70
8
 71
3
 72
8
 73
4
 74
0
 40
0
 40
0
 40
0
 40
0
 40
1
 40
1
 40
1
 40
1
 10
149.999980
 20
162.500000
 30
0.0
 10
149.336939
 20
162.500000
 30
0.0
 10
148.701054
 20
162.763392
 30
0.0
 10
148.232213
 20
163.232233
 30
0.0
  0
SPLINE
  5
352
100
AcDbEntity
  8
Layer_1
 62
7
100
AcDbSpline
 70
8
 71
3
 72
8
 73
4
 74
0
 40
0
 40
0
 40
0
 40
0
 40
1
 40
1
 40
1
 40
1
 10
148.232213
 20
163.232233
 30
0.0
 10
147.763372
 20
163.701074
 30
0.0
 10
147.499980
 20
164.336959
 30
0.0
 10
147.499980
 20
165.000000
 30
0.0
  0
SPLINE
  5
353
100
AcDbEntity
  8
Layer_1
 62
7
100
AcDbSpline
 70
8
 71
3
 72
8
 73
4
 74
0
 40
0
 40
0
 40
0
 40
0
 40
1
 40
1
 40
1
 40
1
 10
147.499980
 20
165.000000
 30
0.0
 10
147.499980
 20
165.663041
 30
0.0
 10
147.763372
 20
166.298926
 30
0.0
 10
148.232213
 20
166.767767
 30
0.0
  0
SPLINE
  5
354
100
AcDbEntity
  8
Layer_1
 62
7
100
AcDbSpline
 70
8
 71
3
 72
8
 73
4
 74
0
 40
0
 40
0
 40
0
 40
0
 40
1
 40
1
 40
1
 40
1
 10
148.232213
 20
166.767767
 30
0.0
 10
148.701054
 20
167.236608
 30
0.0
 10
149.336939
 20
167.500000
 30
0.0
 10
149.999980
 20
167.500000
 30
0.0
  0
SPLINE
  5
355
100
AcDbEntity
  8
Layer_1
 62
7
100
AcDbSpline
 70
8
 71
3
 72
8
 73
4
 74
0
 40
0
 40
0
 40
0
 40
0
 40
1
 40
1
 40
1
 40
1
 10
149.999980
 20
167.500000
 30
0.0
 10
150.663021
 20
167.500000
 30
0.0
 10
151.298906
 20
167.236608
 30
0.0
 10
151.767747
 20
166.767767
 30
0.0
  0
SPLINE
  5
356
100
AcDbEntity
  8
Layer_1
 62
7
100
AcDbSpline
 70
8
 71
3
 72
8
 73
4
 74
0
 40
0
 40
0
 40
0
 40
0
 40
1
 40
1
 40
1
 40
1
 10
151.767747
 20
166.767767
 30
0.0
 10
152.236588
 20
166.298926
 30
0.0
 10
152.499980
 20
165.663041
 30
0.0
 10
152.499980
 20
165.000000
 30
0.0
  0
LINE
  5
357
100
AcDbEntity
  8
Layer_1
 62
7
100
AcDbLine
 10
152.499980
 20
165.000000
 30
0.0
 11
152.499980
 21
165.000000
 31
0.0
  0
SPLINE
  5
358
100
AcDbEntity
  8
Layer_1
 62
7
100
AcDbSpline
 70
8
 71
3
 72
8
 73
4
 74
0
 40
0
 40
0
 40
0
 40
0
 40
1
 40
1
 40
1
 40
1
 10
152.499980
 20
148.500000
 30
0.0
 10
152.499980
 20
147.836959
 30
0.0
 10
152.236588
 20
147.201074
 30
0.0
 10
151.767747
 20
146.732233
 30
0.0
  0
SPLINE
  5
359
100
AcDbEntity
  8
Layer_1
 62
7
100
AcDbSpline
 70
8
 71
3
 72
8
 73
4
 74
0
 40
0
 40
0
 40
0
 40
0
 40
1
 40
1
 40
1
 40
1
 10
151.767747
 20
146.732233
 30
0.0
 10
151.298906
 20
146.263392
 30
0.0
 10
150.663021
 20
146.000000
 30
0.0
 10
149.999980
 20
146.000000
 30
0.0
  0
SPLINE
  5
35a
100
AcDbEntity
  8
Layer_1
 62
7
100
AcDbSpline
 70
8
 71
3
 72
8
 73
4
 74
0
 40
0
 40
0
 40
0
 40
0
 40
1
 40
1
 40
1
 40
1
 10
149.999980
 20
146.000000
 30
0.0
 10
149.336939
 20
146.000000
 30
0.0
 10
148.701054
 20
146.263392
 30
0.0
 10
148.232213
 20
146.732233
 30
0.0
  0
SPLINE
  5
35b
100
AcDbEntity
  8
Layer_1
 62
7
100
AcDbSpline
 70
8
 71
3
 72
8
 73
4
 74
0
 40
0
 40
0
 40
0
 40
0
 40
1
 40
1
 40
1
 40
1
 10
148.232213
 20
146.732233
 30
0.0
 10
147.763372
 20
147.201074
 30
0.0
 10
147.499980
 20
147.836959
 30
0.0
 10
147.499980
 20
148.500000
 30
0.0
  0
SPLINE
  5
35c
100
AcDbEntity
  8
Layer_1
 62
7
100
AcDbSpline
 70
8
 71
3
 72
8
 73
4
 74
0
 40
0
 40
0
 40
0
 40
0
 40
1
 40
1
 40
1
 40
1
 10
147.499980
 20
148.500000
 30
0.0
 10
147.499980
 20
149.163041
 30
0.0
 10
147.763372
 20
149.798926
 30
0.0
 10
148.232213
 20
150.267767
 30
0.0
  0
SPLINE
  5
35d
100
AcDbEntity
  8
Layer_1
 62
7
100
AcDbSpline
 70
8
 71
3
 72
8
 73
4
 74
0
 40
0
 40
0
 40
0
 40
0
 40
1
 40
1
 40
1
 40
1
 10
148.232213
 20
150.267767
 30
0.0
 10
148.701054
 20
150.736608
 30
0.0
 10
149.336939
 20
151.000000
 30
0.0
 10
149.999980
 20
151.000000
 30
0.0
  0
SPLINE
  5
35e
100
AcDbEntity
  8
Layer_1
 62
7
100
AcDbSpline
 70
8
 71
3
 72
8
 73
4
 74
0
 40
0
 40
0
 40
0
 40
0
 40
1
 40
1
 40
1
 40
1
 10
149.999980
 20
151.000000
 30
0.0
 10
150.663021
 20
151.000000
 30
0.0
 10
151.298906
 20
150.736608
 30
0.0
 10
151.767747
 20
150.267767
 30
0.0
  0
SPLINE
  5
35f
100
AcDbEntity
  8
Layer_1
 62
7
100
AcDbSpline
 70
8
 71
3
 72
8
 73
4
 74
0
 40
0
 40
0
 40
0
 40
0
 40
1
 40
1
 40
1
 40
1
 10
151.767747
 20
150.267767
 30
0.0
 10
152.236588
 20
149.798926
 30
0.0
 10
152.499980
 20
149.163041
 30
0.0
 10
152.499980
 20
148.500000
 30
0.0
  0
LINE
  5
360
100
AcDbEntity
  8
Layer_1
 62
7
100
AcDbLine
 10
152.499980
 20
148.500000
 30
0.0
 11
152.499980
 21
148.500000
 31
0.0
  0
SPLINE
  5
361
100
AcDbEntity
  8
Layer_1
 62
7
100
AcDbSpline
 70
8
 71
3
 72
8
 73
4
 74
0
 40
0
 40
0
 40
0
 40
0
 40
1
 40
1
 40
1
 40
1
 10
152.499980
 20
132.000000
 30
0.0
 10
152.499980
 20
131.336959
 30
0.0
 10
152.236588
 20
130.701074
 30
0.0
 10
151.767747
 20
130.232233
 30
0.0
  0
SPLINE
  5
362
100
AcDbEntity
  8
Layer_1
 62
7
100
AcDbSpline
 70
8
 71
3
 72
8
 73
4
 74
0
 40
0
 40
0
 40
0
 40
0
 40
1
 40
1
 40
1
 40
1
 10
151.767747
 20
130.232233
 30
0.0
 10
151.298906
 20
129.763392
 30
0.0
 10
150.663021
 20
129.500000
 30
0.0
 10
149.999980
 20
129.500000
 30
0.0
  0
SPLINE
  5
363
100
AcDbEntity
  8
Layer_1
 62
7
100
AcDbSpline
 70
8
 71
3
 72
8
 73
4
 74
0
 40
0
 40
0
 40
0
 40
0
 40
1
 40
1
 40
1
 40
1
 10
149.999980
 20
129.500000
 30
0.0
 10
149.336939
 20
129.500000
 30
0.0
 10
148.701054
 20
129.763392
 30
0.0
 10
148.232213
 20
130.232233
 30
0.0
  0
SPLINE
  5
364
100
AcDbEntity
  8
Layer_1
 62
7
100
AcDbSpline
 70
8
 71
3
 72
8
 73
4
 74
0
 40
0
 40
0
 40
0
 40
0
 40
1
 40
1
 40
1
 40
1
 10
148.232213
 20
130.232233
 30
0.0
 10
147.763372
 20
130.701074
 30
0.0
 10
147.499980
 20
131.336959
 30
0.0
 10
147.499980
 20
132.000000
 30
0.0
  0
SPLINE
  5
365
100
AcDbEntity
  8
Layer_1
 62
7
100
AcDbSpline
 70
8
 71
3
 72
8
 73
4
 74
0
 40
0
 40
0
 40
0
 40
0
 40
1
 40
1
 40
1
 40
1
 10
147.499980
 20
132.000000
 30
0.0
 10
147.499980
 20
132.663041
 30
0.0
 10
147.763372
 20
133.298926
 30
0.0
 10
148.232213
 20
133.767767
 30
0.0
  0
SPLINE
  5
366
100
AcDbEntity
  8
Layer_1
 62
7
100
AcDbSpline
 70
8
 71
3
 72
8
 73
4
 74
0
 40
0
 40
0
 40
0
 40
0
 40
1
 40
1
 40
1
 40
1
 10
148.232213
 20
133.767767
 30
0.0
 10
148.701054
 20
134.236608
 30
0.0
 10
149.336939
 20
134.500000
 30
0.0
 10
149.999980
 20
134.500000
 30
0.0
  0
SPLINE
  5
367
100
AcDbEntity
  8
Layer_1
 62
7
100
AcDbSpline
 70
8
 71
3
 72
8
 73
4
 74
0
 40
0
 40
0
 40
0
 40
0
 40
1
 40
1
 40
1
 40
1
 10
149.999980
 20
134.500000
 30
0.0
 10
150.663021
 20
134.500000
 30
0.0
 10
151.298906
 20
134.236608
 30
0.0
 10
151.767747
 20
133.767767
 30
0.0
  0
SPLINE
  5
368
100
AcDbEntity
  8
Layer_1
 62
7
100
AcDbSpline
 70
8
 71
3
 72
8
 73
4
 74
0
 40
0
 40
0
 40
0
 40
0
 40
1
 40
1
 40
1
 40
1
 10
151.767747
 20
133.767767
 30
0.0
 10
152.236588
 20
133.298926
 30
0.0
 10
152.499980
 20
132.663041
 30
0.0
 10
152.499980
 20
132.000000
 30
0.0
  0
LINE
  5
369
100
AcDbEntity
  8
Layer_1
 62
7
100
AcDbLine
 10
152.499980
 20
132.000000
 30
0.0
 11
152.499980
 21
132.000000
 31
0.0
  0
SPLINE
  5
36a
100
AcDbEntity
  8
Layer_1
 62
7
100
AcDbSpline
 70
8
 71
3
 72
8
 73
4
 74
0
 40
0
 40
0
 40
0
 40
0
 40
1
 40
1
 40
1
 40
1
 10
167.499980
 20
165.000000
 30
0.0
 10
167.499980
 20
164.336959
 30
0.0
 10
167.236588
 20
163.701074
 30
0.0
 10
166.767747
 20
163.232233
 30
0.0
  0
SPLINE
  5
36b
100
AcDbEntity
  8
Layer_1
 62
7
100
AcDbSpline
 70
8
 71
3
 72
8
 73
4
 74
0
 40
0
 40
0
 40
0
 40
0
 40
1
 40
1
 40
1
 40
1
 10
166.767747
 20
163.232233
 30
0.0
 10
166.298906
 20
162.763392
 30
0.0
 10
165.663021
 20
162.500000
 30
0.0
 10
164.999980
 20
162.500000
 30
0.0
  0
SPLINE
  5
36c
100
AcDbEntity
  8
Layer_1
 62
7
100
AcDbSpline
 70
8
 71
3
 72
8
 73
4
 74
0
 40
0
 40
0
 40
0
 40
0
 40
1
 40
1
 40
1
 40
1
 10
164.999980
 20
162.500000
 30
0.0
 10
164.336939
 20
162.500000
 30
0.0
 10
163.701054
 20
162.763392
 30
0.0
 10
163.232213
 20
163.232233
 30
0.0
  0
SPLINE
  5
36d
100
AcDbEntity
  8
Layer_1
 62
7
100
AcDbSpline
 70
8
 71
3
 72
8
 73
4
 74
0
 40
0
 40
0
 40
0
 40
0
 40
1
 40
1
 40
1
 40
1
 10
163.232213
 20
163.232233
 30
0.0
 10
162.763372
 20
163.701074
 30
0.0
 10
162.499980
 20
164.336959
 30
0.0
 10
162.499980
 20
165.000000
 30
0.0
  0
SPLINE
  5
36e
100
AcDbEntity
  8
Layer_1
 62
7
100
AcDbSpline
 70
8
 71
3
 72
8
 73
4
 74
0
 40
0
 40
0
 40
0
 40
0
 40
1
 40
1
 40
1
 40
1
 10
162.499980
 20
165.000000
 30
0.0
 10
162.499980
 20
165.663041
 30
0.0
 10
162.763372
 20
166.298926
 30
0.0
 10
163.232213
 20
166.767767
 30
0.0
  0
SPLINE
  5
36f
100
AcDbEntity
  8
Layer_1
 62
7
100
AcDbSpline
 70
8
 71
3
 72
8
 73
4
 74
0
 40
0
 40
0
 40
0
 40
0
 40
1
 40
1
 40
1
 40
1
 10
163.232213
 20
166.767767
 30
0.0
 10
163.701054
 20
167.236608
 30
0.0
 10
164.336939
 20
167.500000
 30
0.0
 10
164.999980
 20
167.500000
 30
0.0
  0
SPLINE
  5
370
100
AcDbEntity
  8
Layer_1
 62
7
100
AcDbSpline
 70
8
 71
3
 72
8
 73
4
 74
0
 40
0
 40
0
 40
0
 40
0
 40
1
 40
1
 40
1
 40
1
 10
164.999980
 20
167.500000
 30
0.0
 10
165.663021
 20
167.500000
 30
0.0
 10
166.298906
 20
167.236608
 30
0.0
 10
166.767747
 20
166.767767
 30
0.0
  0
SPLINE
  5
371
100
AcDbEntity
  8
Layer_1
 62
7
100
AcDbSpline
 70
8
 71
3
 72
8
 73
4
 74
0
 40
0
 40
0
 40
0
 40
0
 40
1
 40
1
 40
1
 40
1
 10
166.767747
 20
166.767767
 30
0.0
 10
167.236588
 20
166.298926
 30
0.0
 10
167.499980
 20
165.663041
 30
0.0
 10
167.499980
 20
165.000000
 30
0.0
  0
LINE
  5
372
100
AcDbEntity
  8
Layer_1
 62
7
100
AcDbLine
 10
167.499980
 20
165.000000
 30
0.0
 11
167.499980
 21
165.000000
 31
0.0
  0
SPLINE
  5
373
100
AcDbEntity
  8
Layer_1
 62
7
100
AcDbSpline
 70
8
 71
3
 72
8
 73
4
 74
0
 40
0
 40
0
 40
0
 40
0
 40
1
 40
1
 40
1
 40
1
 10
167.499980
 20
148.500000
 30
0.0
 10
167.499980
 20
147.836959
 30
0.0
 10
167.236588
 20
147.201074
 30
0.0
 10
166.767747
 20
146.732233
 30
0.0
  0
SPLINE
  5
374
100
AcDbEntity
  8
Layer_1
 62
7
100
AcDbSpline
 70
8
 71
3
 72
8
 73
4
 74
0
 40
0
 40
0
 40
0
 40
0
 40
1
 40
1
 40
1
 40
1
 10
166.767747
 20
146.732233
 30
0.0
 10
166.298906
 20
146.263392
 30
0.0
 10
165.663021
 20
146.000000
 30
0.0
 10
164.999980
 20
146.000000
 30
0.0
  0
SPLINE
  5
375
100
AcDbEntity
  8
Layer_1
 62
7
100
AcDbSpline
 70
8
 71
3
 72
8
 73
4
 74
0
 40
0
 40
0
 40
0
 40
0
 40
1
 40
1
 40
1
 40
1
 10
164.999980
 20
146.000000
 30
0.0
 10
164.336939
 20
146.000000
 30
0.0
 10
163.701054
 20
146.263392
 30
0.0
 10
163.232213
 20
146.732233
 30
0.0
  0
SPLINE
  5
376
100
AcDbEntity
  8
Layer_1
 62
7
100
AcDbSpline
 70
8
 71
3
 72
8
 73
4
 74
0
 40
0
 40
0
 40
0
 40
0
 40
1
 40
1
 40
1
 40
1
 10
163.232213
 20
146.732233
 30
0.0
 10
162.763372
 20
147.201074
 30
0.0
 10
162.499980
 20
147.836959
 30
0.0
 10
162.499980
 20
148.500000
 30
0.0
  0
SPLINE
  5
377
100
AcDbEntity
  8
Layer_1
 62
7
100
AcDbSpline
 70
8
 71
3
 72
8
 73
4
 74
0
 40
0
 40
0
 40
0
 40
0
 40
1
 40
1
 40
1
 40
1
 10
162.499980
 20
148.500000
 30
0.0
 10
162.499980
 20
149.163041
 30
0.0
 10
162.763372
 20
149.798926
 30
0.0
 10
163.232213
 20
150.267767
 30
0.0
  0
SPLINE
  5
378
100
AcDbEntity
  8
Layer_1
 62
7
100
AcDbSpline
 70
8
 71
3
 72
8
 73
4
 74
0
 40
0
 40
0
 40
0
 40
0
 40
1
 40
1
 40
1
 40
1
 10
163.232213
 20
150.267767
 30
0.0
 10
163.701054
 20
150.736608
 30
0.0
 10
164.336939
 20
151.000000
 30
0.0
 10
164.999980
 20
151.000000
 30
0.0
  0
SPLINE
  5
379
100
AcDbEntity
  8
Layer_1
 62
7
100
AcDbSpline
 70
8
 71
3
 72
8
 73
4
 74
0
 40
0
 40
0
 40
0
 40
0
 40
1
 40
1
 40
1
 40
1
 10
164.999980
 20
151.000000
 30
0.0
 10
165.663021
 20
151.000000
 30
0.0
 10
166.298906
 20
150.736608
 30
0.0
 10
166.767747
 20
150.267767
 30
0.0
  0
SPLINE
  5
37a
100
AcDbEntity
  8
Layer_1
 62
7
100
AcDbSpline
 70
8
 71
3
 72
8
 73
4
 74
0
 40
0
 40
0
 40
0
 40
0
 40
1
 40
1
 40
1
 40
1
 10
166.767747
 20
150.267767
 30
0.0
 10
167.236588
 20
149.798926
 30
0.0
 10
167.499980
 20
149.163041
 30
0.0
 10
167.499980
 20
148.500000
 30
0.0
  0
LINE
  5
37b
100
AcDbEntity
  8
Layer_1
 62
7
100
AcDbLine
 10
167.499980
 20
148.500000
 30
0.0
 11
167.499980
 21
148.500000
 31
0.0
  0
SPLINE
  5
37c
100
AcDbEntity
  8
Layer_1
 62
7
100
AcDbSpline
 70
8
 71
3
 72
8
 73
4
 74
0
 40
0
 40
0
 40
0
 40
0
 40
1
 40
1
 40
1
 40
1
 10
167.499980
 20
132.000000
 30
0.0
 10
167.499980
 20
131.336959
 30
0.0
 10
167.236588
 20
130.701074
 30
0.0
 10
166.767747
 20
130.232233
 30
0.0
  0
SPLINE
  5
37d
100
AcDbEntity
  8
Layer_1
 62
7
100
AcDbSpline
 70
8
 71
3
 72
8
 73
4
 74
0
 40
0
 40
0
 40
0
 40
0
 40
1
 40
1
 40
1
 40
1
 10
166.767747
 20
130.232233
 30
0.0
 10
166.298906
 20
129.763392
 30
0.0
 10
165.663021
 20
129.500000
 30
0.0
 10
164.999980
 20
129.500000
 30
0.0
  0
SPLINE
  5
37e
100
AcDbEntity
  8
Layer_1
 62
7
100
AcDbSpline
 70
8
 71
3
 72
8
 73
4
 74
0
 40
0
 40
0
 40
0
 40
0
 40
1
 40
1
 40
1
 40
1
 10
164.999980
 20
129.500000
 30
0.0
 10
164.336939
 20
129.500000
 30
0.0
 10
163.701054
 20
129.763392
 30
0.0
 10
163.232213
 20
130.232233
 30
0.0
  0
SPLINE
  5
37f
100
AcDbEntity
  8
Layer_1
 62
7
100
AcDbSpline
 70
8
 71
3
 72
8
 73
4
 74
0
 40
0
 40
0
 40
0
 40
0
 40
1
 40
1
 40
1
 40
1
 10
163.232213
 20
130.232233
 30
0.0
 10
162.763372
 20
130.701074
 30
0.0
 10
162.499980
 20
131.336959
 30
0.0
 10
162.499980
 20
132.000000
 30
0.0
  0
SPLINE
  5
380
100
AcDbEntity
  8
Layer_1
 62
7
100
AcDbSpline
 70
8
 71
3
 72
8
 73
4
 74
0
 40
0
 40
0
 40
0
 40
0
 40
1
 40
1
 40
1
 40
1
 10
162.499980
 20
132.000000
 30
0.0
 10
162.499980
 20
132.663041
 30
0.0
 10
162.763372
 20
133.298926
 30
0.0
 10
163.232213
 20
133.767767
 30
0.0
  0
SPLINE
  5
381
100
AcDbEntity
  8
Layer_1
 62
7
100
AcDbSpline
 70
8
 71
3
 72
8
 73
4
 74
0
 40
0
 40
0
 40
0
 40
0
 40
1
 40
1
 40
1
 40
1
 10
163.232213
 20
133.767767
 30
0.0
 10
163.701054
 20
134.236608
 30
0.0
 10
164.336939
 20
134.500000
 30
0.0
 10
164.999980
 20
134.500000
 30
0.0
  0
SPLINE
  5
382
100
AcDbEntity
  8
Layer_1
 62
7
100
AcDbSpline
 70
8
 71
3
 72
8
 73
4
 74
0
 40
0
 40
0
 40
0
 40
0
 40
1
 40
1
 40
1
 40
1
 10
164.999980
 20
134.500000
 30
0.0
 10
165.663021
 20
134.500000
 30
0.0
 10
166.298906
 20
134.236608
 30
0.0
 10
166.767747
 20
133.767767
 30
0.0
  0
SPLINE
  5
383
100
AcDbEntity
  8
Layer_1
 62
7
100
AcDbSpline
 70
8
 71
3
 72
8
 73
4
 74
0
 40
0
 40
0
 40
0
 40
0
 40
1
 40
1
 40
1
 40
1
 10
166.767747
 20
133.767767
 30
0.0
 10
167.236588
 20
133.298926
 30
0.0
 10
167.499980
 20
132.663041
 30
0.0
 10
167.499980
 20
132.000000
 30
0.0
  0
LINE
  5
384
100
AcDbEntity
  8
Layer_1
 62
7
100
AcDbLine
 10
167.499980
 20
132.000000
 30
0.0
 11
167.499980
 21
132.000000
 31
0.0
  0
ENDSEC
  0
SECTION
  2
OBJECTS
  0
DICTIONARY
  5
C
330
0
100
AcDbDictionary
  3
ACAD_GROUP
350
D
  3
ACAD_MLINESTYLE
350
17
  0
DICTIONARY
  5
D
330
C
100
AcDbDictionary
  0
DICTIONARY
  5
1A
330
C
100
AcDbDictionary
  0
DICTIONARY
  5
17
330
C
100
AcDbDictionary
  3
STANDARD
350
18
  0
DICTIONARY
  5
19
330
C
100
AcDbDictionary
  0
ENDSEC
  0
EOF
