  0
SECTION
  2
HEADER
  9
$ACADVER
  1
AC1014
  9
$HANDSEED
  5
FFFF
  9
$MEASUREMENT
 70
     1
  0
ENDSEC
  0
SECTION
  2
TABLES
  0
TABLE
  2
VPORT
  5
8
330
0
100
AcDbSymbolTable
 70
     4
  0
VPORT
  5
2E
330
8
100
AcDbSymbolTableRecord
100
AcDbViewportTableRecord
  2
*ACTIVE
 70
     0
 10
0.0
 20
0.0
 11
1.0
 21
1.0
 12
210.0
 22
148.5
 13
0.0
 23
0.0
 14
10.0
 24
10.0
 15
10.0
 25
10.0
 16
0.0
 26
0.0
 36
1.0
 17
0.0
 27
0.0
 37
0.0
 40
341.0
 41
1.24
 42
50.0
 43
0.0
 44
0.0
 50
0.0
 51
0.0
 71
     0
 72
   100
 73
     1
 74
     3
 75
     0
 76
     0
 77
     0
 78
     0
  0
ENDTAB
  0
TABLE
  2
LTYPE
  5
5
330
0
100
AcDbSymbolTable
 70
     1
  0
LTYPE
  5
14
330
5
100
AcDbSymbolTableRecord
100
AcDbLinetypeTableRecord
  2
BYBLOCK
 70
     0
  3

 72
    65
 73
     0
 40
0.0
  0
LTYPE
  5
15
330
5
100
AcDbSymbolTableRecord
100
AcDbLinetypeTableRecord
  2
BYLAYER
 70
     0
  3

 72
    65
 73
     0
 40
0.0
  0
LTYPE
  5
16
330
5
100
AcDbSymbolTableRecord
100
AcDbLinetypeTableRecord
  2
CONTINUOUS
 70
     0
  3
Solid line
 72
    65
 73
     0
 40
0.0
  0
ENDTAB
  0
TABLE
  2
LAYER
  5
2
100
AcDbSymbolTable
 70
2
  0
LAYER
  5
50
100
AcDbSymbolTableRecord
100
AcDbLayerTableRecord
  2
0
 70
0
  6
CONTINUOUS
  0
LAYER
  5
51
100
AcDbSymbolTableRecord
100
AcDbLayerTableRecord
  2
Layer_1
 70
0
  6
CONTINUOUS
  0
ENDTAB
  0
TABLE
  2
STYLE
  5
3
330
0
100
AcDbSymbolTable
 70
     1
  0
STYLE
  5
11
330
3
100
AcDbSymbolTableRecord
100
AcDbTextStyleTableRecord
  2
STANDARD
 70
     0
 40
0.0
 41
1.0
 50
0.0
 71
     0
 42
2.5
  3
txt
  4

  0
ENDTAB
  0
TABLE
  2
VIEW
  5
6
330
0
100
AcDbSymbolTable
 70
     0
  0
ENDTAB
  0
TABLE
  2
UCS
  5
7
330
0
100
AcDbSymbolTable
 70
     0
  0
ENDTAB
  0
TABLE
  2
APPID
  5
9
330
0
100
AcDbSymbolTable
 70
     2
  0
APPID
  5
12
330
9
100
AcDbSymbolTableRecord
100
AcDbRegAppTableRecord
  2
ACAD
 70
     0
  0
ENDTAB
  0
TABLE
  2
DIMSTYLE
  5
A
330
0
100
AcDbSymbolTable
 70
     1
  0
DIMSTYLE
105
27
330
A
100
AcDbSymbolTableRecord
100
AcDbDimStyleTableRecord
  2
ISO-25
 70
     0
  3

  4

  5

  6

  7

 40
1.0
 41
2.5
 42
0.625
 43
3.75
 44
1.25
 45
0.0
 46
0.0
 47
0.0
 48
0.0
140
2.5
141
2.5
142
0.0
143
0.03937007874016
144
1.0
145
0.0
146
1.0
147
0.625
 71
     0
 72
     0
 73
     0
 74
     0
 75
     0
 76
     0
 77
     1
 78
     8
170
     0
171
     3
172
     1
173
     0
174
     0
175
     0
176
     0
177
     0
178
     0
270
     2
271
     2
272
     2
273
     2
274
     3
340
11
275
     0
280
     0
281
     0
282
     0
283
     0
284
     8
285
     0
286
     0
287
     3
288
     0
  0
ENDTAB
  0
TABLE
  2
BLOCK_RECORD
  5
1
330
0
100
AcDbSymbolTable
 70
     1
  0
BLOCK_RECORD
  5
1F
330
1
100
AcDbSymbolTableRecord
100
AcDbBlockTableRecord
  2
*MODEL_SPACE
  0
BLOCK_RECORD
  5
1B
330
1
100
AcDbSymbolTableRecord
100
AcDbBlockTableRecord
  2
*PAPER_SPACE
  0
ENDTAB
  0
ENDSEC
  0
SECTION
  2
BLOCKS
  0
BLOCK
  5
20
330
1F
100
AcDbEntity
  8
0
100
AcDbBlockBegin
  2
*MODEL_SPACE
 70
     0
 10
0.0
 20
0.0
 30
0.0
  3
*MODEL_SPACE
  1

  0
ENDBLK
  5
21
330
1F
100
AcDbEntity
  8
0
100
AcDbBlockEnd
  0
BLOCK
  5
1C
330
1B
100
AcDbEntity
 67
     1
  8
0
100
AcDbBlockBegin
  2
*PAPER_SPACE
  1

  0
ENDBLK
  5
1D
330
1B
100
AcDbEntity
 67
     1
  8
0
100
AcDbBlockEnd
  0
ENDSEC
  0
SECTION
  2
ENTITIES
  0
LINE
  5
100
100
AcDbEntity
  8
Layer_1
 62
7
100
AcDbLine
 10
-351.139040
 20
285.183067
 30
0.0
 11
-191.139040
 21
285.183067
 31
0.0
  0
LINE
  5
101
100
AcDbEntity
  8
Layer_1
 62
7
100
AcDbLine
 10
-191.139040
 20
285.183067
 30
0.0
 11
-191.139040
 21
195.183070
 31
0.0
  0
LINE
  5
102
100
AcDbEntity
  8
Layer_1
 62
7
100
AcDbLine
 10
-191.139040
 20
195.183070
 30
0.0
 11
-351.139040
 21
195.183070
 31
0.0
  0
LINE
  5
103
100
AcDbEntity
  8
Layer_1
 62
7
100
AcDbLine
 10
-351.139040
 20
195.183070
 30
0.0
 11
-351.139040
 21
285.183067
 31
0.0
  0
LINE
  5
104
100
AcDbEntity
  8
Layer_1
 62
7
100
AcDbLine
 10
-338.274170
 20
267.683218
 30
0.0
 11
-341.139110
 21
259.926587
 31
0.0
  0
LINE
  5
105
100
AcDbEntity
  8
Layer_1
 62
7
100
AcDbLine
 10
-341.139110
 20
259.926587
 30
0.0
 11
-341.139110
 21
241.683257
 31
0.0
  0
LINE
  5
106
100
AcDbEntity
  8
Layer_1
 62
7
100
AcDbLine
 10
-341.139110
 20
241.683257
 30
0.0
 11
-333.314260
 21
241.683257
 31
0.0
  0
LINE
  5
107
100
AcDbEntity
  8
Layer_1
 62
7
100
AcDbLine
 10
-333.314260
 20
241.683257
 30
0.0
 11
-323.711230
 21
267.683218
 31
0.0
  0
LINE
  5
108
100
AcDbEntity
  8
Layer_1
 62
7
100
AcDbLine
 10
-323.711230
 20
267.683218
 30
0.0
 11
-338.274170
 21
267.683218
 31
0.0
  0
LINE
  5
109
100
AcDbEntity
  8
Layer_1
 62
7
100
AcDbLine
 10
-320.771360
 20
267.683218
 30
0.0
 11
-330.374390
 21
241.683257
 31
0.0
  0
LINE
  5
10a
100
AcDbEntity
  8
Layer_1
 62
7
100
AcDbLine
 10
-330.374390
 20
241.683257
 30
0.0
 11
-315.811460
 21
241.683257
 31
0.0
  0
LINE
  5
10b
100
AcDbEntity
  8
Layer_1
 62
7
100
AcDbLine
 10
-315.811460
 20
241.683257
 30
0.0
 11
-306.208420
 21
267.683218
 31
0.0
  0
LINE
  5
10c
100
AcDbEntity
  8
Layer_1
 62
7
100
AcDbLine
 10
-306.208420
 20
267.683218
 30
0.0
 11
-320.771360
 21
267.683218
 31
0.0
  0
LINE
  5
10d
100
AcDbEntity
  8
Layer_1
 62
7
100
AcDbLine
 10
-303.269070
 20
267.683218
 30
0.0
 11
-312.872100
 21
241.683257
 31
0.0
  0
LINE
  5
10e
100
AcDbEntity
  8
Layer_1
 62
7
100
AcDbLine
 10
-312.872100
 20
241.683257
 30
0.0
 11
-298.309170
 21
241.683257
 31
0.0
  0
LINE
  5
10f
100
AcDbEntity
  8
Layer_1
 62
7
100
AcDbLine
 10
-298.309170
 20
241.683257
 30
0.0
 11
-288.706130
 21
267.683218
 31
0.0
  0
LINE
  5
110
100
AcDbEntity
  8
Layer_1
 62
7
100
AcDbLine
 10
-288.706130
 20
267.683218
 30
0.0
 11
-303.269070
 21
267.683218
 31
0.0
  0
LINE
  5
111
100
AcDbEntity
  8
Layer_1
 62
7
100
AcDbLine
 10
-285.765750
 20
267.683218
 30
0.0
 11
-295.368780
 21
241.683257
 31
0.0
  0
LINE
  5
112
100
AcDbEntity
  8
Layer_1
 62
7
100
AcDbLine
 10
-295.368780
 20
241.683257
 30
0.0
 11
-280.805840
 21
241.683257
 31
0.0
  0
LINE
  5
113
100
AcDbEntity
  8
Layer_1
 62
7
100
AcDbLine
 10
-280.805840
 20
241.683257
 30
0.0
 11
-271.202810
 21
267.683218
 31
0.0
  0
LINE
  5
114
100
AcDbEntity
  8
Layer_1
 62
7
100
AcDbLine
 10
-271.202810
 20
267.683218
 30
0.0
 11
-285.765750
 21
267.683218
 31
0.0
  0
LINE
  5
115
100
AcDbEntity
  8
Layer_1
 62
7
100
AcDbLine
 10
-268.263460
 20
267.683218
 30
0.0
 11
-277.866490
 21
241.683257
 31
0.0
  0
LINE
  5
116
100
AcDbEntity
  8
Layer_1
 62
7
100
AcDbLine
 10
-277.866490
 20
241.683257
 30
0.0
 11
-263.303550
 21
241.683257
 31
0.0
  0
LINE
  5
117
100
AcDbEntity
  8
Layer_1
 62
7
100
AcDbLine
 10
-263.303550
 20
241.683257
 30
0.0
 11
-253.700520
 21
267.683218
 31
0.0
  0
LINE
  5
118
100
AcDbEntity
  8
Layer_1
 62
7
100
AcDbLine
 10
-253.700520
 20
267.683218
 30
0.0
 11
-268.263460
 21
267.683218
 31
0.0
  0
LINE
  5
119
100
AcDbEntity
  8
Layer_1
 62
7
100
AcDbLine
 10
-250.760650
 20
267.683218
 30
0.0
 11
-260.363680
 21
241.683257
 31
0.0
  0
LINE
  5
11a
100
AcDbEntity
  8
Layer_1
 62
7
100
AcDbLine
 10
-260.363680
 20
241.683257
 30
0.0
 11
-245.800740
 21
241.683257
 31
0.0
  0
LINE
  5
11b
100
AcDbEntity
  8
Layer_1
 62
7
100
AcDbLine
 10
-245.800740
 20
241.683257
 30
0.0
 11
-236.197710
 21
267.683218
 31
0.0
  0
LINE
  5
11c
100
AcDbEntity
  8
Layer_1
 62
7
100
AcDbLine
 10
-236.197710
 20
267.683218
 30
0.0
 11
-250.760650
 21
267.683218
 31
0.0
  0
LINE
  5
11d
100
AcDbEntity
  8
Layer_1
 62
7
100
AcDbLine
 10
-233.258360
 20
267.683218
 30
0.0
 11
-242.861390
 21
241.683257
 31
0.0
  0
LINE
  5
11e
100
AcDbEntity
  8
Layer_1
 62
7
100
AcDbLine
 10
-242.861390
 20
241.683257
 30
0.0
 11
-228.298450
 21
241.683257
 31
0.0
  0
LINE
  5
11f
100
AcDbEntity
  8
Layer_1
 62
7
100
AcDbLine
 10
-228.298450
 20
241.683257
 30
0.0
 11
-218.695420
 21
267.683218
 31
0.0
  0
LINE
  5
120
100
AcDbEntity
  8
Layer_1
 62
7
100
AcDbLine
 10
-218.695420
 20
267.683218
 30
0.0
 11
-233.258360
 21
267.683218
 31
0.0
  0
LINE
  5
121
100
AcDbEntity
  8
Layer_1
 62
7
100
AcDbLine
 10
-215.755550
 20
267.683218
 30
0.0
 11
-225.358580
 21
241.683257
 31
0.0
  0
LINE
  5
122
100
AcDbEntity
  8
Layer_1
 62
7
100
AcDbLine
 10
-225.358580
 20
241.683257
 30
0.0
 11
-210.795130
 21
241.683257
 31
0.0
  0
LINE
  5
123
100
AcDbEntity
  8
Layer_1
 62
7
100
AcDbLine
 10
-210.795130
 20
241.683257
 30
0.0
 11
-201.192100
 21
267.683218
 31
0.0
  0
LINE
  5
124
100
AcDbEntity
  8
Layer_1
 62
7
100
AcDbLine
 10
-201.192100
 20
267.683218
 30
0.0
 11
-215.755550
 21
267.683218
 31
0.0
  0
LINE
  5
125
100
AcDbEntity
  8
Layer_1
 62
7
100
AcDbLine
 10
-201.138870
 20
259.868710
 30
0.0
 11
-207.855770
 21
241.683257
 31
0.0
  0
LINE
  5
126
100
AcDbEntity
  8
Layer_1
 62
7
100
AcDbLine
 10
-207.855770
 20
241.683257
 30
0.0
 11
-201.138870
 21
241.683257
 31
0.0
  0
LINE
  5
127
100
AcDbEntity
  8
Layer_1
 62
7
100
AcDbLine
 10
-201.138870
 20
241.683257
 30
0.0
 11
-201.138870
 21
259.868710
 31
0.0
  0
LINE
  5
128
100
AcDbEntity
  8
Layer_1
 62
7
100
AcDbLine
 10
-341.139110
 20
238.682922
 30
0.0
 11
-341.139110
 21
220.497469
 31
0.0
  0
LINE
  5
129
100
AcDbEntity
  8
Layer_1
 62
7
100
AcDbLine
 10
-341.139110
 20
220.497469
 30
0.0
 11
-334.422210
 21
238.682922
 31
0.0
  0
LINE
  5
12a
100
AcDbEntity
  8
Layer_1
 62
7
100
AcDbLine
 10
-334.422210
 20
238.682922
 30
0.0
 11
-341.139110
 21
238.682922
 31
0.0
  0
LINE
  5
12b
100
AcDbEntity
  8
Layer_1
 62
7
100
AcDbLine
 10
-331.482850
 20
238.682922
 30
0.0
 11
-341.085880
 21
212.682958
 31
0.0
  0
LINE
  5
12c
100
AcDbEntity
  8
Layer_1
 62
7
100
AcDbLine
 10
-341.085880
 20
212.682958
 30
0.0
 11
-326.522950
 21
212.682958
 31
0.0
  0
LINE
  5
12d
100
AcDbEntity
  8
Layer_1
 62
7
100
AcDbLine
 10
-326.522950
 20
212.682958
 30
0.0
 11
-316.919920
 21
238.682922
 31
0.0
  0
LINE
  5
12e
100
AcDbEntity
  8
Layer_1
 62
7
100
AcDbLine
 10
-316.919920
 20
238.682922
 30
0.0
 11
-331.482850
 21
238.682922
 31
0.0
  0
LINE
  5
12f
100
AcDbEntity
  8
Layer_1
 62
7
100
AcDbLine
 10
-313.980040
 20
238.682922
 30
0.0
 11
-323.583080
 21
212.682958
 31
0.0
  0
LINE
  5
130
100
AcDbEntity
  8
Layer_1
 62
7
100
AcDbLine
 10
-323.583080
 20
212.682958
 30
0.0
 11
-309.020140
 21
212.682958
 31
0.0
  0
LINE
  5
131
100
AcDbEntity
  8
Layer_1
 62
7
100
AcDbLine
 10
-309.020140
 20
212.682958
 30
0.0
 11
-299.417110
 21
238.682922
 31
0.0
  0
LINE
  5
132
100
AcDbEntity
  8
Layer_1
 62
7
100
AcDbLine
 10
-299.417110
 20
238.682922
 30
0.0
 11
-313.980040
 21
238.682922
 31
0.0
  0
LINE
  5
133
100
AcDbEntity
  8
Layer_1
 62
7
100
AcDbLine
 10
-296.477240
 20
238.682922
 30
0.0
 11
-306.080270
 21
212.682958
 31
0.0
  0
LINE
  5
134
100
AcDbEntity
  8
Layer_1
 62
7
100
AcDbLine
 10
-306.080270
 20
212.682958
 30
0.0
 11
-291.517330
 21
212.682958
 31
0.0
  0
LINE
  5
135
100
AcDbEntity
  8
Layer_1
 62
7
100
AcDbLine
 10
-291.517330
 20
212.682958
 30
0.0
 11
-281.914300
 21
238.682922
 31
0.0
  0
LINE
  5
136
100
AcDbEntity
  8
Layer_1
 62
7
100
AcDbLine
 10
-281.914300
 20
238.682922
 30
0.0
 11
-296.477240
 21
238.682922
 31
0.0
  0
LINE
  5
137
100
AcDbEntity
  8
Layer_1
 62
7
100
AcDbLine
 10
-278.974430
 20
238.682922
 30
0.0
 11
-288.577460
 21
212.682958
 31
0.0
  0
LINE
  5
138
100
AcDbEntity
  8
Layer_1
 62
7
100
AcDbLine
 10
-288.577460
 20
212.682958
 30
0.0
 11
-274.014530
 21
212.682958
 31
0.0
  0
LINE
  5
139
100
AcDbEntity
  8
Layer_1
 62
7
100
AcDbLine
 10
-274.014530
 20
212.682958
 30
0.0
 11
-264.411500
 21
238.682922
 31
0.0
  0
LINE
  5
13a
100
AcDbEntity
  8
Layer_1
 62
7
100
AcDbLine
 10
-264.411500
 20
238.682922
 30
0.0
 11
-278.974430
 21
238.682922
 31
0.0
  0
LINE
  5
13b
100
AcDbEntity
  8
Layer_1
 62
7
100
AcDbLine
 10
-261.472140
 20
238.682922
 30
0.0
 11
-271.075170
 21
212.682958
 31
0.0
  0
LINE
  5
13c
100
AcDbEntity
  8
Layer_1
 62
7
100
AcDbLine
 10
-271.075170
 20
212.682958
 30
0.0
 11
-256.512240
 21
212.682958
 31
0.0
  0
LINE
  5
13d
100
AcDbEntity
  8
Layer_1
 62
7
100
AcDbLine
 10
-256.512240
 20
212.682958
 30
0.0
 11
-246.909200
 21
238.682922
 31
0.0
  0
LINE
  5
13e
100
AcDbEntity
  8
Layer_1
 62
7
100
AcDbLine
 10
-246.909200
 20
238.682922
 30
0.0
 11
-261.472140
 21
238.682922
 31
0.0
  0
LINE
  5
13f
100
AcDbEntity
  8
Layer_1
 62
7
100
AcDbLine
 10
-243.969330
 20
238.682922
 30
0.0
 11
-253.572360
 21
212.682958
 31
0.0
  0
LINE
  5
140
100
AcDbEntity
  8
Layer_1
 62
7
100
AcDbLine
 10
-253.572360
 20
212.682958
 30
0.0
 11
-239.009430
 21
212.682958
 31
0.0
  0
LINE
  5
141
100
AcDbEntity
  8
Layer_1
 62
7
100
AcDbLine
 10
-239.009430
 20
212.682958
 30
0.0
 11
-229.406400
 21
238.682922
 31
0.0
  0
LINE
  5
142
100
AcDbEntity
  8
Layer_1
 62
7
100
AcDbLine
 10
-229.406400
 20
238.682922
 30
0.0
 11
-243.969330
 21
238.682922
 31
0.0
  0
LINE
  5
143
100
AcDbEntity
  8
Layer_1
 62
7
100
AcDbLine
 10
-226.466520
 20
238.682922
 30
0.0
 11
-236.069560
 21
212.682958
 31
0.0
  0
LINE
  5
144
100
AcDbEntity
  8
Layer_1
 62
7
100
AcDbLine
 10
-236.069560
 20
212.682958
 30
0.0
 11
-221.506620
 21
212.682958
 31
0.0
  0
LINE
  5
145
100
AcDbEntity
  8
Layer_1
 62
7
100
AcDbLine
 10
-221.506620
 20
212.682958
 30
0.0
 11
-211.903590
 21
238.682922
 31
0.0
  0
LINE
  5
146
100
AcDbEntity
  8
Layer_1
 62
7
100
AcDbLine
 10
-211.903590
 20
238.682922
 30
0.0
 11
-226.466520
 21
238.682922
 31
0.0
  0
LINE
  5
147
100
AcDbEntity
  8
Layer_1
 62
7
100
AcDbLine
 10
-208.963720
 20
238.682922
 30
0.0
 11
-218.566750
 21
212.682958
 31
0.0
  0
LINE
  5
148
100
AcDbEntity
  8
Layer_1
 62
7
100
AcDbLine
 10
-218.566750
 20
212.682958
 30
0.0
 11
-204.003810
 21
212.682958
 31
0.0
  0
LINE
  5
149
100
AcDbEntity
  8
Layer_1
 62
7
100
AcDbLine
 10
-204.003810
 20
212.682958
 30
0.0
 11
-201.138870
 21
220.439592
 31
0.0
  0
LINE
  5
14a
100
AcDbEntity
  8
Layer_1
 62
7
100
AcDbLine
 10
-201.138870
 20
220.439592
 30
0.0
 11
-201.138870
 21
238.682922
 31
0.0
  0
LINE
  5
14b
100
AcDbEntity
  8
Layer_1
 62
7
100
AcDbLine
 10
-201.138870
 20
238.682922
 30
0.0
 11
-208.963720
 21
238.682922
 31
0.0
  0
SPLINE
  5
14c
100
AcDbEntity
  8
Layer_1
 62
7
100
AcDbSpline
 70
8
 71
3
 72
8
 73
4
 74
0
 40
0
 40
0
 40
0
 40
0
 40
1
 40
1
 40
1
 40
1
 10
-319.219040
 20
277.683067
 30
0.0
 10
-319.219040
 20
276.622680
 30
0.0
 10
-320.078653
 20
275.763067
 30
0.0
 10
-321.139040
 20
275.763067
 30
0.0
  0
SPLINE
  5
14d
100
AcDbEntity
  8
Layer_1
 62
7
100
AcDbSpline
 70
8
 71
3
 72
8
 73
4
 74
0
 40
0
 40
0
 40
0
 40
0
 40
1
 40
1
 40
1
 40
1
 10
-321.139040
 20
275.763067
 30
0.0
 10
-322.199427
 20
275.763067
 30
0.0
 10
-323.059040
 20
276.622680
 30
0.0
 10
-323.059040
 20
277.683067
 30
0.0
  0
SPLINE
  5
14e
100
AcDbEntity
  8
Layer_1
 62
7
100
AcDbSpline
 70
8
 71
3
 72
8
 73
4
 74
0
 40
0
 40
0
 40
0
 40
0
 40
1
 40
1
 40
1
 40
1
 10
-323.059040
 20
277.683067
 30
0.0
 10
-323.059040
 20
278.743454
 30
0.0
 10
-322.199427
 20
279.603067
 30
0.0
 10
-321.139040
 20
279.603067
 30
0.0
  0
SPLINE
  5
14f
100
AcDbEntity
  8
Layer_1
 62
7
100
AcDbSpline
 70
8
 71
3
 72
8
 73
4
 74
0
 40
0
 40
0
 40
0
 40
0
 40
1
 40
1
 40
1
 40
1
 10
-321.139040
 20
279.603067
 30
0.0
 10
-320.078653
 20
279.603067
 30
0.0
 10
-319.219040
 20
278.743454
 30
0.0
 10
-319.219040
 20
277.683067
 30
0.0
  0
LINE
  5
150
100
AcDbEntity
  8
Layer_1
 62
7
100
AcDbLine
 10
-319.219040
 20
277.683067
 30
0.0
 11
-319.219040
 21
277.683067
 31
0.0
  0
SPLINE
  5
151
100
AcDbEntity
  8
Layer_1
 62
7
100
AcDbSpline
 70
8
 71
3
 72
8
 73
4
 74
0
 40
0
 40
0
 40
0
 40
0
 40
1
 40
1
 40
1
 40
1
 10
-219.219040
 20
277.683067
 30
0.0
 10
-219.219040
 20
276.622680
 30
0.0
 10
-220.078653
 20
275.763067
 30
0.0
 10
-221.139040
 20
275.763067
 30
0.0
  0
SPLINE
  5
152
100
AcDbEntity
  8
Layer_1
 62
7
100
AcDbSpline
 70
8
 71
3
 72
8
 73
4
 74
0
 40
0
 40
0
 40
0
 40
0
 40
1
 40
1
 40
1
 40
1
 10
-221.139040
 20
275.763067
 30
0.0
 10
-222.199427
 20
275.763067
 30
0.0
 10
-223.059040
 20
276.622680
 30
0.0
 10
-223.059040
 20
277.683067
 30
0.0
  0
SPLINE
  5
153
100
AcDbEntity
  8
Layer_1
 62
7
100
AcDbSpline
 70
8
 71
3
 72
8
 73
4
 74
0
 40
0
 40
0
 40
0
 40
0
 40
1
 40
1
 40
1
 40
1
 10
-223.059040
 20
277.683067
 30
0.0
 10
-223.059040
 20
278.743454
 30
0.0
 10
-222.199427
 20
279.603067
 30
0.0
 10
-221.139040
 20
279.603067
 30
0.0
  0
SPLINE
  5
154
100
AcDbEntity
  8
Layer_1
 62
7
100
AcDbSpline
 70
8
 71
3
 72
8
 73
4
 74
0
 40
0
 40
0
 40
0
 40
0
 40
1
 40
1
 40
1
 40
1
 10
-221.139040
 20
279.603067
 30
0.0
 10
-220.078653
 20
279.603067
 30
0.0
 10
-219.219040
 20
278.743454
 30
0.0
 10
-219.219040
 20
277.683067
 30
0.0
  0
LINE
  5
155
100
AcDbEntity
  8
Layer_1
 62
7
100
AcDbLine
 10
-219.219040
 20
277.683067
 30
0.0
 11
-219.219040
 21
277.683067
 31
0.0
  0
SPLINE
  5
156
100
AcDbEntity
  8
Layer_1
 62
7
100
AcDbSpline
 70
8
 71
3
 72
8
 73
4
 74
0
 40
0
 40
0
 40
0
 40
0
 40
1
 40
1
 40
1
 40
1
 10
-319.219040
 20
202.683067
 30
0.0
 10
-319.219040
 20
201.622680
 30
0.0
 10
-320.078653
 20
200.763067
 30
0.0
 10
-321.139040
 20
200.763067
 30
0.0
  0
SPLINE
  5
157
100
AcDbEntity
  8
Layer_1
 62
7
100
AcDbSpline
 70
8
 71
3
 72
8
 73
4
 74
0
 40
0
 40
0
 40
0
 40
0
 40
1
 40
1
 40
1
 40
1
 10
-321.139040
 20
200.763067
 30
0.0
 10
-322.199427
 20
200.763067
 30
0.0
 10
-323.059040
 20
201.622680
 30
0.0
 10
-323.059040
 20
202.683067
 30
0.0
  0
SPLINE
  5
158
100
AcDbEntity
  8
Layer_1
 62
7
100
AcDbSpline
 70
8
 71
3
 72
8
 73
4
 74
0
 40
0
 40
0
 40
0
 40
0
 40
1
 40
1
 40
1
 40
1
 10
-323.059040
 20
202.683067
 30
0.0
 10
-323.059040
 20
203.743454
 30
0.0
 10
-322.199427
 20
204.603067
 30
0.0
 10
-321.139040
 20
204.603067
 30
0.0
  0
SPLINE
  5
159
100
AcDbEntity
  8
Layer_1
 62
7
100
AcDbSpline
 70
8
 71
3
 72
8
 73
4
 74
0
 40
0
 40
0
 40
0
 40
0
 40
1
 40
1
 40
1
 40
1
 10
-321.139040
 20
204.603067
 30
0.0
 10
-320.078653
 20
204.603067
 30
0.0
 10
-319.219040
 20
203.743454
 30
0.0
 10
-319.219040
 20
202.683067
 30
0.0
  0
LINE
  5
15a
100
AcDbEntity
  8
Layer_1
 62
7
100
AcDbLine
 10
-319.219040
 20
202.683067
 30
0.0
 11
-319.219040
 21
202.683067
 31
0.0
  0
SPLINE
  5
15b
100
AcDbEntity
  8
Layer_1
 62
7
100
AcDbSpline
 70
8
 71
3
 72
8
 73
4
 74
0
 40
0
 40
0
 40
0
 40
0
 40
1
 40
1
 40
1
 40
1
 10
-219.219040
 20
202.683067
 30
0.0
 10
-219.219040
 20
201.622680
 30
0.0
 10
-220.078653
 20
200.763067
 30
0.0
 10
-221.139040
 20
200.763067
 30
0.0
  0
SPLINE
  5
15c
100
AcDbEntity
  8
Layer_1
 62
7
100
AcDbSpline
 70
8
 71
3
 72
8
 73
4
 74
0
 40
0
 40
0
 40
0
 40
0
 40
1
 40
1
 40
1
 40
1
 10
-221.139040
 20
200.763067
 30
0.0
 10
-222.199427
 20
200.763067
 30
0.0
 10
-223.059040
 20
201.622680
 30
0.0
 10
-223.059040
 20
202.683067
 30
0.0
  0
SPLINE
  5
15d
100
AcDbEntity
  8
Layer_1
 62
7
100
AcDbSpline
 70
8
 71
3
 72
8
 73
4
 74
0
 40
0
 40
0
 40
0
 40
0
 40
1
 40
1
 40
1
 40
1
 10
-223.059040
 20
202.683067
 30
0.0
 10
-223.059040
 20
203.743454
 30
0.0
 10
-222.199427
 20
204.603067
 30
0.0
 10
-221.139040
 20
204.603067
 30
0.0
  0
SPLINE
  5
15e
100
AcDbEntity
  8
Layer_1
 62
7
100
AcDbSpline
 70
8
 71
3
 72
8
 73
4
 74
0
 40
0
 40
0
 40
0
 40
0
 40
1
 40
1
 40
1
 40
1
 10
-221.139040
 20
204.603067
 30
0.0
 10
-220.078653
 20
204.603067
 30
0.0
 10
-219.219040
 20
203.743454
 30
0.0
 10
-219.219040
 20
202.683067
 30
0.0
  0
LINE
  5
15f
100
AcDbEntity
  8
Layer_1
 62
7
100
AcDbLine
 10
-219.219040
 20
202.683067
 30
0.0
 11
-219.219040
 21
202.683067
 31
0.0
  0
ENDSEC
  0
SECTION
  2
OBJECTS
  0
DICTIONARY
  5
C
330
0
100
AcDbDictionary
  3
ACAD_GROUP
350
D
  3
ACAD_MLINESTYLE
350
17
  0
DICTIONARY
  5
D
330
C
100
AcDbDictionary
  0
DICTIONARY
  5
1A
330
C
100
AcDbDictionary
  0
DICTIONARY
  5
17
330
C
100
AcDbDictionary
  3
STANDARD
350
18
  0
DICTIONARY
  5
19
330
C
100
AcDbDictionary
  0
ENDSEC
  0
EOF
