<?xml version="1.0" encoding="UTF-8" standalone="no"?>
<!-- Created with Inkscape (http://www.inkscape.org/) -->

<svg
   width="210mm"
   height="297mm"
   viewBox="0 0 210 297"
   version="1.1"
   id="svg5"
   inkscape:version="1.1 (c68e22c387, 2021-05-23)"
   sodipodi:docname="cover.svg"
   xmlns:inkscape="http://www.inkscape.org/namespaces/inkscape"
   xmlns:sodipodi="http://sodipodi.sourceforge.net/DTD/sodipodi-0.dtd"
   xmlns="http://www.w3.org/2000/svg"
   xmlns:svg="http://www.w3.org/2000/svg">
  <sodipodi:namedview
     id="namedview7"
     pagecolor="#ffffff"
     bordercolor="#666666"
     borderopacity="1.0"
     inkscape:pageshadow="2"
     inkscape:pageopacity="0.0"
     inkscape:pagecheckerboard="0"
     inkscape:document-units="mm"
     showgrid="false"
     inkscape:snap-bbox="true"
     inkscape:bbox-paths="true"
     inkscape:snap-bbox-edge-midpoints="true"
     inkscape:zoom="0.77682379"
     inkscape:cx="293.50285"
     inkscape:cy="310.88131"
     inkscape:window-width="1858"
     inkscape:window-height="1057"
     inkscape:window-x="54"
     inkscape:window-y="-8"
     inkscape:window-maximized="1"
     inkscape:current-layer="layer1" />
  <defs
     id="defs2" />
  <g
     inkscape:label="Layer 1"
     inkscape:groupmode="layer"
     id="layer1">
    <rect
       style="font-variation-settings:normal;opacity:1;vector-effect:non-scaling-stroke;fill:none;fill-opacity:1;fill-rule:evenodd;stroke:#000000;stroke-width:0.00070004;stroke-linecap:butt;stroke-linejoin:miter;stroke-miterlimit:4;stroke-dasharray:none;stroke-dashoffset:0;stroke-opacity:1;-inkscape-stroke:hairline;stop-color:#000000;stop-opacity:1"
       id="rect846"
       width="160"
       height="90"
       x="25"
       y="103.5" />
    <path
       id="rect848"
       style="font-variation-settings:normal;opacity:1;vector-effect:non-scaling-stroke;fill:none;fill-opacity:1;fill-rule:evenodd;stroke:#000000;stroke-width:0.00248912;stroke-linecap:butt;stroke-linejoin:miter;stroke-miterlimit:4;stroke-dasharray:none;stroke-dashoffset:0;stroke-opacity:1;-inkscape-stroke:hairline;stop-color:#000000;stop-opacity:1"
       d="M 143.11133 457.32227 L 132.2832 486.63867 L 132.2832 555.58984 L 161.85742 555.58984 L 198.15234 457.32227 L 143.11133 457.32227 z M 209.26367 457.32227 L 172.96875 555.58984 L 228.00977 555.58984 L 264.30469 457.32227 L 209.26367 457.32227 z M 275.41406 457.32227 L 239.11914 555.58984 L 294.16016 555.58984 L 330.45508 457.32227 L 275.41406 457.32227 z M 341.56836 457.32227 L 305.27344 555.58984 L 360.31445 555.58984 L 396.60938 457.32227 L 341.56836 457.32227 z M 407.71875 457.32227 L 371.42383 555.58984 L 426.46484 555.58984 L 462.75977 457.32227 L 407.71875 457.32227 z M 473.87109 457.32227 L 437.57617 555.58984 L 492.61719 555.58984 L 528.91211 457.32227 L 473.87109 457.32227 z M 540.02148 457.32227 L 503.72656 555.58984 L 558.76758 555.58984 L 595.0625 457.32227 L 540.02148 457.32227 z M 606.17383 457.32227 L 569.87891 555.58984 L 624.92188 555.58984 L 661.2168 457.32227 L 606.17383 457.32227 z M 661.41797 486.85742 L 636.03125 555.58984 L 661.41797 555.58984 L 661.41797 486.85742 z M 132.2832 566.92969 L 132.2832 635.66211 L 157.66992 566.92969 L 132.2832 566.92969 z M 168.7793 566.92969 L 132.48438 665.19727 L 187.52539 665.19727 L 223.82031 566.92969 L 168.7793 566.92969 z M 234.93164 566.92969 L 198.63672 665.19727 L 253.67773 665.19727 L 289.97266 566.92969 L 234.93164 566.92969 z M 301.08398 566.92969 L 264.78906 665.19727 L 319.83008 665.19727 L 356.125 566.92969 L 301.08398 566.92969 z M 367.23633 566.92969 L 330.94141 665.19727 L 385.98242 665.19727 L 422.27734 566.92969 L 367.23633 566.92969 z M 433.38672 566.92969 L 397.0918 665.19727 L 452.13281 665.19727 L 488.42773 566.92969 L 433.38672 566.92969 z M 499.53906 566.92969 L 463.24414 665.19727 L 518.28516 665.19727 L 554.58008 566.92969 L 499.53906 566.92969 z M 565.69141 566.92969 L 529.39648 665.19727 L 584.4375 665.19727 L 620.73242 566.92969 L 565.69141 566.92969 z M 631.84375 566.92969 L 595.54883 665.19727 L 650.58984 665.19727 L 661.41797 635.88086 L 661.41797 566.92969 L 631.84375 566.92969 z "
       transform="scale(0.26458333)" />
    <circle
       style="font-variation-settings:normal;vector-effect:non-scaling-stroke;fill:none;fill-opacity:1;fill-rule:evenodd;stroke:#000000;stroke-width:0.000336019;stroke-linecap:butt;stroke-linejoin:miter;stroke-miterlimit:4;stroke-dasharray:none;stroke-dashoffset:0;stroke-opacity:1;-inkscape-stroke:hairline;stop-color:#000000"
       id="path1160"
       cx="54.999996"
       cy="111"
       r="1.9200001" />
    <circle
       style="font-variation-settings:normal;vector-effect:non-scaling-stroke;fill:none;fill-opacity:1;fill-rule:evenodd;stroke:#000000;stroke-width:0.000336019;stroke-linecap:butt;stroke-linejoin:miter;stroke-miterlimit:4;stroke-dasharray:none;stroke-dashoffset:0;stroke-opacity:1;-inkscape-stroke:hairline;stop-color:#000000"
       id="circle1242"
       cx="155"
       cy="111"
       r="1.9200001" />
    <circle
       style="font-variation-settings:normal;vector-effect:non-scaling-stroke;fill:none;fill-opacity:1;fill-rule:evenodd;stroke:#000000;stroke-width:0.000336019;stroke-linecap:butt;stroke-linejoin:miter;stroke-miterlimit:4;stroke-dasharray:none;stroke-dashoffset:0;stroke-opacity:1;-inkscape-stroke:hairline;stop-color:#000000"
       id="circle1248"
       cx="54.999996"
       cy="186"
       r="1.9200001" />
    <circle
       style="font-variation-settings:normal;vector-effect:non-scaling-stroke;fill:none;fill-opacity:1;fill-rule:evenodd;stroke:#000000;stroke-width:0.000336019;stroke-linecap:butt;stroke-linejoin:miter;stroke-miterlimit:4;stroke-dasharray:none;stroke-dashoffset:0;stroke-opacity:1;-inkscape-stroke:hairline;stop-color:#000000"
       id="circle1250"
       cx="155"
       cy="186"
       r="1.9200001" />
  </g>
</svg>
