  0
SECTION
  2
HEADER
  9
$ACADVER
  1
AC1014
  9
$HANDSEED
  5
FFFF
  9
$MEASUREMENT
 70
     1
  0
ENDSEC
  0
SECTION
  2
TABLES
  0
TABLE
  2
VPORT
  5
8
330
0
100
AcDbSymbolTable
 70
     4
  0
VPORT
  5
2E
330
8
100
AcDbSymbolTableRecord
100
AcDbViewportTableRecord
  2
*ACTIVE
 70
     0
 10
0.0
 20
0.0
 11
1.0
 21
1.0
 12
210.0
 22
148.5
 13
0.0
 23
0.0
 14
10.0
 24
10.0
 15
10.0
 25
10.0
 16
0.0
 26
0.0
 36
1.0
 17
0.0
 27
0.0
 37
0.0
 40
341.0
 41
1.24
 42
50.0
 43
0.0
 44
0.0
 50
0.0
 51
0.0
 71
     0
 72
   100
 73
     1
 74
     3
 75
     0
 76
     0
 77
     0
 78
     0
  0
ENDTAB
  0
TABLE
  2
LTYPE
  5
5
330
0
100
AcDbSymbolTable
 70
     1
  0
LTYPE
  5
14
330
5
100
AcDbSymbolTableRecord
100
AcDbLinetypeTableRecord
  2
BYBLOCK
 70
     0
  3

 72
    65
 73
     0
 40
0.0
  0
LTYPE
  5
15
330
5
100
AcDbSymbolTableRecord
100
AcDbLinetypeTableRecord
  2
BYLAYER
 70
     0
  3

 72
    65
 73
     0
 40
0.0
  0
LTYPE
  5
16
330
5
100
AcDbSymbolTableRecord
100
AcDbLinetypeTableRecord
  2
CONTINUOUS
 70
     0
  3
Solid line
 72
    65
 73
     0
 40
0.0
  0
ENDTAB
  0
TABLE
  2
LAYER
  5
2
100
AcDbSymbolTable
 70
2
  0
LAYER
  5
50
100
AcDbSymbolTableRecord
100
AcDbLayerTableRecord
  2
0
 70
0
  6
CONTINUOUS
  0
LAYER
  5
51
100
AcDbSymbolTableRecord
100
AcDbLayerTableRecord
  2
Layer_1
 70
0
  6
CONTINUOUS
  0
ENDTAB
  0
TABLE
  2
STYLE
  5
3
330
0
100
AcDbSymbolTable
 70
     1
  0
STYLE
  5
11
330
3
100
AcDbSymbolTableRecord
100
AcDbTextStyleTableRecord
  2
STANDARD
 70
     0
 40
0.0
 41
1.0
 50
0.0
 71
     0
 42
2.5
  3
txt
  4

  0
ENDTAB
  0
TABLE
  2
VIEW
  5
6
330
0
100
AcDbSymbolTable
 70
     0
  0
ENDTAB
  0
TABLE
  2
UCS
  5
7
330
0
100
AcDbSymbolTable
 70
     0
  0
ENDTAB
  0
TABLE
  2
APPID
  5
9
330
0
100
AcDbSymbolTable
 70
     2
  0
APPID
  5
12
330
9
100
AcDbSymbolTableRecord
100
AcDbRegAppTableRecord
  2
ACAD
 70
     0
  0
ENDTAB
  0
TABLE
  2
DIMSTYLE
  5
A
330
0
100
AcDbSymbolTable
 70
     1
  0
DIMSTYLE
105
27
330
A
100
AcDbSymbolTableRecord
100
AcDbDimStyleTableRecord
  2
ISO-25
 70
     0
  3

  4

  5

  6

  7

 40
1.0
 41
2.5
 42
0.625
 43
3.75
 44
1.25
 45
0.0
 46
0.0
 47
0.0
 48
0.0
140
2.5
141
2.5
142
0.0
143
0.03937007874016
144
1.0
145
0.0
146
1.0
147
0.625
 71
     0
 72
     0
 73
     0
 74
     0
 75
     0
 76
     0
 77
     1
 78
     8
170
     0
171
     3
172
     1
173
     0
174
     0
175
     0
176
     0
177
     0
178
     0
270
     2
271
     2
272
     2
273
     2
274
     3
340
11
275
     0
280
     0
281
     0
282
     0
283
     0
284
     8
285
     0
286
     0
287
     3
288
     0
  0
ENDTAB
  0
TABLE
  2
BLOCK_RECORD
  5
1
330
0
100
AcDbSymbolTable
 70
     1
  0
BLOCK_RECORD
  5
1F
330
1
100
AcDbSymbolTableRecord
100
AcDbBlockTableRecord
  2
*MODEL_SPACE
  0
BLOCK_RECORD
  5
1B
330
1
100
AcDbSymbolTableRecord
100
AcDbBlockTableRecord
  2
*PAPER_SPACE
  0
ENDTAB
  0
ENDSEC
  0
SECTION
  2
BLOCKS
  0
BLOCK
  5
20
330
1F
100
AcDbEntity
  8
0
100
AcDbBlockBegin
  2
*MODEL_SPACE
 70
     0
 10
0.0
 20
0.0
 30
0.0
  3
*MODEL_SPACE
  1

  0
ENDBLK
  5
21
330
1F
100
AcDbEntity
  8
0
100
AcDbBlockEnd
  0
BLOCK
  5
1C
330
1B
100
AcDbEntity
 67
     1
  8
0
100
AcDbBlockBegin
  2
*PAPER_SPACE
  1

  0
ENDBLK
  5
1D
330
1B
100
AcDbEntity
 67
     1
  8
0
100
AcDbBlockEnd
  0
ENDSEC
  0
SECTION
  2
ENTITIES
  0
LINE
  5
100
100
AcDbEntity
  8
Layer_1
 62
7
100
AcDbLine
 10
-132.392915
 20
136.222695
 30
0.0
 11
-132.392915
 21
123.222458
 31
0.0
  0
LINE
  5
101
100
AcDbEntity
  8
Layer_1
 62
7
100
AcDbLine
 10
-132.392915
 20
123.222458
 30
0.0
 11
-109.724022
 21
123.222458
 31
0.0
  0
LINE
  5
102
100
AcDbEntity
  8
Layer_1
 62
7
100
AcDbLine
 10
-109.724022
 20
123.222458
 30
0.0
 11
-109.724022
 21
120.644840
 31
0.0
  0
LINE
  5
103
100
AcDbEntity
  8
Layer_1
 62
7
100
AcDbLine
 10
-109.724022
 20
120.644840
 30
0.0
 11
-132.392915
 21
120.644840
 31
0.0
  0
LINE
  5
104
100
AcDbEntity
  8
Layer_1
 62
7
100
AcDbLine
 10
-132.392915
 20
120.644840
 30
0.0
 11
-132.392915
 21
107.644602
 31
0.0
  0
LINE
  5
105
100
AcDbEntity
  8
Layer_1
 62
7
100
AcDbLine
 10
-132.392915
 20
107.644602
 30
0.0
 11
257.606426
 21
107.644602
 31
0.0
  0
LINE
  5
106
100
AcDbEntity
  8
Layer_1
 62
7
100
AcDbLine
 10
257.606426
 20
107.644602
 30
0.0
 11
257.606426
 21
120.644840
 31
0.0
  0
LINE
  5
107
100
AcDbEntity
  8
Layer_1
 62
7
100
AcDbLine
 10
257.606426
 20
120.644840
 30
0.0
 11
232.507190
 21
120.644840
 31
0.0
  0
LINE
  5
108
100
AcDbEntity
  8
Layer_1
 62
7
100
AcDbLine
 10
232.507190
 20
120.644840
 30
0.0
 11
232.507190
 21
123.222458
 31
0.0
  0
LINE
  5
109
100
AcDbEntity
  8
Layer_1
 62
7
100
AcDbLine
 10
232.507190
 20
123.222458
 30
0.0
 11
257.606426
 21
123.222458
 31
0.0
  0
LINE
  5
10a
100
AcDbEntity
  8
Layer_1
 62
7
100
AcDbLine
 10
257.606426
 20
123.222458
 30
0.0
 11
257.606426
 21
136.222695
 31
0.0
  0
LINE
  5
10b
100
AcDbEntity
  8
Layer_1
 62
7
100
AcDbLine
 10
257.606426
 20
136.222695
 30
0.0
 11
-132.392915
 21
136.222695
 31
0.0
  0
LINE
  5
10c
100
AcDbEntity
  8
Layer_1
 62
7
100
AcDbLine
 10
-132.392915
 20
136.222695
 30
0.0
 11
-132.392915
 21
136.222695
 31
0.0
  0
SPLINE
  5
10d
100
AcDbEntity
  8
Layer_1
 62
7
100
AcDbSpline
 70
8
 71
3
 72
8
 73
4
 74
0
 40
0
 40
0
 40
0
 40
0
 40
1
 40
1
 40
1
 40
1
 10
142.606760
 20
130.377059
 30
0.0
 10
142.892086
 20
130.377059
 30
0.0
 10
143.177500
 20
130.302692
 30
0.0
 10
143.433067
 20
130.154851
 30
0.0
  0
SPLINE
  5
10e
100
AcDbEntity
  8
Layer_1
 62
7
100
AcDbSpline
 70
8
 71
3
 72
8
 73
4
 74
0
 40
0
 40
0
 40
0
 40
0
 40
1
 40
1
 40
1
 40
1
 10
143.433067
 20
130.154851
 30
0.0
 10
143.944188
 20
129.859166
 30
0.0
 10
144.258302
 20
129.312871
 30
0.0
 10
144.256788
 20
128.722379
 30
0.0
  0
SPLINE
  5
10f
100
AcDbEntity
  8
Layer_1
 62
7
100
AcDbSpline
 70
8
 71
3
 72
8
 73
4
 74
0
 40
0
 40
0
 40
0
 40
0
 40
1
 40
1
 40
1
 40
1
 10
144.256788
 20
128.722379
 30
0.0
 10
144.258376
 20
128.131893
 30
0.0
 10
143.944188
 20
127.585594
 30
0.0
 10
143.433067
 20
127.289909
 30
0.0
  0
SPLINE
  5
110
100
AcDbEntity
  8
Layer_1
 62
7
100
AcDbSpline
 70
8
 71
3
 72
8
 73
4
 74
0
 40
0
 40
0
 40
0
 40
0
 40
1
 40
1
 40
1
 40
1
 10
143.433067
 20
127.289909
 30
0.0
 10
142.921937
 20
126.994224
 30
0.0
 10
142.291583
 20
126.994224
 30
0.0
 10
141.780453
 20
127.289909
 30
0.0
  0
SPLINE
  5
111
100
AcDbEntity
  8
Layer_1
 62
7
100
AcDbSpline
 70
8
 71
3
 72
8
 73
4
 74
0
 40
0
 40
0
 40
0
 40
0
 40
1
 40
1
 40
1
 40
1
 10
141.780453
 20
127.289909
 30
0.0
 10
141.269321
 20
127.585594
 30
0.0
 10
140.955215
 20
128.131893
 30
0.0
 10
140.956731
 20
128.722379
 30
0.0
  0
SPLINE
  5
112
100
AcDbEntity
  8
Layer_1
 62
7
100
AcDbSpline
 70
8
 71
3
 72
8
 73
4
 74
0
 40
0
 40
0
 40
0
 40
0
 40
1
 40
1
 40
1
 40
1
 10
140.956731
 20
128.722379
 30
0.0
 10
140.955144
 20
129.312871
 30
0.0
 10
141.269321
 20
129.859166
 30
0.0
 10
141.780453
 20
130.154851
 30
0.0
  0
SPLINE
  5
113
100
AcDbEntity
  8
Layer_1
 62
7
100
AcDbSpline
 70
8
 71
3
 72
8
 73
4
 74
0
 40
0
 40
0
 40
0
 40
0
 40
1
 40
1
 40
1
 40
1
 10
141.780453
 20
130.154851
 30
0.0
 10
142.036019
 20
130.302692
 30
0.0
 10
142.321433
 20
130.377059
 30
0.0
 10
142.606760
 20
130.377059
 30
0.0
  0
LINE
  5
114
100
AcDbEntity
  8
Layer_1
 62
7
100
AcDbLine
 10
142.606760
 20
130.377059
 30
0.0
 11
142.606760
 21
130.377059
 31
0.0
  0
SPLINE
  5
115
100
AcDbEntity
  8
Layer_1
 62
7
100
AcDbSpline
 70
8
 71
3
 72
8
 73
4
 74
0
 40
0
 40
0
 40
0
 40
0
 40
1
 40
1
 40
1
 40
1
 10
-17.393249
 20
130.373442
 30
0.0
 10
-17.108307
 20
130.373442
 30
0.0
 10
-16.823279
 20
130.299713
 30
0.0
 10
-16.567976
 20
130.152266
 30
0.0
  0
SPLINE
  5
116
100
AcDbEntity
  8
Layer_1
 62
7
100
AcDbSpline
 70
8
 71
3
 72
8
 73
4
 74
0
 40
0
 40
0
 40
0
 40
0
 40
1
 40
1
 40
1
 40
1
 10
-16.567976
 20
130.152266
 30
0.0
 10
-16.057371
 20
129.857378
 30
0.0
 10
-15.742985
 20
129.312021
 30
0.0
 10
-15.743221
 20
128.722379
 30
0.0
  0
SPLINE
  5
117
100
AcDbEntity
  8
Layer_1
 62
7
100
AcDbSpline
 70
8
 71
3
 72
8
 73
4
 74
0
 40
0
 40
0
 40
0
 40
0
 40
1
 40
1
 40
1
 40
1
 10
-15.743221
 20
128.722379
 30
0.0
 10
-15.742985
 20
128.132745
 30
0.0
 10
-16.057371
 20
127.587901
 30
0.0
 10
-16.567976
 20
127.293010
 30
0.0
  0
SPLINE
  5
118
100
AcDbEntity
  8
Layer_1
 62
7
100
AcDbSpline
 70
8
 71
3
 72
8
 73
4
 74
0
 40
0
 40
0
 40
0
 40
0
 40
1
 40
1
 40
1
 40
1
 10
-16.567976
 20
127.293010
 30
0.0
 10
-17.078582
 20
126.998122
 30
0.0
 10
-17.707915
 20
126.998122
 30
0.0
 10
-18.218521
 20
127.293010
 30
0.0
  0
SPLINE
  5
119
100
AcDbEntity
  8
Layer_1
 62
7
100
AcDbSpline
 70
8
 71
3
 72
8
 73
4
 74
0
 40
0
 40
0
 40
0
 40
0
 40
1
 40
1
 40
1
 40
1
 10
-18.218521
 20
127.293010
 30
0.0
 10
-18.729127
 20
127.587901
 30
0.0
 10
-19.043514
 20
128.132745
 30
0.0
 10
-19.043277
 20
128.722379
 30
0.0
  0
SPLINE
  5
11a
100
AcDbEntity
  8
Layer_1
 62
7
100
AcDbSpline
 70
8
 71
3
 72
8
 73
4
 74
0
 40
0
 40
0
 40
0
 40
0
 40
1
 40
1
 40
1
 40
1
 10
-19.043277
 20
128.722379
 30
0.0
 10
-19.043514
 20
129.312021
 30
0.0
 10
-18.729127
 20
129.857378
 30
0.0
 10
-18.218521
 20
130.152266
 30
0.0
  0
SPLINE
  5
11b
100
AcDbEntity
  8
Layer_1
 62
7
100
AcDbSpline
 70
8
 71
3
 72
8
 73
4
 74
0
 40
0
 40
0
 40
0
 40
0
 40
1
 40
1
 40
1
 40
1
 10
-18.218521
 20
130.152266
 30
0.0
 10
-17.963218
 20
130.299713
 30
0.0
 10
-17.678190
 20
130.373442
 30
0.0
 10
-17.393249
 20
130.373442
 30
0.0
  0
LINE
  5
11c
100
AcDbEntity
  8
Layer_1
 62
7
100
AcDbLine
 10
-17.393249
 20
130.373442
 30
0.0
 11
-17.393249
 21
130.373442
 31
0.0
  0
SPLINE
  5
11d
100
AcDbEntity
  8
Layer_1
 62
7
100
AcDbSpline
 70
8
 71
3
 72
8
 73
4
 74
0
 40
0
 40
0
 40
0
 40
0
 40
1
 40
1
 40
1
 40
1
 10
-117.392801
 20
130.372407
 30
0.0
 10
-117.107929
 20
130.372407
 30
0.0
 10
-116.823291
 20
130.299123
 30
0.0
 10
-116.568047
 20
130.151750
 30
0.0
  0
SPLINE
  5
11e
100
AcDbEntity
  8
Layer_1
 62
7
100
AcDbSpline
 70
8
 71
3
 72
8
 73
4
 74
0
 40
0
 40
0
 40
0
 40
0
 40
1
 40
1
 40
1
 40
1
 10
-116.568047
 20
130.151750
 30
0.0
 10
-116.057536
 20
129.857007
 30
0.0
 10
-115.742772
 20
129.311865
 30
0.0
 10
-115.742772
 20
128.722379
 30
0.0
  0
SPLINE
  5
11f
100
AcDbEntity
  8
Layer_1
 62
7
100
AcDbSpline
 70
8
 71
3
 72
8
 73
4
 74
0
 40
0
 40
0
 40
0
 40
0
 40
1
 40
1
 40
1
 40
1
 10
-115.742772
 20
128.722379
 30
0.0
 10
-115.742772
 20
128.132903
 30
0.0
 10
-116.057536
 20
127.588269
 30
0.0
 10
-116.568047
 20
127.293526
 30
0.0
  0
SPLINE
  5
120
100
AcDbEntity
  8
Layer_1
 62
7
100
AcDbSpline
 70
8
 71
3
 72
8
 73
4
 74
0
 40
0
 40
0
 40
0
 40
0
 40
1
 40
1
 40
1
 40
1
 10
-116.568047
 20
127.293526
 30
0.0
 10
-117.078545
 20
126.998780
 30
0.0
 10
-117.707575
 20
126.998780
 30
0.0
 10
-118.218073
 20
127.293526
 30
0.0
  0
SPLINE
  5
121
100
AcDbEntity
  8
Layer_1
 62
7
100
AcDbSpline
 70
8
 71
3
 72
8
 73
4
 74
0
 40
0
 40
0
 40
0
 40
0
 40
1
 40
1
 40
1
 40
1
 10
-118.218073
 20
127.293526
 30
0.0
 10
-118.728584
 20
127.588269
 30
0.0
 10
-119.042829
 20
128.132903
 30
0.0
 10
-119.042829
 20
128.722379
 30
0.0
  0
SPLINE
  5
122
100
AcDbEntity
  8
Layer_1
 62
7
100
AcDbSpline
 70
8
 71
3
 72
8
 73
4
 74
0
 40
0
 40
0
 40
0
 40
0
 40
1
 40
1
 40
1
 40
1
 10
-119.042829
 20
128.722379
 30
0.0
 10
-119.042829
 20
129.311865
 30
0.0
 10
-118.728584
 20
129.857007
 30
0.0
 10
-118.218073
 20
130.151750
 30
0.0
  0
SPLINE
  5
123
100
AcDbEntity
  8
Layer_1
 62
7
100
AcDbSpline
 70
8
 71
3
 72
8
 73
4
 74
0
 40
0
 40
0
 40
0
 40
0
 40
1
 40
1
 40
1
 40
1
 10
-118.218073
 20
130.151750
 30
0.0
 10
-117.962819
 20
130.299123
 30
0.0
 10
-117.677672
 20
130.372407
 30
0.0
 10
-117.392801
 20
130.372407
 30
0.0
  0
LINE
  5
124
100
AcDbEntity
  8
Layer_1
 62
7
100
AcDbLine
 10
-117.392801
 20
130.372407
 30
0.0
 11
-117.392801
 21
130.372407
 31
0.0
  0
SPLINE
  5
125
100
AcDbEntity
  8
Layer_1
 62
7
100
AcDbSpline
 70
8
 71
3
 72
8
 73
4
 74
0
 40
0
 40
0
 40
0
 40
0
 40
1
 40
1
 40
1
 40
1
 10
242.606312
 20
130.372407
 30
0.0
 10
242.891184
 20
130.372407
 30
0.0
 10
243.176328
 20
130.299123
 30
0.0
 10
243.431584
 20
130.151750
 30
0.0
  0
SPLINE
  5
126
100
AcDbEntity
  8
Layer_1
 62
7
100
AcDbSpline
 70
8
 71
3
 72
8
 73
4
 74
0
 40
0
 40
0
 40
0
 40
0
 40
1
 40
1
 40
1
 40
1
 10
243.431584
 20
130.151750
 30
0.0
 10
243.942098
 20
129.857005
 30
0.0
 10
244.256341
 20
129.311868
 30
0.0
 10
244.256341
 20
128.722379
 30
0.0
  0
SPLINE
  5
127
100
AcDbEntity
  8
Layer_1
 62
7
100
AcDbSpline
 70
8
 71
3
 72
8
 73
4
 74
0
 40
0
 40
0
 40
0
 40
0
 40
1
 40
1
 40
1
 40
1
 10
244.256341
 20
128.722379
 30
0.0
 10
244.256341
 20
128.132893
 30
0.0
 10
243.942098
 20
127.588272
 30
0.0
 10
243.431584
 20
127.293526
 30
0.0
  0
SPLINE
  5
128
100
AcDbEntity
  8
Layer_1
 62
7
100
AcDbSpline
 70
8
 71
3
 72
8
 73
4
 74
0
 40
0
 40
0
 40
0
 40
0
 40
1
 40
1
 40
1
 40
1
 10
243.431584
 20
127.293526
 30
0.0
 10
242.921071
 20
126.998780
 30
0.0
 10
242.292069
 20
126.998780
 30
0.0
 10
241.781556
 20
127.293526
 30
0.0
  0
SPLINE
  5
129
100
AcDbEntity
  8
Layer_1
 62
7
100
AcDbSpline
 70
8
 71
3
 72
8
 73
4
 74
0
 40
0
 40
0
 40
0
 40
0
 40
1
 40
1
 40
1
 40
1
 10
241.781556
 20
127.293526
 30
0.0
 10
241.271042
 20
127.588272
 30
0.0
 10
240.956284
 20
128.132893
 30
0.0
 10
240.956284
 20
128.722379
 30
0.0
  0
SPLINE
  5
12a
100
AcDbEntity
  8
Layer_1
 62
7
100
AcDbSpline
 70
8
 71
3
 72
8
 73
4
 74
0
 40
0
 40
0
 40
0
 40
0
 40
1
 40
1
 40
1
 40
1
 10
240.956284
 20
128.722379
 30
0.0
 10
240.956284
 20
129.311868
 30
0.0
 10
241.271042
 20
129.857005
 30
0.0
 10
241.781556
 20
130.151750
 30
0.0
  0
SPLINE
  5
12b
100
AcDbEntity
  8
Layer_1
 62
7
100
AcDbSpline
 70
8
 71
3
 72
8
 73
4
 74
0
 40
0
 40
0
 40
0
 40
0
 40
1
 40
1
 40
1
 40
1
 10
241.781556
 20
130.151750
 30
0.0
 10
242.036813
 20
130.299123
 30
0.0
 10
242.321441
 20
130.372407
 30
0.0
 10
242.606312
 20
130.372407
 30
0.0
  0
LINE
  5
12c
100
AcDbEntity
  8
Layer_1
 62
7
100
AcDbLine
 10
242.606312
 20
130.372407
 30
0.0
 11
242.606312
 21
130.372407
 31
0.0
  0
LINE
  5
12d
100
AcDbEntity
  8
Layer_1
 62
7
100
AcDbLine
 10
-109.194855
 20
123.222458
 30
0.0
 11
231.978024
 21
123.222458
 31
0.0
  0
LINE
  5
12e
100
AcDbEntity
  8
Layer_1
 62
7
100
AcDbLine
 10
231.978024
 20
123.222458
 30
0.0
 11
231.978024
 21
120.644840
 31
0.0
  0
LINE
  5
12f
100
AcDbEntity
  8
Layer_1
 62
7
100
AcDbLine
 10
231.978024
 20
120.644840
 30
0.0
 11
-109.194855
 21
120.644840
 31
0.0
  0
LINE
  5
130
100
AcDbEntity
  8
Layer_1
 62
7
100
AcDbLine
 10
-109.194855
 20
120.644840
 30
0.0
 11
-109.194855
 21
123.222458
 31
0.0
  0
LINE
  5
131
100
AcDbEntity
  8
Layer_1
 62
7
100
AcDbLine
 10
-109.194855
 20
123.222458
 30
0.0
 11
-109.194855
 21
123.222458
 31
0.0
  0
SPLINE
  5
132
100
AcDbEntity
  8
Layer_1
 62
7
100
AcDbSpline
 70
8
 71
3
 72
8
 73
4
 74
0
 40
0
 40
0
 40
0
 40
0
 40
1
 40
1
 40
1
 40
1
 10
142.606760
 20
114.799203
 30
0.0
 10
142.892086
 20
114.799203
 30
0.0
 10
143.177500
 20
114.724834
 30
0.0
 10
143.433067
 20
114.576993
 30
0.0
  0
SPLINE
  5
133
100
AcDbEntity
  8
Layer_1
 62
7
100
AcDbSpline
 70
8
 71
3
 72
8
 73
4
 74
0
 40
0
 40
0
 40
0
 40
0
 40
1
 40
1
 40
1
 40
1
 10
143.433067
 20
114.576993
 30
0.0
 10
143.944188
 20
114.281308
 30
0.0
 10
144.258302
 20
113.735015
 30
0.0
 10
144.256788
 20
113.144524
 30
0.0
  0
SPLINE
  5
134
100
AcDbEntity
  8
Layer_1
 62
7
100
AcDbSpline
 70
8
 71
3
 72
8
 73
4
 74
0
 40
0
 40
0
 40
0
 40
0
 40
1
 40
1
 40
1
 40
1
 10
144.256788
 20
113.144524
 30
0.0
 10
144.258376
 20
112.554035
 30
0.0
 10
143.944188
 20
112.007739
 30
0.0
 10
143.433067
 20
111.712054
 30
0.0
  0
SPLINE
  5
135
100
AcDbEntity
  8
Layer_1
 62
7
100
AcDbSpline
 70
8
 71
3
 72
8
 73
4
 74
0
 40
0
 40
0
 40
0
 40
0
 40
1
 40
1
 40
1
 40
1
 10
143.433067
 20
111.712054
 30
0.0
 10
142.921937
 20
111.416369
 30
0.0
 10
142.291583
 20
111.416369
 30
0.0
 10
141.780453
 20
111.712054
 30
0.0
  0
SPLINE
  5
136
100
AcDbEntity
  8
Layer_1
 62
7
100
AcDbSpline
 70
8
 71
3
 72
8
 73
4
 74
0
 40
0
 40
0
 40
0
 40
0
 40
1
 40
1
 40
1
 40
1
 10
141.780453
 20
111.712054
 30
0.0
 10
141.269321
 20
112.007739
 30
0.0
 10
140.955215
 20
112.554035
 30
0.0
 10
140.956731
 20
113.144524
 30
0.0
  0
SPLINE
  5
137
100
AcDbEntity
  8
Layer_1
 62
7
100
AcDbSpline
 70
8
 71
3
 72
8
 73
4
 74
0
 40
0
 40
0
 40
0
 40
0
 40
1
 40
1
 40
1
 40
1
 10
140.956731
 20
113.144524
 30
0.0
 10
140.955144
 20
113.735015
 30
0.0
 10
141.269321
 20
114.281308
 30
0.0
 10
141.780453
 20
114.576993
 30
0.0
  0
SPLINE
  5
138
100
AcDbEntity
  8
Layer_1
 62
7
100
AcDbSpline
 70
8
 71
3
 72
8
 73
4
 74
0
 40
0
 40
0
 40
0
 40
0
 40
1
 40
1
 40
1
 40
1
 10
141.780453
 20
114.576993
 30
0.0
 10
142.036019
 20
114.724834
 30
0.0
 10
142.321433
 20
114.799203
 30
0.0
 10
142.606760
 20
114.799203
 30
0.0
  0
LINE
  5
139
100
AcDbEntity
  8
Layer_1
 62
7
100
AcDbLine
 10
142.606760
 20
114.799203
 30
0.0
 11
142.606760
 21
114.799203
 31
0.0
  0
SPLINE
  5
13a
100
AcDbEntity
  8
Layer_1
 62
7
100
AcDbSpline
 70
8
 71
3
 72
8
 73
4
 74
0
 40
0
 40
0
 40
0
 40
0
 40
1
 40
1
 40
1
 40
1
 10
-17.393249
 20
114.795587
 30
0.0
 10
-17.108307
 20
114.795587
 30
0.0
 10
-16.823279
 20
114.721858
 30
0.0
 10
-16.567976
 20
114.574411
 30
0.0
  0
SPLINE
  5
13b
100
AcDbEntity
  8
Layer_1
 62
7
100
AcDbSpline
 70
8
 71
3
 72
8
 73
4
 74
0
 40
0
 40
0
 40
0
 40
0
 40
1
 40
1
 40
1
 40
1
 10
-16.567976
 20
114.574411
 30
0.0
 10
-16.057371
 20
114.279522
 30
0.0
 10
-15.742985
 20
113.734166
 30
0.0
 10
-15.743221
 20
113.144524
 30
0.0
  0
SPLINE
  5
13c
100
AcDbEntity
  8
Layer_1
 62
7
100
AcDbSpline
 70
8
 71
3
 72
8
 73
4
 74
0
 40
0
 40
0
 40
0
 40
0
 40
1
 40
1
 40
1
 40
1
 10
-15.743221
 20
113.144524
 30
0.0
 10
-15.742985
 20
112.554887
 30
0.0
 10
-16.057371
 20
112.010046
 30
0.0
 10
-16.567976
 20
111.715155
 30
0.0
  0
SPLINE
  5
13d
100
AcDbEntity
  8
Layer_1
 62
7
100
AcDbSpline
 70
8
 71
3
 72
8
 73
4
 74
0
 40
0
 40
0
 40
0
 40
0
 40
1
 40
1
 40
1
 40
1
 10
-16.567976
 20
111.715155
 30
0.0
 10
-17.078582
 20
111.420266
 30
0.0
 10
-17.707915
 20
111.420266
 30
0.0
 10
-18.218521
 20
111.715155
 30
0.0
  0
SPLINE
  5
13e
100
AcDbEntity
  8
Layer_1
 62
7
100
AcDbSpline
 70
8
 71
3
 72
8
 73
4
 74
0
 40
0
 40
0
 40
0
 40
0
 40
1
 40
1
 40
1
 40
1
 10
-18.218521
 20
111.715155
 30
0.0
 10
-18.729127
 20
112.010046
 30
0.0
 10
-19.043514
 20
112.554887
 30
0.0
 10
-19.043277
 20
113.144524
 30
0.0
  0
SPLINE
  5
13f
100
AcDbEntity
  8
Layer_1
 62
7
100
AcDbSpline
 70
8
 71
3
 72
8
 73
4
 74
0
 40
0
 40
0
 40
0
 40
0
 40
1
 40
1
 40
1
 40
1
 10
-19.043277
 20
113.144524
 30
0.0
 10
-19.043514
 20
113.734166
 30
0.0
 10
-18.729127
 20
114.279522
 30
0.0
 10
-18.218521
 20
114.574411
 30
0.0
  0
SPLINE
  5
140
100
AcDbEntity
  8
Layer_1
 62
7
100
AcDbSpline
 70
8
 71
3
 72
8
 73
4
 74
0
 40
0
 40
0
 40
0
 40
0
 40
1
 40
1
 40
1
 40
1
 10
-18.218521
 20
114.574411
 30
0.0
 10
-17.963218
 20
114.721858
 30
0.0
 10
-17.678190
 20
114.795587
 30
0.0
 10
-17.393249
 20
114.795587
 30
0.0
  0
LINE
  5
141
100
AcDbEntity
  8
Layer_1
 62
7
100
AcDbLine
 10
-17.393249
 20
114.795587
 30
0.0
 11
-17.393249
 21
114.795587
 31
0.0
  0
SPLINE
  5
142
100
AcDbEntity
  8
Layer_1
 62
7
100
AcDbSpline
 70
8
 71
3
 72
8
 73
4
 74
0
 40
0
 40
0
 40
0
 40
0
 40
1
 40
1
 40
1
 40
1
 10
-117.392801
 20
114.794036
 30
0.0
 10
-117.107929
 20
114.794036
 30
0.0
 10
-116.823291
 20
114.720749
 30
0.0
 10
-116.568047
 20
114.573376
 30
0.0
  0
SPLINE
  5
143
100
AcDbEntity
  8
Layer_1
 62
7
100
AcDbSpline
 70
8
 71
3
 72
8
 73
4
 74
0
 40
0
 40
0
 40
0
 40
0
 40
1
 40
1
 40
1
 40
1
 10
-116.568047
 20
114.573376
 30
0.0
 10
-116.057536
 20
114.278633
 30
0.0
 10
-115.742772
 20
113.733494
 30
0.0
 10
-115.742772
 20
113.144008
 30
0.0
  0
SPLINE
  5
144
100
AcDbEntity
  8
Layer_1
 62
7
100
AcDbSpline
 70
8
 71
3
 72
8
 73
4
 74
0
 40
0
 40
0
 40
0
 40
0
 40
1
 40
1
 40
1
 40
1
 10
-115.742772
 20
113.144008
 30
0.0
 10
-115.742772
 20
112.554529
 30
0.0
 10
-116.057536
 20
112.009898
 30
0.0
 10
-116.568047
 20
111.715155
 30
0.0
  0
SPLINE
  5
145
100
AcDbEntity
  8
Layer_1
 62
7
100
AcDbSpline
 70
8
 71
3
 72
8
 73
4
 74
0
 40
0
 40
0
 40
0
 40
0
 40
1
 40
1
 40
1
 40
1
 10
-116.568047
 20
111.715155
 30
0.0
 10
-117.078545
 20
111.420409
 30
0.0
 10
-117.707575
 20
111.420409
 30
0.0
 10
-118.218073
 20
111.715155
 30
0.0
  0
SPLINE
  5
146
100
AcDbEntity
  8
Layer_1
 62
7
100
AcDbSpline
 70
8
 71
3
 72
8
 73
4
 74
0
 40
0
 40
0
 40
0
 40
0
 40
1
 40
1
 40
1
 40
1
 10
-118.218073
 20
111.715155
 30
0.0
 10
-118.728584
 20
112.009898
 30
0.0
 10
-119.042829
 20
112.554529
 30
0.0
 10
-119.042829
 20
113.144008
 30
0.0
  0
SPLINE
  5
147
100
AcDbEntity
  8
Layer_1
 62
7
100
AcDbSpline
 70
8
 71
3
 72
8
 73
4
 74
0
 40
0
 40
0
 40
0
 40
0
 40
1
 40
1
 40
1
 40
1
 10
-119.042829
 20
113.144008
 30
0.0
 10
-119.042829
 20
113.733494
 30
0.0
 10
-118.728584
 20
114.278633
 30
0.0
 10
-118.218073
 20
114.573376
 30
0.0
  0
SPLINE
  5
148
100
AcDbEntity
  8
Layer_1
 62
7
100
AcDbSpline
 70
8
 71
3
 72
8
 73
4
 74
0
 40
0
 40
0
 40
0
 40
0
 40
1
 40
1
 40
1
 40
1
 10
-118.218073
 20
114.573376
 30
0.0
 10
-117.962819
 20
114.720749
 30
0.0
 10
-117.677672
 20
114.794036
 30
0.0
 10
-117.392801
 20
114.794036
 30
0.0
  0
LINE
  5
149
100
AcDbEntity
  8
Layer_1
 62
7
100
AcDbLine
 10
-117.392801
 20
114.794036
 30
0.0
 11
-117.392801
 21
114.794036
 31
0.0
  0
SPLINE
  5
14a
100
AcDbEntity
  8
Layer_1
 62
7
100
AcDbSpline
 70
8
 71
3
 72
8
 73
4
 74
0
 40
0
 40
0
 40
0
 40
0
 40
1
 40
1
 40
1
 40
1
 10
242.606312
 20
114.794036
 30
0.0
 10
242.891184
 20
114.794036
 30
0.0
 10
243.176328
 20
114.720749
 30
0.0
 10
243.431584
 20
114.573376
 30
0.0
  0
SPLINE
  5
14b
100
AcDbEntity
  8
Layer_1
 62
7
100
AcDbSpline
 70
8
 71
3
 72
8
 73
4
 74
0
 40
0
 40
0
 40
0
 40
0
 40
1
 40
1
 40
1
 40
1
 10
243.431584
 20
114.573376
 30
0.0
 10
243.942098
 20
114.278631
 30
0.0
 10
244.256341
 20
113.733497
 30
0.0
 10
244.256341
 20
113.144008
 30
0.0
  0
SPLINE
  5
14c
100
AcDbEntity
  8
Layer_1
 62
7
100
AcDbSpline
 70
8
 71
3
 72
8
 73
4
 74
0
 40
0
 40
0
 40
0
 40
0
 40
1
 40
1
 40
1
 40
1
 10
244.256341
 20
113.144008
 30
0.0
 10
244.256341
 20
112.554519
 30
0.0
 10
243.942098
 20
112.009901
 30
0.0
 10
243.431584
 20
111.715155
 30
0.0
  0
SPLINE
  5
14d
100
AcDbEntity
  8
Layer_1
 62
7
100
AcDbSpline
 70
8
 71
3
 72
8
 73
4
 74
0
 40
0
 40
0
 40
0
 40
0
 40
1
 40
1
 40
1
 40
1
 10
243.431584
 20
111.715155
 30
0.0
 10
242.921071
 20
111.420409
 30
0.0
 10
242.292069
 20
111.420409
 30
0.0
 10
241.781556
 20
111.715155
 30
0.0
  0
SPLINE
  5
14e
100
AcDbEntity
  8
Layer_1
 62
7
100
AcDbSpline
 70
8
 71
3
 72
8
 73
4
 74
0
 40
0
 40
0
 40
0
 40
0
 40
1
 40
1
 40
1
 40
1
 10
241.781556
 20
111.715155
 30
0.0
 10
241.271042
 20
112.009901
 30
0.0
 10
240.956284
 20
112.554519
 30
0.0
 10
240.956284
 20
113.144008
 30
0.0
  0
SPLINE
  5
14f
100
AcDbEntity
  8
Layer_1
 62
7
100
AcDbSpline
 70
8
 71
3
 72
8
 73
4
 74
0
 40
0
 40
0
 40
0
 40
0
 40
1
 40
1
 40
1
 40
1
 10
240.956284
 20
113.144008
 30
0.0
 10
240.956284
 20
113.733497
 30
0.0
 10
241.271042
 20
114.278631
 30
0.0
 10
241.781556
 20
114.573376
 30
0.0
  0
SPLINE
  5
150
100
AcDbEntity
  8
Layer_1
 62
7
100
AcDbSpline
 70
8
 71
3
 72
8
 73
4
 74
0
 40
0
 40
0
 40
0
 40
0
 40
1
 40
1
 40
1
 40
1
 10
241.781556
 20
114.573376
 30
0.0
 10
242.036813
 20
114.720749
 30
0.0
 10
242.321441
 20
114.794036
 30
0.0
 10
242.606312
 20
114.794036
 30
0.0
  0
LINE
  5
151
100
AcDbEntity
  8
Layer_1
 62
7
100
AcDbLine
 10
242.606312
 20
114.794036
 30
0.0
 11
242.606312
 21
114.794036
 31
0.0
  0
ENDSEC
  0
SECTION
  2
OBJECTS
  0
DICTIONARY
  5
C
330
0
100
AcDbDictionary
  3
ACAD_GROUP
350
D
  3
ACAD_MLINESTYLE
350
17
  0
DICTIONARY
  5
D
330
C
100
AcDbDictionary
  0
DICTIONARY
  5
1A
330
C
100
AcDbDictionary
  0
DICTIONARY
  5
17
330
C
100
AcDbDictionary
  3
STANDARD
350
18
  0
DICTIONARY
  5
19
330
C
100
AcDbDictionary
  0
ENDSEC
  0
EOF
