<?xml version="1.0" encoding="UTF-8" standalone="no"?>
<svg
   viewBox="0 0 793.7007874015749 1122.5196850393702"
   width="793.7007874015749"
   height="1122.5196850393702"
   version="1.1"
   id="svg86"
   sodipodi:docname="laserenclosure4_v8_shim_4pcs_combined.svg"
   inkscape:version="1.2.1 (9c6d41e410, 2022-07-14)"
   xmlns:inkscape="http://www.inkscape.org/namespaces/inkscape"
   xmlns:sodipodi="http://sodipodi.sourceforge.net/DTD/sodipodi-0.dtd"
   xmlns="http://www.w3.org/2000/svg"
   xmlns:svg="http://www.w3.org/2000/svg">
  <sodipodi:namedview
     id="namedview88"
     pagecolor="#ffffff"
     bordercolor="#666666"
     borderopacity="1.0"
     inkscape:showpageshadow="2"
     inkscape:pageopacity="0.0"
     inkscape:pagecheckerboard="0"
     inkscape:deskcolor="#d1d1d1"
     showgrid="false"
     inkscape:zoom="4.4195762"
     inkscape:cx="381.93707"
     inkscape:cy="741.47381"
     inkscape:window-width="1858"
     inkscape:window-height="1057"
     inkscape:window-x="54"
     inkscape:window-y="-8"
     inkscape:window-maximized="1"
     inkscape:current-layer="g84" />
  <desc
     id="desc2">laserenclosure4_v8_shim_4pcs.dxf - scale = 1.000000, origin = (0.000000, 0.000000), method = manual</desc>
  <defs
     id="defs16">
    <marker
       id="DistanceX"
       orient="auto"
       refX="0.0"
       refY="0.0"
       style="overflow:visible">
      <path
         d="M 3,-3 L -3,3 M 0,-5 L  0,5"
         style="stroke:#000000; stroke-width:0.5"
         id="path4" />
    </marker>
    <pattern
       id="Hatch"
       patternUnits="userSpaceOnUse"
       width="8"
       height="8"
       x="0"
       y="0">
      <path
         d="M8 4 l-4,4"
         stroke="#000000"
         stroke-width="0.25"
         linecap="square"
         id="path7" />
      <path
         d="M6 2 l-4,4"
         stroke="#000000"
         stroke-width="0.25"
         linecap="square"
         id="path9" />
      <path
         d="M4 0 l-4,4"
         stroke="#000000"
         stroke-width="0.25"
         linecap="square"
         id="path11" />
    </pattern>
    <symbol
       id="*MODEL_SPACE" />
    <symbol
       id="*PAPER_SPACE" />
  </defs>
  <g
     inkscape:groupmode="layer"
     inkscape:label="0"
     id="g18" />
  <g
     inkscape:groupmode="layer"
     inkscape:label="Layer_1"
     id="g84">
    <path
       id="path1118"
       style="vector-effect:non-scaling-stroke;fill:#ff0000;stroke:#000000;stroke-width:1;stroke-dasharray:none;-inkscape-stroke:hairline"
       d="M -500.38281 607.66211 L -500.38281 656.79688 L -414.70508 656.79688 L -414.70508 666.53906 L -500.38281 666.53906 L -500.38281 715.67383 L 973.63086 715.67383 L 973.63086 666.53906 L 878.76758 666.53906 L 878.76758 656.79688 L 973.63086 656.79688 L 973.63086 607.66211 L -500.38281 607.66211 z M 538.98633 629.75586 C 540.06473 629.75586 541.14346 630.03693 542.10938 630.5957 C 544.04118 631.71325 545.22838 633.77799 545.22266 636.00977 C 545.22866 638.24153 544.04118 640.30628 542.10938 641.42383 C 540.17755 642.54138 537.79511 642.54138 535.86328 641.42383 C 533.93144 640.30628 532.74427 638.24153 532.75 636.00977 C 532.744 633.77799 533.93144 631.71325 535.86328 630.5957 C 536.8292 630.03693 537.90793 629.75586 538.98633 629.75586 z M -65.738281 629.76953 C -64.661337 629.76953 -63.584065 630.04819 -62.619141 630.60547 C -60.689292 631.72001 -59.501061 633.7812 -59.501953 636.00977 C -59.501061 638.23831 -60.689292 640.29756 -62.619141 641.41211 C -64.54899 642.52665 -66.927573 642.52665 -68.857422 641.41211 C -70.787271 640.29756 -71.975505 638.23831 -71.974609 636.00977 C -71.975505 633.7812 -70.787271 631.72001 -68.857422 630.60547 C -67.892497 630.04819 -66.815226 629.76953 -65.738281 629.76953 z M -443.68945 629.77344 C -442.61277 629.77344 -441.53697 630.05042 -440.57227 630.60742 C -438.64278 631.72141 -437.45312 633.78179 -437.45312 636.00977 C -437.45312 638.23771 -438.64278 640.29617 -440.57227 641.41016 C -442.50171 642.52416 -444.87915 642.52416 -446.80859 641.41016 C -448.73808 640.29617 -449.92578 638.23771 -449.92578 636.00977 C -449.92578 633.78179 -448.73808 631.72141 -446.80859 630.60742 C -445.84385 630.05042 -444.76613 629.77344 -443.68945 629.77344 z M 916.9375 629.77344 C 918.01418 629.77344 919.09189 630.05042 920.05664 630.60742 C 921.98614 631.72142 923.17383 633.78178 923.17383 636.00977 C 923.17383 638.23775 921.98614 640.29616 920.05664 641.41016 C 918.12714 642.52416 915.74981 642.52416 913.82031 641.41016 C 911.89081 640.29616 910.70117 638.23775 910.70117 636.00977 C 910.70117 633.78178 911.89081 631.72142 913.82031 630.60742 C 914.78506 630.05042 915.86082 629.77344 916.9375 629.77344 z M -412.70508 656.79688 L 876.76758 656.79688 L 876.76758 666.53906 L -412.70508 666.53906 L -412.70508 656.79688 z M 538.98633 688.63281 C 540.06473 688.63281 541.14346 688.91389 542.10938 689.47266 C 544.04118 690.59021 545.22838 692.65494 545.22266 694.88672 C 545.22866 697.11849 544.04118 699.18323 542.10938 700.30078 C 540.17755 701.41833 537.79511 701.41833 535.86328 700.30078 C 533.93144 699.18323 532.74427 697.11849 532.75 694.88672 C 532.744 692.65494 533.93144 690.59021 535.86328 689.47266 C 536.8292 688.91389 537.90793 688.63281 538.98633 688.63281 z M -65.738281 688.64648 C -64.661337 688.64648 -63.584065 688.92514 -62.619141 689.48242 C -60.689292 690.59696 -59.501061 692.65815 -59.501953 694.88672 C -59.501061 697.11527 -60.689292 699.17451 -62.619141 700.28906 C -64.54899 701.4036 -66.927573 701.4036 -68.857422 700.28906 C -70.787271 699.17451 -71.975505 697.11527 -71.974609 694.88672 C -71.975505 692.65815 -70.787271 690.59696 -68.857422 689.48242 C -67.892497 688.92514 -66.815226 688.64648 -65.738281 688.64648 z M -443.68945 688.65234 C -442.61277 688.65234 -441.53697 688.92933 -440.57227 689.48633 C -438.64278 690.60032 -437.45312 692.66069 -437.45312 694.88867 C -437.45312 697.11662 -438.64278 699.17507 -440.57227 700.28906 C -442.50171 701.40306 -444.87915 701.40306 -446.80859 700.28906 C -448.73808 699.17507 -449.92578 697.11662 -449.92578 694.88867 C -449.92578 692.66069 -448.73808 690.60032 -446.80859 689.48633 C -445.84385 688.92933 -444.76613 688.65234 -443.68945 688.65234 z M 916.9375 688.65234 C 918.01418 688.65234 919.09189 688.92933 920.05664 689.48633 C 921.98614 690.60033 923.17383 692.66068 923.17383 694.88867 C 923.17383 697.11666 921.98614 699.17506 920.05664 700.28906 C 918.12714 701.40306 915.74981 701.40306 913.82031 700.28906 C 911.89081 699.17506 910.70117 697.11666 910.70117 694.88867 C 910.70117 692.66068 911.89081 690.60033 913.82031 689.48633 C 914.78506 688.92933 915.86082 688.65234 916.9375 688.65234 z " />
  </g>
</svg>
