999
dxfrw 0.6.3
  0
SECTION
  2
HEADER
  9
$ACADVER
  1
AC1021
  9
$DWGCODEPAGE
  3
ANSI_1252
  9
$INSBASE
 10
0
 20
0
 30
0
  9
$EXTMIN
 10
-10
 20
0
 30
0
  9
$EXTMAX
 10
766.5238934211692
 20
790
 30
0
  9
$LIMMIN
 10
0
 20
0
  9
$LIMMAX
 10
420
 20
297
  9
$ORTHOMODE
 70
    0
  9
$REGENMODE
 70
    1
  9
$FILLMODE
 70
    1
  9
$QTEXTMODE
 70
    0
  9
$MIRRTEXT
 70
    0
  9
$LTSCALE
 40
1
  9
$ATTMODE
 70
    0
  9
$TEXTSIZE
 40
2.5
  9
$TRACEWID
 40
15.68
  9
$TEXTSTYLE
  7
STANDARD
  9
$CLAYER
  8
0
  9
$CELTYPE
  6
BYLAYER
  9
$CECOLOR
 62
  256
  9
$CELTSCALE
 40
1
  9
$DISPSILH
 70
    0
  9
$DIMSCALE
 40
2.5
  9
$DIMASZ
 40
2.5
  9
$DIMEXO
 40
0.625
  9
$DIMDLI
 40
3.75
  9
$DIMRND
 40
0
  9
$DIMDLE
 40
0
  9
$DIMEXE
 40
1.25
  9
$DIMTP
 40
0
  9
$DIMTM
 40
0
  9
$DIMTXT
 40
2.5
  9
$DIMCEN
 40
2.5
  9
$DIMTSZ
 40
0
  9
$DIMTOL
 70
    0
  9
$DIMLIM
 70
    0
  9
$DIMTIH
 70
    0
  9
$DIMTOH
 70
    0
  9
$DIMSE1
 70
    0
  9
$DIMSE2
 70
    0
  9
$DIMTAD
 70
    1
  9
$DIMZIN
 70
    8
  9
$DIMBLK
  1

  9
$DIMASO
 70
    1
  9
$DIMSHO
 70
    1
  9
$DIMPOST
  1

  9
$DIMAPOST
  1

  9
$DIMALT
 70
    0
  9
$DIMALTD
 70
    3
  9
$DIMALTF
 40
0.03937
  9
$DIMLFAC
 40
1
  9
$DIMTOFL
 70
    1
  9
$DIMTVP
 40
0
  9
$DIMTIX
 70
    0
  9
$DIMSOXD
 70
    0
  9
$DIMSAH
 70
    0
  9
$DIMBLK1
  1

  9
$DIMBLK2
  1

  9
$DIMSTYLE
  2
Standard
  9
$DIMCLRD
 70
    0
  9
$DIMCLRE
 70
    0
  9
$DIMCLRT
 70
    0
  9
$DIMTFAC
 40
1
  9
$DIMGAP
 40
0.625
  9
$DIMJUST
 70
    0
  9
$DIMSD1
 70
    0
  9
$DIMSD2
 70
    0
  9
$DIMTOLJ
 70
    0
  9
$DIMTZIN
 70
    8
  9
$DIMALTZ
 70
    0
  9
$DIMALTTZ
 70
    0
  9
$DIMUPT
 70
    0
  9
$DIMDEC
 70
    2
  9
$DIMTDEC
 70
    2
  9
$DIMALTU
 70
    2
  9
$DIMALTTD
 70
    3
  9
$DIMTXSTY
  7
STANDARD
  9
$DIMAUNIT
 70
    0
  9
$DIMADEC
 70
    0
  9
$DIMALTRND
 40
0
  9
$DIMAZIN
 70
    0
  9
$DIMDSEP
 70
   44
  9
$DIMATFIT
 70
    3
  9
$DIMFRAC
 70
    0
  9
$DIMLDRBLK
  1
STANDARD
  9
$DIMLUNIT
 70
    2
  9
$DIMLWD
 70
   -2
  9
$DIMLWE
 70
   -2
  9
$DIMTMOVE
 70
    0
  9
$DIMFXL
 40
1
  9
$DIMFXLON
 70
    0
  9
$DIMJOGANG
 40
0.7854
  9
$DIMTFILL
 70
    0
  9
$DIMTFILLCLR
 70
    0
  9
$DIMARCSYM
 70
    0
  9
$DIMLTYPE
  6

  9
$DIMLTEX1
  6

  9
$DIMLTEX2
  6

  9
$LUNITS
 70
    2
  9
$LUPREC
 70
    4
  9
$SKETCHINC
 40
1
  9
$FILLETRAD
 40
0
  9
$AUNITS
 70
    0
  9
$AUPREC
 70
    2
  9
$MENU
  1
.
  9
$ELEVATION
 40
0
  9
$PELEVATION
 40
0
  9
$THICKNESS
 40
0
  9
$LIMCHECK
 70
    0
  9
$CHAMFERA
 40
0
  9
$CHAMFERB
 40
0
  9
$CHAMFERC
 40
0
  9
$CHAMFERD
 40
0
  9
$SKPOLY
 70
    0
  9
$USRTIMER
 70
    1
  9
$ANGBASE
 50
0
  9
$ANGDIR
 70
    0
  9
$PDMODE
 70
   34
  9
$PDSIZE
 40
0
  9
$PLINEWID
 40
0
  9
$SPLFRAME
 70
    0
  9
$SPLINETYPE
 70
    2
  9
$SPLINESEGS
 70
    8
  9
$HANDSEED
  5
20000
  9
$SURFTAB1
 70
    6
  9
$SURFTAB2
 70
    6
  9
$SURFTYPE
 70
    6
  9
$SURFU
 70
    6
  9
$SURFV
 70
    6
  9
$UCSBASE
  2

  9
$UCSNAME
  2

  9
$UCSORG
 10
0
 20
0
 30
0
  9
$UCSXDIR
 10
1
 20
0
 30
0
  9
$UCSYDIR
 10
0
 20
1
 30
0
  9
$UCSORTHOREF
  2

  9
$UCSORTHOVIEW
 70
    0
  9
$UCSORGTOP
 10
0
 20
0
 30
0
  9
$UCSORGBOTTOM
 10
0
 20
0
 30
0
  9
$UCSORGLEFT
 10
0
 20
0
 30
0
  9
$UCSORGRIGHT
 10
0
 20
0
 30
0
  9
$UCSORGFRONT
 10
0
 20
0
 30
0
  9
$UCSORGBACK
 10
0
 20
0
 30
0
  9
$PUCSBASE
  2

  9
$PUCSNAME
  2

  9
$PUCSORG
 10
0
 20
0
 30
0
  9
$PUCSXDIR
 10
1
 20
0
 30
0
  9
$PUCSYDIR
 10
0
 20
1
 30
0
  9
$PUCSORTHOREF
  2

  9
$PUCSORTHOVIEW
 70
    0
  9
$PUCSORGTOP
 10
0
 20
0
 30
0
  9
$PUCSORGBOTTOM
 10
0
 20
0
 30
0
  9
$PUCSORGLEFT
 10
0
 20
0
 30
0
  9
$PUCSORGRIGHT
 10
0
 20
0
 30
0
  9
$PUCSORGFRONT
 10
0
 20
0
 30
0
  9
$PUCSORGBACK
 10
0
 20
0
 30
0
  9
$USERI1
 70
    0
  9
$USERI2
 70
    0
  9
$USERI3
 70
    0
  9
$USERI4
 70
    0
  9
$USERI5
 70
    0
  9
$USERR1
 40
0
  9
$USERR2
 40
0
  9
$USERR3
 40
0
  9
$USERR4
 40
0
  9
$USERR5
 40
0
  9
$WORLDVIEW
 70
    1
  9
$SHADEDGE
 70
    3
  9
$SHADEDIF
 70
   70
  9
$TILEMODE
 70
    1
  9
$MAXACTVP
 70
   64
  9
$PINSBASE
 10
0
 20
0
 30
0
  9
$PLIMCHECK
 70
    0
  9
$PEXTMIN
 10
0
 20
0
 30
0
  9
$PEXTMAX
 10
0
 20
0
 30
0
  9
$SNAPSTYLE
 70
    0
  9
$PLIMMIN
 10
0
 20
0
  9
$PLIMMAX
 10
210
 20
297
  9
$UNITMODE
 70
    0
  9
$VISRETAIN
 70
    1
  9
$PLINEGEN
 70
    0
  9
$PSLTSCALE
 70
    1
  9
$TREEDEPTH
 70
 3020
  9
$CMLSTYLE
  2
Standard
  9
$CMLJUST
 70
    0
  9
$CMLSCALE
 40
20
  9
$PROXYGRAPHICS
 70
    1
  9
$MEASUREMENT
 70
    1
  9
$CELWEIGHT
370
   -1
  9
$ENDCAPS
280
    0
  9
$JOINSTYLE
280
    0
  9
$LWDISPLAY
290
    0
  9
$INSUNITS
 70
    4
  9
$HYPERLINKBASE
  1

  9
$STYLESHEET
  1

  9
$XEDIT
290
    1
  9
$CEPSNTYPE
380
    0
  9
$PSTYLEMODE
290
    1
  9
$EXTNAMES
290
    1
  9
$PSVPSCALE
 40
1
  9
$OLESTARTUP
290
    0
  9
$SORTENTS
280
  127
  9
$INDEXCTL
280
    0
  9
$HIDETEXT
280
    1
  9
$XCLIPFRAME
290
    0
  9
$HALOGAP
280
    0
  9
$OBSCOLOR
 70
  257
  9
$OBSLTYPE
280
    0
  9
$INTERSECTIONDISPLAY
280
    0
  9
$INTERSECTIONCOLOR
 70
  257
  9
$DIMASSOC
280
    1
  9
$PROJECTNAME
  1

  9
$CAMERADISPLAY
290
    0
  9
$LENSLENGTH
 40
50
  9
$CAMERAHEIGHT
 40
0
  9
$STEPSPERSEC
 40
2
  9
$STEPSIZE
 40
50
  9
$3DDWFPREC
 40
2
  9
$PSOLWIDTH
 40
5
  9
$PSOLHEIGHT
 40
80
  9
$LOFTANG1
 40
1.570796326794897
  9
$LOFTANG2
 40
1.570796326794897
  9
$LOFTMAG1
 40
0
  9
$LOFTMAG2
 40
0
  9
$LOFTPARAM
 70
    7
  9
$LOFTNORMALS
280
    1
  9
$LATITUDE
 40
1
  9
$LONGITUDE
 40
1
  9
$NORTHDIRECTION
 40
0
  9
$TIMEZONE
 70
-8000
  9
$LIGHTGLYPHDISPLAY
280
    1
  9
$TILEMODELIGHTSYNCH
280
    1
  9
$SOLIDHIST
280
    1
  9
$SHOWHIST
280
    1
  9
$DWFFRAME
280
    2
  9
$DGNFRAME
280
    0
  9
$REALWORLDSCALE
290
    1
  9
$INTERFERECOLOR
 62
    1
  9
$CSHADOW
280
    0
  9
$SHADOWPLANELOCATION
 40
0
  0
ENDSEC
  0
SECTION
  2
CLASSES
  0
ENDSEC
  0
SECTION
  2
TABLES
  0
TABLE
  2
VPORT
  5
8
330
0
100
AcDbSymbolTable
 70
    1
  0
VPORT
  5
31
330
2
100
AcDbSymbolTableRecord
100
AcDbViewportTableRecord
  2
*ACTIVE
 70
    0
 10
0
 20
0
 11
1
 21
1
 12
496.9354838709677
 22
399.5506912442396
 13
0
 23
0
 14
10
 24
10
 15
10
 25
10
 16
0
 26
0
 36
1
 17
0
 27
0
 37
0
 40
808.2027649769585
 41
1.521396396396396
 42
50
 43
0
 44
0
 50
0
 51
0
 71
    0
 72
  100
 73
    1
 74
    3
 75
    0
 76
    1
 77
    0
 78
    0
281
    0
 65
    1
110
0
120
0
130
0
111
1
121
0
131
0
112
0
122
1
132
0
 79
    0
146
0
348
10020
 60
    7
 61
    5
292
1
282
    1
141
0
142
0
 63
  250
421
3358443
  0
ENDTAB
  0
TABLE
  2
LTYPE
  5
5
330
0
100
AcDbSymbolTable
 70
    4
  0
LTYPE
  5
14
330
5
100
AcDbSymbolTableRecord
100
AcDbLinetypeTableRecord
  2
ByBlock
 70
    0
  3

 72
   65
 73
    0
 40
0
  0
LTYPE
  5
15
330
5
100
AcDbSymbolTableRecord
100
AcDbLinetypeTableRecord
  2
ByLayer
 70
    0
  3

 72
   65
 73
    0
 40
0
  0
LTYPE
  5
16
330
5
100
AcDbSymbolTableRecord
100
AcDbLinetypeTableRecord
  2
Continuous
 70
    0
  3
Solid line
 72
   65
 73
    0
 40
0
  0
LTYPE
  5
32
330
5
100
AcDbSymbolTableRecord
100
AcDbLinetypeTableRecord
  2
DOT
 70
    0
  3
Dot . . . . . . . . . . . . . . . . . . . . . .
 72
   65
 73
    2
 40
6.35
 49
0
 74
    0
 49
-6.35
 74
    0
  0
LTYPE
  5
33
330
5
100
AcDbSymbolTableRecord
100
AcDbLinetypeTableRecord
  2
DOTTINY
 70
    0
  3
Dot (.15x) .....................................
 72
   65
 73
    2
 40
0.9525
 49
0
 74
    0
 49
-0.9525
 74
    0
  0
LTYPE
  5
34
330
5
100
AcDbSymbolTableRecord
100
AcDbLinetypeTableRecord
  2
DOT2
 70
    0
  3
Dot (.5x) .....................................
 72
   65
 73
    2
 40
3.175
 49
0
 74
    0
 49
-3.175
 74
    0
  0
LTYPE
  5
35
330
5
100
AcDbSymbolTableRecord
100
AcDbLinetypeTableRecord
  2
DOTX2
 70
    0
  3
Dot (2x) .  .  .  .  .  .  .  .  .  .  .  .  .
 72
   65
 73
    2
 40
12.7
 49
0
 74
    0
 49
-12.7
 74
    0
  0
LTYPE
  5
36
330
5
100
AcDbSymbolTableRecord
100
AcDbLinetypeTableRecord
  2
DASHED
 70
    0
  3
Dashed _ _ _ _ _ _ _ _ _ _ _ _ _ _ _ _ _
 72
   65
 73
    2
 40
19.05
 49
12.7
 74
    0
 49
-6.35
 74
    0
  0
LTYPE
  5
37
330
5
100
AcDbSymbolTableRecord
100
AcDbLinetypeTableRecord
  2
DASHEDTINY
 70
    0
  3
Dashed (.15x) _ _ _ _ _ _ _ _ _ _ _ _ _ _ _ _ _
 72
   65
 73
    2
 40
2.8575
 49
1.905
 74
    0
 49
-0.9525
 74
    0
  0
LTYPE
  5
38
330
5
100
AcDbSymbolTableRecord
100
AcDbLinetypeTableRecord
  2
DASHED2
 70
    0
  3
Dashed (.5x) _ _ _ _ _ _ _ _ _ _ _ _ _ _ _ _ _
 72
   65
 73
    2
 40
9.524999999999999
 49
6.35
 74
    0
 49
-3.175
 74
    0
  0
LTYPE
  5
39
330
5
100
AcDbSymbolTableRecord
100
AcDbLinetypeTableRecord
  2
DASHEDX2
 70
    0
  3
Dashed (2x) ____  ____  ____  ____  ____  ___
 72
   65
 73
    2
 40
38.09999999999999
 49
25.4
 74
    0
 49
-12.7
 74
    0
  0
LTYPE
  5
3A
330
5
100
AcDbSymbolTableRecord
100
AcDbLinetypeTableRecord
  2
DASHDOT
 70
    0
  3
Dash dot __ . __ . __ . __ . __ . __ . __ . __
 72
   65
 73
    4
 40
25.4
 49
12.7
 74
    0
 49
-6.35
 74
    0
 49
0
 74
    0
 49
-6.35
 74
    0
  0
LTYPE
  5
3B
330
5
100
AcDbSymbolTableRecord
100
AcDbLinetypeTableRecord
  2
DASHDOTTINY
 70
    0
  3
Dash dot (.15x) _._._._._._._._._._._._._._._.
 72
   65
 73
    4
 40
3.81
 49
1.905
 74
    0
 49
-0.9525
 74
    0
 49
0
 74
    0
 49
-0.9525
 74
    0
  0
LTYPE
  5
3C
330
5
100
AcDbSymbolTableRecord
100
AcDbLinetypeTableRecord
  2
DASHDOT2
 70
    0
  3
Dash dot (.5x) _._._._._._._._._._._._._._._.
 72
   65
 73
    4
 40
12.7
 49
6.35
 74
    0
 49
-3.175
 74
    0
 49
0
 74
    0
 49
-3.175
 74
    0
  0
LTYPE
  5
3D
330
5
100
AcDbSymbolTableRecord
100
AcDbLinetypeTableRecord
  2
DASHDOTX2
 70
    0
  3
Dash dot (2x) ____  .  ____  .  ____  .  ___
 72
   65
 73
    4
 40
50.8
 49
25.4
 74
    0
 49
-12.7
 74
    0
 49
0
 74
    0
 49
-12.7
 74
    0
  0
LTYPE
  5
3E
330
5
100
AcDbSymbolTableRecord
100
AcDbLinetypeTableRecord
  2
DIVIDE
 70
    0
  3
Divide ____ . . ____ . . ____ . . ____ . . ____
 72
   65
 73
    6
 40
31.75
 49
12.7
 74
    0
 49
-6.35
 74
    0
 49
0
 74
    0
 49
-6.35
 74
    0
 49
0
 74
    0
 49
-6.35
 74
    0
  0
LTYPE
  5
3F
330
5
100
AcDbSymbolTableRecord
100
AcDbLinetypeTableRecord
  2
DIVIDETINY
 70
    0
  3
Divide (.15x) __..__..__..__..__..__..__..__.._
 72
   65
 73
    6
 40
4.7625
 49
1.905
 74
    0
 49
-0.9525
 74
    0
 49
0
 74
    0
 49
-0.9525
 74
    0
 49
0
 74
    0
 49
-0.9525
 74
    0
  0
LTYPE
  5
40
330
5
100
AcDbSymbolTableRecord
100
AcDbLinetypeTableRecord
  2
DIVIDE2
 70
    0
  3
Divide (.5x) __..__..__..__..__..__..__..__.._
 72
   65
 73
    6
 40
15.875
 49
6.35
 74
    0
 49
-3.175
 74
    0
 49
0
 74
    0
 49
-3.175
 74
    0
 49
0
 74
    0
 49
-3.175
 74
    0
  0
LTYPE
  5
41
330
5
100
AcDbSymbolTableRecord
100
AcDbLinetypeTableRecord
  2
DIVIDEX2
 70
    0
  3
Divide (2x) ________  .  .  ________  .  .  _
 72
   65
 73
    6
 40
63.5
 49
25.4
 74
    0
 49
-12.7
 74
    0
 49
0
 74
    0
 49
-12.7
 74
    0
 49
0
 74
    0
 49
-12.7
 74
    0
  0
LTYPE
  5
42
330
5
100
AcDbSymbolTableRecord
100
AcDbLinetypeTableRecord
  2
BORDER
 70
    0
  3
Border __ __ . __ __ . __ __ . __ __ . __ __ .
 72
   65
 73
    6
 40
44.45
 49
12.7
 74
    0
 49
-6.35
 74
    0
 49
12.7
 74
    0
 49
-6.35
 74
    0
 49
0
 74
    0
 49
-6.35
 74
    0
  0
LTYPE
  5
43
330
5
100
AcDbSymbolTableRecord
100
AcDbLinetypeTableRecord
  2
BORDERTINY
 70
    0
  3
Border (.15x) __.__.__.__.__.__.__.__.__.__.__.
 72
   65
 73
    6
 40
6.6675
 49
1.905
 74
    0
 49
-0.9525
 74
    0
 49
1.905
 74
    0
 49
-0.9525
 74
    0
 49
0
 74
    0
 49
-0.9525
 74
    0
  0
LTYPE
  5
44
330
5
100
AcDbSymbolTableRecord
100
AcDbLinetypeTableRecord
  2
BORDER2
 70
    0
  3
Border (.5x) __.__.__.__.__.__.__.__.__.__.__.
 72
   65
 73
    6
 40
22.225
 49
6.35
 74
    0
 49
-3.175
 74
    0
 49
6.35
 74
    0
 49
-3.175
 74
    0
 49
0
 74
    0
 49
-3.175
 74
    0
  0
LTYPE
  5
45
330
5
100
AcDbSymbolTableRecord
100
AcDbLinetypeTableRecord
  2
BORDERX2
 70
    0
  3
Border (2x) ____  ____  .  ____  ____  .  ___
 72
   65
 73
    6
 40
88.89999999999999
 49
25.4
 74
    0
 49
-12.7
 74
    0
 49
25.4
 74
    0
 49
-12.7
 74
    0
 49
0
 74
    0
 49
-12.7
 74
    0
  0
LTYPE
  5
46
330
5
100
AcDbSymbolTableRecord
100
AcDbLinetypeTableRecord
  2
CENTER
 70
    0
  3
Center ____ _ ____ _ ____ _ ____ _ ____ _ ____
 72
   65
 73
    4
 40
50.8
 49
31.75
 74
    0
 49
-6.35
 74
    0
 49
6.35
 74
    0
 49
-6.35
 74
    0
  0
LTYPE
  5
47
330
5
100
AcDbSymbolTableRecord
100
AcDbLinetypeTableRecord
  2
CENTERTINY
 70
    0
  3
Center (.15x) ___ _ ___ _ ___ _ ___ _ ___ _ ___
 72
   65
 73
    4
 40
7.62
 49
4.7625
 74
    0
 49
-0.9525
 74
    0
 49
0.9525
 74
    0
 49
-0.9525
 74
    0
  0
LTYPE
  5
48
330
5
100
AcDbSymbolTableRecord
100
AcDbLinetypeTableRecord
  2
CENTER2
 70
    0
  3
Center (.5x) ___ _ ___ _ ___ _ ___ _ ___ _ ___
 72
   65
 73
    4
 40
28.575
 49
19.05
 74
    0
 49
-3.175
 74
    0
 49
3.175
 74
    0
 49
-3.175
 74
    0
  0
LTYPE
  5
49
330
5
100
AcDbSymbolTableRecord
100
AcDbLinetypeTableRecord
  2
CENTERX2
 70
    0
  3
Center (2x) ________  __  ________  __  _____
 72
   65
 73
    4
 40
101.6
 49
63.5
 74
    0
 49
-12.7
 74
    0
 49
12.7
 74
    0
 49
-12.7
 74
    0
  0
ENDTAB
  0
TABLE
  2
LAYER
  5
2
330
0
100
AcDbSymbolTable
 70
    1
  0
LAYER
  5
10
330
2
100
AcDbSymbolTableRecord
100
AcDbLayerTableRecord
  2
0
 70
    0
 62
    7
  6
CONTINUOUS
370
   -3
390
F
  0
LAYER
  5
4A
330
2
100
AcDbSymbolTableRecord
100
AcDbLayerTableRecord
  2
INTERIOR_PROFILES
 70
    0
 62
    7
  6
CONTINUOUS
370
   -3
390
F
  0
LAYER
  5
4B
330
2
100
AcDbSymbolTableRecord
100
AcDbLayerTableRecord
  2
OUTER_PROFILES
 70
    0
 62
    7
  6
CONTINUOUS
370
   -3
390
F
  0
ENDTAB
  0
TABLE
  2
STYLE
  5
3
330
0
100
AcDbSymbolTable
 70
    3
  0
STYLE
  5
4C
330
2
100
AcDbSymbolTableRecord
100
AcDbTextStyleTableRecord
  2
Standard
 70
    0
 40
0
 41
1
 50
0
 71
    0
 42
1
  3
txt
  4

  0
ENDTAB
  0
TABLE
  2
VIEW
  5
6
330
0
100
AcDbSymbolTable
 70
    0
  0
ENDTAB
  0
TABLE
  2
UCS
  5
7
330
0
100
AcDbSymbolTable
 70
    0
  0
ENDTAB
  0
TABLE
  2
APPID
  5
9
330
0
100
AcDbSymbolTable
 70
    1
  0
APPID
  5
12
330
9
100
AcDbSymbolTableRecord
100
AcDbRegAppTableRecord
  2
ACAD
 70
    0
  0
APPID
  5
4D
330
9
100
AcDbSymbolTableRecord
100
AcDbRegAppTableRecord
  2
LibreCad
 70
    0
  0
ENDTAB
  0
TABLE
  2
DIMSTYLE
  5
A
330
0
100
AcDbSymbolTable
 70
    1
100
AcDbDimStyleTable
 71
    1
  0
DIMSTYLE
105
4E
330
A
100
AcDbSymbolTableRecord
100
AcDbDimStyleTableRecord
  2
Standard
 70
    0
 40
1
 41
2.5
 42
0.625
 43
0.38
 44
1.25
 45
0
 46
0
 47
0
 48
0
 49
1
140
2.5
141
0.09
142
2.5
143
25.4
144
1
145
0
146
1
147
0.625
148
0
 71
    0
 72
    0
 73
    0
 74
    1
 75
    0
 76
    0
 77
    0
 78
    1
 79
    0
170
    0
171
    2
172
    0
173
    0
174
    0
175
    0
176
    0
177
    0
178
    0
179
    0
271
    2
272
    4
273
    2
274
    2
275
    0
276
    0
277
    2
278
    0
279
    0
280
    0
281
    0
282
    0
283
    1
284
    0
285
    0
286
    0
288
    0
289
    3
340
standard
341

371
   -2
372
   -2
  0
ENDTAB
  0
TABLE
  2
BLOCK_RECORD
  5
1
330
0
100
AcDbSymbolTable
 70
    2
  0
BLOCK_RECORD
  5
1F
330
1
100
AcDbSymbolTableRecord
100
AcDbBlockTableRecord
  2
*Model_Space
 70
    0
280
    1
281
    0
  0
BLOCK_RECORD
  5
1E
330
1
100
AcDbSymbolTableRecord
100
AcDbBlockTableRecord
  2
*Paper_Space
 70
    0
280
    1
281
    0
  0
ENDTAB
  0
ENDSEC
  0
SECTION
  2
BLOCKS
  0
BLOCK
  5
20
330
1F
100
AcDbEntity
  8
0
100
AcDbBlockBegin
  2
*Model_Space
 70
    0
 10
0
 20
0
 30
0
  3
*Model_Space
  1

  0
ENDBLK
  5
21
330
1F
100
AcDbEntity
  8
0
100
AcDbBlockEnd
  0
BLOCK
  5
1C
330
1B
100
AcDbEntity
  8
0
100
AcDbBlockBegin
  2
*Paper_Space
 70
    0
 10
0
 20
0
 30
0
  3
*Paper_Space
  1

  0
ENDBLK
  5
1D
330
1F
100
AcDbEntity
  8
0
100
AcDbBlockEnd
  0
ENDSEC
  0
SECTION
  2
ENTITIES
  0
LWPOLYLINE
  5
4F
100
AcDbEntity
  8
OUTER_PROFILES
  6
ByLayer
 62
  256
370
   -1
100
AcDbPolyline
 90
   20
 70
    1
 43
0
 10
766.5238934211692
 20
497.9289321881346
 10
766.5238934211691
 20
32.07106781186553
 42
-0.1989123673796529
 10
765.059427327102
 20
28.53553390593285
 10
757.9883595152364
 20
21.46446609406719
 42
0.1989123673796536
 10
756.5238934211693
 20
17.92893218813449
 10
756.5238934211692
 20
0
 10
0
 20
0
 10
0
 20
17.92893218813446
 42
0.1989123673796582
 10
-1.46446609406726
 20
21.4644660940672
 10
-8.535533905932766
 20
28.53553390593277
 42
-0.198912367379658
 10
-10
 20
32.07106781186553
 10
-10
 20
497.9289321881346
 42
-0.1989123673796549
 10
-8.535533905932773
 20
501.4644660940673
 10
-1.464466094067283
 20
508.5355339059329
 42
0.1989123673796594
 10
8.881784197001252e-016
 20
512.0710678118656
 10
0
 20
790
 10
756.5238934211692
 20
790
 10
756.5238934211693
 20
512.0710678118655
 42
0.1989123673796538
 10
757.9883595152365
 20
508.5355339059328
 10
765.0594273271018
 20
501.4644660940672
 42
-0.1989123673796509
  0
CIRCLE
  5
50
100
AcDbEntity
  8
INTERIOR_PROFILES
  6
ByLayer
 62
  256
370
   -1
100
AcDbCircle
 10
523.2619467105847
 20
60
 40
2.250000000000085
  0
LWPOLYLINE
  5
51
100
AcDbEntity
  8
INTERIOR_PROFILES
  6
ByLayer
 62
  256
370
   -1
100
AcDbPolyline
 90
    4
 70
    1
 43
0
 10
456.6119467105847
 20
784
 10
456.6119467105847
 20
781.0000000000001
 42
0.9999999999999999
 10
459.9119467105849
 20
781.0000000000001
 10
459.9119467105847
 20
784
 42
0.9999999999999999
  0
CIRCLE
  5
52
100
AcDbEntity
  8
INTERIOR_PROFILES
  6
ByLayer
 62
  256
370
   -1
100
AcDbCircle
 10
112.0000000000007
 20
376.6666666666669
 40
1.649999999999991
  0
CIRCLE
  5
53
100
AcDbEntity
  8
INTERIOR_PROFILES
  6
ByLayer
 62
  256
370
   -1
100
AcDbCircle
 10
68.00000000000267
 20
103.3240698941634
 40
1.600000000000001
  0
CIRCLE
  5
54
100
AcDbEntity
  8
INTERIOR_PROFILES
  6
ByLayer
 62
  256
370
   -1
100
AcDbCircle
 10
290.7619467105846
 20
725
 40
2.249999999999943
  0
CIRCLE
  5
55
100
AcDbEntity
  8
INTERIOR_PROFILES
  6
ByLayer
 62
  256
370
   -1
100
AcDbCircle
 10
465.7619467105847
 20
595.0000000000001
 40
2.250000000000014
  0
CIRCLE
  5
56
100
AcDbEntity
  8
INTERIOR_PROFILES
  6
ByLayer
 62
  256
370
   -1
100
AcDbCircle
 10
688.5238934211693
 20
382.8109685295754
 40
1.600000000000037
  0
CIRCLE
  5
57
100
AcDbEntity
  8
INTERIOR_PROFILES
  6
ByLayer
 62
  256
370
   -1
100
AcDbCircle
 10
468.2619467105846
 20
244.0000000000001
 40
2.749999999999986
  0
CIRCLE
  5
58
100
AcDbEntity
  8
INTERIOR_PROFILES
  6
ByLayer
 62
  256
370
   -1
100
AcDbCircle
 10
112.0000000000007
 20
455.0000000000002
 40
1.649999999999991
  0
CIRCLE
  5
59
100
AcDbEntity
  8
INTERIOR_PROFILES
  6
ByLayer
 62
  256
370
   -1
100
AcDbCircle
 10
685.5238934211693
 20
407.8109685295754
 40
1.599999999999966
  0
CIRCLE
  5
5A
100
AcDbEntity
  8
INTERIOR_PROFILES
  6
ByLayer
 62
  256
370
   -1
100
AcDbCircle
 10
112.0000000000007
 20
220.0000000000002
 40
1.649999999999991
  0
CIRCLE
  5
5B
100
AcDbEntity
  8
INTERIOR_PROFILES
  6
ByLayer
 62
  256
370
   -1
100
AcDbCircle
 10
644.5238934211684
 20
220.0000000000002
 40
1.649999999999991
  0
CIRCLE
  5
5C
100
AcDbEntity
  8
INTERIOR_PROFILES
  6
ByLayer
 62
  256
370
   -1
100
AcDbCircle
 10
233.2619467105846
 20
60
 40
2.249999999999943
  0
CIRCLE
  5
5D
100
AcDbEntity
  8
INTERIOR_PROFILES
  6
ByLayer
 62
  256
370
   -1
100
AcDbCircle
 10
523.2619467105847
 20
410.0000000000001
 40
2.250000000000014
  0
CIRCLE
  5
5E
100
AcDbEntity
  8
INTERIOR_PROFILES
  6
ByLayer
 62
  256
370
   -1
100
AcDbCircle
 10
465.7619467105847
 20
725
 40
2.249999999999943
  0
CIRCLE
  5
5F
100
AcDbEntity
  8
INTERIOR_PROFILES
  6
ByLayer
 62
  256
370
   -1
100
AcDbCircle
 10
233.2619467105846
 20
410.0000000000001
 40
2.250000000000014
  0
CIRCLE
  5
60
100
AcDbEntity
  8
INTERIOR_PROFILES
  6
ByLayer
 62
  256
370
   -1
100
AcDbCircle
 10
71.00000000000264
 20
128.3240698941634
 40
1.600000000000001
  0
CIRCLE
  5
61
100
AcDbEntity
  8
INTERIOR_PROFILES
  6
ByLayer
 62
  256
370
   -1
100
AcDbCircle
 10
273.2619467105847
 20
304.0000000000001
 40
2.749999999999986
  0
CIRCLE
  5
62
100
AcDbEntity
  8
INTERIOR_PROFILES
  6
ByLayer
 62
  256
370
   -1
100
AcDbCircle
 10
290.7619467105846
 20
595.0000000000001
 40
2.250000000000014
  0
CIRCLE
  5
63
100
AcDbEntity
  8
INTERIOR_PROFILES
  6
ByLayer
 62
  256
370
   -1
100
AcDbCircle
 10
523.2619467105847
 20
660
 40
2.249999999999943
  0
CIRCLE
  5
64
100
AcDbEntity
  8
INTERIOR_PROFILES
  6
ByLayer
 62
  256
370
   -1
100
AcDbCircle
 10
112.0000000000007
 20
298.3333333333336
 40
1.649999999999991
  0
CIRCLE
  5
65
100
AcDbEntity
  8
INTERIOR_PROFILES
  6
ByLayer
 62
  256
370
   -1
100
AcDbCircle
 10
68.00000000000267
 20
153.3240698941635
 40
1.600000000000001
  0
CIRCLE
  5
66
100
AcDbEntity
  8
INTERIOR_PROFILES
  6
ByLayer
 62
  256
370
   -1
100
AcDbCircle
 10
688.5238934211693
 20
432.8109685295754
 40
1.600000000000037
  0
CIRCLE
  5
67
100
AcDbEntity
  8
INTERIOR_PROFILES
  6
ByLayer
 62
  256
370
   -1
100
AcDbCircle
 10
644.5238934211684
 20
376.6666666666669
 40
1.649999999999991
  0
CIRCLE
  5
68
100
AcDbEntity
  8
INTERIOR_PROFILES
  6
ByLayer
 62
  256
370
   -1
100
AcDbCircle
 10
644.5238934211684
 20
298.3333333333336
 40
1.649999999999991
  0
CIRCLE
  5
69
100
AcDbEntity
  8
INTERIOR_PROFILES
  6
ByLayer
 62
  256
370
   -1
100
AcDbCircle
 10
273.2619467105847
 20
244.0000000000001
 40
2.749999999999986
  0
CIRCLE
  5
6A
100
AcDbEntity
  8
INTERIOR_PROFILES
  6
ByLayer
 62
  256
370
   -1
100
AcDbCircle
 10
644.5238934211684
 20
455.0000000000002
 40
1.649999999999991
  0
CIRCLE
  5
6B
100
AcDbEntity
  8
INTERIOR_PROFILES
  6
ByLayer
 62
  256
370
   -1
100
AcDbCircle
 10
468.2619467105846
 20
304.0000000000001
 40
2.749999999999986
  0
CIRCLE
  5
6C
100
AcDbEntity
  8
INTERIOR_PROFILES
  6
ByLayer
 62
  256
370
   -1
100
AcDbCircle
 10
233.2619467105846
 20
660
 40
2.249999999999943
  0
CIRCLE
  5
6D
100
AcDbEntity
  8
INTERIOR_PROFILES
  6
ByLayer
 62
  256
370
   -1
100
AcDbCircle
 10
597.0238934211669
 20
46.00000000000051
 40
1.65
  0
LWPOLYLINE
  5
6E
100
AcDbEntity
  8
INTERIOR_PROFILES
  6
ByLayer
 62
  256
370
   -1
100
AcDbPolyline
 90
    4
 70
    1
 43
0
 10
299.9119467105925
 20
5.999999999999943
 10
299.9119467105925
 20
8.999999999999773
 42
0.9999999999999999
 10
296.6119467105926
 20
9.000000000000341
 10
296.6119467105926
 20
5.999999999999943
 42
0.9999999999999999
  0
LWPOLYLINE
  5
6F
100
AcDbEntity
  8
INTERIOR_PROFILES
  6
ByLayer
 62
  256
370
   -1
100
AcDbPolyline
 90
    4
 70
    1
 43
0
 10
299.9119467105927
 20
781.0000000000001
 10
299.9119467105927
 20
784
 42
0.9999999999999999
 10
296.6119467105927
 20
784
 10
296.6119467105927
 20
781.0000000000001
 42
0.9999999999999999
  0
LWPOLYLINE
  5
70
100
AcDbEntity
  8
INTERIOR_PROFILES
  6
ByLayer
 62
  256
370
   -1
100
AcDbPolyline
 90
    4
 70
    1
 43
0
 10
559.9119467105847
 20
781.0000000000001
 42
-0.9999999999999999
 10
556.6119467105848
 20
781.0000000000001
 10
556.6119467105848
 20
784
 42
-0.9999999999999999
 10
559.9119467105845
 20
784
  0
CIRCLE
  5
71
100
AcDbEntity
  8
INTERIOR_PROFILES
  6
ByLayer
 62
  256
370
   -1
100
AcDbCircle
 10
615.5238934211671
 20
5.999999999999943
 40
1.65
  0
CIRCLE
  5
72
100
AcDbEntity
  8
INTERIOR_PROFILES
  6
ByLayer
 62
  256
370
   -1
100
AcDbCircle
 10
715.5238934211671
 20
5.999999999999943
 40
1.65
  0
CIRCLE
  5
73
100
AcDbEntity
  8
INTERIOR_PROFILES
  6
ByLayer
 62
  256
370
   -1
100
AcDbCircle
 10
665.5238934211671
 20
5.999999999999943
 40
1.65
  0
CIRCLE
  5
74
100
AcDbEntity
  8
INTERIOR_PROFILES
  6
ByLayer
 62
  256
370
   -1
100
AcDbCircle
 10
715.523893421167
 20
784
 40
1.650000000000063
  0
LWPOLYLINE
  5
75
100
AcDbEntity
  8
INTERIOR_PROFILES
  6
ByLayer
 62
  256
370
   -1
100
AcDbPolyline
 90
    4
 70
    1
 43
0
 10
456.6119467105848
 20
9.000000000000341
 42
-0.9999999999999999
 10
459.9119467105846
 20
9.000000000000057
 10
459.9119467105849
 20
5.999999999999943
 42
-0.9999999999999999
 10
456.6119467105847
 20
5.999999999999943
  0
CIRCLE
  5
76
100
AcDbEntity
  8
INTERIOR_PROFILES
  6
ByLayer
 62
  256
370
   -1
100
AcDbCircle
 10
647.5238934211673
 20
484.0000000000016
 40
1.649999999999991
  0
LWPOLYLINE
  5
77
100
AcDbEntity
  8
INTERIOR_PROFILES
  6
ByLayer
 62
  256
370
   -1
100
AcDbPolyline
 90
    4
 70
    1
 43
0
 10
196.6119467105924
 20
9.000000000000341
 10
196.6119467105927
 20
5.999999999999943
 42
0.9999999999999999
 10
199.9119467105924
 20
5.999999999999943
 10
199.9119467105927
 20
8.999999999999773
 42
0.9999999999999999
  0
CIRCLE
  5
78
100
AcDbEntity
  8
INTERIOR_PROFILES
  6
ByLayer
 62
  256
370
   -1
100
AcDbCircle
 10
597.5238934211673
 20
484.0000000000005
 40
1.649999999999991
  0
CIRCLE
  5
79
100
AcDbEntity
  8
INTERIOR_PROFILES
  6
ByLayer
 62
  256
370
   -1
100
AcDbCircle
 10
697.5238934211673
 20
484.0000000000028
 40
1.649999999999991
  0
CIRCLE
  5
7A
100
AcDbEntity
  8
INTERIOR_PROFILES
  6
ByLayer
 62
  256
370
   -1
100
AcDbCircle
 10
647.023893421167
 20
46.00000000000165
 40
1.65
  0
CIRCLE
  5
7B
100
AcDbEntity
  8
INTERIOR_PROFILES
  6
ByLayer
 62
  256
370
   -1
100
AcDbCircle
 10
665.523893421167
 20
784
 40
1.650000000000063
  0
CIRCLE
  5
7C
100
AcDbEntity
  8
INTERIOR_PROFILES
  6
ByLayer
 62
  256
370
   -1
100
AcDbCircle
 10
697.023893421167
 20
46.00000000000279
 40
1.65
  0
CIRCLE
  5
7D
100
AcDbEntity
  8
INTERIOR_PROFILES
  6
ByLayer
 62
  256
370
   -1
100
AcDbCircle
 10
615.5238934211671
 20
784
 40
1.650000000000063
  0
LWPOLYLINE
  5
7E
100
AcDbEntity
  8
INTERIOR_PROFILES
  6
ByLayer
 62
  256
370
   -1
100
AcDbPolyline
 90
    8
 70
    1
 43
0
 10
718.6447262552908
 20
772.3063684931213
 10
598.6447262552907
 20
772.3063684931213
 10
588.6447262552907
 20
762.3063684931213
 10
588.6447262552908
 20
662.3063684931213
 10
598.6447262552908
 20
652.3063684931213
 10
718.6447262552908
 20
652.3063684931213
 10
728.6447262552908
 20
662.3063684931213
 10
728.6447262552908
 20
762.3063684931213
  0
CIRCLE
  5
7F
100
AcDbEntity
  8
INTERIOR_PROFILES
  6
ByLayer
 62
  256
370
   -1
100
AcDbCircle
 10
109.5000000000002
 20
46.00000000000165
 40
1.65
  0
CIRCLE
  5
80
100
AcDbEntity
  8
INTERIOR_PROFILES
  6
ByLayer
 62
  256
370
   -1
100
AcDbCircle
 10
159.5000000000001
 20
46.00000000000051
 40
1.65
  0
LWPOLYLINE
  5
81
100
AcDbEntity
  8
INTERIOR_PROFILES
  6
ByLayer
 62
  256
370
   -1
100
AcDbPolyline
 90
    4
 70
    1
 43
0
 10
556.6119467105848
 20
9.000000000000057
 42
-0.9999999999999999
 10
559.9119467105845
 20
9.000000000000341
 10
559.9119467105847
 20
5.999999999999943
 42
-0.9999999999999999
 10
556.6119467105846
 20
5.999999999999943
  0
CIRCLE
  5
82
100
AcDbEntity
  8
INTERIOR_PROFILES
  6
ByLayer
 62
  256
370
   -1
100
AcDbCircle
 10
58.99999999999977
 20
484.0000000000028
 40
1.649999999999991
  0
CIRCLE
  5
83
100
AcDbEntity
  8
INTERIOR_PROFILES
  6
ByLayer
 62
  256
370
   -1
100
AcDbCircle
 10
464.2619467105854
 20
522.5000000000001
 40
1.649999999999991
  0
CIRCLE
  5
84
100
AcDbEntity
  8
INTERIOR_PROFILES
  6
ByLayer
 62
  256
370
   -1
100
AcDbCircle
 10
458.2619467105848
 20
32.5
 40
1.650000000000063
  0
CIRCLE
  5
85
100
AcDbEntity
  8
INTERIOR_PROFILES
  6
ByLayer
 62
  256
370
   -1
100
AcDbCircle
 10
364.2619467105856
 20
497.5000000000001
 40
1.649999999999991
  0
CIRCLE
  5
86
100
AcDbEntity
  8
INTERIOR_PROFILES
  6
ByLayer
 62
  256
370
   -1
100
AcDbCircle
 10
192.2619467105846
 20
497.5000000000001
 40
1.649999999999991
  0
LWPOLYLINE
  5
87
100
AcDbEntity
  8
INTERIOR_PROFILES
  6
ByLayer
 62
  256
370
   -1
100
AcDbPolyline
 90
    4
 70
    1
 43
0
 10
199.9119467105926
 20
781.0000000000001
 10
199.9119467105927
 20
784
 42
0.9999999999999999
 10
196.6119467105924
 20
784
 10
196.6119467105925
 20
781.0000000000001
 42
0.9999999999999999
  0
CIRCLE
  5
88
100
AcDbEntity
  8
INTERIOR_PROFILES
  6
ByLayer
 62
  256
370
   -1
100
AcDbCircle
 10
464.2619467105856
 20
497.5000000000001
 40
1.649999999999991
  0
CIRCLE
  5
89
100
AcDbEntity
  8
INTERIOR_PROFILES
  6
ByLayer
 62
  256
370
   -1
100
AcDbCircle
 10
388.2619467105846
 20
522.5000000000001
 40
1.649999999999991
  0
CIRCLE
  5
8A
100
AcDbEntity
  8
INTERIOR_PROFILES
  6
ByLayer
 62
  256
370
   -1
100
AcDbCircle
 10
91.00000000000001
 20
5.999999999999943
 40
1.65
  0
CIRCLE
  5
8B
100
AcDbEntity
  8
INTERIOR_PROFILES
  6
ByLayer
 62
  256
370
   -1
100
AcDbCircle
 10
41.00000000000001
 20
5.999999999999943
 40
1.65
  0
CIRCLE
  5
8C
100
AcDbEntity
  8
INTERIOR_PROFILES
  6
ByLayer
 62
  256
370
   -1
100
AcDbCircle
 10
59.5000000000001
 20
46.00000000000279
 40
1.65
  0
CIRCLE
  5
8D
100
AcDbEntity
  8
INTERIOR_PROFILES
  6
ByLayer
 62
  256
370
   -1
100
AcDbCircle
 10
198.2619467105925
 20
32.5
 40
1.650000000000063
  0
CIRCLE
  5
8E
100
AcDbEntity
  8
INTERIOR_PROFILES
  6
ByLayer
 62
  256
370
   -1
100
AcDbCircle
 10
558.2619467105847
 20
32.5
 40
1.650000000000063
  0
CIRCLE
  5
8F
100
AcDbEntity
  8
INTERIOR_PROFILES
  6
ByLayer
 62
  256
370
   -1
100
AcDbCircle
 10
264.2619467105855
 20
497.5000000000001
 40
1.649999999999991
  0
CIRCLE
  5
90
100
AcDbEntity
  8
INTERIOR_PROFILES
  6
ByLayer
 62
  256
370
   -1
100
AcDbCircle
 10
298.2619467105926
 20
32.5
 40
1.550000000000011
  0
CIRCLE
  5
91
100
AcDbEntity
  8
INTERIOR_PROFILES
  6
ByLayer
 62
  256
370
   -1
100
AcDbCircle
 10
192.2619467105846
 20
522.5000000000001
 40
1.649999999999991
  0
CIRCLE
  5
92
100
AcDbEntity
  8
INTERIOR_PROFILES
  6
ByLayer
 62
  256
370
   -1
100
AcDbCircle
 10
141
 20
5.999999999999943
 40
1.65
  0
CIRCLE
  5
93
100
AcDbEntity
  8
INTERIOR_PROFILES
  6
ByLayer
 62
  256
370
   -1
100
AcDbCircle
 10
564.2619467105856
 20
497.5000000000001
 40
1.649999999999991
  0
CIRCLE
  5
94
100
AcDbEntity
  8
INTERIOR_PROFILES
  6
ByLayer
 62
  256
370
   -1
100
AcDbCircle
 10
564.2619467105856
 20
522.5000000000001
 40
1.649999999999991
  0
CIRCLE
  5
95
100
AcDbEntity
  8
INTERIOR_PROFILES
  6
ByLayer
 62
  256
370
   -1
100
AcDbCircle
 10
680.6611683882834
 20
591.1189894945209
 40
2.999999999999972
  0
CIRCLE
  5
96
100
AcDbEntity
  8
INTERIOR_PROFILES
  6
ByLayer
 62
  256
370
   -1
100
AcDbCircle
 10
34.64099999999995
 20
265.0000000000041
 40
1.649999999999991
  0
CIRCLE
  5
97
100
AcDbEntity
  8
INTERIOR_PROFILES
  6
ByLayer
 62
  256
370
   -1
100
AcDbCircle
 10
91.00000000000001
 20
784
 40
1.650000000000063
  0
CIRCLE
  5
98
100
AcDbEntity
  8
INTERIOR_PROFILES
  6
ByLayer
 62
  256
370
   -1
100
AcDbCircle
 10
721.8828934211692
 20
55.00000000000398
 40
1.649999999999991
  0
CIRCLE
  5
99
100
AcDbEntity
  8
INTERIOR_PROFILES
  6
ByLayer
 62
  256
370
   -1
100
AcDbCircle
 10
34.64099999999995
 20
405.0000000000041
 40
1.649999999999991
  0
CIRCLE
  5
9A
100
AcDbEntity
  8
INTERIOR_PROFILES
  6
ByLayer
 62
  256
370
   -1
100
AcDbCircle
 10
141
 20
784
 40
1.650000000000063
  0
CIRCLE
  5
9B
100
AcDbEntity
  8
INTERIOR_PROFILES
  6
ByLayer
 62
  256
370
   -1
100
AcDbCircle
 10
34.64099999999995
 20
55.00000000000398
 40
1.649999999999991
  0
CIRCLE
  5
9C
100
AcDbEntity
  8
INTERIOR_PROFILES
  6
ByLayer
 62
  256
370
   -1
100
AcDbCircle
 10
34.64099999999995
 20
195.0000000000041
 40
1.649999999999991
  0
CIRCLE
  5
9D
100
AcDbEntity
  8
INTERIOR_PROFILES
  6
ByLayer
 62
  256
370
   -1
100
AcDbCircle
 10
721.8828934211692
 20
405.0000000000041
 40
1.649999999999991
  0
CIRCLE
  5
9E
100
AcDbEntity
  8
INTERIOR_PROFILES
  6
ByLayer
 62
  256
370
   -1
100
AcDbCircle
 10
721.8828934211692
 20
335.0000000000041
 40
1.649999999999991
  0
CIRCLE
  5
9F
100
AcDbEntity
  8
INTERIOR_PROFILES
  6
ByLayer
 62
  256
370
   -1
100
AcDbCircle
 10
34.64099999999995
 20
475.0000000000041
 40
1.649999999999991
  0
CIRCLE
  5
A0
100
AcDbEntity
  8
INTERIOR_PROFILES
  6
ByLayer
 62
  256
370
   -1
100
AcDbCircle
 10
34.64099999999995
 20
125.000000000004
 40
1.649999999999991
  0
CIRCLE
  5
A1
100
AcDbEntity
  8
INTERIOR_PROFILES
  6
ByLayer
 62
  256
370
   -1
100
AcDbCircle
 10
721.8828934211692
 20
125.000000000004
 40
1.649999999999991
  0
CIRCLE
  5
A2
100
AcDbEntity
  8
INTERIOR_PROFILES
  6
ByLayer
 62
  256
370
   -1
100
AcDbCircle
 10
720.6611683882832
 20
571.118989494521
 40
2.999999999999972
  0
CIRCLE
  5
A3
100
AcDbEntity
  8
INTERIOR_PROFILES
  6
ByLayer
 62
  256
370
   -1
100
AcDbCircle
 10
730.6611683882832
 20
611.1189894945209
 40
2.999999999999972
  0
CIRCLE
  5
A4
100
AcDbEntity
  8
INTERIOR_PROFILES
  6
ByLayer
 62
  256
370
   -1
100
AcDbCircle
 10
720.6611683882832
 20
631.1189894945207
 40
2.999999999999972
  0
CIRCLE
  5
A5
100
AcDbEntity
  8
INTERIOR_PROFILES
  6
ByLayer
 62
  256
370
   -1
100
AcDbCircle
 10
721.8828934211692
 20
195.0000000000041
 40
1.649999999999991
  0
CIRCLE
  5
A6
100
AcDbEntity
  8
INTERIOR_PROFILES
  6
ByLayer
 62
  256
370
   -1
100
AcDbCircle
 10
34.64099999999995
 20
335.0000000000041
 40
1.649999999999991
  0
CIRCLE
  5
A7
100
AcDbEntity
  8
INTERIOR_PROFILES
  6
ByLayer
 62
  256
370
   -1
100
AcDbCircle
 10
721.8828934211692
 20
475.0000000000041
 40
1.649999999999991
  0
CIRCLE
  5
A8
100
AcDbEntity
  8
INTERIOR_PROFILES
  6
ByLayer
 62
  256
370
   -1
100
AcDbCircle
 10
720.6611683882832
 20
591.1189894945209
 40
2.999999999999972
  0
CIRCLE
  5
A9
100
AcDbEntity
  8
INTERIOR_PROFILES
  6
ByLayer
 62
  256
370
   -1
100
AcDbCircle
 10
720.6611683882832
 20
551.118989494521
 40
2.999999999999972
  0
CIRCLE
  5
AA
100
AcDbEntity
  8
INTERIOR_PROFILES
  6
ByLayer
 62
  256
370
   -1
100
AcDbCircle
 10
721.8828934211692
 20
265.0000000000041
 40
1.649999999999991
  0
CIRCLE
  5
AB
100
AcDbEntity
  8
INTERIOR_PROFILES
  6
ByLayer
 62
  256
370
   -1
100
AcDbCircle
 10
588.6447262552908
 20
652.3063684931213
 40
1.749999999999972
  0
CIRCLE
  5
AC
100
AcDbEntity
  8
INTERIOR_PROFILES
  6
ByLayer
 62
  256
370
   -1
100
AcDbCircle
 10
41.00000000000001
 20
784
 40
1.650000000000063
  0
CIRCLE
  5
AD
100
AcDbEntity
  8
INTERIOR_PROFILES
  6
ByLayer
 62
  256
370
   -1
100
AcDbCircle
 10
158.9999999999998
 20
484.0000000000005
 40
1.649999999999991
  0
CIRCLE
  5
AE
100
AcDbEntity
  8
INTERIOR_PROFILES
  6
ByLayer
 62
  256
370
   -1
100
AcDbCircle
 10
620.6611683882836
 20
611.1189894945209
 40
2.999999999999972
  0
CIRCLE
  5
AF
100
AcDbEntity
  8
INTERIOR_PROFILES
  6
ByLayer
 62
  256
370
   -1
100
AcDbCircle
 10
670.6611683882835
 20
621.1189894945209
 40
2.999999999999972
  0
CIRCLE
  5
B0
100
AcDbEntity
  8
INTERIOR_PROFILES
  6
ByLayer
 62
  256
370
   -1
100
AcDbCircle
 10
630.6611683882836
 20
611.1189894945209
 40
2.999999999999972
  0
CIRCLE
  5
B1
100
AcDbEntity
  8
INTERIOR_PROFILES
  6
ByLayer
 62
  256
370
   -1
100
AcDbCircle
 10
630.6611683882836
 20
631.1189894945207
 40
3.000000000000043
  0
CIRCLE
  5
B2
100
AcDbEntity
  8
INTERIOR_PROFILES
  6
ByLayer
 62
  256
370
   -1
100
AcDbCircle
 10
108.9999999999998
 20
484.0000000000016
 40
1.649999999999991
  0
CIRCLE
  5
B3
100
AcDbEntity
  8
INTERIOR_PROFILES
  6
ByLayer
 62
  256
370
   -1
100
AcDbCircle
 10
630.6611683882836
 20
621.1189894945209
 40
2.999999999999972
  0
CIRCLE
  5
B4
100
AcDbEntity
  8
INTERIOR_PROFILES
  6
ByLayer
 62
  256
370
   -1
100
AcDbCircle
 10
700.6611683882834
 20
621.1189894945209
 40
2.999999999999972
  0
CIRCLE
  5
B5
100
AcDbEntity
  8
INTERIOR_PROFILES
  6
ByLayer
 62
  256
370
   -1
100
AcDbCircle
 10
640.6611683882835
 20
551.118989494521
 40
2.999999999999972
  0
CIRCLE
  5
B6
100
AcDbEntity
  8
INTERIOR_PROFILES
  6
ByLayer
 62
  256
370
   -1
100
AcDbCircle
 10
650.6611683882835
 20
631.1189894945207
 40
2.999999999999972
  0
CIRCLE
  5
B7
100
AcDbEntity
  8
INTERIOR_PROFILES
  6
ByLayer
 62
  256
370
   -1
100
AcDbCircle
 10
710.6611683882832
 20
591.1189894945209
 40
2.999999999999972
  0
CIRCLE
  5
B8
100
AcDbEntity
  8
INTERIOR_PROFILES
  6
ByLayer
 62
  256
370
   -1
100
AcDbCircle
 10
710.6611683882832
 20
541.1189894945211
 40
3.000000000000043
  0
CIRCLE
  5
B9
100
AcDbEntity
  8
INTERIOR_PROFILES
  6
ByLayer
 62
  256
370
   -1
100
AcDbCircle
 10
690.6611683882834
 20
561.118989494521
 40
2.999999999999972
  0
CIRCLE
  5
BA
100
AcDbEntity
  8
INTERIOR_PROFILES
  6
ByLayer
 62
  256
370
   -1
100
AcDbCircle
 10
690.6611683882834
 20
621.1189894945209
 40
2.999999999999972
  0
CIRCLE
  5
BB
100
AcDbEntity
  8
INTERIOR_PROFILES
  6
ByLayer
 62
  256
370
   -1
100
AcDbCircle
 10
640.6611683882835
 20
601.1189894945209
 40
2.999999999999972
  0
CIRCLE
  5
BC
100
AcDbEntity
  8
INTERIOR_PROFILES
  6
ByLayer
 62
  256
370
   -1
100
AcDbCircle
 10
660.6611683882835
 20
571.118989494521
 40
2.999999999999972
  0
CIRCLE
  5
BD
100
AcDbEntity
  8
INTERIOR_PROFILES
  6
ByLayer
 62
  256
370
   -1
100
AcDbCircle
 10
680.6611683882835
 20
611.1189894945209
 40
2.999999999999972
  0
CIRCLE
  5
BE
100
AcDbEntity
  8
INTERIOR_PROFILES
  6
ByLayer
 62
  256
370
   -1
100
AcDbCircle
 10
680.6611683882834
 20
561.118989494521
 40
2.999999999999972
  0
CIRCLE
  5
BF
100
AcDbEntity
  8
INTERIOR_PROFILES
  6
ByLayer
 62
  256
370
   -1
100
AcDbCircle
 10
690.6611683882834
 20
571.118989494521
 40
2.999999999999972
  0
CIRCLE
  5
C0
100
AcDbEntity
  8
INTERIOR_PROFILES
  6
ByLayer
 62
  256
370
   -1
100
AcDbCircle
 10
640.6611683882835
 20
621.1189894945209
 40
2.999999999999972
  0
CIRCLE
  5
C1
100
AcDbEntity
  8
INTERIOR_PROFILES
  6
ByLayer
 62
  256
370
   -1
100
AcDbCircle
 10
700.6611683882834
 20
571.118989494521
 40
2.999999999999972
  0
CIRCLE
  5
C2
100
AcDbEntity
  8
INTERIOR_PROFILES
  6
ByLayer
 62
  256
370
   -1
100
AcDbCircle
 10
680.6611683882834
 20
571.118989494521
 40
2.999999999999972
  0
CIRCLE
  5
C3
100
AcDbEntity
  8
INTERIOR_PROFILES
  6
ByLayer
 62
  256
370
   -1
100
AcDbCircle
 10
710.6611683882832
 20
581.1189894945209
 40
3.000000000000043
  0
CIRCLE
  5
C4
100
AcDbEntity
  8
INTERIOR_PROFILES
  6
ByLayer
 62
  256
370
   -1
100
AcDbCircle
 10
670.6611683882835
 20
561.118989494521
 40
2.999999999999972
  0
CIRCLE
  5
C5
100
AcDbEntity
  8
INTERIOR_PROFILES
  6
ByLayer
 62
  256
370
   -1
100
AcDbCircle
 10
700.6611683882834
 20
541.1189894945211
 40
3.000000000000043
  0
CIRCLE
  5
C6
100
AcDbEntity
  8
INTERIOR_PROFILES
  6
ByLayer
 62
  256
370
   -1
100
AcDbCircle
 10
650.6611683882835
 20
581.1189894945209
 40
3.000000000000043
  0
CIRCLE
  5
C7
100
AcDbEntity
  8
INTERIOR_PROFILES
  6
ByLayer
 62
  256
370
   -1
100
AcDbCircle
 10
690.6611683882834
 20
591.1189894945209
 40
2.999999999999972
  0
CIRCLE
  5
C8
100
AcDbEntity
  8
INTERIOR_PROFILES
  6
ByLayer
 62
  256
370
   -1
100
AcDbCircle
 10
690.6611683882834
 20
611.1189894945209
 40
2.999999999999972
  0
CIRCLE
  5
C9
100
AcDbEntity
  8
INTERIOR_PROFILES
  6
ByLayer
 62
  256
370
   -1
100
AcDbCircle
 10
690.6611683882834
 20
631.1189894945207
 40
2.999999999999972
  0
CIRCLE
  5
CA
100
AcDbEntity
  8
INTERIOR_PROFILES
  6
ByLayer
 62
  256
370
   -1
100
AcDbCircle
 10
630.6611683882836
 20
581.1189894945209
 40
3.000000000000043
  0
CIRCLE
  5
CB
100
AcDbEntity
  8
INTERIOR_PROFILES
  6
ByLayer
 62
  256
370
   -1
100
AcDbCircle
 10
650.6611683882835
 20
601.1189894945209
 40
2.999999999999972
  0
CIRCLE
  5
CC
100
AcDbEntity
  8
INTERIOR_PROFILES
  6
ByLayer
 62
  256
370
   -1
100
AcDbCircle
 10
680.6611683882835
 20
631.1189894945207
 40
2.999999999999972
  0
CIRCLE
  5
CD
100
AcDbEntity
  8
INTERIOR_PROFILES
  6
ByLayer
 62
  256
370
   -1
100
AcDbCircle
 10
660.6611683882835
 20
591.1189894945209
 40
2.999999999999972
  0
CIRCLE
  5
CE
100
AcDbEntity
  8
INTERIOR_PROFILES
  6
ByLayer
 62
  256
370
   -1
100
AcDbCircle
 10
660.6611683882835
 20
611.1189894945209
 40
2.999999999999972
  0
CIRCLE
  5
CF
100
AcDbEntity
  8
INTERIOR_PROFILES
  6
ByLayer
 62
  256
370
   -1
100
AcDbCircle
 10
650.6611683882835
 20
611.1189894945209
 40
2.999999999999972
  0
CIRCLE
  5
D0
100
AcDbEntity
  8
INTERIOR_PROFILES
  6
ByLayer
 62
  256
370
   -1
100
AcDbCircle
 10
650.6611683882835
 20
561.118989494521
 40
2.999999999999972
  0
CIRCLE
  5
D1
100
AcDbEntity
  8
INTERIOR_PROFILES
  6
ByLayer
 62
  256
370
   -1
100
AcDbCircle
 10
640.6611683882835
 20
611.1189894945209
 40
2.999999999999972
  0
CIRCLE
  5
D2
100
AcDbEntity
  8
INTERIOR_PROFILES
  6
ByLayer
 62
  256
370
   -1
100
AcDbCircle
 10
700.6611683882834
 20
611.1189894945209
 40
2.999999999999972
  0
CIRCLE
  5
D3
100
AcDbEntity
  8
INTERIOR_PROFILES
  6
ByLayer
 62
  256
370
   -1
100
AcDbCircle
 10
620.6611683882836
 20
561.118989494521
 40
2.999999999999972
  0
CIRCLE
  5
D4
100
AcDbEntity
  8
INTERIOR_PROFILES
  6
ByLayer
 62
  256
370
   -1
100
AcDbCircle
 10
620.6611683882836
 20
601.1189894945209
 40
2.999999999999972
  0
CIRCLE
  5
D5
100
AcDbEntity
  8
INTERIOR_PROFILES
  6
ByLayer
 62
  256
370
   -1
100
AcDbCircle
 10
720.6611683882832
 20
621.1189894945209
 40
2.999999999999972
  0
CIRCLE
  5
D6
100
AcDbEntity
  8
INTERIOR_PROFILES
  6
ByLayer
 62
  256
370
   -1
100
AcDbCircle
 10
620.6611683882836
 20
571.118989494521
 40
2.999999999999972
  0
CIRCLE
  5
D7
100
AcDbEntity
  8
INTERIOR_PROFILES
  6
ByLayer
 62
  256
370
   -1
100
AcDbCircle
 10
720.6611683882832
 20
581.1189894945209
 40
3.000000000000043
  0
CIRCLE
  5
D8
100
AcDbEntity
  8
INTERIOR_PROFILES
  6
ByLayer
 62
  256
370
   -1
100
AcDbCircle
 10
670.6611683882835
 20
611.1189894945209
 40
2.999999999999972
  0
CIRCLE
  5
D9
100
AcDbEntity
  8
INTERIOR_PROFILES
  6
ByLayer
 62
  256
370
   -1
100
AcDbCircle
 10
710.6611683882834
 20
601.1189894945209
 40
2.999999999999972
  0
CIRCLE
  5
DA
100
AcDbEntity
  8
INTERIOR_PROFILES
  6
ByLayer
 62
  256
370
   -1
100
AcDbCircle
 10
730.6611683882832
 20
601.1189894945209
 40
2.999999999999972
  0
CIRCLE
  5
DB
100
AcDbEntity
  8
INTERIOR_PROFILES
  6
ByLayer
 62
  256
370
   -1
100
AcDbCircle
 10
680.6611683882835
 20
601.1189894945209
 40
2.999999999999972
  0
CIRCLE
  5
DC
100
AcDbEntity
  8
INTERIOR_PROFILES
  6
ByLayer
 62
  256
370
   -1
100
AcDbCircle
 10
620.6611683882836
 20
541.1189894945211
 40
3.000000000000043
  0
CIRCLE
  5
DD
100
AcDbEntity
  8
INTERIOR_PROFILES
  6
ByLayer
 62
  256
370
   -1
100
AcDbCircle
 10
660.6611683882835
 20
581.1189894945209
 40
3.000000000000043
  0
CIRCLE
  5
DE
100
AcDbEntity
  8
INTERIOR_PROFILES
  6
ByLayer
 62
  256
370
   -1
100
AcDbCircle
 10
660.6611683882835
 20
551.118989494521
 40
2.999999999999972
  0
CIRCLE
  5
DF
100
AcDbEntity
  8
INTERIOR_PROFILES
  6
ByLayer
 62
  256
370
   -1
100
AcDbCircle
 10
730.6611683882832
 20
621.1189894945207
 40
3.000000000000043
  0
CIRCLE
  5
E0
100
AcDbEntity
  8
INTERIOR_PROFILES
  6
ByLayer
 62
  256
370
   -1
100
AcDbCircle
 10
620.6611683882836
 20
581.1189894945209
 40
3.000000000000043
  0
CIRCLE
  5
E1
100
AcDbEntity
  8
INTERIOR_PROFILES
  6
ByLayer
 62
  256
370
   -1
100
AcDbCircle
 10
730.6611683882832
 20
551.118989494521
 40
2.999999999999972
  0
CIRCLE
  5
E2
100
AcDbEntity
  8
INTERIOR_PROFILES
  6
ByLayer
 62
  256
370
   -1
100
AcDbCircle
 10
728.6447262552908
 20
772.3063684931213
 40
1.749999999999972
  0
CIRCLE
  5
E3
100
AcDbEntity
  8
INTERIOR_PROFILES
  6
ByLayer
 62
  256
370
   -1
100
AcDbCircle
 10
730.6611683882832
 20
561.118989494521
 40
2.999999999999972
  0
CIRCLE
  5
E4
100
AcDbEntity
  8
INTERIOR_PROFILES
  6
ByLayer
 62
  256
370
   -1
100
AcDbCircle
 10
670.6611683882835
 20
581.1189894945209
 40
3.000000000000043
  0
CIRCLE
  5
E5
100
AcDbEntity
  8
INTERIOR_PROFILES
  6
ByLayer
 62
  256
370
   -1
100
AcDbCircle
 10
710.6611683882832
 20
551.118989494521
 40
2.999999999999972
  0
CIRCLE
  5
E6
100
AcDbEntity
  8
INTERIOR_PROFILES
  6
ByLayer
 62
  256
370
   -1
100
AcDbCircle
 10
630.6611683882836
 20
561.118989494521
 40
2.999999999999972
  0
CIRCLE
  5
E7
100
AcDbEntity
  8
INTERIOR_PROFILES
  6
ByLayer
 62
  256
370
   -1
100
AcDbCircle
 10
700.6611683882834
 20
581.1189894945209
 40
3.000000000000043
  0
CIRCLE
  5
E8
100
AcDbEntity
  8
INTERIOR_PROFILES
  6
ByLayer
 62
  256
370
   -1
100
AcDbCircle
 10
670.6611683882835
 20
631.1189894945207
 40
2.999999999999972
  0
CIRCLE
  5
E9
100
AcDbEntity
  8
INTERIOR_PROFILES
  6
ByLayer
 62
  256
370
   -1
100
AcDbCircle
 10
720.6611683882832
 20
541.1189894945211
 40
3.000000000000043
  0
CIRCLE
  5
EA
100
AcDbEntity
  8
INTERIOR_PROFILES
  6
ByLayer
 62
  256
370
   -1
100
AcDbCircle
 10
630.6611683882836
 20
601.1189894945209
 40
2.999999999999972
  0
CIRCLE
  5
EB
100
AcDbEntity
  8
INTERIOR_PROFILES
  6
ByLayer
 62
  256
370
   -1
100
AcDbCircle
 10
630.6611683882836
 20
591.1189894945209
 40
2.999999999999972
  0
CIRCLE
  5
EC
100
AcDbEntity
  8
INTERIOR_PROFILES
  6
ByLayer
 62
  256
370
   -1
100
AcDbCircle
 10
730.6611683882832
 20
631.1189894945207
 40
2.999999999999972
  0
CIRCLE
  5
ED
100
AcDbEntity
  8
INTERIOR_PROFILES
  6
ByLayer
 62
  256
370
   -1
100
AcDbCircle
 10
620.6611683882836
 20
591.1189894945209
 40
2.999999999999972
  0
CIRCLE
  5
EE
100
AcDbEntity
  8
INTERIOR_PROFILES
  6
ByLayer
 62
  256
370
   -1
100
AcDbCircle
 10
640.6611683882835
 20
541.1189894945211
 40
3.000000000000043
  0
CIRCLE
  5
EF
100
AcDbEntity
  8
INTERIOR_PROFILES
  6
ByLayer
 62
  256
370
   -1
100
AcDbCircle
 10
730.6611683882832
 20
591.1189894945209
 40
2.999999999999972
  0
CIRCLE
  5
F0
100
AcDbEntity
  8
INTERIOR_PROFILES
  6
ByLayer
 62
  256
370
   -1
100
AcDbCircle
 10
620.6611683882836
 20
631.1189894945207
 40
3.000000000000043
  0
CIRCLE
  5
F1
100
AcDbEntity
  8
INTERIOR_PROFILES
  6
ByLayer
 62
  256
370
   -1
100
AcDbCircle
 10
720.6611683882832
 20
611.1189894945209
 40
2.999999999999972
  0
CIRCLE
  5
F2
100
AcDbEntity
  8
INTERIOR_PROFILES
  6
ByLayer
 62
  256
370
   -1
100
AcDbCircle
 10
728.6447262552908
 20
652.3063684931213
 40
1.749999999999972
  0
CIRCLE
  5
F3
100
AcDbEntity
  8
INTERIOR_PROFILES
  6
ByLayer
 62
  256
370
   -1
100
AcDbCircle
 10
700.6611683882834
 20
631.1189894945207
 40
2.999999999999972
  0
CIRCLE
  5
F4
100
AcDbEntity
  8
INTERIOR_PROFILES
  6
ByLayer
 62
  256
370
   -1
100
AcDbCircle
 10
660.6611683882835
 20
601.1189894945209
 40
2.999999999999972
  0
CIRCLE
  5
F5
100
AcDbEntity
  8
INTERIOR_PROFILES
  6
ByLayer
 62
  256
370
   -1
100
AcDbCircle
 10
650.6611683882835
 20
591.1189894945209
 40
2.999999999999972
  0
CIRCLE
  5
F6
100
AcDbEntity
  8
INTERIOR_PROFILES
  6
ByLayer
 62
  256
370
   -1
100
AcDbCircle
 10
680.6611683882834
 20
551.118989494521
 40
2.999999999999972
  0
CIRCLE
  5
F7
100
AcDbEntity
  8
INTERIOR_PROFILES
  6
ByLayer
 62
  256
370
   -1
100
AcDbCircle
 10
700.6611683882834
 20
591.1189894945209
 40
2.999999999999972
  0
CIRCLE
  5
F8
100
AcDbEntity
  8
INTERIOR_PROFILES
  6
ByLayer
 62
  256
370
   -1
100
AcDbCircle
 10
630.6611683882836
 20
571.118989494521
 40
2.999999999999972
  0
CIRCLE
  5
F9
100
AcDbEntity
  8
INTERIOR_PROFILES
  6
ByLayer
 62
  256
370
   -1
100
AcDbCircle
 10
710.6611683882832
 20
571.118989494521
 40
2.999999999999972
  0
CIRCLE
  5
FA
100
AcDbEntity
  8
INTERIOR_PROFILES
  6
ByLayer
 62
  256
370
   -1
100
AcDbCircle
 10
680.6611683882834
 20
581.1189894945209
 40
3.000000000000043
  0
CIRCLE
  5
FB
100
AcDbEntity
  8
INTERIOR_PROFILES
  6
ByLayer
 62
  256
370
   -1
100
AcDbCircle
 10
650.6611683882835
 20
571.118989494521
 40
2.999999999999972
  0
CIRCLE
  5
FC
100
AcDbEntity
  8
INTERIOR_PROFILES
  6
ByLayer
 62
  256
370
   -1
100
AcDbCircle
 10
630.6611683882836
 20
551.118989494521
 40
2.999999999999972
  0
CIRCLE
  5
FD
100
AcDbEntity
  8
INTERIOR_PROFILES
  6
ByLayer
 62
  256
370
   -1
100
AcDbCircle
 10
640.6611683882835
 20
561.118989494521
 40
2.999999999999972
  0
CIRCLE
  5
FE
100
AcDbEntity
  8
INTERIOR_PROFILES
  6
ByLayer
 62
  256
370
   -1
100
AcDbCircle
 10
690.6611683882834
 20
581.1189894945209
 40
3.000000000000043
  0
CIRCLE
  5
FF
100
AcDbEntity
  8
INTERIOR_PROFILES
  6
ByLayer
 62
  256
370
   -1
100
AcDbCircle
 10
700.6611683882834
 20
601.1189894945209
 40
2.999999999999972
  0
CIRCLE
  5
100
100
AcDbEntity
  8
INTERIOR_PROFILES
  6
ByLayer
 62
  256
370
   -1
100
AcDbCircle
 10
640.6611683882835
 20
631.1189894945207
 40
3.000000000000043
  0
CIRCLE
  5
101
100
AcDbEntity
  8
INTERIOR_PROFILES
  6
ByLayer
 62
  256
370
   -1
100
AcDbCircle
 10
690.6611683882834
 20
601.1189894945209
 40
2.999999999999972
  0
CIRCLE
  5
102
100
AcDbEntity
  8
INTERIOR_PROFILES
  6
ByLayer
 62
  256
370
   -1
100
AcDbCircle
 10
700.6611683882834
 20
551.118989494521
 40
2.999999999999972
  0
CIRCLE
  5
103
100
AcDbEntity
  8
INTERIOR_PROFILES
  6
ByLayer
 62
  256
370
   -1
100
AcDbCircle
 10
650.6611683882835
 20
551.118989494521
 40
2.999999999999972
  0
CIRCLE
  5
104
100
AcDbEntity
  8
INTERIOR_PROFILES
  6
ByLayer
 62
  256
370
   -1
100
AcDbCircle
 10
700.6611683882834
 20
561.118989494521
 40
2.999999999999972
  0
CIRCLE
  5
105
100
AcDbEntity
  8
INTERIOR_PROFILES
  6
ByLayer
 62
  256
370
   -1
100
AcDbCircle
 10
650.6611683882835
 20
621.1189894945209
 40
2.999999999999972
  0
CIRCLE
  5
106
100
AcDbEntity
  8
INTERIOR_PROFILES
  6
ByLayer
 62
  256
370
   -1
100
AcDbCircle
 10
650.6611683882835
 20
541.1189894945211
 40
3.000000000000043
  0
CIRCLE
  5
107
100
AcDbEntity
  8
INTERIOR_PROFILES
  6
ByLayer
 62
  256
370
   -1
100
AcDbCircle
 10
640.6611683882835
 20
571.118989494521
 40
2.999999999999972
  0
CIRCLE
  5
108
100
AcDbEntity
  8
INTERIOR_PROFILES
  6
ByLayer
 62
  256
370
   -1
100
AcDbCircle
 10
670.6611683882835
 20
551.118989494521
 40
2.999999999999972
  0
CIRCLE
  5
109
100
AcDbEntity
  8
INTERIOR_PROFILES
  6
ByLayer
 62
  256
370
   -1
100
AcDbCircle
 10
710.6611683882834
 20
621.1189894945209
 40
2.999999999999972
  0
CIRCLE
  5
10A
100
AcDbEntity
  8
INTERIOR_PROFILES
  6
ByLayer
 62
  256
370
   -1
100
AcDbCircle
 10
660.6611683882835
 20
541.1189894945211
 40
3.000000000000043
  0
CIRCLE
  5
10B
100
AcDbEntity
  8
INTERIOR_PROFILES
  6
ByLayer
 62
  256
370
   -1
100
AcDbCircle
 10
690.6611683882834
 20
551.118989494521
 40
2.999999999999972
  0
CIRCLE
  5
10C
100
AcDbEntity
  8
INTERIOR_PROFILES
  6
ByLayer
 62
  256
370
   -1
100
AcDbCircle
 10
640.6611683882835
 20
581.1189894945209
 40
3.000000000000043
  0
CIRCLE
  5
10D
100
AcDbEntity
  8
INTERIOR_PROFILES
  6
ByLayer
 62
  256
370
   -1
100
AcDbCircle
 10
710.6611683882832
 20
561.118989494521
 40
2.999999999999972
  0
CIRCLE
  5
10E
100
AcDbEntity
  8
INTERIOR_PROFILES
  6
ByLayer
 62
  256
370
   -1
100
AcDbCircle
 10
680.6611683882835
 20
621.1189894945209
 40
2.999999999999972
  0
CIRCLE
  5
10F
100
AcDbEntity
  8
INTERIOR_PROFILES
  6
ByLayer
 62
  256
370
   -1
100
AcDbCircle
 10
660.6611683882835
 20
621.1189894945209
 40
2.999999999999972
  0
CIRCLE
  5
110
100
AcDbEntity
  8
INTERIOR_PROFILES
  6
ByLayer
 62
  256
370
   -1
100
AcDbCircle
 10
710.6611683882834
 20
611.1189894945209
 40
2.999999999999972
  0
CIRCLE
  5
111
100
AcDbEntity
  8
INTERIOR_PROFILES
  6
ByLayer
 62
  256
370
   -1
100
AcDbCircle
 10
690.6611683882834
 20
541.1189894945211
 40
3.000000000000043
  0
CIRCLE
  5
112
100
AcDbEntity
  8
INTERIOR_PROFILES
  6
ByLayer
 62
  256
370
   -1
100
AcDbCircle
 10
680.6611683882834
 20
541.1189894945211
 40
3.000000000000043
  0
CIRCLE
  5
113
100
AcDbEntity
  8
INTERIOR_PROFILES
  6
ByLayer
 62
  256
370
   -1
100
AcDbCircle
 10
588.6447262552907
 20
772.3063684931213
 40
1.749999999999972
  0
CIRCLE
  5
114
100
AcDbEntity
  8
INTERIOR_PROFILES
  6
ByLayer
 62
  256
370
   -1
100
AcDbCircle
 10
730.6611683882832
 20
581.1189894945209
 40
2.999999999999972
  0
CIRCLE
  5
115
100
AcDbEntity
  8
INTERIOR_PROFILES
  6
ByLayer
 62
  256
370
   -1
100
AcDbCircle
 10
730.6611683882832
 20
571.1189894945209
 40
3.000000000000043
  0
CIRCLE
  5
116
100
AcDbEntity
  8
INTERIOR_PROFILES
  6
ByLayer
 62
  256
370
   -1
100
AcDbCircle
 10
710.6611683882834
 20
631.1189894945207
 40
2.999999999999972
  0
CIRCLE
  5
117
100
AcDbEntity
  8
INTERIOR_PROFILES
  6
ByLayer
 62
  256
370
   -1
100
AcDbCircle
 10
720.6611683882832
 20
601.1189894945209
 40
2.999999999999972
  0
CIRCLE
  5
118
100
AcDbEntity
  8
INTERIOR_PROFILES
  6
ByLayer
 62
  256
370
   -1
100
AcDbCircle
 10
670.6611683882835
 20
541.1189894945211
 40
3.000000000000043
  0
CIRCLE
  5
119
100
AcDbEntity
  8
INTERIOR_PROFILES
  6
ByLayer
 62
  256
370
   -1
100
AcDbCircle
 10
660.6611683882835
 20
561.118989494521
 40
2.999999999999972
  0
CIRCLE
  5
11A
100
AcDbEntity
  8
INTERIOR_PROFILES
  6
ByLayer
 62
  256
370
   -1
100
AcDbCircle
 10
630.6611683882836
 20
541.1189894945211
 40
3.000000000000043
  0
CIRCLE
  5
11B
100
AcDbEntity
  8
INTERIOR_PROFILES
  6
ByLayer
 62
  256
370
   -1
100
AcDbCircle
 10
660.6611683882835
 20
631.1189894945207
 40
2.999999999999972
  0
CIRCLE
  5
11C
100
AcDbEntity
  8
INTERIOR_PROFILES
  6
ByLayer
 62
  256
370
   -1
100
AcDbCircle
 10
720.6611683882832
 20
561.118989494521
 40
2.999999999999972
  0
CIRCLE
  5
11D
100
AcDbEntity
  8
INTERIOR_PROFILES
  6
ByLayer
 62
  256
370
   -1
100
AcDbCircle
 10
640.6611683882835
 20
591.1189894945209
 40
2.999999999999972
  0
CIRCLE
  5
11E
100
AcDbEntity
  8
INTERIOR_PROFILES
  6
ByLayer
 62
  256
370
   -1
100
AcDbCircle
 10
620.6611683882836
 20
551.118989494521
 40
2.999999999999972
  0
CIRCLE
  5
11F
100
AcDbEntity
  8
INTERIOR_PROFILES
  6
ByLayer
 62
  256
370
   -1
100
AcDbCircle
 10
620.6611683882836
 20
621.1189894945209
 40
2.999999999999972
  0
CIRCLE
  5
120
100
AcDbEntity
  8
INTERIOR_PROFILES
  6
ByLayer
 62
  256
370
   -1
100
AcDbCircle
 10
670.6611683882835
 20
591.1189894945209
 40
2.999999999999972
  0
CIRCLE
  5
121
100
AcDbEntity
  8
INTERIOR_PROFILES
  6
ByLayer
 62
  256
370
   -1
100
AcDbCircle
 10
730.6611683882832
 20
541.118989494521
 40
2.999999999999972
  0
CIRCLE
  5
122
100
AcDbEntity
  8
INTERIOR_PROFILES
  6
ByLayer
 62
  256
370
   -1
100
AcDbCircle
 10
670.6611683882835
 20
601.1189894945209
 40
2.999999999999972
  0
CIRCLE
  5
123
100
AcDbEntity
  8
INTERIOR_PROFILES
  6
ByLayer
 62
  256
370
   -1
100
AcDbCircle
 10
670.6611683882835
 20
571.118989494521
 40
2.999999999999972
  0
ENDSEC
  0
SECTION
  2
OBJECTS
  0
DICTIONARY
  5
C
330
0
100
AcDbDictionary
281
    1
  3
ACAD_GROUP
350
D
  0
DICTIONARY
  5
D
330
C
100
AcDbDictionary
281
    1
  0
ENDSEC
  0
EOF
