  0
SECTION
  2
HEADER
  9
$ACADVER
  1
AC1014
  9
$HANDSEED
  5
FFFF
  9
$MEASUREMENT
 70
     1
  0
ENDSEC
  0
SECTION
  2
TABLES
  0
TABLE
  2
VPORT
  5
8
330
0
100
AcDbSymbolTable
 70
     4
  0
VPORT
  5
2E
330
8
100
AcDbSymbolTableRecord
100
AcDbViewportTableRecord
  2
*ACTIVE
 70
     0
 10
0.0
 20
0.0
 11
1.0
 21
1.0
 12
210.0
 22
148.5
 13
0.0
 23
0.0
 14
10.0
 24
10.0
 15
10.0
 25
10.0
 16
0.0
 26
0.0
 36
1.0
 17
0.0
 27
0.0
 37
0.0
 40
341.0
 41
1.24
 42
50.0
 43
0.0
 44
0.0
 50
0.0
 51
0.0
 71
     0
 72
   100
 73
     1
 74
     3
 75
     0
 76
     0
 77
     0
 78
     0
  0
ENDTAB
  0
TABLE
  2
LTYPE
  5
5
330
0
100
AcDbSymbolTable
 70
     1
  0
LTYPE
  5
14
330
5
100
AcDbSymbolTableRecord
100
AcDbLinetypeTableRecord
  2
BYBLOCK
 70
     0
  3

 72
    65
 73
     0
 40
0.0
  0
LTYPE
  5
15
330
5
100
AcDbSymbolTableRecord
100
AcDbLinetypeTableRecord
  2
BYLAYER
 70
     0
  3

 72
    65
 73
     0
 40
0.0
  0
LTYPE
  5
16
330
5
100
AcDbSymbolTableRecord
100
AcDbLinetypeTableRecord
  2
CONTINUOUS
 70
     0
  3
Solid line
 72
    65
 73
     0
 40
0.0
  0
ENDTAB
  0
TABLE
  2
LAYER
  5
2
100
AcDbSymbolTable
 70
2
  0
LAYER
  5
50
100
AcDbSymbolTableRecord
100
AcDbLayerTableRecord
  2
0
 70
0
  6
CONTINUOUS
  0
LAYER
  5
51
100
AcDbSymbolTableRecord
100
AcDbLayerTableRecord
  2
Layer_1
 70
0
  6
CONTINUOUS
  0
ENDTAB
  0
TABLE
  2
STYLE
  5
3
330
0
100
AcDbSymbolTable
 70
     1
  0
STYLE
  5
11
330
3
100
AcDbSymbolTableRecord
100
AcDbTextStyleTableRecord
  2
STANDARD
 70
     0
 40
0.0
 41
1.0
 50
0.0
 71
     0
 42
2.5
  3
txt
  4

  0
ENDTAB
  0
TABLE
  2
VIEW
  5
6
330
0
100
AcDbSymbolTable
 70
     0
  0
ENDTAB
  0
TABLE
  2
UCS
  5
7
330
0
100
AcDbSymbolTable
 70
     0
  0
ENDTAB
  0
TABLE
  2
APPID
  5
9
330
0
100
AcDbSymbolTable
 70
     2
  0
APPID
  5
12
330
9
100
AcDbSymbolTableRecord
100
AcDbRegAppTableRecord
  2
ACAD
 70
     0
  0
ENDTAB
  0
TABLE
  2
DIMSTYLE
  5
A
330
0
100
AcDbSymbolTable
 70
     1
  0
DIMSTYLE
105
27
330
A
100
AcDbSymbolTableRecord
100
AcDbDimStyleTableRecord
  2
ISO-25
 70
     0
  3

  4

  5

  6

  7

 40
1.0
 41
2.5
 42
0.625
 43
3.75
 44
1.25
 45
0.0
 46
0.0
 47
0.0
 48
0.0
140
2.5
141
2.5
142
0.0
143
0.03937007874016
144
1.0
145
0.0
146
1.0
147
0.625
 71
     0
 72
     0
 73
     0
 74
     0
 75
     0
 76
     0
 77
     1
 78
     8
170
     0
171
     3
172
     1
173
     0
174
     0
175
     0
176
     0
177
     0
178
     0
270
     2
271
     2
272
     2
273
     2
274
     3
340
11
275
     0
280
     0
281
     0
282
     0
283
     0
284
     8
285
     0
286
     0
287
     3
288
     0
  0
ENDTAB
  0
TABLE
  2
BLOCK_RECORD
  5
1
330
0
100
AcDbSymbolTable
 70
     1
  0
BLOCK_RECORD
  5
1F
330
1
100
AcDbSymbolTableRecord
100
AcDbBlockTableRecord
  2
*MODEL_SPACE
  0
BLOCK_RECORD
  5
1B
330
1
100
AcDbSymbolTableRecord
100
AcDbBlockTableRecord
  2
*PAPER_SPACE
  0
ENDTAB
  0
ENDSEC
  0
SECTION
  2
BLOCKS
  0
BLOCK
  5
20
330
1F
100
AcDbEntity
  8
0
100
AcDbBlockBegin
  2
*MODEL_SPACE
 70
     0
 10
0.0
 20
0.0
 30
0.0
  3
*MODEL_SPACE
  1

  0
ENDBLK
  5
21
330
1F
100
AcDbEntity
  8
0
100
AcDbBlockEnd
  0
BLOCK
  5
1C
330
1B
100
AcDbEntity
 67
     1
  8
0
100
AcDbBlockBegin
  2
*PAPER_SPACE
  1

  0
ENDBLK
  5
1D
330
1B
100
AcDbEntity
 67
     1
  8
0
100
AcDbBlockEnd
  0
ENDSEC
  0
SECTION
  2
ENTITIES
  0
LINE
  5
100
100
AcDbEntity
  8
Layer_1
 62
7
100
AcDbLine
 10
454.337400
 20
513.219950
 30
0.0
 11
454.337400
 21
536.972360
 31
0.0
  0
SPLINE
  5
101
100
AcDbEntity
  8
Layer_1
 62
7
100
AcDbSpline
 70
8
 71
3
 72
8
 73
4
 74
0
 40
0
 40
0
 40
0
 40
0
 40
1
 40
1
 40
1
 40
1
 10
454.336890
 20
536.972490
 30
0.0
 10
454.336890
 20
538.298570
 30
0.0
 10
453.810110
 20
539.570350
 30
0.0
 10
452.872430
 20
540.508030
 30
0.0
  0
LINE
  5
102
100
AcDbEntity
  8
Layer_1
 62
7
100
AcDbLine
 10
452.871610
 20
540.507980
 30
0.0
 11
445.801940
 21
547.578970
 31
0.0
  0
SPLINE
  5
103
100
AcDbEntity
  8
Layer_1
 62
7
100
AcDbSpline
 70
8
 71
3
 72
8
 73
4
 74
0
 40
0
 40
0
 40
0
 40
0
 40
1
 40
1
 40
1
 40
1
 10
445.801360
 20
547.579060
 30
0.0
 10
444.863670
 20
548.516730
 30
0.0
 10
444.336890
 20
549.788530
 30
0.0
 10
444.336890
 20
551.114600
 30
0.0
  0
LINE
  5
104
100
AcDbEntity
  8
Layer_1
 62
7
100
AcDbLine
 10
444.336150
 20
551.115660
 30
0.0
 11
444.336150
 21
569.043820
 31
0.0
  0
LINE
  5
105
100
AcDbEntity
  8
Layer_1
 62
7
100
AcDbLine
 10
444.336150
 20
569.043820
 30
0.0
 11
-312.186970
 21
569.043820
 31
0.0
  0
LINE
  5
106
100
AcDbEntity
  8
Layer_1
 62
7
100
AcDbLine
 10
-312.186970
 20
569.043820
 30
0.0
 11
-312.186970
 21
551.115660
 31
0.0
  0
SPLINE
  5
107
100
AcDbEntity
  8
Layer_1
 62
7
100
AcDbSpline
 70
8
 71
3
 72
8
 73
4
 74
0
 40
0
 40
0
 40
0
 40
0
 40
1
 40
1
 40
1
 40
1
 10
-312.186040
 20
551.114600
 30
0.0
 10
-312.186020
 20
549.788530
 30
0.0
 10
-312.712800
 20
548.516760
 30
0.0
 10
-313.650480
 20
547.579060
 30
0.0
  0
LINE
  5
108
100
AcDbEntity
  8
Layer_1
 62
7
100
AcDbLine
 10
-313.650110
 20
547.578970
 30
0.0
 11
-320.722430
 21
540.507980
 31
0.0
  0
SPLINE
  5
109
100
AcDbEntity
  8
Layer_1
 62
7
100
AcDbSpline
 70
8
 71
3
 72
8
 73
4
 74
0
 40
0
 40
0
 40
0
 40
0
 40
1
 40
1
 40
1
 40
1
 10
-320.721550
 20
540.508030
 30
0.0
 10
-321.659240
 20
539.570350
 30
0.0
 10
-322.186020
 20
538.298570
 30
0.0
 10
-322.186020
 20
536.972490
 30
0.0
  0
LINE
  5
10a
100
AcDbEntity
  8
Layer_1
 62
7
100
AcDbLine
 10
-322.185570
 20
536.972360
 30
0.0
 11
-322.185570
 21
513.219950
 31
0.0
  0
SPLINE
  5
10b
100
AcDbEntity
  8
Layer_1
 62
7
100
AcDbSpline
 70
8
 71
3
 72
8
 73
4
 74
0
 40
0
 40
0
 40
0
 40
0
 40
1
 40
1
 40
1
 40
1
 10
404.986940
 20
563.043520
 30
0.0
 10
404.989940
 20
563.634020
 30
0.0
 10
404.674310
 20
564.180310
 30
0.0
 10
404.163190
 20
564.475980
 30
0.0
  0
SPLINE
  5
10c
100
AcDbEntity
  8
Layer_1
 62
7
100
AcDbSpline
 70
8
 71
3
 72
8
 73
4
 74
0
 40
0
 40
0
 40
0
 40
0
 40
1
 40
1
 40
1
 40
1
 10
404.163190
 20
564.475980
 30
0.0
 10
403.652040
 20
564.771680
 30
0.0
 10
403.021880
 20
564.771680
 30
0.0
 10
402.510740
 20
564.475980
 30
0.0
  0
SPLINE
  5
10d
100
AcDbEntity
  8
Layer_1
 62
7
100
AcDbSpline
 70
8
 71
3
 72
8
 73
4
 74
0
 40
0
 40
0
 40
0
 40
0
 40
1
 40
1
 40
1
 40
1
 10
402.510740
 20
564.475980
 30
0.0
 10
401.999610
 20
564.180310
 30
0.0
 10
401.685450
 20
563.634020
 30
0.0
 10
401.686960
 20
563.043520
 30
0.0
  0
SPLINE
  5
10e
100
AcDbEntity
  8
Layer_1
 62
7
100
AcDbSpline
 70
8
 71
3
 72
8
 73
4
 74
0
 40
0
 40
0
 40
0
 40
0
 40
1
 40
1
 40
1
 40
1
 10
401.686960
 20
563.043520
 30
0.0
 10
401.683960
 20
562.453030
 30
0.0
 10
401.999610
 20
561.906740
 30
0.0
 10
402.510740
 20
561.611040
 30
0.0
  0
SPLINE
  5
10f
100
AcDbEntity
  8
Layer_1
 62
7
100
AcDbSpline
 70
8
 71
3
 72
8
 73
4
 74
0
 40
0
 40
0
 40
0
 40
0
 40
1
 40
1
 40
1
 40
1
 10
402.510740
 20
561.611040
 30
0.0
 10
403.021880
 20
561.315370
 30
0.0
 10
403.652040
 20
561.315370
 30
0.0
 10
404.163190
 20
561.611040
 30
0.0
  0
SPLINE
  5
110
100
AcDbEntity
  8
Layer_1
 62
7
100
AcDbSpline
 70
8
 71
3
 72
8
 73
4
 74
0
 40
0
 40
0
 40
0
 40
0
 40
1
 40
1
 40
1
 40
1
 10
404.163190
 20
561.611040
 30
0.0
 10
404.674310
 20
561.906740
 30
0.0
 10
404.988450
 20
562.453030
 30
0.0
 10
404.986940
 20
563.043520
 30
0.0
  0
LINE
  5
111
100
AcDbEntity
  8
Layer_1
 62
7
100
AcDbLine
 10
404.987310
 20
563.043070
 30
0.0
 11
404.987310
 21
563.043070
 31
0.0
  0
LINE
  5
112
100
AcDbEntity
  8
Layer_1
 62
7
100
AcDbLine
 10
147.725270
 20
563.043070
 30
0.0
 11
147.725270
 21
560.042700
 31
0.0
  0
SPLINE
  5
113
100
AcDbEntity
  8
Layer_1
 62
7
100
AcDbSpline
 70
8
 71
3
 72
8
 73
4
 74
0
 40
0
 40
0
 40
0
 40
0
 40
1
 40
1
 40
1
 40
1
 10
147.725340
 20
560.043520
 30
0.0
 10
147.725340
 20
559.454030
 30
0.0
 10
147.410850
 20
558.909300
 30
0.0
 10
146.900330
 20
558.614560
 30
0.0
  0
SPLINE
  5
114
100
AcDbEntity
  8
Layer_1
 62
7
100
AcDbSpline
 70
8
 71
3
 72
8
 73
4
 74
0
 40
0
 40
0
 40
0
 40
0
 40
1
 40
1
 40
1
 40
1
 10
146.900330
 20
558.614560
 30
0.0
 10
146.389820
 20
558.319810
 30
0.0
 10
145.760840
 20
558.319810
 30
0.0
 10
145.250330
 20
558.614560
 30
0.0
  0
SPLINE
  5
115
100
AcDbEntity
  8
Layer_1
 62
7
100
AcDbSpline
 70
8
 71
3
 72
8
 73
4
 74
0
 40
0
 40
0
 40
0
 40
0
 40
1
 40
1
 40
1
 40
1
 10
145.250330
 20
558.614560
 30
0.0
 10
144.739820
 20
558.909300
 30
0.0
 10
144.425330
 20
559.454030
 30
0.0
 10
144.425330
 20
560.043520
 30
0.0
  0
LINE
  5
116
100
AcDbEntity
  8
Layer_1
 62
7
100
AcDbLine
 10
144.425390
 20
560.042700
 30
0.0
 11
144.425390
 21
563.043070
 31
0.0
  0
SPLINE
  5
117
100
AcDbEntity
  8
Layer_1
 62
7
100
AcDbSpline
 70
8
 71
3
 72
8
 73
4
 74
0
 40
0
 40
0
 40
0
 40
0
 40
1
 40
1
 40
1
 40
1
 10
144.425330
 20
563.043520
 30
0.0
 10
144.425330
 20
563.633020
 30
0.0
 10
144.739820
 20
564.177710
 30
0.0
 10
145.250330
 20
564.472460
 30
0.0
  0
SPLINE
  5
118
100
AcDbEntity
  8
Layer_1
 62
7
100
AcDbSpline
 70
8
 71
3
 72
8
 73
4
 74
0
 40
0
 40
0
 40
0
 40
0
 40
1
 40
1
 40
1
 40
1
 10
145.250330
 20
564.472460
 30
0.0
 10
145.760840
 20
564.767200
 30
0.0
 10
146.389820
 20
564.767200
 30
0.0
 10
146.900330
 20
564.472460
 30
0.0
  0
SPLINE
  5
119
100
AcDbEntity
  8
Layer_1
 62
7
100
AcDbSpline
 70
8
 71
3
 72
8
 73
4
 74
0
 40
0
 40
0
 40
0
 40
0
 40
1
 40
1
 40
1
 40
1
 10
146.900330
 20
564.472460
 30
0.0
 10
147.410850
 20
564.177710
 30
0.0
 10
147.725340
 20
563.633020
 30
0.0
 10
147.725340
 20
563.043520
 30
0.0
  0
LINE
  5
11a
100
AcDbEntity
  8
Layer_1
 62
7
100
AcDbLine
 10
147.725270
 20
563.043070
 30
0.0
 11
147.725270
 21
563.043070
 31
0.0
  0
SPLINE
  5
11b
100
AcDbEntity
  8
Layer_1
 62
7
100
AcDbSpline
 70
8
 71
3
 72
8
 73
4
 74
0
 40
0
 40
0
 40
0
 40
0
 40
1
 40
1
 40
1
 40
1
 10
304.987070
 20
563.043520
 30
0.0
 10
304.990070
 20
563.634020
 30
0.0
 10
304.674430
 20
564.180310
 30
0.0
 10
304.163290
 20
564.475980
 30
0.0
  0
SPLINE
  5
11c
100
AcDbEntity
  8
Layer_1
 62
7
100
AcDbSpline
 70
8
 71
3
 72
8
 73
4
 74
0
 40
0
 40
0
 40
0
 40
0
 40
1
 40
1
 40
1
 40
1
 10
304.163290
 20
564.475980
 30
0.0
 10
303.652160
 20
564.771680
 30
0.0
 10
303.021980
 20
564.771680
 30
0.0
 10
302.510860
 20
564.475980
 30
0.0
  0
SPLINE
  5
11d
100
AcDbEntity
  8
Layer_1
 62
7
100
AcDbSpline
 70
8
 71
3
 72
8
 73
4
 74
0
 40
0
 40
0
 40
0
 40
0
 40
1
 40
1
 40
1
 40
1
 10
302.510860
 20
564.475980
 30
0.0
 10
301.999740
 20
564.180310
 30
0.0
 10
301.685570
 20
563.634020
 30
0.0
 10
301.687080
 20
563.043520
 30
0.0
  0
SPLINE
  5
11e
100
AcDbEntity
  8
Layer_1
 62
7
100
AcDbSpline
 70
8
 71
3
 72
8
 73
4
 74
0
 40
0
 40
0
 40
0
 40
0
 40
1
 40
1
 40
1
 40
1
 10
301.687080
 20
563.043520
 30
0.0
 10
301.684080
 20
562.453030
 30
0.0
 10
301.999740
 20
561.906740
 30
0.0
 10
302.510860
 20
561.611040
 30
0.0
  0
SPLINE
  5
11f
100
AcDbEntity
  8
Layer_1
 62
7
100
AcDbSpline
 70
8
 71
3
 72
8
 73
4
 74
0
 40
0
 40
0
 40
0
 40
0
 40
1
 40
1
 40
1
 40
1
 10
302.510860
 20
561.611040
 30
0.0
 10
303.021980
 20
561.315370
 30
0.0
 10
303.652160
 20
561.315370
 30
0.0
 10
304.163290
 20
561.611040
 30
0.0
  0
SPLINE
  5
120
100
AcDbEntity
  8
Layer_1
 62
7
100
AcDbSpline
 70
8
 71
3
 72
8
 73
4
 74
0
 40
0
 40
0
 40
0
 40
0
 40
1
 40
1
 40
1
 40
1
 10
304.163290
 20
561.611040
 30
0.0
 10
304.674430
 20
561.906740
 30
0.0
 10
304.988570
 20
562.453030
 30
0.0
 10
304.987070
 20
563.043520
 30
0.0
  0
LINE
  5
121
100
AcDbEntity
  8
Layer_1
 62
7
100
AcDbLine
 10
304.988050
 20
563.043070
 30
0.0
 11
304.988050
 21
563.043070
 31
0.0
  0
SPLINE
  5
122
100
AcDbEntity
  8
Layer_1
 62
7
100
AcDbSpline
 70
8
 71
3
 72
8
 73
4
 74
0
 40
0
 40
0
 40
0
 40
0
 40
1
 40
1
 40
1
 40
1
 10
336.487060
 20
523.043570
 30
0.0
 10
336.487060
 20
523.633060
 30
0.0
 10
336.172550
 20
524.177770
 30
0.0
 10
335.662040
 20
524.472520
 30
0.0
  0
SPLINE
  5
123
100
AcDbEntity
  8
Layer_1
 62
7
100
AcDbSpline
 70
8
 71
3
 72
8
 73
4
 74
0
 40
0
 40
0
 40
0
 40
0
 40
1
 40
1
 40
1
 40
1
 10
335.662040
 20
524.472520
 30
0.0
 10
335.151520
 20
524.767260
 30
0.0
 10
334.522560
 20
524.767260
 30
0.0
 10
334.012040
 20
524.472520
 30
0.0
  0
SPLINE
  5
124
100
AcDbEntity
  8
Layer_1
 62
7
100
AcDbSpline
 70
8
 71
3
 72
8
 73
4
 74
0
 40
0
 40
0
 40
0
 40
0
 40
1
 40
1
 40
1
 40
1
 10
334.012040
 20
524.472520
 30
0.0
 10
333.501530
 20
524.177770
 30
0.0
 10
333.187050
 20
523.633060
 30
0.0
 10
333.187050
 20
523.043570
 30
0.0
  0
SPLINE
  5
125
100
AcDbEntity
  8
Layer_1
 62
7
100
AcDbSpline
 70
8
 71
3
 72
8
 73
4
 74
0
 40
0
 40
0
 40
0
 40
0
 40
1
 40
1
 40
1
 40
1
 10
333.187050
 20
523.043570
 30
0.0
 10
333.187050
 20
522.454080
 30
0.0
 10
333.501530
 20
521.909370
 30
0.0
 10
334.012040
 20
521.614620
 30
0.0
  0
SPLINE
  5
126
100
AcDbEntity
  8
Layer_1
 62
7
100
AcDbSpline
 70
8
 71
3
 72
8
 73
4
 74
0
 40
0
 40
0
 40
0
 40
0
 40
1
 40
1
 40
1
 40
1
 10
334.012040
 20
521.614620
 30
0.0
 10
334.522560
 20
521.319880
 30
0.0
 10
335.151520
 20
521.319880
 30
0.0
 10
335.662040
 20
521.614620
 30
0.0
  0
SPLINE
  5
127
100
AcDbEntity
  8
Layer_1
 62
7
100
AcDbSpline
 70
8
 71
3
 72
8
 73
4
 74
0
 40
0
 40
0
 40
0
 40
0
 40
1
 40
1
 40
1
 40
1
 10
335.662040
 20
521.614620
 30
0.0
 10
336.172550
 20
521.909370
 30
0.0
 10
336.487060
 20
522.454080
 30
0.0
 10
336.487060
 20
523.043570
 30
0.0
  0
LINE
  5
128
100
AcDbEntity
  8
Layer_1
 62
7
100
AcDbLine
 10
336.486690
 20
523.043630
 30
0.0
 11
336.486690
 21
523.043630
 31
0.0
  0
SPLINE
  5
129
100
AcDbEntity
  8
Layer_1
 62
7
100
AcDbSpline
 70
8
 71
3
 72
8
 73
4
 74
0
 40
0
 40
0
 40
0
 40
0
 40
1
 40
1
 40
1
 40
1
 10
354.987020
 20
563.043520
 30
0.0
 10
354.990020
 20
563.634020
 30
0.0
 10
354.674360
 20
564.180310
 30
0.0
 10
354.163240
 20
564.475980
 30
0.0
  0
SPLINE
  5
12a
100
AcDbEntity
  8
Layer_1
 62
7
100
AcDbSpline
 70
8
 71
3
 72
8
 73
4
 74
0
 40
0
 40
0
 40
0
 40
0
 40
1
 40
1
 40
1
 40
1
 10
354.163240
 20
564.475980
 30
0.0
 10
353.652120
 20
564.771680
 30
0.0
 10
353.021930
 20
564.771680
 30
0.0
 10
352.510810
 20
564.475980
 30
0.0
  0
SPLINE
  5
12b
100
AcDbEntity
  8
Layer_1
 62
7
100
AcDbSpline
 70
8
 71
3
 72
8
 73
4
 74
0
 40
0
 40
0
 40
0
 40
0
 40
1
 40
1
 40
1
 40
1
 10
352.510810
 20
564.475980
 30
0.0
 10
351.999660
 20
564.180310
 30
0.0
 10
351.685520
 20
563.634020
 30
0.0
 10
351.687030
 20
563.043520
 30
0.0
  0
SPLINE
  5
12c
100
AcDbEntity
  8
Layer_1
 62
7
100
AcDbSpline
 70
8
 71
3
 72
8
 73
4
 74
0
 40
0
 40
0
 40
0
 40
0
 40
1
 40
1
 40
1
 40
1
 10
351.687030
 20
563.043520
 30
0.0
 10
351.684030
 20
562.453030
 30
0.0
 10
351.999660
 20
561.906740
 30
0.0
 10
352.510810
 20
561.611040
 30
0.0
  0
SPLINE
  5
12d
100
AcDbEntity
  8
Layer_1
 62
7
100
AcDbSpline
 70
8
 71
3
 72
8
 73
4
 74
0
 40
0
 40
0
 40
0
 40
0
 40
1
 40
1
 40
1
 40
1
 10
352.510810
 20
561.611040
 30
0.0
 10
353.021930
 20
561.315370
 30
0.0
 10
353.652120
 20
561.315370
 30
0.0
 10
354.163240
 20
561.611040
 30
0.0
  0
SPLINE
  5
12e
100
AcDbEntity
  8
Layer_1
 62
7
100
AcDbSpline
 70
8
 71
3
 72
8
 73
4
 74
0
 40
0
 40
0
 40
0
 40
0
 40
1
 40
1
 40
1
 40
1
 10
354.163240
 20
561.611040
 30
0.0
 10
354.674360
 20
561.906740
 30
0.0
 10
354.988530
 20
562.453030
 30
0.0
 10
354.987020
 20
563.043520
 30
0.0
  0
LINE
  5
12f
100
AcDbEntity
  8
Layer_1
 62
7
100
AcDbLine
 10
354.986360
 20
563.043070
 30
0.0
 11
354.986360
 21
563.043070
 31
0.0
  0
LINE
  5
130
100
AcDbEntity
  8
Layer_1
 62
7
100
AcDbLine
 10
-12.274461
 20
563.043070
 30
0.0
 11
-12.274461
 21
560.042700
 31
0.0
  0
SPLINE
  5
131
100
AcDbEntity
  8
Layer_1
 62
7
100
AcDbSpline
 70
8
 71
3
 72
8
 73
4
 74
0
 40
0
 40
0
 40
0
 40
0
 40
1
 40
1
 40
1
 40
1
 10
-12.274457
 20
560.043520
 30
0.0
 10
-12.274457
 20
559.454030
 30
0.0
 10
-12.588946
 20
558.909300
 30
0.0
 10
-13.099460
 20
558.614560
 30
0.0
  0
SPLINE
  5
132
100
AcDbEntity
  8
Layer_1
 62
7
100
AcDbSpline
 70
8
 71
3
 72
8
 73
4
 74
0
 40
0
 40
0
 40
0
 40
0
 40
1
 40
1
 40
1
 40
1
 10
-13.099460
 20
558.614560
 30
0.0
 10
-13.609973
 20
558.319810
 30
0.0
 10
-14.238952
 20
558.319810
 30
0.0
 10
-14.749465
 20
558.614560
 30
0.0
  0
SPLINE
  5
133
100
AcDbEntity
  8
Layer_1
 62
7
100
AcDbSpline
 70
8
 71
3
 72
8
 73
4
 74
0
 40
0
 40
0
 40
0
 40
0
 40
1
 40
1
 40
1
 40
1
 10
-14.749465
 20
558.614560
 30
0.0
 10
-15.259979
 20
558.909300
 30
0.0
 10
-15.574468
 20
559.454030
 30
0.0
 10
-15.574468
 20
560.043520
 30
0.0
  0
LINE
  5
134
100
AcDbEntity
  8
Layer_1
 62
7
100
AcDbLine
 10
-15.574476
 20
560.042700
 30
0.0
 11
-15.574476
 21
563.043070
 31
0.0
  0
SPLINE
  5
135
100
AcDbEntity
  8
Layer_1
 62
7
100
AcDbSpline
 70
8
 71
3
 72
8
 73
4
 74
0
 40
0
 40
0
 40
0
 40
0
 40
1
 40
1
 40
1
 40
1
 10
-15.574468
 20
563.043520
 30
0.0
 10
-15.574468
 20
563.633020
 30
0.0
 10
-15.259979
 20
564.177710
 30
0.0
 10
-14.749465
 20
564.472460
 30
0.0
  0
SPLINE
  5
136
100
AcDbEntity
  8
Layer_1
 62
7
100
AcDbSpline
 70
8
 71
3
 72
8
 73
4
 74
0
 40
0
 40
0
 40
0
 40
0
 40
1
 40
1
 40
1
 40
1
 10
-14.749465
 20
564.472460
 30
0.0
 10
-14.238952
 20
564.767200
 30
0.0
 10
-13.609973
 20
564.767200
 30
0.0
 10
-13.099460
 20
564.472460
 30
0.0
  0
SPLINE
  5
137
100
AcDbEntity
  8
Layer_1
 62
7
100
AcDbSpline
 70
8
 71
3
 72
8
 73
4
 74
0
 40
0
 40
0
 40
0
 40
0
 40
1
 40
1
 40
1
 40
1
 10
-13.099460
 20
564.472460
 30
0.0
 10
-12.588946
 20
564.177710
 30
0.0
 10
-12.274457
 20
563.633020
 30
0.0
 10
-12.274457
 20
563.043520
 30
0.0
  0
LINE
  5
138
100
AcDbEntity
  8
Layer_1
 62
7
100
AcDbLine
 10
-12.274461
 20
563.043070
 30
0.0
 11
-12.274461
 21
563.043070
 31
0.0
  0
SPLINE
  5
139
100
AcDbEntity
  8
Layer_1
 62
7
100
AcDbSpline
 70
8
 71
3
 72
8
 73
4
 74
0
 40
0
 40
0
 40
0
 40
0
 40
1
 40
1
 40
1
 40
1
 10
286.487110
 20
523.043570
 30
0.0
 10
286.487110
 20
523.633060
 30
0.0
 10
286.172630
 20
524.177770
 30
0.0
 10
285.662110
 20
524.472520
 30
0.0
  0
SPLINE
  5
13a
100
AcDbEntity
  8
Layer_1
 62
7
100
AcDbSpline
 70
8
 71
3
 72
8
 73
4
 74
0
 40
0
 40
0
 40
0
 40
0
 40
1
 40
1
 40
1
 40
1
 10
285.662110
 20
524.472520
 30
0.0
 10
285.151600
 20
524.767260
 30
0.0
 10
284.522600
 20
524.767260
 30
0.0
 10
284.012090
 20
524.472520
 30
0.0
  0
SPLINE
  5
13b
100
AcDbEntity
  8
Layer_1
 62
7
100
AcDbSpline
 70
8
 71
3
 72
8
 73
4
 74
0
 40
0
 40
0
 40
0
 40
0
 40
1
 40
1
 40
1
 40
1
 10
284.012090
 20
524.472520
 30
0.0
 10
283.501580
 20
524.177770
 30
0.0
 10
283.187090
 20
523.633060
 30
0.0
 10
283.187090
 20
523.043570
 30
0.0
  0
SPLINE
  5
13c
100
AcDbEntity
  8
Layer_1
 62
7
100
AcDbSpline
 70
8
 71
3
 72
8
 73
4
 74
0
 40
0
 40
0
 40
0
 40
0
 40
1
 40
1
 40
1
 40
1
 10
283.187090
 20
523.043570
 30
0.0
 10
283.187090
 20
522.454080
 30
0.0
 10
283.501580
 20
521.909370
 30
0.0
 10
284.012090
 20
521.614620
 30
0.0
  0
SPLINE
  5
13d
100
AcDbEntity
  8
Layer_1
 62
7
100
AcDbSpline
 70
8
 71
3
 72
8
 73
4
 74
0
 40
0
 40
0
 40
0
 40
0
 40
1
 40
1
 40
1
 40
1
 10
284.012090
 20
521.614620
 30
0.0
 10
284.522600
 20
521.319880
 30
0.0
 10
285.151600
 20
521.319880
 30
0.0
 10
285.662110
 20
521.614620
 30
0.0
  0
SPLINE
  5
13e
100
AcDbEntity
  8
Layer_1
 62
7
100
AcDbSpline
 70
8
 71
3
 72
8
 73
4
 74
0
 40
0
 40
0
 40
0
 40
0
 40
1
 40
1
 40
1
 40
1
 10
285.662110
 20
521.614620
 30
0.0
 10
286.172630
 20
521.909370
 30
0.0
 10
286.487110
 20
522.454080
 30
0.0
 10
286.487110
 20
523.043570
 30
0.0
  0
LINE
  5
13f
100
AcDbEntity
  8
Layer_1
 62
7
100
AcDbLine
 10
286.488380
 20
523.043630
 30
0.0
 11
286.488380
 21
523.043630
 31
0.0
  0
SPLINE
  5
140
100
AcDbEntity
  8
Layer_1
 62
7
100
AcDbSpline
 70
8
 71
3
 72
8
 73
4
 74
0
 40
0
 40
0
 40
0
 40
0
 40
1
 40
1
 40
1
 40
1
 10
386.486960
 20
523.043570
 30
0.0
 10
386.489960
 20
523.634060
 30
0.0
 10
386.174330
 20
524.180350
 30
0.0
 10
385.663180
 20
524.476030
 30
0.0
  0
SPLINE
  5
141
100
AcDbEntity
  8
Layer_1
 62
7
100
AcDbSpline
 70
8
 71
3
 72
8
 73
4
 74
0
 40
0
 40
0
 40
0
 40
0
 40
1
 40
1
 40
1
 40
1
 10
385.663180
 20
524.476030
 30
0.0
 10
385.152060
 20
524.771720
 30
0.0
 10
384.521870
 20
524.771720
 30
0.0
 10
384.010750
 20
524.476030
 30
0.0
  0
SPLINE
  5
142
100
AcDbEntity
  8
Layer_1
 62
7
100
AcDbSpline
 70
8
 71
3
 72
8
 73
4
 74
0
 40
0
 40
0
 40
0
 40
0
 40
1
 40
1
 40
1
 40
1
 10
384.010750
 20
524.476030
 30
0.0
 10
383.499630
 20
524.180350
 30
0.0
 10
383.185460
 20
523.634060
 30
0.0
 10
383.186970
 20
523.043570
 30
0.0
  0
SPLINE
  5
143
100
AcDbEntity
  8
Layer_1
 62
7
100
AcDbSpline
 70
8
 71
3
 72
8
 73
4
 74
0
 40
0
 40
0
 40
0
 40
0
 40
1
 40
1
 40
1
 40
1
 10
383.186970
 20
523.043570
 30
0.0
 10
383.183970
 20
522.453080
 30
0.0
 10
383.499630
 20
521.906790
 30
0.0
 10
384.010750
 20
521.611110
 30
0.0
  0
SPLINE
  5
144
100
AcDbEntity
  8
Layer_1
 62
7
100
AcDbSpline
 70
8
 71
3
 72
8
 73
4
 74
0
 40
0
 40
0
 40
0
 40
0
 40
1
 40
1
 40
1
 40
1
 10
384.010750
 20
521.611110
 30
0.0
 10
384.521870
 20
521.315420
 30
0.0
 10
385.152060
 20
521.315420
 30
0.0
 10
385.663180
 20
521.611110
 30
0.0
  0
SPLINE
  5
145
100
AcDbEntity
  8
Layer_1
 62
7
100
AcDbSpline
 70
8
 71
3
 72
8
 73
4
 74
0
 40
0
 40
0
 40
0
 40
0
 40
1
 40
1
 40
1
 40
1
 10
385.663180
 20
521.611110
 30
0.0
 10
386.174330
 20
521.906790
 30
0.0
 10
386.488470
 20
522.453080
 30
0.0
 10
386.486960
 20
523.043570
 30
0.0
  0
LINE
  5
146
100
AcDbEntity
  8
Layer_1
 62
7
100
AcDbLine
 10
386.487650
 20
523.043630
 30
0.0
 11
386.487650
 21
523.043630
 31
0.0
  0
SPLINE
  5
147
100
AcDbEntity
  8
Layer_1
 62
7
100
AcDbSpline
 70
8
 71
3
 72
8
 73
4
 74
0
 40
0
 40
0
 40
0
 40
0
 40
1
 40
1
 40
1
 40
1
 10
-112.274340
 20
563.043520
 30
0.0
 10
-112.274600
 20
563.954540
 30
0.0
 10
-113.013330
 20
564.692860
 30
0.0
 10
-113.924340
 20
564.692860
 30
0.0
  0
SPLINE
  5
148
100
AcDbEntity
  8
Layer_1
 62
7
100
AcDbSpline
 70
8
 71
3
 72
8
 73
4
 74
0
 40
0
 40
0
 40
0
 40
0
 40
1
 40
1
 40
1
 40
1
 10
-113.924340
 20
564.692860
 30
0.0
 10
-114.835350
 20
564.692860
 30
0.0
 10
-115.573970
 20
563.954540
 30
0.0
 10
-115.574330
 20
563.043520
 30
0.0
  0
LINE
  5
149
100
AcDbEntity
  8
Layer_1
 62
7
100
AcDbLine
 10
-115.574300
 20
563.043070
 30
0.0
 11
-115.574300
 21
560.042700
 31
0.0
  0
SPLINE
  5
14a
100
AcDbEntity
  8
Layer_1
 62
7
100
AcDbSpline
 70
8
 71
3
 72
8
 73
4
 74
0
 40
0
 40
0
 40
0
 40
0
 40
1
 40
1
 40
1
 40
1
 10
-115.574330
 20
560.043520
 30
0.0
 10
-115.574070
 20
559.132510
 30
0.0
 10
-114.835350
 20
558.394190
 30
0.0
 10
-113.924340
 20
558.394190
 30
0.0
  0
SPLINE
  5
14b
100
AcDbEntity
  8
Layer_1
 62
7
100
AcDbSpline
 70
8
 71
3
 72
8
 73
4
 74
0
 40
0
 40
0
 40
0
 40
0
 40
1
 40
1
 40
1
 40
1
 10
-113.924340
 20
558.394190
 30
0.0
 10
-113.013330
 20
558.394190
 30
0.0
 10
-112.274700
 20
559.132510
 30
0.0
 10
-112.274340
 20
560.043520
 30
0.0
  0
LINE
  5
14c
100
AcDbEntity
  8
Layer_1
 62
7
100
AcDbLine
 10
-112.274420
 20
560.042700
 30
0.0
 11
-112.274420
 21
563.043070
 31
0.0
  0
LINE
  5
14d
100
AcDbEntity
  8
Layer_1
 62
7
100
AcDbLine
 10
244.424920
 20
560.042700
 30
0.0
 11
244.424920
 21
563.043070
 31
0.0
  0
SPLINE
  5
14e
100
AcDbEntity
  8
Layer_1
 62
7
100
AcDbSpline
 70
8
 71
3
 72
8
 73
4
 74
0
 40
0
 40
0
 40
0
 40
0
 40
1
 40
1
 40
1
 40
1
 10
244.425210
 20
563.043520
 30
0.0
 10
244.428210
 20
563.953130
 30
0.0
 10
245.165600
 20
564.689290
 30
0.0
 10
246.075210
 20
564.689290
 30
0.0
  0
SPLINE
  5
14f
100
AcDbEntity
  8
Layer_1
 62
7
100
AcDbSpline
 70
8
 71
3
 72
8
 73
4
 74
0
 40
0
 40
0
 40
0
 40
0
 40
1
 40
1
 40
1
 40
1
 10
246.075210
 20
564.689290
 30
0.0
 10
246.984820
 20
564.689290
 30
0.0
 10
247.722870
 20
563.953130
 30
0.0
 10
247.725200
 20
563.043520
 30
0.0
  0
LINE
  5
150
100
AcDbEntity
  8
Layer_1
 62
7
100
AcDbLine
 10
247.724280
 20
563.043070
 30
0.0
 11
247.724280
 21
560.042700
 31
0.0
  0
SPLINE
  5
151
100
AcDbEntity
  8
Layer_1
 62
7
100
AcDbSpline
 70
8
 71
3
 72
8
 73
4
 74
0
 40
0
 40
0
 40
0
 40
0
 40
1
 40
1
 40
1
 40
1
 10
247.725200
 20
560.043520
 30
0.0
 10
247.722200
 20
559.133910
 30
0.0
 10
246.984820
 20
558.397760
 30
0.0
 10
246.075210
 20
558.397760
 30
0.0
  0
SPLINE
  5
152
100
AcDbEntity
  8
Layer_1
 62
7
100
AcDbSpline
 70
8
 71
3
 72
8
 73
4
 74
0
 40
0
 40
0
 40
0
 40
0
 40
1
 40
1
 40
1
 40
1
 10
246.075210
 20
558.397760
 30
0.0
 10
245.165600
 20
558.397760
 30
0.0
 10
244.427540
 20
559.133910
 30
0.0
 10
244.425210
 20
560.043520
 30
0.0
  0
LINE
  5
153
100
AcDbEntity
  8
Layer_1
 62
7
100
AcDbLine
 10
244.424920
 20
560.042700
 30
0.0
 11
244.424920
 21
560.042700
 31
0.0
  0
SPLINE
  5
154
100
AcDbEntity
  8
Layer_1
 62
7
100
AcDbSpline
 70
8
 71
3
 72
8
 73
4
 74
0
 40
0
 40
0
 40
0
 40
0
 40
1
 40
1
 40
1
 40
1
 10
147.725340
 20
536.543550
 30
0.0
 10
147.725340
 20
537.133030
 30
0.0
 10
147.410850
 20
537.677750
 30
0.0
 10
146.900330
 20
537.972490
 30
0.0
  0
SPLINE
  5
155
100
AcDbEntity
  8
Layer_1
 62
7
100
AcDbSpline
 70
8
 71
3
 72
8
 73
4
 74
0
 40
0
 40
0
 40
0
 40
0
 40
1
 40
1
 40
1
 40
1
 10
146.900330
 20
537.972490
 30
0.0
 10
146.389820
 20
538.267240
 30
0.0
 10
145.760840
 20
538.267240
 30
0.0
 10
145.250330
 20
537.972490
 30
0.0
  0
SPLINE
  5
156
100
AcDbEntity
  8
Layer_1
 62
7
100
AcDbSpline
 70
8
 71
3
 72
8
 73
4
 74
0
 40
0
 40
0
 40
0
 40
0
 40
1
 40
1
 40
1
 40
1
 10
145.250330
 20
537.972490
 30
0.0
 10
144.739820
 20
537.677750
 30
0.0
 10
144.425330
 20
537.133030
 30
0.0
 10
144.425330
 20
536.543550
 30
0.0
  0
SPLINE
  5
157
100
AcDbEntity
  8
Layer_1
 62
7
100
AcDbSpline
 70
8
 71
3
 72
8
 73
4
 74
0
 40
0
 40
0
 40
0
 40
0
 40
1
 40
1
 40
1
 40
1
 10
144.425330
 20
536.543550
 30
0.0
 10
144.425330
 20
535.954060
 30
0.0
 10
144.739820
 20
535.409340
 30
0.0
 10
145.250330
 20
535.114600
 30
0.0
  0
SPLINE
  5
158
100
AcDbEntity
  8
Layer_1
 62
7
100
AcDbSpline
 70
8
 71
3
 72
8
 73
4
 74
0
 40
0
 40
0
 40
0
 40
0
 40
1
 40
1
 40
1
 40
1
 10
145.250330
 20
535.114600
 30
0.0
 10
145.760840
 20
534.819850
 30
0.0
 10
146.389820
 20
534.819850
 30
0.0
 10
146.900330
 20
535.114600
 30
0.0
  0
SPLINE
  5
159
100
AcDbEntity
  8
Layer_1
 62
7
100
AcDbSpline
 70
8
 71
3
 72
8
 73
4
 74
0
 40
0
 40
0
 40
0
 40
0
 40
1
 40
1
 40
1
 40
1
 10
146.900330
 20
535.114600
 30
0.0
 10
147.410850
 20
535.409340
 30
0.0
 10
147.725340
 20
535.954060
 30
0.0
 10
147.725340
 20
536.543550
 30
0.0
  0
LINE
  5
15a
100
AcDbEntity
  8
Layer_1
 62
7
100
AcDbLine
 10
147.725270
 20
536.543470
 30
0.0
 11
147.725270
 21
536.543470
 31
0.0
  0
SPLINE
  5
15b
100
AcDbEntity
  8
Layer_1
 62
7
100
AcDbSpline
 70
8
 71
3
 72
8
 73
4
 74
0
 40
0
 40
0
 40
0
 40
0
 40
1
 40
1
 40
1
 40
1
 10
-12.374469
 20
536.543550
 30
0.0
 10
-12.373069
 20
537.098220
 30
0.0
 10
-12.668220
 20
537.611350
 30
0.0
 10
-13.148354
 20
537.889080
 30
0.0
  0
SPLINE
  5
15c
100
AcDbEntity
  8
Layer_1
 62
7
100
AcDbSpline
 70
8
 71
3
 72
8
 73
4
 74
0
 40
0
 40
0
 40
0
 40
0
 40
1
 40
1
 40
1
 40
1
 10
-13.148354
 20
537.889080
 30
0.0
 10
-13.628489
 20
538.166820
 30
0.0
 10
-14.220436
 20
538.166820
 30
0.0
 10
-14.700570
 20
537.889080
 30
0.0
  0
SPLINE
  5
15d
100
AcDbEntity
  8
Layer_1
 62
7
100
AcDbSpline
 70
8
 71
3
 72
8
 73
4
 74
0
 40
0
 40
0
 40
0
 40
0
 40
1
 40
1
 40
1
 40
1
 10
-14.700570
 20
537.889080
 30
0.0
 10
-15.180705
 20
537.611350
 30
0.0
 10
-15.475831
 20
537.098220
 30
0.0
 10
-15.474456
 20
536.543550
 30
0.0
  0
SPLINE
  5
15e
100
AcDbEntity
  8
Layer_1
 62
7
100
AcDbSpline
 70
8
 71
3
 72
8
 73
4
 74
0
 40
0
 40
0
 40
0
 40
0
 40
1
 40
1
 40
1
 40
1
 10
-15.474456
 20
536.543550
 30
0.0
 10
-15.475856
 20
535.988870
 30
0.0
 10
-15.180705
 20
535.475740
 30
0.0
 10
-14.700570
 20
535.198010
 30
0.0
  0
SPLINE
  5
15f
100
AcDbEntity
  8
Layer_1
 62
7
100
AcDbSpline
 70
8
 71
3
 72
8
 73
4
 74
0
 40
0
 40
0
 40
0
 40
0
 40
1
 40
1
 40
1
 40
1
 10
-14.700570
 20
535.198010
 30
0.0
 10
-14.220436
 20
534.920270
 30
0.0
 10
-13.628489
 20
534.920270
 30
0.0
 10
-13.148354
 20
535.198010
 30
0.0
  0
SPLINE
  5
160
100
AcDbEntity
  8
Layer_1
 62
7
100
AcDbSpline
 70
8
 71
3
 72
8
 73
4
 74
0
 40
0
 40
0
 40
0
 40
0
 40
1
 40
1
 40
1
 40
1
 10
-13.148354
 20
535.198010
 30
0.0
 10
-12.668220
 20
535.475740
 30
0.0
 10
-12.373094
 20
535.988870
 30
0.0
 10
-12.374469
 20
536.543550
 30
0.0
  0
LINE
  5
161
100
AcDbEntity
  8
Layer_1
 62
7
100
AcDbLine
 10
-12.374473
 20
536.543470
 30
0.0
 11
-12.374473
 21
536.543470
 31
0.0
  0
SPLINE
  5
162
100
AcDbEntity
  8
Layer_1
 62
7
100
AcDbSpline
 70
8
 71
3
 72
8
 73
4
 74
0
 40
0
 40
0
 40
0
 40
0
 40
1
 40
1
 40
1
 40
1
 10
247.725200
 20
536.543550
 30
0.0
 10
247.728200
 20
537.134040
 30
0.0
 10
247.412540
 20
537.680330
 30
0.0
 10
246.901420
 20
537.976010
 30
0.0
  0
SPLINE
  5
163
100
AcDbEntity
  8
Layer_1
 62
7
100
AcDbSpline
 70
8
 71
3
 72
8
 73
4
 74
0
 40
0
 40
0
 40
0
 40
0
 40
1
 40
1
 40
1
 40
1
 10
246.901420
 20
537.976010
 30
0.0
 10
246.390300
 20
538.271700
 30
0.0
 10
245.760110
 20
538.271700
 30
0.0
 10
245.248990
 20
537.976010
 30
0.0
  0
SPLINE
  5
164
100
AcDbEntity
  8
Layer_1
 62
7
100
AcDbSpline
 70
8
 71
3
 72
8
 73
4
 74
0
 40
0
 40
0
 40
0
 40
0
 40
1
 40
1
 40
1
 40
1
 10
245.248990
 20
537.976010
 30
0.0
 10
244.737840
 20
537.680330
 30
0.0
 10
244.423700
 20
537.134040
 30
0.0
 10
244.425210
 20
536.543550
 30
0.0
  0
SPLINE
  5
165
100
AcDbEntity
  8
Layer_1
 62
7
100
AcDbSpline
 70
8
 71
3
 72
8
 73
4
 74
0
 40
0
 40
0
 40
0
 40
0
 40
1
 40
1
 40
1
 40
1
 10
244.425210
 20
536.543550
 30
0.0
 10
244.422210
 20
535.953050
 30
0.0
 10
244.737840
 20
535.406770
 30
0.0
 10
245.248990
 20
535.111080
 30
0.0
  0
SPLINE
  5
166
100
AcDbEntity
  8
Layer_1
 62
7
100
AcDbSpline
 70
8
 71
3
 72
8
 73
4
 74
0
 40
0
 40
0
 40
0
 40
0
 40
1
 40
1
 40
1
 40
1
 10
245.248990
 20
535.111080
 30
0.0
 10
245.760110
 20
534.815400
 30
0.0
 10
246.390300
 20
534.815400
 30
0.0
 10
246.901420
 20
535.111080
 30
0.0
  0
SPLINE
  5
167
100
AcDbEntity
  8
Layer_1
 62
7
100
AcDbSpline
 70
8
 71
3
 72
8
 73
4
 74
0
 40
0
 40
0
 40
0
 40
0
 40
1
 40
1
 40
1
 40
1
 10
246.901420
 20
535.111080
 30
0.0
 10
247.412540
 20
535.406770
 30
0.0
 10
247.726710
 20
535.953050
 30
0.0
 10
247.725200
 20
536.543550
 30
0.0
  0
LINE
  5
168
100
AcDbEntity
  8
Layer_1
 62
7
100
AcDbLine
 10
247.724280
 20
536.543470
 30
0.0
 11
247.724280
 21
536.543470
 31
0.0
  0
SPLINE
  5
169
100
AcDbEntity
  8
Layer_1
 62
7
100
AcDbSpline
 70
8
 71
3
 72
8
 73
4
 74
0
 40
0
 40
0
 40
0
 40
0
 40
1
 40
1
 40
1
 40
1
 10
-112.274340
 20
536.543550
 30
0.0
 10
-112.274100
 20
537.133190
 30
0.0
 10
-112.588540
 20
537.678140
 30
0.0
 10
-113.099150
 20
537.973040
 30
0.0
  0
SPLINE
  5
16a
100
AcDbEntity
  8
Layer_1
 62
7
100
AcDbSpline
 70
8
 71
3
 72
8
 73
4
 74
0
 40
0
 40
0
 40
0
 40
0
 40
1
 40
1
 40
1
 40
1
 10
-113.099150
 20
537.973040
 30
0.0
 10
-113.609750
 20
538.267930
 30
0.0
 10
-114.238920
 20
538.267930
 30
0.0
 10
-114.749530
 20
537.973040
 30
0.0
  0
SPLINE
  5
16b
100
AcDbEntity
  8
Layer_1
 62
7
100
AcDbSpline
 70
8
 71
3
 72
8
 73
4
 74
0
 40
0
 40
0
 40
0
 40
0
 40
1
 40
1
 40
1
 40
1
 10
-114.749530
 20
537.973040
 30
0.0
 10
-115.260130
 20
537.678140
 30
0.0
 10
-115.574570
 20
537.133190
 30
0.0
 10
-115.574330
 20
536.543550
 30
0.0
  0
SPLINE
  5
16c
100
AcDbEntity
  8
Layer_1
 62
7
100
AcDbSpline
 70
8
 71
3
 72
8
 73
4
 74
0
 40
0
 40
0
 40
0
 40
0
 40
1
 40
1
 40
1
 40
1
 10
-115.574330
 20
536.543550
 30
0.0
 10
-115.574570
 20
535.953900
 30
0.0
 10
-115.260130
 20
535.408950
 30
0.0
 10
-114.749530
 20
535.114050
 30
0.0
  0
SPLINE
  5
16d
100
AcDbEntity
  8
Layer_1
 62
7
100
AcDbSpline
 70
8
 71
3
 72
8
 73
4
 74
0
 40
0
 40
0
 40
0
 40
0
 40
1
 40
1
 40
1
 40
1
 10
-114.749530
 20
535.114050
 30
0.0
 10
-114.238920
 20
534.819170
 30
0.0
 10
-113.609750
 20
534.819170
 30
0.0
 10
-113.099150
 20
535.114050
 30
0.0
  0
SPLINE
  5
16e
100
AcDbEntity
  8
Layer_1
 62
7
100
AcDbSpline
 70
8
 71
3
 72
8
 73
4
 74
0
 40
0
 40
0
 40
0
 40
0
 40
1
 40
1
 40
1
 40
1
 10
-113.099150
 20
535.114050
 30
0.0
 10
-112.588540
 20
535.408950
 30
0.0
 10
-112.274100
 20
535.953900
 30
0.0
 10
-112.274340
 20
536.543550
 30
0.0
  0
LINE
  5
16f
100
AcDbEntity
  8
Layer_1
 62
7
100
AcDbLine
 10
-112.274420
 20
536.543470
 30
0.0
 11
-112.274420
 21
536.543470
 31
0.0
  0
SPLINE
  5
170
100
AcDbEntity
  8
Layer_1
 62
7
100
AcDbSpline
 70
8
 71
3
 72
8
 73
4
 74
0
 40
0
 40
0
 40
0
 40
0
 40
1
 40
1
 40
1
 40
1
 10
-269.536080
 20
563.043520
 30
0.0
 10
-269.535850
 20
563.633170
 30
0.0
 10
-269.850290
 20
564.178110
 30
0.0
 10
-270.360890
 20
564.473010
 30
0.0
  0
SPLINE
  5
171
100
AcDbEntity
  8
Layer_1
 62
7
100
AcDbSpline
 70
8
 71
3
 72
8
 73
4
 74
0
 40
0
 40
0
 40
0
 40
0
 40
1
 40
1
 40
1
 40
1
 10
-270.360890
 20
564.473010
 30
0.0
 10
-270.871500
 20
564.767890
 30
0.0
 10
-271.500660
 20
564.767890
 30
0.0
 10
-272.011270
 20
564.473010
 30
0.0
  0
SPLINE
  5
172
100
AcDbEntity
  8
Layer_1
 62
7
100
AcDbSpline
 70
8
 71
3
 72
8
 73
4
 74
0
 40
0
 40
0
 40
0
 40
0
 40
1
 40
1
 40
1
 40
1
 10
-272.011270
 20
564.473010
 30
0.0
 10
-272.521880
 20
564.178110
 30
0.0
 10
-272.836320
 20
563.633170
 30
0.0
 10
-272.836080
 20
563.043520
 30
0.0
  0
SPLINE
  5
173
100
AcDbEntity
  8
Layer_1
 62
7
100
AcDbSpline
 70
8
 71
3
 72
8
 73
4
 74
0
 40
0
 40
0
 40
0
 40
0
 40
1
 40
1
 40
1
 40
1
 10
-272.836080
 20
563.043520
 30
0.0
 10
-272.836320
 20
562.453870
 30
0.0
 10
-272.521880
 20
561.908910
 30
0.0
 10
-272.011270
 20
561.614030
 30
0.0
  0
SPLINE
  5
174
100
AcDbEntity
  8
Layer_1
 62
7
100
AcDbSpline
 70
8
 71
3
 72
8
 73
4
 74
0
 40
0
 40
0
 40
0
 40
0
 40
1
 40
1
 40
1
 40
1
 10
-272.011270
 20
561.614030
 30
0.0
 10
-271.500660
 20
561.319130
 30
0.0
 10
-270.871500
 20
561.319130
 30
0.0
 10
-270.360890
 20
561.614030
 30
0.0
  0
SPLINE
  5
175
100
AcDbEntity
  8
Layer_1
 62
7
100
AcDbSpline
 70
8
 71
3
 72
8
 73
4
 74
0
 40
0
 40
0
 40
0
 40
0
 40
1
 40
1
 40
1
 40
1
 10
-270.360890
 20
561.614030
 30
0.0
 10
-269.850290
 20
561.908910
 30
0.0
 10
-269.535850
 20
562.453870
 30
0.0
 10
-269.536080
 20
563.043520
 30
0.0
  0
LINE
  5
176
100
AcDbEntity
  8
Layer_1
 62
7
100
AcDbLine
 10
-269.536140
 20
563.043070
 30
0.0
 11
-269.536140
 21
563.043070
 31
0.0
  0
SPLINE
  5
177
100
AcDbEntity
  8
Layer_1
 62
7
100
AcDbSpline
 70
8
 71
3
 72
8
 73
4
 74
0
 40
0
 40
0
 40
0
 40
0
 40
1
 40
1
 40
1
 40
1
 10
-219.536150
 20
563.043520
 30
0.0
 10
-219.535910
 20
563.633170
 30
0.0
 10
-219.850350
 20
564.178110
 30
0.0
 10
-220.360960
 20
564.473010
 30
0.0
  0
SPLINE
  5
178
100
AcDbEntity
  8
Layer_1
 62
7
100
AcDbSpline
 70
8
 71
3
 72
8
 73
4
 74
0
 40
0
 40
0
 40
0
 40
0
 40
1
 40
1
 40
1
 40
1
 10
-220.360960
 20
564.473010
 30
0.0
 10
-220.871560
 20
564.767890
 30
0.0
 10
-221.500730
 20
564.767890
 30
0.0
 10
-222.011340
 20
564.473010
 30
0.0
  0
SPLINE
  5
179
100
AcDbEntity
  8
Layer_1
 62
7
100
AcDbSpline
 70
8
 71
3
 72
8
 73
4
 74
0
 40
0
 40
0
 40
0
 40
0
 40
1
 40
1
 40
1
 40
1
 10
-222.011340
 20
564.473010
 30
0.0
 10
-222.521940
 20
564.178110
 30
0.0
 10
-222.836380
 20
563.633170
 30
0.0
 10
-222.836140
 20
563.043520
 30
0.0
  0
SPLINE
  5
17a
100
AcDbEntity
  8
Layer_1
 62
7
100
AcDbSpline
 70
8
 71
3
 72
8
 73
4
 74
0
 40
0
 40
0
 40
0
 40
0
 40
1
 40
1
 40
1
 40
1
 10
-222.836140
 20
563.043520
 30
0.0
 10
-222.836380
 20
562.453870
 30
0.0
 10
-222.521940
 20
561.908910
 30
0.0
 10
-222.011340
 20
561.614030
 30
0.0
  0
SPLINE
  5
17b
100
AcDbEntity
  8
Layer_1
 62
7
100
AcDbSpline
 70
8
 71
3
 72
8
 73
4
 74
0
 40
0
 40
0
 40
0
 40
0
 40
1
 40
1
 40
1
 40
1
 10
-222.011340
 20
561.614030
 30
0.0
 10
-221.500730
 20
561.319130
 30
0.0
 10
-220.871560
 20
561.319130
 30
0.0
 10
-220.360960
 20
561.614030
 30
0.0
  0
SPLINE
  5
17c
100
AcDbEntity
  8
Layer_1
 62
7
100
AcDbSpline
 70
8
 71
3
 72
8
 73
4
 74
0
 40
0
 40
0
 40
0
 40
0
 40
1
 40
1
 40
1
 40
1
 10
-220.360960
 20
561.614030
 30
0.0
 10
-219.850350
 20
561.908910
 30
0.0
 10
-219.535910
 20
562.453870
 30
0.0
 10
-219.536150
 20
563.043520
 30
0.0
  0
LINE
  5
17d
100
AcDbEntity
  8
Layer_1
 62
7
100
AcDbLine
 10
-219.536240
 20
563.043070
 30
0.0
 11
-219.536240
 21
563.043070
 31
0.0
  0
SPLINE
  5
17e
100
AcDbEntity
  8
Layer_1
 62
7
100
AcDbSpline
 70
8
 71
3
 72
8
 73
4
 74
0
 40
0
 40
0
 40
0
 40
0
 40
1
 40
1
 40
1
 40
1
 10
-151.036230
 20
523.043570
 30
0.0
 10
-151.036000
 20
523.633220
 30
0.0
 10
-151.350430
 20
524.178170
 30
0.0
 10
-151.861040
 20
524.473060
 30
0.0
  0
SPLINE
  5
17f
100
AcDbEntity
  8
Layer_1
 62
7
100
AcDbSpline
 70
8
 71
3
 72
8
 73
4
 74
0
 40
0
 40
0
 40
0
 40
0
 40
1
 40
1
 40
1
 40
1
 10
-151.861040
 20
524.473060
 30
0.0
 10
-152.371650
 20
524.767950
 30
0.0
 10
-153.000810
 20
524.767950
 30
0.0
 10
-153.511420
 20
524.473060
 30
0.0
  0
SPLINE
  5
180
100
AcDbEntity
  8
Layer_1
 62
7
100
AcDbSpline
 70
8
 71
3
 72
8
 73
4
 74
0
 40
0
 40
0
 40
0
 40
0
 40
1
 40
1
 40
1
 40
1
 10
-153.511420
 20
524.473060
 30
0.0
 10
-154.022030
 20
524.178170
 30
0.0
 10
-154.336470
 20
523.633220
 30
0.0
 10
-154.336230
 20
523.043570
 30
0.0
  0
SPLINE
  5
181
100
AcDbEntity
  8
Layer_1
 62
7
100
AcDbSpline
 70
8
 71
3
 72
8
 73
4
 74
0
 40
0
 40
0
 40
0
 40
0
 40
1
 40
1
 40
1
 40
1
 10
-154.336230
 20
523.043570
 30
0.0
 10
-154.336470
 20
522.453920
 30
0.0
 10
-154.022030
 20
521.908970
 30
0.0
 10
-153.511420
 20
521.614080
 30
0.0
  0
SPLINE
  5
182
100
AcDbEntity
  8
Layer_1
 62
7
100
AcDbSpline
 70
8
 71
3
 72
8
 73
4
 74
0
 40
0
 40
0
 40
0
 40
0
 40
1
 40
1
 40
1
 40
1
 10
-153.511420
 20
521.614080
 30
0.0
 10
-153.000810
 20
521.319190
 30
0.0
 10
-152.371650
 20
521.319190
 30
0.0
 10
-151.861040
 20
521.614080
 30
0.0
  0
SPLINE
  5
183
100
AcDbEntity
  8
Layer_1
 62
7
100
AcDbSpline
 70
8
 71
3
 72
8
 73
4
 74
0
 40
0
 40
0
 40
0
 40
0
 40
1
 40
1
 40
1
 40
1
 10
-151.861040
 20
521.614080
 30
0.0
 10
-151.350430
 20
521.908970
 30
0.0
 10
-151.036000
 20
522.453920
 30
0.0
 10
-151.036230
 20
523.043570
 30
0.0
  0
LINE
  5
184
100
AcDbEntity
  8
Layer_1
 62
7
100
AcDbLine
 10
-151.036140
 20
523.043630
 30
0.0
 11
-151.036140
 21
523.043630
 31
0.0
  0
SPLINE
  5
185
100
AcDbEntity
  8
Layer_1
 62
7
100
AcDbSpline
 70
8
 71
3
 72
8
 73
4
 74
0
 40
0
 40
0
 40
0
 40
0
 40
1
 40
1
 40
1
 40
1
 10
-251.036110
 20
523.043570
 30
0.0
 10
-251.035870
 20
523.633220
 30
0.0
 10
-251.350310
 20
524.178170
 30
0.0
 10
-251.860920
 20
524.473060
 30
0.0
  0
SPLINE
  5
186
100
AcDbEntity
  8
Layer_1
 62
7
100
AcDbSpline
 70
8
 71
3
 72
8
 73
4
 74
0
 40
0
 40
0
 40
0
 40
0
 40
1
 40
1
 40
1
 40
1
 10
-251.860920
 20
524.473060
 30
0.0
 10
-252.371520
 20
524.767950
 30
0.0
 10
-253.000690
 20
524.767950
 30
0.0
 10
-253.511300
 20
524.473060
 30
0.0
  0
SPLINE
  5
187
100
AcDbEntity
  8
Layer_1
 62
7
100
AcDbSpline
 70
8
 71
3
 72
8
 73
4
 74
0
 40
0
 40
0
 40
0
 40
0
 40
1
 40
1
 40
1
 40
1
 10
-253.511300
 20
524.473060
 30
0.0
 10
-254.021910
 20
524.178170
 30
0.0
 10
-254.336340
 20
523.633220
 30
0.0
 10
-254.336100
 20
523.043570
 30
0.0
  0
SPLINE
  5
188
100
AcDbEntity
  8
Layer_1
 62
7
100
AcDbSpline
 70
8
 71
3
 72
8
 73
4
 74
0
 40
0
 40
0
 40
0
 40
0
 40
1
 40
1
 40
1
 40
1
 10
-254.336100
 20
523.043570
 30
0.0
 10
-254.336340
 20
522.453920
 30
0.0
 10
-254.021910
 20
521.908970
 30
0.0
 10
-253.511300
 20
521.614080
 30
0.0
  0
SPLINE
  5
189
100
AcDbEntity
  8
Layer_1
 62
7
100
AcDbSpline
 70
8
 71
3
 72
8
 73
4
 74
0
 40
0
 40
0
 40
0
 40
0
 40
1
 40
1
 40
1
 40
1
 10
-253.511300
 20
521.614080
 30
0.0
 10
-253.000690
 20
521.319190
 30
0.0
 10
-252.371520
 20
521.319190
 30
0.0
 10
-251.860920
 20
521.614080
 30
0.0
  0
SPLINE
  5
18a
100
AcDbEntity
  8
Layer_1
 62
7
100
AcDbSpline
 70
8
 71
3
 72
8
 73
4
 74
0
 40
0
 40
0
 40
0
 40
0
 40
1
 40
1
 40
1
 40
1
 10
-251.860920
 20
521.614080
 30
0.0
 10
-251.350310
 20
521.908970
 30
0.0
 10
-251.035870
 20
522.453920
 30
0.0
 10
-251.036110
 20
523.043570
 30
0.0
  0
LINE
  5
18b
100
AcDbEntity
  8
Layer_1
 62
7
100
AcDbLine
 10
-251.036200
 20
523.043630
 30
0.0
 11
-251.036200
 21
523.043630
 31
0.0
  0
SPLINE
  5
18c
100
AcDbEntity
  8
Layer_1
 62
7
100
AcDbSpline
 70
8
 71
3
 72
8
 73
4
 74
0
 40
0
 40
0
 40
0
 40
0
 40
1
 40
1
 40
1
 40
1
 10
-201.036170
 20
523.043570
 30
0.0
 10
-201.035930
 20
523.633220
 30
0.0
 10
-201.350370
 20
524.178170
 30
0.0
 10
-201.860980
 20
524.473060
 30
0.0
  0
SPLINE
  5
18d
100
AcDbEntity
  8
Layer_1
 62
7
100
AcDbSpline
 70
8
 71
3
 72
8
 73
4
 74
0
 40
0
 40
0
 40
0
 40
0
 40
1
 40
1
 40
1
 40
1
 10
-201.860980
 20
524.473060
 30
0.0
 10
-202.371590
 20
524.767950
 30
0.0
 10
-203.000750
 20
524.767950
 30
0.0
 10
-203.511360
 20
524.473060
 30
0.0
  0
SPLINE
  5
18e
100
AcDbEntity
  8
Layer_1
 62
7
100
AcDbSpline
 70
8
 71
3
 72
8
 73
4
 74
0
 40
0
 40
0
 40
0
 40
0
 40
1
 40
1
 40
1
 40
1
 10
-203.511360
 20
524.473060
 30
0.0
 10
-204.021970
 20
524.178170
 30
0.0
 10
-204.336400
 20
523.633220
 30
0.0
 10
-204.336170
 20
523.043570
 30
0.0
  0
SPLINE
  5
18f
100
AcDbEntity
  8
Layer_1
 62
7
100
AcDbSpline
 70
8
 71
3
 72
8
 73
4
 74
0
 40
0
 40
0
 40
0
 40
0
 40
1
 40
1
 40
1
 40
1
 10
-204.336170
 20
523.043570
 30
0.0
 10
-204.336400
 20
522.453920
 30
0.0
 10
-204.021970
 20
521.908970
 30
0.0
 10
-203.511360
 20
521.614080
 30
0.0
  0
SPLINE
  5
190
100
AcDbEntity
  8
Layer_1
 62
7
100
AcDbSpline
 70
8
 71
3
 72
8
 73
4
 74
0
 40
0
 40
0
 40
0
 40
0
 40
1
 40
1
 40
1
 40
1
 10
-203.511360
 20
521.614080
 30
0.0
 10
-203.000750
 20
521.319190
 30
0.0
 10
-202.371590
 20
521.319190
 30
0.0
 10
-201.860980
 20
521.614080
 30
0.0
  0
SPLINE
  5
191
100
AcDbEntity
  8
Layer_1
 62
7
100
AcDbSpline
 70
8
 71
3
 72
8
 73
4
 74
0
 40
0
 40
0
 40
0
 40
0
 40
1
 40
1
 40
1
 40
1
 10
-201.860980
 20
521.614080
 30
0.0
 10
-201.350370
 20
521.908970
 30
0.0
 10
-201.035930
 20
522.453920
 30
0.0
 10
-201.036170
 20
523.043570
 30
0.0
  0
LINE
  5
192
100
AcDbEntity
  8
Layer_1
 62
7
100
AcDbLine
 10
-201.036040
 20
523.043630
 30
0.0
 11
-201.036040
 21
523.043630
 31
0.0
  0
SPLINE
  5
193
100
AcDbEntity
  8
Layer_1
 62
7
100
AcDbSpline
 70
8
 71
3
 72
8
 73
4
 74
0
 40
0
 40
0
 40
0
 40
0
 40
1
 40
1
 40
1
 40
1
 10
-169.536210
 20
563.043520
 30
0.0
 10
-169.536210
 20
563.633020
 30
0.0
 10
-169.850700
 20
564.177710
 30
0.0
 10
-170.361210
 20
564.472460
 30
0.0
  0
SPLINE
  5
194
100
AcDbEntity
  8
Layer_1
 62
7
100
AcDbSpline
 70
8
 71
3
 72
8
 73
4
 74
0
 40
0
 40
0
 40
0
 40
0
 40
1
 40
1
 40
1
 40
1
 10
-170.361210
 20
564.472460
 30
0.0
 10
-170.871720
 20
564.767200
 30
0.0
 10
-171.500700
 20
564.767200
 30
0.0
 10
-172.011210
 20
564.472460
 30
0.0
  0
SPLINE
  5
195
100
AcDbEntity
  8
Layer_1
 62
7
100
AcDbSpline
 70
8
 71
3
 72
8
 73
4
 74
0
 40
0
 40
0
 40
0
 40
0
 40
1
 40
1
 40
1
 40
1
 10
-172.011210
 20
564.472460
 30
0.0
 10
-172.521720
 20
564.177710
 30
0.0
 10
-172.836210
 20
563.633020
 30
0.0
 10
-172.836210
 20
563.043520
 30
0.0
  0
SPLINE
  5
196
100
AcDbEntity
  8
Layer_1
 62
7
100
AcDbSpline
 70
8
 71
3
 72
8
 73
4
 74
0
 40
0
 40
0
 40
0
 40
0
 40
1
 40
1
 40
1
 40
1
 10
-172.836210
 20
563.043520
 30
0.0
 10
-172.836210
 20
562.454030
 30
0.0
 10
-172.521720
 20
561.909310
 30
0.0
 10
-172.011210
 20
561.614590
 30
0.0
  0
SPLINE
  5
197
100
AcDbEntity
  8
Layer_1
 62
7
100
AcDbSpline
 70
8
 71
3
 72
8
 73
4
 74
0
 40
0
 40
0
 40
0
 40
0
 40
1
 40
1
 40
1
 40
1
 10
-172.011210
 20
561.614590
 30
0.0
 10
-171.500700
 20
561.319840
 30
0.0
 10
-170.871720
 20
561.319840
 30
0.0
 10
-170.361210
 20
561.614590
 30
0.0
  0
SPLINE
  5
198
100
AcDbEntity
  8
Layer_1
 62
7
100
AcDbSpline
 70
8
 71
3
 72
8
 73
4
 74
0
 40
0
 40
0
 40
0
 40
0
 40
1
 40
1
 40
1
 40
1
 10
-170.361210
 20
561.614590
 30
0.0
 10
-169.850700
 20
561.909310
 30
0.0
 10
-169.536210
 20
562.454030
 30
0.0
 10
-169.536210
 20
563.043520
 30
0.0
  0
LINE
  5
199
100
AcDbEntity
  8
Layer_1
 62
7
100
AcDbLine
 10
-169.536340
 20
563.043070
 30
0.0
 11
-169.536340
 21
563.043070
 31
0.0
  0
LINE
  5
19a
100
AcDbEntity
  8
Layer_1
 62
7
100
AcDbLine
 10
-322.185560
 20
513.219950
 30
0.0
 11
454.337390
 21
513.219950
 31
0.0
  0
ENDSEC
  0
SECTION
  2
OBJECTS
  0
DICTIONARY
  5
C
330
0
100
AcDbDictionary
  3
ACAD_GROUP
350
D
  3
ACAD_MLINESTYLE
350
17
  0
DICTIONARY
  5
D
330
C
100
AcDbDictionary
  0
DICTIONARY
  5
1A
330
C
100
AcDbDictionary
  0
DICTIONARY
  5
17
330
C
100
AcDbDictionary
  3
STANDARD
350
18
  0
DICTIONARY
  5
19
330
C
100
AcDbDictionary
  0
ENDSEC
  0
EOF
