  0
SECTION
  2
HEADER
  9
$ACADVER
  1
AC1014
  9
$HANDSEED
  5
FFFF
  9
$MEASUREMENT
 70
     1
  0
ENDSEC
  0
SECTION
  2
TABLES
  0
TABLE
  2
VPORT
  5
8
330
0
100
AcDbSymbolTable
 70
     4
  0
VPORT
  5
2E
330
8
100
AcDbSymbolTableRecord
100
AcDbViewportTableRecord
  2
*ACTIVE
 70
     0
 10
0.0
 20
0.0
 11
1.0
 21
1.0
 12
210.0
 22
148.5
 13
0.0
 23
0.0
 14
10.0
 24
10.0
 15
10.0
 25
10.0
 16
0.0
 26
0.0
 36
1.0
 17
0.0
 27
0.0
 37
0.0
 40
341.0
 41
1.24
 42
50.0
 43
0.0
 44
0.0
 50
0.0
 51
0.0
 71
     0
 72
   100
 73
     1
 74
     3
 75
     0
 76
     0
 77
     0
 78
     0
  0
ENDTAB
  0
TABLE
  2
LTYPE
  5
5
330
0
100
AcDbSymbolTable
 70
     1
  0
LTYPE
  5
14
330
5
100
AcDbSymbolTableRecord
100
AcDbLinetypeTableRecord
  2
BYBLOCK
 70
     0
  3

 72
    65
 73
     0
 40
0.0
  0
LTYPE
  5
15
330
5
100
AcDbSymbolTableRecord
100
AcDbLinetypeTableRecord
  2
BYLAYER
 70
     0
  3

 72
    65
 73
     0
 40
0.0
  0
LTYPE
  5
16
330
5
100
AcDbSymbolTableRecord
100
AcDbLinetypeTableRecord
  2
CONTINUOUS
 70
     0
  3
Solid line
 72
    65
 73
     0
 40
0.0
  0
ENDTAB
  0
TABLE
  2
LAYER
  5
2
100
AcDbSymbolTable
 70
2
  0
LAYER
  5
50
100
AcDbSymbolTableRecord
100
AcDbLayerTableRecord
  2
0
 70
0
  6
CONTINUOUS
  0
LAYER
  5
51
100
AcDbSymbolTableRecord
100
AcDbLayerTableRecord
  2
Layer_1
 70
0
  6
CONTINUOUS
  0
ENDTAB
  0
TABLE
  2
STYLE
  5
3
330
0
100
AcDbSymbolTable
 70
     1
  0
STYLE
  5
11
330
3
100
AcDbSymbolTableRecord
100
AcDbTextStyleTableRecord
  2
STANDARD
 70
     0
 40
0.0
 41
1.0
 50
0.0
 71
     0
 42
2.5
  3
txt
  4

  0
ENDTAB
  0
TABLE
  2
VIEW
  5
6
330
0
100
AcDbSymbolTable
 70
     0
  0
ENDTAB
  0
TABLE
  2
UCS
  5
7
330
0
100
AcDbSymbolTable
 70
     0
  0
ENDTAB
  0
TABLE
  2
APPID
  5
9
330
0
100
AcDbSymbolTable
 70
     2
  0
APPID
  5
12
330
9
100
AcDbSymbolTableRecord
100
AcDbRegAppTableRecord
  2
ACAD
 70
     0
  0
ENDTAB
  0
TABLE
  2
DIMSTYLE
  5
A
330
0
100
AcDbSymbolTable
 70
     1
  0
DIMSTYLE
105
27
330
A
100
AcDbSymbolTableRecord
100
AcDbDimStyleTableRecord
  2
ISO-25
 70
     0
  3

  4

  5

  6

  7

 40
1.0
 41
2.5
 42
0.625
 43
3.75
 44
1.25
 45
0.0
 46
0.0
 47
0.0
 48
0.0
140
2.5
141
2.5
142
0.0
143
0.03937007874016
144
1.0
145
0.0
146
1.0
147
0.625
 71
     0
 72
     0
 73
     0
 74
     0
 75
     0
 76
     0
 77
     1
 78
     8
170
     0
171
     3
172
     1
173
     0
174
     0
175
     0
176
     0
177
     0
178
     0
270
     2
271
     2
272
     2
273
     2
274
     3
340
11
275
     0
280
     0
281
     0
282
     0
283
     0
284
     8
285
     0
286
     0
287
     3
288
     0
  0
ENDTAB
  0
TABLE
  2
BLOCK_RECORD
  5
1
330
0
100
AcDbSymbolTable
 70
     1
  0
BLOCK_RECORD
  5
1F
330
1
100
AcDbSymbolTableRecord
100
AcDbBlockTableRecord
  2
*MODEL_SPACE
  0
BLOCK_RECORD
  5
1B
330
1
100
AcDbSymbolTableRecord
100
AcDbBlockTableRecord
  2
*PAPER_SPACE
  0
ENDTAB
  0
ENDSEC
  0
SECTION
  2
BLOCKS
  0
BLOCK
  5
20
330
1F
100
AcDbEntity
  8
0
100
AcDbBlockBegin
  2
*MODEL_SPACE
 70
     0
 10
0.0
 20
0.0
 30
0.0
  3
*MODEL_SPACE
  1

  0
ENDBLK
  5
21
330
1F
100
AcDbEntity
  8
0
100
AcDbBlockEnd
  0
BLOCK
  5
1C
330
1B
100
AcDbEntity
 67
     1
  8
0
100
AcDbBlockBegin
  2
*PAPER_SPACE
  1

  0
ENDBLK
  5
1D
330
1B
100
AcDbEntity
 67
     1
  8
0
100
AcDbBlockEnd
  0
ENDSEC
  0
SECTION
  2
ENTITIES
  0
LINE
  5
100
100
AcDbEntity
  8
Layer_1
 62
7
100
AcDbLine
 10
82.338097
 20
303.600195
 30
0.0
 11
82.338097
 21
306.100192
 31
0.0
  0
LINE
  5
101
100
AcDbEntity
  8
Layer_1
 62
7
100
AcDbLine
 10
82.338097
 20
306.100192
 30
0.0
 11
165.087991
 21
306.100192
 31
0.0
  0
LINE
  5
102
100
AcDbEntity
  8
Layer_1
 62
7
100
AcDbLine
 10
165.087991
 20
306.100192
 30
0.0
 11
165.087991
 21
224.100295
 31
0.0
  0
SPLINE
  5
103
100
AcDbEntity
  8
Layer_1
 62
7
100
AcDbSpline
 70
8
 71
3
 72
8
 73
4
 74
0
 40
0
 40
0
 40
0
 40
0
 40
1
 40
1
 40
1
 40
1
 10
165.087991
 20
224.100295
 30
0.0
 10
165.087994
 20
223.569861
 30
0.0
 10
164.877282
 20
223.061151
 30
0.0
 10
164.502210
 20
222.686076
 30
0.0
  0
SPLINE
  5
104
100
AcDbEntity
  8
Layer_1
 62
7
100
AcDbSpline
 70
8
 71
3
 72
8
 73
4
 74
0
 40
0
 40
0
 40
0
 40
0
 40
1
 40
1
 40
1
 40
1
 10
164.502210
 20
222.686076
 30
0.0
 10
164.127137
 20
222.311001
 30
0.0
 10
163.618429
 20
222.100286
 30
0.0
 10
163.087995
 20
222.100286
 30
0.0
  0
LINE
  5
105
100
AcDbEntity
  8
Layer_1
 62
7
100
AcDbLine
 10
163.087995
 20
222.100286
 30
0.0
 11
136.088027
 21
222.100286
 31
0.0
  0
LINE
  5
106
100
AcDbEntity
  8
Layer_1
 62
7
100
AcDbLine
 10
136.088027
 20
222.100286
 30
0.0
 11
136.088027
 21
224.600304
 31
0.0
  0
LINE
  5
107
100
AcDbEntity
  8
Layer_1
 62
7
100
AcDbLine
 10
136.088027
 20
224.600304
 30
0.0
 11
135.088030
 21
224.600304
 31
0.0
  0
LINE
  5
108
100
AcDbEntity
  8
Layer_1
 62
7
100
AcDbLine
 10
135.088030
 20
224.600304
 30
0.0
 11
135.088030
 21
203.838370
 31
0.0
  0
LINE
  5
109
100
AcDbEntity
  8
Layer_1
 62
7
100
AcDbLine
 10
135.088030
 20
203.838370
 30
0.0
 11
-79.911700
 21
203.838370
 31
0.0
  0
LINE
  5
10a
100
AcDbEntity
  8
Layer_1
 62
7
100
AcDbLine
 10
-79.911700
 20
203.838370
 30
0.0
 11
-79.911700
 21
224.600304
 31
0.0
  0
LINE
  5
10b
100
AcDbEntity
  8
Layer_1
 62
7
100
AcDbLine
 10
-79.911700
 20
224.600304
 30
0.0
 11
-80.911699
 21
224.600304
 31
0.0
  0
LINE
  5
10c
100
AcDbEntity
  8
Layer_1
 62
7
100
AcDbLine
 10
-80.911699
 20
224.600304
 30
0.0
 11
-80.911699
 21
222.100286
 31
0.0
  0
LINE
  5
10d
100
AcDbEntity
  8
Layer_1
 62
7
100
AcDbLine
 10
-80.911699
 20
222.100286
 30
0.0
 11
-107.911664
 21
222.100286
 31
0.0
  0
SPLINE
  5
10e
100
AcDbEntity
  8
Layer_1
 62
7
100
AcDbSpline
 70
8
 71
3
 72
8
 73
4
 74
0
 40
0
 40
0
 40
0
 40
0
 40
1
 40
1
 40
1
 40
1
 10
-107.911664
 20
222.100286
 30
0.0
 10
-108.442099
 20
222.100285
 30
0.0
 10
-108.950808
 20
222.311000
 30
0.0
 10
-109.325881
 20
222.686075
 30
0.0
  0
SPLINE
  5
10f
100
AcDbEntity
  8
Layer_1
 62
7
100
AcDbSpline
 70
8
 71
3
 72
8
 73
4
 74
0
 40
0
 40
0
 40
0
 40
0
 40
1
 40
1
 40
1
 40
1
 10
-109.325881
 20
222.686075
 30
0.0
 10
-109.700954
 20
223.061150
 30
0.0
 10
-109.911666
 20
223.569861
 30
0.0
 10
-109.911663
 20
224.100295
 30
0.0
  0
LINE
  5
110
100
AcDbEntity
  8
Layer_1
 62
7
100
AcDbLine
 10
-109.911663
 20
224.100295
 30
0.0
 11
-109.911663
 21
306.100192
 31
0.0
  0
LINE
  5
111
100
AcDbEntity
  8
Layer_1
 62
7
100
AcDbLine
 10
-109.911663
 20
306.100192
 30
0.0
 11
-47.161741
 21
306.100192
 31
0.0
  0
LINE
  5
112
100
AcDbEntity
  8
Layer_1
 62
7
100
AcDbLine
 10
-47.161741
 20
306.100192
 30
0.0
 11
-47.161741
 21
303.600195
 31
0.0
  0
LINE
  5
113
100
AcDbEntity
  8
Layer_1
 62
7
100
AcDbLine
 10
-47.161741
 20
303.600195
 30
0.0
 11
-46.161741
 21
303.600195
 31
0.0
  0
LINE
  5
114
100
AcDbEntity
  8
Layer_1
 62
7
100
AcDbLine
 10
-46.161741
 20
303.600195
 30
0.0
 11
-46.161741
 21
321.362120
 31
0.0
  0
LINE
  5
115
100
AcDbEntity
  8
Layer_1
 62
7
100
AcDbLine
 10
-46.161741
 20
321.362120
 30
0.0
 11
-26.161767
 21
321.362120
 31
0.0
  0
LINE
  5
116
100
AcDbEntity
  8
Layer_1
 62
7
100
AcDbLine
 10
-26.161767
 20
321.362120
 30
0.0
 11
-26.161767
 21
303.600195
 31
0.0
  0
LINE
  5
117
100
AcDbEntity
  8
Layer_1
 62
7
100
AcDbLine
 10
-26.161767
 20
303.600195
 30
0.0
 11
-25.161770
 21
303.600195
 31
0.0
  0
LINE
  5
118
100
AcDbEntity
  8
Layer_1
 62
7
100
AcDbLine
 10
-25.161770
 20
303.600195
 30
0.0
 11
-25.161770
 21
306.100192
 31
0.0
  0
LINE
  5
119
100
AcDbEntity
  8
Layer_1
 62
7
100
AcDbLine
 10
-25.161770
 20
306.100192
 30
0.0
 11
60.338123
 21
306.100192
 31
0.0
  0
LINE
  5
11a
100
AcDbEntity
  8
Layer_1
 62
7
100
AcDbLine
 10
60.338123
 20
306.100192
 30
0.0
 11
60.338123
 21
303.600195
 31
0.0
  0
LINE
  5
11b
100
AcDbEntity
  8
Layer_1
 62
7
100
AcDbLine
 10
60.338123
 20
303.600195
 30
0.0
 11
61.338123
 21
303.600195
 31
0.0
  0
LINE
  5
11c
100
AcDbEntity
  8
Layer_1
 62
7
100
AcDbLine
 10
61.338123
 20
303.600195
 30
0.0
 11
61.338123
 21
321.362120
 31
0.0
  0
LINE
  5
11d
100
AcDbEntity
  8
Layer_1
 62
7
100
AcDbLine
 10
61.338123
 20
321.362120
 30
0.0
 11
81.338097
 21
321.362120
 31
0.0
  0
LINE
  5
11e
100
AcDbEntity
  8
Layer_1
 62
7
100
AcDbLine
 10
81.338097
 20
321.362120
 30
0.0
 11
81.338097
 21
303.600195
 31
0.0
  0
LINE
  5
11f
100
AcDbEntity
  8
Layer_1
 62
7
100
AcDbLine
 10
81.338097
 20
303.600195
 30
0.0
 11
82.338097
 21
303.600195
 31
0.0
  0
SPLINE
  5
120
100
AcDbEntity
  8
Layer_1
 62
7
100
AcDbSpline
 70
8
 71
3
 72
8
 73
4
 74
0
 40
0
 40
0
 40
0
 40
0
 40
1
 40
1
 40
1
 40
1
 10
73.088108
 20
213.838364
 30
0.0
 10
73.088108
 20
214.463578
 30
0.0
 10
72.754560
 20
215.041300
 30
0.0
 10
72.213109
 20
215.353907
 30
0.0
  0
SPLINE
  5
121
100
AcDbEntity
  8
Layer_1
 62
7
100
AcDbSpline
 70
8
 71
3
 72
8
 73
4
 74
0
 40
0
 40
0
 40
0
 40
0
 40
1
 40
1
 40
1
 40
1
 10
72.213109
 20
215.353907
 30
0.0
 10
71.671658
 20
215.666514
 30
0.0
 10
71.004562
 20
215.666514
 30
0.0
 10
70.463111
 20
215.353907
 30
0.0
  0
SPLINE
  5
122
100
AcDbEntity
  8
Layer_1
 62
7
100
AcDbSpline
 70
8
 71
3
 72
8
 73
4
 74
0
 40
0
 40
0
 40
0
 40
0
 40
1
 40
1
 40
1
 40
1
 10
70.463111
 20
215.353907
 30
0.0
 10
69.921659
 20
215.041300
 30
0.0
 10
69.588112
 20
214.463578
 30
0.0
 10
69.588112
 20
213.838364
 30
0.0
  0
SPLINE
  5
123
100
AcDbEntity
  8
Layer_1
 62
7
100
AcDbSpline
 70
8
 71
3
 72
8
 73
4
 74
0
 40
0
 40
0
 40
0
 40
0
 40
1
 40
1
 40
1
 40
1
 10
69.588112
 20
213.838364
 30
0.0
 10
69.588112
 20
213.213150
 30
0.0
 10
69.921659
 20
212.635428
 30
0.0
 10
70.463111
 20
212.322821
 30
0.0
  0
SPLINE
  5
124
100
AcDbEntity
  8
Layer_1
 62
7
100
AcDbSpline
 70
8
 71
3
 72
8
 73
4
 74
0
 40
0
 40
0
 40
0
 40
0
 40
1
 40
1
 40
1
 40
1
 10
70.463111
 20
212.322821
 30
0.0
 10
71.004562
 20
212.010214
 30
0.0
 10
71.671658
 20
212.010214
 30
0.0
 10
72.213109
 20
212.322821
 30
0.0
  0
SPLINE
  5
125
100
AcDbEntity
  8
Layer_1
 62
7
100
AcDbSpline
 70
8
 71
3
 72
8
 73
4
 74
0
 40
0
 40
0
 40
0
 40
0
 40
1
 40
1
 40
1
 40
1
 10
72.213109
 20
212.322821
 30
0.0
 10
72.754560
 20
212.635428
 30
0.0
 10
73.088108
 20
213.213150
 30
0.0
 10
73.088108
 20
213.838364
 30
0.0
  0
LINE
  5
126
100
AcDbEntity
  8
Layer_1
 62
7
100
AcDbLine
 10
73.088108
 20
213.838364
 30
0.0
 11
73.088108
 21
213.838364
 31
0.0
  0
SPLINE
  5
127
100
AcDbEntity
  8
Layer_1
 62
7
100
AcDbSpline
 70
8
 71
3
 72
8
 73
4
 74
0
 40
0
 40
0
 40
0
 40
0
 40
1
 40
1
 40
1
 40
1
 10
-34.411758
 20
213.838364
 30
0.0
 10
-34.411115
 20
214.464007
 30
0.0
 10
-34.744521
 20
215.042400
 30
0.0
 10
-35.286237
 20
215.355407
 30
0.0
  0
SPLINE
  5
128
100
AcDbEntity
  8
Layer_1
 62
7
100
AcDbSpline
 70
8
 71
3
 72
8
 73
4
 74
0
 40
0
 40
0
 40
0
 40
0
 40
1
 40
1
 40
1
 40
1
 10
-35.286237
 20
215.355407
 30
0.0
 10
-35.827952
 20
215.668414
 30
0.0
 10
-36.495559
 20
215.668414
 30
0.0
 10
-37.037274
 20
215.355407
 30
0.0
  0
SPLINE
  5
129
100
AcDbEntity
  8
Layer_1
 62
7
100
AcDbSpline
 70
8
 71
3
 72
8
 73
4
 74
0
 40
0
 40
0
 40
0
 40
0
 40
1
 40
1
 40
1
 40
1
 10
-37.037274
 20
215.355407
 30
0.0
 10
-37.578989
 20
215.042400
 30
0.0
 10
-37.912396
 20
214.464007
 30
0.0
 10
-37.911752
 20
213.838364
 30
0.0
  0
SPLINE
  5
12a
100
AcDbEntity
  8
Layer_1
 62
7
100
AcDbSpline
 70
8
 71
3
 72
8
 73
4
 74
0
 40
0
 40
0
 40
0
 40
0
 40
1
 40
1
 40
1
 40
1
 10
-37.911752
 20
213.838364
 30
0.0
 10
-37.912396
 20
213.212722
 30
0.0
 10
-37.578989
 20
212.634328
 30
0.0
 10
-37.037274
 20
212.321321
 30
0.0
  0
SPLINE
  5
12b
100
AcDbEntity
  8
Layer_1
 62
7
100
AcDbSpline
 70
8
 71
3
 72
8
 73
4
 74
0
 40
0
 40
0
 40
0
 40
0
 40
1
 40
1
 40
1
 40
1
 10
-37.037274
 20
212.321321
 30
0.0
 10
-36.495559
 20
212.008314
 30
0.0
 10
-35.827952
 20
212.008314
 30
0.0
 10
-35.286237
 20
212.321321
 30
0.0
  0
SPLINE
  5
12c
100
AcDbEntity
  8
Layer_1
 62
7
100
AcDbSpline
 70
8
 71
3
 72
8
 73
4
 74
0
 40
0
 40
0
 40
0
 40
0
 40
1
 40
1
 40
1
 40
1
 10
-35.286237
 20
212.321321
 30
0.0
 10
-34.744521
 20
212.634328
 30
0.0
 10
-34.411115
 20
213.212722
 30
0.0
 10
-34.411758
 20
213.838364
 30
0.0
  0
LINE
  5
12d
100
AcDbEntity
  8
Layer_1
 62
7
100
AcDbLine
 10
-34.411758
 20
213.838364
 30
0.0
 11
-34.411758
 21
213.838364
 31
0.0
  0
SPLINE
  5
12e
100
AcDbEntity
  8
Layer_1
 62
7
100
AcDbSpline
 70
8
 71
3
 72
8
 73
4
 74
0
 40
0
 40
0
 40
0
 40
0
 40
1
 40
1
 40
1
 40
1
 10
-34.161757
 20
312.362131
 30
0.0
 10
-34.161757
 20
313.076661
 30
0.0
 10
-34.542954
 20
313.736914
 30
0.0
 10
-35.161755
 20
314.094179
 30
0.0
  0
SPLINE
  5
12f
100
AcDbEntity
  8
Layer_1
 62
7
100
AcDbSpline
 70
8
 71
3
 72
8
 73
4
 74
0
 40
0
 40
0
 40
0
 40
0
 40
1
 40
1
 40
1
 40
1
 10
-35.161755
 20
314.094179
 30
0.0
 10
-35.780557
 20
314.451444
 30
0.0
 10
-36.542951
 20
314.451444
 30
0.0
 10
-37.161753
 20
314.094179
 30
0.0
  0
SPLINE
  5
130
100
AcDbEntity
  8
Layer_1
 62
7
100
AcDbSpline
 70
8
 71
3
 72
8
 73
4
 74
0
 40
0
 40
0
 40
0
 40
0
 40
1
 40
1
 40
1
 40
1
 10
-37.161753
 20
314.094179
 30
0.0
 10
-37.780554
 20
313.736914
 30
0.0
 10
-38.161751
 20
313.076661
 30
0.0
 10
-38.161751
 20
312.362131
 30
0.0
  0
SPLINE
  5
131
100
AcDbEntity
  8
Layer_1
 62
7
100
AcDbSpline
 70
8
 71
3
 72
8
 73
4
 74
0
 40
0
 40
0
 40
0
 40
0
 40
1
 40
1
 40
1
 40
1
 10
-38.161751
 20
312.362131
 30
0.0
 10
-38.161751
 20
311.647600
 30
0.0
 10
-37.780554
 20
310.987347
 30
0.0
 10
-37.161753
 20
310.630082
 30
0.0
  0
SPLINE
  5
132
100
AcDbEntity
  8
Layer_1
 62
7
100
AcDbSpline
 70
8
 71
3
 72
8
 73
4
 74
0
 40
0
 40
0
 40
0
 40
0
 40
1
 40
1
 40
1
 40
1
 10
-37.161753
 20
310.630082
 30
0.0
 10
-36.542951
 20
310.272817
 30
0.0
 10
-35.780557
 20
310.272817
 30
0.0
 10
-35.161755
 20
310.630082
 30
0.0
  0
SPLINE
  5
133
100
AcDbEntity
  8
Layer_1
 62
7
100
AcDbSpline
 70
8
 71
3
 72
8
 73
4
 74
0
 40
0
 40
0
 40
0
 40
0
 40
1
 40
1
 40
1
 40
1
 10
-35.161755
 20
310.630082
 30
0.0
 10
-34.542954
 20
310.987347
 30
0.0
 10
-34.161757
 20
311.647600
 30
0.0
 10
-34.161757
 20
312.362131
 30
0.0
  0
LINE
  5
134
100
AcDbEntity
  8
Layer_1
 62
7
100
AcDbLine
 10
-34.161757
 20
312.362131
 30
0.0
 11
-34.161757
 21
312.362131
 31
0.0
  0
SPLINE
  5
135
100
AcDbEntity
  8
Layer_1
 62
7
100
AcDbSpline
 70
8
 71
3
 72
8
 73
4
 74
0
 40
0
 40
0
 40
0
 40
0
 40
1
 40
1
 40
1
 40
1
 10
73.338107
 20
312.362131
 30
0.0
 10
73.338107
 20
313.076661
 30
0.0
 10
72.956910
 20
313.736914
 30
0.0
 10
72.338109
 20
314.094179
 30
0.0
  0
SPLINE
  5
136
100
AcDbEntity
  8
Layer_1
 62
7
100
AcDbSpline
 70
8
 71
3
 72
8
 73
4
 74
0
 40
0
 40
0
 40
0
 40
0
 40
1
 40
1
 40
1
 40
1
 10
72.338109
 20
314.094179
 30
0.0
 10
71.719307
 20
314.451444
 30
0.0
 10
70.956913
 20
314.451444
 30
0.0
 10
70.338111
 20
314.094179
 30
0.0
  0
SPLINE
  5
137
100
AcDbEntity
  8
Layer_1
 62
7
100
AcDbSpline
 70
8
 71
3
 72
8
 73
4
 74
0
 40
0
 40
0
 40
0
 40
0
 40
1
 40
1
 40
1
 40
1
 10
70.338111
 20
314.094179
 30
0.0
 10
69.719310
 20
313.736914
 30
0.0
 10
69.338112
 20
313.076661
 30
0.0
 10
69.338112
 20
312.362131
 30
0.0
  0
SPLINE
  5
138
100
AcDbEntity
  8
Layer_1
 62
7
100
AcDbSpline
 70
8
 71
3
 72
8
 73
4
 74
0
 40
0
 40
0
 40
0
 40
0
 40
1
 40
1
 40
1
 40
1
 10
69.338112
 20
312.362131
 30
0.0
 10
69.338112
 20
311.647600
 30
0.0
 10
69.719310
 20
310.987347
 30
0.0
 10
70.338111
 20
310.630082
 30
0.0
  0
SPLINE
  5
139
100
AcDbEntity
  8
Layer_1
 62
7
100
AcDbSpline
 70
8
 71
3
 72
8
 73
4
 74
0
 40
0
 40
0
 40
0
 40
0
 40
1
 40
1
 40
1
 40
1
 10
70.338111
 20
310.630082
 30
0.0
 10
70.956913
 20
310.272817
 30
0.0
 10
71.719307
 20
310.272817
 30
0.0
 10
72.338109
 20
310.630082
 30
0.0
  0
SPLINE
  5
13a
100
AcDbEntity
  8
Layer_1
 62
7
100
AcDbSpline
 70
8
 71
3
 72
8
 73
4
 74
0
 40
0
 40
0
 40
0
 40
0
 40
1
 40
1
 40
1
 40
1
 10
72.338109
 20
310.630082
 30
0.0
 10
72.956910
 20
310.987347
 30
0.0
 10
73.338107
 20
311.647600
 30
0.0
 10
73.338107
 20
312.362131
 30
0.0
  0
LINE
  5
13b
100
AcDbEntity
  8
Layer_1
 62
7
100
AcDbLine
 10
73.338107
 20
312.362131
 30
0.0
 11
73.338107
 21
312.362131
 31
0.0
  0
ENDSEC
  0
SECTION
  2
OBJECTS
  0
DICTIONARY
  5
C
330
0
100
AcDbDictionary
  3
ACAD_GROUP
350
D
  3
ACAD_MLINESTYLE
350
17
  0
DICTIONARY
  5
D
330
C
100
AcDbDictionary
  0
DICTIONARY
  5
1A
330
C
100
AcDbDictionary
  0
DICTIONARY
  5
17
330
C
100
AcDbDictionary
  3
STANDARD
350
18
  0
DICTIONARY
  5
19
330
C
100
AcDbDictionary
  0
ENDSEC
  0
EOF
