999
dxflib 2.0.4.8
  0
SECTION
  2
HEADER
  9
$ACADVER
  1
AC1015
  9
$HANDSEED
  5
FFFF
  9
$DIMASZ
 40
2.5
  9
$MEASUREMENT
 70
1
  9
$DIMGAP
 40
0.625
  9
$DIMEXO
 40
0.625
  9
$INSUNITS
 70
4
  9
$DIMTXT
 40
2.5
  9
$DIMSTYLE
  2
Standard
  9
$PLIMMAX
 10
210.0
 20
297.0
  9
$PLIMMIN
 10
0.0
 20
0.0
  9
$DIMEXE
 40
1.25
  0
ENDSEC
  0
SECTION
  2
TABLES
  0
TABLE
  2
VPORT
  5
8
100
AcDbSymbolTable
 70
1
  0
VPORT
  5
30
100
AcDbSymbolTableRecord
100
AcDbViewportTableRecord
  2
*Active
 70
0
 10
0.0
 20
0.0
 11
1.0
 21
1.0
 12
286.30555555555549
 22
148.5
 13
0.0
 23
0.0
 14
10.0
 24
10.0
 15
10.0
 25
10.0
 16
0.0
 26
0.0
 36
1.0
 17
0.0
 27
0.0
 37
0.0
 40
297.0
 41
1.92798353909465
 42
50.0
 43
0.0
 44
0.0
 50
0.0
 51
0.0
 71
0
 72
100
 73
1
 74
3
 75
1
 76
1
 77
0
 78
0
281
0
 65
1
110
0.0
120
0.0
130
0.0
111
1.0
121
0.0
131
0.0
112
0.0
122
1.0
132
0.0
 79
0
146
0.0
  0
ENDTAB
  0
TABLE
  2
LTYPE
  5
5
100
AcDbSymbolTable
 70
21
  0
LTYPE
  5
14
100
AcDbSymbolTableRecord
100
AcDbLinetypeTableRecord
  2
ByBlock
 70
0
  3

 72
65
 73
0
 40
0.0
  0
LTYPE
  5
15
100
AcDbSymbolTableRecord
100
AcDbLinetypeTableRecord
  2
ByLayer
 70
0
  3

 72
65
 73
0
 40
0.0
  0
LTYPE
  5
16
100
AcDbSymbolTableRecord
100
AcDbLinetypeTableRecord
  2
CONTINUOUS
 70
0
  3
Solid line
 72
65
 73
0
 40
0.0
  0
LTYPE
  5
31
100
AcDbSymbolTableRecord
100
AcDbLinetypeTableRecord
  2
DOT
 70
0
  3
Dot . . . . . . . . . . . . . . . . . . . . . .
 72
65
 73
2
 40
6.3499999999999996
 49
0.0
 74
0
 49
-6.3499999999999996
 74
0
  0
LTYPE
  5
32
100
AcDbSymbolTableRecord
100
AcDbLinetypeTableRecord
  2
DOT2
 70
0
  3
Dot (.5x) .....................................
 72
65
 73
2
 40
3.1749999999999998
 49
0.0
 74
0
 49
-3.1749999999999998
 74
0
  0
LTYPE
  5
33
100
AcDbSymbolTableRecord
100
AcDbLinetypeTableRecord
  2
DOTX2
 70
0
  3
Dot (2x) .  .  .  .  .  .  .  .  .  .  .  .  .
 72
65
 73
2
 40
12.699999999999999
 49
0.0
 74
0
 49
-12.699999999999999
 74
0
  0
LTYPE
  5
34
100
AcDbSymbolTableRecord
100
AcDbLinetypeTableRecord
  2
DASHED
 70
0
  3
Dashed __ __ __ __ __ __ __ __ __ __ __ __ __ _
 72
65
 73
2
 40
19.050000000000001
 49
12.699999999999999
 74
0
 49
-6.3499999999999996
 74
0
  0
LTYPE
  5
35
100
AcDbSymbolTableRecord
100
AcDbLinetypeTableRecord
  2
DASHED2
 70
0
  3
Dashed (.5x) _ _ _ _ _ _ _ _ _ _ _ _ _ _ _ _ _
 72
65
 73
2
 40
9.5250000000000004
 49
6.3499999999999996
 74
0
 49
-3.1749999999999998
 74
0
  0
LTYPE
  5
36
100
AcDbSymbolTableRecord
100
AcDbLinetypeTableRecord
  2
DASHEDX2
 70
0
  3
Dashed (2x) ____  ____  ____  ____  ____  ___
 72
65
 73
2
 40
38.100000000000001
 49
25.399999999999999
 74
0
 49
-12.699999999999999
 74
0
  0
LTYPE
  5
37
100
AcDbSymbolTableRecord
100
AcDbLinetypeTableRecord
  2
DASHDOT
 70
0
  3
Dash dot __ . __ . __ . __ . __ . __ . __ . __
 72
65
 73
4
 40
25.399999999999999
 49
12.699999999999999
 74
0
 49
-6.3499999999999996
 74
0
 49
0.0
 74
0
 49
-6.3499999999999996
 74
0
  0
LTYPE
  5
38
100
AcDbSymbolTableRecord
100
AcDbLinetypeTableRecord
  2
DASHDOT2
 70
0
  3
Dash dot (.5x) _._._._._._._._._._._._._._._.
 72
65
 73
4
 40
12.699999999999999
 49
6.3499999999999996
 74
0
 49
-3.1749999999999998
 74
0
 49
0.0
 74
0
 49
-3.1749999999999998
 74
0
  0
LTYPE
  5
39
100
AcDbSymbolTableRecord
100
AcDbLinetypeTableRecord
  2
DASHDOTX2
 70
0
  3
Dash dot (2x) ____  .  ____  .  ____  .  ___
 72
65
 73
4
 40
50.799999999999997
 49
25.399999999999999
 74
0
 49
-12.699999999999999
 74
0
 49
0.0
 74
0
 49
-12.699999999999999
 74
0
  0
LTYPE
  5
3A
100
AcDbSymbolTableRecord
100
AcDbLinetypeTableRecord
  2
DIVIDE
 70
0
  3
Divide ____ . . ____ . . ____ . . ____ . . ____
 72
65
 73
6
 40
31.75
 49
12.699999999999999
 74
0
 49
-6.3499999999999996
 74
0
 49
0.0
 74
0
 49
-6.3499999999999996
 74
0
 49
0.0
 74
0
 49
-6.3499999999999996
 74
0
  0
LTYPE
  5
3B
100
AcDbSymbolTableRecord
100
AcDbLinetypeTableRecord
  2
DIVIDE2
 70
0
  3
Divide (.5x) __..__..__..__..__..__..__..__.._
 72
65
 73
6
 40
15.875
 49
6.3499999999999996
 74
0
 49
-3.1749999999999998
 74
0
 49
0.0
 74
0
 49
-3.1749999999999998
 74
0
 49
0.0
 74
0
 49
-3.1749999999999998
 74
0
  0
LTYPE
  5
3C
100
AcDbSymbolTableRecord
100
AcDbLinetypeTableRecord
  2
DIVIDEX2
 70
0
  3
Divide (2x) ________  .  .  ________  .  .  _
 72
65
 73
6
 40
63.5
 49
25.399999999999999
 74
0
 49
-12.699999999999999
 74
0
 49
0.0
 74
0
 49
-12.699999999999999
 74
0
 49
0.0
 74
0
 49
-12.699999999999999
 74
0
  0
LTYPE
  5
3D
100
AcDbSymbolTableRecord
100
AcDbLinetypeTableRecord
  2
CENTER
 70
0
  3
Center ____ _ ____ _ ____ _ ____ _ ____ _ ____
 72
65
 73
4
 40
50.799999999999997
 49
31.75
 74
0
 49
-6.3499999999999996
 74
0
 49
6.3499999999999996
 74
0
 49
-6.3499999999999996
 74
0
  0
LTYPE
  5
3E
100
AcDbSymbolTableRecord
100
AcDbLinetypeTableRecord
  2
CENTER2
 70
0
  3
Center (.5x) ___ _ ___ _ ___ _ ___ _ ___ _ ___
 72
65
 73
4
 40
28.574999999999999
 49
19.050000000000001
 74
0
 49
-3.1749999999999998
 74
0
 49
3.1749999999999998
 74
0
 49
-3.1749999999999998
 74
0
  0
LTYPE
  5
3F
100
AcDbSymbolTableRecord
100
AcDbLinetypeTableRecord
  2
CENTERX2
 70
0
  3
Center (2x) ________  __  ________  __  _____
 72
65
 73
4
 40
101.59999999999999
 49
63.5
 74
0
 49
-12.699999999999999
 74
0
 49
12.699999999999999
 74
0
 49
-12.699999999999999
 74
0
  0
LTYPE
  5
40
100
AcDbSymbolTableRecord
100
AcDbLinetypeTableRecord
  2
BORDER
 70
0
  3
Border __ __ . __ __ . __ __ . __ __ . __ __ .
 72
65
 73
6
 40
44.450000000000003
 49
12.699999999999999
 74
0
 49
-6.3499999999999996
 74
0
 49
12.699999999999999
 74
0
 49
-6.3499999999999996
 74
0
 49
0.0
 74
0
 49
-6.3499999999999996
 74
0
  0
LTYPE
  5
41
100
AcDbSymbolTableRecord
100
AcDbLinetypeTableRecord
  2
BORDER2
 70
0
  3
Border (.5x) __.__.__.__.__.__.__.__.__.__.__.
 72
65
 73
6
 40
22.225000000000001
 49
6.3499999999999996
 74
0
 49
-3.1749999999999998
 74
0
 49
6.3499999999999996
 74
0
 49
-3.1749999999999998
 74
0
 49
0.0
 74
0
 49
-3.1749999999999998
 74
0
  0
LTYPE
  5
42
100
AcDbSymbolTableRecord
100
AcDbLinetypeTableRecord
  2
BORDERX2
 70
0
  3
Border (2x) ____  ____  .  ____  ____  .  ___
 72
65
 73
6
 40
88.900000000000006
 49
25.399999999999999
 74
0
 49
-12.699999999999999
 74
0
 49
25.399999999999999
 74
0
 49
-12.699999999999999
 74
0
 49
0.0
 74
0
 49
-12.699999999999999
 74
0
  0
ENDTAB
  0
TABLE
  2
LAYER
  5
2
100
AcDbSymbolTable
 70
2
  0
LAYER
  5
10
100
AcDbSymbolTableRecord
100
AcDbLayerTableRecord
  2
0
 70
0
 62
7
  6
CONTINUOUS
390
F
  0
LAYER
  5
43
100
AcDbSymbolTableRecord
100
AcDbLayerTableRecord
  2
Layer_1
 70
0
 62
7
  6
CONTINUOUS
390
F
  0
ENDTAB
  0
TABLE
  2
STYLE
  5
3
100
AcDbSymbolTable
 70
1
  0
STYLE
  5
11
100
AcDbSymbolTableRecord
100
AcDbTextStyleTableRecord
  2
Standard
 70
0
 40
0.0
 41
0.75
 50
0.0
 71
0
 42
2.5
  3
txt
  4

  0
ENDTAB
  0
TABLE
  2
VIEW
  5
6
100
AcDbSymbolTable
 70
0
  0
ENDTAB
  0
TABLE
  2
UCS
  5
7
100
AcDbSymbolTable
 70
0
  0
ENDTAB
  0
TABLE
  2
APPID
  5
9
100
AcDbSymbolTable
 70
1
  0
APPID
  5
12
100
AcDbSymbolTableRecord
100
AcDbRegAppTableRecord
  2
ACAD
 70
0
  0
ENDTAB
  0
TABLE
  2
DIMSTYLE
  5
A
100
AcDbSymbolTable
 70
1
100
AcDbDimStyleTable
 71
0
  0
DIMSTYLE
105
27
100
AcDbSymbolTableRecord
100
AcDbDimStyleTableRecord
  2
Standard
 41
2.5
 42
0.625
 43
3.75
 44
1.25
 70
0
 73
0
 74
0
 77
1
 78
8
140
2.5
141
2.5
143
0.03937007874016
147
0.625
171
3
172
1
271
2
272
2
274
3
278
44
283
0
284
8
340
11
  0
ENDTAB
  0
TABLE
  2
BLOCK_RECORD
  5
1
100
AcDbSymbolTable
 70
1
  0
BLOCK_RECORD
  5
1F
100
AcDbSymbolTableRecord
100
AcDbBlockTableRecord
  2
*Model_Space
340
22
  0
BLOCK_RECORD
  5
1B
100
AcDbSymbolTableRecord
100
AcDbBlockTableRecord
  2
*Paper_Space
340
1E
  0
BLOCK_RECORD
  5
23
100
AcDbSymbolTableRecord
100
AcDbBlockTableRecord
  2
*Paper_Space0
340
26
  0
ENDTAB
  0
ENDSEC
  0
SECTION
  2
BLOCKS
  0
BLOCK
  5
20
100
AcDbEntity
  8
0
100
AcDbBlockBegin
  2
*Model_Space
 70
0
 10
0.0
 20
0.0
 30
0.0
  3
*Model_Space
  1

  0
ENDBLK
  5
21
100
AcDbEntity
  8
0
100
AcDbBlockEnd
  0
BLOCK
  5
1C
100
AcDbEntity
 67
1
  8
0
100
AcDbBlockBegin
  2
*Paper_Space
 70
0
 10
0.0
 20
0.0
 30
0.0
  3
*Paper_Space
  1

  0
ENDBLK
  5
1D
100
AcDbEntity
 67
1
  8
0
100
AcDbBlockEnd
  0
BLOCK
  5
24
100
AcDbEntity
  8
0
100
AcDbBlockBegin
  2
*Paper_Space0
 70
0
 10
0.0
 20
0.0
 30
0.0
  3
*Paper_Space0
  1

  0
ENDBLK
  5
25
100
AcDbEntity
  8
0
100
AcDbBlockEnd
  0
ENDSEC
  0
SECTION
  2
ENTITIES
  0
SPLINE
  5
44
  8
Layer_1
 62
7
370
-1
  6
ByLayer
100
AcDbEntity
100
AcDbSpline
 70
8
 71
3
 72
8
 73
4
 74
0
 40
0.0
 40
0.0
 40
0.0
 40
0.0
 40
1.0
 40
1.0
 40
1.0
 40
1.0
 10
480.89899000000003
 20
102.76801
 30
0.0
 10
480.89899000000003
 20
99.983237000000003
 30
0.0
 10
479.79274299999997
 20
97.312521000000004
 30
0.0
 10
477.82361100000003
 20
95.343389000000002
 30
0.0
  0
SPLINE
  5
45
  8
Layer_1
 62
7
370
-1
  6
ByLayer
100
AcDbEntity
100
AcDbSpline
 70
8
 71
3
 72
8
 73
4
 74
0
 40
0.0
 40
0.0
 40
0.0
 40
0.0
 40
1.0
 40
1.0
 40
1.0
 40
1.0
 10
477.82361100000003
 20
95.343389000000002
 30
0.0
 10
475.85447900000003
 20
93.374257
 30
0.0
 10
473.183763
 20
92.268010000000004
 30
0.0
 10
470.39899000000003
 20
92.268010000000004
 30
0.0
  0
SPLINE
  5
46
  8
Layer_1
 62
7
370
-1
  6
ByLayer
100
AcDbEntity
100
AcDbSpline
 70
8
 71
3
 72
8
 73
4
 74
0
 40
0.0
 40
0.0
 40
0.0
 40
0.0
 40
1.0
 40
1.0
 40
1.0
 40
1.0
 10
470.39899000000003
 20
92.268010000000004
 30
0.0
 10
467.614217
 20
92.268010000000004
 30
0.0
 10
464.94350100000003
 20
93.374257
 30
0.0
 10
462.97436900000002
 20
95.343389000000002
 30
0.0
  0
SPLINE
  5
47
  8
Layer_1
 62
7
370
-1
  6
ByLayer
100
AcDbEntity
100
AcDbSpline
 70
8
 71
3
 72
8
 73
4
 74
0
 40
0.0
 40
0.0
 40
0.0
 40
0.0
 40
1.0
 40
1.0
 40
1.0
 40
1.0
 10
462.97436900000002
 20
95.343389000000002
 30
0.0
 10
461.00523700000002
 20
97.312521000000004
 30
0.0
 10
459.89899000000003
 20
99.983237000000003
 30
0.0
 10
459.89899000000003
 20
102.76801
 30
0.0
  0
SPLINE
  5
48
  8
Layer_1
 62
7
370
-1
  6
ByLayer
100
AcDbEntity
100
AcDbSpline
 70
8
 71
3
 72
8
 73
4
 74
0
 40
0.0
 40
0.0
 40
0.0
 40
0.0
 40
1.0
 40
1.0
 40
1.0
 40
1.0
 10
459.89899000000003
 20
102.76801
 30
0.0
 10
459.89899000000003
 20
105.55278300000001
 30
0.0
 10
461.00523700000002
 20
108.223499
 30
0.0
 10
462.97436900000002
 20
110.19263100000001
 30
0.0
  0
SPLINE
  5
49
  8
Layer_1
 62
7
370
-1
  6
ByLayer
100
AcDbEntity
100
AcDbSpline
 70
8
 71
3
 72
8
 73
4
 74
0
 40
0.0
 40
0.0
 40
0.0
 40
0.0
 40
1.0
 40
1.0
 40
1.0
 40
1.0
 10
462.97436900000002
 20
110.19263100000001
 30
0.0
 10
464.94350100000003
 20
112.16176299999999
 30
0.0
 10
467.614217
 20
113.26801
 30
0.0
 10
470.39899000000003
 20
113.26801
 30
0.0
  0
SPLINE
  5
4A
  8
Layer_1
 62
7
370
-1
  6
ByLayer
100
AcDbEntity
100
AcDbSpline
 70
8
 71
3
 72
8
 73
4
 74
0
 40
0.0
 40
0.0
 40
0.0
 40
0.0
 40
1.0
 40
1.0
 40
1.0
 40
1.0
 10
470.39899000000003
 20
113.26801
 30
0.0
 10
473.183763
 20
113.26801
 30
0.0
 10
475.85447900000003
 20
112.16176299999999
 30
0.0
 10
477.82361100000003
 20
110.19263100000001
 30
0.0
  0
SPLINE
  5
4B
  8
Layer_1
 62
7
370
-1
  6
ByLayer
100
AcDbEntity
100
AcDbSpline
 70
8
 71
3
 72
8
 73
4
 74
0
 40
0.0
 40
0.0
 40
0.0
 40
0.0
 40
1.0
 40
1.0
 40
1.0
 40
1.0
 10
477.82361100000003
 20
110.19263100000001
 30
0.0
 10
479.79274299999997
 20
108.223499
 30
0.0
 10
480.89899000000003
 20
105.55278300000001
 30
0.0
 10
480.89899000000003
 20
102.76801
 30
0.0
  0
LINE
  5
4C
100
AcDbEntity
100
AcDbLine
  8
Layer_1
 62
7
370
-1
  6
ByLayer
 10
480.89899000000003
 20
102.76801
 30
0.0
 11
480.89899000000003
 21
102.76801
 31
0.0
  0
SPLINE
  5
4D
  8
Layer_1
 62
7
370
-1
  6
ByLayer
100
AcDbEntity
100
AcDbSpline
 70
8
 71
3
 72
8
 73
4
 74
0
 40
0.0
 40
0.0
 40
0.0
 40
0.0
 40
1.0
 40
1.0
 40
1.0
 40
1.0
 10
86.755685
 20
231.86814000000001
 30
0.0
 10
86.756320000000002
 20
232.49377699999999
 30
0.0
 10
86.422910000000002
 20
233.07216099999999
 30
0.0
 10
85.881197999999998
 20
233.38516300000001
 30
0.0
  0
SPLINE
  5
4E
  8
Layer_1
 62
7
370
-1
  6
ByLayer
100
AcDbEntity
100
AcDbSpline
 70
8
 71
3
 72
8
 73
4
 74
0
 40
0.0
 40
0.0
 40
0.0
 40
0.0
 40
1.0
 40
1.0
 40
1.0
 40
1.0
 10
85.881197999999998
 20
233.38516300000001
 30
0.0
 10
85.339485999999994
 20
233.69816499999999
 30
0.0
 10
84.671886000000001
 20
233.69816499999999
 30
0.0
 10
84.130173999999997
 20
233.38516300000001
 30
0.0
  0
SPLINE
  5
4F
  8
Layer_1
 62
7
370
-1
  6
ByLayer
100
AcDbEntity
100
AcDbSpline
 70
8
 71
3
 72
8
 73
4
 74
0
 40
0.0
 40
0.0
 40
0.0
 40
0.0
 40
1.0
 40
1.0
 40
1.0
 40
1.0
 10
84.130173999999997
 20
233.38516300000001
 30
0.0
 10
83.588462000000007
 20
233.07216099999999
 30
0.0
 10
83.255052000000006
 20
232.49377699999999
 30
0.0
 10
83.255686999999995
 20
231.86814000000001
 30
0.0
  0
SPLINE
  5
50
  8
Layer_1
 62
7
370
-1
  6
ByLayer
100
AcDbEntity
100
AcDbSpline
 70
8
 71
3
 72
8
 73
4
 74
0
 40
0.0
 40
0.0
 40
0.0
 40
0.0
 40
1.0
 40
1.0
 40
1.0
 40
1.0
 10
83.255686999999995
 20
231.86814000000001
 30
0.0
 10
83.255052000000006
 20
231.242503
 30
0.0
 10
83.588462000000007
 20
230.664119
 30
0.0
 10
84.130173999999997
 20
230.35111699999999
 30
0.0
  0
SPLINE
  5
51
  8
Layer_1
 62
7
370
-1
  6
ByLayer
100
AcDbEntity
100
AcDbSpline
 70
8
 71
3
 72
8
 73
4
 74
0
 40
0.0
 40
0.0
 40
0.0
 40
0.0
 40
1.0
 40
1.0
 40
1.0
 40
1.0
 10
84.130173999999997
 20
230.35111699999999
 30
0.0
 10
84.671886000000001
 20
230.038115
 30
0.0
 10
85.339485999999994
 20
230.038115
 30
0.0
 10
85.881197999999998
 20
230.35111699999999
 30
0.0
  0
SPLINE
  5
52
  8
Layer_1
 62
7
370
-1
  6
ByLayer
100
AcDbEntity
100
AcDbSpline
 70
8
 71
3
 72
8
 73
4
 74
0
 40
0.0
 40
0.0
 40
0.0
 40
0.0
 40
1.0
 40
1.0
 40
1.0
 40
1.0
 10
85.881197999999998
 20
230.35111699999999
 30
0.0
 10
86.422910000000002
 20
230.664119
 30
0.0
 10
86.756320000000002
 20
231.242503
 30
0.0
 10
86.755685
 20
231.86814000000001
 30
0.0
  0
LINE
  5
53
100
AcDbEntity
100
AcDbLine
  8
Layer_1
 62
7
370
-1
  6
ByLayer
 10
86.755685
 20
231.86814000000001
 30
0.0
 11
86.755685
 21
231.86814000000001
 31
0.0
  0
SPLINE
  5
54
  8
Layer_1
 62
7
370
-1
  6
ByLayer
100
AcDbEntity
100
AcDbSpline
 70
8
 71
3
 72
8
 73
4
 74
0
 40
0.0
 40
0.0
 40
0.0
 40
0.0
 40
1.0
 40
1.0
 40
1.0
 40
1.0
 10
148.75568000000001
 20
169.86814000000001
 30
0.0
 10
148.756103
 20
170.49363700000001
 30
0.0
 10
148.42264700000001
 20
171.0718
 30
0.0
 10
147.881022
 20
171.384671
 30
0.0
  0
SPLINE
  5
55
  8
Layer_1
 62
7
370
-1
  6
ByLayer
100
AcDbEntity
100
AcDbSpline
 70
8
 71
3
 72
8
 73
4
 74
0
 40
0.0
 40
0.0
 40
0.0
 40
0.0
 40
1.0
 40
1.0
 40
1.0
 40
1.0
 10
147.881022
 20
171.384671
 30
0.0
 10
147.33939599999999
 20
171.697541
 30
0.0
 10
146.671964
 20
171.697541
 30
0.0
 10
146.13033799999999
 20
171.384671
 30
0.0
  0
SPLINE
  5
56
  8
Layer_1
 62
7
370
-1
  6
ByLayer
100
AcDbEntity
100
AcDbSpline
 70
8
 71
3
 72
8
 73
4
 74
0
 40
0.0
 40
0.0
 40
0.0
 40
0.0
 40
1.0
 40
1.0
 40
1.0
 40
1.0
 10
146.13033799999999
 20
171.384671
 30
0.0
 10
145.58871300000001
 20
171.0718
 30
0.0
 10
145.255257
 20
170.49363700000001
 30
0.0
 10
145.25568000000001
 20
169.86814000000001
 30
0.0
  0
SPLINE
  5
57
  8
Layer_1
 62
7
370
-1
  6
ByLayer
100
AcDbEntity
100
AcDbSpline
 70
8
 71
3
 72
8
 73
4
 74
0
 40
0.0
 40
0.0
 40
0.0
 40
0.0
 40
1.0
 40
1.0
 40
1.0
 40
1.0
 10
145.25568000000001
 20
169.86814000000001
 30
0.0
 10
145.255257
 20
169.24264299999999
 30
0.0
 10
145.58871300000001
 20
168.66448
 30
0.0
 10
146.13033799999999
 20
168.351609
 30
0.0
  0
SPLINE
  5
58
  8
Layer_1
 62
7
370
-1
  6
ByLayer
100
AcDbEntity
100
AcDbSpline
 70
8
 71
3
 72
8
 73
4
 74
0
 40
0.0
 40
0.0
 40
0.0
 40
0.0
 40
1.0
 40
1.0
 40
1.0
 40
1.0
 10
146.13033799999999
 20
168.351609
 30
0.0
 10
146.671964
 20
168.03873899999999
 30
0.0
 10
147.33939599999999
 20
168.03873899999999
 30
0.0
 10
147.881022
 20
168.351609
 30
0.0
  0
SPLINE
  5
59
  8
Layer_1
 62
7
370
-1
  6
ByLayer
100
AcDbEntity
100
AcDbSpline
 70
8
 71
3
 72
8
 73
4
 74
0
 40
0.0
 40
0.0
 40
0.0
 40
0.0
 40
1.0
 40
1.0
 40
1.0
 40
1.0
 10
147.881022
 20
168.351609
 30
0.0
 10
148.42264700000001
 20
168.66448
 30
0.0
 10
148.756103
 20
169.24264299999999
 30
0.0
 10
148.75568000000001
 20
169.86814000000001
 30
0.0
  0
LINE
  5
5A
100
AcDbEntity
100
AcDbLine
  8
Layer_1
 62
7
370
-1
  6
ByLayer
 10
148.75568000000001
 20
169.86814000000001
 30
0.0
 11
148.75568000000001
 21
169.86814000000001
 31
0.0
  0
SPLINE
  5
5B
  8
Layer_1
 62
7
370
-1
  6
ByLayer
100
AcDbEntity
100
AcDbSpline
 70
8
 71
3
 72
8
 73
4
 74
0
 40
0.0
 40
0.0
 40
0.0
 40
0.0
 40
1.0
 40
1.0
 40
1.0
 40
1.0
 10
140.00568999999999
 20
228.36814100000001
 30
0.0
 10
141.938683
 20
228.36813599999999
 30
0.0
 10
143.50568100000001
 20
226.80113299999999
 30
0.0
 10
143.50568000000001
 20
224.86814000000001
 30
0.0
  0
LINE
  5
5C
100
AcDbEntity
100
AcDbLine
  8
Layer_1
 62
7
370
-1
  6
ByLayer
 10
143.50568000000001
 20
224.86814000000001
 30
0.0
 11
143.50568000000001
 21
176.86814000000001
 31
0.0
  0
SPLINE
  5
5D
  8
Layer_1
 62
7
370
-1
  6
ByLayer
100
AcDbEntity
100
AcDbSpline
 70
8
 71
3
 72
8
 73
4
 74
0
 40
0.0
 40
0.0
 40
0.0
 40
0.0
 40
1.0
 40
1.0
 40
1.0
 40
1.0
 10
143.50568000000001
 20
176.86814000000001
 30
0.0
 10
143.505675
 20
174.93515099999999
 30
0.0
 10
141.93867900000001
 20
173.368155
 30
0.0
 10
140.00568999999999
 20
173.36815000000001
 30
0.0
  0
LINE
  5
5E
100
AcDbEntity
100
AcDbLine
  8
Layer_1
 62
7
370
-1
  6
ByLayer
 10
140.00568999999999
 20
173.36815000000001
 30
0.0
 11
92.005685
 21
173.36815000000001
 31
0.0
  0
SPLINE
  5
5F
  8
Layer_1
 62
7
370
-1
  6
ByLayer
100
AcDbEntity
100
AcDbSpline
 70
8
 71
3
 72
8
 73
4
 74
0
 40
0.0
 40
0.0
 40
0.0
 40
0.0
 40
1.0
 40
1.0
 40
1.0
 40
1.0
 10
92.005685
 20
173.36815000000001
 30
0.0
 10
90.072693000000001
 20
173.36815100000001
 30
0.0
 10
88.505691999999996
 20
174.935148
 30
0.0
 10
88.505686999999995
 20
176.86814000000001
 30
0.0
  0
LINE
  5
60
100
AcDbEntity
100
AcDbLine
  8
Layer_1
 62
7
370
-1
  6
ByLayer
 10
88.505686999999995
 20
176.86814000000001
 30
0.0
 11
88.505686999999995
 21
224.86814000000001
 31
0.0
  0
SPLINE
  5
61
  8
Layer_1
 62
7
370
-1
  6
ByLayer
100
AcDbEntity
100
AcDbSpline
 70
8
 71
3
 72
8
 73
4
 74
0
 40
0.0
 40
0.0
 40
0.0
 40
0.0
 40
1.0
 40
1.0
 40
1.0
 40
1.0
 10
88.505686999999995
 20
224.86814000000001
 30
0.0
 10
88.505685999999997
 20
226.80113600000001
 30
0.0
 10
90.072688999999997
 20
228.36814000000001
 30
0.0
 10
92.005685
 20
228.36814100000001
 30
0.0
  0
LINE
  5
62
100
AcDbEntity
100
AcDbLine
  8
Layer_1
 62
7
370
-1
  6
ByLayer
 10
92.005685
 20
228.36814100000001
 30
0.0
 11
140.00568999999999
 21
228.36814100000001
 31
0.0
  0
SPLINE
  5
63
  8
Layer_1
 62
7
370
-1
  6
ByLayer
100
AcDbEntity
100
AcDbSpline
 70
8
 71
3
 72
8
 73
4
 74
0
 40
0.0
 40
0.0
 40
0.0
 40
0.0
 40
1.0
 40
1.0
 40
1.0
 40
1.0
 10
86.755685
 20
169.86814000000001
 30
0.0
 10
86.756320000000002
 20
170.49377699999999
 30
0.0
 10
86.422910000000002
 20
171.07216099999999
 30
0.0
 10
85.881197999999998
 20
171.38516300000001
 30
0.0
  0
SPLINE
  5
64
  8
Layer_1
 62
7
370
-1
  6
ByLayer
100
AcDbEntity
100
AcDbSpline
 70
8
 71
3
 72
8
 73
4
 74
0
 40
0.0
 40
0.0
 40
0.0
 40
0.0
 40
1.0
 40
1.0
 40
1.0
 40
1.0
 10
85.881197999999998
 20
171.38516300000001
 30
0.0
 10
85.339485999999994
 20
171.69816499999999
 30
0.0
 10
84.671886000000001
 20
171.69816499999999
 30
0.0
 10
84.130173999999997
 20
171.38516300000001
 30
0.0
  0
SPLINE
  5
65
  8
Layer_1
 62
7
370
-1
  6
ByLayer
100
AcDbEntity
100
AcDbSpline
 70
8
 71
3
 72
8
 73
4
 74
0
 40
0.0
 40
0.0
 40
0.0
 40
0.0
 40
1.0
 40
1.0
 40
1.0
 40
1.0
 10
84.130173999999997
 20
171.38516300000001
 30
0.0
 10
83.588462000000007
 20
171.07216099999999
 30
0.0
 10
83.255052000000006
 20
170.49377699999999
 30
0.0
 10
83.255686999999995
 20
169.86814000000001
 30
0.0
  0
SPLINE
  5
66
  8
Layer_1
 62
7
370
-1
  6
ByLayer
100
AcDbEntity
100
AcDbSpline
 70
8
 71
3
 72
8
 73
4
 74
0
 40
0.0
 40
0.0
 40
0.0
 40
0.0
 40
1.0
 40
1.0
 40
1.0
 40
1.0
 10
83.255686999999995
 20
169.86814000000001
 30
0.0
 10
83.255052000000006
 20
169.242503
 30
0.0
 10
83.588462000000007
 20
168.664119
 30
0.0
 10
84.130173999999997
 20
168.35111699999999
 30
0.0
  0
SPLINE
  5
67
  8
Layer_1
 62
7
370
-1
  6
ByLayer
100
AcDbEntity
100
AcDbSpline
 70
8
 71
3
 72
8
 73
4
 74
0
 40
0.0
 40
0.0
 40
0.0
 40
0.0
 40
1.0
 40
1.0
 40
1.0
 40
1.0
 10
84.130173999999997
 20
168.35111699999999
 30
0.0
 10
84.671886000000001
 20
168.038115
 30
0.0
 10
85.339485999999994
 20
168.038115
 30
0.0
 10
85.881197999999998
 20
168.35111699999999
 30
0.0
  0
SPLINE
  5
68
  8
Layer_1
 62
7
370
-1
  6
ByLayer
100
AcDbEntity
100
AcDbSpline
 70
8
 71
3
 72
8
 73
4
 74
0
 40
0.0
 40
0.0
 40
0.0
 40
0.0
 40
1.0
 40
1.0
 40
1.0
 40
1.0
 10
85.881197999999998
 20
168.35111699999999
 30
0.0
 10
86.422910000000002
 20
168.664119
 30
0.0
 10
86.756320000000002
 20
169.242503
 30
0.0
 10
86.755685
 20
169.86814000000001
 30
0.0
  0
LINE
  5
69
100
AcDbEntity
100
AcDbLine
  8
Layer_1
 62
7
370
-1
  6
ByLayer
 10
86.755685
 20
169.86814000000001
 30
0.0
 11
86.755685
 21
169.86814000000001
 31
0.0
  0
SPLINE
  5
6A
  8
Layer_1
 62
7
370
-1
  6
ByLayer
100
AcDbEntity
100
AcDbSpline
 70
8
 71
3
 72
8
 73
4
 74
0
 40
0.0
 40
0.0
 40
0.0
 40
0.0
 40
1.0
 40
1.0
 40
1.0
 40
1.0
 10
461.899
 20
207.76800499999999
 30
0.0
 10
461.899
 20
211.87656000000001
 30
0.0
 10
459.70711299999999
 20
215.67302100000001
 30
0.0
 10
456.149
 20
217.72729799999999
 30
0.0
  0
SPLINE
  5
6B
  8
Layer_1
 62
7
370
-1
  6
ByLayer
100
AcDbEntity
100
AcDbSpline
 70
8
 71
3
 72
8
 73
4
 74
0
 40
0.0
 40
0.0
 40
0.0
 40
0.0
 40
1.0
 40
1.0
 40
1.0
 40
1.0
 10
456.149
 20
217.72729799999999
 30
0.0
 10
452.59088800000001
 20
219.781575
 30
0.0
 10
448.207112
 20
219.781575
 30
0.0
 10
444.649
 20
217.72729799999999
 30
0.0
  0
SPLINE
  5
6C
  8
Layer_1
 62
7
370
-1
  6
ByLayer
100
AcDbEntity
100
AcDbSpline
 70
8
 71
3
 72
8
 73
4
 74
0
 40
0.0
 40
0.0
 40
0.0
 40
0.0
 40
1.0
 40
1.0
 40
1.0
 40
1.0
 10
444.649
 20
217.72729799999999
 30
0.0
 10
441.09088700000001
 20
215.67302100000001
 30
0.0
 10
438.899
 20
211.87656000000001
 30
0.0
 10
438.899
 20
207.76800499999999
 30
0.0
  0
SPLINE
  5
6D
  8
Layer_1
 62
7
370
-1
  6
ByLayer
100
AcDbEntity
100
AcDbSpline
 70
8
 71
3
 72
8
 73
4
 74
0
 40
0.0
 40
0.0
 40
0.0
 40
0.0
 40
1.0
 40
1.0
 40
1.0
 40
1.0
 10
438.899
 20
207.76800499999999
 30
0.0
 10
438.899
 20
203.65944999999999
 30
0.0
 10
441.09088700000001
 20
199.862989
 30
0.0
 10
444.649
 20
197.80871200000001
 30
0.0
  0
SPLINE
  5
6E
  8
Layer_1
 62
7
370
-1
  6
ByLayer
100
AcDbEntity
100
AcDbSpline
 70
8
 71
3
 72
8
 73
4
 74
0
 40
0.0
 40
0.0
 40
0.0
 40
0.0
 40
1.0
 40
1.0
 40
1.0
 40
1.0
 10
444.649
 20
197.80871200000001
 30
0.0
 10
448.207112
 20
195.754435
 30
0.0
 10
452.59088800000001
 20
195.754435
 30
0.0
 10
456.149
 20
197.80871200000001
 30
0.0
  0
SPLINE
  5
6F
  8
Layer_1
 62
7
370
-1
  6
ByLayer
100
AcDbEntity
100
AcDbSpline
 70
8
 71
3
 72
8
 73
4
 74
0
 40
0.0
 40
0.0
 40
0.0
 40
0.0
 40
1.0
 40
1.0
 40
1.0
 40
1.0
 10
456.149
 20
197.80871200000001
 30
0.0
 10
459.70711299999999
 20
199.862989
 30
0.0
 10
461.899
 20
203.65944999999999
 30
0.0
 10
461.899
 20
207.76800499999999
 30
0.0
  0
LINE
  5
70
100
AcDbEntity
100
AcDbLine
  8
Layer_1
 62
7
370
-1
  6
ByLayer
 10
461.899
 20
207.76800499999999
 30
0.0
 11
461.899
 21
207.76800499999999
 31
0.0
  0
SPLINE
  5
71
  8
Layer_1
 62
7
370
-1
  6
ByLayer
100
AcDbEntity
100
AcDbSpline
 70
8
 71
3
 72
8
 73
4
 74
0
 40
0.0
 40
0.0
 40
0.0
 40
0.0
 40
1.0
 40
1.0
 40
1.0
 40
1.0
 10
101.89881
 20
132.76786999999999
 30
0.0
 10
101.901234
 20
136.878039
 30
0.0
 10
99.709877000000006
 20
140.67703
 30
0.0
 10
96.150768999999997
 20
142.73281499999999
 30
0.0
  0
SPLINE
  5
72
  8
Layer_1
 62
7
370
-1
  6
ByLayer
100
AcDbEntity
100
AcDbSpline
 70
8
 71
3
 72
8
 73
4
 74
0
 40
0.0
 40
0.0
 40
0.0
 40
0.0
 40
1.0
 40
1.0
 40
1.0
 40
1.0
 10
96.150768999999997
 20
142.73281499999999
 30
0.0
 10
92.591661999999999
 20
144.7886
 30
0.0
 10
88.205960000000005
 20
144.7886
 30
0.0
 10
84.646852999999993
 20
142.73281499999999
 30
0.0
  0
SPLINE
  5
73
  8
Layer_1
 62
7
370
-1
  6
ByLayer
100
AcDbEntity
100
AcDbSpline
 70
8
 71
3
 72
8
 73
4
 74
0
 40
0.0
 40
0.0
 40
0.0
 40
0.0
 40
1.0
 40
1.0
 40
1.0
 40
1.0
 10
84.646852999999993
 20
142.73281499999999
 30
0.0
 10
81.087744999999998
 20
140.67703
 30
0.0
 10
78.896388000000002
 20
136.878039
 30
0.0
 10
78.898812000000007
 20
132.76786999999999
 30
0.0
  0
SPLINE
  5
74
  8
Layer_1
 62
7
370
-1
  6
ByLayer
100
AcDbEntity
100
AcDbSpline
 70
8
 71
3
 72
8
 73
4
 74
0
 40
0.0
 40
0.0
 40
0.0
 40
0.0
 40
1.0
 40
1.0
 40
1.0
 40
1.0
 10
78.898812000000007
 20
132.76786999999999
 30
0.0
 10
78.896388000000002
 20
128.657701
 30
0.0
 10
81.087744999999998
 20
124.85871
 30
0.0
 10
84.646852999999993
 20
122.802925
 30
0.0
  0
SPLINE
  5
75
  8
Layer_1
 62
7
370
-1
  6
ByLayer
100
AcDbEntity
100
AcDbSpline
 70
8
 71
3
 72
8
 73
4
 74
0
 40
0.0
 40
0.0
 40
0.0
 40
0.0
 40
1.0
 40
1.0
 40
1.0
 40
1.0
 10
84.646852999999993
 20
122.802925
 30
0.0
 10
88.205960000000005
 20
120.74714
 30
0.0
 10
92.591661999999999
 20
120.74714
 30
0.0
 10
96.150768999999997
 20
122.802925
 30
0.0
  0
SPLINE
  5
76
  8
Layer_1
 62
7
370
-1
  6
ByLayer
100
AcDbEntity
100
AcDbSpline
 70
8
 71
3
 72
8
 73
4
 74
0
 40
0.0
 40
0.0
 40
0.0
 40
0.0
 40
1.0
 40
1.0
 40
1.0
 40
1.0
 10
96.150768999999997
 20
122.802925
 30
0.0
 10
99.709877000000006
 20
124.85871
 30
0.0
 10
101.901234
 20
128.657701
 30
0.0
 10
101.89881
 20
132.76786999999999
 30
0.0
  0
LINE
  5
77
100
AcDbEntity
100
AcDbLine
  8
Layer_1
 62
7
370
-1
  6
ByLayer
 10
101.89881
 20
132.76786999999999
 30
0.0
 11
101.89881
 21
132.76786999999999
 31
0.0
  0
SPLINE
  5
78
  8
Layer_1
 62
7
370
-1
  6
ByLayer
100
AcDbEntity
100
AcDbSpline
 70
8
 71
3
 72
8
 73
4
 74
0
 40
0.0
 40
0.0
 40
0.0
 40
0.0
 40
1.0
 40
1.0
 40
1.0
 40
1.0
 10
151.89881
 20
132.76786999999999
 30
0.0
 10
151.90052399999999
 20
136.877567
 30
0.0
 10
149.709011
 20
140.675816
 30
0.0
 10
146.150195
 20
142.73115899999999
 30
0.0
  0
SPLINE
  5
79
  8
Layer_1
 62
7
370
-1
  6
ByLayer
100
AcDbEntity
100
AcDbSpline
 70
8
 71
3
 72
8
 73
4
 74
0
 40
0.0
 40
0.0
 40
0.0
 40
0.0
 40
1.0
 40
1.0
 40
1.0
 40
1.0
 10
146.150195
 20
142.73115899999999
 30
0.0
 10
142.59137899999999
 20
144.78650300000001
 30
0.0
 10
138.20624100000001
 20
144.78650300000001
 30
0.0
 10
134.647425
 20
142.73115899999999
 30
0.0
  0
SPLINE
  5
7A
  8
Layer_1
 62
7
370
-1
  6
ByLayer
100
AcDbEntity
100
AcDbSpline
 70
8
 71
3
 72
8
 73
4
 74
0
 40
0.0
 40
0.0
 40
0.0
 40
0.0
 40
1.0
 40
1.0
 40
1.0
 40
1.0
 10
134.647425
 20
142.73115899999999
 30
0.0
 10
131.08860899999999
 20
140.675816
 30
0.0
 10
128.897096
 20
136.877567
 30
0.0
 10
128.89881
 20
132.76786999999999
 30
0.0
  0
SPLINE
  5
7B
  8
Layer_1
 62
7
370
-1
  6
ByLayer
100
AcDbEntity
100
AcDbSpline
 70
8
 71
3
 72
8
 73
4
 74
0
 40
0.0
 40
0.0
 40
0.0
 40
0.0
 40
1.0
 40
1.0
 40
1.0
 40
1.0
 10
128.89881
 20
132.76786999999999
 30
0.0
 10
128.897096
 20
128.65817300000001
 30
0.0
 10
131.08860899999999
 20
124.85992400000001
 30
0.0
 10
134.647425
 20
122.804581
 30
0.0
  0
SPLINE
  5
7C
  8
Layer_1
 62
7
370
-1
  6
ByLayer
100
AcDbEntity
100
AcDbSpline
 70
8
 71
3
 72
8
 73
4
 74
0
 40
0.0
 40
0.0
 40
0.0
 40
0.0
 40
1.0
 40
1.0
 40
1.0
 40
1.0
 10
134.647425
 20
122.804581
 30
0.0
 10
138.20624100000001
 20
120.74923699999999
 30
0.0
 10
142.59137899999999
 20
120.74923699999999
 30
0.0
 10
146.150195
 20
122.804581
 30
0.0
  0
SPLINE
  5
7D
  8
Layer_1
 62
7
370
-1
  6
ByLayer
100
AcDbEntity
100
AcDbSpline
 70
8
 71
3
 72
8
 73
4
 74
0
 40
0.0
 40
0.0
 40
0.0
 40
0.0
 40
1.0
 40
1.0
 40
1.0
 40
1.0
 10
146.150195
 20
122.804581
 30
0.0
 10
149.709011
 20
124.85992400000001
 30
0.0
 10
151.90052399999999
 20
128.65817300000001
 30
0.0
 10
151.89881
 20
132.76786999999999
 30
0.0
  0
LINE
  5
7E
100
AcDbEntity
100
AcDbLine
  8
Layer_1
 62
7
370
-1
  6
ByLayer
 10
151.89881
 20
132.76786999999999
 30
0.0
 11
151.89881
 21
132.76786999999999
 31
0.0
  0
SPLINE
  5
7F
  8
Layer_1
 62
7
370
-1
  6
ByLayer
100
AcDbEntity
100
AcDbSpline
 70
8
 71
3
 72
8
 73
4
 74
0
 40
0.0
 40
0.0
 40
0.0
 40
0.0
 40
1.0
 40
1.0
 40
1.0
 40
1.0
 10
461.899
 20
142.76802000000001
 30
0.0
 10
461.899
 20
146.876575
 30
0.0
 10
459.70711299999999
 20
150.673036
 30
0.0
 10
456.149
 20
152.72731300000001
 30
0.0
  0
SPLINE
  5
80
  8
Layer_1
 62
7
370
-1
  6
ByLayer
100
AcDbEntity
100
AcDbSpline
 70
8
 71
3
 72
8
 73
4
 74
0
 40
0.0
 40
0.0
 40
0.0
 40
0.0
 40
1.0
 40
1.0
 40
1.0
 40
1.0
 10
456.149
 20
152.72731300000001
 30
0.0
 10
452.59088800000001
 20
154.78158999999999
 30
0.0
 10
448.207112
 20
154.78158999999999
 30
0.0
 10
444.649
 20
152.72731300000001
 30
0.0
  0
SPLINE
  5
81
  8
Layer_1
 62
7
370
-1
  6
ByLayer
100
AcDbEntity
100
AcDbSpline
 70
8
 71
3
 72
8
 73
4
 74
0
 40
0.0
 40
0.0
 40
0.0
 40
0.0
 40
1.0
 40
1.0
 40
1.0
 40
1.0
 10
444.649
 20
152.72731300000001
 30
0.0
 10
441.09088700000001
 20
150.673036
 30
0.0
 10
438.899
 20
146.876575
 30
0.0
 10
438.899
 20
142.76802000000001
 30
0.0
  0
SPLINE
  5
82
  8
Layer_1
 62
7
370
-1
  6
ByLayer
100
AcDbEntity
100
AcDbSpline
 70
8
 71
3
 72
8
 73
4
 74
0
 40
0.0
 40
0.0
 40
0.0
 40
0.0
 40
1.0
 40
1.0
 40
1.0
 40
1.0
 10
438.899
 20
142.76802000000001
 30
0.0
 10
438.899
 20
138.65946500000001
 30
0.0
 10
441.09088700000001
 20
134.86300399999999
 30
0.0
 10
444.649
 20
132.808727
 30
0.0
  0
SPLINE
  5
83
  8
Layer_1
 62
7
370
-1
  6
ByLayer
100
AcDbEntity
100
AcDbSpline
 70
8
 71
3
 72
8
 73
4
 74
0
 40
0.0
 40
0.0
 40
0.0
 40
0.0
 40
1.0
 40
1.0
 40
1.0
 40
1.0
 10
444.649
 20
132.808727
 30
0.0
 10
448.207112
 20
130.75444999999999
 30
0.0
 10
452.59088800000001
 20
130.75444999999999
 30
0.0
 10
456.149
 20
132.808727
 30
0.0
  0
SPLINE
  5
84
  8
Layer_1
 62
7
370
-1
  6
ByLayer
100
AcDbEntity
100
AcDbSpline
 70
8
 71
3
 72
8
 73
4
 74
0
 40
0.0
 40
0.0
 40
0.0
 40
0.0
 40
1.0
 40
1.0
 40
1.0
 40
1.0
 10
456.149
 20
132.808727
 30
0.0
 10
459.70711299999999
 20
134.86300399999999
 30
0.0
 10
461.899
 20
138.65946500000001
 30
0.0
 10
461.899
 20
142.76802000000001
 30
0.0
  0
LINE
  5
85
100
AcDbEntity
100
AcDbLine
  8
Layer_1
 62
7
370
-1
  6
ByLayer
 10
461.899
 20
142.76802000000001
 30
0.0
 11
461.899
 21
142.76802000000001
 31
0.0
  0
SPLINE
  5
86
  8
Layer_1
 62
7
370
-1
  6
ByLayer
100
AcDbEntity
100
AcDbSpline
 70
8
 71
3
 72
8
 73
4
 74
0
 40
0.0
 40
0.0
 40
0.0
 40
0.0
 40
1.0
 40
1.0
 40
1.0
 40
1.0
 10
409.899
 20
142.76802000000001
 30
0.0
 10
409.90030300000001
 20
146.16291200000001
 30
0.0
 10
408.089899
 20
149.300479
 30
0.0
 10
405.15005300000001
 20
150.998301
 30
0.0
  0
SPLINE
  5
87
  8
Layer_1
 62
7
370
-1
  6
ByLayer
100
AcDbEntity
100
AcDbSpline
 70
8
 71
3
 72
8
 73
4
 74
0
 40
0.0
 40
0.0
 40
0.0
 40
0.0
 40
1.0
 40
1.0
 40
1.0
 40
1.0
 10
405.15005300000001
 20
150.998301
 30
0.0
 10
402.21020800000002
 20
152.696123
 30
0.0
 10
398.58779199999998
 20
152.696123
 30
0.0
 10
395.64794699999999
 20
150.998301
 30
0.0
  0
SPLINE
  5
88
  8
Layer_1
 62
7
370
-1
  6
ByLayer
100
AcDbEntity
100
AcDbSpline
 70
8
 71
3
 72
8
 73
4
 74
0
 40
0.0
 40
0.0
 40
0.0
 40
0.0
 40
1.0
 40
1.0
 40
1.0
 40
1.0
 10
395.64794699999999
 20
150.998301
 30
0.0
 10
392.708101
 20
149.300479
 30
0.0
 10
390.89769699999999
 20
146.16291200000001
 30
0.0
 10
390.899
 20
142.76802000000001
 30
0.0
  0
SPLINE
  5
89
  8
Layer_1
 62
7
370
-1
  6
ByLayer
100
AcDbEntity
100
AcDbSpline
 70
8
 71
3
 72
8
 73
4
 74
0
 40
0.0
 40
0.0
 40
0.0
 40
0.0
 40
1.0
 40
1.0
 40
1.0
 40
1.0
 10
390.899
 20
142.76802000000001
 30
0.0
 10
390.89769699999999
 20
139.37312800000001
 30
0.0
 10
392.708101
 20
136.23556099999999
 30
0.0
 10
395.64794699999999
 20
134.53773899999999
 30
0.0
  0
SPLINE
  5
8A
  8
Layer_1
 62
7
370
-1
  6
ByLayer
100
AcDbEntity
100
AcDbSpline
 70
8
 71
3
 72
8
 73
4
 74
0
 40
0.0
 40
0.0
 40
0.0
 40
0.0
 40
1.0
 40
1.0
 40
1.0
 40
1.0
 10
395.64794699999999
 20
134.53773899999999
 30
0.0
 10
398.58779199999998
 20
132.83991700000001
 30
0.0
 10
402.21020800000002
 20
132.83991700000001
 30
0.0
 10
405.15005300000001
 20
134.53773899999999
 30
0.0
  0
SPLINE
  5
8B
  8
Layer_1
 62
7
370
-1
  6
ByLayer
100
AcDbEntity
100
AcDbSpline
 70
8
 71
3
 72
8
 73
4
 74
0
 40
0.0
 40
0.0
 40
0.0
 40
0.0
 40
1.0
 40
1.0
 40
1.0
 40
1.0
 10
405.15005300000001
 20
134.53773899999999
 30
0.0
 10
408.089899
 20
136.23556099999999
 30
0.0
 10
409.90030300000001
 20
139.37312800000001
 30
0.0
 10
409.899
 20
142.76802000000001
 30
0.0
  0
LINE
  5
8C
100
AcDbEntity
100
AcDbLine
  8
Layer_1
 62
7
370
-1
  6
ByLayer
 10
409.899
 20
142.76802000000001
 30
0.0
 11
409.899
 21
142.76802000000001
 31
0.0
  0
SPLINE
  5
8D
  8
Layer_1
 62
7
370
-1
  6
ByLayer
100
AcDbEntity
100
AcDbSpline
 70
8
 71
3
 72
8
 73
4
 74
0
 40
0.0
 40
0.0
 40
0.0
 40
0.0
 40
1.0
 40
1.0
 40
1.0
 40
1.0
 10
31.898813000000001
 20
274.26786199999998
 30
0.0
 10
31.899090000000001
 20
275.33984299999997
 30
0.0
 10
31.327352999999999
 20
276.33051399999999
 30
0.0
 10
30.399035999999999
 20
276.86658399999999
 30
0.0
  0
SPLINE
  5
8E
  8
Layer_1
 62
7
370
-1
  6
ByLayer
100
AcDbEntity
100
AcDbSpline
 70
8
 71
3
 72
8
 73
4
 74
0
 40
0.0
 40
0.0
 40
0.0
 40
0.0
 40
1.0
 40
1.0
 40
1.0
 40
1.0
 10
30.399035999999999
 20
276.86658399999999
 30
0.0
 10
29.470718999999999
 20
277.40265499999998
 30
0.0
 10
28.326906000000001
 20
277.40265499999998
 30
0.0
 10
27.398589000000001
 20
276.86658399999999
 30
0.0
  0
SPLINE
  5
8F
  8
Layer_1
 62
7
370
-1
  6
ByLayer
100
AcDbEntity
100
AcDbSpline
 70
8
 71
3
 72
8
 73
4
 74
0
 40
0.0
 40
0.0
 40
0.0
 40
0.0
 40
1.0
 40
1.0
 40
1.0
 40
1.0
 10
27.398589000000001
 20
276.86658399999999
 30
0.0
 10
26.470272000000001
 20
276.33051399999999
 30
0.0
 10
25.898534999999999
 20
275.33984299999997
 30
0.0
 10
25.898812
 20
274.26786199999998
 30
0.0
  0
SPLINE
  5
90
  8
Layer_1
 62
7
370
-1
  6
ByLayer
100
AcDbEntity
100
AcDbSpline
 70
8
 71
3
 72
8
 73
4
 74
0
 40
0.0
 40
0.0
 40
0.0
 40
0.0
 40
1.0
 40
1.0
 40
1.0
 40
1.0
 10
25.898812
 20
274.26786199999998
 30
0.0
 10
25.898534999999999
 20
273.19588099999999
 30
0.0
 10
26.470272000000001
 20
272.20521000000002
 30
0.0
 10
27.398589000000001
 20
271.66914000000003
 30
0.0
  0
SPLINE
  5
91
  8
Layer_1
 62
7
370
-1
  6
ByLayer
100
AcDbEntity
100
AcDbSpline
 70
8
 71
3
 72
8
 73
4
 74
0
 40
0.0
 40
0.0
 40
0.0
 40
0.0
 40
1.0
 40
1.0
 40
1.0
 40
1.0
 10
27.398589000000001
 20
271.66914000000003
 30
0.0
 10
28.326906000000001
 20
271.13306899999998
 30
0.0
 10
29.470718999999999
 20
271.13306899999998
 30
0.0
 10
30.399035999999999
 20
271.66914000000003
 30
0.0
  0
SPLINE
  5
92
  8
Layer_1
 62
7
370
-1
  6
ByLayer
100
AcDbEntity
100
AcDbSpline
 70
8
 71
3
 72
8
 73
4
 74
0
 40
0.0
 40
0.0
 40
0.0
 40
0.0
 40
1.0
 40
1.0
 40
1.0
 40
1.0
 10
30.399035999999999
 20
271.66914000000003
 30
0.0
 10
31.327352999999999
 20
272.20521000000002
 30
0.0
 10
31.899090000000001
 20
273.19588099999999
 30
0.0
 10
31.898813000000001
 20
274.26786199999998
 30
0.0
  0
LINE
  5
93
100
AcDbEntity
100
AcDbLine
  8
Layer_1
 62
7
370
-1
  6
ByLayer
 10
31.898813000000001
 20
274.26786199999998
 30
0.0
 11
31.898813000000001
 21
274.26786199999998
 31
0.0
  0
SPLINE
  5
94
  8
Layer_1
 62
7
370
-1
  6
ByLayer
100
AcDbEntity
100
AcDbSpline
 70
8
 71
3
 72
8
 73
4
 74
0
 40
0.0
 40
0.0
 40
0.0
 40
0.0
 40
1.0
 40
1.0
 40
1.0
 40
1.0
 10
31.898813000000001
 20
76.267870000000002
 30
0.0
 10
31.899090000000001
 20
77.339850999999996
 30
0.0
 10
31.327352999999999
 20
78.330522000000002
 30
0.0
 10
30.399035999999999
 20
78.866591999999997
 30
0.0
  0
SPLINE
  5
95
  8
Layer_1
 62
7
370
-1
  6
ByLayer
100
AcDbEntity
100
AcDbSpline
 70
8
 71
3
 72
8
 73
4
 74
0
 40
0.0
 40
0.0
 40
0.0
 40
0.0
 40
1.0
 40
1.0
 40
1.0
 40
1.0
 10
30.399035999999999
 20
78.866591999999997
 30
0.0
 10
29.470718999999999
 20
79.402663000000004
 30
0.0
 10
28.326906000000001
 20
79.402663000000004
 30
0.0
 10
27.398589000000001
 20
78.866591999999997
 30
0.0
  0
SPLINE
  5
96
  8
Layer_1
 62
7
370
-1
  6
ByLayer
100
AcDbEntity
100
AcDbSpline
 70
8
 71
3
 72
8
 73
4
 74
0
 40
0.0
 40
0.0
 40
0.0
 40
0.0
 40
1.0
 40
1.0
 40
1.0
 40
1.0
 10
27.398589000000001
 20
78.866591999999997
 30
0.0
 10
26.470272000000001
 20
78.330522000000002
 30
0.0
 10
25.898534999999999
 20
77.339850999999996
 30
0.0
 10
25.898812
 20
76.267870000000002
 30
0.0
  0
SPLINE
  5
97
  8
Layer_1
 62
7
370
-1
  6
ByLayer
100
AcDbEntity
100
AcDbSpline
 70
8
 71
3
 72
8
 73
4
 74
0
 40
0.0
 40
0.0
 40
0.0
 40
0.0
 40
1.0
 40
1.0
 40
1.0
 40
1.0
 10
25.898812
 20
76.267870000000002
 30
0.0
 10
25.898534999999999
 20
75.195888999999994
 30
0.0
 10
26.470272000000001
 20
74.205218000000002
 30
0.0
 10
27.398589000000001
 20
73.669148000000007
 30
0.0
  0
SPLINE
  5
98
  8
Layer_1
 62
7
370
-1
  6
ByLayer
100
AcDbEntity
100
AcDbSpline
 70
8
 71
3
 72
8
 73
4
 74
0
 40
0.0
 40
0.0
 40
0.0
 40
0.0
 40
1.0
 40
1.0
 40
1.0
 40
1.0
 10
27.398589000000001
 20
73.669148000000007
 30
0.0
 10
28.326906000000001
 20
73.133077
 30
0.0
 10
29.470718999999999
 20
73.133077
 30
0.0
 10
30.399035999999999
 20
73.669148000000007
 30
0.0
  0
SPLINE
  5
99
  8
Layer_1
 62
7
370
-1
  6
ByLayer
100
AcDbEntity
100
AcDbSpline
 70
8
 71
3
 72
8
 73
4
 74
0
 40
0.0
 40
0.0
 40
0.0
 40
0.0
 40
1.0
 40
1.0
 40
1.0
 40
1.0
 10
30.399035999999999
 20
73.669148000000007
 30
0.0
 10
31.327352999999999
 20
74.205218000000002
 30
0.0
 10
31.899090000000001
 20
75.195888999999994
 30
0.0
 10
31.898813000000001
 20
76.267870000000002
 30
0.0
  0
LINE
  5
9A
100
AcDbEntity
100
AcDbLine
  8
Layer_1
 62
7
370
-1
  6
ByLayer
 10
31.898813000000001
 20
76.267870000000002
 30
0.0
 11
31.898813000000001
 21
76.267870000000002
 31
0.0
  0
SPLINE
  5
9B
  8
Layer_1
 62
7
370
-1
  6
ByLayer
100
AcDbEntity
100
AcDbSpline
 70
8
 71
3
 72
8
 73
4
 74
0
 40
0.0
 40
0.0
 40
0.0
 40
0.0
 40
1.0
 40
1.0
 40
1.0
 40
1.0
 10
519.89881000000003
 20
76.267870000000002
 30
0.0
 10
519.89948800000002
 20
77.340119000000001
 30
0.0
 10
519.32784000000004
 20
78.331208000000004
 30
0.0
 10
518.39935800000001
 20
78.867527999999993
 30
0.0
  0
SPLINE
  5
9C
  8
Layer_1
 62
7
370
-1
  6
ByLayer
100
AcDbEntity
100
AcDbSpline
 70
8
 71
3
 72
8
 73
4
 74
0
 40
0.0
 40
0.0
 40
0.0
 40
0.0
 40
1.0
 40
1.0
 40
1.0
 40
1.0
 10
518.39935800000001
 20
78.867527999999993
 30
0.0
 10
517.47087599999998
 20
79.403847999999996
 30
0.0
 10
516.32674399999996
 20
79.403847999999996
 30
0.0
 10
515.39826200000005
 20
78.867527999999993
 30
0.0
  0
SPLINE
  5
9D
  8
Layer_1
 62
7
370
-1
  6
ByLayer
100
AcDbEntity
100
AcDbSpline
 70
8
 71
3
 72
8
 73
4
 74
0
 40
0.0
 40
0.0
 40
0.0
 40
0.0
 40
1.0
 40
1.0
 40
1.0
 40
1.0
 10
515.39826200000005
 20
78.867527999999993
 30
0.0
 10
514.46978000000001
 20
78.331208000000004
 30
0.0
 10
513.89813200000003
 20
77.340119000000001
 30
0.0
 10
513.89881000000003
 20
76.267870000000002
 30
0.0
  0
SPLINE
  5
9E
  8
Layer_1
 62
7
370
-1
  6
ByLayer
100
AcDbEntity
100
AcDbSpline
 70
8
 71
3
 72
8
 73
4
 74
0
 40
0.0
 40
0.0
 40
0.0
 40
0.0
 40
1.0
 40
1.0
 40
1.0
 40
1.0
 10
513.89881000000003
 20
76.267870000000002
 30
0.0
 10
513.89813200000003
 20
75.195621000000003
 30
0.0
 10
514.46978000000001
 20
74.204532
 30
0.0
 10
515.39826200000005
 20
73.668211999999997
 30
0.0
  0
SPLINE
  5
9F
  8
Layer_1
 62
7
370
-1
  6
ByLayer
100
AcDbEntity
100
AcDbSpline
 70
8
 71
3
 72
8
 73
4
 74
0
 40
0.0
 40
0.0
 40
0.0
 40
0.0
 40
1.0
 40
1.0
 40
1.0
 40
1.0
 10
515.39826200000005
 20
73.668211999999997
 30
0.0
 10
516.32674399999996
 20
73.131891999999993
 30
0.0
 10
517.47087599999998
 20
73.131891999999993
 30
0.0
 10
518.39935800000001
 20
73.668211999999997
 30
0.0
  0
SPLINE
  5
A0
  8
Layer_1
 62
7
370
-1
  6
ByLayer
100
AcDbEntity
100
AcDbSpline
 70
8
 71
3
 72
8
 73
4
 74
0
 40
0.0
 40
0.0
 40
0.0
 40
0.0
 40
1.0
 40
1.0
 40
1.0
 40
1.0
 10
518.39935800000001
 20
73.668211999999997
 30
0.0
 10
519.32784000000004
 20
74.204532
 30
0.0
 10
519.89948800000002
 20
75.195621000000003
 30
0.0
 10
519.89881000000003
 20
76.267870000000002
 30
0.0
  0
LINE
  5
A1
100
AcDbEntity
100
AcDbLine
  8
Layer_1
 62
7
370
-1
  6
ByLayer
 10
519.89881000000003
 20
76.267870000000002
 30
0.0
 11
519.89881000000003
 21
76.267870000000002
 31
0.0
  0
SPLINE
  5
A2
  8
Layer_1
 62
7
370
-1
  6
ByLayer
100
AcDbEntity
100
AcDbSpline
 70
8
 71
3
 72
8
 73
4
 74
0
 40
0.0
 40
0.0
 40
0.0
 40
0.0
 40
1.0
 40
1.0
 40
1.0
 40
1.0
 10
519.89881000000003
 20
274.26786199999998
 30
0.0
 10
519.89948800000002
 20
275.34011099999998
 30
0.0
 10
519.32784000000004
 20
276.33120000000002
 30
0.0
 10
518.39935800000001
 20
276.86752000000001
 30
0.0
  0
SPLINE
  5
A3
  8
Layer_1
 62
7
370
-1
  6
ByLayer
100
AcDbEntity
100
AcDbSpline
 70
8
 71
3
 72
8
 73
4
 74
0
 40
0.0
 40
0.0
 40
0.0
 40
0.0
 40
1.0
 40
1.0
 40
1.0
 40
1.0
 10
518.39935800000001
 20
276.86752000000001
 30
0.0
 10
517.47087599999998
 20
277.40384
 30
0.0
 10
516.32674399999996
 20
277.40384
 30
0.0
 10
515.39826200000005
 20
276.86752000000001
 30
0.0
  0
SPLINE
  5
A4
  8
Layer_1
 62
7
370
-1
  6
ByLayer
100
AcDbEntity
100
AcDbSpline
 70
8
 71
3
 72
8
 73
4
 74
0
 40
0.0
 40
0.0
 40
0.0
 40
0.0
 40
1.0
 40
1.0
 40
1.0
 40
1.0
 10
515.39826200000005
 20
276.86752000000001
 30
0.0
 10
514.46978000000001
 20
276.33120000000002
 30
0.0
 10
513.89813200000003
 20
275.34011099999998
 30
0.0
 10
513.89881000000003
 20
274.26786199999998
 30
0.0
  0
SPLINE
  5
A5
  8
Layer_1
 62
7
370
-1
  6
ByLayer
100
AcDbEntity
100
AcDbSpline
 70
8
 71
3
 72
8
 73
4
 74
0
 40
0.0
 40
0.0
 40
0.0
 40
0.0
 40
1.0
 40
1.0
 40
1.0
 40
1.0
 10
513.89881000000003
 20
274.26786199999998
 30
0.0
 10
513.89813200000003
 20
273.19561299999998
 30
0.0
 10
514.46978000000001
 20
272.20452399999999
 30
0.0
 10
515.39826200000005
 20
271.668204
 30
0.0
  0
SPLINE
  5
A6
  8
Layer_1
 62
7
370
-1
  6
ByLayer
100
AcDbEntity
100
AcDbSpline
 70
8
 71
3
 72
8
 73
4
 74
0
 40
0.0
 40
0.0
 40
0.0
 40
0.0
 40
1.0
 40
1.0
 40
1.0
 40
1.0
 10
515.39826200000005
 20
271.668204
 30
0.0
 10
516.32674399999996
 20
271.13188400000001
 30
0.0
 10
517.47087599999998
 20
271.13188400000001
 30
0.0
 10
518.39935800000001
 20
271.668204
 30
0.0
  0
SPLINE
  5
A7
  8
Layer_1
 62
7
370
-1
  6
ByLayer
100
AcDbEntity
100
AcDbSpline
 70
8
 71
3
 72
8
 73
4
 74
0
 40
0.0
 40
0.0
 40
0.0
 40
0.0
 40
1.0
 40
1.0
 40
1.0
 40
1.0
 10
518.39935800000001
 20
271.668204
 30
0.0
 10
519.32784000000004
 20
272.20452399999999
 30
0.0
 10
519.89948800000002
 20
273.19561299999998
 30
0.0
 10
519.89881000000003
 20
274.26786199999998
 30
0.0
  0
LINE
  5
A8
100
AcDbEntity
100
AcDbLine
  8
Layer_1
 62
7
370
-1
  6
ByLayer
 10
519.89881000000003
 20
274.26786199999998
 30
0.0
 11
519.89881000000003
 21
274.26786199999998
 31
0.0
  0
LINE
  5
A9
100
AcDbEntity
100
AcDbLine
  8
Layer_1
 62
7
370
-1
  6
ByLayer
 10
20.398813000000001
 20
282.76786299999998
 30
0.0
 11
525.39881000000003
 21
282.76786299999998
 31
0.0
  0
LINE
  5
AA
100
AcDbEntity
100
AcDbLine
  8
Layer_1
 62
7
370
-1
  6
ByLayer
 10
525.39881000000003
 20
282.76786299999998
 30
0.0
 11
525.39881000000003
 21
67.767859999999999
 31
0.0
  0
LINE
  5
AB
100
AcDbEntity
100
AcDbLine
  8
Layer_1
 62
7
370
-1
  6
ByLayer
 10
525.39881000000003
 20
67.767859999999999
 30
0.0
 11
20.398813000000001
 21
67.767859999999999
 31
0.0
  0
LINE
  5
AC
100
AcDbEntity
100
AcDbLine
  8
Layer_1
 62
7
370
-1
  6
ByLayer
 10
20.398813000000001
 20
67.767859999999999
 30
0.0
 11
20.398813000000001
 21
282.76786299999998
 31
0.0
  0
SPLINE
  5
AD
  8
Layer_1
 62
7
370
-1
  6
ByLayer
100
AcDbEntity
100
AcDbSpline
 70
8
 71
3
 72
8
 73
4
 74
0
 40
0.0
 40
0.0
 40
0.0
 40
0.0
 40
1.0
 40
1.0
 40
1.0
 40
1.0
 10
148.75568000000001
 20
231.86814000000001
 30
0.0
 10
148.756103
 20
232.49363700000001
 30
0.0
 10
148.42264700000001
 20
233.0718
 30
0.0
 10
147.881022
 20
233.384671
 30
0.0
  0
SPLINE
  5
AE
  8
Layer_1
 62
7
370
-1
  6
ByLayer
100
AcDbEntity
100
AcDbSpline
 70
8
 71
3
 72
8
 73
4
 74
0
 40
0.0
 40
0.0
 40
0.0
 40
0.0
 40
1.0
 40
1.0
 40
1.0
 40
1.0
 10
147.881022
 20
233.384671
 30
0.0
 10
147.33939599999999
 20
233.697541
 30
0.0
 10
146.671964
 20
233.697541
 30
0.0
 10
146.13033799999999
 20
233.384671
 30
0.0
  0
SPLINE
  5
AF
  8
Layer_1
 62
7
370
-1
  6
ByLayer
100
AcDbEntity
100
AcDbSpline
 70
8
 71
3
 72
8
 73
4
 74
0
 40
0.0
 40
0.0
 40
0.0
 40
0.0
 40
1.0
 40
1.0
 40
1.0
 40
1.0
 10
146.13033799999999
 20
233.384671
 30
0.0
 10
145.58871300000001
 20
233.0718
 30
0.0
 10
145.255257
 20
232.49363700000001
 30
0.0
 10
145.25568000000001
 20
231.86814000000001
 30
0.0
  0
SPLINE
  5
B0
  8
Layer_1
 62
7
370
-1
  6
ByLayer
100
AcDbEntity
100
AcDbSpline
 70
8
 71
3
 72
8
 73
4
 74
0
 40
0.0
 40
0.0
 40
0.0
 40
0.0
 40
1.0
 40
1.0
 40
1.0
 40
1.0
 10
145.25568000000001
 20
231.86814000000001
 30
0.0
 10
145.255257
 20
231.24264299999999
 30
0.0
 10
145.58871300000001
 20
230.66448
 30
0.0
 10
146.13033799999999
 20
230.351609
 30
0.0
  0
SPLINE
  5
B1
  8
Layer_1
 62
7
370
-1
  6
ByLayer
100
AcDbEntity
100
AcDbSpline
 70
8
 71
3
 72
8
 73
4
 74
0
 40
0.0
 40
0.0
 40
0.0
 40
0.0
 40
1.0
 40
1.0
 40
1.0
 40
1.0
 10
146.13033799999999
 20
230.351609
 30
0.0
 10
146.671964
 20
230.03873899999999
 30
0.0
 10
147.33939599999999
 20
230.03873899999999
 30
0.0
 10
147.881022
 20
230.351609
 30
0.0
  0
SPLINE
  5
B2
  8
Layer_1
 62
7
370
-1
  6
ByLayer
100
AcDbEntity
100
AcDbSpline
 70
8
 71
3
 72
8
 73
4
 74
0
 40
0.0
 40
0.0
 40
0.0
 40
0.0
 40
1.0
 40
1.0
 40
1.0
 40
1.0
 10
147.881022
 20
230.351609
 30
0.0
 10
148.42264700000001
 20
230.66448
 30
0.0
 10
148.756103
 20
231.24264299999999
 30
0.0
 10
148.75568000000001
 20
231.86814000000001
 30
0.0
  0
LINE
  5
B3
100
AcDbEntity
100
AcDbLine
  8
Layer_1
 62
7
370
-1
  6
ByLayer
 10
148.75568000000001
 20
231.86814000000001
 30
0.0
 11
148.75568000000001
 21
231.86814000000001
 31
0.0
  0
ENDSEC
  0
SECTION
  2
OBJECTS
  0
DICTIONARY
  5
C
100
AcDbDictionary
280
0
281
1
  3
ACAD_GROUP
350
D
  3
ACAD_LAYOUT
350
1A
  3
ACAD_MLINESTYLE
350
17
  3
ACAD_PLOTSETTINGS
350
19
  3
ACAD_PLOTSTYLENAME
350
E
  3
AcDbVariableDictionary
350
B4
  0
DICTIONARY
  5
D
100
AcDbDictionary
280
0
281
1
  0
ACDBDICTIONARYWDFLT
  5
E
100
AcDbDictionary
281
1
  3
Normal
350
F
100
AcDbDictionaryWithDefault
340
F
  0
ACDBPLACEHOLDER
  5
F
  0
DICTIONARY
  5
17
100
AcDbDictionary
280
0
281
1
  3
Standard
350
18
  0
MLINESTYLE
  5
18
100
AcDbMlineStyle
  2
STANDARD
 70
0
  3

 62
256
 51
90.0
 52
90.0
 71
2
 49
0.5
 62
256
  6
BYLAYER
 49
-0.5
 62
256
  6
BYLAYER
  0
DICTIONARY
  5
19
100
AcDbDictionary
280
0
281
1
  0
DICTIONARY
  5
1A
100
AcDbDictionary
281
1
  3
Layout1
350
1E
  3
Layout2
350
26
  3
Model
350
22
  0
LAYOUT
  5
1E
100
AcDbPlotSettings
  1

  2
C:\Program Files\AutoCAD 2002\plotters\DWF ePlot (optimized for plotting).pc3
  4

  6

 40
0.0
 41
0.0
 42
0.0
 43
0.0
 44
0.0
 45
0.0
 46
0.0
 47
0.0
 48
0.0
 49
0.0
140
0.0
141
0.0
142
1.0
143
1.0
 70
688
 72
0
 73
0
 74
5
  7

 75
16
147
1.0
148
0.0
149
0.0
100
AcDbLayout
  1
Layout1
 70
1
 71
1
 10
0.0
 20
0.0
 11
420.0
 21
297.0
 12
0.0
 22
0.0
 32
0.0
 14
100000000000000000000.0
 24
100000000000000000000.0
 34
100000000000000000000.0
 15
-100000000000000000000.0
 25
-100000000000000000000.0
 35
-100000000000000000000.0
146
0.0
 13
0.0
 23
0.0
 33
0.0
 16
1.0
 26
0.0
 36
0.0
 17
0.0
 27
1.0
 37
0.0
 76
0
330
1B
  0
LAYOUT
  5
22
100
AcDbPlotSettings
  1

  2
C:\Program Files\AutoCAD 2002\plotters\DWF ePlot (optimized for plotting).pc3
  4

  6

 40
0.0
 41
0.0
 42
0.0
 43
0.0
 44
0.0
 45
0.0
 46
0.0
 47
0.0
 48
0.0
 49
0.0
140
0.0
141
0.0
142
1.0
143
1.0
 70
1712
 72
0
 73
0
 74
0
  7

 75
0
147
1.0
148
0.0
149
0.0
100
AcDbLayout
  1
Model
 70
1
 71
0
 10
0.0
 20
0.0
 11
12.0
 21
9.0
 12
0.0
 22
0.0
 32
0.0
 14
0.0
 24
0.0
 34
0.0
 15
0.0
 25
0.0
 35
0.0
146
0.0
 13
0.0
 23
0.0
 33
0.0
 16
1.0
 26
0.0
 36
0.0
 17
0.0
 27
1.0
 37
0.0
 76
0
330
1F
  0
LAYOUT
  5
26
100
AcDbPlotSettings
  1

  2
C:\Program Files\AutoCAD 2002\plotters\DWF ePlot (optimized for plotting).pc3
  4

  6

 40
0.0
 41
0.0
 42
0.0
 43
0.0
 44
0.0
 45
0.0
 46
0.0
 47
0.0
 48
0.0
 49
0.0
140
0.0
141
0.0
142
1.0
143
1.0
 70
688
 72
0
 73
0
 74
5
  7

 75
16
147
1.0
148
0.0
149
0.0
100
AcDbLayout
  1
Layout2
 70
1
 71
2
 10
0.0
 20
0.0
 11
12.0
 21
9.0
 12
0.0
 22
0.0
 32
0.0
 14
0.0
 24
0.0
 34
0.0
 15
0.0
 25
0.0
 35
0.0
146
0.0
 13
0.0
 23
0.0
 33
0.0
 16
1.0
 26
0.0
 36
0.0
 17
0.0
 27
1.0
 37
0.0
 76
0
330
23
  0
DICTIONARY
  5
B4
100
AcDbDictionary
281
1
  3
DIMASSOC
350
B6
  3
HIDETEXT
350
B5
  0
DICTIONARYVAR
  5
B5
100
DictionaryVariables
280
0
  1
2
  0
DICTIONARYVAR
  5
B6
100
DictionaryVariables
280
0
  1
1
  0
ENDSEC
  0
EOF
