0
SECTION
2
HEADER
9
$INSUNITS
70
4
9
$ACADVER
1
AC1014
9
$HANDSEED
5
FFFF
0
ENDSEC
0
SECTION
2
TABLES
0
TABLE
2
VPORT
5
8
100
AcDbSymbolTable
0
ENDTAB
0
TABLE
2
LTYPE
5
5
100
AcDbSymbolTable
0
LTYPE
5
14
100
AcDbSymbolTableRecord
100
AcDbLinetypeTableRecord
2
BYBLOCK
70
0
0
LTYPE
5
15
100
AcDbSymbolTableRecord
100
AcDbLinetypeTableRecord
2
BYLAYER
70
0
0
ENDTAB
0
TABLE
2
LAYER
5
2
100
AcDbSymbolTable
70
2
0
LAYER
5
50
100
AcDbSymbolTableRecord
100
AcDbLayerTableRecord
2
0
70
0
6
CONTINUOUS
0
ENDTAB
0
TABLE
2
STYLE
5
3
100
AcDbSymbolTable
70
1
0
STYLE
5
11
100
AcDbSymbolTableRecord
100
AcDbTextStyleTableRecord
2
STANDARD
70
0
0
ENDTAB
0
TABLE
2
VIEW
5
6
100
AcDbSymbolTable
70
0
0
ENDTAB
0
TABLE
2
UCS
5
7
100
AcDbSymbolTable
70
0
0
ENDTAB
0
TABLE
2
APPID
5
9
100
AcDbSymbolTable
70
2
0
APPID
5
12
100
AcDbSymbolTableRecord
100
AcDbRegAppTableRecord
2
ACAD
70
0
0
ENDTAB
0
TABLE
2
DIMSTYLE
5
A
100
AcDbSymbolTable
70
1
0
ENDTAB
0
TABLE
2
BLOCK_RECORD
5
1
100
AcDbSymbolTable
70
1
0
BLOCK_RECORD
5
1F
100
AcDbSymbolTableRecord
100
AcDbBlockTableRecord
2
*MODEL_SPACE
0
BLOCK_RECORD
5
1B
100
AcDbSymbolTableRecord
100
AcDbBlockTableRecord
2
*PAPER_SPACE
0
ENDTAB
0
ENDSEC
0
SECTION
2
BLOCKS
0
BLOCK
5
20
100
AcDbEntity
100
AcDbBlockBegin
2
*MODEL_SPACE
0
ENDBLK
5
21
100
AcDbEntity
100
AcDbBlockEnd
0
BLOCK
5
1C
100
AcDbEntity
100
AcDbBlockBegin
2
*PAPER_SPACE
0
ENDBLK
5
1D
100
AcDbEntity
100
AcDbBlockEnd
0
ENDSEC
0
SECTION
2
ENTITIES
0
LWPOLYLINE
5
100
100
AcDbEntity
8
OUTER_PROFILES
100
AcDbPolyline
90
30
70
1
43
0.0
10
162.24999999999997
20
99.761946710584652
10
162.24999999999997
20
102.26194671058465
10
245
20
102.26194671058465
10
245
20
20.261946710584645
42
-0.41421356237309437
10
243
20
18.26194671058466
10
216
20
18.26194671058466
10
216
20
20.76194671058466
10
215
20
20.76194671058466
10
215
20
0
10
0
20
0
10
0
20
20.76194671058466
10
-1.0000000000000142
20
20.76194671058466
10
-1.0000000000000142
20
18.26194671058466
10
-28.000000000000007
20
18.261946710584652
42
-0.41421356237309631
10
-30
20
20.26194671058466
10
-30
20
102.26194671058465
10
32.74999999999995
20
102.26194671058465
10
32.74999999999995
20
99.761946710584652
10
33.749999999999964
20
99.761946710584652
10
33.749999999999964
20
117.5238934211693
10
53.749999999999964
20
117.5238934211693
10
53.749999999999964
20
99.761946710584652
10
54.749999999999979
20
99.761946710584652
10
54.749999999999979
20
102.26194671058465
10
140.25
20
102.26194671058465
10
140.25
20
99.761946710584652
10
141.25
20
99.761946710584652
10
141.24999999999997
20
117.5238934211693
10
161.25
20
117.5238934211693
10
161.25
20
99.761946710584652
0
CIRCLE
5
101
100
AcDbEntity
8
INTERIOR_PROFILES
100
AcDbCircle
10
-151.24999999999997
20
10
30
0
40
1.7500000000000071
210
0
220
0
230
-1
0
CIRCLE
5
102
100
AcDbEntity
8
INTERIOR_PROFILES
100
AcDbCircle
10
-43.749999999999964
20
10
30
0
40
1.7500000000000071
210
0
220
0
230
-1
0
CIRCLE
5
103
100
AcDbEntity
8
INTERIOR_PROFILES
100
AcDbCircle
10
-43.749999999999964
20
108.52389342116933
30
0
40
1.9999999999999929
210
0
220
0
230
-1
0
CIRCLE
5
104
100
AcDbEntity
8
INTERIOR_PROFILES
100
AcDbCircle
10
-151.24999999999997
20
108.52389342116933
30
0
40
1.9999999999999929
210
0
220
0
230
-1
0
LINE
5
105
100
AcDbEntity
8
BEND
100
AcDbLine
10
33.749999999999964
20
101.39292006587698
30
1.8779785320446385e-14
11
53.749999999999964
21
101.39292006587698
31
1.8737451944412085e-14
0
LINE
5
106
100
AcDbEntity
8
BEND
100
AcDbLine
10
0
20
19.130973355292326
30
1.3682949891488205e-14
11
215
21
19.130973355292326
31
2.4719772178023589e-14
0
LINE
5
107
100
AcDbEntity
8
BEND
100
AcDbLine
10
161.25
20
101.39292006587702
30
1.7688848562941982e-14
11
141.25
21
101.39292006587702
31
1.7731181938976282e-14
0
LINE
5
108
100
AcDbEntity
8
BEND_EXTENT
100
AcDbLine
10
161.25
20
100.26194671058465
30
1.7422255549725993e-14
11
141.25
21
100.26194671058465
31
1.7464588925760287e-14
0
LINE
5
109
100
AcDbEntity
8
BEND_EXTENT
100
AcDbLine
10
53.749999999999964
20
100.26194671058465
30
1.7649797445910333e-14
11
33.749999999999964
21
100.26194671058465
31
1.769213082194463e-14
0
LINE
5
110
100
AcDbEntity
8
BEND_EXTENT
100
AcDbLine
10
0
20
20.261946710584652
30
1.7763568394002505e-14
11
215
21
20.261946710584652
31
1.7308484601633822e-14
0
LINE
5
111
100
AcDbEntity
8
BEND_EXTENT
100
AcDbLine
10
33.749999999999964
20
102.5238934211693
30
1.6443129919241329e-14
11
53.749999999999964
21
102.5238934211693
31
1.6400796543207032e-14
0
LINE
5
112
100
AcDbEntity
8
BEND_EXTENT
100
AcDbLine
10
215
20
17.999999999999989
30
1.7308484601633822e-14
11
0
21
17.999999999999989
31
1.7763568394002505e-14
0
LINE
5
113
100
AcDbEntity
8
BEND_EXTENT
100
AcDbLine
10
141.25
20
102.5238934211693
30
1.6076810144978841e-14
11
161.25
21
102.5238934211693
31
1.6173254647022692e-14
0
ENDSEC
0
SECTION
2
OBJECTS
0
DICTIONARY
5
C
100
AcDbDictionary
3
ACAD_GROUP
350
D
3
ACAD_MLINESTYLE
350
17
0
DICTIONARY
5
D
100
AcDbDictionary
0
DICTIONARY
5
1A
330
C
100
AcDbDictionary
0
DICTIONARY
5
17
100
AcDbDictionary
0
ENDSEC
0
EOF
