0
SECTION
2
HEADER
9
$INSUNITS
70
4
9
$ACADVER
1
AC1014
9
$HANDSEED
5
FFFF
0
ENDSEC
0
SECTION
2
TABLES
0
TABLE
2
VPORT
5
8
100
AcDbSymbolTable
0
ENDTAB
0
TABLE
2
LTYPE
5
5
100
AcDbSymbolTable
0
LTYPE
5
14
100
AcDbSymbolTableRecord
100
AcDbLinetypeTableRecord
2
BYBLOCK
70
0
0
LTYPE
5
15
100
AcDbSymbolTableRecord
100
AcDbLinetypeTableRecord
2
BYLAYER
70
0
0
ENDTAB
0
TABLE
2
LAYER
5
2
100
AcDbSymbolTable
70
2
0
LAYER
5
50
100
AcDbSymbolTableRecord
100
AcDbLayerTableRecord
2
0
70
0
6
CONTINUOUS
0
ENDTAB
0
TABLE
2
STYLE
5
3
100
AcDbSymbolTable
70
1
0
STYLE
5
11
100
AcDbSymbolTableRecord
100
AcDbTextStyleTableRecord
2
STANDARD
70
0
0
ENDTAB
0
TABLE
2
VIEW
5
6
100
AcDbSymbolTable
70
0
0
ENDTAB
0
TABLE
2
UCS
5
7
100
AcDbSymbolTable
70
0
0
ENDTAB
0
TABLE
2
APPID
5
9
100
AcDbSymbolTable
70
2
0
APPID
5
12
100
AcDbSymbolTableRecord
100
AcDbRegAppTableRecord
2
ACAD
70
0
0
ENDTAB
0
TABLE
2
DIMSTYLE
5
A
100
AcDbSymbolTable
70
1
0
ENDTAB
0
TABLE
2
BLOCK_RECORD
5
1
100
AcDbSymbolTable
70
1
0
BLOCK_RECORD
5
1F
100
AcDbSymbolTableRecord
100
AcDbBlockTableRecord
2
*MODEL_SPACE
0
BLOCK_RECORD
5
1B
100
AcDbSymbolTableRecord
100
AcDbBlockTableRecord
2
*PAPER_SPACE
0
ENDTAB
0
ENDSEC
0
SECTION
2
BLOCKS
0
BLOCK
5
20
100
AcDbEntity
100
AcDbBlockBegin
2
*MODEL_SPACE
0
ENDBLK
5
21
100
AcDbEntity
100
AcDbBlockEnd
0
BLOCK
5
1C
100
AcDbEntity
100
AcDbBlockBegin
2
*PAPER_SPACE
0
ENDBLK
5
1D
100
AcDbEntity
100
AcDbBlockEnd
0
ENDSEC
0
SECTION
2
ENTITIES
0
LWPOLYLINE
5
100
100
AcDbEntity
8
OUTER_PROFILES
100
AcDbPolyline
90
21
70
1
43
0.0
10
162.25
20
18.261946710584844
10
189.24999999999997
20
18.261946710584844
42
0.41421356237309503
10
191.24999999999997
20
20.261946710584837
10
191.25
20
102.26194671058482
10
128.50000000000006
20
102.26194671058482
10
128.50000000000006
20
99.761946710584795
10
127.50000000000003
20
99.761946710584795
10
127.50000000000007
20
114.52389342116933
10
107.50000000000007
20
114.52389342116933
10
107.50000000000003
20
99.761946710584795
10
106.50000000000003
20
99.761946710584795
10
106.50000000000003
20
102.26194671058482
10
20.999999999999979
20
102.26194671058482
10
20.999999999999979
20
99.761946710584823
10
20
20
99.761946710584823
10
20
20
114.52389342116928
10
0
20
114.52389342116928
10
0
20
0
10
161.25
20
0
10
161.25
20
20.761946710584862
10
162.25
20
20.761946710584862
0
CIRCLE
5
101
100
AcDbEntity
8
INTERIOR_PROFILES
100
AcDbCircle
10
-10
20
10.000000000000426
30
0
40
1.7499999999999893
210
0
220
0
230
-1
0
CIRCLE
5
102
100
AcDbEntity
8
INTERIOR_PROFILES
100
AcDbCircle
10
-117.50000000000003
20
10.000000000000426
30
0
40
1.7499999999999716
210
0
220
0
230
-1
0
CIRCLE
5
103
100
AcDbEntity
8
INTERIOR_PROFILES
100
AcDbCircle
10
-117.50000000000003
20
106.52389342116936
30
0
40
1.9999999999999929
210
0
220
0
230
-1
0
CIRCLE
5
104
100
AcDbEntity
8
INTERIOR_PROFILES
100
AcDbCircle
10
-10
20
106.5238934211693
30
0
40
1.9999999999999929
210
0
220
0
230
-1
0
LINE
5
105
100
AcDbEntity
8
BEND
100
AcDbLine
10
20
20
101.39292006587712
30
7.5350976042085038e-14
11
0
21
101.39292006587712
31
6.120240407796531e-14
0
LINE
5
106
100
AcDbEntity
8
BEND
100
AcDbLine
10
0
20
19.130973355292411
30
5.5833256287113318e-14
11
161.25
21
19.130973355292411
31
3.8555073995209524e-14
0
LINE
5
107
100
AcDbEntity
8
BEND
100
AcDbLine
10
107.50000000000003
20
101.39292006587708
30
-4.8229787737469275e-14
11
127.50000000000003
21
101.39292006587708
31
-4.2960280279348774e-14
0
LINE
5
108
100
AcDbEntity
8
BEND_EXTENT
100
AcDbLine
10
127.50000000000003
20
100.26194671058479
30
5.1356678439520713e-14
11
107.50000000000003
21
100.26194671058479
31
4.6087170981400219e-14
0
LINE
5
109
100
AcDbEntity
8
BEND_EXTENT
100
AcDbLine
10
20
20
100.26194671058479
30
2.3033075852123012e-14
11
0
21
100.26194671058479
31
1.7763568394002505e-14
0
LINE
5
110
100
AcDbEntity
8
BEND_EXTENT
100
AcDbLine
10
0
20
20.261946710584855
30
1.7763568394002505e-14
11
161.25
21
20.261946710584855
31
-1.0805301300910971e-14
0
LINE
5
111
100
AcDbEntity
8
BEND_EXTENT
100
AcDbLine
10
161.25
20
17.999999999999972
30
2.4721835487094039e-14
11
0
21
17.999999999999972
31
3.5527136788005009e-14
0
LINE
5
112
100
AcDbEntity
8
BEND_EXTENT
100
AcDbLine
10
107.50000000000003
20
102.52389342116939
30
-6.6322910261896881e-14
11
127.50000000000003
21
102.52389342116939
31
-6.1053402803776393e-14
0
LINE
5
113
100
AcDbEntity
8
BEND_EXTENT
100
AcDbLine
10
0
20
102.5238934211693
30
1.111610803405938e-13
11
20
21
102.5238934211693
31
1.1115702843174482e-13
0
ENDSEC
0
SECTION
2
OBJECTS
0
DICTIONARY
5
C
100
AcDbDictionary
3
ACAD_GROUP
350
D
3
ACAD_MLINESTYLE
350
17
0
DICTIONARY
5
D
100
AcDbDictionary
0
DICTIONARY
5
1A
330
C
100
AcDbDictionary
0
DICTIONARY
5
17
100
AcDbDictionary
0
ENDSEC
0
EOF
