  0
SECTION
  2
HEADER
  9
$ACADVER
  1
AC1014
  9
$HANDSEED
  5
FFFF
  9
$MEASUREMENT
 70
     1
  0
ENDSEC
  0
SECTION
  2
TABLES
  0
TABLE
  2
VPORT
  5
8
330
0
100
AcDbSymbolTable
 70
     4
  0
VPORT
  5
2E
330
8
100
AcDbSymbolTableRecord
100
AcDbViewportTableRecord
  2
*ACTIVE
 70
     0
 10
0.0
 20
0.0
 11
1.0
 21
1.0
 12
210.0
 22
148.5
 13
0.0
 23
0.0
 14
10.0
 24
10.0
 15
10.0
 25
10.0
 16
0.0
 26
0.0
 36
1.0
 17
0.0
 27
0.0
 37
0.0
 40
341.0
 41
1.24
 42
50.0
 43
0.0
 44
0.0
 50
0.0
 51
0.0
 71
     0
 72
   100
 73
     1
 74
     3
 75
     0
 76
     0
 77
     0
 78
     0
  0
ENDTAB
  0
TABLE
  2
LTYPE
  5
5
330
0
100
AcDbSymbolTable
 70
     1
  0
LTYPE
  5
14
330
5
100
AcDbSymbolTableRecord
100
AcDbLinetypeTableRecord
  2
BYBLOCK
 70
     0
  3

 72
    65
 73
     0
 40
0.0
  0
LTYPE
  5
15
330
5
100
AcDbSymbolTableRecord
100
AcDbLinetypeTableRecord
  2
BYLAYER
 70
     0
  3

 72
    65
 73
     0
 40
0.0
  0
LTYPE
  5
16
330
5
100
AcDbSymbolTableRecord
100
AcDbLinetypeTableRecord
  2
CONTINUOUS
 70
     0
  3
Solid line
 72
    65
 73
     0
 40
0.0
  0
ENDTAB
  0
TABLE
  2
LAYER
  5
2
100
AcDbSymbolTable
 70
2
  0
LAYER
  5
50
100
AcDbSymbolTableRecord
100
AcDbLayerTableRecord
  2
0
 70
0
  6
CONTINUOUS
  0
LAYER
  5
51
100
AcDbSymbolTableRecord
100
AcDbLayerTableRecord
  2
Layer_1
 70
0
  6
CONTINUOUS
  0
ENDTAB
  0
TABLE
  2
STYLE
  5
3
330
0
100
AcDbSymbolTable
 70
     1
  0
STYLE
  5
11
330
3
100
AcDbSymbolTableRecord
100
AcDbTextStyleTableRecord
  2
STANDARD
 70
     0
 40
0.0
 41
1.0
 50
0.0
 71
     0
 42
2.5
  3
txt
  4

  0
ENDTAB
  0
TABLE
  2
VIEW
  5
6
330
0
100
AcDbSymbolTable
 70
     0
  0
ENDTAB
  0
TABLE
  2
UCS
  5
7
330
0
100
AcDbSymbolTable
 70
     0
  0
ENDTAB
  0
TABLE
  2
APPID
  5
9
330
0
100
AcDbSymbolTable
 70
     2
  0
APPID
  5
12
330
9
100
AcDbSymbolTableRecord
100
AcDbRegAppTableRecord
  2
ACAD
 70
     0
  0
ENDTAB
  0
TABLE
  2
DIMSTYLE
  5
A
330
0
100
AcDbSymbolTable
 70
     1
  0
DIMSTYLE
105
27
330
A
100
AcDbSymbolTableRecord
100
AcDbDimStyleTableRecord
  2
ISO-25
 70
     0
  3

  4

  5

  6

  7

 40
1.0
 41
2.5
 42
0.625
 43
3.75
 44
1.25
 45
0.0
 46
0.0
 47
0.0
 48
0.0
140
2.5
141
2.5
142
0.0
143
0.03937007874016
144
1.0
145
0.0
146
1.0
147
0.625
 71
     0
 72
     0
 73
     0
 74
     0
 75
     0
 76
     0
 77
     1
 78
     8
170
     0
171
     3
172
     1
173
     0
174
     0
175
     0
176
     0
177
     0
178
     0
270
     2
271
     2
272
     2
273
     2
274
     3
340
11
275
     0
280
     0
281
     0
282
     0
283
     0
284
     8
285
     0
286
     0
287
     3
288
     0
  0
ENDTAB
  0
TABLE
  2
BLOCK_RECORD
  5
1
330
0
100
AcDbSymbolTable
 70
     1
  0
BLOCK_RECORD
  5
1F
330
1
100
AcDbSymbolTableRecord
100
AcDbBlockTableRecord
  2
*MODEL_SPACE
  0
BLOCK_RECORD
  5
1B
330
1
100
AcDbSymbolTableRecord
100
AcDbBlockTableRecord
  2
*PAPER_SPACE
  0
ENDTAB
  0
ENDSEC
  0
SECTION
  2
BLOCKS
  0
BLOCK
  5
20
330
1F
100
AcDbEntity
  8
0
100
AcDbBlockBegin
  2
*MODEL_SPACE
 70
     0
 10
0.0
 20
0.0
 30
0.0
  3
*MODEL_SPACE
  1

  0
ENDBLK
  5
21
330
1F
100
AcDbEntity
  8
0
100
AcDbBlockEnd
  0
BLOCK
  5
1C
330
1B
100
AcDbEntity
 67
     1
  8
0
100
AcDbBlockBegin
  2
*PAPER_SPACE
  1

  0
ENDBLK
  5
1D
330
1B
100
AcDbEntity
 67
     1
  8
0
100
AcDbBlockEnd
  0
ENDSEC
  0
SECTION
  2
ENTITIES
  0
SPLINE
  5
100
100
AcDbEntity
  8
Layer_1
 62
7
100
AcDbSpline
 70
8
 71
3
 72
8
 73
4
 74
0
 40
0
 40
0
 40
0
 40
0
 40
1
 40
1
 40
1
 40
1
 10
146.773150
 20
283.322557
 30
0.0
 10
147.399480
 20
283.319557
 30
0.0
 10
147.978940
 20
283.654047
 30
0.0
 10
148.292600
 20
284.196177
 30
0.0
  0
SPLINE
  5
101
100
AcDbEntity
  8
Layer_1
 62
7
100
AcDbSpline
 70
8
 71
3
 72
8
 73
4
 74
0
 40
0
 40
0
 40
0
 40
0
 40
1
 40
1
 40
1
 40
1
 10
148.292600
 20
284.196177
 30
0.0
 10
148.606240
 20
284.738337
 30
0.0
 10
148.606240
 20
285.406757
 30
0.0
 10
148.292600
 20
285.948887
 30
0.0
  0
SPLINE
  5
102
100
AcDbEntity
  8
Layer_1
 62
7
100
AcDbSpline
 70
8
 71
3
 72
8
 73
4
 74
0
 40
0
 40
0
 40
0
 40
0
 40
1
 40
1
 40
1
 40
1
 10
148.292600
 20
285.948887
 30
0.0
 10
147.978940
 20
286.491017
 30
0.0
 10
147.399480
 20
286.824207
 30
0.0
 10
146.773150
 20
286.822537
 30
0.0
  0
SPLINE
  5
103
100
AcDbEntity
  8
Layer_1
 62
7
100
AcDbSpline
 70
8
 71
3
 72
8
 73
4
 74
0
 40
0
 40
0
 40
0
 40
0
 40
1
 40
1
 40
1
 40
1
 10
146.773150
 20
286.822537
 30
0.0
 10
146.146830
 20
286.825537
 30
0.0
 10
145.567370
 20
286.491017
 30
0.0
 10
145.253730
 20
285.948887
 30
0.0
  0
SPLINE
  5
104
100
AcDbEntity
  8
Layer_1
 62
7
100
AcDbSpline
 70
8
 71
3
 72
8
 73
4
 74
0
 40
0
 40
0
 40
0
 40
0
 40
1
 40
1
 40
1
 40
1
 10
145.253730
 20
285.948887
 30
0.0
 10
144.940090
 20
285.406757
 30
0.0
 10
144.940090
 20
284.738337
 30
0.0
 10
145.253730
 20
284.196177
 30
0.0
  0
SPLINE
  5
105
100
AcDbEntity
  8
Layer_1
 62
7
100
AcDbSpline
 70
8
 71
3
 72
8
 73
4
 74
0
 40
0
 40
0
 40
0
 40
0
 40
1
 40
1
 40
1
 40
1
 10
145.253730
 20
284.196177
 30
0.0
 10
145.567370
 20
283.654047
 30
0.0
 10
146.146830
 20
283.320887
 30
0.0
 10
146.773150
 20
283.322557
 30
0.0
  0
LINE
  5
106
100
AcDbEntity
  8
Layer_1
 62
7
100
AcDbLine
 10
146.772620
 20
283.323557
 30
0.0
 11
146.772620
 21
283.323557
 31
0.0
  0
SPLINE
  5
107
100
AcDbEntity
  8
Layer_1
 62
7
100
AcDbSpline
 70
8
 71
3
 72
8
 73
4
 74
0
 40
0
 40
0
 40
0
 40
0
 40
1
 40
1
 40
1
 40
1
 10
146.773150
 20
143.322700
 30
0.0
 10
147.399480
 20
143.319700
 30
0.0
 10
147.978940
 20
143.654230
 30
0.0
 10
148.292600
 20
144.196360
 30
0.0
  0
SPLINE
  5
108
100
AcDbEntity
  8
Layer_1
 62
7
100
AcDbSpline
 70
8
 71
3
 72
8
 73
4
 74
0
 40
0
 40
0
 40
0
 40
0
 40
1
 40
1
 40
1
 40
1
 10
148.292600
 20
144.196360
 30
0.0
 10
148.606240
 20
144.738490
 30
0.0
 10
148.606240
 20
145.406910
 30
0.0
 10
148.292600
 20
145.949040
 30
0.0
  0
SPLINE
  5
109
100
AcDbEntity
  8
Layer_1
 62
7
100
AcDbSpline
 70
8
 71
3
 72
8
 73
4
 74
0
 40
0
 40
0
 40
0
 40
0
 40
1
 40
1
 40
1
 40
1
 10
148.292600
 20
145.949040
 30
0.0
 10
147.978940
 20
146.491200
 30
0.0
 10
147.399480
 20
146.824360
 30
0.0
 10
146.773150
 20
146.822690
 30
0.0
  0
SPLINE
  5
10a
100
AcDbEntity
  8
Layer_1
 62
7
100
AcDbSpline
 70
8
 71
3
 72
8
 73
4
 74
0
 40
0
 40
0
 40
0
 40
0
 40
1
 40
1
 40
1
 40
1
 10
146.773150
 20
146.822690
 30
0.0
 10
146.146830
 20
146.825690
 30
0.0
 10
145.567370
 20
146.491200
 30
0.0
 10
145.253730
 20
145.949040
 30
0.0
  0
SPLINE
  5
10b
100
AcDbEntity
  8
Layer_1
 62
7
100
AcDbSpline
 70
8
 71
3
 72
8
 73
4
 74
0
 40
0
 40
0
 40
0
 40
0
 40
1
 40
1
 40
1
 40
1
 10
145.253730
 20
145.949040
 30
0.0
 10
144.940090
 20
145.406910
 30
0.0
 10
144.940090
 20
144.738490
 30
0.0
 10
145.253730
 20
144.196360
 30
0.0
  0
SPLINE
  5
10c
100
AcDbEntity
  8
Layer_1
 62
7
100
AcDbSpline
 70
8
 71
3
 72
8
 73
4
 74
0
 40
0
 40
0
 40
0
 40
0
 40
1
 40
1
 40
1
 40
1
 10
145.253730
 20
144.196360
 30
0.0
 10
145.567370
 20
143.654230
 30
0.0
 10
146.146830
 20
143.321040
 30
0.0
 10
146.773150
 20
143.322700
 30
0.0
  0
LINE
  5
10d
100
AcDbEntity
  8
Layer_1
 62
7
100
AcDbLine
 10
146.772620
 20
143.321940
 30
0.0
 11
146.772620
 21
143.321940
 31
0.0
  0
SPLINE
  5
10e
100
AcDbEntity
  8
Layer_1
 62
7
100
AcDbSpline
 70
8
 71
3
 72
8
 73
4
 74
0
 40
0
 40
0
 40
0
 40
0
 40
1
 40
1
 40
1
 40
1
 10
26.773325
 20
143.322700
 30
0.0
 10
27.399645
 20
143.319700
 30
0.0
 10
27.979105
 20
143.654230
 30
0.0
 10
28.292745
 20
144.196360
 30
0.0
  0
SPLINE
  5
10f
100
AcDbEntity
  8
Layer_1
 62
7
100
AcDbSpline
 70
8
 71
3
 72
8
 73
4
 74
0
 40
0
 40
0
 40
0
 40
0
 40
1
 40
1
 40
1
 40
1
 10
28.292745
 20
144.196360
 30
0.0
 10
28.606405
 20
144.738490
 30
0.0
 10
28.606405
 20
145.406910
 30
0.0
 10
28.292745
 20
145.949040
 30
0.0
  0
SPLINE
  5
110
100
AcDbEntity
  8
Layer_1
 62
7
100
AcDbSpline
 70
8
 71
3
 72
8
 73
4
 74
0
 40
0
 40
0
 40
0
 40
0
 40
1
 40
1
 40
1
 40
1
 10
28.292745
 20
145.949040
 30
0.0
 10
27.979105
 20
146.491200
 30
0.0
 10
27.399645
 20
146.824360
 30
0.0
 10
26.773325
 20
146.822690
 30
0.0
  0
SPLINE
  5
111
100
AcDbEntity
  8
Layer_1
 62
7
100
AcDbSpline
 70
8
 71
3
 72
8
 73
4
 74
0
 40
0
 40
0
 40
0
 40
0
 40
1
 40
1
 40
1
 40
1
 10
26.773325
 20
146.822690
 30
0.0
 10
26.146995
 20
146.825690
 30
0.0
 10
25.567535
 20
146.491200
 30
0.0
 10
25.253895
 20
145.949040
 30
0.0
  0
SPLINE
  5
112
100
AcDbEntity
  8
Layer_1
 62
7
100
AcDbSpline
 70
8
 71
3
 72
8
 73
4
 74
0
 40
0
 40
0
 40
0
 40
0
 40
1
 40
1
 40
1
 40
1
 10
25.253895
 20
145.949040
 30
0.0
 10
24.940265
 20
145.406910
 30
0.0
 10
24.940265
 20
144.738490
 30
0.0
 10
25.253895
 20
144.196360
 30
0.0
  0
SPLINE
  5
113
100
AcDbEntity
  8
Layer_1
 62
7
100
AcDbSpline
 70
8
 71
3
 72
8
 73
4
 74
0
 40
0
 40
0
 40
0
 40
0
 40
1
 40
1
 40
1
 40
1
 10
25.253895
 20
144.196360
 30
0.0
 10
25.567535
 20
143.654230
 30
0.0
 10
26.146995
 20
143.321040
 30
0.0
 10
26.773325
 20
143.322700
 30
0.0
  0
LINE
  5
114
100
AcDbEntity
  8
Layer_1
 62
7
100
AcDbLine
 10
26.773505
 20
143.321940
 30
0.0
 11
26.773505
 21
143.321940
 31
0.0
  0
SPLINE
  5
115
100
AcDbEntity
  8
Layer_1
 62
7
100
AcDbSpline
 70
8
 71
3
 72
8
 73
4
 74
0
 40
0
 40
0
 40
0
 40
0
 40
1
 40
1
 40
1
 40
1
 10
26.773325
 20
283.322557
 30
0.0
 10
27.399645
 20
283.319557
 30
0.0
 10
27.979105
 20
283.654047
 30
0.0
 10
28.292745
 20
284.196177
 30
0.0
  0
SPLINE
  5
116
100
AcDbEntity
  8
Layer_1
 62
7
100
AcDbSpline
 70
8
 71
3
 72
8
 73
4
 74
0
 40
0
 40
0
 40
0
 40
0
 40
1
 40
1
 40
1
 40
1
 10
28.292745
 20
284.196177
 30
0.0
 10
28.606405
 20
284.738337
 30
0.0
 10
28.606405
 20
285.406757
 30
0.0
 10
28.292745
 20
285.948887
 30
0.0
  0
SPLINE
  5
117
100
AcDbEntity
  8
Layer_1
 62
7
100
AcDbSpline
 70
8
 71
3
 72
8
 73
4
 74
0
 40
0
 40
0
 40
0
 40
0
 40
1
 40
1
 40
1
 40
1
 10
28.292745
 20
285.948887
 30
0.0
 10
27.979105
 20
286.491017
 30
0.0
 10
27.399645
 20
286.824207
 30
0.0
 10
26.773325
 20
286.822537
 30
0.0
  0
SPLINE
  5
118
100
AcDbEntity
  8
Layer_1
 62
7
100
AcDbSpline
 70
8
 71
3
 72
8
 73
4
 74
0
 40
0
 40
0
 40
0
 40
0
 40
1
 40
1
 40
1
 40
1
 10
26.773325
 20
286.822537
 30
0.0
 10
26.146995
 20
286.825537
 30
0.0
 10
25.567535
 20
286.491017
 30
0.0
 10
25.253895
 20
285.948887
 30
0.0
  0
SPLINE
  5
119
100
AcDbEntity
  8
Layer_1
 62
7
100
AcDbSpline
 70
8
 71
3
 72
8
 73
4
 74
0
 40
0
 40
0
 40
0
 40
0
 40
1
 40
1
 40
1
 40
1
 10
25.253895
 20
285.948887
 30
0.0
 10
24.940265
 20
285.406757
 30
0.0
 10
24.940265
 20
284.738337
 30
0.0
 10
25.253895
 20
284.196177
 30
0.0
  0
SPLINE
  5
11a
100
AcDbEntity
  8
Layer_1
 62
7
100
AcDbSpline
 70
8
 71
3
 72
8
 73
4
 74
0
 40
0
 40
0
 40
0
 40
0
 40
1
 40
1
 40
1
 40
1
 10
25.253895
 20
284.196177
 30
0.0
 10
25.567535
 20
283.654047
 30
0.0
 10
26.146995
 20
283.320887
 30
0.0
 10
26.773325
 20
283.322557
 30
0.0
  0
LINE
  5
11b
100
AcDbEntity
  8
Layer_1
 62
7
100
AcDbLine
 10
26.773505
 20
283.323557
 30
0.0
 11
26.773505
 21
283.323557
 31
0.0
  0
SPLINE
  5
11c
100
AcDbEntity
  8
Layer_1
 62
7
100
AcDbSpline
 70
8
 71
3
 72
8
 73
4
 74
0
 40
0
 40
0
 40
0
 40
0
 40
1
 40
1
 40
1
 40
1
 10
57.401313
 20
166.323070
 30
0.0
 10
57.403027
 20
170.432767
 30
0.0
 10
55.211514
 20
174.231016
 30
0.0
 10
51.652698
 20
176.286359
 30
0.0
  0
SPLINE
  5
11d
100
AcDbEntity
  8
Layer_1
 62
7
100
AcDbSpline
 70
8
 71
3
 72
8
 73
4
 74
0
 40
0
 40
0
 40
0
 40
0
 40
1
 40
1
 40
1
 40
1
 10
51.652698
 20
176.286359
 30
0.0
 10
48.093882
 20
178.341703
 30
0.0
 10
43.708744
 20
178.341703
 30
0.0
 10
40.149928
 20
176.286359
 30
0.0
  0
SPLINE
  5
11e
100
AcDbEntity
  8
Layer_1
 62
7
100
AcDbSpline
 70
8
 71
3
 72
8
 73
4
 74
0
 40
0
 40
0
 40
0
 40
0
 40
1
 40
1
 40
1
 40
1
 10
40.149928
 20
176.286359
 30
0.0
 10
36.591112
 20
174.231016
 30
0.0
 10
34.399599
 20
170.432767
 30
0.0
 10
34.401313
 20
166.323070
 30
0.0
  0
SPLINE
  5
11f
100
AcDbEntity
  8
Layer_1
 62
7
100
AcDbSpline
 70
8
 71
3
 72
8
 73
4
 74
0
 40
0
 40
0
 40
0
 40
0
 40
1
 40
1
 40
1
 40
1
 10
34.401313
 20
166.323070
 30
0.0
 10
34.399599
 20
162.213373
 30
0.0
 10
36.591112
 20
158.415124
 30
0.0
 10
40.149928
 20
156.359781
 30
0.0
  0
SPLINE
  5
120
100
AcDbEntity
  8
Layer_1
 62
7
100
AcDbSpline
 70
8
 71
3
 72
8
 73
4
 74
0
 40
0
 40
0
 40
0
 40
0
 40
1
 40
1
 40
1
 40
1
 10
40.149928
 20
156.359781
 30
0.0
 10
43.708744
 20
154.304437
 30
0.0
 10
48.093882
 20
154.304437
 30
0.0
 10
51.652698
 20
156.359781
 30
0.0
  0
SPLINE
  5
121
100
AcDbEntity
  8
Layer_1
 62
7
100
AcDbSpline
 70
8
 71
3
 72
8
 73
4
 74
0
 40
0
 40
0
 40
0
 40
0
 40
1
 40
1
 40
1
 40
1
 10
51.652698
 20
156.359781
 30
0.0
 10
55.211514
 20
158.415124
 30
0.0
 10
57.403027
 20
162.213373
 30
0.0
 10
57.401313
 20
166.323070
 30
0.0
  0
LINE
  5
122
100
AcDbEntity
  8
Layer_1
 62
7
100
AcDbLine
 10
57.401313
 20
166.323070
 30
0.0
 11
57.401313
 21
166.323070
 31
0.0
  0
SPLINE
  5
123
100
AcDbEntity
  8
Layer_1
 62
7
100
AcDbSpline
 70
8
 71
3
 72
8
 73
4
 74
0
 40
0
 40
0
 40
0
 40
0
 40
1
 40
1
 40
1
 40
1
 10
57.401313
 20
200.042103
 30
0.0
 10
57.403027
 20
204.151800
 30
0.0
 10
55.211514
 20
207.950049
 30
0.0
 10
51.652698
 20
210.005392
 30
0.0
  0
SPLINE
  5
124
100
AcDbEntity
  8
Layer_1
 62
7
100
AcDbSpline
 70
8
 71
3
 72
8
 73
4
 74
0
 40
0
 40
0
 40
0
 40
0
 40
1
 40
1
 40
1
 40
1
 10
51.652698
 20
210.005392
 30
0.0
 10
48.093882
 20
212.060736
 30
0.0
 10
43.708744
 20
212.060736
 30
0.0
 10
40.149928
 20
210.005392
 30
0.0
  0
SPLINE
  5
125
100
AcDbEntity
  8
Layer_1
 62
7
100
AcDbSpline
 70
8
 71
3
 72
8
 73
4
 74
0
 40
0
 40
0
 40
0
 40
0
 40
1
 40
1
 40
1
 40
1
 10
40.149928
 20
210.005392
 30
0.0
 10
36.591112
 20
207.950049
 30
0.0
 10
34.399599
 20
204.151800
 30
0.0
 10
34.401313
 20
200.042103
 30
0.0
  0
SPLINE
  5
126
100
AcDbEntity
  8
Layer_1
 62
7
100
AcDbSpline
 70
8
 71
3
 72
8
 73
4
 74
0
 40
0
 40
0
 40
0
 40
0
 40
1
 40
1
 40
1
 40
1
 10
34.401313
 20
200.042103
 30
0.0
 10
34.399599
 20
195.932406
 30
0.0
 10
36.591112
 20
192.134157
 30
0.0
 10
40.149928
 20
190.078814
 30
0.0
  0
SPLINE
  5
127
100
AcDbEntity
  8
Layer_1
 62
7
100
AcDbSpline
 70
8
 71
3
 72
8
 73
4
 74
0
 40
0
 40
0
 40
0
 40
0
 40
1
 40
1
 40
1
 40
1
 10
40.149928
 20
190.078814
 30
0.0
 10
43.708744
 20
188.023470
 30
0.0
 10
48.093882
 20
188.023470
 30
0.0
 10
51.652698
 20
190.078814
 30
0.0
  0
SPLINE
  5
128
100
AcDbEntity
  8
Layer_1
 62
7
100
AcDbSpline
 70
8
 71
3
 72
8
 73
4
 74
0
 40
0
 40
0
 40
0
 40
0
 40
1
 40
1
 40
1
 40
1
 10
51.652698
 20
190.078814
 30
0.0
 10
55.211514
 20
192.134157
 30
0.0
 10
57.403027
 20
195.932406
 30
0.0
 10
57.401313
 20
200.042103
 30
0.0
  0
LINE
  5
129
100
AcDbEntity
  8
Layer_1
 62
7
100
AcDbLine
 10
57.401313
 20
200.042103
 30
0.0
 11
57.401313
 21
200.042103
 31
0.0
  0
SPLINE
  5
12a
100
AcDbEntity
  8
Layer_1
 62
7
100
AcDbSpline
 70
8
 71
3
 72
8
 73
4
 74
0
 40
0
 40
0
 40
0
 40
0
 40
1
 40
1
 40
1
 40
1
 10
131.277420
 20
258.888079
 30
0.0
 10
131.277420
 20
262.996633
 30
0.0
 10
129.085532
 20
266.793094
 30
0.0
 10
125.527420
 20
268.847371
 30
0.0
  0
SPLINE
  5
12b
100
AcDbEntity
  8
Layer_1
 62
7
100
AcDbSpline
 70
8
 71
3
 72
8
 73
4
 74
0
 40
0
 40
0
 40
0
 40
0
 40
1
 40
1
 40
1
 40
1
 10
125.527420
 20
268.847371
 30
0.0
 10
121.969308
 20
270.901648
 30
0.0
 10
117.585532
 20
270.901648
 30
0.0
 10
114.027420
 20
268.847371
 30
0.0
  0
SPLINE
  5
12c
100
AcDbEntity
  8
Layer_1
 62
7
100
AcDbSpline
 70
8
 71
3
 72
8
 73
4
 74
0
 40
0
 40
0
 40
0
 40
0
 40
1
 40
1
 40
1
 40
1
 10
114.027420
 20
268.847371
 30
0.0
 10
110.469308
 20
266.793094
 30
0.0
 10
108.277420
 20
262.996633
 30
0.0
 10
108.277420
 20
258.888079
 30
0.0
  0
SPLINE
  5
12d
100
AcDbEntity
  8
Layer_1
 62
7
100
AcDbSpline
 70
8
 71
3
 72
8
 73
4
 74
0
 40
0
 40
0
 40
0
 40
0
 40
1
 40
1
 40
1
 40
1
 10
108.277420
 20
258.888079
 30
0.0
 10
108.277420
 20
254.779525
 30
0.0
 10
110.469308
 20
250.983064
 30
0.0
 10
114.027420
 20
248.928787
 30
0.0
  0
SPLINE
  5
12e
100
AcDbEntity
  8
Layer_1
 62
7
100
AcDbSpline
 70
8
 71
3
 72
8
 73
4
 74
0
 40
0
 40
0
 40
0
 40
0
 40
1
 40
1
 40
1
 40
1
 10
114.027420
 20
248.928787
 30
0.0
 10
117.585532
 20
246.874510
 30
0.0
 10
121.969308
 20
246.874510
 30
0.0
 10
125.527420
 20
248.928787
 30
0.0
  0
SPLINE
  5
12f
100
AcDbEntity
  8
Layer_1
 62
7
100
AcDbSpline
 70
8
 71
3
 72
8
 73
4
 74
0
 40
0
 40
0
 40
0
 40
0
 40
1
 40
1
 40
1
 40
1
 10
125.527420
 20
248.928787
 30
0.0
 10
129.085532
 20
250.983064
 30
0.0
 10
131.277420
 20
254.779525
 30
0.0
 10
131.277420
 20
258.888079
 30
0.0
  0
LINE
  5
130
100
AcDbEntity
  8
Layer_1
 62
7
100
AcDbLine
 10
131.277420
 20
258.888079
 30
0.0
 11
131.277420
 21
258.888079
 31
0.0
  0
SPLINE
  5
131
100
AcDbEntity
  8
Layer_1
 62
7
100
AcDbSpline
 70
8
 71
3
 72
8
 73
4
 74
0
 40
0
 40
0
 40
0
 40
0
 40
1
 40
1
 40
1
 40
1
 10
129.277420
 20
216.171955
 30
0.0
 10
129.278723
 20
219.566847
 30
0.0
 10
127.468319
 20
222.704414
 30
0.0
 10
124.528473
 20
224.402236
 30
0.0
  0
SPLINE
  5
132
100
AcDbEntity
  8
Layer_1
 62
7
100
AcDbSpline
 70
8
 71
3
 72
8
 73
4
 74
0
 40
0
 40
0
 40
0
 40
0
 40
1
 40
1
 40
1
 40
1
 10
124.528473
 20
224.402236
 30
0.0
 10
121.588628
 20
226.100058
 30
0.0
 10
117.966212
 20
226.100058
 30
0.0
 10
115.026367
 20
224.402236
 30
0.0
  0
SPLINE
  5
133
100
AcDbEntity
  8
Layer_1
 62
7
100
AcDbSpline
 70
8
 71
3
 72
8
 73
4
 74
0
 40
0
 40
0
 40
0
 40
0
 40
1
 40
1
 40
1
 40
1
 10
115.026367
 20
224.402236
 30
0.0
 10
112.086521
 20
222.704414
 30
0.0
 10
110.276117
 20
219.566847
 30
0.0
 10
110.277420
 20
216.171955
 30
0.0
  0
SPLINE
  5
134
100
AcDbEntity
  8
Layer_1
 62
7
100
AcDbSpline
 70
8
 71
3
 72
8
 73
4
 74
0
 40
0
 40
0
 40
0
 40
0
 40
1
 40
1
 40
1
 40
1
 10
110.277420
 20
216.171955
 30
0.0
 10
110.276117
 20
212.777063
 30
0.0
 10
112.086521
 20
209.639496
 30
0.0
 10
115.026367
 20
207.941674
 30
0.0
  0
SPLINE
  5
135
100
AcDbEntity
  8
Layer_1
 62
7
100
AcDbSpline
 70
8
 71
3
 72
8
 73
4
 74
0
 40
0
 40
0
 40
0
 40
0
 40
1
 40
1
 40
1
 40
1
 10
115.026367
 20
207.941674
 30
0.0
 10
117.966212
 20
206.243852
 30
0.0
 10
121.588628
 20
206.243852
 30
0.0
 10
124.528473
 20
207.941674
 30
0.0
  0
SPLINE
  5
136
100
AcDbEntity
  8
Layer_1
 62
7
100
AcDbSpline
 70
8
 71
3
 72
8
 73
4
 74
0
 40
0
 40
0
 40
0
 40
0
 40
1
 40
1
 40
1
 40
1
 10
124.528473
 20
207.941674
 30
0.0
 10
127.468319
 20
209.639496
 30
0.0
 10
129.278723
 20
212.777063
 30
0.0
 10
129.277420
 20
216.171955
 30
0.0
  0
LINE
  5
137
100
AcDbEntity
  8
Layer_1
 62
7
100
AcDbLine
 10
129.277420
 20
216.171955
 30
0.0
 11
129.277420
 21
216.171955
 31
0.0
  0
SPLINE
  5
138
100
AcDbEntity
  8
Layer_1
 62
7
100
AcDbSpline
 70
8
 71
3
 72
8
 73
4
 74
0
 40
0
 40
0
 40
0
 40
0
 40
1
 40
1
 40
1
 40
1
 10
86.835361
 20
250.337563
 30
0.0
 10
86.835361
 20
243.441934
 30
0.0
 10
84.096083
 20
236.828733
 30
0.0
 10
79.220137
 20
231.952787
 30
0.0
  0
SPLINE
  5
139
100
AcDbEntity
  8
Layer_1
 62
7
100
AcDbSpline
 70
8
 71
3
 72
8
 73
4
 74
0
 40
0
 40
0
 40
0
 40
0
 40
1
 40
1
 40
1
 40
1
 10
79.220137
 20
231.952787
 30
0.0
 10
74.344191
 20
227.076841
 30
0.0
 10
67.730990
 20
224.337563
 30
0.0
 10
60.835361
 20
224.337563
 30
0.0
  0
SPLINE
  5
13a
100
AcDbEntity
  8
Layer_1
 62
7
100
AcDbSpline
 70
8
 71
3
 72
8
 73
4
 74
0
 40
0
 40
0
 40
0
 40
0
 40
1
 40
1
 40
1
 40
1
 10
60.835361
 20
224.337563
 30
0.0
 10
53.939732
 20
224.337563
 30
0.0
 10
47.326531
 20
227.076841
 30
0.0
 10
42.450585
 20
231.952787
 30
0.0
  0
SPLINE
  5
13b
100
AcDbEntity
  8
Layer_1
 62
7
100
AcDbSpline
 70
8
 71
3
 72
8
 73
4
 74
0
 40
0
 40
0
 40
0
 40
0
 40
1
 40
1
 40
1
 40
1
 10
42.450585
 20
231.952787
 30
0.0
 10
37.574639
 20
236.828733
 30
0.0
 10
34.835361
 20
243.441934
 30
0.0
 10
34.835361
 20
250.337563
 30
0.0
  0
SPLINE
  5
13c
100
AcDbEntity
  8
Layer_1
 62
7
100
AcDbSpline
 70
8
 71
3
 72
8
 73
4
 74
0
 40
0
 40
0
 40
0
 40
0
 40
1
 40
1
 40
1
 40
1
 10
34.835361
 20
250.337563
 30
0.0
 10
34.835361
 20
257.233192
 30
0.0
 10
37.574639
 20
263.846393
 30
0.0
 10
42.450585
 20
268.722339
 30
0.0
  0
SPLINE
  5
13d
100
AcDbEntity
  8
Layer_1
 62
7
100
AcDbSpline
 70
8
 71
3
 72
8
 73
4
 74
0
 40
0
 40
0
 40
0
 40
0
 40
1
 40
1
 40
1
 40
1
 10
42.450585
 20
268.722339
 30
0.0
 10
47.326531
 20
273.598285
 30
0.0
 10
53.939732
 20
276.337563
 30
0.0
 10
60.835361
 20
276.337563
 30
0.0
  0
SPLINE
  5
13e
100
AcDbEntity
  8
Layer_1
 62
7
100
AcDbSpline
 70
8
 71
3
 72
8
 73
4
 74
0
 40
0
 40
0
 40
0
 40
0
 40
1
 40
1
 40
1
 40
1
 10
60.835361
 20
276.337563
 30
0.0
 10
67.730990
 20
276.337563
 30
0.0
 10
74.344191
 20
273.598285
 30
0.0
 10
79.220137
 20
268.722339
 30
0.0
  0
SPLINE
  5
13f
100
AcDbEntity
  8
Layer_1
 62
7
100
AcDbSpline
 70
8
 71
3
 72
8
 73
4
 74
0
 40
0
 40
0
 40
0
 40
0
 40
1
 40
1
 40
1
 40
1
 10
79.220137
 20
268.722339
 30
0.0
 10
84.096083
 20
263.846393
 30
0.0
 10
86.835361
 20
257.233192
 30
0.0
 10
86.835361
 20
250.337563
 30
0.0
  0
LINE
  5
140
100
AcDbEntity
  8
Layer_1
 62
7
100
AcDbLine
 10
86.835361
 20
250.337563
 30
0.0
 11
86.835361
 21
250.337563
 31
0.0
  0
SPLINE
  5
141
100
AcDbEntity
  8
Layer_1
 62
7
100
AcDbSpline
 70
8
 71
3
 72
8
 73
4
 74
0
 40
0
 40
0
 40
0
 40
0
 40
1
 40
1
 40
1
 40
1
 10
37.585121
 20
275.337610
 30
0.0
 10
37.585121
 20
274.873481
 30
0.0
 10
37.400747
 20
274.428362
 30
0.0
 10
37.072558
 20
274.100173
 30
0.0
  0
SPLINE
  5
142
100
AcDbEntity
  8
Layer_1
 62
7
100
AcDbSpline
 70
8
 71
3
 72
8
 73
4
 74
0
 40
0
 40
0
 40
0
 40
0
 40
1
 40
1
 40
1
 40
1
 10
37.072558
 20
274.100173
 30
0.0
 10
36.744369
 20
273.771984
 30
0.0
 10
36.299250
 20
273.587610
 30
0.0
 10
35.835121
 20
273.587610
 30
0.0
  0
SPLINE
  5
143
100
AcDbEntity
  8
Layer_1
 62
7
100
AcDbSpline
 70
8
 71
3
 72
8
 73
4
 74
0
 40
0
 40
0
 40
0
 40
0
 40
1
 40
1
 40
1
 40
1
 10
35.835121
 20
273.587610
 30
0.0
 10
35.370992
 20
273.587610
 30
0.0
 10
34.925873
 20
273.771984
 30
0.0
 10
34.597684
 20
274.100173
 30
0.0
  0
SPLINE
  5
144
100
AcDbEntity
  8
Layer_1
 62
7
100
AcDbSpline
 70
8
 71
3
 72
8
 73
4
 74
0
 40
0
 40
0
 40
0
 40
0
 40
1
 40
1
 40
1
 40
1
 10
34.597684
 20
274.100173
 30
0.0
 10
34.269495
 20
274.428362
 30
0.0
 10
34.085121
 20
274.873481
 30
0.0
 10
34.085121
 20
275.337610
 30
0.0
  0
SPLINE
  5
145
100
AcDbEntity
  8
Layer_1
 62
7
100
AcDbSpline
 70
8
 71
3
 72
8
 73
4
 74
0
 40
0
 40
0
 40
0
 40
0
 40
1
 40
1
 40
1
 40
1
 10
34.085121
 20
275.337610
 30
0.0
 10
34.085121
 20
275.801739
 30
0.0
 10
34.269495
 20
276.246858
 30
0.0
 10
34.597684
 20
276.575047
 30
0.0
  0
SPLINE
  5
146
100
AcDbEntity
  8
Layer_1
 62
7
100
AcDbSpline
 70
8
 71
3
 72
8
 73
4
 74
0
 40
0
 40
0
 40
0
 40
0
 40
1
 40
1
 40
1
 40
1
 10
34.597684
 20
276.575047
 30
0.0
 10
34.925873
 20
276.903236
 30
0.0
 10
35.370992
 20
277.087610
 30
0.0
 10
35.835121
 20
277.087610
 30
0.0
  0
SPLINE
  5
147
100
AcDbEntity
  8
Layer_1
 62
7
100
AcDbSpline
 70
8
 71
3
 72
8
 73
4
 74
0
 40
0
 40
0
 40
0
 40
0
 40
1
 40
1
 40
1
 40
1
 10
35.835121
 20
277.087610
 30
0.0
 10
36.299250
 20
277.087610
 30
0.0
 10
36.744369
 20
276.903236
 30
0.0
 10
37.072558
 20
276.575047
 30
0.0
  0
SPLINE
  5
148
100
AcDbEntity
  8
Layer_1
 62
7
100
AcDbSpline
 70
8
 71
3
 72
8
 73
4
 74
0
 40
0
 40
0
 40
0
 40
0
 40
1
 40
1
 40
1
 40
1
 10
37.072558
 20
276.575047
 30
0.0
 10
37.400747
 20
276.246858
 30
0.0
 10
37.585121
 20
275.801739
 30
0.0
 10
37.585121
 20
275.337610
 30
0.0
  0
LINE
  5
149
100
AcDbEntity
  8
Layer_1
 62
7
100
AcDbLine
 10
37.585121
 20
275.337610
 30
0.0
 11
37.585121
 21
275.337610
 31
0.0
  0
SPLINE
  5
14a
100
AcDbEntity
  8
Layer_1
 62
7
100
AcDbSpline
 70
8
 71
3
 72
8
 73
4
 74
0
 40
0
 40
0
 40
0
 40
0
 40
1
 40
1
 40
1
 40
1
 10
87.585594
 20
275.337610
 30
0.0
 10
87.585594
 20
274.873481
 30
0.0
 10
87.401220
 20
274.428362
 30
0.0
 10
87.073031
 20
274.100173
 30
0.0
  0
SPLINE
  5
14b
100
AcDbEntity
  8
Layer_1
 62
7
100
AcDbSpline
 70
8
 71
3
 72
8
 73
4
 74
0
 40
0
 40
0
 40
0
 40
0
 40
1
 40
1
 40
1
 40
1
 10
87.073031
 20
274.100173
 30
0.0
 10
86.744842
 20
273.771984
 30
0.0
 10
86.299723
 20
273.587610
 30
0.0
 10
85.835594
 20
273.587610
 30
0.0
  0
SPLINE
  5
14c
100
AcDbEntity
  8
Layer_1
 62
7
100
AcDbSpline
 70
8
 71
3
 72
8
 73
4
 74
0
 40
0
 40
0
 40
0
 40
0
 40
1
 40
1
 40
1
 40
1
 10
85.835594
 20
273.587610
 30
0.0
 10
85.371465
 20
273.587610
 30
0.0
 10
84.926346
 20
273.771984
 30
0.0
 10
84.598157
 20
274.100173
 30
0.0
  0
SPLINE
  5
14d
100
AcDbEntity
  8
Layer_1
 62
7
100
AcDbSpline
 70
8
 71
3
 72
8
 73
4
 74
0
 40
0
 40
0
 40
0
 40
0
 40
1
 40
1
 40
1
 40
1
 10
84.598157
 20
274.100173
 30
0.0
 10
84.269968
 20
274.428362
 30
0.0
 10
84.085594
 20
274.873481
 30
0.0
 10
84.085594
 20
275.337610
 30
0.0
  0
SPLINE
  5
14e
100
AcDbEntity
  8
Layer_1
 62
7
100
AcDbSpline
 70
8
 71
3
 72
8
 73
4
 74
0
 40
0
 40
0
 40
0
 40
0
 40
1
 40
1
 40
1
 40
1
 10
84.085594
 20
275.337610
 30
0.0
 10
84.085594
 20
275.801739
 30
0.0
 10
84.269968
 20
276.246858
 30
0.0
 10
84.598157
 20
276.575047
 30
0.0
  0
SPLINE
  5
14f
100
AcDbEntity
  8
Layer_1
 62
7
100
AcDbSpline
 70
8
 71
3
 72
8
 73
4
 74
0
 40
0
 40
0
 40
0
 40
0
 40
1
 40
1
 40
1
 40
1
 10
84.598157
 20
276.575047
 30
0.0
 10
84.926346
 20
276.903236
 30
0.0
 10
85.371465
 20
277.087610
 30
0.0
 10
85.835594
 20
277.087610
 30
0.0
  0
SPLINE
  5
150
100
AcDbEntity
  8
Layer_1
 62
7
100
AcDbSpline
 70
8
 71
3
 72
8
 73
4
 74
0
 40
0
 40
0
 40
0
 40
0
 40
1
 40
1
 40
1
 40
1
 10
85.835594
 20
277.087610
 30
0.0
 10
86.299723
 20
277.087610
 30
0.0
 10
86.744842
 20
276.903236
 30
0.0
 10
87.073031
 20
276.575047
 30
0.0
  0
SPLINE
  5
151
100
AcDbEntity
  8
Layer_1
 62
7
100
AcDbSpline
 70
8
 71
3
 72
8
 73
4
 74
0
 40
0
 40
0
 40
0
 40
0
 40
1
 40
1
 40
1
 40
1
 10
87.073031
 20
276.575047
 30
0.0
 10
87.401220
 20
276.246858
 30
0.0
 10
87.585594
 20
275.801739
 30
0.0
 10
87.585594
 20
275.337610
 30
0.0
  0
LINE
  5
152
100
AcDbEntity
  8
Layer_1
 62
7
100
AcDbLine
 10
87.585594
 20
275.337610
 30
0.0
 11
87.585594
 21
275.337610
 31
0.0
  0
SPLINE
  5
153
100
AcDbEntity
  8
Layer_1
 62
7
100
AcDbSpline
 70
8
 71
3
 72
8
 73
4
 74
0
 40
0
 40
0
 40
0
 40
0
 40
1
 40
1
 40
1
 40
1
 10
37.585121
 20
225.337532
 30
0.0
 10
37.585121
 20
224.873403
 30
0.0
 10
37.400747
 20
224.428284
 30
0.0
 10
37.072558
 20
224.100095
 30
0.0
  0
SPLINE
  5
154
100
AcDbEntity
  8
Layer_1
 62
7
100
AcDbSpline
 70
8
 71
3
 72
8
 73
4
 74
0
 40
0
 40
0
 40
0
 40
0
 40
1
 40
1
 40
1
 40
1
 10
37.072558
 20
224.100095
 30
0.0
 10
36.744369
 20
223.771906
 30
0.0
 10
36.299250
 20
223.587532
 30
0.0
 10
35.835121
 20
223.587532
 30
0.0
  0
SPLINE
  5
155
100
AcDbEntity
  8
Layer_1
 62
7
100
AcDbSpline
 70
8
 71
3
 72
8
 73
4
 74
0
 40
0
 40
0
 40
0
 40
0
 40
1
 40
1
 40
1
 40
1
 10
35.835121
 20
223.587532
 30
0.0
 10
35.370992
 20
223.587532
 30
0.0
 10
34.925873
 20
223.771906
 30
0.0
 10
34.597684
 20
224.100095
 30
0.0
  0
SPLINE
  5
156
100
AcDbEntity
  8
Layer_1
 62
7
100
AcDbSpline
 70
8
 71
3
 72
8
 73
4
 74
0
 40
0
 40
0
 40
0
 40
0
 40
1
 40
1
 40
1
 40
1
 10
34.597684
 20
224.100095
 30
0.0
 10
34.269495
 20
224.428284
 30
0.0
 10
34.085121
 20
224.873403
 30
0.0
 10
34.085121
 20
225.337532
 30
0.0
  0
SPLINE
  5
157
100
AcDbEntity
  8
Layer_1
 62
7
100
AcDbSpline
 70
8
 71
3
 72
8
 73
4
 74
0
 40
0
 40
0
 40
0
 40
0
 40
1
 40
1
 40
1
 40
1
 10
34.085121
 20
225.337532
 30
0.0
 10
34.085121
 20
225.801661
 30
0.0
 10
34.269495
 20
226.246780
 30
0.0
 10
34.597684
 20
226.574969
 30
0.0
  0
SPLINE
  5
158
100
AcDbEntity
  8
Layer_1
 62
7
100
AcDbSpline
 70
8
 71
3
 72
8
 73
4
 74
0
 40
0
 40
0
 40
0
 40
0
 40
1
 40
1
 40
1
 40
1
 10
34.597684
 20
226.574969
 30
0.0
 10
34.925873
 20
226.903158
 30
0.0
 10
35.370992
 20
227.087532
 30
0.0
 10
35.835121
 20
227.087532
 30
0.0
  0
SPLINE
  5
159
100
AcDbEntity
  8
Layer_1
 62
7
100
AcDbSpline
 70
8
 71
3
 72
8
 73
4
 74
0
 40
0
 40
0
 40
0
 40
0
 40
1
 40
1
 40
1
 40
1
 10
35.835121
 20
227.087532
 30
0.0
 10
36.299250
 20
227.087532
 30
0.0
 10
36.744369
 20
226.903158
 30
0.0
 10
37.072558
 20
226.574969
 30
0.0
  0
SPLINE
  5
15a
100
AcDbEntity
  8
Layer_1
 62
7
100
AcDbSpline
 70
8
 71
3
 72
8
 73
4
 74
0
 40
0
 40
0
 40
0
 40
0
 40
1
 40
1
 40
1
 40
1
 10
37.072558
 20
226.574969
 30
0.0
 10
37.400747
 20
226.246780
 30
0.0
 10
37.585121
 20
225.801661
 30
0.0
 10
37.585121
 20
225.337532
 30
0.0
  0
LINE
  5
15b
100
AcDbEntity
  8
Layer_1
 62
7
100
AcDbLine
 10
37.585121
 20
225.337532
 30
0.0
 11
37.585121
 21
225.337532
 31
0.0
  0
SPLINE
  5
15c
100
AcDbEntity
  8
Layer_1
 62
7
100
AcDbSpline
 70
8
 71
3
 72
8
 73
4
 74
0
 40
0
 40
0
 40
0
 40
0
 40
1
 40
1
 40
1
 40
1
 10
87.585594
 20
225.337532
 30
0.0
 10
87.585594
 20
224.873403
 30
0.0
 10
87.401220
 20
224.428284
 30
0.0
 10
87.073031
 20
224.100095
 30
0.0
  0
SPLINE
  5
15d
100
AcDbEntity
  8
Layer_1
 62
7
100
AcDbSpline
 70
8
 71
3
 72
8
 73
4
 74
0
 40
0
 40
0
 40
0
 40
0
 40
1
 40
1
 40
1
 40
1
 10
87.073031
 20
224.100095
 30
0.0
 10
86.744842
 20
223.771906
 30
0.0
 10
86.299723
 20
223.587532
 30
0.0
 10
85.835594
 20
223.587532
 30
0.0
  0
SPLINE
  5
15e
100
AcDbEntity
  8
Layer_1
 62
7
100
AcDbSpline
 70
8
 71
3
 72
8
 73
4
 74
0
 40
0
 40
0
 40
0
 40
0
 40
1
 40
1
 40
1
 40
1
 10
85.835594
 20
223.587532
 30
0.0
 10
85.371465
 20
223.587532
 30
0.0
 10
84.926346
 20
223.771906
 30
0.0
 10
84.598157
 20
224.100095
 30
0.0
  0
SPLINE
  5
15f
100
AcDbEntity
  8
Layer_1
 62
7
100
AcDbSpline
 70
8
 71
3
 72
8
 73
4
 74
0
 40
0
 40
0
 40
0
 40
0
 40
1
 40
1
 40
1
 40
1
 10
84.598157
 20
224.100095
 30
0.0
 10
84.269968
 20
224.428284
 30
0.0
 10
84.085594
 20
224.873403
 30
0.0
 10
84.085594
 20
225.337532
 30
0.0
  0
SPLINE
  5
160
100
AcDbEntity
  8
Layer_1
 62
7
100
AcDbSpline
 70
8
 71
3
 72
8
 73
4
 74
0
 40
0
 40
0
 40
0
 40
0
 40
1
 40
1
 40
1
 40
1
 10
84.085594
 20
225.337532
 30
0.0
 10
84.085594
 20
225.801661
 30
0.0
 10
84.269968
 20
226.246780
 30
0.0
 10
84.598157
 20
226.574969
 30
0.0
  0
SPLINE
  5
161
100
AcDbEntity
  8
Layer_1
 62
7
100
AcDbSpline
 70
8
 71
3
 72
8
 73
4
 74
0
 40
0
 40
0
 40
0
 40
0
 40
1
 40
1
 40
1
 40
1
 10
84.598157
 20
226.574969
 30
0.0
 10
84.926346
 20
226.903158
 30
0.0
 10
85.371465
 20
227.087532
 30
0.0
 10
85.835594
 20
227.087532
 30
0.0
  0
SPLINE
  5
162
100
AcDbEntity
  8
Layer_1
 62
7
100
AcDbSpline
 70
8
 71
3
 72
8
 73
4
 74
0
 40
0
 40
0
 40
0
 40
0
 40
1
 40
1
 40
1
 40
1
 10
85.835594
 20
227.087532
 30
0.0
 10
86.299723
 20
227.087532
 30
0.0
 10
86.744842
 20
226.903158
 30
0.0
 10
87.073031
 20
226.574969
 30
0.0
  0
SPLINE
  5
163
100
AcDbEntity
  8
Layer_1
 62
7
100
AcDbSpline
 70
8
 71
3
 72
8
 73
4
 74
0
 40
0
 40
0
 40
0
 40
0
 40
1
 40
1
 40
1
 40
1
 10
87.073031
 20
226.574969
 30
0.0
 10
87.401220
 20
226.246780
 30
0.0
 10
87.585594
 20
225.801661
 30
0.0
 10
87.585594
 20
225.337532
 30
0.0
  0
LINE
  5
164
100
AcDbEntity
  8
Layer_1
 62
7
100
AcDbLine
 10
87.585594
 20
225.337532
 30
0.0
 11
87.585594
 21
225.337532
 31
0.0
  0
SPLINE
  5
165
100
AcDbEntity
  8
Layer_1
 62
7
100
AcDbSpline
 70
8
 71
3
 72
8
 73
4
 74
0
 40
0
 40
0
 40
0
 40
0
 40
1
 40
1
 40
1
 40
1
 10
133.277420
 20
173.455830
 30
0.0
 10
133.277420
 20
178.278915
 30
0.0
 10
130.704335
 20
182.735630
 30
0.0
 10
126.527420
 20
185.147173
 30
0.0
  0
SPLINE
  5
166
100
AcDbEntity
  8
Layer_1
 62
7
100
AcDbSpline
 70
8
 71
3
 72
8
 73
4
 74
0
 40
0
 40
0
 40
0
 40
0
 40
1
 40
1
 40
1
 40
1
 10
126.527420
 20
185.147173
 30
0.0
 10
122.350505
 20
187.558716
 30
0.0
 10
117.204335
 20
187.558716
 30
0.0
 10
113.027420
 20
185.147173
 30
0.0
  0
SPLINE
  5
167
100
AcDbEntity
  8
Layer_1
 62
7
100
AcDbSpline
 70
8
 71
3
 72
8
 73
4
 74
0
 40
0
 40
0
 40
0
 40
0
 40
1
 40
1
 40
1
 40
1
 10
113.027420
 20
185.147173
 30
0.0
 10
108.850505
 20
182.735630
 30
0.0
 10
106.277420
 20
178.278915
 30
0.0
 10
106.277420
 20
173.455830
 30
0.0
  0
SPLINE
  5
168
100
AcDbEntity
  8
Layer_1
 62
7
100
AcDbSpline
 70
8
 71
3
 72
8
 73
4
 74
0
 40
0
 40
0
 40
0
 40
0
 40
1
 40
1
 40
1
 40
1
 10
106.277420
 20
173.455830
 30
0.0
 10
106.277420
 20
168.632745
 30
0.0
 10
108.850505
 20
164.176030
 30
0.0
 10
113.027420
 20
161.764487
 30
0.0
  0
SPLINE
  5
169
100
AcDbEntity
  8
Layer_1
 62
7
100
AcDbSpline
 70
8
 71
3
 72
8
 73
4
 74
0
 40
0
 40
0
 40
0
 40
0
 40
1
 40
1
 40
1
 40
1
 10
113.027420
 20
161.764487
 30
0.0
 10
117.204335
 20
159.352944
 30
0.0
 10
122.350505
 20
159.352944
 30
0.0
 10
126.527420
 20
161.764487
 30
0.0
  0
SPLINE
  5
16a
100
AcDbEntity
  8
Layer_1
 62
7
100
AcDbSpline
 70
8
 71
3
 72
8
 73
4
 74
0
 40
0
 40
0
 40
0
 40
0
 40
1
 40
1
 40
1
 40
1
 10
126.527420
 20
161.764487
 30
0.0
 10
130.704335
 20
164.176030
 30
0.0
 10
133.277420
 20
168.632745
 30
0.0
 10
133.277420
 20
173.455830
 30
0.0
  0
LINE
  5
16b
100
AcDbEntity
  8
Layer_1
 62
7
100
AcDbLine
 10
133.277420
 20
173.455830
 30
0.0
 11
133.277420
 21
173.455830
 31
0.0
  0
LINE
  5
16c
100
AcDbEntity
  8
Layer_1
 62
7
100
AcDbLine
 10
19.273062
 20
292.572969
 30
0.0
 11
154.273060
 21
292.572969
 31
0.0
  0
LINE
  5
16d
100
AcDbEntity
  8
Layer_1
 62
7
100
AcDbLine
 10
154.273060
 20
292.572969
 30
0.0
 11
154.273060
 21
137.572970
 31
0.0
  0
LINE
  5
16e
100
AcDbEntity
  8
Layer_1
 62
7
100
AcDbLine
 10
154.273060
 20
137.572970
 30
0.0
 11
19.273062
 21
137.572970
 31
0.0
  0
LINE
  5
16f
100
AcDbEntity
  8
Layer_1
 62
7
100
AcDbLine
 10
19.273062
 20
137.572970
 30
0.0
 11
19.273062
 21
292.572969
 31
0.0
  0
ENDSEC
  0
SECTION
  2
OBJECTS
  0
DICTIONARY
  5
C
330
0
100
AcDbDictionary
  3
ACAD_GROUP
350
D
  3
ACAD_MLINESTYLE
350
17
  0
DICTIONARY
  5
D
330
C
100
AcDbDictionary
  0
DICTIONARY
  5
1A
330
C
100
AcDbDictionary
  0
DICTIONARY
  5
17
330
C
100
AcDbDictionary
  3
STANDARD
350
18
  0
DICTIONARY
  5
19
330
C
100
AcDbDictionary
  0
ENDSEC
  0
EOF
