  0
SECTION
  2
HEADER
  9
$ACADVER
  1
AC1014
  9
$HANDSEED
  5
FFFF
  9
$MEASUREMENT
 70
     1
  0
ENDSEC
  0
SECTION
  2
TABLES
  0
TABLE
  2
VPORT
  5
8
330
0
100
AcDbSymbolTable
 70
     4
  0
VPORT
  5
2E
330
8
100
AcDbSymbolTableRecord
100
AcDbViewportTableRecord
  2
*ACTIVE
 70
     0
 10
0.0
 20
0.0
 11
1.0
 21
1.0
 12
210.0
 22
148.5
 13
0.0
 23
0.0
 14
10.0
 24
10.0
 15
10.0
 25
10.0
 16
0.0
 26
0.0
 36
1.0
 17
0.0
 27
0.0
 37
0.0
 40
341.0
 41
1.24
 42
50.0
 43
0.0
 44
0.0
 50
0.0
 51
0.0
 71
     0
 72
   100
 73
     1
 74
     3
 75
     0
 76
     0
 77
     0
 78
     0
  0
ENDTAB
  0
TABLE
  2
LTYPE
  5
5
330
0
100
AcDbSymbolTable
 70
     1
  0
LTYPE
  5
14
330
5
100
AcDbSymbolTableRecord
100
AcDbLinetypeTableRecord
  2
BYBLOCK
 70
     0
  3

 72
    65
 73
     0
 40
0.0
  0
LTYPE
  5
15
330
5
100
AcDbSymbolTableRecord
100
AcDbLinetypeTableRecord
  2
BYLAYER
 70
     0
  3

 72
    65
 73
     0
 40
0.0
  0
LTYPE
  5
16
330
5
100
AcDbSymbolTableRecord
100
AcDbLinetypeTableRecord
  2
CONTINUOUS
 70
     0
  3
Solid line
 72
    65
 73
     0
 40
0.0
  0
ENDTAB
  0
TABLE
  2
LAYER
  5
2
100
AcDbSymbolTable
 70
2
  0
LAYER
  5
50
100
AcDbSymbolTableRecord
100
AcDbLayerTableRecord
  2
0
 70
0
  6
CONTINUOUS
  0
LAYER
  5
51
100
AcDbSymbolTableRecord
100
AcDbLayerTableRecord
  2
Layer_1
 70
0
  6
CONTINUOUS
  0
ENDTAB
  0
TABLE
  2
STYLE
  5
3
330
0
100
AcDbSymbolTable
 70
     1
  0
STYLE
  5
11
330
3
100
AcDbSymbolTableRecord
100
AcDbTextStyleTableRecord
  2
STANDARD
 70
     0
 40
0.0
 41
1.0
 50
0.0
 71
     0
 42
2.5
  3
txt
  4

  0
ENDTAB
  0
TABLE
  2
VIEW
  5
6
330
0
100
AcDbSymbolTable
 70
     0
  0
ENDTAB
  0
TABLE
  2
UCS
  5
7
330
0
100
AcDbSymbolTable
 70
     0
  0
ENDTAB
  0
TABLE
  2
APPID
  5
9
330
0
100
AcDbSymbolTable
 70
     2
  0
APPID
  5
12
330
9
100
AcDbSymbolTableRecord
100
AcDbRegAppTableRecord
  2
ACAD
 70
     0
  0
ENDTAB
  0
TABLE
  2
DIMSTYLE
  5
A
330
0
100
AcDbSymbolTable
 70
     1
  0
DIMSTYLE
105
27
330
A
100
AcDbSymbolTableRecord
100
AcDbDimStyleTableRecord
  2
ISO-25
 70
     0
  3

  4

  5

  6

  7

 40
1.0
 41
2.5
 42
0.625
 43
3.75
 44
1.25
 45
0.0
 46
0.0
 47
0.0
 48
0.0
140
2.5
141
2.5
142
0.0
143
0.03937007874016
144
1.0
145
0.0
146
1.0
147
0.625
 71
     0
 72
     0
 73
     0
 74
     0
 75
     0
 76
     0
 77
     1
 78
     8
170
     0
171
     3
172
     1
173
     0
174
     0
175
     0
176
     0
177
     0
178
     0
270
     2
271
     2
272
     2
273
     2
274
     3
340
11
275
     0
280
     0
281
     0
282
     0
283
     0
284
     8
285
     0
286
     0
287
     3
288
     0
  0
ENDTAB
  0
TABLE
  2
BLOCK_RECORD
  5
1
330
0
100
AcDbSymbolTable
 70
     1
  0
BLOCK_RECORD
  5
1F
330
1
100
AcDbSymbolTableRecord
100
AcDbBlockTableRecord
  2
*MODEL_SPACE
  0
BLOCK_RECORD
  5
1B
330
1
100
AcDbSymbolTableRecord
100
AcDbBlockTableRecord
  2
*PAPER_SPACE
  0
ENDTAB
  0
ENDSEC
  0
SECTION
  2
BLOCKS
  0
BLOCK
  5
20
330
1F
100
AcDbEntity
  8
0
100
AcDbBlockBegin
  2
*MODEL_SPACE
 70
     0
 10
0.0
 20
0.0
 30
0.0
  3
*MODEL_SPACE
  1

  0
ENDBLK
  5
21
330
1F
100
AcDbEntity
  8
0
100
AcDbBlockEnd
  0
BLOCK
  5
1C
330
1B
100
AcDbEntity
 67
     1
  8
0
100
AcDbBlockBegin
  2
*PAPER_SPACE
  1

  0
ENDBLK
  5
1D
330
1B
100
AcDbEntity
 67
     1
  8
0
100
AcDbBlockEnd
  0
ENDSEC
  0
SECTION
  2
ENTITIES
  0
LINE
  5
100
100
AcDbEntity
  8
Layer_1
 62
7
100
AcDbLine
 10
306.757431
 20
210.614370
 30
0.0
 11
306.757431
 21
233.092074
 31
0.0
  0
SPLINE
  5
101
100
AcDbEntity
  8
Layer_1
 62
7
100
AcDbSpline
 70
8
 71
3
 72
8
 73
4
 74
0
 40
0
 40
0
 40
0
 40
0
 40
1
 40
1
 40
1
 40
1
 10
306.757431
 20
233.092074
 30
0.0
 10
306.757431
 20
233.887724
 30
0.0
 10
306.441360
 20
234.650785
 30
0.0
 10
305.878751
 20
235.213393
 30
0.0
  0
SPLINE
  5
102
100
AcDbEntity
  8
Layer_1
 62
7
100
AcDbSpline
 70
8
 71
3
 72
8
 73
4
 74
0
 40
0
 40
0
 40
0
 40
0
 40
1
 40
1
 40
1
 40
1
 10
305.878751
 20
235.213393
 30
0.0
 10
305.316142
 20
235.776002
 30
0.0
 10
304.553080
 20
236.092071
 30
0.0
 10
303.757431
 20
236.092070
 30
0.0
  0
LINE
  5
103
100
AcDbEntity
  8
Layer_1
 62
7
100
AcDbLine
 10
303.757431
 20
236.092070
 30
0.0
 11
-137.242002
 21
236.092070
 31
0.0
  0
SPLINE
  5
104
100
AcDbEntity
  8
Layer_1
 62
7
100
AcDbSpline
 70
8
 71
3
 72
8
 73
4
 74
0
 40
0
 40
0
 40
0
 40
0
 40
1
 40
1
 40
1
 40
1
 10
-137.242002
 20
236.092070
 30
0.0
 10
-138.898854
 20
236.092070
 30
0.0
 10
-140.241998
 20
234.748926
 30
0.0
 10
-140.241998
 20
233.092074
 30
0.0
  0
LINE
  5
105
100
AcDbEntity
  8
Layer_1
 62
7
100
AcDbLine
 10
-140.241998
 20
233.092074
 30
0.0
 11
-140.241998
 21
210.614370
 31
0.0
  0
LINE
  5
106
100
AcDbEntity
  8
Layer_1
 62
7
100
AcDbLine
 10
-140.241998
 20
210.614370
 30
0.0
 11
-141.741996
 21
210.614370
 31
0.0
  0
LINE
  5
107
100
AcDbEntity
  8
Layer_1
 62
7
100
AcDbLine
 10
-141.741996
 20
210.614370
 30
0.0
 11
-141.741996
 21
199.289371
 31
0.0
  0
SPLINE
  5
108
100
AcDbEntity
  8
Layer_1
 62
7
100
AcDbSpline
 70
8
 71
3
 72
8
 73
4
 74
0
 40
0
 40
0
 40
0
 40
0
 40
1
 40
1
 40
1
 40
1
 10
-141.741996
 20
199.289371
 30
0.0
 10
-141.741997
 20
198.493722
 30
0.0
 10
-141.425928
 20
197.730660
 30
0.0
 10
-140.863319
 20
197.168050
 30
0.0
  0
SPLINE
  5
109
100
AcDbEntity
  8
Layer_1
 62
7
100
AcDbSpline
 70
8
 71
3
 72
8
 73
4
 74
0
 40
0
 40
0
 40
0
 40
0
 40
1
 40
1
 40
1
 40
1
 10
-140.863319
 20
197.168050
 30
0.0
 10
-140.300711
 20
196.605441
 30
0.0
 10
-139.537649
 20
196.289370
 30
0.0
 10
-138.742000
 20
196.289370
 30
0.0
  0
LINE
  5
10a
100
AcDbEntity
  8
Layer_1
 62
7
100
AcDbLine
 10
-138.742000
 20
196.289370
 30
0.0
 11
305.257431
 21
196.289370
 31
0.0
  0
SPLINE
  5
10b
100
AcDbEntity
  8
Layer_1
 62
7
100
AcDbSpline
 70
8
 71
3
 72
8
 73
4
 74
0
 40
0
 40
0
 40
0
 40
0
 40
1
 40
1
 40
1
 40
1
 10
305.257431
 20
196.289370
 30
0.0
 10
306.053081
 20
196.289369
 30
0.0
 10
306.816144
 20
196.605439
 30
0.0
 10
307.378753
 20
197.168049
 30
0.0
  0
SPLINE
  5
10c
100
AcDbEntity
  8
Layer_1
 62
7
100
AcDbSpline
 70
8
 71
3
 72
8
 73
4
 74
0
 40
0
 40
0
 40
0
 40
0
 40
1
 40
1
 40
1
 40
1
 10
307.378753
 20
197.168049
 30
0.0
 10
307.941363
 20
197.730658
 30
0.0
 10
308.257433
 20
198.493721
 30
0.0
 10
308.257432
 20
199.289371
 30
0.0
  0
LINE
  5
10d
100
AcDbEntity
  8
Layer_1
 62
7
100
AcDbLine
 10
308.257432
 20
199.289371
 30
0.0
 11
308.257432
 21
210.614370
 31
0.0
  0
LINE
  5
10e
100
AcDbEntity
  8
Layer_1
 62
7
100
AcDbLine
 10
308.257432
 20
210.614370
 30
0.0
 11
306.757431
 21
210.614370
 31
0.0
  0
SPLINE
  5
10f
100
AcDbEntity
  8
Layer_1
 62
7
100
AcDbSpline
 70
8
 71
3
 72
8
 73
4
 74
0
 40
0
 40
0
 40
0
 40
0
 40
1
 40
1
 40
1
 40
1
 10
-55.092105
 20
203.789372
 30
0.0
 10
-55.091869
 20
204.379017
 30
0.0
 10
-55.406306
 20
204.923972
 30
0.0
 10
-55.916914
 20
205.218863
 30
0.0
  0
SPLINE
  5
110
100
AcDbEntity
  8
Layer_1
 62
7
100
AcDbSpline
 70
8
 71
3
 72
8
 73
4
 74
0
 40
0
 40
0
 40
0
 40
0
 40
1
 40
1
 40
1
 40
1
 10
-55.916914
 20
205.218863
 30
0.0
 10
-56.427522
 20
205.513754
 30
0.0
 10
-57.056685
 20
205.513754
 30
0.0
 10
-57.567293
 20
205.218863
 30
0.0
  0
SPLINE
  5
111
100
AcDbEntity
  8
Layer_1
 62
7
100
AcDbSpline
 70
8
 71
3
 72
8
 73
4
 74
0
 40
0
 40
0
 40
0
 40
0
 40
1
 40
1
 40
1
 40
1
 10
-57.567293
 20
205.218863
 30
0.0
 10
-58.077901
 20
204.923972
 30
0.0
 10
-58.392337
 20
204.379017
 30
0.0
 10
-58.392101
 20
203.789372
 30
0.0
  0
SPLINE
  5
112
100
AcDbEntity
  8
Layer_1
 62
7
100
AcDbSpline
 70
8
 71
3
 72
8
 73
4
 74
0
 40
0
 40
0
 40
0
 40
0
 40
1
 40
1
 40
1
 40
1
 10
-58.392101
 20
203.789372
 30
0.0
 10
-58.392337
 20
203.199727
 30
0.0
 10
-58.077901
 20
202.654772
 30
0.0
 10
-57.567293
 20
202.359882
 30
0.0
  0
SPLINE
  5
113
100
AcDbEntity
  8
Layer_1
 62
7
100
AcDbSpline
 70
8
 71
3
 72
8
 73
4
 74
0
 40
0
 40
0
 40
0
 40
0
 40
1
 40
1
 40
1
 40
1
 10
-57.567293
 20
202.359882
 30
0.0
 10
-57.056685
 20
202.064991
 30
0.0
 10
-56.427522
 20
202.064991
 30
0.0
 10
-55.916914
 20
202.359882
 30
0.0
  0
SPLINE
  5
114
100
AcDbEntity
  8
Layer_1
 62
7
100
AcDbSpline
 70
8
 71
3
 72
8
 73
4
 74
0
 40
0
 40
0
 40
0
 40
0
 40
1
 40
1
 40
1
 40
1
 10
-55.916914
 20
202.359882
 30
0.0
 10
-55.406306
 20
202.654772
 30
0.0
 10
-55.091869
 20
203.199727
 30
0.0
 10
-55.092105
 20
203.789372
 30
0.0
  0
LINE
  5
115
100
AcDbEntity
  8
Layer_1
 62
7
100
AcDbLine
 10
-55.092105
 20
203.789372
 30
0.0
 11
-55.092105
 21
203.789372
 31
0.0
  0
SPLINE
  5
116
100
AcDbEntity
  8
Layer_1
 62
7
100
AcDbSpline
 70
8
 71
3
 72
8
 73
4
 74
0
 40
0
 40
0
 40
0
 40
0
 40
1
 40
1
 40
1
 40
1
 10
224.907543
 20
203.789372
 30
0.0
 10
224.909057
 20
204.379866
 30
0.0
 10
224.594902
 20
204.926153
 30
0.0
 10
224.083770
 20
205.221837
 30
0.0
  0
SPLINE
  5
117
100
AcDbEntity
  8
Layer_1
 62
7
100
AcDbSpline
 70
8
 71
3
 72
8
 73
4
 74
0
 40
0
 40
0
 40
0
 40
0
 40
1
 40
1
 40
1
 40
1
 10
224.083770
 20
205.221837
 30
0.0
 10
223.572639
 20
205.517522
 30
0.0
 10
222.942462
 20
205.517522
 30
0.0
 10
222.431330
 20
205.221837
 30
0.0
  0
SPLINE
  5
118
100
AcDbEntity
  8
Layer_1
 62
7
100
AcDbSpline
 70
8
 71
3
 72
8
 73
4
 74
0
 40
0
 40
0
 40
0
 40
0
 40
1
 40
1
 40
1
 40
1
 10
222.431330
 20
205.221837
 30
0.0
 10
221.920199
 20
204.926153
 30
0.0
 10
221.606044
 20
204.379866
 30
0.0
 10
221.607558
 20
203.789372
 30
0.0
  0
SPLINE
  5
119
100
AcDbEntity
  8
Layer_1
 62
7
100
AcDbSpline
 70
8
 71
3
 72
8
 73
4
 74
0
 40
0
 40
0
 40
0
 40
0
 40
1
 40
1
 40
1
 40
1
 10
221.607558
 20
203.789372
 30
0.0
 10
221.606044
 20
203.198879
 30
0.0
 10
221.920199
 20
202.652592
 30
0.0
 10
222.431330
 20
202.356907
 30
0.0
  0
SPLINE
  5
11a
100
AcDbEntity
  8
Layer_1
 62
7
100
AcDbSpline
 70
8
 71
3
 72
8
 73
4
 74
0
 40
0
 40
0
 40
0
 40
0
 40
1
 40
1
 40
1
 40
1
 10
222.431330
 20
202.356907
 30
0.0
 10
222.942462
 20
202.061222
 30
0.0
 10
223.572639
 20
202.061222
 30
0.0
 10
224.083770
 20
202.356907
 30
0.0
  0
SPLINE
  5
11b
100
AcDbEntity
  8
Layer_1
 62
7
100
AcDbSpline
 70
8
 71
3
 72
8
 73
4
 74
0
 40
0
 40
0
 40
0
 40
0
 40
1
 40
1
 40
1
 40
1
 10
224.083770
 20
202.356907
 30
0.0
 10
224.594902
 20
202.652592
 30
0.0
 10
224.909057
 20
203.198879
 30
0.0
 10
224.907543
 20
203.789372
 30
0.0
  0
LINE
  5
11c
100
AcDbEntity
  8
Layer_1
 62
7
100
AcDbLine
 10
224.907543
 20
203.789372
 30
0.0
 11
224.907543
 21
203.789372
 31
0.0
  0
SPLINE
  5
11d
100
AcDbEntity
  8
Layer_1
 62
7
100
AcDbSpline
 70
8
 71
3
 72
8
 73
4
 74
0
 40
0
 40
0
 40
0
 40
0
 40
1
 40
1
 40
1
 40
1
 10
154.907639
 20
203.789372
 30
0.0
 10
154.907639
 20
204.378862
 30
0.0
 10
154.593149
 20
204.923574
 30
0.0
 10
154.082636
 20
205.218319
 30
0.0
  0
SPLINE
  5
11e
100
AcDbEntity
  8
Layer_1
 62
7
100
AcDbSpline
 70
8
 71
3
 72
8
 73
4
 74
0
 40
0
 40
0
 40
0
 40
0
 40
1
 40
1
 40
1
 40
1
 10
154.082636
 20
205.218319
 30
0.0
 10
153.572122
 20
205.513064
 30
0.0
 10
152.943144
 20
205.513064
 30
0.0
 10
152.432630
 20
205.218319
 30
0.0
  0
SPLINE
  5
11f
100
AcDbEntity
  8
Layer_1
 62
7
100
AcDbSpline
 70
8
 71
3
 72
8
 73
4
 74
0
 40
0
 40
0
 40
0
 40
0
 40
1
 40
1
 40
1
 40
1
 10
152.432630
 20
205.218319
 30
0.0
 10
151.922116
 20
204.923574
 30
0.0
 10
151.607627
 20
204.378862
 30
0.0
 10
151.607627
 20
203.789372
 30
0.0
  0
SPLINE
  5
120
100
AcDbEntity
  8
Layer_1
 62
7
100
AcDbSpline
 70
8
 71
3
 72
8
 73
4
 74
0
 40
0
 40
0
 40
0
 40
0
 40
1
 40
1
 40
1
 40
1
 10
151.607627
 20
203.789372
 30
0.0
 10
151.607627
 20
203.199882
 30
0.0
 10
151.922116
 20
202.655170
 30
0.0
 10
152.432630
 20
202.360425
 30
0.0
  0
SPLINE
  5
121
100
AcDbEntity
  8
Layer_1
 62
7
100
AcDbSpline
 70
8
 71
3
 72
8
 73
4
 74
0
 40
0
 40
0
 40
0
 40
0
 40
1
 40
1
 40
1
 40
1
 10
152.432630
 20
202.360425
 30
0.0
 10
152.943144
 20
202.065680
 30
0.0
 10
153.572122
 20
202.065680
 30
0.0
 10
154.082636
 20
202.360425
 30
0.0
  0
SPLINE
  5
122
100
AcDbEntity
  8
Layer_1
 62
7
100
AcDbSpline
 70
8
 71
3
 72
8
 73
4
 74
0
 40
0
 40
0
 40
0
 40
0
 40
1
 40
1
 40
1
 40
1
 10
154.082636
 20
202.360425
 30
0.0
 10
154.593149
 20
202.655170
 30
0.0
 10
154.907639
 20
203.199882
 30
0.0
 10
154.907639
 20
203.789372
 30
0.0
  0
LINE
  5
123
100
AcDbEntity
  8
Layer_1
 62
7
100
AcDbLine
 10
154.907639
 20
203.789372
 30
0.0
 11
154.907639
 21
203.789372
 31
0.0
  0
SPLINE
  5
124
100
AcDbEntity
  8
Layer_1
 62
7
100
AcDbSpline
 70
8
 71
3
 72
8
 73
4
 74
0
 40
0
 40
0
 40
0
 40
0
 40
1
 40
1
 40
1
 40
1
 10
84.907719
 20
203.789372
 30
0.0
 10
84.907955
 20
204.379017
 30
0.0
 10
84.593519
 20
204.923972
 30
0.0
 10
84.082911
 20
205.218863
 30
0.0
  0
SPLINE
  5
125
100
AcDbEntity
  8
Layer_1
 62
7
100
AcDbSpline
 70
8
 71
3
 72
8
 73
4
 74
0
 40
0
 40
0
 40
0
 40
0
 40
1
 40
1
 40
1
 40
1
 10
84.082911
 20
205.218863
 30
0.0
 10
83.572302
 20
205.513754
 30
0.0
 10
82.943139
 20
205.513754
 30
0.0
 10
82.432531
 20
205.218863
 30
0.0
  0
SPLINE
  5
126
100
AcDbEntity
  8
Layer_1
 62
7
100
AcDbSpline
 70
8
 71
3
 72
8
 73
4
 74
0
 40
0
 40
0
 40
0
 40
0
 40
1
 40
1
 40
1
 40
1
 10
82.432531
 20
205.218863
 30
0.0
 10
81.921923
 20
204.923972
 30
0.0
 10
81.607487
 20
204.379017
 30
0.0
 10
81.607723
 20
203.789372
 30
0.0
  0
SPLINE
  5
127
100
AcDbEntity
  8
Layer_1
 62
7
100
AcDbSpline
 70
8
 71
3
 72
8
 73
4
 74
0
 40
0
 40
0
 40
0
 40
0
 40
1
 40
1
 40
1
 40
1
 10
81.607723
 20
203.789372
 30
0.0
 10
81.607487
 20
203.199727
 30
0.0
 10
81.921923
 20
202.654772
 30
0.0
 10
82.432531
 20
202.359882
 30
0.0
  0
SPLINE
  5
128
100
AcDbEntity
  8
Layer_1
 62
7
100
AcDbSpline
 70
8
 71
3
 72
8
 73
4
 74
0
 40
0
 40
0
 40
0
 40
0
 40
1
 40
1
 40
1
 40
1
 10
82.432531
 20
202.359882
 30
0.0
 10
82.943139
 20
202.064991
 30
0.0
 10
83.572302
 20
202.064991
 30
0.0
 10
84.082911
 20
202.359882
 30
0.0
  0
SPLINE
  5
129
100
AcDbEntity
  8
Layer_1
 62
7
100
AcDbSpline
 70
8
 71
3
 72
8
 73
4
 74
0
 40
0
 40
0
 40
0
 40
0
 40
1
 40
1
 40
1
 40
1
 10
84.082911
 20
202.359882
 30
0.0
 10
84.593519
 20
202.654772
 30
0.0
 10
84.907955
 20
203.199727
 30
0.0
 10
84.907719
 20
203.789372
 30
0.0
  0
LINE
  5
12a
100
AcDbEntity
  8
Layer_1
 62
7
100
AcDbLine
 10
84.907719
 20
203.789372
 30
0.0
 11
84.907719
 21
203.789372
 31
0.0
  0
SPLINE
  5
12b
100
AcDbEntity
  8
Layer_1
 62
7
100
AcDbSpline
 70
8
 71
3
 72
8
 73
4
 74
0
 40
0
 40
0
 40
0
 40
0
 40
1
 40
1
 40
1
 40
1
 10
14.907807
 20
203.789372
 30
0.0
 10
14.907807
 20
204.378860
 30
0.0
 10
14.593319
 20
204.923569
 30
0.0
 10
14.082808
 20
205.218312
 30
0.0
  0
SPLINE
  5
12c
100
AcDbEntity
  8
Layer_1
 62
7
100
AcDbSpline
 70
8
 71
3
 72
8
 73
4
 74
0
 40
0
 40
0
 40
0
 40
0
 40
1
 40
1
 40
1
 40
1
 10
14.082808
 20
205.218312
 30
0.0
 10
13.572297
 20
205.513056
 30
0.0
 10
12.943321
 20
205.513056
 30
0.0
 10
12.432810
 20
205.218312
 30
0.0
  0
SPLINE
  5
12d
100
AcDbEntity
  8
Layer_1
 62
7
100
AcDbSpline
 70
8
 71
3
 72
8
 73
4
 74
0
 40
0
 40
0
 40
0
 40
0
 40
1
 40
1
 40
1
 40
1
 10
12.432810
 20
205.218312
 30
0.0
 10
11.922299
 20
204.923569
 30
0.0
 10
11.607811
 20
204.378860
 30
0.0
 10
11.607811
 20
203.789372
 30
0.0
  0
SPLINE
  5
12e
100
AcDbEntity
  8
Layer_1
 62
7
100
AcDbSpline
 70
8
 71
3
 72
8
 73
4
 74
0
 40
0
 40
0
 40
0
 40
0
 40
1
 40
1
 40
1
 40
1
 10
11.607811
 20
203.789372
 30
0.0
 10
11.607811
 20
203.199885
 30
0.0
 10
11.922299
 20
202.655176
 30
0.0
 10
12.432810
 20
202.360432
 30
0.0
  0
SPLINE
  5
12f
100
AcDbEntity
  8
Layer_1
 62
7
100
AcDbSpline
 70
8
 71
3
 72
8
 73
4
 74
0
 40
0
 40
0
 40
0
 40
0
 40
1
 40
1
 40
1
 40
1
 10
12.432810
 20
202.360432
 30
0.0
 10
12.943321
 20
202.065688
 30
0.0
 10
13.572297
 20
202.065688
 30
0.0
 10
14.082808
 20
202.360432
 30
0.0
  0
SPLINE
  5
130
100
AcDbEntity
  8
Layer_1
 62
7
100
AcDbSpline
 70
8
 71
3
 72
8
 73
4
 74
0
 40
0
 40
0
 40
0
 40
0
 40
1
 40
1
 40
1
 40
1
 10
14.082808
 20
202.360432
 30
0.0
 10
14.593319
 20
202.655176
 30
0.0
 10
14.907807
 20
203.199885
 30
0.0
 10
14.907807
 20
203.789372
 30
0.0
  0
LINE
  5
131
100
AcDbEntity
  8
Layer_1
 62
7
100
AcDbLine
 10
14.907807
 20
203.789372
 30
0.0
 11
14.907807
 21
203.789372
 31
0.0
  0
SPLINE
  5
132
100
AcDbEntity
  8
Layer_1
 62
7
100
AcDbSpline
 70
8
 71
3
 72
8
 73
4
 74
0
 40
0
 40
0
 40
0
 40
0
 40
1
 40
1
 40
1
 40
1
 10
294.907447
 20
203.789372
 30
0.0
 10
294.908961
 20
204.379866
 30
0.0
 10
294.594806
 20
204.926153
 30
0.0
 10
294.083674
 20
205.221837
 30
0.0
  0
SPLINE
  5
133
100
AcDbEntity
  8
Layer_1
 62
7
100
AcDbSpline
 70
8
 71
3
 72
8
 73
4
 74
0
 40
0
 40
0
 40
0
 40
0
 40
1
 40
1
 40
1
 40
1
 10
294.083674
 20
205.221837
 30
0.0
 10
293.572543
 20
205.517522
 30
0.0
 10
292.942366
 20
205.517522
 30
0.0
 10
292.431234
 20
205.221837
 30
0.0
  0
SPLINE
  5
134
100
AcDbEntity
  8
Layer_1
 62
7
100
AcDbSpline
 70
8
 71
3
 72
8
 73
4
 74
0
 40
0
 40
0
 40
0
 40
0
 40
1
 40
1
 40
1
 40
1
 10
292.431234
 20
205.221837
 30
0.0
 10
291.920103
 20
204.926153
 30
0.0
 10
291.605948
 20
204.379866
 30
0.0
 10
291.607462
 20
203.789372
 30
0.0
  0
SPLINE
  5
135
100
AcDbEntity
  8
Layer_1
 62
7
100
AcDbSpline
 70
8
 71
3
 72
8
 73
4
 74
0
 40
0
 40
0
 40
0
 40
0
 40
1
 40
1
 40
1
 40
1
 10
291.607462
 20
203.789372
 30
0.0
 10
291.605948
 20
203.198879
 30
0.0
 10
291.920103
 20
202.652592
 30
0.0
 10
292.431234
 20
202.356907
 30
0.0
  0
SPLINE
  5
136
100
AcDbEntity
  8
Layer_1
 62
7
100
AcDbSpline
 70
8
 71
3
 72
8
 73
4
 74
0
 40
0
 40
0
 40
0
 40
0
 40
1
 40
1
 40
1
 40
1
 10
292.431234
 20
202.356907
 30
0.0
 10
292.942366
 20
202.061222
 30
0.0
 10
293.572543
 20
202.061222
 30
0.0
 10
294.083674
 20
202.356907
 30
0.0
  0
SPLINE
  5
137
100
AcDbEntity
  8
Layer_1
 62
7
100
AcDbSpline
 70
8
 71
3
 72
8
 73
4
 74
0
 40
0
 40
0
 40
0
 40
0
 40
1
 40
1
 40
1
 40
1
 10
294.083674
 20
202.356907
 30
0.0
 10
294.594806
 20
202.652592
 30
0.0
 10
294.908961
 20
203.198879
 30
0.0
 10
294.907447
 20
203.789372
 30
0.0
  0
LINE
  5
138
100
AcDbEntity
  8
Layer_1
 62
7
100
AcDbLine
 10
294.907447
 20
203.789372
 30
0.0
 11
294.907447
 21
203.789372
 31
0.0
  0
SPLINE
  5
139
100
AcDbEntity
  8
Layer_1
 62
7
100
AcDbSpline
 70
8
 71
3
 72
8
 73
4
 74
0
 40
0
 40
0
 40
0
 40
0
 40
1
 40
1
 40
1
 40
1
 10
-125.092017
 20
203.789372
 30
0.0
 10
-125.092017
 20
204.378860
 30
0.0
 10
-125.406505
 20
204.923569
 30
0.0
 10
-125.917016
 20
205.218312
 30
0.0
  0
SPLINE
  5
13a
100
AcDbEntity
  8
Layer_1
 62
7
100
AcDbSpline
 70
8
 71
3
 72
8
 73
4
 74
0
 40
0
 40
0
 40
0
 40
0
 40
1
 40
1
 40
1
 40
1
 10
-125.917016
 20
205.218312
 30
0.0
 10
-126.427527
 20
205.513056
 30
0.0
 10
-127.056503
 20
205.513056
 30
0.0
 10
-127.567014
 20
205.218312
 30
0.0
  0
SPLINE
  5
13b
100
AcDbEntity
  8
Layer_1
 62
7
100
AcDbSpline
 70
8
 71
3
 72
8
 73
4
 74
0
 40
0
 40
0
 40
0
 40
0
 40
1
 40
1
 40
1
 40
1
 10
-127.567014
 20
205.218312
 30
0.0
 10
-128.077525
 20
204.923569
 30
0.0
 10
-128.392013
 20
204.378860
 30
0.0
 10
-128.392013
 20
203.789372
 30
0.0
  0
SPLINE
  5
13c
100
AcDbEntity
  8
Layer_1
 62
7
100
AcDbSpline
 70
8
 71
3
 72
8
 73
4
 74
0
 40
0
 40
0
 40
0
 40
0
 40
1
 40
1
 40
1
 40
1
 10
-128.392013
 20
203.789372
 30
0.0
 10
-128.392013
 20
203.199885
 30
0.0
 10
-128.077525
 20
202.655176
 30
0.0
 10
-127.567014
 20
202.360432
 30
0.0
  0
SPLINE
  5
13d
100
AcDbEntity
  8
Layer_1
 62
7
100
AcDbSpline
 70
8
 71
3
 72
8
 73
4
 74
0
 40
0
 40
0
 40
0
 40
0
 40
1
 40
1
 40
1
 40
1
 10
-127.567014
 20
202.360432
 30
0.0
 10
-127.056503
 20
202.065688
 30
0.0
 10
-126.427527
 20
202.065688
 30
0.0
 10
-125.917016
 20
202.360432
 30
0.0
  0
SPLINE
  5
13e
100
AcDbEntity
  8
Layer_1
 62
7
100
AcDbSpline
 70
8
 71
3
 72
8
 73
4
 74
0
 40
0
 40
0
 40
0
 40
0
 40
1
 40
1
 40
1
 40
1
 10
-125.917016
 20
202.360432
 30
0.0
 10
-125.406505
 20
202.655176
 30
0.0
 10
-125.092017
 20
203.199885
 30
0.0
 10
-125.092017
 20
203.789372
 30
0.0
  0
LINE
  5
13f
100
AcDbEntity
  8
Layer_1
 62
7
100
AcDbLine
 10
-125.092017
 20
203.789372
 30
0.0
 11
-125.092017
 21
203.789372
 31
0.0
  0
ENDSEC
  0
SECTION
  2
OBJECTS
  0
DICTIONARY
  5
C
330
0
100
AcDbDictionary
  3
ACAD_GROUP
350
D
  3
ACAD_MLINESTYLE
350
17
  0
DICTIONARY
  5
D
330
C
100
AcDbDictionary
  0
DICTIONARY
  5
1A
330
C
100
AcDbDictionary
  0
DICTIONARY
  5
17
330
C
100
AcDbDictionary
  3
STANDARD
350
18
  0
DICTIONARY
  5
19
330
C
100
AcDbDictionary
  0
ENDSEC
  0
EOF
