  0
SECTION
  2
HEADER
  9
$ACADVER
  1
AC1014
  9
$HANDSEED
  5
FFFF
  9
$MEASUREMENT
 70
     1
  0
ENDSEC
  0
SECTION
  2
TABLES
  0
TABLE
  2
VPORT
  5
8
330
0
100
AcDbSymbolTable
 70
     4
  0
VPORT
  5
2E
330
8
100
AcDbSymbolTableRecord
100
AcDbViewportTableRecord
  2
*ACTIVE
 70
     0
 10
0.0
 20
0.0
 11
1.0
 21
1.0
 12
210.0
 22
148.5
 13
0.0
 23
0.0
 14
10.0
 24
10.0
 15
10.0
 25
10.0
 16
0.0
 26
0.0
 36
1.0
 17
0.0
 27
0.0
 37
0.0
 40
341.0
 41
1.24
 42
50.0
 43
0.0
 44
0.0
 50
0.0
 51
0.0
 71
     0
 72
   100
 73
     1
 74
     3
 75
     0
 76
     0
 77
     0
 78
     0
  0
ENDTAB
  0
TABLE
  2
LTYPE
  5
5
330
0
100
AcDbSymbolTable
 70
     1
  0
LTYPE
  5
14
330
5
100
AcDbSymbolTableRecord
100
AcDbLinetypeTableRecord
  2
BYBLOCK
 70
     0
  3

 72
    65
 73
     0
 40
0.0
  0
LTYPE
  5
15
330
5
100
AcDbSymbolTableRecord
100
AcDbLinetypeTableRecord
  2
BYLAYER
 70
     0
  3

 72
    65
 73
     0
 40
0.0
  0
LTYPE
  5
16
330
5
100
AcDbSymbolTableRecord
100
AcDbLinetypeTableRecord
  2
CONTINUOUS
 70
     0
  3
Solid line
 72
    65
 73
     0
 40
0.0
  0
ENDTAB
  0
TABLE
  2
LAYER
  5
2
100
AcDbSymbolTable
 70
2
  0
LAYER
  5
50
100
AcDbSymbolTableRecord
100
AcDbLayerTableRecord
  2
0
 70
0
  6
CONTINUOUS
  0
LAYER
  5
51
100
AcDbSymbolTableRecord
100
AcDbLayerTableRecord
  2
Layer_1
 70
0
  6
CONTINUOUS
  0
ENDTAB
  0
TABLE
  2
STYLE
  5
3
330
0
100
AcDbSymbolTable
 70
     1
  0
STYLE
  5
11
330
3
100
AcDbSymbolTableRecord
100
AcDbTextStyleTableRecord
  2
STANDARD
 70
     0
 40
0.0
 41
1.0
 50
0.0
 71
     0
 42
2.5
  3
txt
  4

  0
ENDTAB
  0
TABLE
  2
VIEW
  5
6
330
0
100
AcDbSymbolTable
 70
     0
  0
ENDTAB
  0
TABLE
  2
UCS
  5
7
330
0
100
AcDbSymbolTable
 70
     0
  0
ENDTAB
  0
TABLE
  2
APPID
  5
9
330
0
100
AcDbSymbolTable
 70
     2
  0
APPID
  5
12
330
9
100
AcDbSymbolTableRecord
100
AcDbRegAppTableRecord
  2
ACAD
 70
     0
  0
ENDTAB
  0
TABLE
  2
DIMSTYLE
  5
A
330
0
100
AcDbSymbolTable
 70
     1
  0
DIMSTYLE
105
27
330
A
100
AcDbSymbolTableRecord
100
AcDbDimStyleTableRecord
  2
ISO-25
 70
     0
  3

  4

  5

  6

  7

 40
1.0
 41
2.5
 42
0.625
 43
3.75
 44
1.25
 45
0.0
 46
0.0
 47
0.0
 48
0.0
140
2.5
141
2.5
142
0.0
143
0.03937007874016
144
1.0
145
0.0
146
1.0
147
0.625
 71
     0
 72
     0
 73
     0
 74
     0
 75
     0
 76
     0
 77
     1
 78
     8
170
     0
171
     3
172
     1
173
     0
174
     0
175
     0
176
     0
177
     0
178
     0
270
     2
271
     2
272
     2
273
     2
274
     3
340
11
275
     0
280
     0
281
     0
282
     0
283
     0
284
     8
285
     0
286
     0
287
     3
288
     0
  0
ENDTAB
  0
TABLE
  2
BLOCK_RECORD
  5
1
330
0
100
AcDbSymbolTable
 70
     1
  0
BLOCK_RECORD
  5
1F
330
1
100
AcDbSymbolTableRecord
100
AcDbBlockTableRecord
  2
*MODEL_SPACE
  0
BLOCK_RECORD
  5
1B
330
1
100
AcDbSymbolTableRecord
100
AcDbBlockTableRecord
  2
*PAPER_SPACE
  0
ENDTAB
  0
ENDSEC
  0
SECTION
  2
BLOCKS
  0
BLOCK
  5
20
330
1F
100
AcDbEntity
  8
0
100
AcDbBlockBegin
  2
*MODEL_SPACE
 70
     0
 10
0.0
 20
0.0
 30
0.0
  3
*MODEL_SPACE
  1

  0
ENDBLK
  5
21
330
1F
100
AcDbEntity
  8
0
100
AcDbBlockEnd
  0
BLOCK
  5
1C
330
1B
100
AcDbEntity
 67
     1
  8
0
100
AcDbBlockBegin
  2
*PAPER_SPACE
  1

  0
ENDBLK
  5
1D
330
1B
100
AcDbEntity
 67
     1
  8
0
100
AcDbBlockEnd
  0
ENDSEC
  0
SECTION
  2
ENTITIES
  0
LINE
  5
100
100
AcDbEntity
  8
Layer_1
 62
7
100
AcDbLine
 10
260.372505
 20
344.135996
 30
0.0
 11
-131.627000
 21
344.135996
 31
0.0
  0
LINE
  5
101
100
AcDbEntity
  8
Layer_1
 62
7
100
AcDbLine
 10
-131.627000
 20
344.135996
 30
0.0
 11
-131.627000
 21
326.374071
 31
0.0
  0
LINE
  5
102
100
AcDbEntity
  8
Layer_1
 62
7
100
AcDbLine
 10
-131.627000
 20
326.374071
 30
0.0
 11
-132.626999
 21
326.374071
 31
0.0
  0
LINE
  5
103
100
AcDbEntity
  8
Layer_1
 62
7
100
AcDbLine
 10
-132.626999
 20
326.374071
 30
0.0
 11
-132.626999
 21
146.374303
 31
0.0
  0
LINE
  5
104
100
AcDbEntity
  8
Layer_1
 62
7
100
AcDbLine
 10
-132.626999
 20
146.374303
 30
0.0
 11
-131.627000
 21
146.374303
 31
0.0
  0
LINE
  5
105
100
AcDbEntity
  8
Layer_1
 62
7
100
AcDbLine
 10
-131.627000
 20
146.374303
 30
0.0
 11
-131.627000
 21
128.612370
 31
0.0
  0
LINE
  5
106
100
AcDbEntity
  8
Layer_1
 62
7
100
AcDbLine
 10
-131.627000
 20
128.612370
 30
0.0
 11
260.372505
 21
128.612370
 31
0.0
  0
LINE
  5
107
100
AcDbEntity
  8
Layer_1
 62
7
100
AcDbLine
 10
260.372505
 20
128.612370
 30
0.0
 11
260.372505
 21
146.374303
 31
0.0
  0
LINE
  5
108
100
AcDbEntity
  8
Layer_1
 62
7
100
AcDbLine
 10
260.372505
 20
146.374303
 30
0.0
 11
261.372497
 21
146.374303
 31
0.0
  0
LINE
  5
109
100
AcDbEntity
  8
Layer_1
 62
7
100
AcDbLine
 10
261.372497
 20
146.374303
 30
0.0
 11
261.372497
 21
326.374071
 31
0.0
  0
LINE
  5
10a
100
AcDbEntity
  8
Layer_1
 62
7
100
AcDbLine
 10
261.372497
 20
326.374071
 30
0.0
 11
260.372505
 21
326.374071
 31
0.0
  0
LINE
  5
10b
100
AcDbEntity
  8
Layer_1
 62
7
100
AcDbLine
 10
260.372505
 20
326.374071
 30
0.0
 11
260.372505
 21
344.135996
 31
0.0
  0
SPLINE
  5
10c
100
AcDbEntity
  8
Layer_1
 62
7
100
AcDbSpline
 70
8
 71
3
 72
8
 73
4
 74
0
 40
0
 40
0
 40
0
 40
0
 40
1
 40
1
 40
1
 40
1
 10
-13.977148
 20
137.112364
 30
0.0
 10
-13.976911
 20
137.702008
 30
0.0
 10
-14.291348
 20
138.246964
 30
0.0
 10
-14.801956
 20
138.541854
 30
0.0
  0
SPLINE
  5
10d
100
AcDbEntity
  8
Layer_1
 62
7
100
AcDbSpline
 70
8
 71
3
 72
8
 73
4
 74
0
 40
0
 40
0
 40
0
 40
0
 40
1
 40
1
 40
1
 40
1
 10
-14.801956
 20
138.541854
 30
0.0
 10
-15.312564
 20
138.836745
 30
0.0
 10
-15.941727
 20
138.836745
 30
0.0
 10
-16.452335
 20
138.541854
 30
0.0
  0
SPLINE
  5
10e
100
AcDbEntity
  8
Layer_1
 62
7
100
AcDbSpline
 70
8
 71
3
 72
8
 73
4
 74
0
 40
0
 40
0
 40
0
 40
0
 40
1
 40
1
 40
1
 40
1
 10
-16.452335
 20
138.541854
 30
0.0
 10
-16.962943
 20
138.246964
 30
0.0
 10
-17.277379
 20
137.702008
 30
0.0
 10
-17.277143
 20
137.112364
 30
0.0
  0
SPLINE
  5
10f
100
AcDbEntity
  8
Layer_1
 62
7
100
AcDbSpline
 70
8
 71
3
 72
8
 73
4
 74
0
 40
0
 40
0
 40
0
 40
0
 40
1
 40
1
 40
1
 40
1
 10
-17.277143
 20
137.112364
 30
0.0
 10
-17.277379
 20
136.522719
 30
0.0
 10
-16.962943
 20
135.977764
 30
0.0
 10
-16.452335
 20
135.682873
 30
0.0
  0
SPLINE
  5
110
100
AcDbEntity
  8
Layer_1
 62
7
100
AcDbSpline
 70
8
 71
3
 72
8
 73
4
 74
0
 40
0
 40
0
 40
0
 40
0
 40
1
 40
1
 40
1
 40
1
 10
-16.452335
 20
135.682873
 30
0.0
 10
-15.941727
 20
135.387982
 30
0.0
 10
-15.312564
 20
135.387982
 30
0.0
 10
-14.801956
 20
135.682873
 30
0.0
  0
SPLINE
  5
111
100
AcDbEntity
  8
Layer_1
 62
7
100
AcDbSpline
 70
8
 71
3
 72
8
 73
4
 74
0
 40
0
 40
0
 40
0
 40
0
 40
1
 40
1
 40
1
 40
1
 10
-14.801956
 20
135.682873
 30
0.0
 10
-14.291348
 20
135.977764
 30
0.0
 10
-13.976911
 20
136.522719
 30
0.0
 10
-13.977148
 20
137.112364
 30
0.0
  0
LINE
  5
112
100
AcDbEntity
  8
Layer_1
 62
7
100
AcDbLine
 10
-13.977148
 20
137.112364
 30
0.0
 11
-13.977148
 21
137.112364
 31
0.0
  0
SPLINE
  5
113
100
AcDbEntity
  8
Layer_1
 62
7
100
AcDbSpline
 70
8
 71
3
 72
8
 73
4
 74
0
 40
0
 40
0
 40
0
 40
0
 40
1
 40
1
 40
1
 40
1
 10
256.022523
 20
287.874120
 30
0.0
 10
256.022523
 20
288.463610
 30
0.0
 10
255.708033
 20
289.008322
 30
0.0
 10
255.197520
 20
289.303067
 30
0.0
  0
SPLINE
  5
114
100
AcDbEntity
  8
Layer_1
 62
7
100
AcDbSpline
 70
8
 71
3
 72
8
 73
4
 74
0
 40
0
 40
0
 40
0
 40
0
 40
1
 40
1
 40
1
 40
1
 10
255.197520
 20
289.303067
 30
0.0
 10
254.687006
 20
289.597812
 30
0.0
 10
254.058028
 20
289.597812
 30
0.0
 10
253.547514
 20
289.303067
 30
0.0
  0
SPLINE
  5
115
100
AcDbEntity
  8
Layer_1
 62
7
100
AcDbSpline
 70
8
 71
3
 72
8
 73
4
 74
0
 40
0
 40
0
 40
0
 40
0
 40
1
 40
1
 40
1
 40
1
 10
253.547514
 20
289.303067
 30
0.0
 10
253.037001
 20
289.008322
 30
0.0
 10
252.722511
 20
288.463610
 30
0.0
 10
252.722511
 20
287.874120
 30
0.0
  0
SPLINE
  5
116
100
AcDbEntity
  8
Layer_1
 62
7
100
AcDbSpline
 70
8
 71
3
 72
8
 73
4
 74
0
 40
0
 40
0
 40
0
 40
0
 40
1
 40
1
 40
1
 40
1
 10
252.722511
 20
287.874120
 30
0.0
 10
252.722511
 20
287.284629
 30
0.0
 10
253.037000
 20
286.739918
 30
0.0
 10
253.547514
 20
286.445173
 30
0.0
  0
SPLINE
  5
117
100
AcDbEntity
  8
Layer_1
 62
7
100
AcDbSpline
 70
8
 71
3
 72
8
 73
4
 74
0
 40
0
 40
0
 40
0
 40
0
 40
1
 40
1
 40
1
 40
1
 10
253.547514
 20
286.445173
 30
0.0
 10
254.058028
 20
286.150427
 30
0.0
 10
254.687006
 20
286.150427
 30
0.0
 10
255.197520
 20
286.445173
 30
0.0
  0
SPLINE
  5
118
100
AcDbEntity
  8
Layer_1
 62
7
100
AcDbSpline
 70
8
 71
3
 72
8
 73
4
 74
0
 40
0
 40
0
 40
0
 40
0
 40
1
 40
1
 40
1
 40
1
 10
255.197520
 20
286.445173
 30
0.0
 10
255.708033
 20
286.739918
 30
0.0
 10
256.022523
 20
287.284629
 30
0.0
 10
256.022523
 20
287.874120
 30
0.0
  0
LINE
  5
119
100
AcDbEntity
  8
Layer_1
 62
7
100
AcDbLine
 10
256.022523
 20
287.874120
 30
0.0
 11
256.022523
 21
287.874120
 31
0.0
  0
SPLINE
  5
11a
100
AcDbEntity
  8
Layer_1
 62
7
100
AcDbSpline
 70
8
 71
3
 72
8
 73
4
 74
0
 40
0
 40
0
 40
0
 40
0
 40
1
 40
1
 40
1
 40
1
 10
246.022529
 20
137.112364
 30
0.0
 10
246.022529
 20
137.701854
 30
0.0
 10
245.708039
 20
138.246565
 30
0.0
 10
245.197526
 20
138.541311
 30
0.0
  0
SPLINE
  5
11b
100
AcDbEntity
  8
Layer_1
 62
7
100
AcDbSpline
 70
8
 71
3
 72
8
 73
4
 74
0
 40
0
 40
0
 40
0
 40
0
 40
1
 40
1
 40
1
 40
1
 10
245.197526
 20
138.541311
 30
0.0
 10
244.687012
 20
138.836056
 30
0.0
 10
244.058034
 20
138.836056
 30
0.0
 10
243.547520
 20
138.541311
 30
0.0
  0
SPLINE
  5
11c
100
AcDbEntity
  8
Layer_1
 62
7
100
AcDbSpline
 70
8
 71
3
 72
8
 73
4
 74
0
 40
0
 40
0
 40
0
 40
0
 40
1
 40
1
 40
1
 40
1
 10
243.547520
 20
138.541311
 30
0.0
 10
243.037007
 20
138.246565
 30
0.0
 10
242.722517
 20
137.701854
 30
0.0
 10
242.722517
 20
137.112364
 30
0.0
  0
SPLINE
  5
11d
100
AcDbEntity
  8
Layer_1
 62
7
100
AcDbSpline
 70
8
 71
3
 72
8
 73
4
 74
0
 40
0
 40
0
 40
0
 40
0
 40
1
 40
1
 40
1
 40
1
 10
242.722517
 20
137.112364
 30
0.0
 10
242.722517
 20
136.522873
 30
0.0
 10
243.037007
 20
135.978162
 30
0.0
 10
243.547520
 20
135.683417
 30
0.0
  0
SPLINE
  5
11e
100
AcDbEntity
  8
Layer_1
 62
7
100
AcDbSpline
 70
8
 71
3
 72
8
 73
4
 74
0
 40
0
 40
0
 40
0
 40
0
 40
1
 40
1
 40
1
 40
1
 10
243.547520
 20
135.683417
 30
0.0
 10
244.058034
 20
135.388671
 30
0.0
 10
244.687012
 20
135.388671
 30
0.0
 10
245.197526
 20
135.683417
 30
0.0
  0
SPLINE
  5
11f
100
AcDbEntity
  8
Layer_1
 62
7
100
AcDbSpline
 70
8
 71
3
 72
8
 73
4
 74
0
 40
0
 40
0
 40
0
 40
0
 40
1
 40
1
 40
1
 40
1
 10
245.197526
 20
135.683417
 30
0.0
 10
245.708040
 20
135.978162
 30
0.0
 10
246.022529
 20
136.522873
 30
0.0
 10
246.022529
 20
137.112364
 30
0.0
  0
LINE
  5
120
100
AcDbEntity
  8
Layer_1
 62
7
100
AcDbLine
 10
246.022529
 20
137.112364
 30
0.0
 11
246.022529
 21
137.112364
 31
0.0
  0
SPLINE
  5
121
100
AcDbEntity
  8
Layer_1
 62
7
100
AcDbSpline
 70
8
 71
3
 72
8
 73
4
 74
0
 40
0
 40
0
 40
0
 40
0
 40
1
 40
1
 40
1
 40
1
 10
256.022523
 20
237.874182
 30
0.0
 10
256.022523
 20
238.463673
 30
0.0
 10
255.708033
 20
239.008384
 30
0.0
 10
255.197520
 20
239.303129
 30
0.0
  0
SPLINE
  5
122
100
AcDbEntity
  8
Layer_1
 62
7
100
AcDbSpline
 70
8
 71
3
 72
8
 73
4
 74
0
 40
0
 40
0
 40
0
 40
0
 40
1
 40
1
 40
1
 40
1
 10
255.197520
 20
239.303129
 30
0.0
 10
254.687006
 20
239.597874
 30
0.0
 10
254.058028
 20
239.597874
 30
0.0
 10
253.547514
 20
239.303129
 30
0.0
  0
SPLINE
  5
123
100
AcDbEntity
  8
Layer_1
 62
7
100
AcDbSpline
 70
8
 71
3
 72
8
 73
4
 74
0
 40
0
 40
0
 40
0
 40
0
 40
1
 40
1
 40
1
 40
1
 10
253.547514
 20
239.303129
 30
0.0
 10
253.037001
 20
239.008384
 30
0.0
 10
252.722511
 20
238.463673
 30
0.0
 10
252.722511
 20
237.874182
 30
0.0
  0
SPLINE
  5
124
100
AcDbEntity
  8
Layer_1
 62
7
100
AcDbSpline
 70
8
 71
3
 72
8
 73
4
 74
0
 40
0
 40
0
 40
0
 40
0
 40
1
 40
1
 40
1
 40
1
 10
252.722511
 20
237.874182
 30
0.0
 10
252.722511
 20
237.284692
 30
0.0
 10
253.037000
 20
236.739980
 30
0.0
 10
253.547514
 20
236.445235
 30
0.0
  0
SPLINE
  5
125
100
AcDbEntity
  8
Layer_1
 62
7
100
AcDbSpline
 70
8
 71
3
 72
8
 73
4
 74
0
 40
0
 40
0
 40
0
 40
0
 40
1
 40
1
 40
1
 40
1
 10
253.547514
 20
236.445235
 30
0.0
 10
254.058028
 20
236.150490
 30
0.0
 10
254.687006
 20
236.150490
 30
0.0
 10
255.197520
 20
236.445235
 30
0.0
  0
SPLINE
  5
126
100
AcDbEntity
  8
Layer_1
 62
7
100
AcDbSpline
 70
8
 71
3
 72
8
 73
4
 74
0
 40
0
 40
0
 40
0
 40
0
 40
1
 40
1
 40
1
 40
1
 10
255.197520
 20
236.445235
 30
0.0
 10
255.708033
 20
236.739980
 30
0.0
 10
256.022523
 20
237.284692
 30
0.0
 10
256.022523
 20
237.874182
 30
0.0
  0
LINE
  5
127
100
AcDbEntity
  8
Layer_1
 62
7
100
AcDbLine
 10
256.022523
 20
237.874182
 30
0.0
 11
256.022523
 21
237.874182
 31
0.0
  0
SPLINE
  5
128
100
AcDbEntity
  8
Layer_1
 62
7
100
AcDbSpline
 70
8
 71
3
 72
8
 73
4
 74
0
 40
0
 40
0
 40
0
 40
0
 40
1
 40
1
 40
1
 40
1
 10
-113.977022
 20
137.112364
 30
0.0
 10
-113.977022
 20
137.701851
 30
0.0
 10
-114.291510
 20
138.246560
 30
0.0
 10
-114.802021
 20
138.541304
 30
0.0
  0
SPLINE
  5
129
100
AcDbEntity
  8
Layer_1
 62
7
100
AcDbSpline
 70
8
 71
3
 72
8
 73
4
 74
0
 40
0
 40
0
 40
0
 40
0
 40
1
 40
1
 40
1
 40
1
 10
-114.802021
 20
138.541304
 30
0.0
 10
-115.312532
 20
138.836048
 30
0.0
 10
-115.941508
 20
138.836048
 30
0.0
 10
-116.452019
 20
138.541304
 30
0.0
  0
SPLINE
  5
12a
100
AcDbEntity
  8
Layer_1
 62
7
100
AcDbSpline
 70
8
 71
3
 72
8
 73
4
 74
0
 40
0
 40
0
 40
0
 40
0
 40
1
 40
1
 40
1
 40
1
 10
-116.452019
 20
138.541304
 30
0.0
 10
-116.962530
 20
138.246560
 30
0.0
 10
-117.277018
 20
137.701851
 30
0.0
 10
-117.277018
 20
137.112364
 30
0.0
  0
SPLINE
  5
12b
100
AcDbEntity
  8
Layer_1
 62
7
100
AcDbSpline
 70
8
 71
3
 72
8
 73
4
 74
0
 40
0
 40
0
 40
0
 40
0
 40
1
 40
1
 40
1
 40
1
 10
-117.277018
 20
137.112364
 30
0.0
 10
-117.277018
 20
136.522876
 30
0.0
 10
-116.962530
 20
135.978167
 30
0.0
 10
-116.452019
 20
135.683423
 30
0.0
  0
SPLINE
  5
12c
100
AcDbEntity
  8
Layer_1
 62
7
100
AcDbSpline
 70
8
 71
3
 72
8
 73
4
 74
0
 40
0
 40
0
 40
0
 40
0
 40
1
 40
1
 40
1
 40
1
 10
-116.452019
 20
135.683423
 30
0.0
 10
-115.941508
 20
135.388680
 30
0.0
 10
-115.312532
 20
135.388680
 30
0.0
 10
-114.802021
 20
135.683423
 30
0.0
  0
SPLINE
  5
12d
100
AcDbEntity
  8
Layer_1
 62
7
100
AcDbSpline
 70
8
 71
3
 72
8
 73
4
 74
0
 40
0
 40
0
 40
0
 40
0
 40
1
 40
1
 40
1
 40
1
 10
-114.802021
 20
135.683423
 30
0.0
 10
-114.291510
 20
135.978167
 30
0.0
 10
-113.977022
 20
136.522876
 30
0.0
 10
-113.977022
 20
137.112364
 30
0.0
  0
LINE
  5
12e
100
AcDbEntity
  8
Layer_1
 62
7
100
AcDbLine
 10
-113.977022
 20
137.112364
 30
0.0
 11
-113.977022
 21
137.112364
 31
0.0
  0
SPLINE
  5
12f
100
AcDbEntity
  8
Layer_1
 62
7
100
AcDbSpline
 70
8
 71
3
 72
8
 73
4
 74
0
 40
0
 40
0
 40
0
 40
0
 40
1
 40
1
 40
1
 40
1
 10
146.022643
 20
335.636008
 30
0.0
 10
146.024157
 20
336.226501
 30
0.0
 10
145.710002
 20
336.772789
 30
0.0
 10
145.198871
 20
337.068473
 30
0.0
  0
SPLINE
  5
130
100
AcDbEntity
  8
Layer_1
 62
7
100
AcDbSpline
 70
8
 71
3
 72
8
 73
4
 74
0
 40
0
 40
0
 40
0
 40
0
 40
1
 40
1
 40
1
 40
1
 10
145.198871
 20
337.068473
 30
0.0
 10
144.687739
 20
337.364158
 30
0.0
 10
144.057562
 20
337.364158
 30
0.0
 10
143.546431
 20
337.068473
 30
0.0
  0
SPLINE
  5
131
100
AcDbEntity
  8
Layer_1
 62
7
100
AcDbSpline
 70
8
 71
3
 72
8
 73
4
 74
0
 40
0
 40
0
 40
0
 40
0
 40
1
 40
1
 40
1
 40
1
 10
143.546431
 20
337.068473
 30
0.0
 10
143.035299
 20
336.772789
 30
0.0
 10
142.721144
 20
336.226501
 30
0.0
 10
142.722658
 20
335.636008
 30
0.0
  0
SPLINE
  5
132
100
AcDbEntity
  8
Layer_1
 62
7
100
AcDbSpline
 70
8
 71
3
 72
8
 73
4
 74
0
 40
0
 40
0
 40
0
 40
0
 40
1
 40
1
 40
1
 40
1
 10
142.722658
 20
335.636008
 30
0.0
 10
142.721144
 20
335.045515
 30
0.0
 10
143.035299
 20
334.499227
 30
0.0
 10
143.546431
 20
334.203543
 30
0.0
  0
SPLINE
  5
133
100
AcDbEntity
  8
Layer_1
 62
7
100
AcDbSpline
 70
8
 71
3
 72
8
 73
4
 74
0
 40
0
 40
0
 40
0
 40
0
 40
1
 40
1
 40
1
 40
1
 10
143.546431
 20
334.203543
 30
0.0
 10
144.057562
 20
333.907858
 30
0.0
 10
144.687739
 20
333.907858
 30
0.0
 10
145.198871
 20
334.203543
 30
0.0
  0
SPLINE
  5
134
100
AcDbEntity
  8
Layer_1
 62
7
100
AcDbSpline
 70
8
 71
3
 72
8
 73
4
 74
0
 40
0
 40
0
 40
0
 40
0
 40
1
 40
1
 40
1
 40
1
 10
145.198871
 20
334.203543
 30
0.0
 10
145.710002
 20
334.499227
 30
0.0
 10
146.024157
 20
335.045515
 30
0.0
 10
146.022643
 20
335.636008
 30
0.0
  0
LINE
  5
135
100
AcDbEntity
  8
Layer_1
 62
7
100
AcDbLine
 10
146.022643
 20
335.636008
 30
0.0
 11
146.022643
 21
335.636008
 31
0.0
  0
SPLINE
  5
136
100
AcDbEntity
  8
Layer_1
 62
7
100
AcDbSpline
 70
8
 71
3
 72
8
 73
4
 74
0
 40
0
 40
0
 40
0
 40
0
 40
1
 40
1
 40
1
 40
1
 10
-13.977148
 20
335.636008
 30
0.0
 10
-13.976911
 20
336.225653
 30
0.0
 10
-14.291348
 20
336.770608
 30
0.0
 10
-14.801956
 20
337.065499
 30
0.0
  0
SPLINE
  5
137
100
AcDbEntity
  8
Layer_1
 62
7
100
AcDbSpline
 70
8
 71
3
 72
8
 73
4
 74
0
 40
0
 40
0
 40
0
 40
0
 40
1
 40
1
 40
1
 40
1
 10
-14.801956
 20
337.065499
 30
0.0
 10
-15.312564
 20
337.360389
 30
0.0
 10
-15.941727
 20
337.360389
 30
0.0
 10
-16.452335
 20
337.065499
 30
0.0
  0
SPLINE
  5
138
100
AcDbEntity
  8
Layer_1
 62
7
100
AcDbSpline
 70
8
 71
3
 72
8
 73
4
 74
0
 40
0
 40
0
 40
0
 40
0
 40
1
 40
1
 40
1
 40
1
 10
-16.452335
 20
337.065499
 30
0.0
 10
-16.962943
 20
336.770608
 30
0.0
 10
-17.277379
 20
336.225653
 30
0.0
 10
-17.277143
 20
335.636008
 30
0.0
  0
SPLINE
  5
139
100
AcDbEntity
  8
Layer_1
 62
7
100
AcDbSpline
 70
8
 71
3
 72
8
 73
4
 74
0
 40
0
 40
0
 40
0
 40
0
 40
1
 40
1
 40
1
 40
1
 10
-17.277143
 20
335.636008
 30
0.0
 10
-17.277379
 20
335.046363
 30
0.0
 10
-16.962943
 20
334.501408
 30
0.0
 10
-16.452335
 20
334.206517
 30
0.0
  0
SPLINE
  5
13a
100
AcDbEntity
  8
Layer_1
 62
7
100
AcDbSpline
 70
8
 71
3
 72
8
 73
4
 74
0
 40
0
 40
0
 40
0
 40
0
 40
1
 40
1
 40
1
 40
1
 10
-16.452335
 20
334.206517
 30
0.0
 10
-15.941727
 20
333.911627
 30
0.0
 10
-15.312564
 20
333.911627
 30
0.0
 10
-14.801956
 20
334.206517
 30
0.0
  0
SPLINE
  5
13b
100
AcDbEntity
  8
Layer_1
 62
7
100
AcDbSpline
 70
8
 71
3
 72
8
 73
4
 74
0
 40
0
 40
0
 40
0
 40
0
 40
1
 40
1
 40
1
 40
1
 10
-14.801956
 20
334.206517
 30
0.0
 10
-14.291348
 20
334.501408
 30
0.0
 10
-13.976911
 20
335.046363
 30
0.0
 10
-13.977148
 20
335.636008
 30
0.0
  0
LINE
  5
13c
100
AcDbEntity
  8
Layer_1
 62
7
100
AcDbLine
 10
-13.977148
 20
335.636008
 30
0.0
 11
-13.977148
 21
335.636008
 31
0.0
  0
SPLINE
  5
13d
100
AcDbEntity
  8
Layer_1
 62
7
100
AcDbSpline
 70
8
 71
3
 72
8
 73
4
 74
0
 40
0
 40
0
 40
0
 40
0
 40
1
 40
1
 40
1
 40
1
 10
-123.977010
 20
187.874247
 30
0.0
 10
-123.977010
 20
188.463735
 30
0.0
 10
-124.291497
 20
189.008444
 30
0.0
 10
-124.802009
 20
189.303187
 30
0.0
  0
SPLINE
  5
13e
100
AcDbEntity
  8
Layer_1
 62
7
100
AcDbSpline
 70
8
 71
3
 72
8
 73
4
 74
0
 40
0
 40
0
 40
0
 40
0
 40
1
 40
1
 40
1
 40
1
 10
-124.802009
 20
189.303187
 30
0.0
 10
-125.312520
 20
189.597931
 30
0.0
 10
-125.941495
 20
189.597931
 30
0.0
 10
-126.452006
 20
189.303187
 30
0.0
  0
SPLINE
  5
13f
100
AcDbEntity
  8
Layer_1
 62
7
100
AcDbSpline
 70
8
 71
3
 72
8
 73
4
 74
0
 40
0
 40
0
 40
0
 40
0
 40
1
 40
1
 40
1
 40
1
 10
-126.452006
 20
189.303187
 30
0.0
 10
-126.962518
 20
189.008444
 30
0.0
 10
-127.277005
 20
188.463735
 30
0.0
 10
-127.277005
 20
187.874247
 30
0.0
  0
SPLINE
  5
140
100
AcDbEntity
  8
Layer_1
 62
7
100
AcDbSpline
 70
8
 71
3
 72
8
 73
4
 74
0
 40
0
 40
0
 40
0
 40
0
 40
1
 40
1
 40
1
 40
1
 10
-127.277005
 20
187.874247
 30
0.0
 10
-127.277005
 20
187.284760
 30
0.0
 10
-126.962518
 20
186.740051
 30
0.0
 10
-126.452006
 20
186.445307
 30
0.0
  0
SPLINE
  5
141
100
AcDbEntity
  8
Layer_1
 62
7
100
AcDbSpline
 70
8
 71
3
 72
8
 73
4
 74
0
 40
0
 40
0
 40
0
 40
0
 40
1
 40
1
 40
1
 40
1
 10
-126.452006
 20
186.445307
 30
0.0
 10
-125.941495
 20
186.150563
 30
0.0
 10
-125.312520
 20
186.150563
 30
0.0
 10
-124.802009
 20
186.445307
 30
0.0
  0
SPLINE
  5
142
100
AcDbEntity
  8
Layer_1
 62
7
100
AcDbSpline
 70
8
 71
3
 72
8
 73
4
 74
0
 40
0
 40
0
 40
0
 40
0
 40
1
 40
1
 40
1
 40
1
 10
-124.802009
 20
186.445307
 30
0.0
 10
-124.291497
 20
186.740051
 30
0.0
 10
-123.977010
 20
187.284760
 30
0.0
 10
-123.977010
 20
187.874247
 30
0.0
  0
LINE
  5
143
100
AcDbEntity
  8
Layer_1
 62
7
100
AcDbLine
 10
-123.977010
 20
187.874247
 30
0.0
 11
-123.977010
 21
187.874247
 31
0.0
  0
SPLINE
  5
144
100
AcDbEntity
  8
Layer_1
 62
7
100
AcDbSpline
 70
8
 71
3
 72
8
 73
4
 74
0
 40
0
 40
0
 40
0
 40
0
 40
1
 40
1
 40
1
 40
1
 10
246.022529
 20
335.636008
 30
0.0
 10
246.022529
 20
336.225498
 30
0.0
 10
245.708039
 20
336.770210
 30
0.0
 10
245.197526
 20
337.064955
 30
0.0
  0
SPLINE
  5
145
100
AcDbEntity
  8
Layer_1
 62
7
100
AcDbSpline
 70
8
 71
3
 72
8
 73
4
 74
0
 40
0
 40
0
 40
0
 40
0
 40
1
 40
1
 40
1
 40
1
 10
245.197526
 20
337.064955
 30
0.0
 10
244.687012
 20
337.359700
 30
0.0
 10
244.058034
 20
337.359700
 30
0.0
 10
243.547520
 20
337.064955
 30
0.0
  0
SPLINE
  5
146
100
AcDbEntity
  8
Layer_1
 62
7
100
AcDbSpline
 70
8
 71
3
 72
8
 73
4
 74
0
 40
0
 40
0
 40
0
 40
0
 40
1
 40
1
 40
1
 40
1
 10
243.547520
 20
337.064955
 30
0.0
 10
243.037007
 20
336.770210
 30
0.0
 10
242.722517
 20
336.225498
 30
0.0
 10
242.722517
 20
335.636008
 30
0.0
  0
SPLINE
  5
147
100
AcDbEntity
  8
Layer_1
 62
7
100
AcDbSpline
 70
8
 71
3
 72
8
 73
4
 74
0
 40
0
 40
0
 40
0
 40
0
 40
1
 40
1
 40
1
 40
1
 10
242.722517
 20
335.636008
 30
0.0
 10
242.722517
 20
335.046518
 30
0.0
 10
243.037007
 20
334.501806
 30
0.0
 10
243.547520
 20
334.207061
 30
0.0
  0
SPLINE
  5
148
100
AcDbEntity
  8
Layer_1
 62
7
100
AcDbSpline
 70
8
 71
3
 72
8
 73
4
 74
0
 40
0
 40
0
 40
0
 40
0
 40
1
 40
1
 40
1
 40
1
 10
243.547520
 20
334.207061
 30
0.0
 10
244.058034
 20
333.912316
 30
0.0
 10
244.687012
 20
333.912316
 30
0.0
 10
245.197526
 20
334.207061
 30
0.0
  0
SPLINE
  5
149
100
AcDbEntity
  8
Layer_1
 62
7
100
AcDbSpline
 70
8
 71
3
 72
8
 73
4
 74
0
 40
0
 40
0
 40
0
 40
0
 40
1
 40
1
 40
1
 40
1
 10
245.197526
 20
334.207061
 30
0.0
 10
245.708040
 20
334.501806
 30
0.0
 10
246.022529
 20
335.046518
 30
0.0
 10
246.022529
 20
335.636008
 30
0.0
  0
LINE
  5
14a
100
AcDbEntity
  8
Layer_1
 62
7
100
AcDbLine
 10
246.022529
 20
335.636008
 30
0.0
 11
246.022529
 21
335.636008
 31
0.0
  0
SPLINE
  5
14b
100
AcDbEntity
  8
Layer_1
 62
7
100
AcDbSpline
 70
8
 71
3
 72
8
 73
4
 74
0
 40
0
 40
0
 40
0
 40
0
 40
1
 40
1
 40
1
 40
1
 10
-123.977010
 20
287.874120
 30
0.0
 10
-123.977010
 20
288.463607
 30
0.0
 10
-124.291497
 20
289.008316
 30
0.0
 10
-124.802009
 20
289.303060
 30
0.0
  0
SPLINE
  5
14c
100
AcDbEntity
  8
Layer_1
 62
7
100
AcDbSpline
 70
8
 71
3
 72
8
 73
4
 74
0
 40
0
 40
0
 40
0
 40
0
 40
1
 40
1
 40
1
 40
1
 10
-124.802009
 20
289.303060
 30
0.0
 10
-125.312520
 20
289.597804
 30
0.0
 10
-125.941495
 20
289.597804
 30
0.0
 10
-126.452006
 20
289.303060
 30
0.0
  0
SPLINE
  5
14d
100
AcDbEntity
  8
Layer_1
 62
7
100
AcDbSpline
 70
8
 71
3
 72
8
 73
4
 74
0
 40
0
 40
0
 40
0
 40
0
 40
1
 40
1
 40
1
 40
1
 10
-126.452006
 20
289.303060
 30
0.0
 10
-126.962518
 20
289.008316
 30
0.0
 10
-127.277005
 20
288.463607
 30
0.0
 10
-127.277005
 20
287.874120
 30
0.0
  0
SPLINE
  5
14e
100
AcDbEntity
  8
Layer_1
 62
7
100
AcDbSpline
 70
8
 71
3
 72
8
 73
4
 74
0
 40
0
 40
0
 40
0
 40
0
 40
1
 40
1
 40
1
 40
1
 10
-127.277005
 20
287.874120
 30
0.0
 10
-127.277005
 20
287.284632
 30
0.0
 10
-126.962518
 20
286.739923
 30
0.0
 10
-126.452006
 20
286.445180
 30
0.0
  0
SPLINE
  5
14f
100
AcDbEntity
  8
Layer_1
 62
7
100
AcDbSpline
 70
8
 71
3
 72
8
 73
4
 74
0
 40
0
 40
0
 40
0
 40
0
 40
1
 40
1
 40
1
 40
1
 10
-126.452006
 20
286.445180
 30
0.0
 10
-125.941495
 20
286.150436
 30
0.0
 10
-125.312520
 20
286.150436
 30
0.0
 10
-124.802009
 20
286.445180
 30
0.0
  0
SPLINE
  5
150
100
AcDbEntity
  8
Layer_1
 62
7
100
AcDbSpline
 70
8
 71
3
 72
8
 73
4
 74
0
 40
0
 40
0
 40
0
 40
0
 40
1
 40
1
 40
1
 40
1
 10
-124.802009
 20
286.445180
 30
0.0
 10
-124.291497
 20
286.739923
 30
0.0
 10
-123.977010
 20
287.284632
 30
0.0
 10
-123.977010
 20
287.874120
 30
0.0
  0
LINE
  5
151
100
AcDbEntity
  8
Layer_1
 62
7
100
AcDbLine
 10
-123.977010
 20
287.874120
 30
0.0
 11
-123.977010
 21
287.874120
 31
0.0
  0
SPLINE
  5
152
100
AcDbEntity
  8
Layer_1
 62
7
100
AcDbSpline
 70
8
 71
3
 72
8
 73
4
 74
0
 40
0
 40
0
 40
0
 40
0
 40
1
 40
1
 40
1
 40
1
 10
146.022643
 20
137.112364
 30
0.0
 10
146.024157
 20
137.702857
 30
0.0
 10
145.710002
 20
138.249144
 30
0.0
 10
145.198871
 20
138.544829
 30
0.0
  0
SPLINE
  5
153
100
AcDbEntity
  8
Layer_1
 62
7
100
AcDbSpline
 70
8
 71
3
 72
8
 73
4
 74
0
 40
0
 40
0
 40
0
 40
0
 40
1
 40
1
 40
1
 40
1
 10
145.198871
 20
138.544829
 30
0.0
 10
144.687739
 20
138.840513
 30
0.0
 10
144.057562
 20
138.840513
 30
0.0
 10
143.546431
 20
138.544829
 30
0.0
  0
SPLINE
  5
154
100
AcDbEntity
  8
Layer_1
 62
7
100
AcDbSpline
 70
8
 71
3
 72
8
 73
4
 74
0
 40
0
 40
0
 40
0
 40
0
 40
1
 40
1
 40
1
 40
1
 10
143.546431
 20
138.544829
 30
0.0
 10
143.035299
 20
138.249144
 30
0.0
 10
142.721144
 20
137.702857
 30
0.0
 10
142.722658
 20
137.112364
 30
0.0
  0
SPLINE
  5
155
100
AcDbEntity
  8
Layer_1
 62
7
100
AcDbSpline
 70
8
 71
3
 72
8
 73
4
 74
0
 40
0
 40
0
 40
0
 40
0
 40
1
 40
1
 40
1
 40
1
 10
142.722658
 20
137.112364
 30
0.0
 10
142.721144
 20
136.521870
 30
0.0
 10
143.035299
 20
135.975583
 30
0.0
 10
143.546431
 20
135.679898
 30
0.0
  0
SPLINE
  5
156
100
AcDbEntity
  8
Layer_1
 62
7
100
AcDbSpline
 70
8
 71
3
 72
8
 73
4
 74
0
 40
0
 40
0
 40
0
 40
0
 40
1
 40
1
 40
1
 40
1
 10
143.546431
 20
135.679898
 30
0.0
 10
144.057562
 20
135.384214
 30
0.0
 10
144.687739
 20
135.384214
 30
0.0
 10
145.198871
 20
135.679898
 30
0.0
  0
SPLINE
  5
157
100
AcDbEntity
  8
Layer_1
 62
7
100
AcDbSpline
 70
8
 71
3
 72
8
 73
4
 74
0
 40
0
 40
0
 40
0
 40
0
 40
1
 40
1
 40
1
 40
1
 10
145.198871
 20
135.679898
 30
0.0
 10
145.710002
 20
135.975583
 30
0.0
 10
146.024157
 20
136.521870
 30
0.0
 10
146.022643
 20
137.112364
 30
0.0
  0
LINE
  5
158
100
AcDbEntity
  8
Layer_1
 62
7
100
AcDbLine
 10
146.022643
 20
137.112364
 30
0.0
 11
146.022643
 21
137.112364
 31
0.0
  0
SPLINE
  5
159
100
AcDbEntity
  8
Layer_1
 62
7
100
AcDbSpline
 70
8
 71
3
 72
8
 73
4
 74
0
 40
0
 40
0
 40
0
 40
0
 40
1
 40
1
 40
1
 40
1
 10
-113.977022
 20
335.636008
 30
0.0
 10
-113.977022
 20
336.225495
 30
0.0
 10
-114.291510
 20
336.770204
 30
0.0
 10
-114.802021
 20
337.064948
 30
0.0
  0
SPLINE
  5
15a
100
AcDbEntity
  8
Layer_1
 62
7
100
AcDbSpline
 70
8
 71
3
 72
8
 73
4
 74
0
 40
0
 40
0
 40
0
 40
0
 40
1
 40
1
 40
1
 40
1
 10
-114.802021
 20
337.064948
 30
0.0
 10
-115.312532
 20
337.359692
 30
0.0
 10
-115.941508
 20
337.359692
 30
0.0
 10
-116.452019
 20
337.064948
 30
0.0
  0
SPLINE
  5
15b
100
AcDbEntity
  8
Layer_1
 62
7
100
AcDbSpline
 70
8
 71
3
 72
8
 73
4
 74
0
 40
0
 40
0
 40
0
 40
0
 40
1
 40
1
 40
1
 40
1
 10
-116.452019
 20
337.064948
 30
0.0
 10
-116.962530
 20
336.770204
 30
0.0
 10
-117.277018
 20
336.225495
 30
0.0
 10
-117.277018
 20
335.636008
 30
0.0
  0
SPLINE
  5
15c
100
AcDbEntity
  8
Layer_1
 62
7
100
AcDbSpline
 70
8
 71
3
 72
8
 73
4
 74
0
 40
0
 40
0
 40
0
 40
0
 40
1
 40
1
 40
1
 40
1
 10
-117.277018
 20
335.636008
 30
0.0
 10
-117.277018
 20
335.046520
 30
0.0
 10
-116.962530
 20
334.501812
 30
0.0
 10
-116.452019
 20
334.207068
 30
0.0
  0
SPLINE
  5
15d
100
AcDbEntity
  8
Layer_1
 62
7
100
AcDbSpline
 70
8
 71
3
 72
8
 73
4
 74
0
 40
0
 40
0
 40
0
 40
0
 40
1
 40
1
 40
1
 40
1
 10
-116.452019
 20
334.207068
 30
0.0
 10
-115.941508
 20
333.912324
 30
0.0
 10
-115.312532
 20
333.912324
 30
0.0
 10
-114.802021
 20
334.207068
 30
0.0
  0
SPLINE
  5
15e
100
AcDbEntity
  8
Layer_1
 62
7
100
AcDbSpline
 70
8
 71
3
 72
8
 73
4
 74
0
 40
0
 40
0
 40
0
 40
0
 40
1
 40
1
 40
1
 40
1
 10
-114.802021
 20
334.207068
 30
0.0
 10
-114.291510
 20
334.501812
 30
0.0
 10
-113.977022
 20
335.046520
 30
0.0
 10
-113.977022
 20
335.636008
 30
0.0
  0
LINE
  5
15f
100
AcDbEntity
  8
Layer_1
 62
7
100
AcDbLine
 10
-113.977022
 20
335.636008
 30
0.0
 11
-113.977022
 21
335.636008
 31
0.0
  0
SPLINE
  5
160
100
AcDbEntity
  8
Layer_1
 62
7
100
AcDbSpline
 70
8
 71
3
 72
8
 73
4
 74
0
 40
0
 40
0
 40
0
 40
0
 40
1
 40
1
 40
1
 40
1
 10
256.022523
 20
187.874247
 30
0.0
 10
256.022523
 20
188.463738
 30
0.0
 10
255.708033
 20
189.008449
 30
0.0
 10
255.197520
 20
189.303194
 30
0.0
  0
SPLINE
  5
161
100
AcDbEntity
  8
Layer_1
 62
7
100
AcDbSpline
 70
8
 71
3
 72
8
 73
4
 74
0
 40
0
 40
0
 40
0
 40
0
 40
1
 40
1
 40
1
 40
1
 10
255.197520
 20
189.303194
 30
0.0
 10
254.687006
 20
189.597939
 30
0.0
 10
254.058028
 20
189.597939
 30
0.0
 10
253.547514
 20
189.303194
 30
0.0
  0
SPLINE
  5
162
100
AcDbEntity
  8
Layer_1
 62
7
100
AcDbSpline
 70
8
 71
3
 72
8
 73
4
 74
0
 40
0
 40
0
 40
0
 40
0
 40
1
 40
1
 40
1
 40
1
 10
253.547514
 20
189.303194
 30
0.0
 10
253.037001
 20
189.008449
 30
0.0
 10
252.722511
 20
188.463738
 30
0.0
 10
252.722511
 20
187.874247
 30
0.0
  0
SPLINE
  5
163
100
AcDbEntity
  8
Layer_1
 62
7
100
AcDbSpline
 70
8
 71
3
 72
8
 73
4
 74
0
 40
0
 40
0
 40
0
 40
0
 40
1
 40
1
 40
1
 40
1
 10
252.722511
 20
187.874247
 30
0.0
 10
252.722511
 20
187.284757
 30
0.0
 10
253.037000
 20
186.740045
 30
0.0
 10
253.547514
 20
186.445300
 30
0.0
  0
SPLINE
  5
164
100
AcDbEntity
  8
Layer_1
 62
7
100
AcDbSpline
 70
8
 71
3
 72
8
 73
4
 74
0
 40
0
 40
0
 40
0
 40
0
 40
1
 40
1
 40
1
 40
1
 10
253.547514
 20
186.445300
 30
0.0
 10
254.058028
 20
186.150555
 30
0.0
 10
254.687006
 20
186.150555
 30
0.0
 10
255.197520
 20
186.445300
 30
0.0
  0
SPLINE
  5
165
100
AcDbEntity
  8
Layer_1
 62
7
100
AcDbSpline
 70
8
 71
3
 72
8
 73
4
 74
0
 40
0
 40
0
 40
0
 40
0
 40
1
 40
1
 40
1
 40
1
 10
255.197520
 20
186.445300
 30
0.0
 10
255.708033
 20
186.740045
 30
0.0
 10
256.022523
 20
187.284757
 30
0.0
 10
256.022523
 20
187.874247
 30
0.0
  0
LINE
  5
166
100
AcDbEntity
  8
Layer_1
 62
7
100
AcDbLine
 10
256.022523
 20
187.874247
 30
0.0
 11
256.022523
 21
187.874247
 31
0.0
  0
SPLINE
  5
167
100
AcDbEntity
  8
Layer_1
 62
7
100
AcDbSpline
 70
8
 71
3
 72
8
 73
4
 74
0
 40
0
 40
0
 40
0
 40
0
 40
1
 40
1
 40
1
 40
1
 10
-123.977010
 20
237.874182
 30
0.0
 10
-123.977010
 20
238.463670
 30
0.0
 10
-124.291497
 20
239.008379
 30
0.0
 10
-124.802009
 20
239.303122
 30
0.0
  0
SPLINE
  5
168
100
AcDbEntity
  8
Layer_1
 62
7
100
AcDbSpline
 70
8
 71
3
 72
8
 73
4
 74
0
 40
0
 40
0
 40
0
 40
0
 40
1
 40
1
 40
1
 40
1
 10
-124.802009
 20
239.303122
 30
0.0
 10
-125.312520
 20
239.597866
 30
0.0
 10
-125.941495
 20
239.597866
 30
0.0
 10
-126.452006
 20
239.303122
 30
0.0
  0
SPLINE
  5
169
100
AcDbEntity
  8
Layer_1
 62
7
100
AcDbSpline
 70
8
 71
3
 72
8
 73
4
 74
0
 40
0
 40
0
 40
0
 40
0
 40
1
 40
1
 40
1
 40
1
 10
-126.452006
 20
239.303122
 30
0.0
 10
-126.962518
 20
239.008379
 30
0.0
 10
-127.277005
 20
238.463670
 30
0.0
 10
-127.277005
 20
237.874182
 30
0.0
  0
SPLINE
  5
16a
100
AcDbEntity
  8
Layer_1
 62
7
100
AcDbSpline
 70
8
 71
3
 72
8
 73
4
 74
0
 40
0
 40
0
 40
0
 40
0
 40
1
 40
1
 40
1
 40
1
 10
-127.277005
 20
237.874182
 30
0.0
 10
-127.277005
 20
237.284695
 30
0.0
 10
-126.962518
 20
236.739986
 30
0.0
 10
-126.452006
 20
236.445242
 30
0.0
  0
SPLINE
  5
16b
100
AcDbEntity
  8
Layer_1
 62
7
100
AcDbSpline
 70
8
 71
3
 72
8
 73
4
 74
0
 40
0
 40
0
 40
0
 40
0
 40
1
 40
1
 40
1
 40
1
 10
-126.452006
 20
236.445242
 30
0.0
 10
-125.941495
 20
236.150498
 30
0.0
 10
-125.312520
 20
236.150498
 30
0.0
 10
-124.802009
 20
236.445242
 30
0.0
  0
SPLINE
  5
16c
100
AcDbEntity
  8
Layer_1
 62
7
100
AcDbSpline
 70
8
 71
3
 72
8
 73
4
 74
0
 40
0
 40
0
 40
0
 40
0
 40
1
 40
1
 40
1
 40
1
 10
-124.802009
 20
236.445242
 30
0.0
 10
-124.291497
 20
236.739986
 30
0.0
 10
-123.977010
 20
237.284695
 30
0.0
 10
-123.977010
 20
237.874182
 30
0.0
  0
LINE
  5
16d
100
AcDbEntity
  8
Layer_1
 62
7
100
AcDbLine
 10
-123.977010
 20
237.874182
 30
0.0
 11
-123.977010
 21
237.874182
 31
0.0
  0
ENDSEC
  0
SECTION
  2
OBJECTS
  0
DICTIONARY
  5
C
330
0
100
AcDbDictionary
  3
ACAD_GROUP
350
D
  3
ACAD_MLINESTYLE
350
17
  0
DICTIONARY
  5
D
330
C
100
AcDbDictionary
  0
DICTIONARY
  5
1A
330
C
100
AcDbDictionary
  0
DICTIONARY
  5
17
330
C
100
AcDbDictionary
  3
STANDARD
350
18
  0
DICTIONARY
  5
19
330
C
100
AcDbDictionary
  0
ENDSEC
  0
EOF
