  0
SECTION
  2
HEADER
  9
$ACADVER
  1
AC1014
  9
$HANDSEED
  5
FFFF
  9
$MEASUREMENT
 70
     1
  0
ENDSEC
  0
SECTION
  2
TABLES
  0
TABLE
  2
VPORT
  5
8
330
0
100
AcDbSymbolTable
 70
     4
  0
VPORT
  5
2E
330
8
100
AcDbSymbolTableRecord
100
AcDbViewportTableRecord
  2
*ACTIVE
 70
     0
 10
0.0
 20
0.0
 11
1.0
 21
1.0
 12
210.0
 22
148.5
 13
0.0
 23
0.0
 14
10.0
 24
10.0
 15
10.0
 25
10.0
 16
0.0
 26
0.0
 36
1.0
 17
0.0
 27
0.0
 37
0.0
 40
341.0
 41
1.24
 42
50.0
 43
0.0
 44
0.0
 50
0.0
 51
0.0
 71
     0
 72
   100
 73
     1
 74
     3
 75
     0
 76
     0
 77
     0
 78
     0
  0
ENDTAB
  0
TABLE
  2
LTYPE
  5
5
330
0
100
AcDbSymbolTable
 70
     1
  0
LTYPE
  5
14
330
5
100
AcDbSymbolTableRecord
100
AcDbLinetypeTableRecord
  2
BYBLOCK
 70
     0
  3

 72
    65
 73
     0
 40
0.0
  0
LTYPE
  5
15
330
5
100
AcDbSymbolTableRecord
100
AcDbLinetypeTableRecord
  2
BYLAYER
 70
     0
  3

 72
    65
 73
     0
 40
0.0
  0
LTYPE
  5
16
330
5
100
AcDbSymbolTableRecord
100
AcDbLinetypeTableRecord
  2
CONTINUOUS
 70
     0
  3
Solid line
 72
    65
 73
     0
 40
0.0
  0
ENDTAB
  0
TABLE
  2
LAYER
  5
2
100
AcDbSymbolTable
 70
2
  0
LAYER
  5
50
100
AcDbSymbolTableRecord
100
AcDbLayerTableRecord
  2
0
 70
0
  6
CONTINUOUS
  0
LAYER
  5
51
100
AcDbSymbolTableRecord
100
AcDbLayerTableRecord
  2
Layer_1
 70
0
  6
CONTINUOUS
  0
ENDTAB
  0
TABLE
  2
STYLE
  5
3
330
0
100
AcDbSymbolTable
 70
     1
  0
STYLE
  5
11
330
3
100
AcDbSymbolTableRecord
100
AcDbTextStyleTableRecord
  2
STANDARD
 70
     0
 40
0.0
 41
1.0
 50
0.0
 71
     0
 42
2.5
  3
txt
  4

  0
ENDTAB
  0
TABLE
  2
VIEW
  5
6
330
0
100
AcDbSymbolTable
 70
     0
  0
ENDTAB
  0
TABLE
  2
UCS
  5
7
330
0
100
AcDbSymbolTable
 70
     0
  0
ENDTAB
  0
TABLE
  2
APPID
  5
9
330
0
100
AcDbSymbolTable
 70
     2
  0
APPID
  5
12
330
9
100
AcDbSymbolTableRecord
100
AcDbRegAppTableRecord
  2
ACAD
 70
     0
  0
ENDTAB
  0
TABLE
  2
DIMSTYLE
  5
A
330
0
100
AcDbSymbolTable
 70
     1
  0
DIMSTYLE
105
27
330
A
100
AcDbSymbolTableRecord
100
AcDbDimStyleTableRecord
  2
ISO-25
 70
     0
  3

  4

  5

  6

  7

 40
1.0
 41
2.5
 42
0.625
 43
3.75
 44
1.25
 45
0.0
 46
0.0
 47
0.0
 48
0.0
140
2.5
141
2.5
142
0.0
143
0.03937007874016
144
1.0
145
0.0
146
1.0
147
0.625
 71
     0
 72
     0
 73
     0
 74
     0
 75
     0
 76
     0
 77
     1
 78
     8
170
     0
171
     3
172
     1
173
     0
174
     0
175
     0
176
     0
177
     0
178
     0
270
     2
271
     2
272
     2
273
     2
274
     3
340
11
275
     0
280
     0
281
     0
282
     0
283
     0
284
     8
285
     0
286
     0
287
     3
288
     0
  0
ENDTAB
  0
TABLE
  2
BLOCK_RECORD
  5
1
330
0
100
AcDbSymbolTable
 70
     1
  0
BLOCK_RECORD
  5
1F
330
1
100
AcDbSymbolTableRecord
100
AcDbBlockTableRecord
  2
*MODEL_SPACE
  0
BLOCK_RECORD
  5
1B
330
1
100
AcDbSymbolTableRecord
100
AcDbBlockTableRecord
  2
*PAPER_SPACE
  0
ENDTAB
  0
ENDSEC
  0
SECTION
  2
BLOCKS
  0
BLOCK
  5
20
330
1F
100
AcDbEntity
  8
0
100
AcDbBlockBegin
  2
*MODEL_SPACE
 70
     0
 10
0.0
 20
0.0
 30
0.0
  3
*MODEL_SPACE
  1

  0
ENDBLK
  5
21
330
1F
100
AcDbEntity
  8
0
100
AcDbBlockEnd
  0
BLOCK
  5
1C
330
1B
100
AcDbEntity
 67
     1
  8
0
100
AcDbBlockBegin
  2
*PAPER_SPACE
  1

  0
ENDBLK
  5
1D
330
1B
100
AcDbEntity
 67
     1
  8
0
100
AcDbBlockEnd
  0
ENDSEC
  0
SECTION
  2
ENTITIES
  0
LINE
  5
100
100
AcDbEntity
  8
Layer_1
 62
7
100
AcDbLine
 10
-166.202000
 20
418.137681
 30
0.0
 11
-166.202000
 21
26.138170
 31
0.0
  0
LINE
  5
101
100
AcDbEntity
  8
Layer_1
 62
7
100
AcDbLine
 10
-166.202000
 20
26.138170
 30
0.0
 11
324.321282
 21
26.138170
 31
0.0
  0
LINE
  5
102
100
AcDbEntity
  8
Layer_1
 62
7
100
AcDbLine
 10
324.321282
 20
26.138170
 30
0.0
 11
324.321282
 21
418.137681
 31
0.0
  0
LINE
  5
103
100
AcDbEntity
  8
Layer_1
 62
7
100
AcDbLine
 10
324.321282
 20
418.137681
 30
0.0
 11
-166.202000
 21
418.137681
 31
0.0
  0
LINE
  5
104
100
AcDbEntity
  8
Layer_1
 62
7
100
AcDbLine
 10
104.321550
 20
369.137743
 30
0.0
 11
114.321544
 21
379.137729
 31
0.0
  0
LINE
  5
105
100
AcDbEntity
  8
Layer_1
 62
7
100
AcDbLine
 10
114.321544
 20
379.137729
 30
0.0
 11
254.321352
 21
379.137729
 31
0.0
  0
LINE
  5
106
100
AcDbEntity
  8
Layer_1
 62
7
100
AcDbLine
 10
254.321352
 20
379.137729
 30
0.0
 11
264.321346
 21
369.137743
 31
0.0
  0
LINE
  5
107
100
AcDbEntity
  8
Layer_1
 62
7
100
AcDbLine
 10
264.321346
 20
369.137743
 30
0.0
 11
264.321346
 21
139.138032
 31
0.0
  0
LINE
  5
108
100
AcDbEntity
  8
Layer_1
 62
7
100
AcDbLine
 10
264.321346
 20
139.138032
 30
0.0
 11
254.321352
 21
129.138043
 31
0.0
  0
LINE
  5
109
100
AcDbEntity
  8
Layer_1
 62
7
100
AcDbLine
 10
254.321352
 20
129.138043
 30
0.0
 11
114.321544
 21
129.138043
 31
0.0
  0
LINE
  5
10a
100
AcDbEntity
  8
Layer_1
 62
7
100
AcDbLine
 10
114.321544
 20
129.138043
 30
0.0
 11
104.321550
 21
139.138032
 31
0.0
  0
LINE
  5
10b
100
AcDbEntity
  8
Layer_1
 62
7
100
AcDbLine
 10
104.321550
 20
139.138032
 30
0.0
 11
104.321550
 21
369.137743
 31
0.0
  0
LINE
  5
10c
100
AcDbEntity
  8
Layer_1
 62
7
100
AcDbLine
 10
318.321281
 20
140.488030
 30
0.0
 11
315.321280
 21
140.488030
 31
0.0
  0
SPLINE
  5
10d
100
AcDbEntity
  8
Layer_1
 62
7
100
AcDbSpline
 70
8
 71
3
 72
8
 73
4
 74
0
 40
0
 40
0
 40
0
 40
0
 40
1
 40
1
 40
1
 40
1
 10
315.321280
 20
140.488030
 30
0.0
 10
314.410269
 20
140.488395
 30
0.0
 10
313.671943
 20
141.227017
 30
0.0
 10
313.671943
 20
142.138028
 30
0.0
  0
SPLINE
  5
10e
100
AcDbEntity
  8
Layer_1
 62
7
100
AcDbSpline
 70
8
 71
3
 72
8
 73
4
 74
0
 40
0
 40
0
 40
0
 40
0
 40
1
 40
1
 40
1
 40
1
 10
313.671943
 20
142.138028
 30
0.0
 10
313.671943
 20
143.049038
 30
0.0
 10
314.410269
 20
143.787661
 30
0.0
 10
315.321280
 20
143.788025
 30
0.0
  0
LINE
  5
10f
100
AcDbEntity
  8
Layer_1
 62
7
100
AcDbLine
 10
315.321280
 20
143.788025
 30
0.0
 11
318.321281
 21
143.788025
 31
0.0
  0
SPLINE
  5
110
100
AcDbEntity
  8
Layer_1
 62
7
100
AcDbSpline
 70
8
 71
3
 72
8
 73
4
 74
0
 40
0
 40
0
 40
0
 40
0
 40
1
 40
1
 40
1
 40
1
 10
318.321281
 20
143.788025
 30
0.0
 10
319.232291
 20
143.787661
 30
0.0
 10
319.970618
 20
143.049038
 30
0.0
 10
319.970618
 20
142.138028
 30
0.0
  0
SPLINE
  5
111
100
AcDbEntity
  8
Layer_1
 62
7
100
AcDbSpline
 70
8
 71
3
 72
8
 73
4
 74
0
 40
0
 40
0
 40
0
 40
0
 40
1
 40
1
 40
1
 40
1
 10
319.970618
 20
142.138028
 30
0.0
 10
319.970618
 20
141.227017
 30
0.0
 10
319.232291
 20
140.488395
 30
0.0
 10
318.321281
 20
140.488030
 30
0.0
  0
LINE
  5
112
100
AcDbEntity
  8
Layer_1
 62
7
100
AcDbLine
 10
318.321281
 20
140.488030
 30
0.0
 11
318.321281
 21
140.488030
 31
0.0
  0
SPLINE
  5
113
100
AcDbEntity
  8
Layer_1
 62
7
100
AcDbSpline
 70
8
 71
3
 72
8
 73
4
 74
0
 40
0
 40
0
 40
0
 40
0
 40
1
 40
1
 40
1
 40
1
 10
266.071351
 20
129.138043
 30
0.0
 10
266.071351
 20
129.763260
 30
0.0
 10
265.737802
 20
130.340984
 30
0.0
 10
265.196348
 20
130.653592
 30
0.0
  0
SPLINE
  5
114
100
AcDbEntity
  8
Layer_1
 62
7
100
AcDbSpline
 70
8
 71
3
 72
8
 73
4
 74
0
 40
0
 40
0
 40
0
 40
0
 40
1
 40
1
 40
1
 40
1
 10
265.196348
 20
130.653592
 30
0.0
 10
264.654895
 20
130.966201
 30
0.0
 10
263.987797
 20
130.966201
 30
0.0
 10
263.446343
 20
130.653592
 30
0.0
  0
SPLINE
  5
115
100
AcDbEntity
  8
Layer_1
 62
7
100
AcDbSpline
 70
8
 71
3
 72
8
 73
4
 74
0
 40
0
 40
0
 40
0
 40
0
 40
1
 40
1
 40
1
 40
1
 10
263.446343
 20
130.653592
 30
0.0
 10
262.904890
 20
130.340984
 30
0.0
 10
262.571341
 20
129.763260
 30
0.0
 10
262.571341
 20
129.138043
 30
0.0
  0
SPLINE
  5
116
100
AcDbEntity
  8
Layer_1
 62
7
100
AcDbSpline
 70
8
 71
3
 72
8
 73
4
 74
0
 40
0
 40
0
 40
0
 40
0
 40
1
 40
1
 40
1
 40
1
 10
262.571341
 20
129.138043
 30
0.0
 10
262.571341
 20
128.512827
 30
0.0
 10
262.904890
 20
127.935103
 30
0.0
 10
263.446343
 20
127.622495
 30
0.0
  0
SPLINE
  5
117
100
AcDbEntity
  8
Layer_1
 62
7
100
AcDbSpline
 70
8
 71
3
 72
8
 73
4
 74
0
 40
0
 40
0
 40
0
 40
0
 40
1
 40
1
 40
1
 40
1
 10
263.446343
 20
127.622495
 30
0.0
 10
263.987797
 20
127.309887
 30
0.0
 10
264.654895
 20
127.309887
 30
0.0
 10
265.196348
 20
127.622495
 30
0.0
  0
SPLINE
  5
118
100
AcDbEntity
  8
Layer_1
 62
7
100
AcDbSpline
 70
8
 71
3
 72
8
 73
4
 74
0
 40
0
 40
0
 40
0
 40
0
 40
1
 40
1
 40
1
 40
1
 10
265.196348
 20
127.622495
 30
0.0
 10
265.737802
 20
127.935103
 30
0.0
 10
266.071351
 20
128.512827
 30
0.0
 10
266.071351
 20
129.138043
 30
0.0
  0
LINE
  5
119
100
AcDbEntity
  8
Layer_1
 62
7
100
AcDbLine
 10
266.071351
 20
129.138043
 30
0.0
 11
266.071351
 21
129.138043
 31
0.0
  0
LINE
  5
11a
100
AcDbEntity
  8
Layer_1
 62
7
100
AcDbLine
 10
315.321280
 20
303.787824
 30
0.0
 11
318.321281
 21
303.787824
 31
0.0
  0
SPLINE
  5
11b
100
AcDbEntity
  8
Layer_1
 62
7
100
AcDbSpline
 70
8
 71
3
 72
8
 73
4
 74
0
 40
0
 40
0
 40
0
 40
0
 40
1
 40
1
 40
1
 40
1
 10
318.321281
 20
303.787824
 30
0.0
 10
318.910768
 20
303.787824
 30
0.0
 10
319.455477
 20
303.473337
 30
0.0
 10
319.750221
 20
302.962825
 30
0.0
  0
SPLINE
  5
11c
100
AcDbEntity
  8
Layer_1
 62
7
100
AcDbSpline
 70
8
 71
3
 72
8
 73
4
 74
0
 40
0
 40
0
 40
0
 40
0
 40
1
 40
1
 40
1
 40
1
 10
319.750221
 20
302.962825
 30
0.0
 10
320.044965
 20
302.452314
 30
0.0
 10
320.044965
 20
301.823339
 30
0.0
 10
319.750221
 20
301.312828
 30
0.0
  0
SPLINE
  5
11d
100
AcDbEntity
  8
Layer_1
 62
7
100
AcDbSpline
 70
8
 71
3
 72
8
 73
4
 74
0
 40
0
 40
0
 40
0
 40
0
 40
1
 40
1
 40
1
 40
1
 10
319.750221
 20
301.312828
 30
0.0
 10
319.455477
 20
300.802316
 30
0.0
 10
318.910768
 20
300.487829
 30
0.0
 10
318.321281
 20
300.487829
 30
0.0
  0
LINE
  5
11e
100
AcDbEntity
  8
Layer_1
 62
7
100
AcDbLine
 10
318.321281
 20
300.487829
 30
0.0
 11
315.321280
 21
300.487829
 31
0.0
  0
SPLINE
  5
11f
100
AcDbEntity
  8
Layer_1
 62
7
100
AcDbSpline
 70
8
 71
3
 72
8
 73
4
 74
0
 40
0
 40
0
 40
0
 40
0
 40
1
 40
1
 40
1
 40
1
 10
315.321280
 20
300.487829
 30
0.0
 10
314.731793
 20
300.487829
 30
0.0
 10
314.187084
 20
300.802316
 30
0.0
 10
313.892340
 20
301.312828
 30
0.0
  0
SPLINE
  5
120
100
AcDbEntity
  8
Layer_1
 62
7
100
AcDbSpline
 70
8
 71
3
 72
8
 73
4
 74
0
 40
0
 40
0
 40
0
 40
0
 40
1
 40
1
 40
1
 40
1
 10
313.892340
 20
301.312828
 30
0.0
 10
313.597596
 20
301.823339
 30
0.0
 10
313.597596
 20
302.452314
 30
0.0
 10
313.892340
 20
302.962825
 30
0.0
  0
SPLINE
  5
121
100
AcDbEntity
  8
Layer_1
 62
7
100
AcDbSpline
 70
8
 71
3
 72
8
 73
4
 74
0
 40
0
 40
0
 40
0
 40
0
 40
1
 40
1
 40
1
 40
1
 10
313.892340
 20
302.962825
 30
0.0
 10
314.187084
 20
303.473337
 30
0.0
 10
314.731793
 20
303.787824
 30
0.0
 10
315.321280
 20
303.787824
 30
0.0
  0
LINE
  5
122
100
AcDbEntity
  8
Layer_1
 62
7
100
AcDbLine
 10
315.321280
 20
303.787824
 30
0.0
 11
315.321280
 21
303.787824
 31
0.0
  0
SPLINE
  5
123
100
AcDbEntity
  8
Layer_1
 62
7
100
AcDbSpline
 70
8
 71
3
 72
8
 73
4
 74
0
 40
0
 40
0
 40
0
 40
0
 40
1
 40
1
 40
1
 40
1
 10
-129.290100
 20
32.138172
 30
0.0
 10
-129.289864
 20
32.727817
 30
0.0
 10
-129.604300
 20
33.272772
 30
0.0
 10
-130.114908
 20
33.567663
 30
0.0
  0
SPLINE
  5
124
100
AcDbEntity
  8
Layer_1
 62
7
100
AcDbSpline
 70
8
 71
3
 72
8
 73
4
 74
0
 40
0
 40
0
 40
0
 40
0
 40
1
 40
1
 40
1
 40
1
 10
-130.114908
 20
33.567663
 30
0.0
 10
-130.625516
 20
33.862553
 30
0.0
 10
-131.254679
 20
33.862553
 30
0.0
 10
-131.765287
 20
33.567663
 30
0.0
  0
SPLINE
  5
125
100
AcDbEntity
  8
Layer_1
 62
7
100
AcDbSpline
 70
8
 71
3
 72
8
 73
4
 74
0
 40
0
 40
0
 40
0
 40
0
 40
1
 40
1
 40
1
 40
1
 10
-131.765287
 20
33.567663
 30
0.0
 10
-132.275895
 20
33.272772
 30
0.0
 10
-132.590331
 20
32.727817
 30
0.0
 10
-132.590095
 20
32.138172
 30
0.0
  0
SPLINE
  5
126
100
AcDbEntity
  8
Layer_1
 62
7
100
AcDbSpline
 70
8
 71
3
 72
8
 73
4
 74
0
 40
0
 40
0
 40
0
 40
0
 40
1
 40
1
 40
1
 40
1
 10
-132.590095
 20
32.138172
 30
0.0
 10
-132.590331
 20
31.548527
 30
0.0
 10
-132.275895
 20
31.003572
 30
0.0
 10
-131.765287
 20
30.708681
 30
0.0
  0
SPLINE
  5
127
100
AcDbEntity
  8
Layer_1
 62
7
100
AcDbSpline
 70
8
 71
3
 72
8
 73
4
 74
0
 40
0
 40
0
 40
0
 40
0
 40
1
 40
1
 40
1
 40
1
 10
-131.765287
 20
30.708681
 30
0.0
 10
-131.254679
 20
30.413791
 30
0.0
 10
-130.625516
 20
30.413791
 30
0.0
 10
-130.114908
 20
30.708681
 30
0.0
  0
SPLINE
  5
128
100
AcDbEntity
  8
Layer_1
 62
7
100
AcDbSpline
 70
8
 71
3
 72
8
 73
4
 74
0
 40
0
 40
0
 40
0
 40
0
 40
1
 40
1
 40
1
 40
1
 10
-130.114908
 20
30.708681
 30
0.0
 10
-129.604300
 20
31.003572
 30
0.0
 10
-129.289864
 20
31.548527
 30
0.0
 10
-129.290100
 20
32.138172
 30
0.0
  0
LINE
  5
129
100
AcDbEntity
  8
Layer_1
 62
7
100
AcDbLine
 10
-129.290100
 20
32.138172
 30
0.0
 11
-129.290100
 21
32.138172
 31
0.0
  0
SPLINE
  5
12a
100
AcDbEntity
  8
Layer_1
 62
7
100
AcDbSpline
 70
8
 71
3
 72
8
 73
4
 74
0
 40
0
 40
0
 40
0
 40
0
 40
1
 40
1
 40
1
 40
1
 10
106.071555
 20
379.137729
 30
0.0
 10
106.071555
 20
379.762945
 30
0.0
 10
105.738006
 20
380.340669
 30
0.0
 10
105.196552
 20
380.653277
 30
0.0
  0
SPLINE
  5
12b
100
AcDbEntity
  8
Layer_1
 62
7
100
AcDbSpline
 70
8
 71
3
 72
8
 73
4
 74
0
 40
0
 40
0
 40
0
 40
0
 40
1
 40
1
 40
1
 40
1
 10
105.196552
 20
380.653277
 30
0.0
 10
104.655099
 20
380.965886
 30
0.0
 10
103.988001
 20
380.965886
 30
0.0
 10
103.446547
 20
380.653277
 30
0.0
  0
SPLINE
  5
12c
100
AcDbEntity
  8
Layer_1
 62
7
100
AcDbSpline
 70
8
 71
3
 72
8
 73
4
 74
0
 40
0
 40
0
 40
0
 40
0
 40
1
 40
1
 40
1
 40
1
 10
103.446547
 20
380.653277
 30
0.0
 10
102.905094
 20
380.340669
 30
0.0
 10
102.571545
 20
379.762945
 30
0.0
 10
102.571545
 20
379.137729
 30
0.0
  0
SPLINE
  5
12d
100
AcDbEntity
  8
Layer_1
 62
7
100
AcDbSpline
 70
8
 71
3
 72
8
 73
4
 74
0
 40
0
 40
0
 40
0
 40
0
 40
1
 40
1
 40
1
 40
1
 10
102.571545
 20
379.137729
 30
0.0
 10
102.571545
 20
378.512512
 30
0.0
 10
102.905094
 20
377.934788
 30
0.0
 10
103.446547
 20
377.622180
 30
0.0
  0
SPLINE
  5
12e
100
AcDbEntity
  8
Layer_1
 62
7
100
AcDbSpline
 70
8
 71
3
 72
8
 73
4
 74
0
 40
0
 40
0
 40
0
 40
0
 40
1
 40
1
 40
1
 40
1
 10
103.446547
 20
377.622180
 30
0.0
 10
103.988001
 20
377.309572
 30
0.0
 10
104.655099
 20
377.309572
 30
0.0
 10
105.196552
 20
377.622180
 30
0.0
  0
SPLINE
  5
12f
100
AcDbEntity
  8
Layer_1
 62
7
100
AcDbSpline
 70
8
 71
3
 72
8
 73
4
 74
0
 40
0
 40
0
 40
0
 40
0
 40
1
 40
1
 40
1
 40
1
 10
105.196552
 20
377.622180
 30
0.0
 10
105.738006
 20
377.934788
 30
0.0
 10
106.071555
 20
378.512512
 30
0.0
 10
106.071555
 20
379.137729
 30
0.0
  0
LINE
  5
130
100
AcDbEntity
  8
Layer_1
 62
7
100
AcDbLine
 10
106.071555
 20
379.137729
 30
0.0
 11
106.071555
 21
379.137729
 31
0.0
  0
SPLINE
  5
131
100
AcDbEntity
  8
Layer_1
 62
7
100
AcDbSpline
 70
8
 71
3
 72
8
 73
4
 74
0
 40
0
 40
0
 40
0
 40
0
 40
1
 40
1
 40
1
 40
1
 10
106.071555
 20
129.138043
 30
0.0
 10
106.071555
 20
129.763260
 30
0.0
 10
105.738006
 20
130.340984
 30
0.0
 10
105.196552
 20
130.653592
 30
0.0
  0
SPLINE
  5
132
100
AcDbEntity
  8
Layer_1
 62
7
100
AcDbSpline
 70
8
 71
3
 72
8
 73
4
 74
0
 40
0
 40
0
 40
0
 40
0
 40
1
 40
1
 40
1
 40
1
 10
105.196552
 20
130.653592
 30
0.0
 10
104.655099
 20
130.966200
 30
0.0
 10
103.988001
 20
130.966200
 30
0.0
 10
103.446547
 20
130.653592
 30
0.0
  0
SPLINE
  5
133
100
AcDbEntity
  8
Layer_1
 62
7
100
AcDbSpline
 70
8
 71
3
 72
8
 73
4
 74
0
 40
0
 40
0
 40
0
 40
0
 40
1
 40
1
 40
1
 40
1
 10
103.446547
 20
130.653592
 30
0.0
 10
102.905094
 20
130.340984
 30
0.0
 10
102.571545
 20
129.763260
 30
0.0
 10
102.571545
 20
129.138043
 30
0.0
  0
SPLINE
  5
134
100
AcDbEntity
  8
Layer_1
 62
7
100
AcDbSpline
 70
8
 71
3
 72
8
 73
4
 74
0
 40
0
 40
0
 40
0
 40
0
 40
1
 40
1
 40
1
 40
1
 10
102.571545
 20
129.138043
 30
0.0
 10
102.571545
 20
128.512827
 30
0.0
 10
102.905094
 20
127.935103
 30
0.0
 10
103.446547
 20
127.622495
 30
0.0
  0
SPLINE
  5
135
100
AcDbEntity
  8
Layer_1
 62
7
100
AcDbSpline
 70
8
 71
3
 72
8
 73
4
 74
0
 40
0
 40
0
 40
0
 40
0
 40
1
 40
1
 40
1
 40
1
 10
103.446547
 20
127.622495
 30
0.0
 10
103.988001
 20
127.309887
 30
0.0
 10
104.655099
 20
127.309887
 30
0.0
 10
105.196552
 20
127.622495
 30
0.0
  0
SPLINE
  5
136
100
AcDbEntity
  8
Layer_1
 62
7
100
AcDbSpline
 70
8
 71
3
 72
8
 73
4
 74
0
 40
0
 40
0
 40
0
 40
0
 40
1
 40
1
 40
1
 40
1
 10
105.196552
 20
127.622495
 30
0.0
 10
105.738006
 20
127.935103
 30
0.0
 10
106.071555
 20
128.512827
 30
0.0
 10
106.071555
 20
129.138043
 30
0.0
  0
LINE
  5
137
100
AcDbEntity
  8
Layer_1
 62
7
100
AcDbLine
 10
106.071555
 20
129.138043
 30
0.0
 11
106.071555
 21
129.138043
 31
0.0
  0
SPLINE
  5
138
100
AcDbEntity
  8
Layer_1
 62
7
100
AcDbSpline
 70
8
 71
3
 72
8
 73
4
 74
0
 40
0
 40
0
 40
0
 40
0
 40
1
 40
1
 40
1
 40
1
 10
-29.290225
 20
32.138172
 30
0.0
 10
-29.290225
 20
32.727660
 30
0.0
 10
-29.604713
 20
33.272369
 30
0.0
 10
-30.115224
 20
33.567113
 30
0.0
  0
SPLINE
  5
139
100
AcDbEntity
  8
Layer_1
 62
7
100
AcDbSpline
 70
8
 71
3
 72
8
 73
4
 74
0
 40
0
 40
0
 40
0
 40
0
 40
1
 40
1
 40
1
 40
1
 10
-30.115224
 20
33.567113
 30
0.0
 10
-30.625736
 20
33.861857
 30
0.0
 10
-31.254712
 20
33.861857
 30
0.0
 10
-31.765223
 20
33.567113
 30
0.0
  0
SPLINE
  5
13a
100
AcDbEntity
  8
Layer_1
 62
7
100
AcDbSpline
 70
8
 71
3
 72
8
 73
4
 74
0
 40
0
 40
0
 40
0
 40
0
 40
1
 40
1
 40
1
 40
1
 10
-31.765223
 20
33.567113
 30
0.0
 10
-32.275735
 20
33.272369
 30
0.0
 10
-32.590223
 20
32.727660
 30
0.0
 10
-32.590223
 20
32.138172
 30
0.0
  0
SPLINE
  5
13b
100
AcDbEntity
  8
Layer_1
 62
7
100
AcDbSpline
 70
8
 71
3
 72
8
 73
4
 74
0
 40
0
 40
0
 40
0
 40
0
 40
1
 40
1
 40
1
 40
1
 10
-32.590223
 20
32.138172
 30
0.0
 10
-32.590223
 20
31.548684
 30
0.0
 10
-32.275735
 20
31.003975
 30
0.0
 10
-31.765223
 20
30.709231
 30
0.0
  0
SPLINE
  5
13c
100
AcDbEntity
  8
Layer_1
 62
7
100
AcDbSpline
 70
8
 71
3
 72
8
 73
4
 74
0
 40
0
 40
0
 40
0
 40
0
 40
1
 40
1
 40
1
 40
1
 10
-31.765223
 20
30.709231
 30
0.0
 10
-31.254712
 20
30.414487
 30
0.0
 10
-30.625736
 20
30.414487
 30
0.0
 10
-30.115224
 20
30.709231
 30
0.0
  0
SPLINE
  5
13d
100
AcDbEntity
  8
Layer_1
 62
7
100
AcDbSpline
 70
8
 71
3
 72
8
 73
4
 74
0
 40
0
 40
0
 40
0
 40
0
 40
1
 40
1
 40
1
 40
1
 10
-30.115224
 20
30.709231
 30
0.0
 10
-29.604713
 20
31.003975
 30
0.0
 10
-29.290225
 20
31.548684
 30
0.0
 10
-29.290225
 20
32.138172
 30
0.0
  0
LINE
  5
13e
100
AcDbEntity
  8
Layer_1
 62
7
100
AcDbLine
 10
-29.290225
 20
32.138172
 30
0.0
 11
-29.290225
 21
32.138172
 31
0.0
  0
SPLINE
  5
13f
100
AcDbEntity
  8
Layer_1
 62
7
100
AcDbSpline
 70
8
 71
3
 72
8
 73
4
 74
0
 40
0
 40
0
 40
0
 40
0
 40
1
 40
1
 40
1
 40
1
 10
266.071351
 20
379.137729
 30
0.0
 10
266.071351
 20
379.762945
 30
0.0
 10
265.737802
 20
380.340669
 30
0.0
 10
265.196348
 20
380.653278
 30
0.0
  0
SPLINE
  5
140
100
AcDbEntity
  8
Layer_1
 62
7
100
AcDbSpline
 70
8
 71
3
 72
8
 73
4
 74
0
 40
0
 40
0
 40
0
 40
0
 40
1
 40
1
 40
1
 40
1
 10
265.196348
 20
380.653278
 30
0.0
 10
264.654895
 20
380.965886
 30
0.0
 10
263.987797
 20
380.965886
 30
0.0
 10
263.446343
 20
380.653278
 30
0.0
  0
SPLINE
  5
141
100
AcDbEntity
  8
Layer_1
 62
7
100
AcDbSpline
 70
8
 71
3
 72
8
 73
4
 74
0
 40
0
 40
0
 40
0
 40
0
 40
1
 40
1
 40
1
 40
1
 10
263.446343
 20
380.653278
 30
0.0
 10
262.904890
 20
380.340669
 30
0.0
 10
262.571341
 20
379.762945
 30
0.0
 10
262.571341
 20
379.137729
 30
0.0
  0
SPLINE
  5
142
100
AcDbEntity
  8
Layer_1
 62
7
100
AcDbSpline
 70
8
 71
3
 72
8
 73
4
 74
0
 40
0
 40
0
 40
0
 40
0
 40
1
 40
1
 40
1
 40
1
 10
262.571341
 20
379.137729
 30
0.0
 10
262.571341
 20
378.512512
 30
0.0
 10
262.904890
 20
377.934788
 30
0.0
 10
263.446343
 20
377.622180
 30
0.0
  0
SPLINE
  5
143
100
AcDbEntity
  8
Layer_1
 62
7
100
AcDbSpline
 70
8
 71
3
 72
8
 73
4
 74
0
 40
0
 40
0
 40
0
 40
0
 40
1
 40
1
 40
1
 40
1
 10
263.446343
 20
377.622180
 30
0.0
 10
263.987797
 20
377.309572
 30
0.0
 10
264.654895
 20
377.309572
 30
0.0
 10
265.196348
 20
377.622180
 30
0.0
  0
SPLINE
  5
144
100
AcDbEntity
  8
Layer_1
 62
7
100
AcDbSpline
 70
8
 71
3
 72
8
 73
4
 74
0
 40
0
 40
0
 40
0
 40
0
 40
1
 40
1
 40
1
 40
1
 10
265.196348
 20
377.622180
 30
0.0
 10
265.737802
 20
377.934788
 30
0.0
 10
266.071351
 20
378.512512
 30
0.0
 10
266.071351
 20
379.137729
 30
0.0
  0
LINE
  5
145
100
AcDbEntity
  8
Layer_1
 62
7
100
AcDbLine
 10
266.071351
 20
379.137729
 30
0.0
 11
266.071351
 21
379.137729
 31
0.0
  0
SPLINE
  5
146
100
AcDbEntity
  8
Layer_1
 62
7
100
AcDbSpline
 70
8
 71
3
 72
8
 73
4
 74
0
 40
0
 40
0
 40
0
 40
0
 40
1
 40
1
 40
1
 40
1
 10
-79.290162
 20
32.138172
 30
0.0
 10
-79.289926
 20
32.727817
 30
0.0
 10
-79.604362
 20
33.272772
 30
0.0
 10
-80.114970
 20
33.567663
 30
0.0
  0
SPLINE
  5
147
100
AcDbEntity
  8
Layer_1
 62
7
100
AcDbSpline
 70
8
 71
3
 72
8
 73
4
 74
0
 40
0
 40
0
 40
0
 40
0
 40
1
 40
1
 40
1
 40
1
 10
-80.114970
 20
33.567663
 30
0.0
 10
-80.625578
 20
33.862553
 30
0.0
 10
-81.254742
 20
33.862553
 30
0.0
 10
-81.765350
 20
33.567663
 30
0.0
  0
SPLINE
  5
148
100
AcDbEntity
  8
Layer_1
 62
7
100
AcDbSpline
 70
8
 71
3
 72
8
 73
4
 74
0
 40
0
 40
0
 40
0
 40
0
 40
1
 40
1
 40
1
 40
1
 10
-81.765350
 20
33.567663
 30
0.0
 10
-82.275958
 20
33.272772
 30
0.0
 10
-82.590394
 20
32.727817
 30
0.0
 10
-82.590158
 20
32.138172
 30
0.0
  0
SPLINE
  5
149
100
AcDbEntity
  8
Layer_1
 62
7
100
AcDbSpline
 70
8
 71
3
 72
8
 73
4
 74
0
 40
0
 40
0
 40
0
 40
0
 40
1
 40
1
 40
1
 40
1
 10
-82.590158
 20
32.138172
 30
0.0
 10
-82.590394
 20
31.548527
 30
0.0
 10
-82.275958
 20
31.003572
 30
0.0
 10
-81.765350
 20
30.708681
 30
0.0
  0
SPLINE
  5
14a
100
AcDbEntity
  8
Layer_1
 62
7
100
AcDbSpline
 70
8
 71
3
 72
8
 73
4
 74
0
 40
0
 40
0
 40
0
 40
0
 40
1
 40
1
 40
1
 40
1
 10
-81.765350
 20
30.708681
 30
0.0
 10
-81.254742
 20
30.413791
 30
0.0
 10
-80.625578
 20
30.413791
 30
0.0
 10
-80.114970
 20
30.708681
 30
0.0
  0
SPLINE
  5
14b
100
AcDbEntity
  8
Layer_1
 62
7
100
AcDbSpline
 70
8
 71
3
 72
8
 73
4
 74
0
 40
0
 40
0
 40
0
 40
0
 40
1
 40
1
 40
1
 40
1
 10
-80.114970
 20
30.708681
 30
0.0
 10
-79.604362
 20
31.003572
 30
0.0
 10
-79.289926
 20
31.548527
 30
0.0
 10
-79.290162
 20
32.138172
 30
0.0
  0
LINE
  5
14c
100
AcDbEntity
  8
Layer_1
 62
7
100
AcDbLine
 10
-79.290162
 20
32.138172
 30
0.0
 11
-79.290162
 21
32.138172
 31
0.0
  0
LINE
  5
14d
100
AcDbEntity
  8
Layer_1
 62
7
100
AcDbLine
 10
-131.940097
 20
107.138073
 30
0.0
 11
-117.940113
 21
107.138073
 31
0.0
  0
SPLINE
  5
14e
100
AcDbEntity
  8
Layer_1
 62
7
100
AcDbSpline
 70
8
 71
3
 72
8
 73
4
 74
0
 40
0
 40
0
 40
0
 40
0
 40
1
 40
1
 40
1
 40
1
 10
-117.940113
 20
107.138073
 30
0.0
 10
-115.818384
 20
107.138073
 30
0.0
 10
-113.783556
 20
106.295219
 30
0.0
 10
-112.283266
 20
104.794930
 30
0.0
  0
SPLINE
  5
14f
100
AcDbEntity
  8
Layer_1
 62
7
100
AcDbSpline
 70
8
 71
3
 72
8
 73
4
 74
0
 40
0
 40
0
 40
0
 40
0
 40
1
 40
1
 40
1
 40
1
 10
-112.283266
 20
104.794930
 30
0.0
 10
-110.782977
 20
103.294641
 30
0.0
 10
-109.940124
 20
101.259812
 30
0.0
 10
-109.940124
 20
99.138083
 30
0.0
  0
LINE
  5
150
100
AcDbEntity
  8
Layer_1
 62
7
100
AcDbLine
 10
-109.940124
 20
99.138083
 30
0.0
 11
-109.940124
 21
65.138125
 31
0.0
  0
SPLINE
  5
151
100
AcDbEntity
  8
Layer_1
 62
7
100
AcDbSpline
 70
8
 71
3
 72
8
 73
4
 74
0
 40
0
 40
0
 40
0
 40
0
 40
1
 40
1
 40
1
 40
1
 10
-109.940124
 20
65.138125
 30
0.0
 10
-109.940128
 20
60.719856
 30
0.0
 10
-113.521844
 20
57.138143
 30
0.0
 10
-117.940113
 20
57.138143
 30
0.0
  0
LINE
  5
152
100
AcDbEntity
  8
Layer_1
 62
7
100
AcDbLine
 10
-117.940113
 20
57.138143
 30
0.0
 11
-131.940097
 21
57.138143
 31
0.0
  0
SPLINE
  5
153
100
AcDbEntity
  8
Layer_1
 62
7
100
AcDbSpline
 70
8
 71
3
 72
8
 73
4
 74
0
 40
0
 40
0
 40
0
 40
0
 40
1
 40
1
 40
1
 40
1
 10
-131.940097
 20
57.138143
 30
0.0
 10
-136.358366
 20
57.138143
 30
0.0
 10
-139.940082
 20
60.719856
 30
0.0
 10
-139.940086
 20
65.138125
 30
0.0
  0
LINE
  5
154
100
AcDbEntity
  8
Layer_1
 62
7
100
AcDbLine
 10
-139.940086
 20
65.138125
 30
0.0
 11
-139.940086
 21
99.138083
 31
0.0
  0
SPLINE
  5
155
100
AcDbEntity
  8
Layer_1
 62
7
100
AcDbSpline
 70
8
 71
3
 72
8
 73
4
 74
0
 40
0
 40
0
 40
0
 40
0
 40
1
 40
1
 40
1
 40
1
 10
-139.940086
 20
99.138083
 30
0.0
 10
-139.940086
 20
103.556355
 30
0.0
 10
-136.358369
 20
107.138073
 30
0.0
 10
-131.940097
 20
107.138073
 30
0.0
  0
LINE
  5
156
100
AcDbEntity
  8
Layer_1
 62
7
100
AcDbLine
 10
-131.940097
 20
107.138073
 30
0.0
 11
-131.940097
 21
107.138073
 31
0.0
  0
LINE
  5
157
100
AcDbEntity
  8
Layer_1
 62
7
100
AcDbLine
 10
315.321280
 20
43.788158
 30
0.0
 11
318.321281
 21
43.788158
 31
0.0
  0
SPLINE
  5
158
100
AcDbEntity
  8
Layer_1
 62
7
100
AcDbSpline
 70
8
 71
3
 72
8
 73
4
 74
0
 40
0
 40
0
 40
0
 40
0
 40
1
 40
1
 40
1
 40
1
 10
318.321281
 20
43.788158
 30
0.0
 10
318.910771
 20
43.788158
 30
0.0
 10
319.455483
 20
43.473669
 30
0.0
 10
319.750228
 20
42.963155
 30
0.0
  0
SPLINE
  5
159
100
AcDbEntity
  8
Layer_1
 62
7
100
AcDbSpline
 70
8
 71
3
 72
8
 73
4
 74
0
 40
0
 40
0
 40
0
 40
0
 40
1
 40
1
 40
1
 40
1
 10
319.750228
 20
42.963155
 30
0.0
 10
320.044973
 20
42.452642
 30
0.0
 10
320.044973
 20
41.823663
 30
0.0
 10
319.750228
 20
41.313150
 30
0.0
  0
SPLINE
  5
15a
100
AcDbEntity
  8
Layer_1
 62
7
100
AcDbSpline
 70
8
 71
3
 72
8
 73
4
 74
0
 40
0
 40
0
 40
0
 40
0
 40
1
 40
1
 40
1
 40
1
 10
319.750228
 20
41.313150
 30
0.0
 10
319.455483
 20
40.802636
 30
0.0
 10
318.910771
 20
40.488147
 30
0.0
 10
318.321281
 20
40.488147
 30
0.0
  0
LINE
  5
15b
100
AcDbEntity
  8
Layer_1
 62
7
100
AcDbLine
 10
318.321281
 20
40.488147
 30
0.0
 11
315.321280
 21
40.488147
 31
0.0
  0
SPLINE
  5
15c
100
AcDbEntity
  8
Layer_1
 62
7
100
AcDbSpline
 70
8
 71
3
 72
8
 73
4
 74
0
 40
0
 40
0
 40
0
 40
0
 40
1
 40
1
 40
1
 40
1
 10
315.321280
 20
40.488147
 30
0.0
 10
314.731790
 20
40.488147
 30
0.0
 10
314.187078
 20
40.802636
 30
0.0
 10
313.892333
 20
41.313150
 30
0.0
  0
SPLINE
  5
15d
100
AcDbEntity
  8
Layer_1
 62
7
100
AcDbSpline
 70
8
 71
3
 72
8
 73
4
 74
0
 40
0
 40
0
 40
0
 40
0
 40
1
 40
1
 40
1
 40
1
 10
313.892333
 20
41.313150
 30
0.0
 10
313.597588
 20
41.823663
 30
0.0
 10
313.597588
 20
42.452642
 30
0.0
 10
313.892333
 20
42.963155
 30
0.0
  0
SPLINE
  5
15e
100
AcDbEntity
  8
Layer_1
 62
7
100
AcDbSpline
 70
8
 71
3
 72
8
 73
4
 74
0
 40
0
 40
0
 40
0
 40
0
 40
1
 40
1
 40
1
 40
1
 10
313.892333
 20
42.963155
 30
0.0
 10
314.187078
 20
43.473669
 30
0.0
 10
314.731790
 20
43.788158
 30
0.0
 10
315.321280
 20
43.788158
 30
0.0
  0
LINE
  5
15f
100
AcDbEntity
  8
Layer_1
 62
7
100
AcDbLine
 10
315.321280
 20
43.788158
 30
0.0
 11
315.321280
 21
43.788158
 31
0.0
  0
LINE
  5
160
100
AcDbEntity
  8
Layer_1
 62
7
100
AcDbLine
 10
315.321280
 20
403.787699
 30
0.0
 11
318.321281
 21
403.787699
 31
0.0
  0
SPLINE
  5
161
100
AcDbEntity
  8
Layer_1
 62
7
100
AcDbSpline
 70
8
 71
3
 72
8
 73
4
 74
0
 40
0
 40
0
 40
0
 40
0
 40
1
 40
1
 40
1
 40
1
 10
318.321281
 20
403.787699
 30
0.0
 10
319.232291
 20
403.787334
 30
0.0
 10
319.970618
 20
403.048712
 30
0.0
 10
319.970618
 20
402.137701
 30
0.0
  0
SPLINE
  5
162
100
AcDbEntity
  8
Layer_1
 62
7
100
AcDbSpline
 70
8
 71
3
 72
8
 73
4
 74
0
 40
0
 40
0
 40
0
 40
0
 40
1
 40
1
 40
1
 40
1
 10
319.970618
 20
402.137701
 30
0.0
 10
319.970618
 20
401.226691
 30
0.0
 10
319.232291
 20
400.488068
 30
0.0
 10
318.321281
 20
400.487703
 30
0.0
  0
LINE
  5
163
100
AcDbEntity
  8
Layer_1
 62
7
100
AcDbLine
 10
318.321281
 20
400.487703
 30
0.0
 11
315.321280
 21
400.487703
 31
0.0
  0
SPLINE
  5
164
100
AcDbEntity
  8
Layer_1
 62
7
100
AcDbSpline
 70
8
 71
3
 72
8
 73
4
 74
0
 40
0
 40
0
 40
0
 40
0
 40
1
 40
1
 40
1
 40
1
 10
315.321280
 20
400.487703
 30
0.0
 10
314.410269
 20
400.488068
 30
0.0
 10
313.671943
 20
401.226691
 30
0.0
 10
313.671943
 20
402.137701
 30
0.0
  0
SPLINE
  5
165
100
AcDbEntity
  8
Layer_1
 62
7
100
AcDbSpline
 70
8
 71
3
 72
8
 73
4
 74
0
 40
0
 40
0
 40
0
 40
0
 40
1
 40
1
 40
1
 40
1
 10
313.671943
 20
402.137701
 30
0.0
 10
313.671943
 20
403.048712
 30
0.0
 10
314.410269
 20
403.787334
 30
0.0
 10
315.321280
 20
403.787699
 30
0.0
  0
LINE
  5
166
100
AcDbEntity
  8
Layer_1
 62
7
100
AcDbLine
 10
315.321280
 20
403.787699
 30
0.0
 11
315.321280
 21
403.787699
 31
0.0
  0
SPLINE
  5
167
100
AcDbEntity
  8
Layer_1
 62
7
100
AcDbSpline
 70
8
 71
3
 72
8
 73
4
 74
0
 40
0
 40
0
 40
0
 40
0
 40
1
 40
1
 40
1
 40
1
 10
58.471610
 20
212.137940
 30
0.0
 10
58.471846
 20
212.727584
 30
0.0
 10
58.157410
 20
213.272540
 30
0.0
 10
57.646802
 20
213.567430
 30
0.0
  0
SPLINE
  5
168
100
AcDbEntity
  8
Layer_1
 62
7
100
AcDbSpline
 70
8
 71
3
 72
8
 73
4
 74
0
 40
0
 40
0
 40
0
 40
0
 40
1
 40
1
 40
1
 40
1
 10
57.646802
 20
213.567430
 30
0.0
 10
57.136194
 20
213.862321
 30
0.0
 10
56.507030
 20
213.862321
 30
0.0
 10
55.996422
 20
213.567430
 30
0.0
  0
SPLINE
  5
169
100
AcDbEntity
  8
Layer_1
 62
7
100
AcDbSpline
 70
8
 71
3
 72
8
 73
4
 74
0
 40
0
 40
0
 40
0
 40
0
 40
1
 40
1
 40
1
 40
1
 10
55.996422
 20
213.567430
 30
0.0
 10
55.485814
 20
213.272540
 30
0.0
 10
55.171378
 20
212.727584
 30
0.0
 10
55.171614
 20
212.137940
 30
0.0
  0
SPLINE
  5
16a
100
AcDbEntity
  8
Layer_1
 62
7
100
AcDbSpline
 70
8
 71
3
 72
8
 73
4
 74
0
 40
0
 40
0
 40
0
 40
0
 40
1
 40
1
 40
1
 40
1
 10
55.171614
 20
212.137940
 30
0.0
 10
55.171378
 20
211.548295
 30
0.0
 10
55.485814
 20
211.003339
 30
0.0
 10
55.996422
 20
210.708449
 30
0.0
  0
SPLINE
  5
16b
100
AcDbEntity
  8
Layer_1
 62
7
100
AcDbSpline
 70
8
 71
3
 72
8
 73
4
 74
0
 40
0
 40
0
 40
0
 40
0
 40
1
 40
1
 40
1
 40
1
 10
55.996422
 20
210.708449
 30
0.0
 10
56.507030
 20
210.413558
 30
0.0
 10
57.136194
 20
210.413558
 30
0.0
 10
57.646802
 20
210.708449
 30
0.0
  0
SPLINE
  5
16c
100
AcDbEntity
  8
Layer_1
 62
7
100
AcDbSpline
 70
8
 71
3
 72
8
 73
4
 74
0
 40
0
 40
0
 40
0
 40
0
 40
1
 40
1
 40
1
 40
1
 10
57.646802
 20
210.708449
 30
0.0
 10
58.157410
 20
211.003339
 30
0.0
 10
58.471846
 20
211.548295
 30
0.0
 10
58.471610
 20
212.137940
 30
0.0
  0
LINE
  5
16d
100
AcDbEntity
  8
Layer_1
 62
7
100
AcDbLine
 10
58.471610
 20
212.137940
 30
0.0
 11
58.471610
 21
212.137940
 31
0.0
  0
SPLINE
  5
16e
100
AcDbEntity
  8
Layer_1
 62
7
100
AcDbSpline
 70
8
 71
3
 72
8
 73
4
 74
0
 40
0
 40
0
 40
0
 40
0
 40
1
 40
1
 40
1
 40
1
 10
-157.052012
 20
408.137692
 30
0.0
 10
-157.052012
 20
408.727180
 30
0.0
 10
-157.366499
 20
409.271889
 30
0.0
 10
-157.877011
 20
409.566632
 30
0.0
  0
SPLINE
  5
16f
100
AcDbEntity
  8
Layer_1
 62
7
100
AcDbSpline
 70
8
 71
3
 72
8
 73
4
 74
0
 40
0
 40
0
 40
0
 40
0
 40
1
 40
1
 40
1
 40
1
 10
-157.877011
 20
409.566632
 30
0.0
 10
-158.387522
 20
409.861376
 30
0.0
 10
-159.016497
 20
409.861376
 30
0.0
 10
-159.527008
 20
409.566632
 30
0.0
  0
SPLINE
  5
170
100
AcDbEntity
  8
Layer_1
 62
7
100
AcDbSpline
 70
8
 71
3
 72
8
 73
4
 74
0
 40
0
 40
0
 40
0
 40
0
 40
1
 40
1
 40
1
 40
1
 10
-159.527008
 20
409.566632
 30
0.0
 10
-160.037520
 20
409.271889
 30
0.0
 10
-160.352007
 20
408.727180
 30
0.0
 10
-160.352007
 20
408.137692
 30
0.0
  0
SPLINE
  5
171
100
AcDbEntity
  8
Layer_1
 62
7
100
AcDbSpline
 70
8
 71
3
 72
8
 73
4
 74
0
 40
0
 40
0
 40
0
 40
0
 40
1
 40
1
 40
1
 40
1
 10
-160.352007
 20
408.137692
 30
0.0
 10
-160.352007
 20
407.548205
 30
0.0
 10
-160.037520
 20
407.003496
 30
0.0
 10
-159.527008
 20
406.708752
 30
0.0
  0
SPLINE
  5
172
100
AcDbEntity
  8
Layer_1
 62
7
100
AcDbSpline
 70
8
 71
3
 72
8
 73
4
 74
0
 40
0
 40
0
 40
0
 40
0
 40
1
 40
1
 40
1
 40
1
 10
-159.527008
 20
406.708752
 30
0.0
 10
-159.016497
 20
406.414008
 30
0.0
 10
-158.387522
 20
406.414008
 30
0.0
 10
-157.877011
 20
406.708752
 30
0.0
  0
SPLINE
  5
173
100
AcDbEntity
  8
Layer_1
 62
7
100
AcDbSpline
 70
8
 71
3
 72
8
 73
4
 74
0
 40
0
 40
0
 40
0
 40
0
 40
1
 40
1
 40
1
 40
1
 10
-157.877011
 20
406.708752
 30
0.0
 10
-157.366499
 20
407.003496
 30
0.0
 10
-157.052012
 20
407.548205
 30
0.0
 10
-157.052012
 20
408.137692
 30
0.0
  0
LINE
  5
174
100
AcDbEntity
  8
Layer_1
 62
7
100
AcDbLine
 10
-157.052012
 20
408.137692
 30
0.0
 11
-157.052012
 21
408.137692
 31
0.0
  0
SPLINE
  5
175
100
AcDbEntity
  8
Layer_1
 62
7
100
AcDbSpline
 70
8
 71
3
 72
8
 73
4
 74
0
 40
0
 40
0
 40
0
 40
0
 40
1
 40
1
 40
1
 40
1
 10
-157.052012
 20
36.138164
 30
0.0
 10
-157.052012
 20
36.727652
 30
0.0
 10
-157.366499
 20
37.272360
 30
0.0
 10
-157.877011
 20
37.567104
 30
0.0
  0
SPLINE
  5
176
100
AcDbEntity
  8
Layer_1
 62
7
100
AcDbSpline
 70
8
 71
3
 72
8
 73
4
 74
0
 40
0
 40
0
 40
0
 40
0
 40
1
 40
1
 40
1
 40
1
 10
-157.877011
 20
37.567104
 30
0.0
 10
-158.387522
 20
37.861848
 30
0.0
 10
-159.016497
 20
37.861848
 30
0.0
 10
-159.527008
 20
37.567104
 30
0.0
  0
SPLINE
  5
177
100
AcDbEntity
  8
Layer_1
 62
7
100
AcDbSpline
 70
8
 71
3
 72
8
 73
4
 74
0
 40
0
 40
0
 40
0
 40
0
 40
1
 40
1
 40
1
 40
1
 10
-159.527008
 20
37.567104
 30
0.0
 10
-160.037520
 20
37.272360
 30
0.0
 10
-160.352007
 20
36.727652
 30
0.0
 10
-160.352007
 20
36.138164
 30
0.0
  0
SPLINE
  5
178
100
AcDbEntity
  8
Layer_1
 62
7
100
AcDbSpline
 70
8
 71
3
 72
8
 73
4
 74
0
 40
0
 40
0
 40
0
 40
0
 40
1
 40
1
 40
1
 40
1
 10
-160.352007
 20
36.138164
 30
0.0
 10
-160.352007
 20
35.548677
 30
0.0
 10
-160.037520
 20
35.003968
 30
0.0
 10
-159.527008
 20
34.709224
 30
0.0
  0
SPLINE
  5
179
100
AcDbEntity
  8
Layer_1
 62
7
100
AcDbSpline
 70
8
 71
3
 72
8
 73
4
 74
0
 40
0
 40
0
 40
0
 40
0
 40
1
 40
1
 40
1
 40
1
 10
-159.527008
 20
34.709224
 30
0.0
 10
-159.016497
 20
34.414480
 30
0.0
 10
-158.387522
 20
34.414480
 30
0.0
 10
-157.877011
 20
34.709224
 30
0.0
  0
SPLINE
  5
17a
100
AcDbEntity
  8
Layer_1
 62
7
100
AcDbSpline
 70
8
 71
3
 72
8
 73
4
 74
0
 40
0
 40
0
 40
0
 40
0
 40
1
 40
1
 40
1
 40
1
 10
-157.877011
 20
34.709224
 30
0.0
 10
-157.366499
 20
35.003968
 30
0.0
 10
-157.052012
 20
35.548677
 30
0.0
 10
-157.052012
 20
36.138164
 30
0.0
  0
LINE
  5
17b
100
AcDbEntity
  8
Layer_1
 62
7
100
AcDbLine
 10
-157.052012
 20
36.138164
 30
0.0
 11
-157.052012
 21
36.138164
 31
0.0
  0
SPLINE
  5
17c
100
AcDbEntity
  8
Layer_1
 62
7
100
AcDbSpline
 70
8
 71
3
 72
8
 73
4
 74
0
 40
0
 40
0
 40
0
 40
0
 40
1
 40
1
 40
1
 40
1
 10
58.471610
 20
36.138164
 30
0.0
 10
58.471846
 20
36.727809
 30
0.0
 10
58.157410
 20
37.272764
 30
0.0
 10
57.646802
 20
37.567655
 30
0.0
  0
SPLINE
  5
17d
100
AcDbEntity
  8
Layer_1
 62
7
100
AcDbSpline
 70
8
 71
3
 72
8
 73
4
 74
0
 40
0
 40
0
 40
0
 40
0
 40
1
 40
1
 40
1
 40
1
 10
57.646802
 20
37.567655
 30
0.0
 10
57.136194
 20
37.862545
 30
0.0
 10
56.507030
 20
37.862545
 30
0.0
 10
55.996422
 20
37.567655
 30
0.0
  0
SPLINE
  5
17e
100
AcDbEntity
  8
Layer_1
 62
7
100
AcDbSpline
 70
8
 71
3
 72
8
 73
4
 74
0
 40
0
 40
0
 40
0
 40
0
 40
1
 40
1
 40
1
 40
1
 10
55.996422
 20
37.567655
 30
0.0
 10
55.485814
 20
37.272764
 30
0.0
 10
55.171378
 20
36.727809
 30
0.0
 10
55.171614
 20
36.138164
 30
0.0
  0
SPLINE
  5
17f
100
AcDbEntity
  8
Layer_1
 62
7
100
AcDbSpline
 70
8
 71
3
 72
8
 73
4
 74
0
 40
0
 40
0
 40
0
 40
0
 40
1
 40
1
 40
1
 40
1
 10
55.171614
 20
36.138164
 30
0.0
 10
55.171378
 20
35.548519
 30
0.0
 10
55.485814
 20
35.003564
 30
0.0
 10
55.996422
 20
34.708673
 30
0.0
  0
SPLINE
  5
180
100
AcDbEntity
  8
Layer_1
 62
7
100
AcDbSpline
 70
8
 71
3
 72
8
 73
4
 74
0
 40
0
 40
0
 40
0
 40
0
 40
1
 40
1
 40
1
 40
1
 10
55.996422
 20
34.708673
 30
0.0
 10
56.507030
 20
34.413783
 30
0.0
 10
57.136194
 20
34.413783
 30
0.0
 10
57.646802
 20
34.708673
 30
0.0
  0
SPLINE
  5
181
100
AcDbEntity
  8
Layer_1
 62
7
100
AcDbSpline
 70
8
 71
3
 72
8
 73
4
 74
0
 40
0
 40
0
 40
0
 40
0
 40
1
 40
1
 40
1
 40
1
 10
57.646802
 20
34.708673
 30
0.0
 10
58.157410
 20
35.003564
 30
0.0
 10
58.471846
 20
35.548519
 30
0.0
 10
58.471610
 20
36.138164
 30
0.0
  0
LINE
  5
182
100
AcDbEntity
  8
Layer_1
 62
7
100
AcDbLine
 10
58.471610
 20
36.138164
 30
0.0
 11
58.471610
 21
36.138164
 31
0.0
  0
SPLINE
  5
183
100
AcDbEntity
  8
Layer_1
 62
7
100
AcDbSpline
 70
8
 71
3
 72
8
 73
4
 74
0
 40
0
 40
0
 40
0
 40
0
 40
1
 40
1
 40
1
 40
1
 10
58.471610
 20
136.138037
 30
0.0
 10
58.471846
 20
136.727681
 30
0.0
 10
58.157410
 20
137.272637
 30
0.0
 10
57.646802
 20
137.567527
 30
0.0
  0
SPLINE
  5
184
100
AcDbEntity
  8
Layer_1
 62
7
100
AcDbSpline
 70
8
 71
3
 72
8
 73
4
 74
0
 40
0
 40
0
 40
0
 40
0
 40
1
 40
1
 40
1
 40
1
 10
57.646802
 20
137.567527
 30
0.0
 10
57.136194
 20
137.862418
 30
0.0
 10
56.507030
 20
137.862418
 30
0.0
 10
55.996422
 20
137.567527
 30
0.0
  0
SPLINE
  5
185
100
AcDbEntity
  8
Layer_1
 62
7
100
AcDbSpline
 70
8
 71
3
 72
8
 73
4
 74
0
 40
0
 40
0
 40
0
 40
0
 40
1
 40
1
 40
1
 40
1
 10
55.996422
 20
137.567527
 30
0.0
 10
55.485814
 20
137.272637
 30
0.0
 10
55.171378
 20
136.727681
 30
0.0
 10
55.171614
 20
136.138037
 30
0.0
  0
SPLINE
  5
186
100
AcDbEntity
  8
Layer_1
 62
7
100
AcDbSpline
 70
8
 71
3
 72
8
 73
4
 74
0
 40
0
 40
0
 40
0
 40
0
 40
1
 40
1
 40
1
 40
1
 10
55.171614
 20
136.138037
 30
0.0
 10
55.171378
 20
135.548392
 30
0.0
 10
55.485814
 20
135.003436
 30
0.0
 10
55.996422
 20
134.708546
 30
0.0
  0
SPLINE
  5
187
100
AcDbEntity
  8
Layer_1
 62
7
100
AcDbSpline
 70
8
 71
3
 72
8
 73
4
 74
0
 40
0
 40
0
 40
0
 40
0
 40
1
 40
1
 40
1
 40
1
 10
55.996422
 20
134.708546
 30
0.0
 10
56.507030
 20
134.413655
 30
0.0
 10
57.136194
 20
134.413655
 30
0.0
 10
57.646802
 20
134.708546
 30
0.0
  0
SPLINE
  5
188
100
AcDbEntity
  8
Layer_1
 62
7
100
AcDbSpline
 70
8
 71
3
 72
8
 73
4
 74
0
 40
0
 40
0
 40
0
 40
0
 40
1
 40
1
 40
1
 40
1
 10
57.646802
 20
134.708546
 30
0.0
 10
58.157410
 20
135.003436
 30
0.0
 10
58.471846
 20
135.548392
 30
0.0
 10
58.471610
 20
136.138037
 30
0.0
  0
LINE
  5
189
100
AcDbEntity
  8
Layer_1
 62
7
100
AcDbLine
 10
58.471610
 20
136.138037
 30
0.0
 11
58.471610
 21
136.138037
 31
0.0
  0
LINE
  5
18a
100
AcDbEntity
  8
Layer_1
 62
7
100
AcDbLine
 10
-87.940153
 20
65.138125
 30
0.0
 11
-87.940153
 21
99.138083
 31
0.0
  0
SPLINE
  5
18b
100
AcDbEntity
  8
Layer_1
 62
7
100
AcDbSpline
 70
8
 71
3
 72
8
 73
4
 74
0
 40
0
 40
0
 40
0
 40
0
 40
1
 40
1
 40
1
 40
1
 10
-87.940153
 20
99.138083
 30
0.0
 10
-87.940153
 20
101.259812
 30
0.0
 10
-87.097299
 20
103.294641
 30
0.0
 10
-85.597010
 20
104.794930
 30
0.0
  0
SPLINE
  5
18c
100
AcDbEntity
  8
Layer_1
 62
7
100
AcDbSpline
 70
8
 71
3
 72
8
 73
4
 74
0
 40
0
 40
0
 40
0
 40
0
 40
1
 40
1
 40
1
 40
1
 10
-85.597010
 20
104.794930
 30
0.0
 10
-84.096721
 20
106.295219
 30
0.0
 10
-82.061892
 20
107.138073
 30
0.0
 10
-79.940163
 20
107.138073
 30
0.0
  0
LINE
  5
18d
100
AcDbEntity
  8
Layer_1
 62
7
100
AcDbLine
 10
-79.940163
 20
107.138073
 30
0.0
 11
-15.940242
 21
107.138073
 31
0.0
  0
SPLINE
  5
18e
100
AcDbEntity
  8
Layer_1
 62
7
100
AcDbSpline
 70
8
 71
3
 72
8
 73
4
 74
0
 40
0
 40
0
 40
0
 40
0
 40
1
 40
1
 40
1
 40
1
 10
-15.940242
 20
107.138073
 30
0.0
 10
-13.818513
 20
107.138073
 30
0.0
 10
-11.783684
 20
106.295219
 30
0.0
 10
-10.283395
 20
104.794930
 30
0.0
  0
SPLINE
  5
18f
100
AcDbEntity
  8
Layer_1
 62
7
100
AcDbSpline
 70
8
 71
3
 72
8
 73
4
 74
0
 40
0
 40
0
 40
0
 40
0
 40
1
 40
1
 40
1
 40
1
 10
-10.283395
 20
104.794930
 30
0.0
 10
-8.783106
 20
103.294641
 30
0.0
 10
-7.940252
 20
101.259812
 30
0.0
 10
-7.940252
 20
99.138083
 30
0.0
  0
LINE
  5
190
100
AcDbEntity
  8
Layer_1
 62
7
100
AcDbLine
 10
-7.940252
 20
99.138083
 30
0.0
 11
-7.940252
 21
65.138125
 31
0.0
  0
SPLINE
  5
191
100
AcDbEntity
  8
Layer_1
 62
7
100
AcDbSpline
 70
8
 71
3
 72
8
 73
4
 74
0
 40
0
 40
0
 40
0
 40
0
 40
1
 40
1
 40
1
 40
1
 10
-7.940252
 20
65.138125
 30
0.0
 10
-7.940257
 20
60.719856
 30
0.0
 10
-11.521973
 20
57.138143
 30
0.0
 10
-15.940242
 20
57.138143
 30
0.0
  0
LINE
  5
192
100
AcDbEntity
  8
Layer_1
 62
7
100
AcDbLine
 10
-15.940242
 20
57.138143
 30
0.0
 11
-79.940163
 21
57.138143
 31
0.0
  0
SPLINE
  5
193
100
AcDbEntity
  8
Layer_1
 62
7
100
AcDbSpline
 70
8
 71
3
 72
8
 73
4
 74
0
 40
0
 40
0
 40
0
 40
0
 40
1
 40
1
 40
1
 40
1
 10
-79.940163
 20
57.138143
 30
0.0
 10
-84.358433
 20
57.138143
 30
0.0
 10
-87.940149
 20
60.719856
 30
0.0
 10
-87.940153
 20
65.138125
 30
0.0
  0
LINE
  5
194
100
AcDbEntity
  8
Layer_1
 62
7
100
AcDbLine
 10
-87.940153
 20
65.138125
 30
0.0
 11
-87.940153
 21
65.138125
 31
0.0
  0
SPLINE
  5
195
100
AcDbEntity
  8
Layer_1
 62
7
100
AcDbSpline
 70
8
 71
3
 72
8
 73
4
 74
0
 40
0
 40
0
 40
0
 40
0
 40
1
 40
1
 40
1
 40
1
 10
-129.290100
 20
412.137687
 30
0.0
 10
-129.289864
 20
412.727332
 30
0.0
 10
-129.604300
 20
413.272287
 30
0.0
 10
-130.114908
 20
413.567178
 30
0.0
  0
SPLINE
  5
196
100
AcDbEntity
  8
Layer_1
 62
7
100
AcDbSpline
 70
8
 71
3
 72
8
 73
4
 74
0
 40
0
 40
0
 40
0
 40
0
 40
1
 40
1
 40
1
 40
1
 10
-130.114908
 20
413.567178
 30
0.0
 10
-130.625516
 20
413.862068
 30
0.0
 10
-131.254679
 20
413.862068
 30
0.0
 10
-131.765287
 20
413.567178
 30
0.0
  0
SPLINE
  5
197
100
AcDbEntity
  8
Layer_1
 62
7
100
AcDbSpline
 70
8
 71
3
 72
8
 73
4
 74
0
 40
0
 40
0
 40
0
 40
0
 40
1
 40
1
 40
1
 40
1
 10
-131.765287
 20
413.567178
 30
0.0
 10
-132.275895
 20
413.272287
 30
0.0
 10
-132.590331
 20
412.727332
 30
0.0
 10
-132.590095
 20
412.137687
 30
0.0
  0
SPLINE
  5
198
100
AcDbEntity
  8
Layer_1
 62
7
100
AcDbSpline
 70
8
 71
3
 72
8
 73
4
 74
0
 40
0
 40
0
 40
0
 40
0
 40
1
 40
1
 40
1
 40
1
 10
-132.590095
 20
412.137687
 30
0.0
 10
-132.590331
 20
411.548042
 30
0.0
 10
-132.275895
 20
411.003087
 30
0.0
 10
-131.765287
 20
410.708196
 30
0.0
  0
SPLINE
  5
199
100
AcDbEntity
  8
Layer_1
 62
7
100
AcDbSpline
 70
8
 71
3
 72
8
 73
4
 74
0
 40
0
 40
0
 40
0
 40
0
 40
1
 40
1
 40
1
 40
1
 10
-131.765287
 20
410.708196
 30
0.0
 10
-131.254679
 20
410.413306
 30
0.0
 10
-130.625516
 20
410.413306
 30
0.0
 10
-130.114908
 20
410.708196
 30
0.0
  0
SPLINE
  5
19a
100
AcDbEntity
  8
Layer_1
 62
7
100
AcDbSpline
 70
8
 71
3
 72
8
 73
4
 74
0
 40
0
 40
0
 40
0
 40
0
 40
1
 40
1
 40
1
 40
1
 10
-130.114908
 20
410.708196
 30
0.0
 10
-129.604300
 20
411.003087
 30
0.0
 10
-129.289864
 20
411.548042
 30
0.0
 10
-129.290100
 20
412.137687
 30
0.0
  0
LINE
  5
19b
100
AcDbEntity
  8
Layer_1
 62
7
100
AcDbLine
 10
-129.290100
 20
412.137687
 30
0.0
 11
-129.290100
 21
412.137687
 31
0.0
  0
SPLINE
  5
19c
100
AcDbEntity
  8
Layer_1
 62
7
100
AcDbSpline
 70
8
 71
3
 72
8
 73
4
 74
0
 40
0
 40
0
 40
0
 40
0
 40
1
 40
1
 40
1
 40
1
 10
-79.290162
 20
412.137687
 30
0.0
 10
-79.289926
 20
412.727332
 30
0.0
 10
-79.604362
 20
413.272287
 30
0.0
 10
-80.114970
 20
413.567178
 30
0.0
  0
SPLINE
  5
19d
100
AcDbEntity
  8
Layer_1
 62
7
100
AcDbSpline
 70
8
 71
3
 72
8
 73
4
 74
0
 40
0
 40
0
 40
0
 40
0
 40
1
 40
1
 40
1
 40
1
 10
-80.114970
 20
413.567178
 30
0.0
 10
-80.625578
 20
413.862068
 30
0.0
 10
-81.254742
 20
413.862068
 30
0.0
 10
-81.765350
 20
413.567178
 30
0.0
  0
SPLINE
  5
19e
100
AcDbEntity
  8
Layer_1
 62
7
100
AcDbSpline
 70
8
 71
3
 72
8
 73
4
 74
0
 40
0
 40
0
 40
0
 40
0
 40
1
 40
1
 40
1
 40
1
 10
-81.765350
 20
413.567178
 30
0.0
 10
-82.275958
 20
413.272287
 30
0.0
 10
-82.590394
 20
412.727332
 30
0.0
 10
-82.590158
 20
412.137687
 30
0.0
  0
SPLINE
  5
19f
100
AcDbEntity
  8
Layer_1
 62
7
100
AcDbSpline
 70
8
 71
3
 72
8
 73
4
 74
0
 40
0
 40
0
 40
0
 40
0
 40
1
 40
1
 40
1
 40
1
 10
-82.590158
 20
412.137687
 30
0.0
 10
-82.590394
 20
411.548042
 30
0.0
 10
-82.275958
 20
411.003087
 30
0.0
 10
-81.765350
 20
410.708196
 30
0.0
  0
SPLINE
  5
1a0
100
AcDbEntity
  8
Layer_1
 62
7
100
AcDbSpline
 70
8
 71
3
 72
8
 73
4
 74
0
 40
0
 40
0
 40
0
 40
0
 40
1
 40
1
 40
1
 40
1
 10
-81.765350
 20
410.708196
 30
0.0
 10
-81.254742
 20
410.413306
 30
0.0
 10
-80.625578
 20
410.413306
 30
0.0
 10
-80.114970
 20
410.708196
 30
0.0
  0
SPLINE
  5
1a1
100
AcDbEntity
  8
Layer_1
 62
7
100
AcDbSpline
 70
8
 71
3
 72
8
 73
4
 74
0
 40
0
 40
0
 40
0
 40
0
 40
1
 40
1
 40
1
 40
1
 10
-80.114970
 20
410.708196
 30
0.0
 10
-79.604362
 20
411.003087
 30
0.0
 10
-79.289926
 20
411.548042
 30
0.0
 10
-79.290162
 20
412.137687
 30
0.0
  0
LINE
  5
1a2
100
AcDbEntity
  8
Layer_1
 62
7
100
AcDbLine
 10
-79.290162
 20
412.137687
 30
0.0
 11
-79.290162
 21
412.137687
 31
0.0
  0
SPLINE
  5
1a3
100
AcDbEntity
  8
Layer_1
 62
7
100
AcDbSpline
 70
8
 71
3
 72
8
 73
4
 74
0
 40
0
 40
0
 40
0
 40
0
 40
1
 40
1
 40
1
 40
1
 10
-157.052012
 20
236.137909
 30
0.0
 10
-157.052012
 20
236.727396
 30
0.0
 10
-157.366499
 20
237.272105
 30
0.0
 10
-157.877011
 20
237.566849
 30
0.0
  0
SPLINE
  5
1a4
100
AcDbEntity
  8
Layer_1
 62
7
100
AcDbSpline
 70
8
 71
3
 72
8
 73
4
 74
0
 40
0
 40
0
 40
0
 40
0
 40
1
 40
1
 40
1
 40
1
 10
-157.877011
 20
237.566849
 30
0.0
 10
-158.387522
 20
237.861593
 30
0.0
 10
-159.016497
 20
237.861593
 30
0.0
 10
-159.527008
 20
237.566849
 30
0.0
  0
SPLINE
  5
1a5
100
AcDbEntity
  8
Layer_1
 62
7
100
AcDbSpline
 70
8
 71
3
 72
8
 73
4
 74
0
 40
0
 40
0
 40
0
 40
0
 40
1
 40
1
 40
1
 40
1
 10
-159.527008
 20
237.566849
 30
0.0
 10
-160.037520
 20
237.272105
 30
0.0
 10
-160.352007
 20
236.727396
 30
0.0
 10
-160.352007
 20
236.137909
 30
0.0
  0
SPLINE
  5
1a6
100
AcDbEntity
  8
Layer_1
 62
7
100
AcDbSpline
 70
8
 71
3
 72
8
 73
4
 74
0
 40
0
 40
0
 40
0
 40
0
 40
1
 40
1
 40
1
 40
1
 10
-160.352007
 20
236.137909
 30
0.0
 10
-160.352007
 20
235.548421
 30
0.0
 10
-160.037520
 20
235.003713
 30
0.0
 10
-159.527008
 20
234.708969
 30
0.0
  0
SPLINE
  5
1a7
100
AcDbEntity
  8
Layer_1
 62
7
100
AcDbSpline
 70
8
 71
3
 72
8
 73
4
 74
0
 40
0
 40
0
 40
0
 40
0
 40
1
 40
1
 40
1
 40
1
 10
-159.527008
 20
234.708969
 30
0.0
 10
-159.016497
 20
234.414225
 30
0.0
 10
-158.387522
 20
234.414225
 30
0.0
 10
-157.877011
 20
234.708969
 30
0.0
  0
SPLINE
  5
1a8
100
AcDbEntity
  8
Layer_1
 62
7
100
AcDbSpline
 70
8
 71
3
 72
8
 73
4
 74
0
 40
0
 40
0
 40
0
 40
0
 40
1
 40
1
 40
1
 40
1
 10
-157.877011
 20
234.708969
 30
0.0
 10
-157.366499
 20
235.003713
 30
0.0
 10
-157.052012
 20
235.548421
 30
0.0
 10
-157.052012
 20
236.137909
 30
0.0
  0
LINE
  5
1a9
100
AcDbEntity
  8
Layer_1
 62
7
100
AcDbLine
 10
-157.052012
 20
236.137909
 30
0.0
 11
-157.052012
 21
236.137909
 31
0.0
  0
SPLINE
  5
1aa
100
AcDbEntity
  8
Layer_1
 62
7
100
AcDbSpline
 70
8
 71
3
 72
8
 73
4
 74
0
 40
0
 40
0
 40
0
 40
0
 40
1
 40
1
 40
1
 40
1
 10
-157.052012
 20
136.138037
 30
0.0
 10
-157.052012
 20
136.727524
 30
0.0
 10
-157.366499
 20
137.272233
 30
0.0
 10
-157.877011
 20
137.566977
 30
0.0
  0
SPLINE
  5
1ab
100
AcDbEntity
  8
Layer_1
 62
7
100
AcDbSpline
 70
8
 71
3
 72
8
 73
4
 74
0
 40
0
 40
0
 40
0
 40
0
 40
1
 40
1
 40
1
 40
1
 10
-157.877011
 20
137.566977
 30
0.0
 10
-158.387522
 20
137.861720
 30
0.0
 10
-159.016497
 20
137.861720
 30
0.0
 10
-159.527008
 20
137.566977
 30
0.0
  0
SPLINE
  5
1ac
100
AcDbEntity
  8
Layer_1
 62
7
100
AcDbSpline
 70
8
 71
3
 72
8
 73
4
 74
0
 40
0
 40
0
 40
0
 40
0
 40
1
 40
1
 40
1
 40
1
 10
-159.527008
 20
137.566977
 30
0.0
 10
-160.037520
 20
137.272233
 30
0.0
 10
-160.352007
 20
136.727524
 30
0.0
 10
-160.352007
 20
136.138037
 30
0.0
  0
SPLINE
  5
1ad
100
AcDbEntity
  8
Layer_1
 62
7
100
AcDbSpline
 70
8
 71
3
 72
8
 73
4
 74
0
 40
0
 40
0
 40
0
 40
0
 40
1
 40
1
 40
1
 40
1
 10
-160.352007
 20
136.138037
 30
0.0
 10
-160.352007
 20
135.548549
 30
0.0
 10
-160.037520
 20
135.003840
 30
0.0
 10
-159.527008
 20
134.709096
 30
0.0
  0
SPLINE
  5
1ae
100
AcDbEntity
  8
Layer_1
 62
7
100
AcDbSpline
 70
8
 71
3
 72
8
 73
4
 74
0
 40
0
 40
0
 40
0
 40
0
 40
1
 40
1
 40
1
 40
1
 10
-159.527008
 20
134.709096
 30
0.0
 10
-159.016497
 20
134.414353
 30
0.0
 10
-158.387522
 20
134.414353
 30
0.0
 10
-157.877011
 20
134.709096
 30
0.0
  0
SPLINE
  5
1af
100
AcDbEntity
  8
Layer_1
 62
7
100
AcDbSpline
 70
8
 71
3
 72
8
 73
4
 74
0
 40
0
 40
0
 40
0
 40
0
 40
1
 40
1
 40
1
 40
1
 10
-157.877011
 20
134.709096
 30
0.0
 10
-157.366499
 20
135.003840
 30
0.0
 10
-157.052012
 20
135.548549
 30
0.0
 10
-157.052012
 20
136.138037
 30
0.0
  0
LINE
  5
1b0
100
AcDbEntity
  8
Layer_1
 62
7
100
AcDbLine
 10
-157.052012
 20
136.138037
 30
0.0
 11
-157.052012
 21
136.138037
 31
0.0
  0
SPLINE
  5
1b1
100
AcDbEntity
  8
Layer_1
 62
7
100
AcDbSpline
 70
8
 71
3
 72
8
 73
4
 74
0
 40
0
 40
0
 40
0
 40
0
 40
1
 40
1
 40
1
 40
1
 10
-157.052012
 20
336.137784
 30
0.0
 10
-157.052012
 20
336.727271
 30
0.0
 10
-157.366499
 20
337.271980
 30
0.0
 10
-157.877011
 20
337.566724
 30
0.0
  0
SPLINE
  5
1b2
100
AcDbEntity
  8
Layer_1
 62
7
100
AcDbSpline
 70
8
 71
3
 72
8
 73
4
 74
0
 40
0
 40
0
 40
0
 40
0
 40
1
 40
1
 40
1
 40
1
 10
-157.877011
 20
337.566724
 30
0.0
 10
-158.387522
 20
337.861467
 30
0.0
 10
-159.016497
 20
337.861467
 30
0.0
 10
-159.527008
 20
337.566724
 30
0.0
  0
SPLINE
  5
1b3
100
AcDbEntity
  8
Layer_1
 62
7
100
AcDbSpline
 70
8
 71
3
 72
8
 73
4
 74
0
 40
0
 40
0
 40
0
 40
0
 40
1
 40
1
 40
1
 40
1
 10
-159.527008
 20
337.566724
 30
0.0
 10
-160.037520
 20
337.271980
 30
0.0
 10
-160.352007
 20
336.727271
 30
0.0
 10
-160.352007
 20
336.137784
 30
0.0
  0
SPLINE
  5
1b4
100
AcDbEntity
  8
Layer_1
 62
7
100
AcDbSpline
 70
8
 71
3
 72
8
 73
4
 74
0
 40
0
 40
0
 40
0
 40
0
 40
1
 40
1
 40
1
 40
1
 10
-160.352007
 20
336.137784
 30
0.0
 10
-160.352007
 20
335.548296
 30
0.0
 10
-160.037520
 20
335.003587
 30
0.0
 10
-159.527008
 20
334.708843
 30
0.0
  0
SPLINE
  5
1b5
100
AcDbEntity
  8
Layer_1
 62
7
100
AcDbSpline
 70
8
 71
3
 72
8
 73
4
 74
0
 40
0
 40
0
 40
0
 40
0
 40
1
 40
1
 40
1
 40
1
 10
-159.527008
 20
334.708843
 30
0.0
 10
-159.016497
 20
334.414100
 30
0.0
 10
-158.387522
 20
334.414100
 30
0.0
 10
-157.877011
 20
334.708843
 30
0.0
  0
SPLINE
  5
1b6
100
AcDbEntity
  8
Layer_1
 62
7
100
AcDbSpline
 70
8
 71
3
 72
8
 73
4
 74
0
 40
0
 40
0
 40
0
 40
0
 40
1
 40
1
 40
1
 40
1
 10
-157.877011
 20
334.708843
 30
0.0
 10
-157.366499
 20
335.003587
 30
0.0
 10
-157.052012
 20
335.548296
 30
0.0
 10
-157.052012
 20
336.137784
 30
0.0
  0
LINE
  5
1b7
100
AcDbEntity
  8
Layer_1
 62
7
100
AcDbLine
 10
-157.052012
 20
336.137784
 30
0.0
 11
-157.052012
 21
336.137784
 31
0.0
  0
SPLINE
  5
1b8
100
AcDbEntity
  8
Layer_1
 62
7
100
AcDbSpline
 70
8
 71
3
 72
8
 73
4
 74
0
 40
0
 40
0
 40
0
 40
0
 40
1
 40
1
 40
1
 40
1
 10
-29.290225
 20
412.137687
 30
0.0
 10
-29.290225
 20
412.727175
 30
0.0
 10
-29.604713
 20
413.271884
 30
0.0
 10
-30.115224
 20
413.566628
 30
0.0
  0
SPLINE
  5
1b9
100
AcDbEntity
  8
Layer_1
 62
7
100
AcDbSpline
 70
8
 71
3
 72
8
 73
4
 74
0
 40
0
 40
0
 40
0
 40
0
 40
1
 40
1
 40
1
 40
1
 10
-30.115224
 20
413.566628
 30
0.0
 10
-30.625736
 20
413.861372
 30
0.0
 10
-31.254712
 20
413.861372
 30
0.0
 10
-31.765223
 20
413.566628
 30
0.0
  0
SPLINE
  5
1ba
100
AcDbEntity
  8
Layer_1
 62
7
100
AcDbSpline
 70
8
 71
3
 72
8
 73
4
 74
0
 40
0
 40
0
 40
0
 40
0
 40
1
 40
1
 40
1
 40
1
 10
-31.765223
 20
413.566628
 30
0.0
 10
-32.275735
 20
413.271884
 30
0.0
 10
-32.590223
 20
412.727175
 30
0.0
 10
-32.590223
 20
412.137687
 30
0.0
  0
SPLINE
  5
1bb
100
AcDbEntity
  8
Layer_1
 62
7
100
AcDbSpline
 70
8
 71
3
 72
8
 73
4
 74
0
 40
0
 40
0
 40
0
 40
0
 40
1
 40
1
 40
1
 40
1
 10
-32.590223
 20
412.137687
 30
0.0
 10
-32.590223
 20
411.548199
 30
0.0
 10
-32.275735
 20
411.003490
 30
0.0
 10
-31.765223
 20
410.708746
 30
0.0
  0
SPLINE
  5
1bc
100
AcDbEntity
  8
Layer_1
 62
7
100
AcDbSpline
 70
8
 71
3
 72
8
 73
4
 74
0
 40
0
 40
0
 40
0
 40
0
 40
1
 40
1
 40
1
 40
1
 10
-31.765223
 20
410.708746
 30
0.0
 10
-31.254712
 20
410.414002
 30
0.0
 10
-30.625736
 20
410.414002
 30
0.0
 10
-30.115224
 20
410.708746
 30
0.0
  0
SPLINE
  5
1bd
100
AcDbEntity
  8
Layer_1
 62
7
100
AcDbSpline
 70
8
 71
3
 72
8
 73
4
 74
0
 40
0
 40
0
 40
0
 40
0
 40
1
 40
1
 40
1
 40
1
 10
-30.115224
 20
410.708746
 30
0.0
 10
-29.604713
 20
411.003490
 30
0.0
 10
-29.290225
 20
411.548199
 30
0.0
 10
-29.290225
 20
412.137687
 30
0.0
  0
LINE
  5
1be
100
AcDbEntity
  8
Layer_1
 62
7
100
AcDbLine
 10
-29.290225
 20
412.137687
 30
0.0
 11
-29.290225
 21
412.137687
 31
0.0
  0
ENDSEC
  0
SECTION
  2
OBJECTS
  0
DICTIONARY
  5
C
330
0
100
AcDbDictionary
  3
ACAD_GROUP
350
D
  3
ACAD_MLINESTYLE
350
17
  0
DICTIONARY
  5
D
330
C
100
AcDbDictionary
  0
DICTIONARY
  5
1A
330
C
100
AcDbDictionary
  0
DICTIONARY
  5
17
330
C
100
AcDbDictionary
  3
STANDARD
350
18
  0
DICTIONARY
  5
19
330
C
100
AcDbDictionary
  0
ENDSEC
  0
EOF
