  0
SECTION
  2
HEADER
  9
$ACADVER
  1
AC1014
  9
$HANDSEED
  5
FFFF
  9
$MEASUREMENT
 70
     1
  0
ENDSEC
  0
SECTION
  2
TABLES
  0
TABLE
  2
VPORT
  5
8
330
0
100
AcDbSymbolTable
 70
     4
  0
VPORT
  5
2E
330
8
100
AcDbSymbolTableRecord
100
AcDbViewportTableRecord
  2
*ACTIVE
 70
     0
 10
0.0
 20
0.0
 11
1.0
 21
1.0
 12
210.0
 22
148.5
 13
0.0
 23
0.0
 14
10.0
 24
10.0
 15
10.0
 25
10.0
 16
0.0
 26
0.0
 36
1.0
 17
0.0
 27
0.0
 37
0.0
 40
341.0
 41
1.24
 42
50.0
 43
0.0
 44
0.0
 50
0.0
 51
0.0
 71
     0
 72
   100
 73
     1
 74
     3
 75
     0
 76
     0
 77
     0
 78
     0
  0
ENDTAB
  0
TABLE
  2
LTYPE
  5
5
330
0
100
AcDbSymbolTable
 70
     1
  0
LTYPE
  5
14
330
5
100
AcDbSymbolTableRecord
100
AcDbLinetypeTableRecord
  2
BYBLOCK
 70
     0
  3

 72
    65
 73
     0
 40
0.0
  0
LTYPE
  5
15
330
5
100
AcDbSymbolTableRecord
100
AcDbLinetypeTableRecord
  2
BYLAYER
 70
     0
  3

 72
    65
 73
     0
 40
0.0
  0
LTYPE
  5
16
330
5
100
AcDbSymbolTableRecord
100
AcDbLinetypeTableRecord
  2
CONTINUOUS
 70
     0
  3
Solid line
 72
    65
 73
     0
 40
0.0
  0
ENDTAB
  0
TABLE
  2
LAYER
  5
2
100
AcDbSymbolTable
 70
2
  0
LAYER
  5
50
100
AcDbSymbolTableRecord
100
AcDbLayerTableRecord
  2
0
 70
0
  6
CONTINUOUS
  0
LAYER
  5
51
100
AcDbSymbolTableRecord
100
AcDbLayerTableRecord
  2
Layer_1
 70
0
  6
CONTINUOUS
  0
ENDTAB
  0
TABLE
  2
STYLE
  5
3
330
0
100
AcDbSymbolTable
 70
     1
  0
STYLE
  5
11
330
3
100
AcDbSymbolTableRecord
100
AcDbTextStyleTableRecord
  2
STANDARD
 70
     0
 40
0.0
 41
1.0
 50
0.0
 71
     0
 42
2.5
  3
txt
  4

  0
ENDTAB
  0
TABLE
  2
VIEW
  5
6
330
0
100
AcDbSymbolTable
 70
     0
  0
ENDTAB
  0
TABLE
  2
UCS
  5
7
330
0
100
AcDbSymbolTable
 70
     0
  0
ENDTAB
  0
TABLE
  2
APPID
  5
9
330
0
100
AcDbSymbolTable
 70
     2
  0
APPID
  5
12
330
9
100
AcDbSymbolTableRecord
100
AcDbRegAppTableRecord
  2
ACAD
 70
     0
  0
ENDTAB
  0
TABLE
  2
DIMSTYLE
  5
A
330
0
100
AcDbSymbolTable
 70
     1
  0
DIMSTYLE
105
27
330
A
100
AcDbSymbolTableRecord
100
AcDbDimStyleTableRecord
  2
ISO-25
 70
     0
  3

  4

  5

  6

  7

 40
1.0
 41
2.5
 42
0.625
 43
3.75
 44
1.25
 45
0.0
 46
0.0
 47
0.0
 48
0.0
140
2.5
141
2.5
142
0.0
143
0.03937007874016
144
1.0
145
0.0
146
1.0
147
0.625
 71
     0
 72
     0
 73
     0
 74
     0
 75
     0
 76
     0
 77
     1
 78
     8
170
     0
171
     3
172
     1
173
     0
174
     0
175
     0
176
     0
177
     0
178
     0
270
     2
271
     2
272
     2
273
     2
274
     3
340
11
275
     0
280
     0
281
     0
282
     0
283
     0
284
     8
285
     0
286
     0
287
     3
288
     0
  0
ENDTAB
  0
TABLE
  2
BLOCK_RECORD
  5
1
330
0
100
AcDbSymbolTable
 70
     1
  0
BLOCK_RECORD
  5
1F
330
1
100
AcDbSymbolTableRecord
100
AcDbBlockTableRecord
  2
*MODEL_SPACE
  0
BLOCK_RECORD
  5
1B
330
1
100
AcDbSymbolTableRecord
100
AcDbBlockTableRecord
  2
*PAPER_SPACE
  0
ENDTAB
  0
ENDSEC
  0
SECTION
  2
BLOCKS
  0
BLOCK
  5
20
330
1F
100
AcDbEntity
  8
0
100
AcDbBlockBegin
  2
*MODEL_SPACE
 70
     0
 10
0.0
 20
0.0
 30
0.0
  3
*MODEL_SPACE
  1

  0
ENDBLK
  5
21
330
1F
100
AcDbEntity
  8
0
100
AcDbBlockEnd
  0
BLOCK
  5
1C
330
1B
100
AcDbEntity
 67
     1
  8
0
100
AcDbBlockBegin
  2
*PAPER_SPACE
  1

  0
ENDBLK
  5
1D
330
1B
100
AcDbEntity
 67
     1
  8
0
100
AcDbBlockEnd
  0
ENDSEC
  0
SECTION
  2
ENTITIES
  0
LINE
  5
100
100
AcDbEntity
  8
Layer_1
 62
7
100
AcDbLine
 10
244.674514
 20
324.256776
 30
0.0
 11
-145.325001
 21
324.256776
 31
0.0
  0
LINE
  5
101
100
AcDbEntity
  8
Layer_1
 62
7
100
AcDbLine
 10
-145.325001
 20
324.256776
 30
0.0
 11
-145.325001
 21
308.494849
 31
0.0
  0
LINE
  5
102
100
AcDbEntity
  8
Layer_1
 62
7
100
AcDbLine
 10
-145.325001
 20
308.494849
 30
0.0
 11
-146.325000
 21
308.494849
 31
0.0
  0
LINE
  5
103
100
AcDbEntity
  8
Layer_1
 62
7
100
AcDbLine
 10
-146.325000
 20
308.494849
 30
0.0
 11
-146.325000
 21
92.733170
 31
0.0
  0
LINE
  5
104
100
AcDbEntity
  8
Layer_1
 62
7
100
AcDbLine
 10
-146.325000
 20
92.733170
 30
0.0
 11
245.674505
 21
92.733170
 31
0.0
  0
LINE
  5
105
100
AcDbEntity
  8
Layer_1
 62
7
100
AcDbLine
 10
245.674505
 20
92.733170
 30
0.0
 11
245.674505
 21
308.494849
 31
0.0
  0
LINE
  5
106
100
AcDbEntity
  8
Layer_1
 62
7
100
AcDbLine
 10
245.674505
 20
308.494849
 30
0.0
 11
244.674514
 21
308.494849
 31
0.0
  0
LINE
  5
107
100
AcDbEntity
  8
Layer_1
 62
7
100
AcDbLine
 10
244.674514
 20
308.494849
 30
0.0
 11
244.674514
 21
324.256776
 31
0.0
  0
SPLINE
  5
108
100
AcDbEntity
  8
Layer_1
 62
7
100
AcDbSpline
 70
8
 71
3
 72
8
 73
4
 74
0
 40
0
 40
0
 40
0
 40
0
 40
1
 40
1
 40
1
 40
1
 10
131.324643
 20
101.733173
 30
0.0
 10
131.322311
 20
102.642787
 30
0.0
 10
130.584268
 20
103.378940
 30
0.0
 10
129.674651
 20
103.378940
 30
0.0
  0
SPLINE
  5
109
100
AcDbEntity
  8
Layer_1
 62
7
100
AcDbSpline
 70
8
 71
3
 72
8
 73
4
 74
0
 40
0
 40
0
 40
0
 40
0
 40
1
 40
1
 40
1
 40
1
 10
129.674651
 20
103.378940
 30
0.0
 10
128.765034
 20
103.378940
 30
0.0
 10
128.026990
 20
102.642787
 30
0.0
 10
128.024658
 20
101.733173
 30
0.0
  0
LINE
  5
10a
100
AcDbEntity
  8
Layer_1
 62
7
100
AcDbLine
 10
128.024658
 20
101.733173
 30
0.0
 11
128.024658
 21
98.733172
 31
0.0
  0
SPLINE
  5
10b
100
AcDbEntity
  8
Layer_1
 62
7
100
AcDbSpline
 70
8
 71
3
 72
8
 73
4
 74
0
 40
0
 40
0
 40
0
 40
0
 40
1
 40
1
 40
1
 40
1
 10
128.024658
 20
98.733172
 30
0.0
 10
128.026990
 20
97.823558
 30
0.0
 10
128.765034
 20
97.087405
 30
0.0
 10
129.674651
 20
97.087405
 30
0.0
  0
SPLINE
  5
10c
100
AcDbEntity
  8
Layer_1
 62
7
100
AcDbSpline
 70
8
 71
3
 72
8
 73
4
 74
0
 40
0
 40
0
 40
0
 40
0
 40
1
 40
1
 40
1
 40
1
 10
129.674651
 20
97.087405
 30
0.0
 10
130.584268
 20
97.087405
 30
0.0
 10
131.322311
 20
97.823558
 30
0.0
 10
131.324643
 20
98.733172
 30
0.0
  0
LINE
  5
10d
100
AcDbEntity
  8
Layer_1
 62
7
100
AcDbLine
 10
131.324643
 20
98.733172
 30
0.0
 11
131.324643
 21
101.733173
 31
0.0
  0
SPLINE
  5
10e
100
AcDbEntity
  8
Layer_1
 62
7
100
AcDbSpline
 70
8
 71
3
 72
8
 73
4
 74
0
 40
0
 40
0
 40
0
 40
0
 40
1
 40
1
 40
1
 40
1
 10
-138.675010
 20
188.495000
 30
0.0
 10
-138.675010
 20
189.084487
 30
0.0
 10
-138.989497
 20
189.629196
 30
0.0
 10
-139.500009
 20
189.923940
 30
0.0
  0
SPLINE
  5
10f
100
AcDbEntity
  8
Layer_1
 62
7
100
AcDbSpline
 70
8
 71
3
 72
8
 73
4
 74
0
 40
0
 40
0
 40
0
 40
0
 40
1
 40
1
 40
1
 40
1
 10
-139.500009
 20
189.923940
 30
0.0
 10
-140.010520
 20
190.218684
 30
0.0
 10
-140.639495
 20
190.218684
 30
0.0
 10
-141.150006
 20
189.923940
 30
0.0
  0
SPLINE
  5
110
100
AcDbEntity
  8
Layer_1
 62
7
100
AcDbSpline
 70
8
 71
3
 72
8
 73
4
 74
0
 40
0
 40
0
 40
0
 40
0
 40
1
 40
1
 40
1
 40
1
 10
-141.150006
 20
189.923940
 30
0.0
 10
-141.660518
 20
189.629196
 30
0.0
 10
-141.975005
 20
189.084487
 30
0.0
 10
-141.975005
 20
188.495000
 30
0.0
  0
SPLINE
  5
111
100
AcDbEntity
  8
Layer_1
 62
7
100
AcDbSpline
 70
8
 71
3
 72
8
 73
4
 74
0
 40
0
 40
0
 40
0
 40
0
 40
1
 40
1
 40
1
 40
1
 10
-141.975005
 20
188.495000
 30
0.0
 10
-141.975005
 20
187.905512
 30
0.0
 10
-141.660518
 20
187.360803
 30
0.0
 10
-141.150006
 20
187.066060
 30
0.0
  0
SPLINE
  5
112
100
AcDbEntity
  8
Layer_1
 62
7
100
AcDbSpline
 70
8
 71
3
 72
8
 73
4
 74
0
 40
0
 40
0
 40
0
 40
0
 40
1
 40
1
 40
1
 40
1
 10
-141.150006
 20
187.066060
 30
0.0
 10
-140.639495
 20
186.771316
 30
0.0
 10
-140.010520
 20
186.771316
 30
0.0
 10
-139.500009
 20
187.066060
 30
0.0
  0
SPLINE
  5
113
100
AcDbEntity
  8
Layer_1
 62
7
100
AcDbSpline
 70
8
 71
3
 72
8
 73
4
 74
0
 40
0
 40
0
 40
0
 40
0
 40
1
 40
1
 40
1
 40
1
 10
-139.500009
 20
187.066060
 30
0.0
 10
-138.989497
 20
187.360803
 30
0.0
 10
-138.675010
 20
187.905512
 30
0.0
 10
-138.675010
 20
188.495000
 30
0.0
  0
LINE
  5
114
100
AcDbEntity
  8
Layer_1
 62
7
100
AcDbLine
 10
-138.675010
 20
188.495000
 30
0.0
 11
-138.675010
 21
188.495000
 31
0.0
  0
LINE
  5
115
100
AcDbEntity
  8
Layer_1
 62
7
100
AcDbLine
 10
-28.675148
 20
101.733173
 30
0.0
 11
-28.675148
 21
98.733172
 31
0.0
  0
SPLINE
  5
116
100
AcDbEntity
  8
Layer_1
 62
7
100
AcDbSpline
 70
8
 71
3
 72
8
 73
4
 74
0
 40
0
 40
0
 40
0
 40
0
 40
1
 40
1
 40
1
 40
1
 10
-28.675148
 20
98.733172
 30
0.0
 10
-28.675512
 20
97.822161
 30
0.0
 10
-29.414135
 20
97.083835
 30
0.0
 10
-30.325145
 20
97.083835
 30
0.0
  0
SPLINE
  5
117
100
AcDbEntity
  8
Layer_1
 62
7
100
AcDbSpline
 70
8
 71
3
 72
8
 73
4
 74
0
 40
0
 40
0
 40
0
 40
0
 40
1
 40
1
 40
1
 40
1
 10
-30.325145
 20
97.083835
 30
0.0
 10
-31.236156
 20
97.083835
 30
0.0
 10
-31.974778
 20
97.822161
 30
0.0
 10
-31.975143
 20
98.733172
 30
0.0
  0
LINE
  5
118
100
AcDbEntity
  8
Layer_1
 62
7
100
AcDbLine
 10
-31.975143
 20
98.733172
 30
0.0
 11
-31.975143
 21
101.733173
 31
0.0
  0
SPLINE
  5
119
100
AcDbEntity
  8
Layer_1
 62
7
100
AcDbSpline
 70
8
 71
3
 72
8
 73
4
 74
0
 40
0
 40
0
 40
0
 40
0
 40
1
 40
1
 40
1
 40
1
 10
-31.975143
 20
101.733173
 30
0.0
 10
-31.974778
 20
102.644183
 30
0.0
 10
-31.236156
 20
103.382510
 30
0.0
 10
-30.325145
 20
103.382510
 30
0.0
  0
SPLINE
  5
11a
100
AcDbEntity
  8
Layer_1
 62
7
100
AcDbSpline
 70
8
 71
3
 72
8
 73
4
 74
0
 40
0
 40
0
 40
0
 40
0
 40
1
 40
1
 40
1
 40
1
 10
-30.325145
 20
103.382510
 30
0.0
 10
-29.414135
 20
103.382510
 30
0.0
 10
-28.675512
 20
102.644183
 30
0.0
 10
-28.675148
 20
101.733173
 30
0.0
  0
LINE
  5
11b
100
AcDbEntity
  8
Layer_1
 62
7
100
AcDbLine
 10
-28.675148
 20
101.733173
 30
0.0
 11
-28.675148
 21
101.733173
 31
0.0
  0
SPLINE
  5
11c
100
AcDbEntity
  8
Layer_1
 62
7
100
AcDbSpline
 70
8
 71
3
 72
8
 73
4
 74
0
 40
0
 40
0
 40
0
 40
0
 40
1
 40
1
 40
1
 40
1
 10
-138.675010
 20
238.494937
 30
0.0
 10
-138.675010
 20
239.084425
 30
0.0
 10
-138.989497
 20
239.629134
 30
0.0
 10
-139.500009
 20
239.923877
 30
0.0
  0
SPLINE
  5
11d
100
AcDbEntity
  8
Layer_1
 62
7
100
AcDbSpline
 70
8
 71
3
 72
8
 73
4
 74
0
 40
0
 40
0
 40
0
 40
0
 40
1
 40
1
 40
1
 40
1
 10
-139.500009
 20
239.923877
 30
0.0
 10
-140.010520
 20
240.218621
 30
0.0
 10
-140.639495
 20
240.218621
 30
0.0
 10
-141.150006
 20
239.923877
 30
0.0
  0
SPLINE
  5
11e
100
AcDbEntity
  8
Layer_1
 62
7
100
AcDbSpline
 70
8
 71
3
 72
8
 73
4
 74
0
 40
0
 40
0
 40
0
 40
0
 40
1
 40
1
 40
1
 40
1
 10
-141.150006
 20
239.923877
 30
0.0
 10
-141.660518
 20
239.629134
 30
0.0
 10
-141.975005
 20
239.084425
 30
0.0
 10
-141.975005
 20
238.494937
 30
0.0
  0
SPLINE
  5
11f
100
AcDbEntity
  8
Layer_1
 62
7
100
AcDbSpline
 70
8
 71
3
 72
8
 73
4
 74
0
 40
0
 40
0
 40
0
 40
0
 40
1
 40
1
 40
1
 40
1
 10
-141.975005
 20
238.494937
 30
0.0
 10
-141.975005
 20
237.905450
 30
0.0
 10
-141.660518
 20
237.360741
 30
0.0
 10
-141.150006
 20
237.065997
 30
0.0
  0
SPLINE
  5
120
100
AcDbEntity
  8
Layer_1
 62
7
100
AcDbSpline
 70
8
 71
3
 72
8
 73
4
 74
0
 40
0
 40
0
 40
0
 40
0
 40
1
 40
1
 40
1
 40
1
 10
-141.150006
 20
237.065997
 30
0.0
 10
-140.639495
 20
236.771253
 30
0.0
 10
-140.010520
 20
236.771253
 30
0.0
 10
-139.500009
 20
237.065997
 30
0.0
  0
SPLINE
  5
121
100
AcDbEntity
  8
Layer_1
 62
7
100
AcDbSpline
 70
8
 71
3
 72
8
 73
4
 74
0
 40
0
 40
0
 40
0
 40
0
 40
1
 40
1
 40
1
 40
1
 10
-139.500009
 20
237.065997
 30
0.0
 10
-138.989497
 20
237.360741
 30
0.0
 10
-138.675010
 20
237.905450
 30
0.0
 10
-138.675010
 20
238.494937
 30
0.0
  0
LINE
  5
122
100
AcDbEntity
  8
Layer_1
 62
7
100
AcDbLine
 10
-138.675010
 20
238.494937
 30
0.0
 11
-138.675010
 21
238.494937
 31
0.0
  0
SPLINE
  5
123
100
AcDbEntity
  8
Layer_1
 62
7
100
AcDbSpline
 70
8
 71
3
 72
8
 73
4
 74
0
 40
0
 40
0
 40
0
 40
0
 40
1
 40
1
 40
1
 40
1
 10
-138.675010
 20
288.494875
 30
0.0
 10
-138.675010
 20
289.084362
 30
0.0
 10
-138.989497
 20
289.629071
 30
0.0
 10
-139.500009
 20
289.923815
 30
0.0
  0
SPLINE
  5
124
100
AcDbEntity
  8
Layer_1
 62
7
100
AcDbSpline
 70
8
 71
3
 72
8
 73
4
 74
0
 40
0
 40
0
 40
0
 40
0
 40
1
 40
1
 40
1
 40
1
 10
-139.500009
 20
289.923815
 30
0.0
 10
-140.010520
 20
290.218559
 30
0.0
 10
-140.639495
 20
290.218559
 30
0.0
 10
-141.150006
 20
289.923815
 30
0.0
  0
SPLINE
  5
125
100
AcDbEntity
  8
Layer_1
 62
7
100
AcDbSpline
 70
8
 71
3
 72
8
 73
4
 74
0
 40
0
 40
0
 40
0
 40
0
 40
1
 40
1
 40
1
 40
1
 10
-141.150006
 20
289.923815
 30
0.0
 10
-141.660518
 20
289.629071
 30
0.0
 10
-141.975005
 20
289.084362
 30
0.0
 10
-141.975005
 20
288.494875
 30
0.0
  0
SPLINE
  5
126
100
AcDbEntity
  8
Layer_1
 62
7
100
AcDbSpline
 70
8
 71
3
 72
8
 73
4
 74
0
 40
0
 40
0
 40
0
 40
0
 40
1
 40
1
 40
1
 40
1
 10
-141.975005
 20
288.494875
 30
0.0
 10
-141.975005
 20
287.905387
 30
0.0
 10
-141.660518
 20
287.360679
 30
0.0
 10
-141.150006
 20
287.065935
 30
0.0
  0
SPLINE
  5
127
100
AcDbEntity
  8
Layer_1
 62
7
100
AcDbSpline
 70
8
 71
3
 72
8
 73
4
 74
0
 40
0
 40
0
 40
0
 40
0
 40
1
 40
1
 40
1
 40
1
 10
-141.150006
 20
287.065935
 30
0.0
 10
-140.639495
 20
286.771191
 30
0.0
 10
-140.010520
 20
286.771191
 30
0.0
 10
-139.500009
 20
287.065935
 30
0.0
  0
SPLINE
  5
128
100
AcDbEntity
  8
Layer_1
 62
7
100
AcDbSpline
 70
8
 71
3
 72
8
 73
4
 74
0
 40
0
 40
0
 40
0
 40
0
 40
1
 40
1
 40
1
 40
1
 10
-139.500009
 20
287.065935
 30
0.0
 10
-138.989497
 20
287.360679
 30
0.0
 10
-138.675010
 20
287.905387
 30
0.0
 10
-138.675010
 20
288.494875
 30
0.0
  0
LINE
  5
129
100
AcDbEntity
  8
Layer_1
 62
7
100
AcDbLine
 10
-138.675010
 20
288.494875
 30
0.0
 11
-138.675010
 21
288.494875
 31
0.0
  0
SPLINE
  5
12a
100
AcDbEntity
  8
Layer_1
 62
7
100
AcDbSpline
 70
8
 71
3
 72
8
 73
4
 74
0
 40
0
 40
0
 40
0
 40
0
 40
1
 40
1
 40
1
 40
1
 10
-128.675022
 20
316.756784
 30
0.0
 10
-128.675022
 20
317.346272
 30
0.0
 10
-128.989510
 20
317.890981
 30
0.0
 10
-129.500021
 20
318.185724
 30
0.0
  0
SPLINE
  5
12b
100
AcDbEntity
  8
Layer_1
 62
7
100
AcDbSpline
 70
8
 71
3
 72
8
 73
4
 74
0
 40
0
 40
0
 40
0
 40
0
 40
1
 40
1
 40
1
 40
1
 10
-129.500021
 20
318.185724
 30
0.0
 10
-130.010532
 20
318.480468
 30
0.0
 10
-130.639508
 20
318.480468
 30
0.0
 10
-131.150019
 20
318.185724
 30
0.0
  0
SPLINE
  5
12c
100
AcDbEntity
  8
Layer_1
 62
7
100
AcDbSpline
 70
8
 71
3
 72
8
 73
4
 74
0
 40
0
 40
0
 40
0
 40
0
 40
1
 40
1
 40
1
 40
1
 10
-131.150019
 20
318.185724
 30
0.0
 10
-131.660530
 20
317.890981
 30
0.0
 10
-131.975018
 20
317.346272
 30
0.0
 10
-131.975018
 20
316.756784
 30
0.0
  0
SPLINE
  5
12d
100
AcDbEntity
  8
Layer_1
 62
7
100
AcDbSpline
 70
8
 71
3
 72
8
 73
4
 74
0
 40
0
 40
0
 40
0
 40
0
 40
1
 40
1
 40
1
 40
1
 10
-131.975018
 20
316.756784
 30
0.0
 10
-131.975018
 20
316.167297
 30
0.0
 10
-131.660530
 20
315.622588
 30
0.0
 10
-131.150019
 20
315.327844
 30
0.0
  0
SPLINE
  5
12e
100
AcDbEntity
  8
Layer_1
 62
7
100
AcDbSpline
 70
8
 71
3
 72
8
 73
4
 74
0
 40
0
 40
0
 40
0
 40
0
 40
1
 40
1
 40
1
 40
1
 10
-131.150019
 20
315.327844
 30
0.0
 10
-130.639508
 20
315.033100
 30
0.0
 10
-130.010532
 20
315.033100
 30
0.0
 10
-129.500021
 20
315.327844
 30
0.0
  0
SPLINE
  5
12f
100
AcDbEntity
  8
Layer_1
 62
7
100
AcDbSpline
 70
8
 71
3
 72
8
 73
4
 74
0
 40
0
 40
0
 40
0
 40
0
 40
1
 40
1
 40
1
 40
1
 10
-129.500021
 20
315.327844
 30
0.0
 10
-128.989510
 20
315.622588
 30
0.0
 10
-128.675022
 20
316.167297
 30
0.0
 10
-128.675022
 20
316.756784
 30
0.0
  0
LINE
  5
130
100
AcDbEntity
  8
Layer_1
 62
7
100
AcDbLine
 10
-128.675022
 20
316.756784
 30
0.0
 11
-128.675022
 21
316.756784
 31
0.0
  0
SPLINE
  5
131
100
AcDbEntity
  8
Layer_1
 62
7
100
AcDbSpline
 70
8
 71
3
 72
8
 73
4
 74
0
 40
0
 40
0
 40
0
 40
0
 40
1
 40
1
 40
1
 40
1
 10
-128.675022
 20
101.733173
 30
0.0
 10
-128.675022
 20
102.322660
 30
0.0
 10
-128.989510
 20
102.867369
 30
0.0
 10
-129.500021
 20
103.162113
 30
0.0
  0
SPLINE
  5
132
100
AcDbEntity
  8
Layer_1
 62
7
100
AcDbSpline
 70
8
 71
3
 72
8
 73
4
 74
0
 40
0
 40
0
 40
0
 40
0
 40
1
 40
1
 40
1
 40
1
 10
-129.500021
 20
103.162113
 30
0.0
 10
-130.010532
 20
103.456856
 30
0.0
 10
-130.639508
 20
103.456856
 30
0.0
 10
-131.150019
 20
103.162113
 30
0.0
  0
SPLINE
  5
133
100
AcDbEntity
  8
Layer_1
 62
7
100
AcDbSpline
 70
8
 71
3
 72
8
 73
4
 74
0
 40
0
 40
0
 40
0
 40
0
 40
1
 40
1
 40
1
 40
1
 10
-131.150019
 20
103.162113
 30
0.0
 10
-131.660530
 20
102.867369
 30
0.0
 10
-131.975018
 20
102.322660
 30
0.0
 10
-131.975018
 20
101.733173
 30
0.0
  0
LINE
  5
134
100
AcDbEntity
  8
Layer_1
 62
7
100
AcDbLine
 10
-131.975018
 20
101.733173
 30
0.0
 11
-131.975018
 21
98.733172
 31
0.0
  0
SPLINE
  5
135
100
AcDbEntity
  8
Layer_1
 62
7
100
AcDbSpline
 70
8
 71
3
 72
8
 73
4
 74
0
 40
0
 40
0
 40
0
 40
0
 40
1
 40
1
 40
1
 40
1
 10
-131.975018
 20
98.733172
 30
0.0
 10
-131.975018
 20
97.821903
 30
0.0
 10
-131.236289
 20
97.083174
 30
0.0
 10
-130.325020
 20
97.083174
 30
0.0
  0
SPLINE
  5
136
100
AcDbEntity
  8
Layer_1
 62
7
100
AcDbSpline
 70
8
 71
3
 72
8
 73
4
 74
0
 40
0
 40
0
 40
0
 40
0
 40
1
 40
1
 40
1
 40
1
 10
-130.325020
 20
97.083174
 30
0.0
 10
-129.413752
 20
97.083174
 30
0.0
 10
-128.675022
 20
97.821903
 30
0.0
 10
-128.675022
 20
98.733172
 30
0.0
  0
LINE
  5
137
100
AcDbEntity
  8
Layer_1
 62
7
100
AcDbLine
 10
-128.675022
 20
98.733172
 30
0.0
 11
-128.675022
 21
101.733173
 31
0.0
  0
SPLINE
  5
138
100
AcDbEntity
  8
Layer_1
 62
7
100
AcDbSpline
 70
8
 71
3
 72
8
 73
4
 74
0
 40
0
 40
0
 40
0
 40
0
 40
1
 40
1
 40
1
 40
1
 10
231.324529
 20
101.733173
 30
0.0
 10
231.324529
 20
102.322663
 30
0.0
 10
231.010039
 20
102.867374
 30
0.0
 10
230.499526
 20
103.162120
 30
0.0
  0
SPLINE
  5
139
100
AcDbEntity
  8
Layer_1
 62
7
100
AcDbSpline
 70
8
 71
3
 72
8
 73
4
 74
0
 40
0
 40
0
 40
0
 40
0
 40
1
 40
1
 40
1
 40
1
 10
230.499526
 20
103.162120
 30
0.0
 10
229.989012
 20
103.456865
 30
0.0
 10
229.360034
 20
103.456865
 30
0.0
 10
228.849520
 20
103.162120
 30
0.0
  0
SPLINE
  5
13a
100
AcDbEntity
  8
Layer_1
 62
7
100
AcDbSpline
 70
8
 71
3
 72
8
 73
4
 74
0
 40
0
 40
0
 40
0
 40
0
 40
1
 40
1
 40
1
 40
1
 10
228.849520
 20
103.162120
 30
0.0
 10
228.339007
 20
102.867374
 30
0.0
 10
228.024517
 20
102.322663
 30
0.0
 10
228.024517
 20
101.733173
 30
0.0
  0
LINE
  5
13b
100
AcDbEntity
  8
Layer_1
 62
7
100
AcDbLine
 10
228.024517
 20
101.733173
 30
0.0
 11
228.024517
 21
98.733172
 31
0.0
  0
SPLINE
  5
13c
100
AcDbEntity
  8
Layer_1
 62
7
100
AcDbSpline
 70
8
 71
3
 72
8
 73
4
 74
0
 40
0
 40
0
 40
0
 40
0
 40
1
 40
1
 40
1
 40
1
 10
228.024517
 20
98.733172
 30
0.0
 10
228.024517
 20
97.821899
 30
0.0
 10
228.763250
 20
97.083166
 30
0.0
 10
229.674523
 20
97.083166
 30
0.0
  0
SPLINE
  5
13d
100
AcDbEntity
  8
Layer_1
 62
7
100
AcDbSpline
 70
8
 71
3
 72
8
 73
4
 74
0
 40
0
 40
0
 40
0
 40
0
 40
1
 40
1
 40
1
 40
1
 10
229.674523
 20
97.083166
 30
0.0
 10
230.585796
 20
97.083166
 30
0.0
 10
231.324529
 20
97.821899
 30
0.0
 10
231.324529
 20
98.733172
 30
0.0
  0
LINE
  5
13e
100
AcDbEntity
  8
Layer_1
 62
7
100
AcDbLine
 10
231.324529
 20
98.733172
 30
0.0
 11
231.324529
 21
101.733173
 31
0.0
  0
SPLINE
  5
13f
100
AcDbEntity
  8
Layer_1
 62
7
100
AcDbSpline
 70
8
 71
3
 72
8
 73
4
 74
0
 40
0
 40
0
 40
0
 40
0
 40
1
 40
1
 40
1
 40
1
 10
231.324529
 20
316.756784
 30
0.0
 10
231.324529
 20
317.346275
 30
0.0
 10
231.010039
 20
317.890986
 30
0.0
 10
230.499526
 20
318.185731
 30
0.0
  0
SPLINE
  5
140
100
AcDbEntity
  8
Layer_1
 62
7
100
AcDbSpline
 70
8
 71
3
 72
8
 73
4
 74
0
 40
0
 40
0
 40
0
 40
0
 40
1
 40
1
 40
1
 40
1
 10
230.499526
 20
318.185731
 30
0.0
 10
229.989012
 20
318.480476
 30
0.0
 10
229.360034
 20
318.480476
 30
0.0
 10
228.849520
 20
318.185731
 30
0.0
  0
SPLINE
  5
141
100
AcDbEntity
  8
Layer_1
 62
7
100
AcDbSpline
 70
8
 71
3
 72
8
 73
4
 74
0
 40
0
 40
0
 40
0
 40
0
 40
1
 40
1
 40
1
 40
1
 10
228.849520
 20
318.185731
 30
0.0
 10
228.339007
 20
317.890986
 30
0.0
 10
228.024517
 20
317.346275
 30
0.0
 10
228.024517
 20
316.756784
 30
0.0
  0
SPLINE
  5
142
100
AcDbEntity
  8
Layer_1
 62
7
100
AcDbSpline
 70
8
 71
3
 72
8
 73
4
 74
0
 40
0
 40
0
 40
0
 40
0
 40
1
 40
1
 40
1
 40
1
 10
228.024517
 20
316.756784
 30
0.0
 10
228.024517
 20
316.167294
 30
0.0
 10
228.339007
 20
315.622582
 30
0.0
 10
228.849520
 20
315.327837
 30
0.0
  0
SPLINE
  5
143
100
AcDbEntity
  8
Layer_1
 62
7
100
AcDbSpline
 70
8
 71
3
 72
8
 73
4
 74
0
 40
0
 40
0
 40
0
 40
0
 40
1
 40
1
 40
1
 40
1
 10
228.849520
 20
315.327837
 30
0.0
 10
229.360034
 20
315.033092
 30
0.0
 10
229.989012
 20
315.033092
 30
0.0
 10
230.499526
 20
315.327837
 30
0.0
  0
SPLINE
  5
144
100
AcDbEntity
  8
Layer_1
 62
7
100
AcDbSpline
 70
8
 71
3
 72
8
 73
4
 74
0
 40
0
 40
0
 40
0
 40
0
 40
1
 40
1
 40
1
 40
1
 10
230.499526
 20
315.327837
 30
0.0
 10
231.010040
 20
315.622582
 30
0.0
 10
231.324529
 20
316.167294
 30
0.0
 10
231.324529
 20
316.756784
 30
0.0
  0
LINE
  5
145
100
AcDbEntity
  8
Layer_1
 62
7
100
AcDbLine
 10
231.324529
 20
316.756784
 30
0.0
 11
231.324529
 21
316.756784
 31
0.0
  0
SPLINE
  5
146
100
AcDbEntity
  8
Layer_1
 62
7
100
AcDbSpline
 70
8
 71
3
 72
8
 73
4
 74
0
 40
0
 40
0
 40
0
 40
0
 40
1
 40
1
 40
1
 40
1
 10
241.324523
 20
188.495000
 30
0.0
 10
241.324523
 20
189.084490
 30
0.0
 10
241.010033
 20
189.629202
 30
0.0
 10
240.499520
 20
189.923947
 30
0.0
  0
SPLINE
  5
147
100
AcDbEntity
  8
Layer_1
 62
7
100
AcDbSpline
 70
8
 71
3
 72
8
 73
4
 74
0
 40
0
 40
0
 40
0
 40
0
 40
1
 40
1
 40
1
 40
1
 10
240.499520
 20
189.923947
 30
0.0
 10
239.989006
 20
190.218692
 30
0.0
 10
239.360028
 20
190.218692
 30
0.0
 10
238.849514
 20
189.923947
 30
0.0
  0
SPLINE
  5
148
100
AcDbEntity
  8
Layer_1
 62
7
100
AcDbSpline
 70
8
 71
3
 72
8
 73
4
 74
0
 40
0
 40
0
 40
0
 40
0
 40
1
 40
1
 40
1
 40
1
 10
238.849514
 20
189.923947
 30
0.0
 10
238.339001
 20
189.629202
 30
0.0
 10
238.024511
 20
189.084490
 30
0.0
 10
238.024511
 20
188.495000
 30
0.0
  0
SPLINE
  5
149
100
AcDbEntity
  8
Layer_1
 62
7
100
AcDbSpline
 70
8
 71
3
 72
8
 73
4
 74
0
 40
0
 40
0
 40
0
 40
0
 40
1
 40
1
 40
1
 40
1
 10
238.024511
 20
188.495000
 30
0.0
 10
238.024511
 20
187.905509
 30
0.0
 10
238.339000
 20
187.360798
 30
0.0
 10
238.849514
 20
187.066053
 30
0.0
  0
SPLINE
  5
14a
100
AcDbEntity
  8
Layer_1
 62
7
100
AcDbSpline
 70
8
 71
3
 72
8
 73
4
 74
0
 40
0
 40
0
 40
0
 40
0
 40
1
 40
1
 40
1
 40
1
 10
238.849514
 20
187.066053
 30
0.0
 10
239.360028
 20
186.771307
 30
0.0
 10
239.989006
 20
186.771307
 30
0.0
 10
240.499520
 20
187.066053
 30
0.0
  0
SPLINE
  5
14b
100
AcDbEntity
  8
Layer_1
 62
7
100
AcDbSpline
 70
8
 71
3
 72
8
 73
4
 74
0
 40
0
 40
0
 40
0
 40
0
 40
1
 40
1
 40
1
 40
1
 10
240.499520
 20
187.066053
 30
0.0
 10
241.010033
 20
187.360798
 30
0.0
 10
241.324523
 20
187.905509
 30
0.0
 10
241.324523
 20
188.495000
 30
0.0
  0
LINE
  5
14c
100
AcDbEntity
  8
Layer_1
 62
7
100
AcDbLine
 10
241.324523
 20
188.495000
 30
0.0
 11
241.324523
 21
188.495000
 31
0.0
  0
SPLINE
  5
14d
100
AcDbEntity
  8
Layer_1
 62
7
100
AcDbSpline
 70
8
 71
3
 72
8
 73
4
 74
0
 40
0
 40
0
 40
0
 40
0
 40
1
 40
1
 40
1
 40
1
 10
131.224657
 20
316.756784
 30
0.0
 10
131.224657
 20
317.310548
 30
0.0
 10
130.929228
 20
317.822247
 30
0.0
 10
130.449654
 20
318.099129
 30
0.0
  0
SPLINE
  5
14e
100
AcDbEntity
  8
Layer_1
 62
7
100
AcDbSpline
 70
8
 71
3
 72
8
 73
4
 74
0
 40
0
 40
0
 40
0
 40
0
 40
1
 40
1
 40
1
 40
1
 10
130.449654
 20
318.099129
 30
0.0
 10
129.970080
 20
318.376011
 30
0.0
 10
129.379221
 20
318.376011
 30
0.0
 10
128.899647
 20
318.099129
 30
0.0
  0
SPLINE
  5
14f
100
AcDbEntity
  8
Layer_1
 62
7
100
AcDbSpline
 70
8
 71
3
 72
8
 73
4
 74
0
 40
0
 40
0
 40
0
 40
0
 40
1
 40
1
 40
1
 40
1
 10
128.899647
 20
318.099129
 30
0.0
 10
128.420074
 20
317.822247
 30
0.0
 10
128.124644
 20
317.310548
 30
0.0
 10
128.124644
 20
316.756784
 30
0.0
  0
SPLINE
  5
150
100
AcDbEntity
  8
Layer_1
 62
7
100
AcDbSpline
 70
8
 71
3
 72
8
 73
4
 74
0
 40
0
 40
0
 40
0
 40
0
 40
1
 40
1
 40
1
 40
1
 10
128.124644
 20
316.756784
 30
0.0
 10
128.124644
 20
316.203020
 30
0.0
 10
128.420074
 20
315.691321
 30
0.0
 10
128.899647
 20
315.414439
 30
0.0
  0
SPLINE
  5
151
100
AcDbEntity
  8
Layer_1
 62
7
100
AcDbSpline
 70
8
 71
3
 72
8
 73
4
 74
0
 40
0
 40
0
 40
0
 40
0
 40
1
 40
1
 40
1
 40
1
 10
128.899647
 20
315.414439
 30
0.0
 10
129.379221
 20
315.137557
 30
0.0
 10
129.970080
 20
315.137557
 30
0.0
 10
130.449654
 20
315.414439
 30
0.0
  0
SPLINE
  5
152
100
AcDbEntity
  8
Layer_1
 62
7
100
AcDbSpline
 70
8
 71
3
 72
8
 73
4
 74
0
 40
0
 40
0
 40
0
 40
0
 40
1
 40
1
 40
1
 40
1
 10
130.449654
 20
315.414439
 30
0.0
 10
130.929228
 20
315.691321
 30
0.0
 10
131.224657
 20
316.203020
 30
0.0
 10
131.224657
 20
316.756784
 30
0.0
  0
LINE
  5
153
100
AcDbEntity
  8
Layer_1
 62
7
100
AcDbLine
 10
131.224657
 20
316.756784
 30
0.0
 11
131.224657
 21
316.756784
 31
0.0
  0
SPLINE
  5
154
100
AcDbEntity
  8
Layer_1
 62
7
100
AcDbSpline
 70
8
 71
3
 72
8
 73
4
 74
0
 40
0
 40
0
 40
0
 40
0
 40
1
 40
1
 40
1
 40
1
 10
-28.675148
 20
316.756784
 30
0.0
 10
-28.674911
 20
317.346429
 30
0.0
 10
-28.989348
 20
317.891384
 30
0.0
 10
-29.499956
 20
318.186275
 30
0.0
  0
SPLINE
  5
155
100
AcDbEntity
  8
Layer_1
 62
7
100
AcDbSpline
 70
8
 71
3
 72
8
 73
4
 74
0
 40
0
 40
0
 40
0
 40
0
 40
1
 40
1
 40
1
 40
1
 10
-29.499956
 20
318.186275
 30
0.0
 10
-30.010564
 20
318.481166
 30
0.0
 10
-30.639727
 20
318.481166
 30
0.0
 10
-31.150335
 20
318.186275
 30
0.0
  0
SPLINE
  5
156
100
AcDbEntity
  8
Layer_1
 62
7
100
AcDbSpline
 70
8
 71
3
 72
8
 73
4
 74
0
 40
0
 40
0
 40
0
 40
0
 40
1
 40
1
 40
1
 40
1
 10
-31.150335
 20
318.186275
 30
0.0
 10
-31.660943
 20
317.891384
 30
0.0
 10
-31.975379
 20
317.346429
 30
0.0
 10
-31.975143
 20
316.756784
 30
0.0
  0
SPLINE
  5
157
100
AcDbEntity
  8
Layer_1
 62
7
100
AcDbSpline
 70
8
 71
3
 72
8
 73
4
 74
0
 40
0
 40
0
 40
0
 40
0
 40
1
 40
1
 40
1
 40
1
 10
-31.975143
 20
316.756784
 30
0.0
 10
-31.975379
 20
316.167139
 30
0.0
 10
-31.660943
 20
315.622184
 30
0.0
 10
-31.150335
 20
315.327294
 30
0.0
  0
SPLINE
  5
158
100
AcDbEntity
  8
Layer_1
 62
7
100
AcDbSpline
 70
8
 71
3
 72
8
 73
4
 74
0
 40
0
 40
0
 40
0
 40
0
 40
1
 40
1
 40
1
 40
1
 10
-31.150335
 20
315.327294
 30
0.0
 10
-30.639727
 20
315.032403
 30
0.0
 10
-30.010564
 20
315.032403
 30
0.0
 10
-29.499956
 20
315.327294
 30
0.0
  0
SPLINE
  5
159
100
AcDbEntity
  8
Layer_1
 62
7
100
AcDbSpline
 70
8
 71
3
 72
8
 73
4
 74
0
 40
0
 40
0
 40
0
 40
0
 40
1
 40
1
 40
1
 40
1
 10
-29.499956
 20
315.327294
 30
0.0
 10
-28.989348
 20
315.622184
 30
0.0
 10
-28.674911
 20
316.167139
 30
0.0
 10
-28.675148
 20
316.756784
 30
0.0
  0
LINE
  5
15a
100
AcDbEntity
  8
Layer_1
 62
7
100
AcDbLine
 10
-28.675148
 20
316.756784
 30
0.0
 11
-28.675148
 21
316.756784
 31
0.0
  0
SPLINE
  5
15b
100
AcDbEntity
  8
Layer_1
 62
7
100
AcDbSpline
 70
8
 71
3
 72
8
 73
4
 74
0
 40
0
 40
0
 40
0
 40
0
 40
1
 40
1
 40
1
 40
1
 10
241.324523
 20
238.494937
 30
0.0
 10
241.324523
 20
239.084428
 30
0.0
 10
241.010033
 20
239.629139
 30
0.0
 10
240.499520
 20
239.923884
 30
0.0
  0
SPLINE
  5
15c
100
AcDbEntity
  8
Layer_1
 62
7
100
AcDbSpline
 70
8
 71
3
 72
8
 73
4
 74
0
 40
0
 40
0
 40
0
 40
0
 40
1
 40
1
 40
1
 40
1
 10
240.499520
 20
239.923884
 30
0.0
 10
239.989006
 20
240.218629
 30
0.0
 10
239.360028
 20
240.218629
 30
0.0
 10
238.849514
 20
239.923884
 30
0.0
  0
SPLINE
  5
15d
100
AcDbEntity
  8
Layer_1
 62
7
100
AcDbSpline
 70
8
 71
3
 72
8
 73
4
 74
0
 40
0
 40
0
 40
0
 40
0
 40
1
 40
1
 40
1
 40
1
 10
238.849514
 20
239.923884
 30
0.0
 10
238.339001
 20
239.629139
 30
0.0
 10
238.024511
 20
239.084428
 30
0.0
 10
238.024511
 20
238.494937
 30
0.0
  0
SPLINE
  5
15e
100
AcDbEntity
  8
Layer_1
 62
7
100
AcDbSpline
 70
8
 71
3
 72
8
 73
4
 74
0
 40
0
 40
0
 40
0
 40
0
 40
1
 40
1
 40
1
 40
1
 10
238.024511
 20
238.494937
 30
0.0
 10
238.024511
 20
237.905447
 30
0.0
 10
238.339000
 20
237.360735
 30
0.0
 10
238.849514
 20
237.065990
 30
0.0
  0
SPLINE
  5
15f
100
AcDbEntity
  8
Layer_1
 62
7
100
AcDbSpline
 70
8
 71
3
 72
8
 73
4
 74
0
 40
0
 40
0
 40
0
 40
0
 40
1
 40
1
 40
1
 40
1
 10
238.849514
 20
237.065990
 30
0.0
 10
239.360028
 20
236.771245
 30
0.0
 10
239.989006
 20
236.771245
 30
0.0
 10
240.499520
 20
237.065990
 30
0.0
  0
SPLINE
  5
160
100
AcDbEntity
  8
Layer_1
 62
7
100
AcDbSpline
 70
8
 71
3
 72
8
 73
4
 74
0
 40
0
 40
0
 40
0
 40
0
 40
1
 40
1
 40
1
 40
1
 10
240.499520
 20
237.065990
 30
0.0
 10
241.010033
 20
237.360735
 30
0.0
 10
241.324523
 20
237.905447
 30
0.0
 10
241.324523
 20
238.494937
 30
0.0
  0
LINE
  5
161
100
AcDbEntity
  8
Layer_1
 62
7
100
AcDbLine
 10
241.324523
 20
238.494937
 30
0.0
 11
241.324523
 21
238.494937
 31
0.0
  0
SPLINE
  5
162
100
AcDbEntity
  8
Layer_1
 62
7
100
AcDbSpline
 70
8
 71
3
 72
8
 73
4
 74
0
 40
0
 40
0
 40
0
 40
0
 40
1
 40
1
 40
1
 40
1
 10
241.324523
 20
288.494875
 30
0.0
 10
241.324523
 20
289.084365
 30
0.0
 10
241.010033
 20
289.629077
 30
0.0
 10
240.499520
 20
289.923822
 30
0.0
  0
SPLINE
  5
163
100
AcDbEntity
  8
Layer_1
 62
7
100
AcDbSpline
 70
8
 71
3
 72
8
 73
4
 74
0
 40
0
 40
0
 40
0
 40
0
 40
1
 40
1
 40
1
 40
1
 10
240.499520
 20
289.923822
 30
0.0
 10
239.989006
 20
290.218567
 30
0.0
 10
239.360028
 20
290.218567
 30
0.0
 10
238.849514
 20
289.923822
 30
0.0
  0
SPLINE
  5
164
100
AcDbEntity
  8
Layer_1
 62
7
100
AcDbSpline
 70
8
 71
3
 72
8
 73
4
 74
0
 40
0
 40
0
 40
0
 40
0
 40
1
 40
1
 40
1
 40
1
 10
238.849514
 20
289.923822
 30
0.0
 10
238.339001
 20
289.629077
 30
0.0
 10
238.024511
 20
289.084365
 30
0.0
 10
238.024511
 20
288.494875
 30
0.0
  0
SPLINE
  5
165
100
AcDbEntity
  8
Layer_1
 62
7
100
AcDbSpline
 70
8
 71
3
 72
8
 73
4
 74
0
 40
0
 40
0
 40
0
 40
0
 40
1
 40
1
 40
1
 40
1
 10
238.024511
 20
288.494875
 30
0.0
 10
238.024511
 20
287.905385
 30
0.0
 10
238.339000
 20
287.360673
 30
0.0
 10
238.849514
 20
287.065928
 30
0.0
  0
SPLINE
  5
166
100
AcDbEntity
  8
Layer_1
 62
7
100
AcDbSpline
 70
8
 71
3
 72
8
 73
4
 74
0
 40
0
 40
0
 40
0
 40
0
 40
1
 40
1
 40
1
 40
1
 10
238.849514
 20
287.065928
 30
0.0
 10
239.360028
 20
286.771183
 30
0.0
 10
239.989006
 20
286.771183
 30
0.0
 10
240.499520
 20
287.065928
 30
0.0
  0
SPLINE
  5
167
100
AcDbEntity
  8
Layer_1
 62
7
100
AcDbSpline
 70
8
 71
3
 72
8
 73
4
 74
0
 40
0
 40
0
 40
0
 40
0
 40
1
 40
1
 40
1
 40
1
 10
240.499520
 20
287.065928
 30
0.0
 10
241.010033
 20
287.360673
 30
0.0
 10
241.324523
 20
287.905385
 30
0.0
 10
241.324523
 20
288.494875
 30
0.0
  0
LINE
  5
168
100
AcDbEntity
  8
Layer_1
 62
7
100
AcDbLine
 10
241.324523
 20
288.494875
 30
0.0
 11
241.324523
 21
288.494875
 31
0.0
  0
ENDSEC
  0
SECTION
  2
OBJECTS
  0
DICTIONARY
  5
C
330
0
100
AcDbDictionary
  3
ACAD_GROUP
350
D
  3
ACAD_MLINESTYLE
350
17
  0
DICTIONARY
  5
D
330
C
100
AcDbDictionary
  0
DICTIONARY
  5
1A
330
C
100
AcDbDictionary
  0
DICTIONARY
  5
17
330
C
100
AcDbDictionary
  3
STANDARD
350
18
  0
DICTIONARY
  5
19
330
C
100
AcDbDictionary
  0
ENDSEC
  0
EOF
