  0
SECTION
  2
HEADER
  9
$ACADVER
  1
AC1014
  9
$HANDSEED
  5
FFFF
  9
$MEASUREMENT
 70
     1
  0
ENDSEC
  0
SECTION
  2
TABLES
  0
TABLE
  2
VPORT
  5
8
330
0
100
AcDbSymbolTable
 70
     4
  0
VPORT
  5
2E
330
8
100
AcDbSymbolTableRecord
100
AcDbViewportTableRecord
  2
*ACTIVE
 70
     0
 10
0.0
 20
0.0
 11
1.0
 21
1.0
 12
210.0
 22
148.5
 13
0.0
 23
0.0
 14
10.0
 24
10.0
 15
10.0
 25
10.0
 16
0.0
 26
0.0
 36
1.0
 17
0.0
 27
0.0
 37
0.0
 40
341.0
 41
1.24
 42
50.0
 43
0.0
 44
0.0
 50
0.0
 51
0.0
 71
     0
 72
   100
 73
     1
 74
     3
 75
     0
 76
     0
 77
     0
 78
     0
  0
ENDTAB
  0
TABLE
  2
LTYPE
  5
5
330
0
100
AcDbSymbolTable
 70
     1
  0
LTYPE
  5
14
330
5
100
AcDbSymbolTableRecord
100
AcDbLinetypeTableRecord
  2
BYBLOCK
 70
     0
  3

 72
    65
 73
     0
 40
0.0
  0
LTYPE
  5
15
330
5
100
AcDbSymbolTableRecord
100
AcDbLinetypeTableRecord
  2
BYLAYER
 70
     0
  3

 72
    65
 73
     0
 40
0.0
  0
LTYPE
  5
16
330
5
100
AcDbSymbolTableRecord
100
AcDbLinetypeTableRecord
  2
CONTINUOUS
 70
     0
  3
Solid line
 72
    65
 73
     0
 40
0.0
  0
ENDTAB
  0
TABLE
  2
LAYER
  5
2
100
AcDbSymbolTable
 70
2
  0
LAYER
  5
50
100
AcDbSymbolTableRecord
100
AcDbLayerTableRecord
  2
0
 70
0
  6
CONTINUOUS
  0
LAYER
  5
51
100
AcDbSymbolTableRecord
100
AcDbLayerTableRecord
  2
Layer_1
 70
0
  6
CONTINUOUS
  0
ENDTAB
  0
TABLE
  2
STYLE
  5
3
330
0
100
AcDbSymbolTable
 70
     1
  0
STYLE
  5
11
330
3
100
AcDbSymbolTableRecord
100
AcDbTextStyleTableRecord
  2
STANDARD
 70
     0
 40
0.0
 41
1.0
 50
0.0
 71
     0
 42
2.5
  3
txt
  4

  0
ENDTAB
  0
TABLE
  2
VIEW
  5
6
330
0
100
AcDbSymbolTable
 70
     0
  0
ENDTAB
  0
TABLE
  2
UCS
  5
7
330
0
100
AcDbSymbolTable
 70
     0
  0
ENDTAB
  0
TABLE
  2
APPID
  5
9
330
0
100
AcDbSymbolTable
 70
     2
  0
APPID
  5
12
330
9
100
AcDbSymbolTableRecord
100
AcDbRegAppTableRecord
  2
ACAD
 70
     0
  0
ENDTAB
  0
TABLE
  2
DIMSTYLE
  5
A
330
0
100
AcDbSymbolTable
 70
     1
  0
DIMSTYLE
105
27
330
A
100
AcDbSymbolTableRecord
100
AcDbDimStyleTableRecord
  2
ISO-25
 70
     0
  3

  4

  5

  6

  7

 40
1.0
 41
2.5
 42
0.625
 43
3.75
 44
1.25
 45
0.0
 46
0.0
 47
0.0
 48
0.0
140
2.5
141
2.5
142
0.0
143
0.03937007874016
144
1.0
145
0.0
146
1.0
147
0.625
 71
     0
 72
     0
 73
     0
 74
     0
 75
     0
 76
     0
 77
     1
 78
     8
170
     0
171
     3
172
     1
173
     0
174
     0
175
     0
176
     0
177
     0
178
     0
270
     2
271
     2
272
     2
273
     2
274
     3
340
11
275
     0
280
     0
281
     0
282
     0
283
     0
284
     8
285
     0
286
     0
287
     3
288
     0
  0
ENDTAB
  0
TABLE
  2
BLOCK_RECORD
  5
1
330
0
100
AcDbSymbolTable
 70
     1
  0
BLOCK_RECORD
  5
1F
330
1
100
AcDbSymbolTableRecord
100
AcDbBlockTableRecord
  2
*MODEL_SPACE
  0
BLOCK_RECORD
  5
1B
330
1
100
AcDbSymbolTableRecord
100
AcDbBlockTableRecord
  2
*PAPER_SPACE
  0
ENDTAB
  0
ENDSEC
  0
SECTION
  2
BLOCKS
  0
BLOCK
  5
20
330
1F
100
AcDbEntity
  8
0
100
AcDbBlockBegin
  2
*MODEL_SPACE
 70
     0
 10
0.0
 20
0.0
 30
0.0
  3
*MODEL_SPACE
  1

  0
ENDBLK
  5
21
330
1F
100
AcDbEntity
  8
0
100
AcDbBlockEnd
  0
BLOCK
  5
1C
330
1B
100
AcDbEntity
 67
     1
  8
0
100
AcDbBlockBegin
  2
*PAPER_SPACE
  1

  0
ENDBLK
  5
1D
330
1B
100
AcDbEntity
 67
     1
  8
0
100
AcDbBlockEnd
  0
ENDSEC
  0
SECTION
  2
ENTITIES
  0
SPLINE
  5
100
100
AcDbEntity
  8
Layer_1
 62
7
100
AcDbSpline
 70
8
 71
3
 72
8
 73
4
 74
0
 40
0
 40
0
 40
0
 40
0
 40
1
 40
1
 40
1
 40
1
 10
180.533940
 20
37.127440
 30
0.0
 10
180.533940
 20
37.752660
 30
0.0
 10
180.200390
 20
38.330380
 30
0.0
 10
179.658940
 20
38.642990
 30
0.0
  0
SPLINE
  5
101
100
AcDbEntity
  8
Layer_1
 62
7
100
AcDbSpline
 70
8
 71
3
 72
8
 73
4
 74
0
 40
0
 40
0
 40
0
 40
0
 40
1
 40
1
 40
1
 40
1
 10
179.658940
 20
38.642990
 30
0.0
 10
179.117500
 20
38.955600
 30
0.0
 10
178.450390
 20
38.955600
 30
0.0
 10
177.908930
 20
38.642990
 30
0.0
  0
SPLINE
  5
102
100
AcDbEntity
  8
Layer_1
 62
7
100
AcDbSpline
 70
8
 71
3
 72
8
 73
4
 74
0
 40
0
 40
0
 40
0
 40
0
 40
1
 40
1
 40
1
 40
1
 10
177.908930
 20
38.642990
 30
0.0
 10
177.367490
 20
38.330380
 30
0.0
 10
177.033930
 20
37.752660
 30
0.0
 10
177.033930
 20
37.127440
 30
0.0
  0
SPLINE
  5
103
100
AcDbEntity
  8
Layer_1
 62
7
100
AcDbSpline
 70
8
 71
3
 72
8
 73
4
 74
0
 40
0
 40
0
 40
0
 40
0
 40
1
 40
1
 40
1
 40
1
 10
177.033930
 20
37.127440
 30
0.0
 10
177.033930
 20
36.502230
 30
0.0
 10
177.367490
 20
35.924500
 30
0.0
 10
177.908930
 20
35.611890
 30
0.0
  0
SPLINE
  5
104
100
AcDbEntity
  8
Layer_1
 62
7
100
AcDbSpline
 70
8
 71
3
 72
8
 73
4
 74
0
 40
0
 40
0
 40
0
 40
0
 40
1
 40
1
 40
1
 40
1
 10
177.908930
 20
35.611890
 30
0.0
 10
178.450390
 20
35.299290
 30
0.0
 10
179.117500
 20
35.299290
 30
0.0
 10
179.658940
 20
35.611890
 30
0.0
  0
SPLINE
  5
105
100
AcDbEntity
  8
Layer_1
 62
7
100
AcDbSpline
 70
8
 71
3
 72
8
 73
4
 74
0
 40
0
 40
0
 40
0
 40
0
 40
1
 40
1
 40
1
 40
1
 10
179.658940
 20
35.611890
 30
0.0
 10
180.200390
 20
35.924500
 30
0.0
 10
180.533940
 20
36.502230
 30
0.0
 10
180.533940
 20
37.127440
 30
0.0
  0
LINE
  5
106
100
AcDbEntity
  8
Layer_1
 62
7
100
AcDbLine
 10
180.532890
 20
37.127410
 30
0.0
 11
180.532890
 21
37.127410
 31
0.0
  0
SPLINE
  5
107
100
AcDbEntity
  8
Layer_1
 62
7
100
AcDbSpline
 70
8
 71
3
 72
8
 73
4
 74
0
 40
0
 40
0
 40
0
 40
0
 40
1
 40
1
 40
1
 40
1
 10
20.534150
 20
287.127125
 30
0.0
 10
20.534150
 20
287.752336
 30
0.0
 10
20.200600
 20
288.330066
 30
0.0
 10
19.659140
 20
288.642666
 30
0.0
  0
SPLINE
  5
108
100
AcDbEntity
  8
Layer_1
 62
7
100
AcDbSpline
 70
8
 71
3
 72
8
 73
4
 74
0
 40
0
 40
0
 40
0
 40
0
 40
1
 40
1
 40
1
 40
1
 10
19.659150
 20
288.642666
 30
0.0
 10
19.117700
 20
288.955276
 30
0.0
 10
18.450600
 20
288.955276
 30
0.0
 10
17.909150
 20
288.642666
 30
0.0
  0
SPLINE
  5
109
100
AcDbEntity
  8
Layer_1
 62
7
100
AcDbSpline
 70
8
 71
3
 72
8
 73
4
 74
0
 40
0
 40
0
 40
0
 40
0
 40
1
 40
1
 40
1
 40
1
 10
17.909150
 20
288.642666
 30
0.0
 10
17.367700
 20
288.330066
 30
0.0
 10
17.034150
 20
287.752336
 30
0.0
 10
17.034150
 20
287.127125
 30
0.0
  0
SPLINE
  5
10a
100
AcDbEntity
  8
Layer_1
 62
7
100
AcDbSpline
 70
8
 71
3
 72
8
 73
4
 74
0
 40
0
 40
0
 40
0
 40
0
 40
1
 40
1
 40
1
 40
1
 10
17.034150
 20
287.127125
 30
0.0
 10
17.034150
 20
286.501905
 30
0.0
 10
17.367700
 20
285.924175
 30
0.0
 10
17.909150
 20
285.611575
 30
0.0
  0
SPLINE
  5
10b
100
AcDbEntity
  8
Layer_1
 62
7
100
AcDbSpline
 70
8
 71
3
 72
8
 73
4
 74
0
 40
0
 40
0
 40
0
 40
0
 40
1
 40
1
 40
1
 40
1
 10
17.909150
 20
285.611575
 30
0.0
 10
18.450600
 20
285.298965
 30
0.0
 10
19.117700
 20
285.298965
 30
0.0
 10
19.659150
 20
285.611575
 30
0.0
  0
SPLINE
  5
10c
100
AcDbEntity
  8
Layer_1
 62
7
100
AcDbSpline
 70
8
 71
3
 72
8
 73
4
 74
0
 40
0
 40
0
 40
0
 40
0
 40
1
 40
1
 40
1
 40
1
 10
19.659150
 20
285.611575
 30
0.0
 10
20.200600
 20
285.924175
 30
0.0
 10
20.534150
 20
286.501905
 30
0.0
 10
20.534150
 20
287.127125
 30
0.0
  0
LINE
  5
10d
100
AcDbEntity
  8
Layer_1
 62
7
100
AcDbLine
 10
20.534060
 20
287.127175
 30
0.0
 11
20.534060
 21
287.127175
 31
0.0
  0
SPLINE
  5
10e
100
AcDbEntity
  8
Layer_1
 62
7
100
AcDbSpline
 70
8
 71
3
 72
8
 73
4
 74
0
 40
0
 40
0
 40
0
 40
0
 40
1
 40
1
 40
1
 40
1
 10
20.534150
 20
37.127440
 30
0.0
 10
20.534150
 20
37.752660
 30
0.0
 10
20.200600
 20
38.330380
 30
0.0
 10
19.659140
 20
38.642990
 30
0.0
  0
SPLINE
  5
10f
100
AcDbEntity
  8
Layer_1
 62
7
100
AcDbSpline
 70
8
 71
3
 72
8
 73
4
 74
0
 40
0
 40
0
 40
0
 40
0
 40
1
 40
1
 40
1
 40
1
 10
19.659150
 20
38.642990
 30
0.0
 10
19.117700
 20
38.955600
 30
0.0
 10
18.450600
 20
38.955600
 30
0.0
 10
17.909150
 20
38.642990
 30
0.0
  0
SPLINE
  5
110
100
AcDbEntity
  8
Layer_1
 62
7
100
AcDbSpline
 70
8
 71
3
 72
8
 73
4
 74
0
 40
0
 40
0
 40
0
 40
0
 40
1
 40
1
 40
1
 40
1
 10
17.909150
 20
38.642990
 30
0.0
 10
17.367700
 20
38.330380
 30
0.0
 10
17.034150
 20
37.752660
 30
0.0
 10
17.034150
 20
37.127440
 30
0.0
  0
SPLINE
  5
111
100
AcDbEntity
  8
Layer_1
 62
7
100
AcDbSpline
 70
8
 71
3
 72
8
 73
4
 74
0
 40
0
 40
0
 40
0
 40
0
 40
1
 40
1
 40
1
 40
1
 10
17.034150
 20
37.127440
 30
0.0
 10
17.034150
 20
36.502230
 30
0.0
 10
17.367700
 20
35.924500
 30
0.0
 10
17.909150
 20
35.611890
 30
0.0
  0
SPLINE
  5
112
100
AcDbEntity
  8
Layer_1
 62
7
100
AcDbSpline
 70
8
 71
3
 72
8
 73
4
 74
0
 40
0
 40
0
 40
0
 40
0
 40
1
 40
1
 40
1
 40
1
 10
17.909150
 20
35.611890
 30
0.0
 10
18.450600
 20
35.299290
 30
0.0
 10
19.117700
 20
35.299290
 30
0.0
 10
19.659150
 20
35.611890
 30
0.0
  0
SPLINE
  5
113
100
AcDbEntity
  8
Layer_1
 62
7
100
AcDbSpline
 70
8
 71
3
 72
8
 73
4
 74
0
 40
0
 40
0
 40
0
 40
0
 40
1
 40
1
 40
1
 40
1
 10
19.659150
 20
35.611890
 30
0.0
 10
20.200600
 20
35.924500
 30
0.0
 10
20.534150
 20
36.502230
 30
0.0
 10
20.534150
 20
37.127440
 30
0.0
  0
LINE
  5
114
100
AcDbEntity
  8
Layer_1
 62
7
100
AcDbLine
 10
20.534060
 20
37.127410
 30
0.0
 11
20.534060
 21
37.127410
 31
0.0
  0
SPLINE
  5
115
100
AcDbEntity
  8
Layer_1
 62
7
100
AcDbSpline
 70
8
 71
3
 72
8
 73
4
 74
0
 40
0
 40
0
 40
0
 40
0
 40
1
 40
1
 40
1
 40
1
 10
180.533940
 20
287.127125
 30
0.0
 10
180.533940
 20
287.752336
 30
0.0
 10
180.200390
 20
288.330066
 30
0.0
 10
179.658940
 20
288.642666
 30
0.0
  0
SPLINE
  5
116
100
AcDbEntity
  8
Layer_1
 62
7
100
AcDbSpline
 70
8
 71
3
 72
8
 73
4
 74
0
 40
0
 40
0
 40
0
 40
0
 40
1
 40
1
 40
1
 40
1
 10
179.658940
 20
288.642666
 30
0.0
 10
179.117500
 20
288.955276
 30
0.0
 10
178.450390
 20
288.955276
 30
0.0
 10
177.908930
 20
288.642666
 30
0.0
  0
SPLINE
  5
117
100
AcDbEntity
  8
Layer_1
 62
7
100
AcDbSpline
 70
8
 71
3
 72
8
 73
4
 74
0
 40
0
 40
0
 40
0
 40
0
 40
1
 40
1
 40
1
 40
1
 10
177.908930
 20
288.642666
 30
0.0
 10
177.367490
 20
288.330066
 30
0.0
 10
177.033930
 20
287.752336
 30
0.0
 10
177.033930
 20
287.127125
 30
0.0
  0
SPLINE
  5
118
100
AcDbEntity
  8
Layer_1
 62
7
100
AcDbSpline
 70
8
 71
3
 72
8
 73
4
 74
0
 40
0
 40
0
 40
0
 40
0
 40
1
 40
1
 40
1
 40
1
 10
177.033930
 20
287.127125
 30
0.0
 10
177.033930
 20
286.501905
 30
0.0
 10
177.367490
 20
285.924175
 30
0.0
 10
177.908930
 20
285.611575
 30
0.0
  0
SPLINE
  5
119
100
AcDbEntity
  8
Layer_1
 62
7
100
AcDbSpline
 70
8
 71
3
 72
8
 73
4
 74
0
 40
0
 40
0
 40
0
 40
0
 40
1
 40
1
 40
1
 40
1
 10
177.908930
 20
285.611575
 30
0.0
 10
178.450390
 20
285.298965
 30
0.0
 10
179.117500
 20
285.298965
 30
0.0
 10
179.658940
 20
285.611575
 30
0.0
  0
SPLINE
  5
11a
100
AcDbEntity
  8
Layer_1
 62
7
100
AcDbSpline
 70
8
 71
3
 72
8
 73
4
 74
0
 40
0
 40
0
 40
0
 40
0
 40
1
 40
1
 40
1
 40
1
 10
179.658940
 20
285.611575
 30
0.0
 10
180.200390
 20
285.924175
 30
0.0
 10
180.533940
 20
286.501905
 30
0.0
 10
180.533940
 20
287.127125
 30
0.0
  0
LINE
  5
11b
100
AcDbEntity
  8
Layer_1
 62
7
100
AcDbLine
 10
180.532890
 20
287.127175
 30
0.0
 11
180.532890
 21
287.127175
 31
0.0
  0
LINE
  5
11c
100
AcDbEntity
  8
Layer_1
 62
7
100
AcDbLine
 10
13.912507
 20
293.765526
 30
0.0
 11
183.655580
 21
293.765526
 31
0.0
  0
SPLINE
  5
11d
100
AcDbEntity
  8
Layer_1
 62
7
100
AcDbSpline
 70
8
 71
3
 72
8
 73
4
 74
0
 40
0
 40
0
 40
0
 40
0
 40
1
 40
1
 40
1
 40
1
 10
183.655580
 20
293.765526
 30
0.0
 10
184.763580
 20
293.765526
 30
0.0
 10
185.655580
 20
292.881285
 30
0.0
 10
185.655580
 20
291.782922
 30
0.0
  0
LINE
  5
11e
100
AcDbEntity
  8
Layer_1
 62
7
100
AcDbLine
 10
185.655580
 20
291.782922
 30
0.0
 11
185.655580
 21
32.471640
 31
0.0
  0
SPLINE
  5
11f
100
AcDbEntity
  8
Layer_1
 62
7
100
AcDbSpline
 70
8
 71
3
 72
8
 73
4
 74
0
 40
0
 40
0
 40
0
 40
0
 40
1
 40
1
 40
1
 40
1
 10
185.655580
 20
32.471640
 30
0.0
 10
185.655580
 20
31.373280
 30
0.0
 10
184.763580
 20
30.489040
 30
0.0
 10
183.655580
 20
30.489040
 30
0.0
  0
LINE
  5
120
100
AcDbEntity
  8
Layer_1
 62
7
100
AcDbLine
 10
183.655580
 20
30.489040
 30
0.0
 11
13.912507
 21
30.489040
 31
0.0
  0
SPLINE
  5
121
100
AcDbEntity
  8
Layer_1
 62
7
100
AcDbSpline
 70
8
 71
3
 72
8
 73
4
 74
0
 40
0
 40
0
 40
0
 40
0
 40
1
 40
1
 40
1
 40
1
 10
13.912507
 20
30.489040
 30
0.0
 10
12.804507
 20
30.489040
 30
0.0
 10
11.912507
 20
31.373280
 30
0.0
 10
11.912507
 20
32.471640
 30
0.0
  0
LINE
  5
122
100
AcDbEntity
  8
Layer_1
 62
7
100
AcDbLine
 10
11.912507
 20
32.471640
 30
0.0
 11
11.912507
 21
291.782922
 31
0.0
  0
SPLINE
  5
123
100
AcDbEntity
  8
Layer_1
 62
7
100
AcDbSpline
 70
8
 71
3
 72
8
 73
4
 74
0
 40
0
 40
0
 40
0
 40
0
 40
1
 40
1
 40
1
 40
1
 10
11.912507
 20
291.782922
 30
0.0
 10
11.912507
 20
292.881285
 30
0.0
 10
12.804507
 20
293.765526
 30
0.0
 10
13.912507
 20
293.765526
 30
0.0
  0
LINE
  5
124
100
AcDbEntity
  8
Layer_1
 62
7
100
AcDbLine
 10
13.912507
 20
293.765526
 30
0.0
 11
13.912507
 21
293.765526
 31
0.0
  0
SPLINE
  5
125
100
AcDbEntity
  8
Layer_1
 62
7
100
AcDbSpline
 70
8
 71
3
 72
8
 73
4
 74
0
 40
0
 40
0
 40
0
 40
0
 40
1
 40
1
 40
1
 40
1
 10
47.716960
 20
61.011400
 30
0.0
 10
47.716960
 20
60.587054
 30
0.0
 10
47.548389
 20
60.180087
 30
0.0
 10
47.248331
 20
59.880029
 30
0.0
  0
SPLINE
  5
126
100
AcDbEntity
  8
Layer_1
 62
7
100
AcDbSpline
 70
8
 71
3
 72
8
 73
4
 74
0
 40
0
 40
0
 40
0
 40
0
 40
1
 40
1
 40
1
 40
1
 10
47.248331
 20
59.880029
 30
0.0
 10
46.948273
 20
59.579971
 30
0.0
 10
46.541306
 20
59.411400
 30
0.0
 10
46.116960
 20
59.411400
 30
0.0
  0
SPLINE
  5
127
100
AcDbEntity
  8
Layer_1
 62
7
100
AcDbSpline
 70
8
 71
3
 72
8
 73
4
 74
0
 40
0
 40
0
 40
0
 40
0
 40
1
 40
1
 40
1
 40
1
 10
46.116960
 20
59.411400
 30
0.0
 10
45.692614
 20
59.411400
 30
0.0
 10
45.285647
 20
59.579971
 30
0.0
 10
44.985589
 20
59.880029
 30
0.0
  0
SPLINE
  5
128
100
AcDbEntity
  8
Layer_1
 62
7
100
AcDbSpline
 70
8
 71
3
 72
8
 73
4
 74
0
 40
0
 40
0
 40
0
 40
0
 40
1
 40
1
 40
1
 40
1
 10
44.985589
 20
59.880029
 30
0.0
 10
44.685531
 20
60.180087
 30
0.0
 10
44.516960
 20
60.587054
 30
0.0
 10
44.516960
 20
61.011400
 30
0.0
  0
SPLINE
  5
129
100
AcDbEntity
  8
Layer_1
 62
7
100
AcDbSpline
 70
8
 71
3
 72
8
 73
4
 74
0
 40
0
 40
0
 40
0
 40
0
 40
1
 40
1
 40
1
 40
1
 10
44.516960
 20
61.011400
 30
0.0
 10
44.516960
 20
61.435746
 30
0.0
 10
44.685531
 20
61.842713
 30
0.0
 10
44.985589
 20
62.142771
 30
0.0
  0
SPLINE
  5
12a
100
AcDbEntity
  8
Layer_1
 62
7
100
AcDbSpline
 70
8
 71
3
 72
8
 73
4
 74
0
 40
0
 40
0
 40
0
 40
0
 40
1
 40
1
 40
1
 40
1
 10
44.985589
 20
62.142771
 30
0.0
 10
45.285647
 20
62.442829
 30
0.0
 10
45.692614
 20
62.611400
 30
0.0
 10
46.116960
 20
62.611400
 30
0.0
  0
SPLINE
  5
12b
100
AcDbEntity
  8
Layer_1
 62
7
100
AcDbSpline
 70
8
 71
3
 72
8
 73
4
 74
0
 40
0
 40
0
 40
0
 40
0
 40
1
 40
1
 40
1
 40
1
 10
46.116960
 20
62.611400
 30
0.0
 10
46.541306
 20
62.611400
 30
0.0
 10
46.948273
 20
62.442829
 30
0.0
 10
47.248331
 20
62.142771
 30
0.0
  0
SPLINE
  5
12c
100
AcDbEntity
  8
Layer_1
 62
7
100
AcDbSpline
 70
8
 71
3
 72
8
 73
4
 74
0
 40
0
 40
0
 40
0
 40
0
 40
1
 40
1
 40
1
 40
1
 10
47.248331
 20
62.142771
 30
0.0
 10
47.548389
 20
61.842713
 30
0.0
 10
47.716960
 20
61.435746
 30
0.0
 10
47.716960
 20
61.011400
 30
0.0
  0
LINE
  5
12d
100
AcDbEntity
  8
Layer_1
 62
7
100
AcDbLine
 10
47.716960
 20
61.011400
 30
0.0
 11
47.716960
 21
61.011400
 31
0.0
  0
SPLINE
  5
12e
100
AcDbEntity
  8
Layer_1
 62
7
100
AcDbSpline
 70
8
 71
3
 72
8
 73
4
 74
0
 40
0
 40
0
 40
0
 40
0
 40
1
 40
1
 40
1
 40
1
 10
85.132610
 20
61.011400
 30
0.0
 10
85.132610
 20
60.587054
 30
0.0
 10
84.964039
 20
60.180087
 30
0.0
 10
84.663981
 20
59.880029
 30
0.0
  0
SPLINE
  5
12f
100
AcDbEntity
  8
Layer_1
 62
7
100
AcDbSpline
 70
8
 71
3
 72
8
 73
4
 74
0
 40
0
 40
0
 40
0
 40
0
 40
1
 40
1
 40
1
 40
1
 10
84.663981
 20
59.880029
 30
0.0
 10
84.363923
 20
59.579971
 30
0.0
 10
83.956956
 20
59.411400
 30
0.0
 10
83.532610
 20
59.411400
 30
0.0
  0
SPLINE
  5
130
100
AcDbEntity
  8
Layer_1
 62
7
100
AcDbSpline
 70
8
 71
3
 72
8
 73
4
 74
0
 40
0
 40
0
 40
0
 40
0
 40
1
 40
1
 40
1
 40
1
 10
83.532610
 20
59.411400
 30
0.0
 10
83.108264
 20
59.411400
 30
0.0
 10
82.701297
 20
59.579971
 30
0.0
 10
82.401239
 20
59.880029
 30
0.0
  0
SPLINE
  5
131
100
AcDbEntity
  8
Layer_1
 62
7
100
AcDbSpline
 70
8
 71
3
 72
8
 73
4
 74
0
 40
0
 40
0
 40
0
 40
0
 40
1
 40
1
 40
1
 40
1
 10
82.401239
 20
59.880029
 30
0.0
 10
82.101181
 20
60.180087
 30
0.0
 10
81.932610
 20
60.587054
 30
0.0
 10
81.932610
 20
61.011400
 30
0.0
  0
SPLINE
  5
132
100
AcDbEntity
  8
Layer_1
 62
7
100
AcDbSpline
 70
8
 71
3
 72
8
 73
4
 74
0
 40
0
 40
0
 40
0
 40
0
 40
1
 40
1
 40
1
 40
1
 10
81.932610
 20
61.011400
 30
0.0
 10
81.932610
 20
61.435746
 30
0.0
 10
82.101181
 20
61.842713
 30
0.0
 10
82.401239
 20
62.142771
 30
0.0
  0
SPLINE
  5
133
100
AcDbEntity
  8
Layer_1
 62
7
100
AcDbSpline
 70
8
 71
3
 72
8
 73
4
 74
0
 40
0
 40
0
 40
0
 40
0
 40
1
 40
1
 40
1
 40
1
 10
82.401239
 20
62.142771
 30
0.0
 10
82.701297
 20
62.442829
 30
0.0
 10
83.108264
 20
62.611400
 30
0.0
 10
83.532610
 20
62.611400
 30
0.0
  0
SPLINE
  5
134
100
AcDbEntity
  8
Layer_1
 62
7
100
AcDbSpline
 70
8
 71
3
 72
8
 73
4
 74
0
 40
0
 40
0
 40
0
 40
0
 40
1
 40
1
 40
1
 40
1
 10
83.532610
 20
62.611400
 30
0.0
 10
83.956956
 20
62.611400
 30
0.0
 10
84.363923
 20
62.442829
 30
0.0
 10
84.663981
 20
62.142771
 30
0.0
  0
SPLINE
  5
135
100
AcDbEntity
  8
Layer_1
 62
7
100
AcDbSpline
 70
8
 71
3
 72
8
 73
4
 74
0
 40
0
 40
0
 40
0
 40
0
 40
1
 40
1
 40
1
 40
1
 10
84.663981
 20
62.142771
 30
0.0
 10
84.964039
 20
61.842713
 30
0.0
 10
85.132610
 20
61.435746
 30
0.0
 10
85.132610
 20
61.011400
 30
0.0
  0
LINE
  5
136
100
AcDbEntity
  8
Layer_1
 62
7
100
AcDbLine
 10
85.132610
 20
61.011400
 30
0.0
 11
85.132610
 21
61.011400
 31
0.0
  0
SPLINE
  5
137
100
AcDbEntity
  8
Layer_1
 62
7
100
AcDbSpline
 70
8
 71
3
 72
8
 73
4
 74
0
 40
0
 40
0
 40
0
 40
0
 40
1
 40
1
 40
1
 40
1
 10
47.716960
 20
94.059390
 30
0.0
 10
47.716960
 20
93.635044
 30
0.0
 10
47.548389
 20
93.228077
 30
0.0
 10
47.248331
 20
92.928019
 30
0.0
  0
SPLINE
  5
138
100
AcDbEntity
  8
Layer_1
 62
7
100
AcDbSpline
 70
8
 71
3
 72
8
 73
4
 74
0
 40
0
 40
0
 40
0
 40
0
 40
1
 40
1
 40
1
 40
1
 10
47.248331
 20
92.928019
 30
0.0
 10
46.948273
 20
92.627961
 30
0.0
 10
46.541306
 20
92.459390
 30
0.0
 10
46.116960
 20
92.459390
 30
0.0
  0
SPLINE
  5
139
100
AcDbEntity
  8
Layer_1
 62
7
100
AcDbSpline
 70
8
 71
3
 72
8
 73
4
 74
0
 40
0
 40
0
 40
0
 40
0
 40
1
 40
1
 40
1
 40
1
 10
46.116960
 20
92.459390
 30
0.0
 10
45.692614
 20
92.459390
 30
0.0
 10
45.285647
 20
92.627961
 30
0.0
 10
44.985589
 20
92.928019
 30
0.0
  0
SPLINE
  5
13a
100
AcDbEntity
  8
Layer_1
 62
7
100
AcDbSpline
 70
8
 71
3
 72
8
 73
4
 74
0
 40
0
 40
0
 40
0
 40
0
 40
1
 40
1
 40
1
 40
1
 10
44.985589
 20
92.928019
 30
0.0
 10
44.685531
 20
93.228077
 30
0.0
 10
44.516960
 20
93.635044
 30
0.0
 10
44.516960
 20
94.059390
 30
0.0
  0
SPLINE
  5
13b
100
AcDbEntity
  8
Layer_1
 62
7
100
AcDbSpline
 70
8
 71
3
 72
8
 73
4
 74
0
 40
0
 40
0
 40
0
 40
0
 40
1
 40
1
 40
1
 40
1
 10
44.516960
 20
94.059390
 30
0.0
 10
44.516960
 20
94.483736
 30
0.0
 10
44.685531
 20
94.890703
 30
0.0
 10
44.985589
 20
95.190761
 30
0.0
  0
SPLINE
  5
13c
100
AcDbEntity
  8
Layer_1
 62
7
100
AcDbSpline
 70
8
 71
3
 72
8
 73
4
 74
0
 40
0
 40
0
 40
0
 40
0
 40
1
 40
1
 40
1
 40
1
 10
44.985589
 20
95.190761
 30
0.0
 10
45.285647
 20
95.490819
 30
0.0
 10
45.692614
 20
95.659390
 30
0.0
 10
46.116960
 20
95.659390
 30
0.0
  0
SPLINE
  5
13d
100
AcDbEntity
  8
Layer_1
 62
7
100
AcDbSpline
 70
8
 71
3
 72
8
 73
4
 74
0
 40
0
 40
0
 40
0
 40
0
 40
1
 40
1
 40
1
 40
1
 10
46.116960
 20
95.659390
 30
0.0
 10
46.541306
 20
95.659390
 30
0.0
 10
46.948273
 20
95.490819
 30
0.0
 10
47.248331
 20
95.190761
 30
0.0
  0
SPLINE
  5
13e
100
AcDbEntity
  8
Layer_1
 62
7
100
AcDbSpline
 70
8
 71
3
 72
8
 73
4
 74
0
 40
0
 40
0
 40
0
 40
0
 40
1
 40
1
 40
1
 40
1
 10
47.248331
 20
95.190761
 30
0.0
 10
47.548389
 20
94.890703
 30
0.0
 10
47.716960
 20
94.483736
 30
0.0
 10
47.716960
 20
94.059390
 30
0.0
  0
LINE
  5
13f
100
AcDbEntity
  8
Layer_1
 62
7
100
AcDbLine
 10
47.716960
 20
94.059390
 30
0.0
 11
47.716960
 21
94.059390
 31
0.0
  0
SPLINE
  5
140
100
AcDbEntity
  8
Layer_1
 62
7
100
AcDbSpline
 70
8
 71
3
 72
8
 73
4
 74
0
 40
0
 40
0
 40
0
 40
0
 40
1
 40
1
 40
1
 40
1
 10
85.132610
 20
94.059390
 30
0.0
 10
85.132610
 20
93.635044
 30
0.0
 10
84.964039
 20
93.228077
 30
0.0
 10
84.663981
 20
92.928019
 30
0.0
  0
SPLINE
  5
141
100
AcDbEntity
  8
Layer_1
 62
7
100
AcDbSpline
 70
8
 71
3
 72
8
 73
4
 74
0
 40
0
 40
0
 40
0
 40
0
 40
1
 40
1
 40
1
 40
1
 10
84.663981
 20
92.928019
 30
0.0
 10
84.363923
 20
92.627961
 30
0.0
 10
83.956956
 20
92.459390
 30
0.0
 10
83.532610
 20
92.459390
 30
0.0
  0
SPLINE
  5
142
100
AcDbEntity
  8
Layer_1
 62
7
100
AcDbSpline
 70
8
 71
3
 72
8
 73
4
 74
0
 40
0
 40
0
 40
0
 40
0
 40
1
 40
1
 40
1
 40
1
 10
83.532610
 20
92.459390
 30
0.0
 10
83.108264
 20
92.459390
 30
0.0
 10
82.701297
 20
92.627961
 30
0.0
 10
82.401239
 20
92.928019
 30
0.0
  0
SPLINE
  5
143
100
AcDbEntity
  8
Layer_1
 62
7
100
AcDbSpline
 70
8
 71
3
 72
8
 73
4
 74
0
 40
0
 40
0
 40
0
 40
0
 40
1
 40
1
 40
1
 40
1
 10
82.401239
 20
92.928019
 30
0.0
 10
82.101181
 20
93.228077
 30
0.0
 10
81.932610
 20
93.635044
 30
0.0
 10
81.932610
 20
94.059390
 30
0.0
  0
SPLINE
  5
144
100
AcDbEntity
  8
Layer_1
 62
7
100
AcDbSpline
 70
8
 71
3
 72
8
 73
4
 74
0
 40
0
 40
0
 40
0
 40
0
 40
1
 40
1
 40
1
 40
1
 10
81.932610
 20
94.059390
 30
0.0
 10
81.932610
 20
94.483736
 30
0.0
 10
82.101181
 20
94.890703
 30
0.0
 10
82.401239
 20
95.190761
 30
0.0
  0
SPLINE
  5
145
100
AcDbEntity
  8
Layer_1
 62
7
100
AcDbSpline
 70
8
 71
3
 72
8
 73
4
 74
0
 40
0
 40
0
 40
0
 40
0
 40
1
 40
1
 40
1
 40
1
 10
82.401239
 20
95.190761
 30
0.0
 10
82.701297
 20
95.490819
 30
0.0
 10
83.108264
 20
95.659390
 30
0.0
 10
83.532610
 20
95.659390
 30
0.0
  0
SPLINE
  5
146
100
AcDbEntity
  8
Layer_1
 62
7
100
AcDbSpline
 70
8
 71
3
 72
8
 73
4
 74
0
 40
0
 40
0
 40
0
 40
0
 40
1
 40
1
 40
1
 40
1
 10
83.532610
 20
95.659390
 30
0.0
 10
83.956956
 20
95.659390
 30
0.0
 10
84.363923
 20
95.490819
 30
0.0
 10
84.663981
 20
95.190761
 30
0.0
  0
SPLINE
  5
147
100
AcDbEntity
  8
Layer_1
 62
7
100
AcDbSpline
 70
8
 71
3
 72
8
 73
4
 74
0
 40
0
 40
0
 40
0
 40
0
 40
1
 40
1
 40
1
 40
1
 10
84.663981
 20
95.190761
 30
0.0
 10
84.964039
 20
94.890703
 30
0.0
 10
85.132610
 20
94.483736
 30
0.0
 10
85.132610
 20
94.059390
 30
0.0
  0
LINE
  5
148
100
AcDbEntity
  8
Layer_1
 62
7
100
AcDbLine
 10
85.132610
 20
94.059390
 30
0.0
 11
85.132610
 21
94.059390
 31
0.0
  0
LINE
  5
149
100
AcDbEntity
  8
Layer_1
 62
7
100
AcDbLine
 10
47.115430
 20
88.272310
 30
0.0
 11
82.519150
 21
88.272310
 31
0.0
  0
LINE
  5
14a
100
AcDbEntity
  8
Layer_1
 62
7
100
AcDbLine
 10
82.519150
 20
88.272310
 30
0.0
 11
82.519150
 21
70.450400
 31
0.0
  0
LINE
  5
14b
100
AcDbEntity
  8
Layer_1
 62
7
100
AcDbLine
 10
82.519150
 20
70.450400
 30
0.0
 11
47.115430
 21
70.450400
 31
0.0
  0
LINE
  5
14c
100
AcDbEntity
  8
Layer_1
 62
7
100
AcDbLine
 10
47.115430
 20
70.450400
 30
0.0
 11
47.115430
 21
88.272310
 31
0.0
  0
SPLINE
  5
14d
100
AcDbEntity
  8
Layer_1
 62
7
100
AcDbSpline
 70
8
 71
3
 72
8
 73
4
 74
0
 40
0
 40
0
 40
0
 40
0
 40
1
 40
1
 40
1
 40
1
 10
115.635480
 20
61.011400
 30
0.0
 10
115.635480
 20
60.587054
 30
0.0
 10
115.466909
 20
60.180087
 30
0.0
 10
115.166851
 20
59.880029
 30
0.0
  0
SPLINE
  5
14e
100
AcDbEntity
  8
Layer_1
 62
7
100
AcDbSpline
 70
8
 71
3
 72
8
 73
4
 74
0
 40
0
 40
0
 40
0
 40
0
 40
1
 40
1
 40
1
 40
1
 10
115.166851
 20
59.880029
 30
0.0
 10
114.866793
 20
59.579971
 30
0.0
 10
114.459826
 20
59.411400
 30
0.0
 10
114.035480
 20
59.411400
 30
0.0
  0
SPLINE
  5
14f
100
AcDbEntity
  8
Layer_1
 62
7
100
AcDbSpline
 70
8
 71
3
 72
8
 73
4
 74
0
 40
0
 40
0
 40
0
 40
0
 40
1
 40
1
 40
1
 40
1
 10
114.035480
 20
59.411400
 30
0.0
 10
113.611134
 20
59.411400
 30
0.0
 10
113.204167
 20
59.579971
 30
0.0
 10
112.904109
 20
59.880029
 30
0.0
  0
SPLINE
  5
150
100
AcDbEntity
  8
Layer_1
 62
7
100
AcDbSpline
 70
8
 71
3
 72
8
 73
4
 74
0
 40
0
 40
0
 40
0
 40
0
 40
1
 40
1
 40
1
 40
1
 10
112.904109
 20
59.880029
 30
0.0
 10
112.604051
 20
60.180087
 30
0.0
 10
112.435480
 20
60.587054
 30
0.0
 10
112.435480
 20
61.011400
 30
0.0
  0
SPLINE
  5
151
100
AcDbEntity
  8
Layer_1
 62
7
100
AcDbSpline
 70
8
 71
3
 72
8
 73
4
 74
0
 40
0
 40
0
 40
0
 40
0
 40
1
 40
1
 40
1
 40
1
 10
112.435480
 20
61.011400
 30
0.0
 10
112.435480
 20
61.435746
 30
0.0
 10
112.604051
 20
61.842713
 30
0.0
 10
112.904109
 20
62.142771
 30
0.0
  0
SPLINE
  5
152
100
AcDbEntity
  8
Layer_1
 62
7
100
AcDbSpline
 70
8
 71
3
 72
8
 73
4
 74
0
 40
0
 40
0
 40
0
 40
0
 40
1
 40
1
 40
1
 40
1
 10
112.904109
 20
62.142771
 30
0.0
 10
113.204167
 20
62.442829
 30
0.0
 10
113.611134
 20
62.611400
 30
0.0
 10
114.035480
 20
62.611400
 30
0.0
  0
SPLINE
  5
153
100
AcDbEntity
  8
Layer_1
 62
7
100
AcDbSpline
 70
8
 71
3
 72
8
 73
4
 74
0
 40
0
 40
0
 40
0
 40
0
 40
1
 40
1
 40
1
 40
1
 10
114.035480
 20
62.611400
 30
0.0
 10
114.459826
 20
62.611400
 30
0.0
 10
114.866793
 20
62.442829
 30
0.0
 10
115.166851
 20
62.142771
 30
0.0
  0
SPLINE
  5
154
100
AcDbEntity
  8
Layer_1
 62
7
100
AcDbSpline
 70
8
 71
3
 72
8
 73
4
 74
0
 40
0
 40
0
 40
0
 40
0
 40
1
 40
1
 40
1
 40
1
 10
115.166851
 20
62.142771
 30
0.0
 10
115.466909
 20
61.842713
 30
0.0
 10
115.635480
 20
61.435746
 30
0.0
 10
115.635480
 20
61.011400
 30
0.0
  0
LINE
  5
155
100
AcDbEntity
  8
Layer_1
 62
7
100
AcDbLine
 10
115.635480
 20
61.011400
 30
0.0
 11
115.635480
 21
61.011400
 31
0.0
  0
SPLINE
  5
156
100
AcDbEntity
  8
Layer_1
 62
7
100
AcDbSpline
 70
8
 71
3
 72
8
 73
4
 74
0
 40
0
 40
0
 40
0
 40
0
 40
1
 40
1
 40
1
 40
1
 10
153.051130
 20
61.011400
 30
0.0
 10
153.051130
 20
60.587054
 30
0.0
 10
152.882559
 20
60.180087
 30
0.0
 10
152.582501
 20
59.880029
 30
0.0
  0
SPLINE
  5
157
100
AcDbEntity
  8
Layer_1
 62
7
100
AcDbSpline
 70
8
 71
3
 72
8
 73
4
 74
0
 40
0
 40
0
 40
0
 40
0
 40
1
 40
1
 40
1
 40
1
 10
152.582501
 20
59.880029
 30
0.0
 10
152.282443
 20
59.579971
 30
0.0
 10
151.875476
 20
59.411400
 30
0.0
 10
151.451130
 20
59.411400
 30
0.0
  0
SPLINE
  5
158
100
AcDbEntity
  8
Layer_1
 62
7
100
AcDbSpline
 70
8
 71
3
 72
8
 73
4
 74
0
 40
0
 40
0
 40
0
 40
0
 40
1
 40
1
 40
1
 40
1
 10
151.451130
 20
59.411400
 30
0.0
 10
151.026784
 20
59.411400
 30
0.0
 10
150.619817
 20
59.579971
 30
0.0
 10
150.319759
 20
59.880029
 30
0.0
  0
SPLINE
  5
159
100
AcDbEntity
  8
Layer_1
 62
7
100
AcDbSpline
 70
8
 71
3
 72
8
 73
4
 74
0
 40
0
 40
0
 40
0
 40
0
 40
1
 40
1
 40
1
 40
1
 10
150.319759
 20
59.880029
 30
0.0
 10
150.019701
 20
60.180087
 30
0.0
 10
149.851130
 20
60.587054
 30
0.0
 10
149.851130
 20
61.011400
 30
0.0
  0
SPLINE
  5
15a
100
AcDbEntity
  8
Layer_1
 62
7
100
AcDbSpline
 70
8
 71
3
 72
8
 73
4
 74
0
 40
0
 40
0
 40
0
 40
0
 40
1
 40
1
 40
1
 40
1
 10
149.851130
 20
61.011400
 30
0.0
 10
149.851130
 20
61.435746
 30
0.0
 10
150.019701
 20
61.842713
 30
0.0
 10
150.319759
 20
62.142771
 30
0.0
  0
SPLINE
  5
15b
100
AcDbEntity
  8
Layer_1
 62
7
100
AcDbSpline
 70
8
 71
3
 72
8
 73
4
 74
0
 40
0
 40
0
 40
0
 40
0
 40
1
 40
1
 40
1
 40
1
 10
150.319759
 20
62.142771
 30
0.0
 10
150.619817
 20
62.442829
 30
0.0
 10
151.026784
 20
62.611400
 30
0.0
 10
151.451130
 20
62.611400
 30
0.0
  0
SPLINE
  5
15c
100
AcDbEntity
  8
Layer_1
 62
7
100
AcDbSpline
 70
8
 71
3
 72
8
 73
4
 74
0
 40
0
 40
0
 40
0
 40
0
 40
1
 40
1
 40
1
 40
1
 10
151.451130
 20
62.611400
 30
0.0
 10
151.875476
 20
62.611400
 30
0.0
 10
152.282443
 20
62.442829
 30
0.0
 10
152.582501
 20
62.142771
 30
0.0
  0
SPLINE
  5
15d
100
AcDbEntity
  8
Layer_1
 62
7
100
AcDbSpline
 70
8
 71
3
 72
8
 73
4
 74
0
 40
0
 40
0
 40
0
 40
0
 40
1
 40
1
 40
1
 40
1
 10
152.582501
 20
62.142771
 30
0.0
 10
152.882559
 20
61.842713
 30
0.0
 10
153.051130
 20
61.435746
 30
0.0
 10
153.051130
 20
61.011400
 30
0.0
  0
LINE
  5
15e
100
AcDbEntity
  8
Layer_1
 62
7
100
AcDbLine
 10
153.051130
 20
61.011400
 30
0.0
 11
153.051130
 21
61.011400
 31
0.0
  0
SPLINE
  5
15f
100
AcDbEntity
  8
Layer_1
 62
7
100
AcDbSpline
 70
8
 71
3
 72
8
 73
4
 74
0
 40
0
 40
0
 40
0
 40
0
 40
1
 40
1
 40
1
 40
1
 10
115.635480
 20
94.059390
 30
0.0
 10
115.635480
 20
93.635044
 30
0.0
 10
115.466909
 20
93.228077
 30
0.0
 10
115.166851
 20
92.928019
 30
0.0
  0
SPLINE
  5
160
100
AcDbEntity
  8
Layer_1
 62
7
100
AcDbSpline
 70
8
 71
3
 72
8
 73
4
 74
0
 40
0
 40
0
 40
0
 40
0
 40
1
 40
1
 40
1
 40
1
 10
115.166851
 20
92.928019
 30
0.0
 10
114.866793
 20
92.627961
 30
0.0
 10
114.459826
 20
92.459390
 30
0.0
 10
114.035480
 20
92.459390
 30
0.0
  0
SPLINE
  5
161
100
AcDbEntity
  8
Layer_1
 62
7
100
AcDbSpline
 70
8
 71
3
 72
8
 73
4
 74
0
 40
0
 40
0
 40
0
 40
0
 40
1
 40
1
 40
1
 40
1
 10
114.035480
 20
92.459390
 30
0.0
 10
113.611134
 20
92.459390
 30
0.0
 10
113.204167
 20
92.627961
 30
0.0
 10
112.904109
 20
92.928019
 30
0.0
  0
SPLINE
  5
162
100
AcDbEntity
  8
Layer_1
 62
7
100
AcDbSpline
 70
8
 71
3
 72
8
 73
4
 74
0
 40
0
 40
0
 40
0
 40
0
 40
1
 40
1
 40
1
 40
1
 10
112.904109
 20
92.928019
 30
0.0
 10
112.604051
 20
93.228077
 30
0.0
 10
112.435480
 20
93.635044
 30
0.0
 10
112.435480
 20
94.059390
 30
0.0
  0
SPLINE
  5
163
100
AcDbEntity
  8
Layer_1
 62
7
100
AcDbSpline
 70
8
 71
3
 72
8
 73
4
 74
0
 40
0
 40
0
 40
0
 40
0
 40
1
 40
1
 40
1
 40
1
 10
112.435480
 20
94.059390
 30
0.0
 10
112.435480
 20
94.483736
 30
0.0
 10
112.604051
 20
94.890703
 30
0.0
 10
112.904109
 20
95.190761
 30
0.0
  0
SPLINE
  5
164
100
AcDbEntity
  8
Layer_1
 62
7
100
AcDbSpline
 70
8
 71
3
 72
8
 73
4
 74
0
 40
0
 40
0
 40
0
 40
0
 40
1
 40
1
 40
1
 40
1
 10
112.904109
 20
95.190761
 30
0.0
 10
113.204167
 20
95.490819
 30
0.0
 10
113.611134
 20
95.659390
 30
0.0
 10
114.035480
 20
95.659390
 30
0.0
  0
SPLINE
  5
165
100
AcDbEntity
  8
Layer_1
 62
7
100
AcDbSpline
 70
8
 71
3
 72
8
 73
4
 74
0
 40
0
 40
0
 40
0
 40
0
 40
1
 40
1
 40
1
 40
1
 10
114.035480
 20
95.659390
 30
0.0
 10
114.459826
 20
95.659390
 30
0.0
 10
114.866793
 20
95.490819
 30
0.0
 10
115.166851
 20
95.190761
 30
0.0
  0
SPLINE
  5
166
100
AcDbEntity
  8
Layer_1
 62
7
100
AcDbSpline
 70
8
 71
3
 72
8
 73
4
 74
0
 40
0
 40
0
 40
0
 40
0
 40
1
 40
1
 40
1
 40
1
 10
115.166851
 20
95.190761
 30
0.0
 10
115.466909
 20
94.890703
 30
0.0
 10
115.635480
 20
94.483736
 30
0.0
 10
115.635480
 20
94.059390
 30
0.0
  0
LINE
  5
167
100
AcDbEntity
  8
Layer_1
 62
7
100
AcDbLine
 10
115.635480
 20
94.059390
 30
0.0
 11
115.635480
 21
94.059390
 31
0.0
  0
SPLINE
  5
168
100
AcDbEntity
  8
Layer_1
 62
7
100
AcDbSpline
 70
8
 71
3
 72
8
 73
4
 74
0
 40
0
 40
0
 40
0
 40
0
 40
1
 40
1
 40
1
 40
1
 10
153.051130
 20
94.059390
 30
0.0
 10
153.051130
 20
93.635044
 30
0.0
 10
152.882559
 20
93.228077
 30
0.0
 10
152.582501
 20
92.928019
 30
0.0
  0
SPLINE
  5
169
100
AcDbEntity
  8
Layer_1
 62
7
100
AcDbSpline
 70
8
 71
3
 72
8
 73
4
 74
0
 40
0
 40
0
 40
0
 40
0
 40
1
 40
1
 40
1
 40
1
 10
152.582501
 20
92.928019
 30
0.0
 10
152.282443
 20
92.627961
 30
0.0
 10
151.875476
 20
92.459390
 30
0.0
 10
151.451130
 20
92.459390
 30
0.0
  0
SPLINE
  5
16a
100
AcDbEntity
  8
Layer_1
 62
7
100
AcDbSpline
 70
8
 71
3
 72
8
 73
4
 74
0
 40
0
 40
0
 40
0
 40
0
 40
1
 40
1
 40
1
 40
1
 10
151.451130
 20
92.459390
 30
0.0
 10
151.026784
 20
92.459390
 30
0.0
 10
150.619817
 20
92.627961
 30
0.0
 10
150.319759
 20
92.928019
 30
0.0
  0
SPLINE
  5
16b
100
AcDbEntity
  8
Layer_1
 62
7
100
AcDbSpline
 70
8
 71
3
 72
8
 73
4
 74
0
 40
0
 40
0
 40
0
 40
0
 40
1
 40
1
 40
1
 40
1
 10
150.319759
 20
92.928019
 30
0.0
 10
150.019701
 20
93.228077
 30
0.0
 10
149.851130
 20
93.635044
 30
0.0
 10
149.851130
 20
94.059390
 30
0.0
  0
SPLINE
  5
16c
100
AcDbEntity
  8
Layer_1
 62
7
100
AcDbSpline
 70
8
 71
3
 72
8
 73
4
 74
0
 40
0
 40
0
 40
0
 40
0
 40
1
 40
1
 40
1
 40
1
 10
149.851130
 20
94.059390
 30
0.0
 10
149.851130
 20
94.483736
 30
0.0
 10
150.019701
 20
94.890703
 30
0.0
 10
150.319759
 20
95.190761
 30
0.0
  0
SPLINE
  5
16d
100
AcDbEntity
  8
Layer_1
 62
7
100
AcDbSpline
 70
8
 71
3
 72
8
 73
4
 74
0
 40
0
 40
0
 40
0
 40
0
 40
1
 40
1
 40
1
 40
1
 10
150.319759
 20
95.190761
 30
0.0
 10
150.619817
 20
95.490819
 30
0.0
 10
151.026784
 20
95.659390
 30
0.0
 10
151.451130
 20
95.659390
 30
0.0
  0
SPLINE
  5
16e
100
AcDbEntity
  8
Layer_1
 62
7
100
AcDbSpline
 70
8
 71
3
 72
8
 73
4
 74
0
 40
0
 40
0
 40
0
 40
0
 40
1
 40
1
 40
1
 40
1
 10
151.451130
 20
95.659390
 30
0.0
 10
151.875476
 20
95.659390
 30
0.0
 10
152.282443
 20
95.490819
 30
0.0
 10
152.582501
 20
95.190761
 30
0.0
  0
SPLINE
  5
16f
100
AcDbEntity
  8
Layer_1
 62
7
100
AcDbSpline
 70
8
 71
3
 72
8
 73
4
 74
0
 40
0
 40
0
 40
0
 40
0
 40
1
 40
1
 40
1
 40
1
 10
152.582501
 20
95.190761
 30
0.0
 10
152.882559
 20
94.890703
 30
0.0
 10
153.051130
 20
94.483736
 30
0.0
 10
153.051130
 20
94.059390
 30
0.0
  0
LINE
  5
170
100
AcDbEntity
  8
Layer_1
 62
7
100
AcDbLine
 10
153.051130
 20
94.059390
 30
0.0
 11
153.051130
 21
94.059390
 31
0.0
  0
LINE
  5
171
100
AcDbEntity
  8
Layer_1
 62
7
100
AcDbLine
 10
115.033950
 20
88.272310
 30
0.0
 11
150.437670
 21
88.272310
 31
0.0
  0
LINE
  5
172
100
AcDbEntity
  8
Layer_1
 62
7
100
AcDbLine
 10
150.437670
 20
88.272310
 30
0.0
 11
150.437670
 21
70.450400
 31
0.0
  0
LINE
  5
173
100
AcDbEntity
  8
Layer_1
 62
7
100
AcDbLine
 10
150.437670
 20
70.450400
 30
0.0
 11
115.033950
 21
70.450400
 31
0.0
  0
LINE
  5
174
100
AcDbEntity
  8
Layer_1
 62
7
100
AcDbLine
 10
115.033950
 20
70.450400
 30
0.0
 11
115.033950
 21
88.272310
 31
0.0
  0
SPLINE
  5
175
100
AcDbEntity
  8
Layer_1
 62
7
100
AcDbSpline
 70
8
 71
3
 72
8
 73
4
 74
0
 40
0
 40
0
 40
0
 40
0
 40
1
 40
1
 40
1
 40
1
 10
153.151140
 20
126.922670
 30
0.0
 10
153.151140
 20
126.113760
 30
0.0
 10
152.829802
 20
125.337980
 30
0.0
 10
152.257816
 20
124.765994
 30
0.0
  0
SPLINE
  5
176
100
AcDbEntity
  8
Layer_1
 62
7
100
AcDbSpline
 70
8
 71
3
 72
8
 73
4
 74
0
 40
0
 40
0
 40
0
 40
0
 40
1
 40
1
 40
1
 40
1
 10
152.257816
 20
124.765994
 30
0.0
 10
151.685830
 20
124.194008
 30
0.0
 10
150.910050
 20
123.872670
 30
0.0
 10
150.101140
 20
123.872670
 30
0.0
  0
SPLINE
  5
177
100
AcDbEntity
  8
Layer_1
 62
7
100
AcDbSpline
 70
8
 71
3
 72
8
 73
4
 74
0
 40
0
 40
0
 40
0
 40
0
 40
1
 40
1
 40
1
 40
1
 10
150.101140
 20
123.872670
 30
0.0
 10
149.292230
 20
123.872670
 30
0.0
 10
148.516450
 20
124.194008
 30
0.0
 10
147.944464
 20
124.765994
 30
0.0
  0
SPLINE
  5
178
100
AcDbEntity
  8
Layer_1
 62
7
100
AcDbSpline
 70
8
 71
3
 72
8
 73
4
 74
0
 40
0
 40
0
 40
0
 40
0
 40
1
 40
1
 40
1
 40
1
 10
147.944464
 20
124.765994
 30
0.0
 10
147.372478
 20
125.337980
 30
0.0
 10
147.051140
 20
126.113760
 30
0.0
 10
147.051140
 20
126.922670
 30
0.0
  0
SPLINE
  5
179
100
AcDbEntity
  8
Layer_1
 62
7
100
AcDbSpline
 70
8
 71
3
 72
8
 73
4
 74
0
 40
0
 40
0
 40
0
 40
0
 40
1
 40
1
 40
1
 40
1
 10
147.051140
 20
126.922670
 30
0.0
 10
147.051140
 20
127.731580
 30
0.0
 10
147.372478
 20
128.507360
 30
0.0
 10
147.944464
 20
129.079346
 30
0.0
  0
SPLINE
  5
17a
100
AcDbEntity
  8
Layer_1
 62
7
100
AcDbSpline
 70
8
 71
3
 72
8
 73
4
 74
0
 40
0
 40
0
 40
0
 40
0
 40
1
 40
1
 40
1
 40
1
 10
147.944464
 20
129.079346
 30
0.0
 10
148.516450
 20
129.651332
 30
0.0
 10
149.292230
 20
129.972670
 30
0.0
 10
150.101140
 20
129.972670
 30
0.0
  0
SPLINE
  5
17b
100
AcDbEntity
  8
Layer_1
 62
7
100
AcDbSpline
 70
8
 71
3
 72
8
 73
4
 74
0
 40
0
 40
0
 40
0
 40
0
 40
1
 40
1
 40
1
 40
1
 10
150.101140
 20
129.972670
 30
0.0
 10
150.910050
 20
129.972670
 30
0.0
 10
151.685830
 20
129.651332
 30
0.0
 10
152.257816
 20
129.079346
 30
0.0
  0
SPLINE
  5
17c
100
AcDbEntity
  8
Layer_1
 62
7
100
AcDbSpline
 70
8
 71
3
 72
8
 73
4
 74
0
 40
0
 40
0
 40
0
 40
0
 40
1
 40
1
 40
1
 40
1
 10
152.257816
 20
129.079346
 30
0.0
 10
152.829802
 20
128.507360
 30
0.0
 10
153.151140
 20
127.731580
 30
0.0
 10
153.151140
 20
126.922670
 30
0.0
  0
LINE
  5
17d
100
AcDbEntity
  8
Layer_1
 62
7
100
AcDbLine
 10
153.151140
 20
126.922670
 30
0.0
 11
153.151140
 21
126.922670
 31
0.0
  0
ENDSEC
  0
SECTION
  2
OBJECTS
  0
DICTIONARY
  5
C
330
0
100
AcDbDictionary
  3
ACAD_GROUP
350
D
  3
ACAD_MLINESTYLE
350
17
  0
DICTIONARY
  5
D
330
C
100
AcDbDictionary
  0
DICTIONARY
  5
1A
330
C
100
AcDbDictionary
  0
DICTIONARY
  5
17
330
C
100
AcDbDictionary
  3
STANDARD
350
18
  0
DICTIONARY
  5
19
330
C
100
AcDbDictionary
  0
ENDSEC
  0
EOF
