0
SECTION
2
HEADER
9
$INSUNITS
70
4
9
$ACADVER
1
AC1014
9
$HANDSEED
5
FFFF
0
ENDSEC
0
SECTION
2
TABLES
0
TABLE
2
VPORT
5
8
100
AcDbSymbolTable
0
ENDTAB
0
TABLE
2
LTYPE
5
5
100
AcDbSymbolTable
0
LTYPE
5
14
100
AcDbSymbolTableRecord
100
AcDbLinetypeTableRecord
2
BYBLOCK
70
0
0
LTYPE
5
15
100
AcDbSymbolTableRecord
100
AcDbLinetypeTableRecord
2
BYLAYER
70
0
0
ENDTAB
0
TABLE
2
LAYER
5
2
100
AcDbSymbolTable
70
2
0
LAYER
5
50
100
AcDbSymbolTableRecord
100
AcDbLayerTableRecord
2
0
70
0
6
CONTINUOUS
0
ENDTAB
0
TABLE
2
STYLE
5
3
100
AcDbSymbolTable
70
1
0
STYLE
5
11
100
AcDbSymbolTableRecord
100
AcDbTextStyleTableRecord
2
STANDARD
70
0
0
ENDTAB
0
TABLE
2
VIEW
5
6
100
AcDbSymbolTable
70
0
0
ENDTAB
0
TABLE
2
UCS
5
7
100
AcDbSymbolTable
70
0
0
ENDTAB
0
TABLE
2
APPID
5
9
100
AcDbSymbolTable
70
2
0
APPID
5
12
100
AcDbSymbolTableRecord
100
AcDbRegAppTableRecord
2
ACAD
70
0
0
ENDTAB
0
TABLE
2
DIMSTYLE
5
A
100
AcDbSymbolTable
70
1
0
ENDTAB
0
TABLE
2
BLOCK_RECORD
5
1
100
AcDbSymbolTable
70
1
0
BLOCK_RECORD
5
1F
100
AcDbSymbolTableRecord
100
AcDbBlockTableRecord
2
*MODEL_SPACE
0
BLOCK_RECORD
5
1B
100
AcDbSymbolTableRecord
100
AcDbBlockTableRecord
2
*PAPER_SPACE
0
ENDTAB
0
ENDSEC
0
SECTION
2
BLOCKS
0
BLOCK
5
20
100
AcDbEntity
100
AcDbBlockBegin
2
*MODEL_SPACE
0
ENDBLK
5
21
100
AcDbEntity
100
AcDbBlockEnd
0
BLOCK
5
1C
100
AcDbEntity
100
AcDbBlockBegin
2
*PAPER_SPACE
0
ENDBLK
5
1D
100
AcDbEntity
100
AcDbBlockEnd
0
ENDSEC
0
SECTION
2
ENTITIES
0
LWPOLYLINE
5
100
100
AcDbEntity
8
OUTER_PROFILES
100
AcDbPolyline
90
8
70
1
43
0.0
10
391.00000000000011
20
231.5238934211105
10
1.0000000000000853
20
231.52389342111087
10
1.0000000000001148
20
215.76194671052636
10
1.1129985821867194e-13
20
215.76194671052636
10
-9.1728746059099253e-25
20
0
10
391.99999999999989
20
-7.1054273576010019e-14
10
392.00000000000011
20
215.76194671052602
10
391.00000000000011
20
215.76194671052602
0
CIRCLE
5
101
100
AcDbEntity
8
INTERIOR_PROFILES
100
AcDbCircle
10
-6.0000000000000844
20
195.76194671052636
30
0
40
1.6500000000000004
210
0
220
0
230
-1
0
CIRCLE
5
102
100
AcDbEntity
8
INTERIOR_PROFILES
100
AcDbCircle
10
-6.0000000000000284
20
145.76194671052636
30
0
40
1.6500000000000004
210
0
220
0
230
-1
0
CIRCLE
5
103
100
AcDbEntity
8
INTERIOR_PROFILES
100
AcDbCircle
10
-5.9999999999999742
20
95.76194671052636
30
0
40
1.6500000000000004
210
0
220
0
230
-1
0
LWPOLYLINE
5
104
100
AcDbEntity
8
INTERIOR_PROFILES
100
AcDbPolyline
90
4
70
1
43
0.0
10
374.35000000000224
20
8.9999999999940314
42
-0.99999999999999989
10
377.65000000000208
20
8.9999999999945981
10
377.65000000000225
20
5.9999999999943423
42
-0.99999999999999989
10
374.3500000000023
20
5.9999999999940599
0
CIRCLE
5
105
100
AcDbEntity
8
INTERIOR_PROFILES
100
AcDbCircle
10
-116.00000000000803
20
224.02389342111076
30
0
40
1.5500000000000114
210
0
220
0
230
-1
0
LWPOLYLINE
5
106
100
AcDbEntity
8
INTERIOR_PROFILES
100
AcDbPolyline
90
4
70
1
43
0.0
10
274.3500000000023
20
5.9999999999870468
10
274.35000000000218
20
8.9999999999873026
42
-0.99999999999999989
10
277.65000000000208
20
8.9999999999873008
10
277.65000000000225
20
5.9999999999873266
42
-0.99999999999999989
0
LWPOLYLINE
5
107
100
AcDbEntity
8
INTERIOR_PROFILES
100
AcDbPolyline
90
4
70
1
43
0.0
10
14.350000000010299
20
5.9999999999689502
10
14.350000000009853
20
8.9999999999692051
42
-0.99999999999999989
10
17.650000000010088
20
8.999999999969063
10
17.650000000010301
20
5.9999999999690878
42
-0.99999999999999989
0
CIRCLE
5
108
100
AcDbEntity
8
INTERIOR_PROFILES
100
AcDbCircle
10
-376.00000000000011
20
224.0238934211105
30
0
40
1.6500000000000625
210
0
220
0
230
-1
0
LWPOLYLINE
5
109
100
AcDbEntity
8
INTERIOR_PROFILES
100
AcDbPolyline
90
4
70
1
43
0.0
10
114.35000000000997
20
8.9999999999762199
42
-0.99999999999999989
10
117.65000000000995
20
8.9999999999760742
10
117.65000000001017
20
5.9999999999761036
42
-0.99999999999999989
10
114.35000000001018
20
5.9999999999759632
0
CIRCLE
5
110
100
AcDbEntity
8
INTERIOR_PROFILES
100
AcDbCircle
10
-16.000000000007997
20
224.02389342111087
30
0
40
1.6500000000000625
210
0
220
0
230
-1
0
CIRCLE
5
111
100
AcDbEntity
8
INTERIOR_PROFILES
100
AcDbCircle
10
-276.00000000000017
20
224.02389342111061
30
0
40
1.6500000000000625
210
0
220
0
230
-1
0
CIRCLE
5
112
100
AcDbEntity
8
INTERIOR_PROFILES
100
AcDbCircle
10
-385.99999999999972
20
195.76194671052789
30
0
40
1.6499999999999915
210
0
220
0
230
-1
0
CIRCLE
5
113
100
AcDbEntity
8
INTERIOR_PROFILES
100
AcDbCircle
10
-386.00000000000074
20
95.761946710527923
30
0
40
1.6499999999999915
210
0
220
0
230
-1
0
CIRCLE
5
114
100
AcDbEntity
8
INTERIOR_PROFILES
100
AcDbCircle
10
-386.00000000000023
20
145.76194671052789
30
0
40
1.6499999999999915
210
0
220
0
230
-1
0
LINE
5
115
100
AcDbEntity
8
BEND
100
AcDbLine
10
5.4697004338067947e-15
20
39.130973355256828
30
-3.201379951612066e-10
11
391.99999999999994
21
39.130973355256472
31
-3.1974843851030436e-10
0
LINE
5
116
100
AcDbEntity
8
BEND
100
AcDbLine
10
1.0000000000001097
20
217.39292006581871
30
-3.1618467227843711e-10
11
391.00000000000011
21
217.3929200658182
31
-3.1502468316075233e-10
0
LINE
5
117
100
AcDbEntity
8
BEND_EXTENT
100
AcDbLine
10
392.00000000000011
20
37.999999999958547
30
-3.1036433821822861e-10
11
7.1054273576010019e-14
21
37.999999999959044
31
-3.1043612125358777e-10
0
LINE
5
118
100
AcDbEntity
8
BEND_EXTENT
100
AcDbLine
10
-6.1092222514738934e-14
20
40.261946710554071
30
-3.1580071890857653e-10
11
391.99999999999994
21
40.261946710553715
31
-3.1494733886388126e-10
0
LINE
5
119
100
AcDbEntity
8
BEND_EXTENT
100
AcDbLine
10
391.00000000000011
20
216.26194671052599
30
-3.1480813235024704e-10
11
1.0000000000000853
21
216.26194671052647
31
-3.1593992542221069e-10
0
LINE
5
120
100
AcDbEntity
8
BEND_EXTENT
100
AcDbLine
10
1.0000000000001059
20
218.52389342111087
30
-3.1623518974417714e-10
11
391.00000000000011
21
218.52389342111024
31
-3.1510339667221349e-10
0
ENDSEC
0
SECTION
2
OBJECTS
0
DICTIONARY
5
C
100
AcDbDictionary
3
ACAD_GROUP
350
D
3
ACAD_MLINESTYLE
350
17
0
DICTIONARY
5
D
100
AcDbDictionary
0
DICTIONARY
5
1A
330
C
100
AcDbDictionary
0
DICTIONARY
5
17
100
AcDbDictionary
0
ENDSEC
0
EOF
