0
SECTION
2
HEADER
9
$INSUNITS
70
4
9
$ACADVER
1
AC1014
9
$HANDSEED
5
FFFF
0
ENDSEC
0
SECTION
2
TABLES
0
TABLE
2
VPORT
5
8
100
AcDbSymbolTable
0
ENDTAB
0
TABLE
2
LTYPE
5
5
100
AcDbSymbolTable
0
LTYPE
5
14
100
AcDbSymbolTableRecord
100
AcDbLinetypeTableRecord
2
BYBLOCK
70
0
0
LTYPE
5
15
100
AcDbSymbolTableRecord
100
AcDbLinetypeTableRecord
2
BYLAYER
70
0
0
ENDTAB
0
TABLE
2
LAYER
5
2
100
AcDbSymbolTable
70
2
0
LAYER
5
50
100
AcDbSymbolTableRecord
100
AcDbLayerTableRecord
2
0
70
0
6
CONTINUOUS
0
ENDTAB
0
TABLE
2
STYLE
5
3
100
AcDbSymbolTable
70
1
0
STYLE
5
11
100
AcDbSymbolTableRecord
100
AcDbTextStyleTableRecord
2
STANDARD
70
0
0
ENDTAB
0
TABLE
2
VIEW
5
6
100
AcDbSymbolTable
70
0
0
ENDTAB
0
TABLE
2
UCS
5
7
100
AcDbSymbolTable
70
0
0
ENDTAB
0
TABLE
2
APPID
5
9
100
AcDbSymbolTable
70
2
0
APPID
5
12
100
AcDbSymbolTableRecord
100
AcDbRegAppTableRecord
2
ACAD
70
0
0
ENDTAB
0
TABLE
2
DIMSTYLE
5
A
100
AcDbSymbolTable
70
1
0
ENDTAB
0
TABLE
2
BLOCK_RECORD
5
1
100
AcDbSymbolTable
70
1
0
BLOCK_RECORD
5
1F
100
AcDbSymbolTableRecord
100
AcDbBlockTableRecord
2
*MODEL_SPACE
0
BLOCK_RECORD
5
1B
100
AcDbSymbolTableRecord
100
AcDbBlockTableRecord
2
*PAPER_SPACE
0
ENDTAB
0
ENDSEC
0
SECTION
2
BLOCKS
0
BLOCK
5
20
100
AcDbEntity
100
AcDbBlockBegin
2
*MODEL_SPACE
0
ENDBLK
5
21
100
AcDbEntity
100
AcDbBlockEnd
0
BLOCK
5
1C
100
AcDbEntity
100
AcDbBlockBegin
2
*PAPER_SPACE
0
ENDBLK
5
1D
100
AcDbEntity
100
AcDbBlockEnd
0
ENDSEC
0
SECTION
2
ENTITIES
0
LWPOLYLINE
5
100
100
AcDbEntity
8
OUTER_PROFILES
100
AcDbPolyline
90
20
70
1
43
0.0
10
766.52389342116919
20
497.92893218813458
10
766.52389342116919
20
32.071067811865532
42
-0.19891236737965673
10
765.05942732710196
20
28.535533905932802
10
757.98835951523643
20
21.464466094067234
42
0.19891236737965703
10
756.52389342116919
20
17.928932188134485
10
756.52389342116919
20
0
10
0
20
0
10
-5.5511151231257827e-16
20
17.928932188134464
42
0.19891236737965801
10
-1.4644660940672605
20
21.464466094067202
10
-8.5355339059327662
20
28.535533905932766
42
-0.19891236737965801
10
-10
20
32.071067811865532
10
-10
20
497.92893218813458
42
-0.19891236737965506
10
-8.5355339059327751
20
501.46446609406729
10
-1.4644660940672749
20
508.53553390593288
42
0.1989123673796595
10
0
20
512.07106781186565
10
0
20
790
10
756.52389342116919
20
790
10
756.52389342116919
20
512.07106781186553
42
0.19891236737965801
10
757.98835951523643
20
508.53553390593277
10
765.05942732710196
20
501.46446609406729
42
-0.19891236737965537
0
CIRCLE
5
101
100
AcDbEntity
8
INTERIOR_PROFILES
100
AcDbCircle
10
-523.26194671058465
20
60
30
0
40
2.2500000000000853
210
0
220
0
230
-1
0
LWPOLYLINE
5
102
100
AcDbEntity
8
INTERIOR_PROFILES
100
AcDbPolyline
90
4
70
1
43
0.0
10
456.61194671058473
20
784
10
456.61194671058468
20
781.00000000000011
42
0.99999999999999989
10
459.9119467105848
20
781.00000000000011
10
459.91194671058474
20
784
42
0.99999999999999989
0
CIRCLE
5
103
100
AcDbEntity
8
INTERIOR_PROFILES
100
AcDbCircle
10
-112.00000000000074
20
376.66666666666691
30
0
40
1.6499999999999915
210
0
220
0
230
-1
0
CIRCLE
5
104
100
AcDbEntity
8
INTERIOR_PROFILES
100
AcDbCircle
10
-68.000000000002672
20
103.32406989416342
30
0
40
1.6000000000000014
210
0
220
0
230
-1
0
CIRCLE
5
105
100
AcDbEntity
8
INTERIOR_PROFILES
100
AcDbCircle
10
-290.7619467105846
20
725
30
0
40
2.2499999999999432
210
0
220
0
230
-1
0
CIRCLE
5
106
100
AcDbEntity
8
INTERIOR_PROFILES
100
AcDbCircle
10
-465.76194671058465
20
595.00000000000011
30
0
40
2.2500000000000142
210
0
220
0
230
-1
0
CIRCLE
5
107
100
AcDbEntity
8
INTERIOR_PROFILES
100
AcDbCircle
10
-688.5238934211693
20
382.8109685295754
30
0
40
1.6000000000000369
210
0
220
0
230
-1
0
CIRCLE
5
108
100
AcDbEntity
8
INTERIOR_PROFILES
100
AcDbCircle
10
-468.2619467105846
20
244.00000000000006
30
0
40
2.7499999999999858
210
0
220
0
230
-1
0
CIRCLE
5
109
100
AcDbEntity
8
INTERIOR_PROFILES
100
AcDbCircle
10
-112.00000000000074
20
455.00000000000023
30
0
40
1.6499999999999915
210
0
220
0
230
-1
0
CIRCLE
5
110
100
AcDbEntity
8
INTERIOR_PROFILES
100
AcDbCircle
10
-685.5238934211693
20
407.8109685295754
30
0
40
1.5999999999999659
210
0
220
0
230
-1
0
CIRCLE
5
111
100
AcDbEntity
8
INTERIOR_PROFILES
100
AcDbCircle
10
-112.00000000000074
20
220.00000000000023
30
0
40
1.6499999999999915
210
0
220
0
230
-1
0
CIRCLE
5
112
100
AcDbEntity
8
INTERIOR_PROFILES
100
AcDbCircle
10
-644.5238934211684
20
220.00000000000023
30
0
40
1.6499999999999915
210
0
220
0
230
-1
0
CIRCLE
5
113
100
AcDbEntity
8
INTERIOR_PROFILES
100
AcDbCircle
10
-233.26194671058462
20
60
30
0
40
2.2499999999999432
210
0
220
0
230
-1
0
CIRCLE
5
114
100
AcDbEntity
8
INTERIOR_PROFILES
100
AcDbCircle
10
-523.26194671058465
20
410.00000000000006
30
0
40
2.2500000000000142
210
0
220
0
230
-1
0
CIRCLE
5
115
100
AcDbEntity
8
INTERIOR_PROFILES
100
AcDbCircle
10
-465.76194671058465
20
725
30
0
40
2.2499999999999432
210
0
220
0
230
-1
0
CIRCLE
5
116
100
AcDbEntity
8
INTERIOR_PROFILES
100
AcDbCircle
10
-233.26194671058462
20
410.00000000000006
30
0
40
2.2500000000000142
210
0
220
0
230
-1
0
CIRCLE
5
117
100
AcDbEntity
8
INTERIOR_PROFILES
100
AcDbCircle
10
-71.000000000002643
20
128.32406989416342
30
0
40
1.6000000000000014
210
0
220
0
230
-1
0
CIRCLE
5
118
100
AcDbEntity
8
INTERIOR_PROFILES
100
AcDbCircle
10
-273.26194671058465
20
304.00000000000006
30
0
40
2.7499999999999858
210
0
220
0
230
-1
0
CIRCLE
5
119
100
AcDbEntity
8
INTERIOR_PROFILES
100
AcDbCircle
10
-290.7619467105846
20
595.00000000000011
30
0
40
2.2500000000000142
210
0
220
0
230
-1
0
CIRCLE
5
120
100
AcDbEntity
8
INTERIOR_PROFILES
100
AcDbCircle
10
-523.26194671058465
20
660
30
0
40
2.2499999999999432
210
0
220
0
230
-1
0
CIRCLE
5
121
100
AcDbEntity
8
INTERIOR_PROFILES
100
AcDbCircle
10
-112.00000000000074
20
298.3333333333336
30
0
40
1.6499999999999915
210
0
220
0
230
-1
0
CIRCLE
5
122
100
AcDbEntity
8
INTERIOR_PROFILES
100
AcDbCircle
10
-68.000000000002672
20
153.32406989416347
30
0
40
1.6000000000000014
210
0
220
0
230
-1
0
CIRCLE
5
123
100
AcDbEntity
8
INTERIOR_PROFILES
100
AcDbCircle
10
-688.5238934211693
20
432.8109685295754
30
0
40
1.6000000000000369
210
0
220
0
230
-1
0
CIRCLE
5
124
100
AcDbEntity
8
INTERIOR_PROFILES
100
AcDbCircle
10
-644.5238934211684
20
376.66666666666691
30
0
40
1.6499999999999915
210
0
220
0
230
-1
0
CIRCLE
5
125
100
AcDbEntity
8
INTERIOR_PROFILES
100
AcDbCircle
10
-644.5238934211684
20
298.3333333333336
30
0
40
1.6499999999999915
210
0
220
0
230
-1
0
CIRCLE
5
126
100
AcDbEntity
8
INTERIOR_PROFILES
100
AcDbCircle
10
-273.26194671058465
20
244.00000000000006
30
0
40
2.7499999999999858
210
0
220
0
230
-1
0
CIRCLE
5
127
100
AcDbEntity
8
INTERIOR_PROFILES
100
AcDbCircle
10
-644.5238934211684
20
455.00000000000023
30
0
40
1.6499999999999915
210
0
220
0
230
-1
0
CIRCLE
5
128
100
AcDbEntity
8
INTERIOR_PROFILES
100
AcDbCircle
10
-468.2619467105846
20
304.00000000000006
30
0
40
2.7499999999999858
210
0
220
0
230
-1
0
CIRCLE
5
129
100
AcDbEntity
8
INTERIOR_PROFILES
100
AcDbCircle
10
-233.26194671058462
20
660
30
0
40
2.2499999999999432
210
0
220
0
230
-1
0
CIRCLE
5
130
100
AcDbEntity
8
INTERIOR_PROFILES
100
AcDbCircle
10
-597.02389342116692
20
46.000000000000512
30
0
40
1.6500000000000004
210
0
220
0
230
-1
0
LWPOLYLINE
5
131
100
AcDbEntity
8
INTERIOR_PROFILES
100
AcDbPolyline
90
4
70
1
43
0.0
10
299.91194671059253
20
5.9999999999999432
10
299.91194671059253
20
8.9999999999997726
42
0.99999999999999989
10
296.61194671059258
20
9.0000000000003411
10
296.61194671059258
20
5.9999999999999432
42
0.99999999999999989
0
LWPOLYLINE
5
132
100
AcDbEntity
8
INTERIOR_PROFILES
100
AcDbPolyline
90
4
70
1
43
0.0
10
299.9119467105927
20
781.00000000000011
10
299.9119467105927
20
784
42
0.99999999999999989
10
296.61194671059269
20
784
10
296.61194671059269
20
781.00000000000011
42
0.99999999999999989
0
LWPOLYLINE
5
133
100
AcDbEntity
8
INTERIOR_PROFILES
100
AcDbPolyline
90
4
70
1
43
0.0
10
559.91194671058474
20
781.00000000000011
42
-0.99999999999999989
10
556.61194671058479
20
781.00000000000011
10
556.61194671058479
20
784
42
-0.99999999999999989
10
559.91194671058463
20
784
0
CIRCLE
5
134
100
AcDbEntity
8
INTERIOR_PROFILES
100
AcDbCircle
10
-615.52389342116714
20
5.9999999999999432
30
0
40
1.6500000000000004
210
0
220
0
230
-1
0
CIRCLE
5
135
100
AcDbEntity
8
INTERIOR_PROFILES
100
AcDbCircle
10
-715.52389342116714
20
5.9999999999999432
30
0
40
1.6500000000000004
210
0
220
0
230
-1
0
CIRCLE
5
136
100
AcDbEntity
8
INTERIOR_PROFILES
100
AcDbCircle
10
-665.52389342116714
20
5.9999999999999432
30
0
40
1.6500000000000004
210
0
220
0
230
-1
0
CIRCLE
5
137
100
AcDbEntity
8
INTERIOR_PROFILES
100
AcDbCircle
10
-715.52389342116703
20
784
30
0
40
1.6500000000000625
210
0
220
0
230
-1
0
LWPOLYLINE
5
138
100
AcDbEntity
8
INTERIOR_PROFILES
100
AcDbPolyline
90
4
70
1
43
0.0
10
456.61194671058479
20
9.0000000000003411
42
-0.99999999999999989
10
459.91194671058463
20
9.0000000000000568
10
459.9119467105848
20
5.9999999999999432
42
-0.99999999999999989
10
456.61194671058468
20
5.9999999999999432
0
CIRCLE
5
139
100
AcDbEntity
8
INTERIOR_PROFILES
100
AcDbCircle
10
-647.52389342116726
20
484.00000000000159
30
0
40
1.6499999999999915
210
0
220
0
230
-1
0
LWPOLYLINE
5
140
100
AcDbEntity
8
INTERIOR_PROFILES
100
AcDbPolyline
90
4
70
1
43
0.0
10
196.61194671059241
20
9.0000000000003411
10
196.61194671059266
20
5.9999999999999432
42
0.99999999999999989
10
199.91194671059245
20
5.9999999999999432
10
199.9119467105927
20
8.9999999999997726
42
0.99999999999999989
0
CIRCLE
5
141
100
AcDbEntity
8
INTERIOR_PROFILES
100
AcDbCircle
10
-597.52389342116726
20
484.00000000000045
30
0
40
1.6499999999999915
210
0
220
0
230
-1
0
CIRCLE
5
142
100
AcDbEntity
8
INTERIOR_PROFILES
100
AcDbCircle
10
-697.52389342116726
20
484.00000000000284
30
0
40
1.6499999999999915
210
0
220
0
230
-1
0
CIRCLE
5
143
100
AcDbEntity
8
INTERIOR_PROFILES
100
AcDbCircle
10
-647.02389342116703
20
46.000000000001648
30
0
40
1.6500000000000004
210
0
220
0
230
-1
0
CIRCLE
5
144
100
AcDbEntity
8
INTERIOR_PROFILES
100
AcDbCircle
10
-665.52389342116703
20
784
30
0
40
1.6500000000000625
210
0
220
0
230
-1
0
CIRCLE
5
145
100
AcDbEntity
8
INTERIOR_PROFILES
100
AcDbCircle
10
-697.02389342116703
20
46.000000000002785
30
0
40
1.6500000000000004
210
0
220
0
230
-1
0
CIRCLE
5
146
100
AcDbEntity
8
INTERIOR_PROFILES
100
AcDbCircle
10
-615.52389342116714
20
784
30
0
40
1.6500000000000625
210
0
220
0
230
-1
0
LWPOLYLINE
5
147
100
AcDbEntity
8
INTERIOR_PROFILES
100
AcDbPolyline
90
8
70
1
43
0.0
10
718.64472625529083
20
772.30636849312134
10
598.64472625529072
20
772.30636849312134
10
588.64472625529072
20
762.30636849312134
10
588.64472625529083
20
662.30636849312134
10
598.64472625529083
20
652.30636849312134
10
718.64472625529083
20
652.30636849312134
10
728.64472625529083
20
662.30636849312134
10
728.64472625529083
20
762.30636849312134
0
CIRCLE
5
148
100
AcDbEntity
8
INTERIOR_PROFILES
100
AcDbCircle
10
-109.50000000000017
20
46.000000000001648
30
0
40
1.6500000000000004
210
0
220
0
230
-1
0
CIRCLE
5
149
100
AcDbEntity
8
INTERIOR_PROFILES
100
AcDbCircle
10
-159.50000000000014
20
46.000000000000512
30
0
40
1.6500000000000004
210
0
220
0
230
-1
0
LWPOLYLINE
5
150
100
AcDbEntity
8
INTERIOR_PROFILES
100
AcDbPolyline
90
4
70
1
43
0.0
10
556.61194671058468
20
9.0000000000000568
42
-0.99999999999999989
10
559.91194671058452
20
9.0000000000003411
10
559.91194671058463
20
5.9999999999999432
42
-0.99999999999999989
10
556.61194671058456
20
5.9999999999999432
0
CIRCLE
5
151
100
AcDbEntity
8
INTERIOR_PROFILES
100
AcDbCircle
10
-58.999999999999773
20
484.00000000000284
30
0
40
1.6499999999999915
210
0
220
0
230
-1
0
CIRCLE
5
152
100
AcDbEntity
8
INTERIOR_PROFILES
100
AcDbCircle
10
-464.26194671058545
20
522.50000000000011
30
0
40
1.6499999999999915
210
0
220
0
230
-1
0
CIRCLE
5
153
100
AcDbEntity
8
INTERIOR_PROFILES
100
AcDbCircle
10
-458.26194671058477
20
32.5
30
0
40
1.6500000000000625
210
0
220
0
230
-1
0
CIRCLE
5
154
100
AcDbEntity
8
INTERIOR_PROFILES
100
AcDbCircle
10
-364.26194671058556
20
497.50000000000006
30
0
40
1.6499999999999915
210
0
220
0
230
-1
0
CIRCLE
5
155
100
AcDbEntity
8
INTERIOR_PROFILES
100
AcDbCircle
10
-192.26194671058462
20
497.50000000000006
30
0
40
1.6499999999999915
210
0
220
0
230
-1
0
LWPOLYLINE
5
156
100
AcDbEntity
8
INTERIOR_PROFILES
100
AcDbPolyline
90
4
70
1
43
0.0
10
199.91194671059264
20
781.00000000000011
10
199.9119467105927
20
784
42
0.99999999999999989
10
196.61194671059241
20
784
10
196.61194671059246
20
781.00000000000011
42
0.99999999999999989
0
CIRCLE
5
157
100
AcDbEntity
8
INTERIOR_PROFILES
100
AcDbCircle
10
-464.26194671058556
20
497.50000000000006
30
0
40
1.6499999999999915
210
0
220
0
230
-1
0
CIRCLE
5
158
100
AcDbEntity
8
INTERIOR_PROFILES
100
AcDbCircle
10
-388.2619467105846
20
522.50000000000011
30
0
40
1.6499999999999915
210
0
220
0
230
-1
0
CIRCLE
5
159
100
AcDbEntity
8
INTERIOR_PROFILES
100
AcDbCircle
10
-91.000000000000014
20
5.9999999999999432
30
0
40
1.6500000000000004
210
0
220
0
230
-1
0
CIRCLE
5
160
100
AcDbEntity
8
INTERIOR_PROFILES
100
AcDbCircle
10
-41.000000000000014
20
5.9999999999999432
30
0
40
1.6500000000000004
210
0
220
0
230
-1
0
CIRCLE
5
161
100
AcDbEntity
8
INTERIOR_PROFILES
100
AcDbCircle
10
-59.500000000000099
20
46.000000000002785
30
0
40
1.6500000000000004
210
0
220
0
230
-1
0
CIRCLE
5
162
100
AcDbEntity
8
INTERIOR_PROFILES
100
AcDbCircle
10
-198.26194671059253
20
32.5
30
0
40
1.6500000000000625
210
0
220
0
230
-1
0
CIRCLE
5
163
100
AcDbEntity
8
INTERIOR_PROFILES
100
AcDbCircle
10
-558.26194671058465
20
32.5
30
0
40
1.6500000000000625
210
0
220
0
230
-1
0
CIRCLE
5
164
100
AcDbEntity
8
INTERIOR_PROFILES
100
AcDbCircle
10
-264.26194671058551
20
497.50000000000006
30
0
40
1.6499999999999915
210
0
220
0
230
-1
0
CIRCLE
5
165
100
AcDbEntity
8
INTERIOR_PROFILES
100
AcDbCircle
10
-298.26194671059255
20
32.5
30
0
40
1.5500000000000114
210
0
220
0
230
-1
0
CIRCLE
5
166
100
AcDbEntity
8
INTERIOR_PROFILES
100
AcDbCircle
10
-192.26194671058462
20
522.50000000000011
30
0
40
1.6499999999999915
210
0
220
0
230
-1
0
CIRCLE
5
167
100
AcDbEntity
8
INTERIOR_PROFILES
100
AcDbCircle
10
-141
20
5.9999999999999432
30
0
40
1.6500000000000004
210
0
220
0
230
-1
0
CIRCLE
5
168
100
AcDbEntity
8
INTERIOR_PROFILES
100
AcDbCircle
10
-564.26194671058556
20
497.50000000000006
30
0
40
1.6499999999999915
210
0
220
0
230
-1
0
CIRCLE
5
169
100
AcDbEntity
8
INTERIOR_PROFILES
100
AcDbCircle
10
-564.26194671058556
20
522.50000000000011
30
0
40
1.6499999999999915
210
0
220
0
230
-1
0
CIRCLE
5
170
100
AcDbEntity
8
INTERIOR_PROFILES
100
AcDbCircle
10
-680.66116838828339
20
591.11898949452086
30
0
40
2.9999999999999716
210
0
220
0
230
-1
0
CIRCLE
5
171
100
AcDbEntity
8
INTERIOR_PROFILES
100
AcDbCircle
10
-34.640999999999948
20
265.00000000000409
30
0
40
1.6499999999999915
210
0
220
0
230
-1
0
CIRCLE
5
172
100
AcDbEntity
8
INTERIOR_PROFILES
100
AcDbCircle
10
-91.000000000000014
20
784
30
0
40
1.6500000000000625
210
0
220
0
230
-1
0
CIRCLE
5
173
100
AcDbEntity
8
INTERIOR_PROFILES
100
AcDbCircle
10
-721.88289342116923
20
55.000000000003979
30
0
40
1.6499999999999915
210
0
220
0
230
-1
0
CIRCLE
5
174
100
AcDbEntity
8
INTERIOR_PROFILES
100
AcDbCircle
10
-34.640999999999948
20
405.00000000000409
30
0
40
1.6499999999999915
210
0
220
0
230
-1
0
CIRCLE
5
175
100
AcDbEntity
8
INTERIOR_PROFILES
100
AcDbCircle
10
-141
20
784
30
0
40
1.6500000000000625
210
0
220
0
230
-1
0
CIRCLE
5
176
100
AcDbEntity
8
INTERIOR_PROFILES
100
AcDbCircle
10
-34.640999999999948
20
55.000000000003979
30
0
40
1.6499999999999915
210
0
220
0
230
-1
0
CIRCLE
5
177
100
AcDbEntity
8
INTERIOR_PROFILES
100
AcDbCircle
10
-34.640999999999948
20
195.00000000000412
30
0
40
1.6499999999999915
210
0
220
0
230
-1
0
CIRCLE
5
178
100
AcDbEntity
8
INTERIOR_PROFILES
100
AcDbCircle
10
-721.88289342116923
20
405.00000000000409
30
0
40
1.6499999999999915
210
0
220
0
230
-1
0
CIRCLE
5
179
100
AcDbEntity
8
INTERIOR_PROFILES
100
AcDbCircle
10
-721.88289342116923
20
335.00000000000409
30
0
40
1.6499999999999915
210
0
220
0
230
-1
0
CIRCLE
5
180
100
AcDbEntity
8
INTERIOR_PROFILES
100
AcDbCircle
10
-34.640999999999948
20
475.00000000000409
30
0
40
1.6499999999999915
210
0
220
0
230
-1
0
CIRCLE
5
181
100
AcDbEntity
8
INTERIOR_PROFILES
100
AcDbCircle
10
-34.640999999999948
20
125.00000000000398
30
0
40
1.6499999999999915
210
0
220
0
230
-1
0
CIRCLE
5
182
100
AcDbEntity
8
INTERIOR_PROFILES
100
AcDbCircle
10
-721.88289342116923
20
125.00000000000398
30
0
40
1.6499999999999915
210
0
220
0
230
-1
0
CIRCLE
5
183
100
AcDbEntity
8
INTERIOR_PROFILES
100
AcDbCircle
10
-720.66116838828316
20
571.11898949452097
30
0
40
2.9999999999999716
210
0
220
0
230
-1
0
CIRCLE
5
184
100
AcDbEntity
8
INTERIOR_PROFILES
100
AcDbCircle
10
-730.66116838828316
20
611.11898949452086
30
0
40
2.9999999999999716
210
0
220
0
230
-1
0
CIRCLE
5
185
100
AcDbEntity
8
INTERIOR_PROFILES
100
AcDbCircle
10
-720.66116838828316
20
631.11898949452075
30
0
40
2.9999999999999716
210
0
220
0
230
-1
0
CIRCLE
5
186
100
AcDbEntity
8
INTERIOR_PROFILES
100
AcDbCircle
10
-721.88289342116923
20
195.00000000000412
30
0
40
1.6499999999999915
210
0
220
0
230
-1
0
CIRCLE
5
187
100
AcDbEntity
8
INTERIOR_PROFILES
100
AcDbCircle
10
-34.640999999999948
20
335.00000000000409
30
0
40
1.6499999999999915
210
0
220
0
230
-1
0
CIRCLE
5
188
100
AcDbEntity
8
INTERIOR_PROFILES
100
AcDbCircle
10
-721.88289342116923
20
475.00000000000409
30
0
40
1.6499999999999915
210
0
220
0
230
-1
0
CIRCLE
5
189
100
AcDbEntity
8
INTERIOR_PROFILES
100
AcDbCircle
10
-720.66116838828316
20
591.11898949452086
30
0
40
2.9999999999999716
210
0
220
0
230
-1
0
CIRCLE
5
190
100
AcDbEntity
8
INTERIOR_PROFILES
100
AcDbCircle
10
-720.66116838828316
20
551.11898949452097
30
0
40
2.9999999999999716
210
0
220
0
230
-1
0
CIRCLE
5
191
100
AcDbEntity
8
INTERIOR_PROFILES
100
AcDbCircle
10
-721.88289342116923
20
265.00000000000409
30
0
40
1.6499999999999915
210
0
220
0
230
-1
0
CIRCLE
5
192
100
AcDbEntity
8
INTERIOR_PROFILES
100
AcDbCircle
10
-588.64472625529083
20
652.30636849312134
30
0
40
1.7499999999999716
210
0
220
0
230
-1
0
CIRCLE
5
193
100
AcDbEntity
8
INTERIOR_PROFILES
100
AcDbCircle
10
-41.000000000000014
20
784
30
0
40
1.6500000000000625
210
0
220
0
230
-1
0
CIRCLE
5
194
100
AcDbEntity
8
INTERIOR_PROFILES
100
AcDbCircle
10
-158.9999999999998
20
484.00000000000045
30
0
40
1.6499999999999915
210
0
220
0
230
-1
0
CIRCLE
5
195
100
AcDbEntity
8
INTERIOR_PROFILES
100
AcDbCircle
10
-620.66116838828361
20
611.11898949452086
30
0
40
2.9999999999999716
210
0
220
0
230
-1
0
CIRCLE
5
196
100
AcDbEntity
8
INTERIOR_PROFILES
100
AcDbCircle
10
-670.6611683882835
20
621.11898949452086
30
0
40
2.9999999999999716
210
0
220
0
230
-1
0
CIRCLE
5
197
100
AcDbEntity
8
INTERIOR_PROFILES
100
AcDbCircle
10
-630.66116838828361
20
611.11898949452086
30
0
40
2.9999999999999716
210
0
220
0
230
-1
0
CIRCLE
5
198
100
AcDbEntity
8
INTERIOR_PROFILES
100
AcDbCircle
10
-630.66116838828361
20
631.11898949452075
30
0
40
3.0000000000000426
210
0
220
0
230
-1
0
CIRCLE
5
199
100
AcDbEntity
8
INTERIOR_PROFILES
100
AcDbCircle
10
-108.99999999999977
20
484.00000000000159
30
0
40
1.6499999999999915
210
0
220
0
230
-1
0
CIRCLE
5
200
100
AcDbEntity
8
INTERIOR_PROFILES
100
AcDbCircle
10
-630.66116838828361
20
621.11898949452086
30
0
40
2.9999999999999716
210
0
220
0
230
-1
0
CIRCLE
5
201
100
AcDbEntity
8
INTERIOR_PROFILES
100
AcDbCircle
10
-700.66116838828339
20
621.11898949452086
30
0
40
2.9999999999999716
210
0
220
0
230
-1
0
CIRCLE
5
202
100
AcDbEntity
8
INTERIOR_PROFILES
100
AcDbCircle
10
-640.6611683882835
20
551.11898949452097
30
0
40
2.9999999999999716
210
0
220
0
230
-1
0
CIRCLE
5
203
100
AcDbEntity
8
INTERIOR_PROFILES
100
AcDbCircle
10
-650.6611683882835
20
631.11898949452075
30
0
40
2.9999999999999716
210
0
220
0
230
-1
0
CIRCLE
5
204
100
AcDbEntity
8
INTERIOR_PROFILES
100
AcDbCircle
10
-710.66116838828316
20
591.11898949452086
30
0
40
2.9999999999999716
210
0
220
0
230
-1
0
CIRCLE
5
205
100
AcDbEntity
8
INTERIOR_PROFILES
100
AcDbCircle
10
-710.66116838828316
20
541.11898949452109
30
0
40
3.0000000000000426
210
0
220
0
230
-1
0
CIRCLE
5
206
100
AcDbEntity
8
INTERIOR_PROFILES
100
AcDbCircle
10
-690.66116838828339
20
561.11898949452097
30
0
40
2.9999999999999716
210
0
220
0
230
-1
0
CIRCLE
5
207
100
AcDbEntity
8
INTERIOR_PROFILES
100
AcDbCircle
10
-690.66116838828339
20
621.11898949452086
30
0
40
2.9999999999999716
210
0
220
0
230
-1
0
CIRCLE
5
208
100
AcDbEntity
8
INTERIOR_PROFILES
100
AcDbCircle
10
-640.6611683882835
20
601.11898949452086
30
0
40
2.9999999999999716
210
0
220
0
230
-1
0
CIRCLE
5
209
100
AcDbEntity
8
INTERIOR_PROFILES
100
AcDbCircle
10
-660.6611683882835
20
571.11898949452097
30
0
40
2.9999999999999716
210
0
220
0
230
-1
0
CIRCLE
5
210
100
AcDbEntity
8
INTERIOR_PROFILES
100
AcDbCircle
10
-680.6611683882835
20
611.11898949452086
30
0
40
2.9999999999999716
210
0
220
0
230
-1
0
CIRCLE
5
211
100
AcDbEntity
8
INTERIOR_PROFILES
100
AcDbCircle
10
-680.66116838828339
20
561.11898949452097
30
0
40
2.9999999999999716
210
0
220
0
230
-1
0
CIRCLE
5
212
100
AcDbEntity
8
INTERIOR_PROFILES
100
AcDbCircle
10
-690.66116838828339
20
571.11898949452097
30
0
40
2.9999999999999716
210
0
220
0
230
-1
0
CIRCLE
5
213
100
AcDbEntity
8
INTERIOR_PROFILES
100
AcDbCircle
10
-640.6611683882835
20
621.11898949452086
30
0
40
2.9999999999999716
210
0
220
0
230
-1
0
CIRCLE
5
214
100
AcDbEntity
8
INTERIOR_PROFILES
100
AcDbCircle
10
-700.66116838828339
20
571.11898949452097
30
0
40
2.9999999999999716
210
0
220
0
230
-1
0
CIRCLE
5
215
100
AcDbEntity
8
INTERIOR_PROFILES
100
AcDbCircle
10
-680.66116838828339
20
571.11898949452097
30
0
40
2.9999999999999716
210
0
220
0
230
-1
0
CIRCLE
5
216
100
AcDbEntity
8
INTERIOR_PROFILES
100
AcDbCircle
10
-710.66116838828316
20
581.11898949452086
30
0
40
3.0000000000000426
210
0
220
0
230
-1
0
CIRCLE
5
217
100
AcDbEntity
8
INTERIOR_PROFILES
100
AcDbCircle
10
-670.6611683882835
20
561.11898949452097
30
0
40
2.9999999999999716
210
0
220
0
230
-1
0
CIRCLE
5
218
100
AcDbEntity
8
INTERIOR_PROFILES
100
AcDbCircle
10
-700.66116838828339
20
541.11898949452109
30
0
40
3.0000000000000426
210
0
220
0
230
-1
0
CIRCLE
5
219
100
AcDbEntity
8
INTERIOR_PROFILES
100
AcDbCircle
10
-650.6611683882835
20
581.11898949452086
30
0
40
3.0000000000000426
210
0
220
0
230
-1
0
CIRCLE
5
220
100
AcDbEntity
8
INTERIOR_PROFILES
100
AcDbCircle
10
-690.66116838828339
20
591.11898949452086
30
0
40
2.9999999999999716
210
0
220
0
230
-1
0
CIRCLE
5
221
100
AcDbEntity
8
INTERIOR_PROFILES
100
AcDbCircle
10
-690.66116838828339
20
611.11898949452086
30
0
40
2.9999999999999716
210
0
220
0
230
-1
0
CIRCLE
5
222
100
AcDbEntity
8
INTERIOR_PROFILES
100
AcDbCircle
10
-690.66116838828339
20
631.11898949452075
30
0
40
2.9999999999999716
210
0
220
0
230
-1
0
CIRCLE
5
223
100
AcDbEntity
8
INTERIOR_PROFILES
100
AcDbCircle
10
-630.66116838828361
20
581.11898949452086
30
0
40
3.0000000000000426
210
0
220
0
230
-1
0
CIRCLE
5
224
100
AcDbEntity
8
INTERIOR_PROFILES
100
AcDbCircle
10
-650.6611683882835
20
601.11898949452086
30
0
40
2.9999999999999716
210
0
220
0
230
-1
0
CIRCLE
5
225
100
AcDbEntity
8
INTERIOR_PROFILES
100
AcDbCircle
10
-680.6611683882835
20
631.11898949452075
30
0
40
2.9999999999999716
210
0
220
0
230
-1
0
CIRCLE
5
226
100
AcDbEntity
8
INTERIOR_PROFILES
100
AcDbCircle
10
-660.6611683882835
20
591.11898949452086
30
0
40
2.9999999999999716
210
0
220
0
230
-1
0
CIRCLE
5
227
100
AcDbEntity
8
INTERIOR_PROFILES
100
AcDbCircle
10
-660.6611683882835
20
611.11898949452086
30
0
40
2.9999999999999716
210
0
220
0
230
-1
0
CIRCLE
5
228
100
AcDbEntity
8
INTERIOR_PROFILES
100
AcDbCircle
10
-650.6611683882835
20
611.11898949452086
30
0
40
2.9999999999999716
210
0
220
0
230
-1
0
CIRCLE
5
229
100
AcDbEntity
8
INTERIOR_PROFILES
100
AcDbCircle
10
-650.6611683882835
20
561.11898949452097
30
0
40
2.9999999999999716
210
0
220
0
230
-1
0
CIRCLE
5
230
100
AcDbEntity
8
INTERIOR_PROFILES
100
AcDbCircle
10
-640.6611683882835
20
611.11898949452086
30
0
40
2.9999999999999716
210
0
220
0
230
-1
0
CIRCLE
5
231
100
AcDbEntity
8
INTERIOR_PROFILES
100
AcDbCircle
10
-700.66116838828339
20
611.11898949452086
30
0
40
2.9999999999999716
210
0
220
0
230
-1
0
CIRCLE
5
232
100
AcDbEntity
8
INTERIOR_PROFILES
100
AcDbCircle
10
-620.66116838828361
20
561.11898949452097
30
0
40
2.9999999999999716
210
0
220
0
230
-1
0
CIRCLE
5
233
100
AcDbEntity
8
INTERIOR_PROFILES
100
AcDbCircle
10
-620.66116838828361
20
601.11898949452086
30
0
40
2.9999999999999716
210
0
220
0
230
-1
0
CIRCLE
5
234
100
AcDbEntity
8
INTERIOR_PROFILES
100
AcDbCircle
10
-720.66116838828316
20
621.11898949452086
30
0
40
2.9999999999999716
210
0
220
0
230
-1
0
CIRCLE
5
235
100
AcDbEntity
8
INTERIOR_PROFILES
100
AcDbCircle
10
-620.66116838828361
20
571.11898949452097
30
0
40
2.9999999999999716
210
0
220
0
230
-1
0
CIRCLE
5
236
100
AcDbEntity
8
INTERIOR_PROFILES
100
AcDbCircle
10
-720.66116838828316
20
581.11898949452086
30
0
40
3.0000000000000426
210
0
220
0
230
-1
0
CIRCLE
5
237
100
AcDbEntity
8
INTERIOR_PROFILES
100
AcDbCircle
10
-670.6611683882835
20
611.11898949452086
30
0
40
2.9999999999999716
210
0
220
0
230
-1
0
CIRCLE
5
238
100
AcDbEntity
8
INTERIOR_PROFILES
100
AcDbCircle
10
-710.66116838828339
20
601.11898949452086
30
0
40
2.9999999999999716
210
0
220
0
230
-1
0
CIRCLE
5
239
100
AcDbEntity
8
INTERIOR_PROFILES
100
AcDbCircle
10
-730.66116838828316
20
601.11898949452086
30
0
40
2.9999999999999716
210
0
220
0
230
-1
0
CIRCLE
5
240
100
AcDbEntity
8
INTERIOR_PROFILES
100
AcDbCircle
10
-680.6611683882835
20
601.11898949452086
30
0
40
2.9999999999999716
210
0
220
0
230
-1
0
CIRCLE
5
241
100
AcDbEntity
8
INTERIOR_PROFILES
100
AcDbCircle
10
-620.66116838828361
20
541.11898949452109
30
0
40
3.0000000000000426
210
0
220
0
230
-1
0
CIRCLE
5
242
100
AcDbEntity
8
INTERIOR_PROFILES
100
AcDbCircle
10
-660.6611683882835
20
581.11898949452086
30
0
40
3.0000000000000426
210
0
220
0
230
-1
0
CIRCLE
5
243
100
AcDbEntity
8
INTERIOR_PROFILES
100
AcDbCircle
10
-660.6611683882835
20
551.11898949452097
30
0
40
2.9999999999999716
210
0
220
0
230
-1
0
CIRCLE
5
244
100
AcDbEntity
8
INTERIOR_PROFILES
100
AcDbCircle
10
-730.66116838828316
20
621.11898949452075
30
0
40
3.0000000000000426
210
0
220
0
230
-1
0
CIRCLE
5
245
100
AcDbEntity
8
INTERIOR_PROFILES
100
AcDbCircle
10
-620.66116838828361
20
581.11898949452086
30
0
40
3.0000000000000426
210
0
220
0
230
-1
0
CIRCLE
5
246
100
AcDbEntity
8
INTERIOR_PROFILES
100
AcDbCircle
10
-730.66116838828316
20
551.11898949452097
30
0
40
2.9999999999999716
210
0
220
0
230
-1
0
CIRCLE
5
247
100
AcDbEntity
8
INTERIOR_PROFILES
100
AcDbCircle
10
-728.64472625529083
20
772.30636849312134
30
0
40
1.7499999999999716
210
0
220
0
230
-1
0
CIRCLE
5
248
100
AcDbEntity
8
INTERIOR_PROFILES
100
AcDbCircle
10
-730.66116838828316
20
561.11898949452097
30
0
40
2.9999999999999716
210
0
220
0
230
-1
0
CIRCLE
5
249
100
AcDbEntity
8
INTERIOR_PROFILES
100
AcDbCircle
10
-670.6611683882835
20
581.11898949452086
30
0
40
3.0000000000000426
210
0
220
0
230
-1
0
CIRCLE
5
250
100
AcDbEntity
8
INTERIOR_PROFILES
100
AcDbCircle
10
-710.66116838828316
20
551.11898949452097
30
0
40
2.9999999999999716
210
0
220
0
230
-1
0
CIRCLE
5
251
100
AcDbEntity
8
INTERIOR_PROFILES
100
AcDbCircle
10
-630.66116838828361
20
561.11898949452097
30
0
40
2.9999999999999716
210
0
220
0
230
-1
0
CIRCLE
5
252
100
AcDbEntity
8
INTERIOR_PROFILES
100
AcDbCircle
10
-700.66116838828339
20
581.11898949452086
30
0
40
3.0000000000000426
210
0
220
0
230
-1
0
CIRCLE
5
253
100
AcDbEntity
8
INTERIOR_PROFILES
100
AcDbCircle
10
-670.6611683882835
20
631.11898949452075
30
0
40
2.9999999999999716
210
0
220
0
230
-1
0
CIRCLE
5
254
100
AcDbEntity
8
INTERIOR_PROFILES
100
AcDbCircle
10
-720.66116838828316
20
541.11898949452109
30
0
40
3.0000000000000426
210
0
220
0
230
-1
0
CIRCLE
5
255
100
AcDbEntity
8
INTERIOR_PROFILES
100
AcDbCircle
10
-630.66116838828361
20
601.11898949452086
30
0
40
2.9999999999999716
210
0
220
0
230
-1
0
CIRCLE
5
256
100
AcDbEntity
8
INTERIOR_PROFILES
100
AcDbCircle
10
-630.66116838828361
20
591.11898949452086
30
0
40
2.9999999999999716
210
0
220
0
230
-1
0
CIRCLE
5
257
100
AcDbEntity
8
INTERIOR_PROFILES
100
AcDbCircle
10
-730.66116838828316
20
631.11898949452075
30
0
40
2.9999999999999716
210
0
220
0
230
-1
0
CIRCLE
5
258
100
AcDbEntity
8
INTERIOR_PROFILES
100
AcDbCircle
10
-620.66116838828361
20
591.11898949452086
30
0
40
2.9999999999999716
210
0
220
0
230
-1
0
CIRCLE
5
259
100
AcDbEntity
8
INTERIOR_PROFILES
100
AcDbCircle
10
-640.6611683882835
20
541.11898949452109
30
0
40
3.0000000000000426
210
0
220
0
230
-1
0
CIRCLE
5
260
100
AcDbEntity
8
INTERIOR_PROFILES
100
AcDbCircle
10
-730.66116838828316
20
591.11898949452086
30
0
40
2.9999999999999716
210
0
220
0
230
-1
0
CIRCLE
5
261
100
AcDbEntity
8
INTERIOR_PROFILES
100
AcDbCircle
10
-620.66116838828361
20
631.11898949452075
30
0
40
3.0000000000000426
210
0
220
0
230
-1
0
CIRCLE
5
262
100
AcDbEntity
8
INTERIOR_PROFILES
100
AcDbCircle
10
-720.66116838828316
20
611.11898949452086
30
0
40
2.9999999999999716
210
0
220
0
230
-1
0
CIRCLE
5
263
100
AcDbEntity
8
INTERIOR_PROFILES
100
AcDbCircle
10
-728.64472625529083
20
652.30636849312134
30
0
40
1.7499999999999716
210
0
220
0
230
-1
0
CIRCLE
5
264
100
AcDbEntity
8
INTERIOR_PROFILES
100
AcDbCircle
10
-700.66116838828339
20
631.11898949452075
30
0
40
2.9999999999999716
210
0
220
0
230
-1
0
CIRCLE
5
265
100
AcDbEntity
8
INTERIOR_PROFILES
100
AcDbCircle
10
-660.6611683882835
20
601.11898949452086
30
0
40
2.9999999999999716
210
0
220
0
230
-1
0
CIRCLE
5
266
100
AcDbEntity
8
INTERIOR_PROFILES
100
AcDbCircle
10
-650.6611683882835
20
591.11898949452086
30
0
40
2.9999999999999716
210
0
220
0
230
-1
0
CIRCLE
5
267
100
AcDbEntity
8
INTERIOR_PROFILES
100
AcDbCircle
10
-680.66116838828339
20
551.11898949452097
30
0
40
2.9999999999999716
210
0
220
0
230
-1
0
CIRCLE
5
268
100
AcDbEntity
8
INTERIOR_PROFILES
100
AcDbCircle
10
-700.66116838828339
20
591.11898949452086
30
0
40
2.9999999999999716
210
0
220
0
230
-1
0
CIRCLE
5
269
100
AcDbEntity
8
INTERIOR_PROFILES
100
AcDbCircle
10
-630.66116838828361
20
571.11898949452097
30
0
40
2.9999999999999716
210
0
220
0
230
-1
0
CIRCLE
5
270
100
AcDbEntity
8
INTERIOR_PROFILES
100
AcDbCircle
10
-710.66116838828316
20
571.11898949452097
30
0
40
2.9999999999999716
210
0
220
0
230
-1
0
CIRCLE
5
271
100
AcDbEntity
8
INTERIOR_PROFILES
100
AcDbCircle
10
-680.66116838828339
20
581.11898949452086
30
0
40
3.0000000000000426
210
0
220
0
230
-1
0
CIRCLE
5
272
100
AcDbEntity
8
INTERIOR_PROFILES
100
AcDbCircle
10
-650.6611683882835
20
571.11898949452097
30
0
40
2.9999999999999716
210
0
220
0
230
-1
0
CIRCLE
5
273
100
AcDbEntity
8
INTERIOR_PROFILES
100
AcDbCircle
10
-630.66116838828361
20
551.11898949452097
30
0
40
2.9999999999999716
210
0
220
0
230
-1
0
CIRCLE
5
274
100
AcDbEntity
8
INTERIOR_PROFILES
100
AcDbCircle
10
-640.6611683882835
20
561.11898949452097
30
0
40
2.9999999999999716
210
0
220
0
230
-1
0
CIRCLE
5
275
100
AcDbEntity
8
INTERIOR_PROFILES
100
AcDbCircle
10
-690.66116838828339
20
581.11898949452086
30
0
40
3.0000000000000426
210
0
220
0
230
-1
0
CIRCLE
5
276
100
AcDbEntity
8
INTERIOR_PROFILES
100
AcDbCircle
10
-700.66116838828339
20
601.11898949452086
30
0
40
2.9999999999999716
210
0
220
0
230
-1
0
CIRCLE
5
277
100
AcDbEntity
8
INTERIOR_PROFILES
100
AcDbCircle
10
-640.6611683882835
20
631.11898949452075
30
0
40
3.0000000000000426
210
0
220
0
230
-1
0
CIRCLE
5
278
100
AcDbEntity
8
INTERIOR_PROFILES
100
AcDbCircle
10
-690.66116838828339
20
601.11898949452086
30
0
40
2.9999999999999716
210
0
220
0
230
-1
0
CIRCLE
5
279
100
AcDbEntity
8
INTERIOR_PROFILES
100
AcDbCircle
10
-700.66116838828339
20
551.11898949452097
30
0
40
2.9999999999999716
210
0
220
0
230
-1
0
CIRCLE
5
280
100
AcDbEntity
8
INTERIOR_PROFILES
100
AcDbCircle
10
-650.6611683882835
20
551.11898949452097
30
0
40
2.9999999999999716
210
0
220
0
230
-1
0
CIRCLE
5
281
100
AcDbEntity
8
INTERIOR_PROFILES
100
AcDbCircle
10
-700.66116838828339
20
561.11898949452097
30
0
40
2.9999999999999716
210
0
220
0
230
-1
0
CIRCLE
5
282
100
AcDbEntity
8
INTERIOR_PROFILES
100
AcDbCircle
10
-650.6611683882835
20
621.11898949452086
30
0
40
2.9999999999999716
210
0
220
0
230
-1
0
CIRCLE
5
283
100
AcDbEntity
8
INTERIOR_PROFILES
100
AcDbCircle
10
-650.6611683882835
20
541.11898949452109
30
0
40
3.0000000000000426
210
0
220
0
230
-1
0
CIRCLE
5
284
100
AcDbEntity
8
INTERIOR_PROFILES
100
AcDbCircle
10
-640.6611683882835
20
571.11898949452097
30
0
40
2.9999999999999716
210
0
220
0
230
-1
0
CIRCLE
5
285
100
AcDbEntity
8
INTERIOR_PROFILES
100
AcDbCircle
10
-670.6611683882835
20
551.11898949452097
30
0
40
2.9999999999999716
210
0
220
0
230
-1
0
CIRCLE
5
286
100
AcDbEntity
8
INTERIOR_PROFILES
100
AcDbCircle
10
-710.66116838828339
20
621.11898949452086
30
0
40
2.9999999999999716
210
0
220
0
230
-1
0
CIRCLE
5
287
100
AcDbEntity
8
INTERIOR_PROFILES
100
AcDbCircle
10
-660.6611683882835
20
541.11898949452109
30
0
40
3.0000000000000426
210
0
220
0
230
-1
0
CIRCLE
5
288
100
AcDbEntity
8
INTERIOR_PROFILES
100
AcDbCircle
10
-690.66116838828339
20
551.11898949452097
30
0
40
2.9999999999999716
210
0
220
0
230
-1
0
CIRCLE
5
289
100
AcDbEntity
8
INTERIOR_PROFILES
100
AcDbCircle
10
-640.6611683882835
20
581.11898949452086
30
0
40
3.0000000000000426
210
0
220
0
230
-1
0
CIRCLE
5
290
100
AcDbEntity
8
INTERIOR_PROFILES
100
AcDbCircle
10
-710.66116838828316
20
561.11898949452097
30
0
40
2.9999999999999716
210
0
220
0
230
-1
0
CIRCLE
5
291
100
AcDbEntity
8
INTERIOR_PROFILES
100
AcDbCircle
10
-680.6611683882835
20
621.11898949452086
30
0
40
2.9999999999999716
210
0
220
0
230
-1
0
CIRCLE
5
292
100
AcDbEntity
8
INTERIOR_PROFILES
100
AcDbCircle
10
-660.6611683882835
20
621.11898949452086
30
0
40
2.9999999999999716
210
0
220
0
230
-1
0
CIRCLE
5
293
100
AcDbEntity
8
INTERIOR_PROFILES
100
AcDbCircle
10
-710.66116838828339
20
611.11898949452086
30
0
40
2.9999999999999716
210
0
220
0
230
-1
0
CIRCLE
5
294
100
AcDbEntity
8
INTERIOR_PROFILES
100
AcDbCircle
10
-690.66116838828339
20
541.11898949452109
30
0
40
3.0000000000000426
210
0
220
0
230
-1
0
CIRCLE
5
295
100
AcDbEntity
8
INTERIOR_PROFILES
100
AcDbCircle
10
-680.66116838828339
20
541.11898949452109
30
0
40
3.0000000000000426
210
0
220
0
230
-1
0
CIRCLE
5
296
100
AcDbEntity
8
INTERIOR_PROFILES
100
AcDbCircle
10
-588.64472625529072
20
772.30636849312134
30
0
40
1.7499999999999716
210
0
220
0
230
-1
0
CIRCLE
5
297
100
AcDbEntity
8
INTERIOR_PROFILES
100
AcDbCircle
10
-730.66116838828316
20
581.11898949452086
30
0
40
2.9999999999999716
210
0
220
0
230
-1
0
CIRCLE
5
298
100
AcDbEntity
8
INTERIOR_PROFILES
100
AcDbCircle
10
-730.66116838828316
20
571.11898949452086
30
0
40
3.0000000000000426
210
0
220
0
230
-1
0
CIRCLE
5
299
100
AcDbEntity
8
INTERIOR_PROFILES
100
AcDbCircle
10
-710.66116838828339
20
631.11898949452075
30
0
40
2.9999999999999716
210
0
220
0
230
-1
0
CIRCLE
5
300
100
AcDbEntity
8
INTERIOR_PROFILES
100
AcDbCircle
10
-720.66116838828316
20
601.11898949452086
30
0
40
2.9999999999999716
210
0
220
0
230
-1
0
CIRCLE
5
301
100
AcDbEntity
8
INTERIOR_PROFILES
100
AcDbCircle
10
-670.6611683882835
20
541.11898949452109
30
0
40
3.0000000000000426
210
0
220
0
230
-1
0
CIRCLE
5
302
100
AcDbEntity
8
INTERIOR_PROFILES
100
AcDbCircle
10
-660.6611683882835
20
561.11898949452097
30
0
40
2.9999999999999716
210
0
220
0
230
-1
0
CIRCLE
5
303
100
AcDbEntity
8
INTERIOR_PROFILES
100
AcDbCircle
10
-630.66116838828361
20
541.11898949452109
30
0
40
3.0000000000000426
210
0
220
0
230
-1
0
CIRCLE
5
304
100
AcDbEntity
8
INTERIOR_PROFILES
100
AcDbCircle
10
-660.6611683882835
20
631.11898949452075
30
0
40
2.9999999999999716
210
0
220
0
230
-1
0
CIRCLE
5
305
100
AcDbEntity
8
INTERIOR_PROFILES
100
AcDbCircle
10
-720.66116838828316
20
561.11898949452097
30
0
40
2.9999999999999716
210
0
220
0
230
-1
0
CIRCLE
5
306
100
AcDbEntity
8
INTERIOR_PROFILES
100
AcDbCircle
10
-640.6611683882835
20
591.11898949452086
30
0
40
2.9999999999999716
210
0
220
0
230
-1
0
CIRCLE
5
307
100
AcDbEntity
8
INTERIOR_PROFILES
100
AcDbCircle
10
-620.66116838828361
20
551.11898949452097
30
0
40
2.9999999999999716
210
0
220
0
230
-1
0
CIRCLE
5
308
100
AcDbEntity
8
INTERIOR_PROFILES
100
AcDbCircle
10
-620.66116838828361
20
621.11898949452086
30
0
40
2.9999999999999716
210
0
220
0
230
-1
0
CIRCLE
5
309
100
AcDbEntity
8
INTERIOR_PROFILES
100
AcDbCircle
10
-670.6611683882835
20
591.11898949452086
30
0
40
2.9999999999999716
210
0
220
0
230
-1
0
CIRCLE
5
310
100
AcDbEntity
8
INTERIOR_PROFILES
100
AcDbCircle
10
-730.66116838828316
20
541.11898949452097
30
0
40
2.9999999999999716
210
0
220
0
230
-1
0
CIRCLE
5
311
100
AcDbEntity
8
INTERIOR_PROFILES
100
AcDbCircle
10
-670.6611683882835
20
601.11898949452086
30
0
40
2.9999999999999716
210
0
220
0
230
-1
0
CIRCLE
5
312
100
AcDbEntity
8
INTERIOR_PROFILES
100
AcDbCircle
10
-670.6611683882835
20
571.11898949452097
30
0
40
2.9999999999999716
210
0
220
0
230
-1
0
LINE
5
313
100
AcDbEntity
8
BEND
100
AcDbLine
10
182.1309733552923
20
0
30
-1.2002247701279686e-14
11
182.1309733552923
21
790
31
-1.2002247701279686e-14
0
LINE
5
314
100
AcDbEntity
8
BEND
100
AcDbLine
10
574.39292006587698
20
790
30
-3.3762639640298692e-13
11
574.39292006587698
21
0
31
-3.3762639640298692e-13
0
LINE
5
315
100
AcDbEntity
8
BEND_EXTENT
100
AcDbLine
10
575.52389342116908
20
790
30
-3.0723402204662493e-13
11
575.52389342116908
21
0
31
-3.0723402204662493e-13
0
LINE
5
316
100
AcDbEntity
8
BEND_EXTENT
100
AcDbLine
10
180.99999999999997
20
0
30
-1.1081763775635444e-14
11
180.99999999999997
21
790
31
-1.1081763775635444e-14
0
LINE
5
317
100
AcDbEntity
8
BEND_EXTENT
100
AcDbLine
10
573.26194671058465
20
0
30
-3.7618137779837342e-13
11
573.26194671058465
21
790
31
-3.7618137779837342e-13
0
LINE
5
318
100
AcDbEntity
8
BEND_EXTENT
100
AcDbLine
10
183.26194671058462
20
790
30
-1.2911125843740776e-14
11
183.26194671058462
21
0
31
-1.2911125843740776e-14
0
ENDSEC
0
SECTION
2
OBJECTS
0
DICTIONARY
5
C
100
AcDbDictionary
3
ACAD_GROUP
350
D
3
ACAD_MLINESTYLE
350
17
0
DICTIONARY
5
D
100
AcDbDictionary
0
DICTIONARY
5
1A
330
C
100
AcDbDictionary
0
DICTIONARY
5
17
100
AcDbDictionary
0
ENDSEC
0
EOF
