0
SECTION
2
HEADER
9
$INSUNITS
70
4
9
$ACADVER
1
AC1014
9
$HANDSEED
5
FFFF
0
ENDSEC
0
SECTION
2
TABLES
0
TABLE
2
VPORT
5
8
100
AcDbSymbolTable
0
ENDTAB
0
TABLE
2
LTYPE
5
5
100
AcDbSymbolTable
0
LTYPE
5
14
100
AcDbSymbolTableRecord
100
AcDbLinetypeTableRecord
2
BYBLOCK
70
0
0
LTYPE
5
15
100
AcDbSymbolTableRecord
100
AcDbLinetypeTableRecord
2
BYLAYER
70
0
0
ENDTAB
0
TABLE
2
LAYER
5
2
100
AcDbSymbolTable
70
2
0
LAYER
5
50
100
AcDbSymbolTableRecord
100
AcDbLayerTableRecord
2
0
70
0
6
CONTINUOUS
0
ENDTAB
0
TABLE
2
STYLE
5
3
100
AcDbSymbolTable
70
1
0
STYLE
5
11
100
AcDbSymbolTableRecord
100
AcDbTextStyleTableRecord
2
STANDARD
70
0
0
ENDTAB
0
TABLE
2
VIEW
5
6
100
AcDbSymbolTable
70
0
0
ENDTAB
0
TABLE
2
UCS
5
7
100
AcDbSymbolTable
70
0
0
ENDTAB
0
TABLE
2
APPID
5
9
100
AcDbSymbolTable
70
2
0
APPID
5
12
100
AcDbSymbolTableRecord
100
AcDbRegAppTableRecord
2
ACAD
70
0
0
ENDTAB
0
TABLE
2
DIMSTYLE
5
A
100
AcDbSymbolTable
70
1
0
ENDTAB
0
TABLE
2
BLOCK_RECORD
5
1
100
AcDbSymbolTable
70
1
0
BLOCK_RECORD
5
1F
100
AcDbSymbolTableRecord
100
AcDbBlockTableRecord
2
*MODEL_SPACE
0
BLOCK_RECORD
5
1B
100
AcDbSymbolTableRecord
100
AcDbBlockTableRecord
2
*PAPER_SPACE
0
ENDTAB
0
ENDSEC
0
SECTION
2
BLOCKS
0
BLOCK
5
20
100
AcDbEntity
100
AcDbBlockBegin
2
*MODEL_SPACE
0
ENDBLK
5
21
100
AcDbEntity
100
AcDbBlockEnd
0
BLOCK
5
1C
100
AcDbEntity
100
AcDbBlockBegin
2
*PAPER_SPACE
0
ENDBLK
5
1D
100
AcDbEntity
100
AcDbBlockEnd
0
ENDSEC
0
SECTION
2
ENTITIES
0
LWPOLYLINE
5
100
100
AcDbEntity
8
OUTER_PROFILES
100
AcDbPolyline
90
4
70
1
43
0.0
10
0
20
0
10
120
20
0
10
120
20
19.261946710584652
10
0
20
19.261946710584652
0
LWPOLYLINE
5
101
100
AcDbEntity
8
INTERIOR_PROFILES
100
AcDbPolyline
90
4
70
1
43
0.0
10
108.35000000000001
20
2.4999999999999978
10
108.35000000000001
20
5.4999999999999982
42
-0.99999999999999989
10
111.64999999999999
20
5.4999999999999982
10
111.64999999999999
20
2.4999999999999978
42
-0.99999999999999989
0
LWPOLYLINE
5
102
100
AcDbEntity
8
INTERIOR_PROFILES
100
AcDbPolyline
90
4
70
1
43
0.0
10
8.3499999999999996
20
2.5
42
0.99999999999999989
10
11.65
20
2.5
10
11.65
20
5.4999999999999991
42
0.99999999999999989
10
8.3499999999999908
20
5.5
0
LWPOLYLINE
5
103
100
AcDbEntity
8
INTERIOR_PROFILES
100
AcDbPolyline
90
4
70
1
43
0.0
10
58.350000000000001
20
2.5000000000000022
10
58.350000000000001
20
5.4999999999999947
42
-0.99999999999999989
10
61.649999999999999
20
5.5000000000000018
10
61.649999999999999
20
2.4999999999999978
42
-0.99999999999999989
0
LWPOLYLINE
5
104
100
AcDbEntity
8
INTERIOR_PROFILES
100
AcDbPolyline
90
4
70
1
43
0.0
10
108.5
20
15.911946710584653
10
111.5
20
15.911946710584653
42
-0.99999999999999989
10
111.5
20
12.611946710584652
10
108.5
20
12.611946710584652
42
-0.99999999999999989
0
LWPOLYLINE
5
105
100
AcDbEntity
8
INTERIOR_PROFILES
100
AcDbPolyline
90
4
70
1
43
0.0
10
58.5
20
15.911946710584653
10
61.499999999999993
20
15.911946710584653
42
-0.99999999999999989
10
61.500000000000014
20
12.611946710584652
10
58.5
20
12.611946710584652
42
-0.99999999999999989
0
LWPOLYLINE
5
106
100
AcDbEntity
8
INTERIOR_PROFILES
100
AcDbPolyline
90
4
70
1
43
0.0
10
8.4999999999999964
20
15.911946710584653
10
11.500000000000004
20
15.911946710584653
42
-0.99999999999999989
10
11.500000000000004
20
12.611946710584652
10
8.4999999999999964
20
12.611946710584652
42
-0.99999999999999989
0
LINE
5
107
100
AcDbEntity
8
BEND
100
AcDbLine
10
120
20
9.1309733552923262
30
-1.8474069640284211e-15
11
0
21
9.1309733552923262
31
-1.8474069640284211e-15
0
LINE
5
108
100
AcDbEntity
8
BEND_EXTENT
100
AcDbLine
10
0
20
8
30
-1.699970176147768e-15
11
120
21
8
31
-1.699970176147768e-15
0
LINE
5
109
100
AcDbEntity
8
BEND_EXTENT
100
AcDbLine
10
120
20
10.261946710584651
30
-1.7086290859502763e-15
11
0
21
10.261946710584651
31
-1.7086290859502763e-15
0
ENDSEC
0
SECTION
2
OBJECTS
0
DICTIONARY
5
C
100
AcDbDictionary
3
ACAD_GROUP
350
D
3
ACAD_MLINESTYLE
350
17
0
DICTIONARY
5
D
100
AcDbDictionary
0
DICTIONARY
5
1A
330
C
100
AcDbDictionary
0
DICTIONARY
5
17
100
AcDbDictionary
0
ENDSEC
0
EOF
