<?xml version="1.0" encoding="UTF-8" standalone="no"?>
<!-- Created with Inkscape (http://www.inkscape.org/) -->

<svg
   width="105mm"
   height="148mm"
   viewBox="0 0 105 148"
   version="1.1"
   id="svg5"
   sodipodi:docname="pcb_clip2.svg"
   inkscape:version="1.1 (c68e22c387, 2021-05-23)"
   xmlns:inkscape="http://www.inkscape.org/namespaces/inkscape"
   xmlns:sodipodi="http://sodipodi.sourceforge.net/DTD/sodipodi-0.dtd"
   xmlns="http://www.w3.org/2000/svg"
   xmlns:svg="http://www.w3.org/2000/svg">
  <sodipodi:namedview
     id="namedview7"
     pagecolor="#ffffff"
     bordercolor="#666666"
     borderopacity="1.0"
     inkscape:pageshadow="2"
     inkscape:pageopacity="0.0"
     inkscape:pagecheckerboard="0"
     inkscape:document-units="mm"
     showgrid="false"
     inkscape:snap-global="true"
     inkscape:zoom="4.5450865"
     inkscape:cx="37.29302"
     inkscape:cy="532.11309"
     inkscape:window-width="1858"
     inkscape:window-height="1057"
     inkscape:window-x="54"
     inkscape:window-y="-8"
     inkscape:window-maximized="1"
     inkscape:current-layer="layer1"
     inkscape:snap-bbox="true"
     inkscape:snap-bbox-edge-midpoints="true"
     inkscape:bbox-paths="true"
     inkscape:bbox-nodes="true"
     inkscape:snap-page="true" />
  <defs
     id="defs2" />
  <g
     inkscape:label="Layer 1"
     inkscape:groupmode="layer"
     id="layer1">
    <path
       id="path861"
       style="vector-effect:non-scaling-stroke;fill:none;fill-rule:evenodd;stroke:#000000;stroke-width:0.00265002;stroke-linecap:butt;stroke-linejoin:miter;stroke-miterlimit:4;stroke-dasharray:none;stroke-opacity:1;-inkscape-stroke:hairline"
       d="M -10.431641 471.31836 L -10.431641 519.07031 L -10.431641 520.80273 L -10.431641 528.92188 L -10.431641 544.25 L -10.458984 544.25 A 1.8632499 1.5969783 0 0 1 -12.322266 545.84766 A 1.8632499 1.5969783 0 0 1 -14.185547 544.25 L -14.212891 544.25 A 13.229117 11.338583 0 0 0 -27.441406 532.91211 A 13.229117 11.338583 0 0 0 -40.669922 544.25 L -40.669922 563.14844 L -29.330078 563.14844 L -29.330078 555.46875 L -29.330078 544.25 L -29.304688 544.25 A 1.8632499 1.5969783 0 0 1 -27.441406 542.65234 A 1.8632499 1.5969783 0 0 1 -25.578125 544.25 L -25.550781 544.25 A 13.229117 11.338583 0 0 0 -12.322266 555.58789 A 13.229117 11.338583 0 0 0 0.90820312 544.25 L 0.90820312 528.92188 L 0.90820312 520.80273 L 1.8085938 520.80273 L 8.8046875 508.21289 L 3.5585938 508.21289 L 0.060546875 502.79297 L 4.0820312 496.67188 L -5.8847656 471.31836 L -10.431641 471.31836 z "
       transform="scale(0.26458333)" />
  </g>
</svg>
